<svg width="22" height="18" viewBox="0 0 22 18" fill="none" xmlns="http://www.w3.org/2000/svg">
<path d="M3.3 3.375V11.25C3.3 12.491 4.28656 13.5 5.5 13.5H19.8C21.0134 13.5 22 12.491 22 11.25V3.375C22 2.13398 21.0134 1.125 19.8 1.125H5.5C4.28656 1.125 3.3 2.13398 3.3 3.375ZM5.5 9C6.71344 9 7.7 10.009 7.7 11.25H5.5V9ZM7.7 3.375C7.7 4.61602 6.71344 5.625 5.5 5.625V3.375H7.7ZM19.8 9V11.25H17.6C17.6 10.009 18.5866 9 19.8 9ZM17.6 3.375H19.8V5.625C18.5866 5.625 17.6 4.61602 17.6 3.375ZM15.4 7.3125C15.4 8.86641 14.1694 10.125 12.65 10.125C11.1306 10.125 9.9 8.86641 9.9 7.3125C9.9 5.75859 11.1306 4.5 12.65 4.5C14.1694 4.5 15.4 5.75859 15.4 7.3125ZM1.65 4.21875C1.65 3.75117 1.28219 3.375 0.825 3.375C0.367813 3.375 0 3.75117 0 4.21875V12.6562C0 14.9871 1.84594 16.875 4.125 16.875H17.875C18.3322 16.875 18.7 16.4988 18.7 16.0312C18.7 15.5637 18.3322 15.1875 17.875 15.1875H4.125C2.75688 15.1875 1.65 14.0555 1.65 12.6562V4.21875Z" fill="#94A3B8"/>
</svg>
