<svg width="17" height="17" viewBox="0 0 17 17" fill="none" xmlns="http://www.w3.org/2000/svg">
<path fill-rule="evenodd" clip-rule="evenodd" d="M7.79163 10.625H4.95829C3.78954 10.625 2.83329 9.66873 2.83329 8.49998C2.83329 7.33123 3.78954 6.37498 4.95829 6.37498H7.79163V4.95831H4.95829C3.00329 4.95831 1.41663 6.54498 1.41663 8.49998C1.41663 10.455 3.00329 12.0416 4.95829 12.0416H7.79163V10.625ZM12.0416 4.95831L9.20829 4.95831V6.37498L12.0416 6.37498C13.2104 6.37498 14.1666 7.33123 14.1666 8.49998C14.1666 9.66873 13.2104 10.625 12.0416 10.625H9.20829V12.0416H12.0416C13.9966 12.0416 15.5833 10.455 15.5833 8.49998C15.5833 6.54498 13.9966 4.95831 12.0416 4.95831ZM11.3333 7.79165H5.66663V9.20831H11.3333V7.79165Z" fill="#475668"/>
</svg>
