<svg width="22" height="22" viewBox="0 0 22 22" fill="none" xmlns="http://www.w3.org/2000/svg">
<path fill-rule="evenodd" clip-rule="evenodd" d="M5.49996 9.16669C4.49163 9.16669 3.66663 9.99169 3.66663 11C3.66663 12.0084 4.49163 12.8334 5.49996 12.8334C6.50829 12.8334 7.33329 12.0084 7.33329 11C7.33329 9.99169 6.50829 9.16669 5.49996 9.16669ZM16.5 9.16669C15.4916 9.16669 14.6666 9.99169 14.6666 11C14.6666 12.0084 15.4916 12.8334 16.5 12.8334C17.5083 12.8334 18.3333 12.0084 18.3333 11C18.3333 9.99169 17.5083 9.16669 16.5 9.16669ZM9.16663 11C9.16663 9.99169 9.99163 9.16669 11 9.16669C12.0083 9.16669 12.8333 9.99169 12.8333 11C12.8333 12.0084 12.0083 12.8334 11 12.8334C9.99163 12.8334 9.16663 12.0084 9.16663 11Z" fill="#94A3B8"/>
</svg>
