<svg width="50" height="50" viewBox="0 0 50 50" fill="none" xmlns="http://www.w3.org/2000/svg">
<path d="M14.4583 29.2417C13.9729 30.5417 13.5625 31.7417 13.1958 32.9562C15.1958 31.5042 17.5729 30.5833 20.3167 30.2396C25.5521 29.5854 30.2042 26.1292 32.5583 21.7854L29.525 18.7542L32.4688 15.8062L34.5521 13.7208C35.4479 12.825 36.4583 11.1708 37.5271 8.78749C25.875 10.5937 18.7396 17.7292 14.4563 29.2417H14.4583ZM35.4167 18.7521L37.5 20.8333C35.4167 27.0833 29.1667 33.3333 20.8333 34.375C15.2729 35.0708 11.8 38.8896 10.4125 45.8333H6.25C8.33333 33.3333 12.5 4.16666 43.75 4.16666C41.6667 10.4104 39.5875 14.575 37.5062 16.6604L35.4167 18.7521Z" fill="black"/>
</svg>
