<svg width="19" height="19" viewBox="0 0 19 19" fill="none" xmlns="http://www.w3.org/2000/svg">
<path fill-rule="evenodd" clip-rule="evenodd" d="M11.8249 11.2639H12.4491L16.3921 15.2147L15.2147 16.3921L11.2639 12.4491V11.8249L11.0505 11.6037C10.1497 12.378 8.98029 12.8442 7.70811 12.8442C4.8714 12.8442 2.57201 10.5448 2.57201 7.70813C2.57201 4.87142 4.8714 2.57202 7.70811 2.57202C10.5448 2.57202 12.8442 4.87142 12.8442 7.70813C12.8442 8.9803 12.378 10.1498 11.6037 11.0505L11.8249 11.2639ZM4.15235 7.70813C4.15235 9.67565 5.74059 11.2639 7.70811 11.2639C9.67563 11.2639 11.2639 9.67565 11.2639 7.70813C11.2639 5.7406 9.67563 4.15236 7.70811 4.15236C5.74059 4.15236 4.15235 5.7406 4.15235 7.70813Z" fill="#CBD5E1"/>
</svg>
