<svg width="45" height="45" viewBox="0 0 45 45" fill="none" xmlns="http://www.w3.org/2000/svg">
<path fill-rule="evenodd" clip-rule="evenodd" d="M22.5 0C10.0739 0 0 10.0739 0 22.5C0 34.9261 10.0739 45 22.5 45C34.9261 45 45 34.9261 45 22.5C45 10.0739 34.9261 0 22.5 0ZM32.2527 18.6955C32.4323 18.4902 32.569 18.2511 32.6548 17.9922C32.7406 17.7333 32.7738 17.4598 32.7524 17.1879C32.7309 16.916 32.6553 16.6512 32.53 16.4089C32.4047 16.1666 32.2322 15.9519 32.0227 15.7773C31.8132 15.6027 31.5709 15.4717 31.31 15.3922C31.0491 15.3126 30.7749 15.286 30.5036 15.314C30.2323 15.3419 29.9693 15.4238 29.7302 15.5549C29.491 15.686 29.2804 15.8636 29.1109 16.0773L20.3155 26.6298L15.7643 22.0766C15.3785 21.704 14.8619 21.4978 14.3255 21.5025C13.7892 21.5071 13.2762 21.7223 12.897 22.1015C12.5177 22.4808 12.3026 22.9938 12.2979 23.5301C12.2933 24.0664 12.4994 24.5831 12.872 24.9689L19.0084 31.1052C19.2094 31.3061 19.45 31.4629 19.7149 31.5656C19.9799 31.6683 20.2633 31.7147 20.5471 31.7018C20.831 31.6889 21.109 31.617 21.3636 31.4907C21.6181 31.3644 21.8435 31.1864 22.0255 30.9682L32.2527 18.6955Z" fill="#02CCA8"/>
</svg>
