<svg width="23" height="19" viewBox="0 0 23 19" fill="none" xmlns="http://www.w3.org/2000/svg">
<path d="M22.6584 2.7311C21.8581 3.08568 20.9985 3.32527 20.0948 3.43356C21.0273 2.87561 21.7249 1.99746 22.0575 0.962976C21.1814 1.48334 20.2226 1.84962 19.2227 2.04589C18.5503 1.32797 17.6597 0.852122 16.6892 0.692222C15.7187 0.532322 14.7225 0.697318 13.8553 1.16159C12.9882 1.62587 12.2986 2.36345 11.8935 3.25982C11.4885 4.15619 11.3908 5.16119 11.6155 6.11881C9.84035 6.02968 8.10379 5.56829 6.51851 4.76459C4.93323 3.96089 3.53466 2.83284 2.41356 1.45364C2.03023 2.11489 1.80981 2.88156 1.80981 3.69806C1.80938 4.4331 1.99039 5.15688 2.33678 5.80518C2.68317 6.45348 3.18422 7.00626 3.79548 7.41448C3.08658 7.39192 2.39332 7.20037 1.7734 6.85577V6.91327C1.77332 7.94419 2.12993 8.94338 2.7827 9.74131C3.43547 10.5392 4.34419 11.0867 5.35469 11.2909C4.69706 11.4689 4.00759 11.4951 3.33835 11.3676C3.62346 12.2546 4.17881 13.0303 4.92666 13.5861C5.67452 14.1418 6.57744 14.4498 7.50902 14.4669C5.92761 15.7083 3.97458 16.3817 1.9641 16.3787C1.60797 16.3788 1.25214 16.358 0.898438 16.3164C2.93919 17.6286 5.31476 18.3249 7.74094 18.3222C15.9539 18.3222 20.4436 11.52 20.4436 5.62048C20.4436 5.42881 20.4389 5.23523 20.4302 5.04356C21.3036 4.41199 22.0574 3.62992 22.6564 2.73398L22.6584 2.7311Z" fill="#18BAFF"/>
</svg>
