<svg width="334" height="232" viewBox="0 0 334 232" fill="none" xmlns="http://www.w3.org/2000/svg">
<circle cx="166.5" cy="71.5" r="71.5" fill="#DEDEDE" fill-opacity="0.36"/>
<path d="M170.667 48.6666H152C149.433 48.6666 147.357 50.7666 147.357 53.3333L147.333 90.6666C147.333 93.2333 149.41 95.3333 151.977 95.3333H180C182.567 95.3333 184.667 93.2333 184.667 90.6666V62.6666L170.667 48.6666ZM152 90.6666V53.3333H168.333V65H180V90.6666H152Z" fill="#999595"/>
<path d="M27.9242 201V186.455H30.1188V199.111H36.7097V201H27.9242ZM43.638 201.22C42.6152 201.22 41.7227 200.986 40.9604 200.517C40.1981 200.048 39.6062 199.393 39.1848 198.55C38.7634 197.707 38.5527 196.722 38.5527 195.595C38.5527 194.464 38.7634 193.474 39.1848 192.626C39.6062 191.779 40.1981 191.121 40.9604 190.652C41.7227 190.183 42.6152 189.949 43.638 189.949C44.6607 189.949 45.5532 190.183 46.3155 190.652C47.0778 191.121 47.6697 191.779 48.0911 192.626C48.5125 193.474 48.7232 194.464 48.7232 195.595C48.7232 196.722 48.5125 197.707 48.0911 198.55C47.6697 199.393 47.0778 200.048 46.3155 200.517C45.5532 200.986 44.6607 201.22 43.638 201.22ZM43.6451 199.438C44.3079 199.438 44.8572 199.262 45.2928 198.912C45.7284 198.562 46.0504 198.095 46.2587 197.513C46.4718 196.93 46.5783 196.289 46.5783 195.588C46.5783 194.892 46.4718 194.253 46.2587 193.67C46.0504 193.083 45.7284 192.612 45.2928 192.257C44.8572 191.902 44.3079 191.724 43.6451 191.724C42.9775 191.724 42.4235 191.902 41.9831 192.257C41.5475 192.612 41.2232 193.083 41.0101 193.67C40.8018 194.253 40.6976 194.892 40.6976 195.588C40.6976 196.289 40.8018 196.93 41.0101 197.513C41.2232 198.095 41.5475 198.562 41.9831 198.912C42.4235 199.262 42.9775 199.438 43.6451 199.438ZM55.6887 201.22C54.666 201.22 53.7735 200.986 53.0112 200.517C52.2489 200.048 51.657 199.393 51.2356 198.55C50.8142 197.707 50.6035 196.722 50.6035 195.595C50.6035 194.464 50.8142 193.474 51.2356 192.626C51.657 191.779 52.2489 191.121 53.0112 190.652C53.7735 190.183 54.666 189.949 55.6887 189.949C56.7115 189.949 57.604 190.183 58.3663 190.652C59.1286 191.121 59.7205 191.779 60.1419 192.626C60.5633 193.474 60.774 194.464 60.774 195.595C60.774 196.722 60.5633 197.707 60.1419 198.55C59.7205 199.393 59.1286 200.048 58.3663 200.517C57.604 200.986 56.7115 201.22 55.6887 201.22ZM55.6958 199.438C56.3587 199.438 56.908 199.262 57.3436 198.912C57.7792 198.562 58.1011 198.095 58.3095 197.513C58.5226 196.93 58.6291 196.289 58.6291 195.588C58.6291 194.892 58.5226 194.253 58.3095 193.67C58.1011 193.083 57.7792 192.612 57.3436 192.257C56.908 191.902 56.3587 191.724 55.6958 191.724C55.0282 191.724 54.4743 191.902 54.0339 192.257C53.5983 192.612 53.274 193.083 53.0609 193.67C52.8526 194.253 52.7484 194.892 52.7484 195.588C52.7484 196.289 52.8526 196.93 53.0609 197.513C53.274 198.095 53.5983 198.562 54.0339 198.912C54.4743 199.262 55.0282 199.438 55.6958 199.438ZM65.0975 197.3L65.0833 194.707H65.4526L69.7992 190.091H72.3418L67.3844 195.347H67.0506L65.0975 197.3ZM63.1444 201V186.455H65.2679V201H63.1444ZM70.0336 201L66.1273 195.815L67.5904 194.331L72.6401 201H70.0336ZM82.4519 192.754L80.5272 193.095C80.4467 192.849 80.3188 192.615 80.1436 192.392C79.9732 192.17 79.7412 191.987 79.4476 191.845C79.1541 191.703 78.7871 191.632 78.3468 191.632C77.7454 191.632 77.2435 191.767 76.8411 192.037C76.4386 192.302 76.2374 192.645 76.2374 193.067C76.2374 193.431 76.3723 193.725 76.6422 193.947C76.9121 194.17 77.3477 194.352 77.949 194.494L79.682 194.892C80.6858 195.124 81.4339 195.482 81.9263 195.964C82.4187 196.447 82.665 197.075 82.665 197.847C82.665 198.5 82.4756 199.082 82.0968 199.594C81.7227 200.1 81.1995 200.498 80.5272 200.787C79.8596 201.076 79.0854 201.22 78.2047 201.22C76.9831 201.22 75.9864 200.96 75.2147 200.439C74.4429 199.913 73.9694 199.168 73.7942 198.202L75.8468 197.889C75.9746 198.424 76.2374 198.829 76.6351 199.104C77.0328 199.374 77.5513 199.509 78.1905 199.509C78.8865 199.509 79.4429 199.364 79.8596 199.075C80.2762 198.782 80.4846 198.424 80.4846 198.003C80.4846 197.662 80.3567 197.375 80.101 197.143C79.8501 196.911 79.4642 196.736 78.9434 196.618L77.0968 196.213C76.0788 195.981 75.3259 195.612 74.8382 195.105C74.3553 194.598 74.1138 193.957 74.1138 193.18C74.1138 192.536 74.2937 191.973 74.6536 191.49C75.0134 191.007 75.5106 190.631 76.1451 190.361C76.7795 190.086 77.5063 189.949 78.3255 189.949C79.5044 189.949 80.4325 190.205 81.1096 190.716C81.7866 191.223 82.2341 191.902 82.4519 192.754ZM92.4164 186.455V201H90.2928V186.455H92.4164ZM95.2733 201V190.091H97.3968V201H95.2733ZM96.3457 188.408C95.9764 188.408 95.6592 188.285 95.394 188.038C95.1336 187.787 95.0034 187.489 95.0034 187.143C95.0034 186.793 95.1336 186.495 95.394 186.249C95.6592 185.998 95.9764 185.872 96.3457 185.872C96.715 185.872 97.0299 185.998 97.2903 186.249C97.5555 186.495 97.688 186.793 97.688 187.143C97.688 187.489 97.5555 187.787 97.2903 188.038C97.0299 188.285 96.715 188.408 96.3457 188.408ZM102.207 197.3L102.193 194.707H102.562L106.909 190.091H109.451L104.494 195.347H104.16L102.207 197.3ZM100.254 201V186.455H102.377V201H100.254ZM107.143 201L103.237 195.815L104.7 194.331L109.749 201H107.143ZM115.639 201.22C114.564 201.22 113.639 200.991 112.862 200.531C112.09 200.067 111.494 199.416 111.072 198.578C110.656 197.735 110.447 196.748 110.447 195.616C110.447 194.499 110.656 193.514 111.072 192.662C111.494 191.81 112.081 191.144 112.834 190.666C113.591 190.188 114.477 189.949 115.49 189.949C116.105 189.949 116.702 190.051 117.28 190.254C117.857 190.458 118.376 190.777 118.835 191.213C119.294 191.649 119.657 192.214 119.922 192.911C120.187 193.602 120.319 194.442 120.319 195.432V196.185H111.648V194.594H118.238C118.238 194.035 118.125 193.54 117.898 193.109C117.67 192.674 117.351 192.33 116.939 192.08C116.532 191.829 116.053 191.703 115.504 191.703C114.907 191.703 114.387 191.85 113.942 192.143C113.501 192.432 113.16 192.811 112.919 193.28C112.682 193.744 112.564 194.248 112.564 194.793V196.036C112.564 196.765 112.692 197.385 112.947 197.896C113.208 198.408 113.57 198.798 114.034 199.068C114.498 199.333 115.04 199.466 115.66 199.466C116.063 199.466 116.43 199.409 116.761 199.295C117.093 199.177 117.379 199.002 117.621 198.77C117.862 198.538 118.047 198.251 118.175 197.911L120.184 198.273C120.023 198.865 119.735 199.383 119.318 199.828C118.906 200.268 118.388 200.612 117.763 200.858C117.142 201.099 116.434 201.22 115.639 201.22ZM131.143 201.241C130.452 201.241 129.827 201.114 129.268 200.858C128.71 200.598 128.267 200.221 127.94 199.729C127.618 199.236 127.457 198.633 127.457 197.918C127.457 197.302 127.576 196.795 127.812 196.398C128.049 196 128.369 195.685 128.771 195.453C129.174 195.221 129.623 195.046 130.121 194.928C130.618 194.809 131.124 194.719 131.64 194.658C132.294 194.582 132.824 194.52 133.231 194.473C133.639 194.421 133.934 194.338 134.119 194.224C134.304 194.111 134.396 193.926 134.396 193.67V193.621C134.396 193 134.221 192.52 133.871 192.179C133.525 191.838 133.009 191.668 132.322 191.668C131.607 191.668 131.044 191.826 130.632 192.143C130.225 192.456 129.943 192.804 129.787 193.188L127.791 192.733C128.028 192.07 128.373 191.535 128.828 191.128C129.287 190.716 129.815 190.418 130.412 190.233C131.008 190.044 131.636 189.949 132.294 189.949C132.729 189.949 133.191 190.001 133.679 190.105C134.171 190.205 134.631 190.389 135.057 190.659C135.488 190.929 135.84 191.315 136.115 191.817C136.39 192.314 136.527 192.96 136.527 193.756V201H134.453V199.509H134.368C134.23 199.783 134.024 200.053 133.75 200.318C133.475 200.583 133.122 200.804 132.692 200.979C132.261 201.154 131.745 201.241 131.143 201.241ZM131.605 199.537C132.192 199.537 132.694 199.421 133.111 199.189C133.532 198.957 133.852 198.654 134.069 198.28C134.292 197.901 134.403 197.496 134.403 197.065V195.659C134.327 195.735 134.181 195.806 133.963 195.872C133.75 195.934 133.506 195.988 133.231 196.036C132.957 196.078 132.689 196.118 132.429 196.156C132.168 196.189 131.951 196.218 131.775 196.241C131.363 196.294 130.987 196.381 130.646 196.504C130.31 196.627 130.04 196.805 129.836 197.037C129.638 197.264 129.538 197.567 129.538 197.946C129.538 198.472 129.732 198.869 130.121 199.139C130.509 199.404 131.004 199.537 131.605 199.537ZM141.479 186.455V201H139.355V186.455H141.479ZM146.459 186.455V201H144.336V186.455H146.459ZM155.952 205.091C155.634 205.091 155.345 205.065 155.085 205.013C154.825 204.965 154.631 204.913 154.503 204.857L155.014 203.116C155.402 203.221 155.748 203.266 156.051 203.251C156.354 203.237 156.622 203.124 156.854 202.911C157.09 202.697 157.299 202.349 157.479 201.866L157.741 201.142L153.75 190.091H156.023L158.785 198.557H158.899L161.662 190.091H163.942L159.446 202.456C159.238 203.024 158.972 203.505 158.65 203.898C158.328 204.295 157.945 204.594 157.5 204.793C157.055 204.991 156.539 205.091 155.952 205.091ZM170.161 201.22C169.139 201.22 168.246 200.986 167.484 200.517C166.722 200.048 166.13 199.393 165.708 198.55C165.287 197.707 165.076 196.722 165.076 195.595C165.076 194.464 165.287 193.474 165.708 192.626C166.13 191.779 166.722 191.121 167.484 190.652C168.246 190.183 169.139 189.949 170.161 189.949C171.184 189.949 172.077 190.183 172.839 190.652C173.601 191.121 174.193 191.779 174.615 192.626C175.036 193.474 175.247 194.464 175.247 195.595C175.247 196.722 175.036 197.707 174.615 198.55C174.193 199.393 173.601 200.048 172.839 200.517C172.077 200.986 171.184 201.22 170.161 201.22ZM170.169 199.438C170.831 199.438 171.381 199.262 171.816 198.912C172.252 198.562 172.574 198.095 172.782 197.513C172.995 196.93 173.102 196.289 173.102 195.588C173.102 194.892 172.995 194.253 172.782 193.67C172.574 193.083 172.252 192.612 171.816 192.257C171.381 191.902 170.831 191.724 170.169 191.724C169.501 191.724 168.947 191.902 168.507 192.257C168.071 192.612 167.747 193.083 167.534 193.67C167.325 194.253 167.221 194.892 167.221 195.588C167.221 196.289 167.325 196.93 167.534 197.513C167.747 198.095 168.071 198.562 168.507 198.912C168.947 199.262 169.501 199.438 170.169 199.438ZM184.528 196.476V190.091H186.658V201H184.57V199.111H184.456C184.206 199.693 183.803 200.179 183.249 200.567C182.7 200.95 182.016 201.142 181.197 201.142C180.496 201.142 179.876 200.988 179.336 200.68C178.801 200.368 178.379 199.906 178.072 199.295C177.769 198.685 177.617 197.929 177.617 197.03V190.091H179.741V196.774C179.741 197.518 179.947 198.109 180.358 198.55C180.77 198.99 181.305 199.21 181.964 199.21C182.361 199.21 182.757 199.111 183.15 198.912C183.547 198.713 183.876 198.412 184.137 198.01C184.402 197.607 184.532 197.096 184.528 196.476ZM189.512 201V190.091H191.564V191.824H191.678C191.877 191.237 192.227 190.775 192.729 190.439C193.235 190.098 193.808 189.928 194.448 189.928C194.58 189.928 194.736 189.932 194.916 189.942C195.101 189.951 195.245 189.963 195.35 189.977V192.009C195.264 191.985 195.113 191.959 194.895 191.93C194.677 191.897 194.459 191.881 194.242 191.881C193.74 191.881 193.292 191.987 192.899 192.2C192.511 192.409 192.203 192.7 191.976 193.074C191.749 193.443 191.635 193.865 191.635 194.338V201H189.512ZM205.655 201.241C204.964 201.241 204.339 201.114 203.78 200.858C203.221 200.598 202.779 200.221 202.452 199.729C202.13 199.236 201.969 198.633 201.969 197.918C201.969 197.302 202.087 196.795 202.324 196.398C202.561 196 202.88 195.685 203.283 195.453C203.685 195.221 204.135 195.046 204.632 194.928C205.129 194.809 205.636 194.719 206.152 194.658C206.806 194.582 207.336 194.52 207.743 194.473C208.15 194.421 208.446 194.338 208.631 194.224C208.816 194.111 208.908 193.926 208.908 193.67V193.621C208.908 193 208.733 192.52 208.382 192.179C208.037 191.838 207.521 191.668 206.834 191.668C206.119 191.668 205.556 191.826 205.144 192.143C204.736 192.456 204.455 192.804 204.298 193.188L202.303 192.733C202.539 192.07 202.885 191.535 203.34 191.128C203.799 190.716 204.327 190.418 204.923 190.233C205.52 190.044 206.147 189.949 206.806 189.949C207.241 189.949 207.703 190.001 208.191 190.105C208.683 190.205 209.142 190.389 209.568 190.659C209.999 190.929 210.352 191.315 210.627 191.817C210.901 192.314 211.039 192.96 211.039 193.756V201H208.965V199.509H208.879C208.742 199.783 208.536 200.053 208.262 200.318C207.987 200.583 207.634 200.804 207.203 200.979C206.772 201.154 206.256 201.241 205.655 201.241ZM206.117 199.537C206.704 199.537 207.206 199.421 207.622 199.189C208.044 198.957 208.363 198.654 208.581 198.28C208.804 197.901 208.915 197.496 208.915 197.065V195.659C208.839 195.735 208.692 195.806 208.475 195.872C208.262 195.934 208.018 195.988 207.743 196.036C207.468 196.078 207.201 196.118 206.941 196.156C206.68 196.189 206.462 196.218 206.287 196.241C205.875 196.294 205.499 196.381 205.158 196.504C204.822 196.627 204.552 196.805 204.348 197.037C204.149 197.264 204.05 197.567 204.05 197.946C204.05 198.472 204.244 198.869 204.632 199.139C205.021 199.404 205.515 199.537 206.117 199.537ZM213.867 201V190.091H215.92V191.824H216.033C216.232 191.237 216.582 190.775 217.084 190.439C217.591 190.098 218.164 189.928 218.803 189.928C218.936 189.928 219.092 189.932 219.272 189.942C219.456 189.951 219.601 189.963 219.705 189.977V192.009C219.62 191.985 219.468 191.959 219.251 191.93C219.033 191.897 218.815 191.881 218.597 191.881C218.095 191.881 217.648 191.987 217.255 192.2C216.867 192.409 216.559 192.7 216.331 193.074C216.104 193.443 215.991 193.865 215.991 194.338V201H213.867ZM227.28 190.091V191.795H221.321V190.091H227.28ZM222.919 187.477H225.042V197.797C225.042 198.209 225.104 198.519 225.227 198.727C225.35 198.931 225.509 199.071 225.703 199.146C225.902 199.217 226.117 199.253 226.349 199.253C226.52 199.253 226.669 199.241 226.797 199.217C226.925 199.194 227.024 199.175 227.095 199.161L227.479 200.915C227.355 200.962 227.18 201.009 226.953 201.057C226.726 201.109 226.442 201.137 226.101 201.142C225.542 201.152 225.021 201.052 224.538 200.844C224.055 200.635 223.665 200.313 223.366 199.878C223.068 199.442 222.919 198.895 222.919 198.237V187.477ZM229.629 201V190.091H231.752V201H229.629ZM230.701 188.408C230.332 188.408 230.015 188.285 229.749 188.038C229.489 187.787 229.359 187.489 229.359 187.143C229.359 186.793 229.489 186.495 229.749 186.249C230.015 185.998 230.332 185.872 230.701 185.872C231.07 185.872 231.385 185.998 231.646 186.249C231.911 186.495 232.044 186.793 232.044 187.143C232.044 187.489 231.911 187.787 231.646 188.038C231.385 188.285 231.07 188.408 230.701 188.408ZM239.204 201.22C238.148 201.22 237.239 200.981 236.477 200.503C235.72 200.02 235.137 199.355 234.73 198.507C234.323 197.66 234.119 196.689 234.119 195.595C234.119 194.487 234.327 193.509 234.744 192.662C235.161 191.81 235.748 191.144 236.506 190.666C237.263 190.188 238.156 189.949 239.183 189.949C240.012 189.949 240.75 190.103 241.399 190.411C242.048 190.714 242.571 191.14 242.969 191.689C243.371 192.238 243.61 192.88 243.686 193.614H241.619C241.506 193.102 241.245 192.662 240.838 192.293C240.435 191.923 239.896 191.739 239.219 191.739C238.627 191.739 238.108 191.895 237.663 192.207C237.223 192.515 236.88 192.955 236.633 193.528C236.387 194.097 236.264 194.769 236.264 195.545C236.264 196.341 236.385 197.027 236.626 197.605C236.868 198.183 237.209 198.63 237.649 198.947C238.094 199.265 238.617 199.423 239.219 199.423C239.621 199.423 239.986 199.35 240.312 199.203C240.644 199.052 240.921 198.836 241.143 198.557C241.371 198.277 241.529 197.941 241.619 197.548H243.686C243.61 198.254 243.381 198.884 242.997 199.438C242.613 199.991 242.1 200.427 241.456 200.744C240.817 201.062 240.066 201.22 239.204 201.22ZM248.08 186.455V201H245.957V186.455H248.08ZM255.639 201.22C254.564 201.22 253.639 200.991 252.862 200.531C252.09 200.067 251.494 199.416 251.072 198.578C250.656 197.735 250.447 196.748 250.447 195.616C250.447 194.499 250.656 193.514 251.072 192.662C251.494 191.81 252.081 191.144 252.834 190.666C253.591 190.188 254.477 189.949 255.49 189.949C256.105 189.949 256.702 190.051 257.28 190.254C257.857 190.458 258.376 190.777 258.835 191.213C259.294 191.649 259.657 192.214 259.922 192.911C260.187 193.602 260.319 194.442 260.319 195.432V196.185H251.648V194.594H258.238C258.238 194.035 258.125 193.54 257.898 193.109C257.67 192.674 257.351 192.33 256.939 192.08C256.532 191.829 256.053 191.703 255.504 191.703C254.907 191.703 254.387 191.85 253.942 192.143C253.501 192.432 253.16 192.811 252.919 193.28C252.682 193.744 252.564 194.248 252.564 194.793V196.036C252.564 196.765 252.692 197.385 252.947 197.896C253.208 198.408 253.57 198.798 254.034 199.068C254.498 199.333 255.04 199.466 255.66 199.466C256.063 199.466 256.43 199.409 256.761 199.295C257.093 199.177 257.379 199.002 257.621 198.77C257.862 198.538 258.047 198.251 258.175 197.911L260.184 198.273C260.023 198.865 259.735 199.383 259.318 199.828C258.906 200.268 258.388 200.612 257.763 200.858C257.142 201.099 256.434 201.22 255.639 201.22ZM270.85 192.754L268.926 193.095C268.845 192.849 268.717 192.615 268.542 192.392C268.372 192.17 268.14 191.987 267.846 191.845C267.552 191.703 267.186 191.632 266.745 191.632C266.144 191.632 265.642 191.767 265.24 192.037C264.837 192.302 264.636 192.645 264.636 193.067C264.636 193.431 264.771 193.725 265.041 193.947C265.311 194.17 265.746 194.352 266.347 194.494L268.08 194.892C269.084 195.124 269.832 195.482 270.325 195.964C270.817 196.447 271.063 197.075 271.063 197.847C271.063 198.5 270.874 199.082 270.495 199.594C270.121 200.1 269.598 200.498 268.926 200.787C268.258 201.076 267.484 201.22 266.603 201.22C265.382 201.22 264.385 200.96 263.613 200.439C262.841 199.913 262.368 199.168 262.193 198.202L264.245 197.889C264.373 198.424 264.636 198.829 265.034 199.104C265.431 199.374 265.95 199.509 266.589 199.509C267.285 199.509 267.841 199.364 268.258 199.075C268.675 198.782 268.883 198.424 268.883 198.003C268.883 197.662 268.755 197.375 268.499 197.143C268.249 196.911 267.863 196.736 267.342 196.618L265.495 196.213C264.477 195.981 263.724 195.612 263.237 195.105C262.754 194.598 262.512 193.957 262.512 193.18C262.512 192.536 262.692 191.973 263.052 191.49C263.412 191.007 263.909 190.631 264.544 190.361C265.178 190.086 265.905 189.949 266.724 189.949C267.903 189.949 268.831 190.205 269.508 190.716C270.185 191.223 270.633 191.902 270.85 192.754ZM281.866 201.241C281.175 201.241 280.55 201.114 279.991 200.858C279.432 200.598 278.99 200.221 278.663 199.729C278.341 199.236 278.18 198.633 278.18 197.918C278.18 197.302 278.298 196.795 278.535 196.398C278.772 196 279.091 195.685 279.494 195.453C279.896 195.221 280.346 195.046 280.843 194.928C281.34 194.809 281.847 194.719 282.363 194.658C283.017 194.582 283.547 194.52 283.954 194.473C284.361 194.421 284.657 194.338 284.842 194.224C285.026 194.111 285.119 193.926 285.119 193.67V193.621C285.119 193 284.944 192.52 284.593 192.179C284.248 191.838 283.731 191.668 283.045 191.668C282.33 191.668 281.767 191.826 281.355 192.143C280.947 192.456 280.666 192.804 280.509 193.188L278.514 192.733C278.75 192.07 279.096 191.535 279.551 191.128C280.01 190.716 280.538 190.418 281.134 190.233C281.731 190.044 282.358 189.949 283.017 189.949C283.452 189.949 283.914 190.001 284.401 190.105C284.894 190.205 285.353 190.389 285.779 190.659C286.21 190.929 286.563 191.315 286.838 191.817C287.112 192.314 287.249 192.96 287.249 193.756V201H285.176V199.509H285.09C284.953 199.783 284.747 200.053 284.472 200.318C284.198 200.583 283.845 200.804 283.414 200.979C282.983 201.154 282.467 201.241 281.866 201.241ZM282.328 199.537C282.915 199.537 283.417 199.421 283.833 199.189C284.255 198.957 284.574 198.654 284.792 198.28C285.015 197.901 285.126 197.496 285.126 197.065V195.659C285.05 195.735 284.903 195.806 284.686 195.872C284.472 195.934 284.229 195.988 283.954 196.036C283.679 196.078 283.412 196.118 283.151 196.156C282.891 196.189 282.673 196.218 282.498 196.241C282.086 196.294 281.71 196.381 281.369 196.504C281.033 196.627 280.763 196.805 280.559 197.037C280.36 197.264 280.261 197.567 280.261 197.946C280.261 198.472 280.455 198.869 280.843 199.139C281.231 199.404 281.726 199.537 282.328 199.537ZM290.078 201V190.091H292.131V191.824H292.244C292.443 191.237 292.793 190.775 293.295 190.439C293.802 190.098 294.375 189.928 295.014 189.928C295.147 189.928 295.303 189.932 295.483 189.942C295.667 189.951 295.812 189.963 295.916 189.977V192.009C295.831 191.985 295.679 191.959 295.461 191.93C295.244 191.897 295.026 191.881 294.808 191.881C294.306 191.881 293.859 191.987 293.466 192.2C293.077 192.409 292.77 192.7 292.542 193.074C292.315 193.443 292.202 193.865 292.202 194.338V201H290.078ZM302.065 201.22C300.99 201.22 300.064 200.991 299.288 200.531C298.516 200.067 297.919 199.416 297.498 198.578C297.081 197.735 296.873 196.748 296.873 195.616C296.873 194.499 297.081 193.514 297.498 192.662C297.919 191.81 298.507 191.144 299.259 190.666C300.017 190.188 300.902 189.949 301.916 189.949C302.531 189.949 303.128 190.051 303.705 190.254C304.283 190.458 304.802 190.777 305.261 191.213C305.72 191.649 306.082 192.214 306.347 192.911C306.613 193.602 306.745 194.442 306.745 195.432V196.185H298.073V194.594H304.664C304.664 194.035 304.551 193.54 304.323 193.109C304.096 192.674 303.776 192.33 303.365 192.08C302.957 191.829 302.479 191.703 301.93 191.703C301.333 191.703 300.812 191.85 300.367 192.143C299.927 192.432 299.586 192.811 299.345 193.28C299.108 193.744 298.99 194.248 298.99 194.793V196.036C298.99 196.765 299.117 197.385 299.373 197.896C299.633 198.408 299.996 198.798 300.46 199.068C300.924 199.333 301.466 199.466 302.086 199.466C302.489 199.466 302.856 199.409 303.187 199.295C303.518 199.177 303.805 199.002 304.046 198.77C304.288 198.538 304.472 198.251 304.6 197.911L306.61 198.273C306.449 198.865 306.16 199.383 305.744 199.828C305.332 200.268 304.813 200.612 304.188 200.858C303.568 201.099 302.86 201.22 302.065 201.22ZM91.1628 225.241C90.4715 225.241 89.8465 225.114 89.2878 224.858C88.7291 224.598 88.2864 224.221 87.9597 223.729C87.6377 223.236 87.4767 222.633 87.4767 221.918C87.4767 221.302 87.5951 220.795 87.8319 220.398C88.0686 220 88.3882 219.685 88.7907 219.453C89.1931 219.221 89.6429 219.046 90.1401 218.928C90.6373 218.809 91.1439 218.719 91.66 218.658C92.3134 218.582 92.8437 218.52 93.2509 218.473C93.6581 218.421 93.954 218.338 94.1387 218.224C94.3233 218.111 94.4157 217.926 94.4157 217.67V217.621C94.4157 217 94.2405 216.52 93.8901 216.179C93.5444 215.838 93.0284 215.668 92.3418 215.668C91.6268 215.668 91.0634 215.826 90.6515 216.143C90.2443 216.456 89.9625 216.804 89.8063 217.188L87.8105 216.733C88.0473 216.07 88.3929 215.535 88.8475 215.128C89.3068 214.716 89.8347 214.418 90.4313 214.233C91.0279 214.044 91.6552 213.949 92.3134 213.949C92.749 213.949 93.2106 214.001 93.6983 214.105C94.1908 214.205 94.65 214.389 95.0762 214.659C95.507 214.929 95.8598 215.315 96.1344 215.817C96.409 216.314 96.5463 216.96 96.5463 217.756V225H94.4725V223.509H94.3873C94.2499 223.783 94.044 224.053 93.7694 224.318C93.4947 224.583 93.142 224.804 92.7111 224.979C92.2802 225.154 91.7641 225.241 91.1628 225.241ZM91.6245 223.537C92.2116 223.537 92.7135 223.421 93.1301 223.189C93.5516 222.957 93.8712 222.654 94.089 222.28C94.3115 221.901 94.4228 221.496 94.4228 221.065V219.659C94.347 219.735 94.2002 219.806 93.9824 219.872C93.7694 219.934 93.5255 219.988 93.2509 220.036C92.9763 220.078 92.7087 220.118 92.4483 220.156C92.1879 220.189 91.9701 220.218 91.7949 220.241C91.383 220.294 91.0066 220.381 90.6657 220.504C90.3295 220.627 90.0596 220.805 89.856 221.037C89.6571 221.264 89.5577 221.567 89.5577 221.946C89.5577 222.472 89.7518 222.869 90.1401 223.139C90.5283 223.404 91.0231 223.537 91.6245 223.537ZM101.498 210.455V225H99.3748V210.455H101.498ZM104.355 225V214.091H106.408V215.824H106.521C106.72 215.237 107.071 214.775 107.573 214.439C108.079 214.098 108.652 213.928 109.291 213.928C109.424 213.928 109.58 213.932 109.76 213.942C109.945 213.951 110.089 213.963 110.193 213.977V216.009C110.108 215.985 109.957 215.959 109.739 215.93C109.521 215.897 109.303 215.881 109.085 215.881C108.584 215.881 108.136 215.987 107.743 216.2C107.355 216.409 107.047 216.7 106.82 217.074C106.593 217.443 106.479 217.865 106.479 218.338V225H104.355ZM116.342 225.22C115.267 225.22 114.342 224.991 113.565 224.531C112.793 224.067 112.197 223.416 111.775 222.578C111.359 221.735 111.15 220.748 111.15 219.616C111.15 218.499 111.359 217.514 111.775 216.662C112.197 215.81 112.784 215.144 113.537 214.666C114.294 214.188 115.18 213.949 116.193 213.949C116.809 213.949 117.405 214.051 117.983 214.254C118.56 214.458 119.079 214.777 119.538 215.213C119.997 215.649 120.36 216.214 120.625 216.911C120.89 217.602 121.023 218.442 121.023 219.432V220.185H112.351V218.594H118.942C118.942 218.035 118.828 217.54 118.601 217.109C118.373 216.674 118.054 216.33 117.642 216.08C117.235 215.829 116.756 215.703 116.207 215.703C115.611 215.703 115.09 215.85 114.645 216.143C114.204 216.432 113.863 216.811 113.622 217.28C113.385 217.744 113.267 218.248 113.267 218.793V220.036C113.267 220.765 113.395 221.385 113.65 221.896C113.911 222.408 114.273 222.798 114.737 223.068C115.201 223.333 115.743 223.466 116.363 223.466C116.766 223.466 117.133 223.409 117.464 223.295C117.796 223.177 118.082 223.002 118.324 222.77C118.565 222.538 118.75 222.251 118.878 221.911L120.888 222.273C120.727 222.865 120.438 223.383 120.021 223.828C119.609 224.268 119.091 224.612 118.466 224.858C117.845 225.099 117.138 225.22 116.342 225.22ZM126.553 225.241C125.862 225.241 125.237 225.114 124.678 224.858C124.12 224.598 123.677 224.221 123.35 223.729C123.028 223.236 122.867 222.633 122.867 221.918C122.867 221.302 122.986 220.795 123.222 220.398C123.459 220 123.779 219.685 124.181 219.453C124.584 219.221 125.034 219.046 125.531 218.928C126.028 218.809 126.535 218.719 127.051 218.658C127.704 218.582 128.234 218.52 128.642 218.473C129.049 218.421 129.345 218.338 129.529 218.224C129.714 218.111 129.806 217.926 129.806 217.67V217.621C129.806 217 129.631 216.52 129.281 216.179C128.935 215.838 128.419 215.668 127.732 215.668C127.017 215.668 126.454 215.826 126.042 216.143C125.635 216.456 125.353 216.804 125.197 217.188L123.201 216.733C123.438 216.07 123.784 215.535 124.238 215.128C124.697 214.716 125.225 214.418 125.822 214.233C126.419 214.044 127.046 213.949 127.704 213.949C128.14 213.949 128.601 214.001 129.089 214.105C129.581 214.205 130.041 214.389 130.467 214.659C130.898 214.929 131.25 215.315 131.525 215.817C131.8 216.314 131.937 216.96 131.937 217.756V225H129.863V223.509H129.778C129.641 223.783 129.435 224.053 129.16 224.318C128.885 224.583 128.533 224.804 128.102 224.979C127.671 225.154 127.155 225.241 126.553 225.241ZM127.015 223.537C127.602 223.537 128.104 223.421 128.521 223.189C128.942 222.957 129.262 222.654 129.48 222.28C129.702 221.901 129.813 221.496 129.813 221.065V219.659C129.738 219.735 129.591 219.806 129.373 219.872C129.16 219.934 128.916 219.988 128.642 220.036C128.367 220.078 128.099 220.118 127.839 220.156C127.579 220.189 127.361 220.218 127.186 220.241C126.774 220.294 126.397 220.381 126.056 220.504C125.72 220.627 125.45 220.805 125.247 221.037C125.048 221.264 124.948 221.567 124.948 221.946C124.948 222.472 125.142 222.869 125.531 223.139C125.919 223.404 126.414 223.537 127.015 223.537ZM138.849 225.213C137.969 225.213 137.183 224.988 136.491 224.538C135.805 224.084 135.265 223.437 134.872 222.599C134.484 221.757 134.29 220.746 134.29 219.567C134.29 218.388 134.486 217.379 134.879 216.541C135.277 215.703 135.821 215.062 136.513 214.616C137.204 214.171 137.988 213.949 138.863 213.949C139.541 213.949 140.085 214.062 140.497 214.29C140.914 214.512 141.236 214.773 141.463 215.071C141.695 215.369 141.875 215.632 142.003 215.859H142.131V210.455H144.254V225H142.18V223.303H142.003C141.875 223.535 141.69 223.8 141.449 224.098C141.212 224.396 140.885 224.657 140.469 224.879C140.052 225.102 139.512 225.213 138.849 225.213ZM139.318 223.402C139.929 223.402 140.445 223.241 140.866 222.919C141.292 222.592 141.614 222.14 141.832 221.562C142.055 220.985 142.166 220.312 142.166 219.545C142.166 218.788 142.057 218.125 141.839 217.557C141.622 216.989 141.302 216.546 140.881 216.229C140.459 215.911 139.938 215.753 139.318 215.753C138.679 215.753 138.146 215.919 137.72 216.25C137.294 216.581 136.972 217.034 136.754 217.607C136.541 218.179 136.434 218.826 136.434 219.545C136.434 220.275 136.543 220.93 136.761 221.513C136.979 222.095 137.301 222.557 137.727 222.898C138.158 223.234 138.688 223.402 139.318 223.402ZM148.627 229.091C148.31 229.091 148.021 229.065 147.761 229.013C147.5 228.965 147.306 228.913 147.178 228.857L147.69 227.116C148.078 227.221 148.424 227.266 148.727 227.251C149.03 227.237 149.297 227.124 149.529 226.911C149.766 226.697 149.974 226.349 150.154 225.866L150.417 225.142L146.426 214.091H148.698L151.461 222.557H151.575L154.338 214.091H156.617L152.122 226.456C151.913 227.024 151.648 227.505 151.326 227.898C151.004 228.295 150.621 228.594 150.176 228.793C149.731 228.991 149.214 229.091 148.627 229.091ZM168.501 225.22C167.479 225.22 166.586 224.986 165.824 224.517C165.061 224.048 164.47 223.393 164.048 222.55C163.627 221.707 163.416 220.722 163.416 219.595C163.416 218.464 163.627 217.474 164.048 216.626C164.47 215.779 165.061 215.121 165.824 214.652C166.586 214.183 167.479 213.949 168.501 213.949C169.524 213.949 170.416 214.183 171.179 214.652C171.941 215.121 172.533 215.779 172.954 216.626C173.376 217.474 173.586 218.464 173.586 219.595C173.586 220.722 173.376 221.707 172.954 222.55C172.533 223.393 171.941 224.048 171.179 224.517C170.416 224.986 169.524 225.22 168.501 225.22ZM168.508 223.438C169.171 223.438 169.72 223.262 170.156 222.912C170.592 222.562 170.914 222.095 171.122 221.513C171.335 220.93 171.442 220.289 171.442 219.588C171.442 218.892 171.335 218.253 171.122 217.67C170.914 217.083 170.592 216.612 170.156 216.257C169.72 215.902 169.171 215.724 168.508 215.724C167.841 215.724 167.287 215.902 166.846 216.257C166.411 216.612 166.086 217.083 165.873 217.67C165.665 218.253 165.561 218.892 165.561 219.588C165.561 220.289 165.665 220.93 165.873 221.513C166.086 222.095 166.411 222.562 166.846 222.912C167.287 223.262 167.841 223.438 168.508 223.438ZM178.08 218.523V225H175.957V214.091H177.995V215.866H178.13C178.381 215.289 178.774 214.825 179.309 214.474C179.849 214.124 180.528 213.949 181.347 213.949C182.091 213.949 182.742 214.105 183.301 214.418C183.859 214.725 184.293 215.185 184.6 215.795C184.908 216.406 185.062 217.161 185.062 218.061V225H182.938V218.317C182.938 217.526 182.732 216.908 182.32 216.463C181.909 216.013 181.343 215.788 180.623 215.788C180.131 215.788 179.693 215.895 179.309 216.108C178.93 216.321 178.63 216.634 178.407 217.045C178.189 217.453 178.08 217.945 178.08 218.523ZM194.338 217.933V219.773H187.889V217.933H194.338ZM201.763 225.22C200.707 225.22 199.798 224.981 199.036 224.503C198.278 224.02 197.696 223.355 197.289 222.507C196.881 221.66 196.678 220.689 196.678 219.595C196.678 218.487 196.886 217.509 197.303 216.662C197.719 215.81 198.307 215.144 199.064 214.666C199.822 214.188 200.714 213.949 201.742 213.949C202.57 213.949 203.309 214.103 203.958 214.411C204.606 214.714 205.129 215.14 205.527 215.689C205.93 216.238 206.169 216.88 206.244 217.614H204.178C204.064 217.102 203.804 216.662 203.396 216.293C202.994 215.923 202.454 215.739 201.777 215.739C201.185 215.739 200.667 215.895 200.222 216.207C199.781 216.515 199.438 216.955 199.192 217.528C198.946 218.097 198.823 218.769 198.823 219.545C198.823 220.341 198.943 221.027 199.185 221.605C199.426 222.183 199.767 222.63 200.208 222.947C200.653 223.265 201.176 223.423 201.777 223.423C202.18 223.423 202.544 223.35 202.871 223.203C203.202 223.052 203.479 222.836 203.702 222.557C203.929 222.277 204.088 221.941 204.178 221.548H206.244C206.169 222.254 205.939 222.884 205.556 223.438C205.172 223.991 204.658 224.427 204.014 224.744C203.375 225.062 202.625 225.22 201.763 225.22ZM210.639 218.523V225H208.515V210.455H210.611V215.866H210.746C211.001 215.279 211.392 214.813 211.917 214.467C212.443 214.122 213.13 213.949 213.977 213.949C214.725 213.949 215.379 214.103 215.937 214.411C216.501 214.718 216.936 215.178 217.244 215.788C217.557 216.394 217.713 217.152 217.713 218.061V225H215.589V218.317C215.589 217.517 215.383 216.896 214.971 216.456C214.559 216.011 213.987 215.788 213.253 215.788C212.751 215.788 212.301 215.895 211.903 216.108C211.51 216.321 211.2 216.634 210.973 217.045C210.75 217.453 210.639 217.945 210.639 218.523ZM223.721 225.241C223.03 225.241 222.405 225.114 221.846 224.858C221.288 224.598 220.845 224.221 220.518 223.729C220.196 223.236 220.035 222.633 220.035 221.918C220.035 221.302 220.154 220.795 220.39 220.398C220.627 220 220.947 219.685 221.349 219.453C221.752 219.221 222.202 219.046 222.699 218.928C223.196 218.809 223.702 218.719 224.219 218.658C224.872 218.582 225.402 218.52 225.809 218.473C226.217 218.421 226.513 218.338 226.697 218.224C226.882 218.111 226.974 217.926 226.974 217.67V217.621C226.974 217 226.799 216.52 226.449 216.179C226.103 215.838 225.587 215.668 224.9 215.668C224.185 215.668 223.622 215.826 223.21 216.143C222.803 216.456 222.521 216.804 222.365 217.188L220.369 216.733C220.606 216.07 220.952 215.535 221.406 215.128C221.865 214.716 222.393 214.418 222.99 214.233C223.586 214.044 224.214 213.949 224.872 213.949C225.308 213.949 225.769 214.001 226.257 214.105C226.749 214.205 227.209 214.389 227.635 214.659C228.066 214.929 228.418 215.315 228.693 215.817C228.968 216.314 229.105 216.96 229.105 217.756V225H227.031V223.509H226.946C226.809 223.783 226.603 224.053 226.328 224.318C226.053 224.583 225.701 224.804 225.27 224.979C224.839 225.154 224.323 225.241 223.721 225.241ZM224.183 223.537C224.77 223.537 225.272 223.421 225.689 223.189C226.11 222.957 226.43 222.654 226.648 222.28C226.87 221.901 226.981 221.496 226.981 221.065V219.659C226.906 219.735 226.759 219.806 226.541 219.872C226.328 219.934 226.084 219.988 225.809 220.036C225.535 220.078 225.267 220.118 225.007 220.156C224.747 220.189 224.529 220.218 224.354 220.241C223.942 220.294 223.565 220.381 223.224 220.504C222.888 220.627 222.618 220.805 222.415 221.037C222.216 221.264 222.116 221.567 222.116 221.946C222.116 222.472 222.31 222.869 222.699 223.139C223.087 223.404 223.582 223.537 224.183 223.537ZM231.933 225V214.091H234.057V225H231.933ZM233.006 212.408C232.637 212.408 232.319 212.285 232.054 212.038C231.794 211.787 231.664 211.489 231.664 211.143C231.664 210.793 231.794 210.495 232.054 210.249C232.319 209.998 232.637 209.872 233.006 209.872C233.375 209.872 233.69 209.998 233.95 210.249C234.216 210.495 234.348 210.793 234.348 211.143C234.348 211.489 234.216 211.787 233.95 212.038C233.69 212.285 233.375 212.408 233.006 212.408ZM239.037 218.523V225H236.914V214.091H238.952V215.866H239.087C239.338 215.289 239.731 214.825 240.266 214.474C240.806 214.124 241.485 213.949 242.305 213.949C243.048 213.949 243.699 214.105 244.258 214.418C244.816 214.725 245.25 215.185 245.557 215.795C245.865 216.406 246.019 217.161 246.019 218.061V225H243.895V218.317C243.895 217.526 243.689 216.908 243.278 216.463C242.866 216.013 242.3 215.788 241.58 215.788C241.088 215.788 240.65 215.895 240.266 216.108C239.887 216.321 239.587 216.634 239.364 217.045C239.146 217.453 239.037 217.945 239.037 218.523Z" fill="#030507" fill-opacity="0.25"/>
</svg>
