<svg width="90" height="32" viewBox="0 0 90 32" fill="none" xmlns="http://www.w3.org/2000/svg">
<path d="M18.9808 19.2358C18.9348 19.1441 18.8958 19.0387 18.8636 18.9195C18.8314 18.8004 18.8038 18.6743 18.7809 18.5414C18.6752 18.656 18.5534 18.7637 18.4155 18.8645C18.2777 18.9654 18.1237 19.0547 17.9537 19.1326C17.7883 19.206 17.6044 19.2633 17.4022 19.3046C17.2 19.3504 16.9817 19.3733 16.7474 19.3733C16.3659 19.3733 16.0144 19.3183 15.6926 19.2083C15.3756 19.0983 15.1021 18.9448 14.8723 18.7477C14.6426 18.5506 14.4633 18.3168 14.3347 18.0464C14.206 17.7715 14.1416 17.4735 14.1416 17.1526C14.1416 16.3689 14.4335 15.7639 15.0171 15.3377C15.6053 14.9068 16.4808 14.6914 17.6434 14.6914H18.7119V14.2514C18.7119 13.8939 18.5948 13.612 18.3604 13.4058C18.126 13.195 17.7883 13.0896 17.347 13.0896C16.9564 13.0896 16.6715 13.1743 16.4923 13.3439C16.313 13.5089 16.2234 13.7312 16.2234 14.0108H14.3071C14.3071 13.6945 14.376 13.3944 14.5139 13.1102C14.6563 12.826 14.8608 12.5762 15.1274 12.3608C15.3985 12.1454 15.7271 11.9758 16.1131 11.852C16.5038 11.7237 16.9495 11.6595 17.4504 11.6595C17.9008 11.6595 18.319 11.7145 18.7051 11.8246C19.0957 11.9345 19.4334 12.0973 19.7183 12.3127C20.0033 12.5281 20.2262 12.8008 20.3871 13.1308C20.5479 13.4562 20.6283 13.8344 20.6283 14.2652V17.4552C20.6283 17.8539 20.6536 18.1839 20.7041 18.4452C20.7547 18.7064 20.8282 18.931 20.9247 19.119V19.2358H18.9808ZM17.154 17.8952C17.347 17.8952 17.5263 17.8723 17.6918 17.8264C17.8572 17.7806 18.0065 17.721 18.1398 17.6476C18.2731 17.5744 18.3879 17.4918 18.4844 17.4002C18.5809 17.3039 18.6568 17.2077 18.7119 17.1114V15.8327H17.7331C17.4344 15.8327 17.1793 15.8625 16.9679 15.9221C16.7565 15.9771 16.5842 16.0573 16.4509 16.1626C16.3176 16.2635 16.2189 16.3873 16.1545 16.5339C16.0901 16.676 16.058 16.8318 16.058 17.0015C16.058 17.2581 16.1476 17.4712 16.3269 17.6408C16.5106 17.8104 16.7864 17.8952 17.154 17.8952Z" fill="#222326"/>
<path d="M27.2269 15.8541C27.2269 21.2666 22.8268 25.6578 17.3949 25.6578C11.963 25.6578 7.56299 21.2666 7.56299 15.8541C7.56299 10.4416 11.963 6.05042 17.3949 6.05042C22.8268 6.05042 27.2269 10.4416 27.2269 15.8541Z" stroke="#222326" stroke-width="2"/>
<path d="M37.4924 11.6414H38.2938C38.5868 11.6414 38.8514 11.5995 39.0877 11.5159C39.3241 11.4322 39.5259 11.3153 39.6934 11.1651C39.8583 11.0173 39.9851 10.8413 40.0737 10.637C40.1649 10.4326 40.2104 10.2098 40.2104 9.96858C40.2104 9.71008 40.1649 9.47494 40.0737 9.26318C39.9851 9.05149 39.8583 8.86929 39.6934 8.71667C39.5259 8.56647 39.3241 8.44955 39.0877 8.36582C38.8514 8.27968 38.5868 8.23657 38.2938 8.23657H36.4547V13.6134H37.4924V11.6414ZM37.4924 10.7995V9.07856H38.2938C38.4415 9.07856 38.5695 9.10193 38.6778 9.14875C38.7862 9.19549 38.8772 9.25955 38.9511 9.34077C39.0225 9.422 39.0754 9.51677 39.1099 9.62514C39.1468 9.73345 39.1653 9.85037 39.1653 9.97592C39.1653 10.0843 39.1468 10.1889 39.1099 10.2899C39.0754 10.3883 39.0225 10.4757 38.9511 10.552C38.8772 10.6284 38.7862 10.6887 38.6778 10.733C38.5695 10.7773 38.4415 10.7995 38.2938 10.7995H37.4924ZM42.9061 13.6873C43.2927 13.6873 43.6275 13.6122 43.9107 13.462C44.1938 13.3118 44.4006 13.1444 44.5311 12.9598L44.0178 12.4058C43.8995 12.5585 43.7457 12.673 43.5561 12.7493C43.3666 12.8256 43.1709 12.8638 42.969 12.8638C42.8262 12.8638 42.6945 12.8416 42.5738 12.7973C42.4532 12.753 42.3461 12.6902 42.2525 12.609C42.1614 12.5302 42.0888 12.4427 42.0347 12.3468C41.9805 12.2483 41.9362 12.1191 41.9017 11.959V11.948H44.6123V11.5122C44.6123 11.2192 44.5717 10.9521 44.4904 10.7108C44.4092 10.4671 44.291 10.2591 44.1359 10.0867C43.9784 9.91435 43.7863 9.78147 43.5598 9.68792C43.3358 9.59187 43.0797 9.54384 42.7917 9.54384C42.5135 9.54384 42.2563 9.59436 42.0199 9.69525C41.7836 9.79622 41.5792 9.9378 41.4069 10.12C41.2346 10.3021 41.1004 10.52 41.0043 10.7736C40.9083 11.0247 40.8603 11.3029 40.8603 11.6082V11.7559C40.8603 12.0243 40.9083 12.2766 41.0043 12.5129C41.1028 12.7469 41.2419 12.9499 41.4217 13.1223C41.6014 13.2971 41.8168 13.4349 42.0679 13.5359C42.319 13.6368 42.5984 13.6873 42.9061 13.6873ZM42.7843 10.3748C42.9148 10.3748 43.0293 10.3957 43.1277 10.4376C43.2287 10.477 43.3136 10.5311 43.3825 10.6C43.4515 10.6714 43.5057 10.7551 43.5451 10.8512C43.5845 10.9472 43.6041 11.0493 43.6041 11.1576V11.2389H41.9202C41.9448 11.1084 41.9817 10.9903 42.031 10.8844C42.0802 10.7785 42.1418 10.6874 42.2156 10.6111C42.287 10.5348 42.3707 10.477 42.4667 10.4376C42.5627 10.3957 42.6686 10.3748 42.7843 10.3748ZM48.3791 9.54384C48.1107 9.54384 47.8633 9.60911 47.6367 9.73957C47.4102 9.86761 47.2158 10.0449 47.0533 10.2714L47.0459 10.1828L47.0053 9.61773H46.0488V13.6134H47.0754V11.2131C47.1222 11.0998 47.1813 11.0013 47.2527 10.9176C47.3241 10.8339 47.4102 10.765 47.5112 10.7108C47.5949 10.6641 47.6897 10.6296 47.7956 10.6074C47.9039 10.5828 48.0245 10.5705 48.1575 10.5705C48.2855 10.5705 48.4197 10.5791 48.56 10.5963C48.7028 10.6111 48.8419 10.6345 48.9773 10.6665L49.1287 9.6436C49.0475 9.61894 48.9404 9.59678 48.8074 9.57712C48.677 9.55496 48.5342 9.54384 48.3791 9.54384ZM50.6908 9.61773H49.8082V13.6134H50.7425V10.6222C50.7547 10.5902 50.7684 10.5606 50.7831 10.5335C50.7979 10.5065 50.8151 10.4831 50.8348 10.4634C50.8619 10.4364 50.8926 10.4154 50.9271 10.4007C50.9616 10.3858 51.001 10.3785 51.0453 10.3785C51.0847 10.3785 51.1216 10.3846 51.156 10.397C51.1905 10.4068 51.2213 10.4252 51.2484 10.4523C51.273 10.4794 51.2927 10.5176 51.3075 10.5668C51.3223 10.6161 51.3296 10.6788 51.3296 10.7551V13.6134H52.2344V10.6665C52.2344 10.637 52.2344 10.6136 52.2344 10.5963C52.2344 10.5791 52.2344 10.568 52.2344 10.5631C52.2467 10.536 52.2615 10.5127 52.2787 10.4929C52.2959 10.4708 52.3157 10.4511 52.3378 10.4339C52.3649 10.4166 52.3932 10.4031 52.4228 10.3932C52.4548 10.3834 52.4905 10.3785 52.5299 10.3785C52.5668 10.3785 52.6025 10.3846 52.637 10.397C52.6739 10.4068 52.7059 10.4252 52.7329 10.4523C52.76 10.4819 52.781 10.5213 52.7957 10.5705C52.813 10.6198 52.8216 10.6825 52.8216 10.7588V13.6134H53.7558V10.7625C53.7558 10.541 53.7338 10.3538 53.6894 10.2012C53.6475 10.0461 53.5885 9.91935 53.5122 9.82087C53.4333 9.72482 53.341 9.65464 53.2352 9.61032C53.1318 9.566 53.0197 9.54384 52.8991 9.54384C52.8031 9.54384 52.7145 9.55617 52.6333 9.58082C52.552 9.6054 52.4793 9.63989 52.4154 9.68421C52.3636 9.7187 52.3157 9.76052 52.2714 9.80976C52.2295 9.85657 52.1913 9.90944 52.1569 9.96858C52.1347 9.90702 52.1076 9.85287 52.0756 9.80605C52.0461 9.75682 52.0104 9.71499 51.9685 9.6805C51.9144 9.63377 51.8503 9.59928 51.7765 9.57712C51.7026 9.55496 51.6189 9.54384 51.5253 9.54384C51.3333 9.54384 51.1697 9.59436 51.0342 9.69525C50.9012 9.79372 50.7966 9.92918 50.7203 10.1015L50.6908 9.61773ZM57.0905 13.6134H58.1319V13.5507C58.0802 13.4497 58.0408 13.3291 58.0137 13.1888C57.9867 13.0484 57.9731 12.8712 57.9731 12.657V10.9435C57.9731 10.712 57.9301 10.509 57.8439 10.3342C57.7577 10.1569 57.6383 10.0104 57.4857 9.89469C57.3331 9.77898 57.1521 9.69162 56.9428 9.63248C56.736 9.57341 56.512 9.54384 56.2707 9.54384C56.0024 9.54384 55.7636 9.57833 55.5543 9.6473C55.3475 9.71378 55.1727 9.80484 55.0299 9.92056C54.8847 10.0363 54.7739 10.1704 54.6976 10.3231C54.6237 10.4757 54.5868 10.637 54.5868 10.8069H55.6134C55.6134 10.7355 55.6232 10.6702 55.643 10.6111C55.6651 10.552 55.6983 10.5015 55.7426 10.4597C55.7919 10.4129 55.8559 10.3772 55.9347 10.3526C56.0135 10.3256 56.107 10.312 56.2153 10.312C56.3385 10.312 56.4455 10.328 56.5366 10.36C56.6302 10.3895 56.7077 10.4326 56.7692 10.4892C56.8283 10.5434 56.8726 10.6086 56.9022 10.685C56.9318 10.7588 56.9465 10.8426 56.9465 10.9361V11.1725H56.3742C56.0787 11.1725 55.8165 11.1995 55.5875 11.2537C55.361 11.3053 55.1703 11.3817 55.0152 11.4826C54.8428 11.5934 54.7135 11.735 54.6274 11.9073C54.5413 12.0772 54.4981 12.2729 54.4981 12.4945C54.4981 12.6668 54.5326 12.8269 54.6015 12.9746C54.6705 13.1198 54.7665 13.2453 54.8896 13.3512C55.0127 13.4571 55.1592 13.5395 55.329 13.5987C55.5014 13.6577 55.6897 13.6873 55.8941 13.6873C56.0196 13.6873 56.1365 13.675 56.2449 13.6503C56.3532 13.6282 56.4529 13.5962 56.544 13.5544C56.6327 13.515 56.7139 13.4681 56.7877 13.414C56.8616 13.3598 56.9269 13.302 56.9834 13.2404C56.9958 13.3118 57.0105 13.3796 57.0277 13.4436C57.045 13.5075 57.0659 13.5642 57.0905 13.6134ZM56.1119 12.8934C56.0159 12.8934 55.931 12.8822 55.8571 12.8601C55.7858 12.8355 55.7254 12.8034 55.6762 12.7641C55.6269 12.7222 55.5888 12.6718 55.5617 12.6127C55.5371 12.5511 55.5248 12.4846 55.5248 12.4133C55.5248 12.3221 55.542 12.2385 55.5765 12.1622C55.6109 12.0834 55.6638 12.0157 55.7352 11.959C55.8066 11.9049 55.899 11.863 56.0122 11.8335C56.1255 11.8015 56.2621 11.7854 56.4221 11.7854H56.9465V12.4723C56.917 12.5241 56.8763 12.5757 56.8247 12.6274C56.773 12.6767 56.7114 12.721 56.64 12.7604C56.5686 12.7998 56.4886 12.8318 56.3999 12.8564C56.3114 12.881 56.2153 12.8934 56.1119 12.8934ZM59.1364 13.6134H60.1667V10.7736C60.2012 10.7194 60.2393 10.6702 60.2812 10.6259C60.323 10.5816 60.3699 10.5434 60.4215 10.5114C60.4856 10.4671 60.5582 10.4339 60.6394 10.4117C60.7231 10.3895 60.8142 10.3785 60.9127 10.3785C61.0309 10.3785 61.1367 10.3907 61.2303 10.4154C61.3239 10.4376 61.4039 10.4782 61.4703 10.5372C61.5367 10.5963 61.5873 10.6776 61.6217 10.781C61.6587 10.8819 61.6771 11.0111 61.6771 11.1688V13.6134H62.7037V11.1539C62.7037 10.8634 62.6692 10.6173 62.6003 10.4154C62.5339 10.2111 62.4403 10.0436 62.3197 9.91314C62.1965 9.78518 62.0513 9.69162 61.8839 9.63248C61.7165 9.57341 61.5318 9.54384 61.33 9.54384C61.1724 9.54384 61.0234 9.566 60.8832 9.61032C60.7428 9.65464 60.6135 9.7187 60.4954 9.80235C60.4264 9.85158 60.3612 9.90702 60.2997 9.96858C60.2381 10.0301 60.1815 10.0978 60.1298 10.1716L60.067 9.61773H59.1364V13.6134ZM65.6174 13.6873C66.0039 13.6873 66.3387 13.6122 66.6219 13.462C66.905 13.3118 67.1118 13.1444 67.2423 12.9598L66.729 12.4058C66.6108 12.5585 66.457 12.673 66.2673 12.7493C66.0778 12.8256 65.8821 12.8638 65.6802 12.8638C65.5374 12.8638 65.4057 12.8416 65.2851 12.7973C65.1644 12.753 65.0573 12.6902 64.9638 12.609C64.8726 12.5302 64.8 12.4427 64.7459 12.3468C64.6917 12.2483 64.6474 12.1191 64.6129 11.959V11.948H67.3235V11.5122C67.3235 11.2192 67.2829 10.9521 67.2017 10.7108C67.1204 10.4671 67.0022 10.2591 66.8471 10.0867C66.6896 9.91435 66.4976 9.78147 66.2711 9.68792C66.047 9.59187 65.791 9.54384 65.503 9.54384C65.2247 9.54384 64.9675 9.59436 64.7311 9.69525C64.4948 9.79622 64.2904 9.9378 64.1181 10.12C63.9458 10.3021 63.8116 10.52 63.7156 10.7736C63.6195 11.0247 63.5716 11.3029 63.5716 11.6082V11.7559C63.5716 12.0243 63.6195 12.2766 63.7156 12.5129C63.8141 12.7469 63.9531 12.9499 64.1329 13.1223C64.3126 13.2971 64.528 13.4349 64.7791 13.5359C65.0303 13.6368 65.3096 13.6873 65.6174 13.6873ZM65.4955 10.3748C65.626 10.3748 65.7405 10.3957 65.839 10.4376C65.9399 10.477 66.0249 10.5311 66.0938 10.6C66.1628 10.6714 66.2169 10.7551 66.2563 10.8512C66.2957 10.9472 66.3154 11.0493 66.3154 11.1576V11.2389H64.6314C64.656 11.1084 64.693 10.9903 64.7422 10.8844C64.7914 10.7785 64.853 10.6874 64.9269 10.6111C64.9983 10.5348 65.0819 10.477 65.178 10.4376C65.2739 10.3957 65.3798 10.3748 65.4955 10.3748ZM68.2209 13.6134H69.2512V10.7736C69.2857 10.7194 69.3239 10.6702 69.3657 10.6259C69.4075 10.5816 69.4543 10.5434 69.506 10.5114C69.57 10.4671 69.6426 10.4339 69.7239 10.4117C69.8076 10.3895 69.8987 10.3785 69.9972 10.3785C70.1153 10.3785 70.2212 10.3907 70.3148 10.4154C70.4083 10.4376 70.4883 10.4782 70.5548 10.5372C70.6213 10.5963 70.6718 10.6776 70.7062 10.781C70.7431 10.8819 70.7616 11.0111 70.7616 11.1688V13.6134H71.7882V11.1539C71.7882 10.8634 71.7537 10.6173 71.6848 10.4154C71.6183 10.2111 71.5248 10.0436 71.4042 9.91314C71.281 9.78518 71.1358 9.69162 70.9684 9.63248C70.801 9.57341 70.6163 9.54384 70.4145 9.54384C70.2569 9.54384 70.1079 9.566 69.9676 9.61032C69.8273 9.65464 69.698 9.7187 69.5799 9.80235C69.511 9.85158 69.4457 9.90702 69.3841 9.96858C69.3226 10.0301 69.266 10.0978 69.2143 10.1716L69.1515 9.61773H68.2209V13.6134ZM74.6465 8.63915H73.6199V9.61773H72.7077V10.3748H73.6199V12.1917C73.6199 12.4551 73.6544 12.6816 73.7233 12.8712C73.7923 13.0583 73.8907 13.2121 74.0187 13.3328C74.1443 13.4559 74.2957 13.547 74.4729 13.606C74.6527 13.6627 74.8521 13.691 75.0712 13.691C75.1845 13.691 75.2989 13.6848 75.4146 13.6725C75.5328 13.6627 75.6462 13.6479 75.7543 13.6282C75.8625 13.6085 75.9646 13.5839 76.0606 13.5544C76.1567 13.5224 76.2406 13.4854 76.3117 13.4436L76.2126 12.7382C76.1658 12.7505 76.109 12.7628 76.0425 12.7751C75.9782 12.7875 75.9094 12.7985 75.8353 12.8083C75.7596 12.8207 75.6795 12.8305 75.5956 12.8379C75.5144 12.8453 75.4343 12.849 75.3555 12.849C75.2472 12.849 75.1488 12.8367 75.0601 12.8121C74.974 12.7875 74.9001 12.7456 74.8385 12.6865C74.777 12.6299 74.729 12.5535 74.6945 12.4576C74.6625 12.3591 74.6465 12.2372 74.6465 12.092V10.3748H76.1385V9.61773H74.6465V8.63915ZM36.2468 20.8577V20.9276C36.2468 21.1912 36.2845 21.435 36.3598 21.6587C36.4351 21.8803 36.5459 22.0731 36.6921 22.237C36.8362 22.401 37.0134 22.5296 37.224 22.6226C37.4366 22.7134 37.6781 22.7589 37.9485 22.7589C38.2166 22.7589 38.4559 22.7134 38.6664 22.6226C38.8769 22.5296 39.0541 22.401 39.1981 22.237C39.3421 22.0731 39.4519 21.8803 39.5272 21.6587C39.6025 21.435 39.6402 21.1912 39.6402 20.9276V20.8577C39.6402 20.5963 39.6025 20.3548 39.5272 20.1332C39.4519 19.9094 39.3421 19.7156 39.1981 19.5516C39.052 19.3876 38.8735 19.2591 38.6631 19.1661C38.4526 19.073 38.2122 19.0264 37.9419 19.0264C37.6715 19.0264 37.4311 19.073 37.2206 19.1661C37.0124 19.2591 36.8362 19.3876 36.6921 19.5516C36.5459 19.7156 36.4351 19.9094 36.3598 20.1332C36.2845 20.3548 36.2468 20.5963 36.2468 20.8577ZM37.1707 20.9276V20.8577C37.1707 20.7116 37.1852 20.573 37.214 20.4423C37.2428 20.3115 37.2882 20.1964 37.3503 20.0967C37.4123 19.9969 37.4921 19.9183 37.5896 19.8607C37.6871 19.8031 37.8044 19.7743 37.9419 19.7743C38.0815 19.7743 38.2 19.8031 38.2975 19.8607C38.395 19.9183 38.4747 19.9969 38.5368 20.0967C38.5966 20.1964 38.6409 20.3115 38.6697 20.4423C38.6985 20.573 38.7129 20.7116 38.7129 20.8577V20.9276C38.7129 21.0782 38.6985 21.22 38.6697 21.353C38.6409 21.4837 38.5966 21.5978 38.5368 21.6953C38.4747 21.795 38.395 21.8737 38.2975 21.9312C38.2 21.9889 38.0837 22.0177 37.9485 22.0177C37.8089 22.0177 37.6892 21.9889 37.5896 21.9312C37.4921 21.8737 37.4123 21.795 37.3503 21.6953C37.2882 21.5978 37.2428 21.4837 37.214 21.353C37.1852 21.22 37.1707 21.0782 37.1707 20.9276ZM40.4611 22.6891H41.3884V20.1332C41.4194 20.0845 41.4537 20.0402 41.4914 20.0003C41.5291 19.9604 41.5712 19.9261 41.6177 19.8972C41.6753 19.8574 41.7407 19.8274 41.8138 19.8075C41.8891 19.7876 41.9711 19.7776 42.0598 19.7776C42.1661 19.7776 42.2614 19.7886 42.3456 19.8108C42.4298 19.8308 42.5018 19.8673 42.5617 19.9205C42.6215 19.9737 42.6669 20.0468 42.6979 20.1399C42.7311 20.2307 42.7478 20.347 42.7478 20.4888V22.6891H43.6717V20.4755C43.6717 20.2141 43.6407 19.9925 43.5787 19.8108C43.5188 19.6269 43.4346 19.4763 43.326 19.3588C43.2152 19.2436 43.0846 19.1594 42.9339 19.1062C42.7832 19.0531 42.617 19.0264 42.4353 19.0264C42.2935 19.0264 42.1594 19.0464 42.0331 19.0863C41.9069 19.1262 41.7905 19.1837 41.6842 19.2591C41.6222 19.3034 41.5635 19.3533 41.508 19.4087C41.4527 19.464 41.4017 19.525 41.3552 19.5915L41.2987 19.0929H40.4611V22.6891ZM50.9836 21.6787L51.2662 22.6891H52.2499L50.6945 17.8499H49.847L48.2616 22.6891H49.2454L49.5312 21.6787H50.9836ZM49.7605 20.8844L50.2691 19.1029L50.7643 20.8844H49.7605ZM55.3076 19.0264C55.0661 19.0264 54.8434 19.0852 54.6396 19.2026C54.4357 19.3178 54.2607 19.4773 54.1145 19.6812L54.1078 19.6015L54.0712 19.0929H53.2105V22.6891H54.1344V20.5288C54.1765 20.4268 54.2297 20.3382 54.2939 20.2628C54.3582 20.1875 54.4358 20.1255 54.5266 20.0767C54.6019 20.0346 54.6872 20.0036 54.7825 19.9837C54.88 19.9615 54.9885 19.9504 55.1082 19.9504C55.2234 19.9504 55.3441 19.9582 55.4704 19.9737C55.599 19.9869 55.7242 20.008 55.846 20.0369L55.9823 19.1162C55.9092 19.0941 55.8128 19.0741 55.6932 19.0564C55.5757 19.0364 55.4472 19.0264 55.3076 19.0264ZM57.0791 22.6891H57.8901L58.2722 20.7681L58.3454 20.4025L58.4218 20.7681L58.8173 22.6891H59.6283L60.273 19.0929H59.4255L59.1597 21.2134L59.1131 21.5624L59.05 21.22L58.6611 19.0929H58.0429L57.654 21.23L57.5909 21.5723L57.5477 21.23L57.2785 19.0929H56.4344L57.0791 22.6891ZM62.6461 22.7555C62.994 22.7555 63.2953 22.6879 63.5501 22.5528C63.805 22.4176 63.9911 22.267 64.1085 22.1008L63.6465 21.6023C63.5402 21.7396 63.4017 21.8427 63.2311 21.9114C63.0605 21.98 62.8843 22.0144 62.7026 22.0144C62.5741 22.0144 62.4556 21.9944 62.347 21.9545C62.2384 21.9147 62.142 21.8582 62.0578 21.7851C61.9759 21.7141 61.9105 21.6355 61.8617 21.5491C61.813 21.4604 61.7731 21.3441 61.7421 21.2001V21.1901H64.1816V20.7979C64.1816 20.5343 64.1451 20.2938 64.072 20.0767C63.9988 19.8574 63.8925 19.6701 63.7529 19.515C63.6111 19.3599 63.4382 19.2402 63.2344 19.1561C63.0328 19.0697 62.8023 19.0264 62.5431 19.0264C62.2927 19.0264 62.0612 19.0719 61.8484 19.1627C61.6357 19.2536 61.4518 19.381 61.2968 19.545C61.1417 19.7089 61.0209 19.905 60.9344 20.1332C60.8481 20.3592 60.8049 20.6096 60.8049 20.8844V21.0173C60.8049 21.2588 60.8481 21.4859 60.9344 21.6986C61.0231 21.9092 61.1483 22.0919 61.31 22.247C61.4718 22.4043 61.6656 22.5284 61.8917 22.6193C62.1177 22.7101 62.3691 22.7555 62.6461 22.7555ZM62.5364 19.7743C62.6539 19.7743 62.7569 19.7931 62.8455 19.8308C62.9364 19.8662 63.0128 19.9149 63.0748 19.977C63.1369 20.0412 63.1856 20.1166 63.2211 20.203C63.2566 20.2894 63.2743 20.3814 63.2743 20.4788V20.552H61.7587C61.7809 20.4345 61.8141 20.3282 61.8584 20.2329C61.9027 20.1377 61.9582 20.0557 62.0246 19.9869C62.0889 19.9183 62.1642 19.8662 62.2506 19.8308C62.337 19.7931 62.4323 19.7743 62.5364 19.7743ZM67.236 22.6891H68.1732V22.6326C68.1267 22.5417 68.0912 22.4331 68.0669 22.3068C68.0425 22.1805 68.0304 22.021 68.0304 21.8282V20.2861C68.0304 20.0778 67.9916 19.8951 67.914 19.7377C67.8364 19.5782 67.729 19.4463 67.5916 19.3422C67.4543 19.2381 67.2914 19.1594 67.1031 19.1062C66.9169 19.0531 66.7153 19.0264 66.4982 19.0264C66.2567 19.0264 66.0417 19.0574 65.8534 19.1195C65.6673 19.1794 65.51 19.2613 65.3814 19.3655C65.2507 19.4696 65.151 19.5903 65.0823 19.7278C65.0158 19.8651 64.9826 20.0102 64.9826 20.1632H65.9066C65.9066 20.0989 65.9154 20.0402 65.9331 19.9869C65.9531 19.9338 65.983 19.8884 66.0229 19.8507C66.0672 19.8086 66.1248 19.7765 66.1957 19.7543C66.2666 19.73 66.3508 19.7178 66.4483 19.7178C66.5591 19.7178 66.6555 19.7321 66.7375 19.761C66.8216 19.7876 66.8914 19.8263 66.9469 19.8773C67.0001 19.9261 67.0399 19.9847 67.0665 20.0534C67.0931 20.1199 67.1064 20.1952 67.1064 20.2795V20.4922H66.5912C66.3254 20.4922 66.0894 20.5165 65.8833 20.5653C65.6795 20.6118 65.5077 20.6805 65.3682 20.7714C65.2131 20.8711 65.0967 20.9984 65.0191 21.1535C64.9416 21.3065 64.9028 21.4826 64.9028 21.682C64.9028 21.8371 64.9338 21.9812 64.9959 22.114C65.0579 22.2448 65.1444 22.3578 65.2551 22.4531C65.3659 22.5484 65.4977 22.6226 65.6507 22.6757C65.8058 22.7289 65.9753 22.7555 66.1592 22.7555C66.2722 22.7555 66.3774 22.7444 66.4749 22.7223C66.5724 22.7024 66.6621 22.6736 66.7441 22.6359C66.8239 22.6004 66.897 22.5583 66.9634 22.5096C67.0299 22.4608 67.0887 22.4088 67.1396 22.3534C67.1507 22.4176 67.164 22.4786 67.1795 22.5362C67.195 22.5938 67.2139 22.6447 67.236 22.6891ZM66.3552 22.041C66.2689 22.041 66.1924 22.031 66.1259 22.011C66.0616 21.9889 66.0074 21.9601 65.9631 21.9247C65.9188 21.887 65.8844 21.8415 65.86 21.7884C65.8378 21.7329 65.8268 21.6731 65.8268 21.6089C65.8268 21.5269 65.8423 21.4516 65.8733 21.3828C65.9043 21.312 65.952 21.251 66.0163 21.2001C66.0805 21.1513 66.1636 21.1137 66.2655 21.0871C66.3674 21.0583 66.4904 21.0439 66.6345 21.0439H67.1064V21.6621C67.0798 21.7086 67.0432 21.7551 66.9967 21.8017C66.9501 21.846 66.8948 21.8859 66.8305 21.9213C66.7663 21.9567 66.6943 21.9855 66.6145 22.0077C66.5347 22.0299 66.4483 22.041 66.3552 22.041ZM70.2206 22.6891H71.088L72.4541 19.0929H71.4902L70.7025 21.6288L70.6527 21.8814L70.6028 21.6288L69.8118 19.0929H68.8479L70.2206 22.6891ZM74.9102 22.7555C75.258 22.7555 75.5594 22.6879 75.8141 22.5528C76.069 22.4176 76.255 22.267 76.3722 22.1008L75.9109 21.6023C75.8042 21.7396 75.6658 21.8427 75.4951 21.9114C75.3245 21.98 75.1484 22.0144 74.9667 22.0144C74.8381 22.0144 74.7196 21.9944 74.611 21.9545C74.5025 21.9147 74.4061 21.8582 74.3219 21.7851C74.2399 21.7141 74.1746 21.6355 74.1258 21.5491C74.0771 21.4604 74.0372 21.3441 74.0061 21.2001V21.1901H76.4456V20.7979C76.4456 20.5343 76.4093 20.2938 76.3359 20.0767C76.2626 19.8574 76.1567 19.6701 76.0168 19.515C75.8753 19.3599 75.7021 19.2402 75.4985 19.1561C75.2968 19.0697 75.0664 19.0264 74.8071 19.0264C74.5568 19.0264 74.3252 19.0719 74.1126 19.1627C73.8998 19.2536 73.7159 19.381 73.5608 19.545C73.4057 19.7089 73.2849 19.905 73.1986 20.1332C73.1121 20.3592 73.0689 20.6096 73.0689 20.8844V21.0173C73.0689 21.2588 73.1121 21.4859 73.1986 21.6986C73.2872 21.9092 73.4124 22.0919 73.5741 22.247C73.7358 22.4043 73.9298 22.5284 74.1557 22.6193C74.3817 22.7101 74.6332 22.7555 74.9102 22.7555ZM74.8005 19.7743C74.9179 19.7743 75.0209 19.7931 75.1096 19.8308C75.2004 19.8662 75.2769 19.9149 75.3389 19.977C75.401 20.0412 75.4497 20.1166 75.4852 20.203C75.5206 20.2894 75.5383 20.3814 75.5383 20.4788V20.552H74.0228C74.0449 20.4345 74.0782 20.3282 74.1225 20.2329C74.1668 20.1377 74.2222 20.0557 74.2887 19.9869C74.3529 19.9183 74.4282 19.8662 74.5147 19.8308C74.6011 19.7931 74.6963 19.7743 74.8005 19.7743Z" fill="#222326"/>
<rect x="0.5" y="0.5" width="89" height="31" rx="5.5" stroke="black"/>
</svg>
