<svg width="452" height="210" viewBox="0 0 452 210" fill="none" xmlns="http://www.w3.org/2000/svg">
<g filter="url(#filter0_d_134_61)">
<path d="M120.334 125.599C120.038 125.006 119.786 124.324 119.579 123.553C119.371 122.782 119.193 121.967 119.045 121.107C118.364 121.848 117.579 122.545 116.69 123.197C115.801 123.85 114.809 124.428 113.712 124.932C112.646 125.407 111.461 125.777 110.157 126.044C108.853 126.341 107.446 126.489 105.935 126.489C103.476 126.489 101.209 126.133 99.1355 125.421C97.0912 124.71 95.3284 123.716 93.847 122.441C92.3656 121.166 91.2102 119.654 90.3806 117.904C89.551 116.125 89.1362 114.197 89.1362 112.122C89.1362 107.051 91.0176 103.136 94.7803 100.378C98.5726 97.5909 104.217 96.1971 111.712 96.1971H118.601V93.3503C118.601 91.0373 117.845 89.2135 116.334 87.8791C114.823 86.515 112.646 85.833 109.801 85.833C107.283 85.833 105.446 86.3816 104.291 87.4788C103.135 88.5463 102.558 89.9846 102.558 91.7935H90.2028C90.2028 89.7473 90.6472 87.805 91.5361 85.9664C92.4545 84.1278 93.773 82.5117 95.4914 81.1179C97.2394 79.7242 99.3578 78.627 101.846 77.8263C104.365 76.996 107.239 76.5808 110.468 76.5808C113.372 76.5808 116.068 76.9367 118.556 77.6484C121.075 78.3601 123.252 79.4128 125.089 80.8065C126.926 82.2003 128.363 83.9647 129.4 86.0998C130.437 88.2053 130.956 90.6518 130.956 93.4393V114.079C130.956 116.659 131.119 118.794 131.444 120.484C131.77 122.174 132.244 123.627 132.867 124.843V125.599H120.334ZM108.557 116.925C109.801 116.925 110.957 116.777 112.024 116.481C113.09 116.184 114.053 115.799 114.912 115.324C115.771 114.85 116.512 114.316 117.134 113.723C117.756 113.1 118.245 112.477 118.601 111.855V103.581H112.29C110.364 103.581 108.72 103.774 107.357 104.159C105.994 104.515 104.883 105.034 104.024 105.716C103.165 106.369 102.528 107.169 102.113 108.118C101.698 109.037 101.491 110.046 101.491 111.143C101.491 112.804 102.069 114.182 103.224 115.28C104.409 116.377 106.187 116.925 108.557 116.925Z" fill="#222326"/>
<path d="M172.874 103.72C172.874 138.421 144.769 166.544 110.112 166.544C75.4538 166.544 47.3496 138.421 47.3496 103.72C47.3496 69.0189 75.4538 40.8965 110.112 40.8965C144.769 40.8965 172.874 69.0189 172.874 103.72Z" stroke="#222326" stroke-width="11"/>
<path d="M215.378 87.0918H219.405C220.877 87.0918 222.206 86.8815 223.394 86.4609C224.581 86.0404 225.596 85.4528 226.437 84.6982C227.266 83.9561 227.903 83.0716 228.348 82.0449C228.806 81.0182 229.035 79.8988 229.035 78.6865C229.035 77.3877 228.806 76.2064 228.348 75.1426C227.903 74.0788 227.266 73.1634 226.437 72.3965C225.596 71.6419 224.581 71.0544 223.394 70.6338C222.206 70.2008 220.877 69.9844 219.405 69.9844H210.164V97H215.378V87.0918ZM215.378 82.8613V74.2148H219.405C220.147 74.2148 220.79 74.3324 221.334 74.5674C221.879 74.8024 222.336 75.124 222.707 75.5322C223.066 75.9404 223.332 76.4167 223.505 76.9609C223.691 77.5052 223.784 78.0928 223.784 78.7236C223.784 79.2679 223.691 79.7936 223.505 80.3008C223.332 80.7956 223.066 81.2347 222.707 81.6182C222.336 82.0016 221.879 82.3047 221.334 82.5273C220.79 82.75 220.147 82.8613 219.405 82.8613H215.378ZM242.58 97.3711C244.522 97.3711 246.204 96.9938 247.626 96.2393C249.049 95.4847 250.088 94.6436 250.744 93.7158L248.164 90.9326C247.571 91.6995 246.798 92.2747 245.845 92.6582C244.893 93.0417 243.909 93.2334 242.895 93.2334C242.178 93.2334 241.516 93.1221 240.91 92.8994C240.303 92.6768 239.765 92.3613 239.295 91.9531C238.838 91.5573 238.473 91.1182 238.201 90.6357C237.928 90.141 237.706 89.4915 237.533 88.6875V88.6318H251.152V86.4424C251.152 84.9704 250.948 83.6283 250.539 82.416C250.131 81.1914 249.538 80.1462 248.758 79.2803C247.967 78.4144 247.002 77.7464 245.864 77.2764C244.738 76.7939 243.452 76.5527 242.004 76.5527C240.607 76.5527 239.314 76.8063 238.126 77.3135C236.939 77.8206 235.912 78.5319 235.046 79.4473C234.18 80.3626 233.506 81.4574 233.024 82.7314C232.541 83.9932 232.3 85.391 232.3 86.9248V87.667C232.3 89.0153 232.541 90.2832 233.024 91.4707C233.519 92.6458 234.218 93.6663 235.121 94.5322C236.024 95.4105 237.106 96.1032 238.368 96.6104C239.629 97.1175 241.033 97.3711 242.58 97.3711ZM241.967 80.7275C242.623 80.7275 243.198 80.8327 243.693 81.043C244.2 81.2409 244.627 81.513 244.973 81.8594C245.319 82.2181 245.592 82.6387 245.789 83.1211C245.987 83.6035 246.086 84.1169 246.086 84.6611V85.0693H237.625C237.749 84.4137 237.935 83.82 238.182 83.2881C238.429 82.7562 238.739 82.2985 239.11 81.915C239.469 81.5316 239.889 81.2409 240.372 81.043C240.854 80.8327 241.386 80.7275 241.967 80.7275ZM270.078 76.5527C268.729 76.5527 267.486 76.8805 266.348 77.5361C265.21 78.1794 264.233 79.07 263.416 80.208L263.379 79.7627L263.175 76.9238H258.37V97H263.528V84.9395C263.763 84.3704 264.06 83.8757 264.418 83.4551C264.777 83.0345 265.21 82.6882 265.717 82.416C266.138 82.181 266.614 82.0078 267.146 81.8965C267.69 81.7728 268.296 81.7109 268.964 81.7109C269.608 81.7109 270.282 81.7542 270.987 81.8408C271.704 81.915 272.403 82.0326 273.083 82.1934L273.844 77.0537C273.436 76.93 272.898 76.8187 272.23 76.7197C271.574 76.6084 270.857 76.5527 270.078 76.5527ZM281.693 76.9238H277.258V97H281.953V81.9707C282.014 81.8099 282.082 81.6615 282.157 81.5254C282.231 81.3893 282.317 81.2718 282.416 81.1729C282.553 81.0368 282.707 80.9316 282.88 80.8574C283.053 80.7832 283.251 80.7461 283.474 80.7461C283.672 80.7461 283.858 80.777 284.031 80.8389C284.204 80.8883 284.358 80.9811 284.495 81.1172C284.618 81.2533 284.717 81.445 284.791 81.6924C284.866 81.9398 284.903 82.2552 284.903 82.6387V97H289.449V82.1934C289.449 82.0449 289.449 81.9274 289.449 81.8408C289.449 81.7542 289.449 81.6986 289.449 81.6738C289.511 81.5378 289.585 81.4202 289.671 81.3213C289.758 81.21 289.857 81.111 289.968 81.0244C290.104 80.9378 290.247 80.8698 290.395 80.8203C290.556 80.7708 290.735 80.7461 290.933 80.7461C291.119 80.7461 291.298 80.777 291.471 80.8389C291.657 80.8883 291.817 80.9811 291.954 81.1172C292.09 81.2656 292.195 81.4635 292.269 81.7109C292.356 81.9583 292.399 82.2738 292.399 82.6572V97H297.093V82.6758C297.093 81.5625 296.982 80.6224 296.759 79.8555C296.549 79.0762 296.252 78.4391 295.869 77.9443C295.473 77.4619 295.009 77.1094 294.477 76.8867C293.957 76.6641 293.395 76.5527 292.789 76.5527C292.306 76.5527 291.861 76.6146 291.453 76.7383C291.044 76.862 290.679 77.0352 290.358 77.2578C290.098 77.431 289.857 77.6413 289.634 77.8887C289.424 78.1237 289.232 78.3896 289.059 78.6865C288.948 78.3773 288.812 78.1051 288.651 77.8701C288.502 77.6227 288.323 77.4124 288.113 77.2393C287.841 77.0042 287.519 76.8311 287.148 76.7197C286.777 76.6084 286.356 76.5527 285.886 76.5527C284.921 76.5527 284.099 76.8063 283.418 77.3135C282.75 77.8083 282.225 78.4886 281.841 79.3545L281.693 76.9238ZM313.848 97H319.08V96.6846C318.821 96.1774 318.623 95.5713 318.487 94.8662C318.351 94.1611 318.283 93.2705 318.283 92.1943V83.585C318.283 82.4222 318.066 81.4017 317.633 80.5234C317.2 79.6328 316.6 78.8968 315.833 78.3154C315.067 77.734 314.157 77.2949 313.106 76.998C312.067 76.7012 310.941 76.5527 309.729 76.5527C308.381 76.5527 307.181 76.7259 306.129 77.0723C305.09 77.4062 304.212 77.8639 303.495 78.4453C302.765 79.0267 302.208 79.7008 301.825 80.4678C301.454 81.2347 301.268 82.0449 301.268 82.8984H306.426C306.426 82.5397 306.476 82.2119 306.575 81.915C306.686 81.6182 306.853 81.3646 307.076 81.1543C307.323 80.9193 307.645 80.7399 308.04 80.6162C308.436 80.4801 308.906 80.4121 309.451 80.4121C310.069 80.4121 310.607 80.4925 311.065 80.6533C311.535 80.8018 311.925 81.0182 312.234 81.3027C312.531 81.5749 312.753 81.9027 312.902 82.2861C313.05 82.6572 313.124 83.0778 313.124 83.5479V84.7354H310.248C308.764 84.7354 307.447 84.8714 306.296 85.1436C305.158 85.4033 304.2 85.7868 303.42 86.2939C302.554 86.8506 301.905 87.5618 301.472 88.4277C301.039 89.2812 300.823 90.2646 300.823 91.3779C300.823 92.2438 300.996 93.0479 301.342 93.79C301.689 94.5199 302.171 95.1507 302.789 95.6826C303.408 96.2145 304.144 96.6289 304.997 96.9258C305.863 97.2227 306.81 97.3711 307.836 97.3711C308.467 97.3711 309.055 97.3092 309.599 97.1855C310.143 97.0742 310.644 96.9134 311.102 96.7031C311.547 96.5052 311.955 96.2702 312.327 95.998C312.698 95.7259 313.025 95.4352 313.31 95.126C313.372 95.4847 313.446 95.8249 313.533 96.1465C313.619 96.4681 313.724 96.7526 313.848 97ZM308.931 93.3818C308.449 93.3818 308.022 93.3262 307.651 93.2148C307.292 93.0911 306.989 92.9303 306.742 92.7324C306.494 92.5221 306.303 92.2686 306.166 91.9717C306.043 91.6624 305.981 91.3285 305.981 90.9697C305.981 90.512 306.067 90.0915 306.241 89.708C306.414 89.3122 306.68 88.972 307.039 88.6875C307.397 88.4154 307.861 88.2051 308.43 88.0566C308.999 87.8958 309.686 87.8154 310.49 87.8154H313.124V91.2666C312.976 91.5264 312.772 91.7861 312.512 92.0459C312.252 92.2933 311.943 92.516 311.584 92.7139C311.226 92.9118 310.824 93.0726 310.378 93.1963C309.933 93.32 309.451 93.3818 308.931 93.3818ZM324.127 97H329.304V82.7314C329.477 82.4593 329.669 82.2119 329.879 81.9893C330.09 81.7666 330.325 81.5749 330.584 81.4141C330.906 81.1914 331.271 81.0244 331.679 80.9131C332.1 80.8018 332.557 80.7461 333.052 80.7461C333.646 80.7461 334.178 80.8079 334.648 80.9316C335.118 81.043 335.52 81.2471 335.854 81.5439C336.188 81.8408 336.442 82.249 336.615 82.7686C336.8 83.2757 336.893 83.9251 336.893 84.7168V97H342.051V84.6426C342.051 83.1829 341.878 81.946 341.532 80.9316C341.198 79.9049 340.728 79.0638 340.122 78.4082C339.503 77.765 338.773 77.2949 337.932 76.998C337.091 76.7012 336.163 76.5527 335.149 76.5527C334.357 76.5527 333.609 76.6641 332.904 76.8867C332.199 77.1094 331.549 77.431 330.955 77.8516C330.609 78.099 330.281 78.3773 329.972 78.6865C329.663 78.9958 329.378 79.3359 329.119 79.707L328.803 76.9238H324.127V97ZM356.691 97.3711C358.633 97.3711 360.315 96.9938 361.738 96.2393C363.16 95.4847 364.199 94.6436 364.855 93.7158L362.276 90.9326C361.682 91.6995 360.909 92.2747 359.956 92.6582C359.004 93.0417 358.021 93.2334 357.006 93.2334C356.289 93.2334 355.627 93.1221 355.021 92.8994C354.415 92.6768 353.877 92.3613 353.407 91.9531C352.949 91.5573 352.584 91.1182 352.312 90.6357C352.04 90.141 351.817 89.4915 351.644 88.6875V88.6318H365.263V86.4424C365.263 84.9704 365.059 83.6283 364.651 82.416C364.243 81.1914 363.649 80.1462 362.87 79.2803C362.078 78.4144 361.113 77.7464 359.975 77.2764C358.849 76.7939 357.563 76.5527 356.116 76.5527C354.718 76.5527 353.425 76.8063 352.238 77.3135C351.05 77.8206 350.024 78.5319 349.158 79.4473C348.292 80.3626 347.618 81.4574 347.135 82.7314C346.653 83.9932 346.412 85.391 346.412 86.9248V87.667C346.412 89.0153 346.653 90.2832 347.135 91.4707C347.63 92.6458 348.329 93.6663 349.232 94.5322C350.135 95.4105 351.217 96.1032 352.479 96.6104C353.741 97.1175 355.145 97.3711 356.691 97.3711ZM356.079 80.7275C356.734 80.7275 357.309 80.8327 357.804 81.043C358.311 81.2409 358.738 81.513 359.084 81.8594C359.431 82.2181 359.703 82.6387 359.901 83.1211C360.099 83.6035 360.198 84.1169 360.198 84.6611V85.0693H351.737C351.86 84.4137 352.046 83.82 352.293 83.2881C352.541 82.7562 352.85 82.2985 353.221 81.915C353.58 81.5316 354 81.2409 354.483 81.043C354.965 80.8327 355.497 80.7275 356.079 80.7275ZM369.772 97H374.949V82.7314C375.122 82.4593 375.314 82.2119 375.524 81.9893C375.734 81.7666 375.969 81.5749 376.229 81.4141C376.551 81.1914 376.915 81.0244 377.324 80.9131C377.744 80.8018 378.202 80.7461 378.697 80.7461C379.29 80.7461 379.822 80.8079 380.292 80.9316C380.762 81.043 381.164 81.2471 381.498 81.5439C381.832 81.8408 382.086 82.249 382.259 82.7686C382.445 83.2757 382.538 83.9251 382.538 84.7168V97H387.696V84.6426C387.696 83.1829 387.523 81.946 387.176 80.9316C386.842 79.9049 386.372 79.0638 385.766 78.4082C385.148 77.765 384.418 77.2949 383.577 76.998C382.735 76.7012 381.808 76.5527 380.793 76.5527C380.002 76.5527 379.253 76.6641 378.548 76.8867C377.843 77.1094 377.194 77.431 376.6 77.8516C376.254 78.099 375.926 78.3773 375.617 78.6865C375.307 78.9958 375.023 79.3359 374.763 79.707L374.448 76.9238H369.772V97ZM402.057 72.0068H396.899V76.9238H392.316V80.7275H396.899V89.8564C396.899 91.18 397.072 92.318 397.418 93.2705C397.765 94.2106 398.26 94.9837 398.903 95.5898C399.534 96.2083 400.294 96.666 401.185 96.9629C402.088 97.2474 403.09 97.3896 404.191 97.3896C404.76 97.3896 405.335 97.3587 405.916 97.2969C406.51 97.2474 407.079 97.1732 407.623 97.0742C408.168 96.9753 408.681 96.8516 409.164 96.7031C409.646 96.5423 410.067 96.3568 410.425 96.1465L409.924 92.6025C409.689 92.6644 409.405 92.7262 409.071 92.7881C408.749 92.8499 408.403 92.9056 408.032 92.9551C407.648 93.0169 407.246 93.0664 406.826 93.1035C406.417 93.1406 406.015 93.1592 405.62 93.1592C405.075 93.1592 404.581 93.0973 404.135 92.9736C403.702 92.8499 403.331 92.6396 403.022 92.3428C402.713 92.0583 402.471 91.6748 402.298 91.1924C402.137 90.6976 402.057 90.0853 402.057 89.3555V80.7275H409.553V76.9238H402.057V72.0068ZM206.758 133.583V133.942C206.758 135.298 206.951 136.551 207.339 137.702C207.726 138.841 208.296 139.833 209.048 140.676C209.788 141.519 210.7 142.18 211.782 142.658C212.876 143.125 214.118 143.359 215.508 143.359C216.886 143.359 218.117 143.125 219.199 142.658C220.282 142.18 221.193 141.519 221.934 140.676C222.674 139.833 223.238 138.841 223.625 137.702C224.013 136.551 224.206 135.298 224.206 133.942V133.583C224.206 132.239 224.013 130.997 223.625 129.858C223.238 128.707 222.674 127.71 221.934 126.867C221.182 126.024 220.264 125.363 219.182 124.885C218.1 124.406 216.864 124.167 215.474 124.167C214.084 124.167 212.847 124.406 211.765 124.885C210.694 125.363 209.788 126.024 209.048 126.867C208.296 127.71 207.726 128.707 207.339 129.858C206.951 130.997 206.758 132.239 206.758 133.583ZM211.509 133.942V133.583C211.509 132.832 211.583 132.119 211.731 131.447C211.879 130.775 212.113 130.183 212.432 129.67C212.751 129.157 213.161 128.753 213.662 128.457C214.163 128.16 214.767 128.012 215.474 128.012C216.191 128.012 216.801 128.16 217.302 128.457C217.803 128.753 218.214 129.157 218.533 129.67C218.84 130.183 219.068 130.775 219.216 131.447C219.364 132.119 219.438 132.832 219.438 133.583V133.942C219.438 134.717 219.364 135.446 219.216 136.13C219.068 136.802 218.84 137.389 218.533 137.89C218.214 138.403 217.803 138.807 217.302 139.104C216.801 139.4 216.203 139.548 215.508 139.548C214.79 139.548 214.175 139.4 213.662 139.104C213.161 138.807 212.751 138.403 212.432 137.89C212.113 137.389 211.879 136.802 211.731 136.13C211.583 135.446 211.509 134.717 211.509 133.942ZM228.428 143H233.196V129.858C233.355 129.607 233.532 129.379 233.726 129.174C233.919 128.969 234.136 128.793 234.375 128.645C234.671 128.439 235.007 128.286 235.383 128.183C235.771 128.081 236.192 128.029 236.648 128.029C237.195 128.029 237.685 128.086 238.118 128.2C238.551 128.303 238.921 128.491 239.228 128.764C239.536 129.038 239.77 129.414 239.929 129.892C240.1 130.359 240.185 130.957 240.185 131.687V143H244.936V131.618C244.936 130.274 244.777 129.134 244.458 128.2C244.15 127.255 243.717 126.48 243.159 125.876C242.589 125.284 241.917 124.851 241.143 124.577C240.368 124.304 239.513 124.167 238.579 124.167C237.85 124.167 237.161 124.27 236.511 124.475C235.862 124.68 235.264 124.976 234.717 125.363C234.398 125.591 234.096 125.847 233.811 126.132C233.526 126.417 233.264 126.73 233.025 127.072L232.734 124.509H228.428V143ZM282.534 137.805L283.987 143H289.045L281.047 118.117H276.689L268.538 143H273.596L275.066 137.805H282.534ZM276.245 133.72L278.86 124.56L281.406 133.72H276.245ZM304.768 124.167C303.526 124.167 302.381 124.469 301.333 125.073C300.285 125.665 299.385 126.486 298.633 127.534L298.599 127.124L298.411 124.509H293.984V143H298.735V131.892C298.952 131.368 299.225 130.912 299.556 130.524C299.886 130.137 300.285 129.818 300.752 129.567C301.139 129.351 301.578 129.191 302.068 129.089C302.569 128.975 303.127 128.918 303.743 128.918C304.335 128.918 304.956 128.958 305.605 129.038C306.266 129.106 306.91 129.214 307.537 129.362L308.237 124.628C307.861 124.514 307.366 124.412 306.75 124.321C306.147 124.218 305.486 124.167 304.768 124.167ZM313.877 143H318.047L320.012 133.122L320.388 131.242L320.781 133.122L322.815 143H326.985L330.3 124.509H325.942L324.575 135.412L324.336 137.207L324.011 135.446L322.012 124.509H318.833L316.833 135.498L316.509 137.258L316.287 135.498L314.902 124.509H310.561L313.877 143ZM342.502 143.342C344.291 143.342 345.841 142.994 347.151 142.299C348.461 141.604 349.418 140.83 350.022 139.975L347.646 137.412C347.1 138.118 346.387 138.648 345.51 139.001C344.633 139.354 343.727 139.531 342.793 139.531C342.132 139.531 341.523 139.428 340.964 139.223C340.406 139.018 339.91 138.728 339.477 138.352C339.056 137.987 338.72 137.583 338.469 137.138C338.219 136.682 338.013 136.084 337.854 135.344V135.292H350.398V133.276C350.398 131.92 350.21 130.684 349.834 129.567C349.458 128.439 348.911 127.477 348.193 126.679C347.464 125.882 346.575 125.266 345.527 124.833C344.49 124.389 343.306 124.167 341.973 124.167C340.685 124.167 339.495 124.401 338.401 124.868C337.307 125.335 336.361 125.99 335.564 126.833C334.766 127.676 334.145 128.684 333.701 129.858C333.257 131.02 333.035 132.307 333.035 133.72V134.404C333.035 135.646 333.257 136.813 333.701 137.907C334.157 138.99 334.801 139.93 335.632 140.727C336.464 141.536 337.461 142.174 338.623 142.641C339.785 143.108 341.078 143.342 342.502 143.342ZM341.938 128.012C342.542 128.012 343.072 128.109 343.528 128.303C343.995 128.485 344.388 128.736 344.707 129.055C345.026 129.385 345.277 129.772 345.459 130.217C345.641 130.661 345.732 131.134 345.732 131.635V132.011H337.939C338.053 131.407 338.224 130.861 338.452 130.371C338.68 129.881 338.965 129.459 339.307 129.106C339.637 128.753 340.024 128.485 340.469 128.303C340.913 128.109 341.403 128.012 341.938 128.012ZM366.103 143H370.923V142.709C370.684 142.242 370.501 141.684 370.376 141.035C370.251 140.385 370.188 139.565 370.188 138.574V130.644C370.188 129.573 369.989 128.633 369.59 127.824C369.191 127.004 368.638 126.326 367.932 125.791C367.226 125.255 366.388 124.851 365.42 124.577C364.463 124.304 363.426 124.167 362.31 124.167C361.068 124.167 359.963 124.326 358.994 124.646C358.037 124.953 357.228 125.375 356.567 125.91C355.895 126.446 355.382 127.067 355.029 127.773C354.687 128.479 354.517 129.226 354.517 130.012H359.268C359.268 129.681 359.313 129.379 359.404 129.106C359.507 128.833 359.661 128.599 359.866 128.405C360.094 128.189 360.39 128.024 360.754 127.91C361.119 127.784 361.552 127.722 362.053 127.722C362.623 127.722 363.118 127.796 363.54 127.944C363.973 128.081 364.332 128.28 364.617 128.542C364.89 128.793 365.095 129.095 365.232 129.448C365.369 129.79 365.437 130.177 365.437 130.61V131.704H362.788C361.421 131.704 360.207 131.829 359.148 132.08C358.1 132.319 357.217 132.672 356.499 133.139C355.701 133.652 355.103 134.307 354.705 135.104C354.306 135.891 354.106 136.796 354.106 137.822C354.106 138.619 354.266 139.36 354.585 140.043C354.904 140.716 355.348 141.297 355.918 141.787C356.488 142.277 357.165 142.658 357.952 142.932C358.749 143.205 359.621 143.342 360.566 143.342C361.147 143.342 361.689 143.285 362.19 143.171C362.691 143.068 363.153 142.92 363.574 142.727C363.984 142.544 364.36 142.328 364.702 142.077C365.044 141.826 365.346 141.559 365.608 141.274C365.665 141.604 365.733 141.918 365.813 142.214C365.893 142.51 365.99 142.772 366.103 143ZM361.575 139.667C361.13 139.667 360.737 139.616 360.395 139.514C360.065 139.4 359.786 139.252 359.558 139.069C359.33 138.876 359.154 138.642 359.028 138.369C358.914 138.084 358.857 137.776 358.857 137.446C358.857 137.024 358.937 136.637 359.097 136.284C359.256 135.919 359.501 135.606 359.831 135.344C360.162 135.093 360.589 134.899 361.113 134.763C361.637 134.615 362.27 134.541 363.01 134.541H365.437V137.719C365.3 137.958 365.112 138.198 364.873 138.437C364.634 138.665 364.349 138.87 364.018 139.052C363.688 139.235 363.318 139.383 362.908 139.497C362.497 139.611 362.053 139.667 361.575 139.667ZM381.45 143H385.911L392.935 124.509H387.978L383.928 137.548L383.672 138.847L383.415 137.548L379.348 124.509H374.392L381.45 143ZM405.564 143.342C407.353 143.342 408.902 142.994 410.212 142.299C411.523 141.604 412.48 140.83 413.083 139.975L410.708 137.412C410.161 138.118 409.449 138.648 408.572 139.001C407.694 139.354 406.789 139.531 405.854 139.531C405.194 139.531 404.584 139.428 404.026 139.223C403.468 139.018 402.972 138.728 402.539 138.352C402.117 137.987 401.781 137.583 401.531 137.138C401.28 136.682 401.075 136.084 400.915 135.344V135.292H413.459V133.276C413.459 131.92 413.271 130.684 412.895 129.567C412.519 128.439 411.973 127.477 411.255 126.679C410.526 125.882 409.637 125.266 408.589 124.833C407.552 124.389 406.367 124.167 405.034 124.167C403.747 124.167 402.556 124.401 401.462 124.868C400.369 125.335 399.423 125.99 398.625 126.833C397.828 127.676 397.207 128.684 396.763 129.858C396.318 131.02 396.096 132.307 396.096 133.72V134.404C396.096 135.646 396.318 136.813 396.763 137.907C397.218 138.99 397.862 139.93 398.694 140.727C399.525 141.536 400.522 142.174 401.685 142.641C402.847 143.108 404.14 143.342 405.564 143.342ZM405 128.012C405.604 128.012 406.134 128.109 406.589 128.303C407.056 128.485 407.449 128.736 407.768 129.055C408.088 129.385 408.338 129.772 408.52 130.217C408.703 130.661 408.794 131.134 408.794 131.635V132.011H401.001C401.115 131.407 401.286 130.861 401.514 130.371C401.741 129.881 402.026 129.459 402.368 129.106C402.699 128.753 403.086 128.485 403.53 128.303C403.975 128.109 404.464 128.012 405 128.012Z" fill="#222326"/>
<rect x="5" y="5" width="440" height="198" rx="13" stroke="black" stroke-width="4" shape-rendering="crispEdges"/>
</g>
<defs>
<filter id="filter0_d_134_61" x="0" y="0" width="452" height="210" filterUnits="userSpaceOnUse" color-interpolation-filters="sRGB">
<feFlood flood-opacity="0" result="BackgroundImageFix"/>
<feColorMatrix in="SourceAlpha" type="matrix" values="0 0 0 0 0 0 0 0 0 0 0 0 0 0 0 0 0 0 127 0" result="hardAlpha"/>
<feOffset dx="1" dy="1"/>
<feGaussianBlur stdDeviation="2"/>
<feComposite in2="hardAlpha" operator="out"/>
<feColorMatrix type="matrix" values="0 0 0 0 0 0 0 0 0 0 0 0 0 0 0 0 0 0 0.25 0"/>
<feBlend mode="normal" in2="BackgroundImageFix" result="effect1_dropShadow_134_61"/>
<feBlend mode="normal" in="SourceGraphic" in2="effect1_dropShadow_134_61" result="shape"/>
</filter>
</defs>
</svg>
