<svg width="124" height="47" viewBox="0 0 124 47" fill="none" xmlns="http://www.w3.org/2000/svg">
<g filter="url(#filter0_d_0_3)">
<rect x="2" y="2" width="119" height="42" rx="6" fill="white"/>
<path d="M27.0966 27.4339C27.0358 27.3127 26.9841 27.1734 26.9416 27.0158C26.8991 26.8582 26.8626 26.6916 26.8322 26.5158C26.6925 26.6673 26.5315 26.8098 26.3492 26.9431C26.1669 27.0764 25.9633 27.1946 25.7385 27.2976C25.5197 27.3946 25.2767 27.4703 25.0093 27.5249C24.742 27.5855 24.4533 27.6158 24.1434 27.6158C23.6391 27.6158 23.1742 27.543 22.7489 27.3976C22.3296 27.2521 21.9681 27.0491 21.6643 26.7885C21.3604 26.528 21.1235 26.2189 20.9533 25.8613C20.7832 25.4977 20.6981 25.1038 20.6981 24.6796C20.6981 23.6433 21.084 22.8434 21.8557 22.2798C22.6334 21.7101 23.791 21.4253 25.3283 21.4253H26.7411V20.8435C26.7411 20.3708 26.5861 19.9981 26.2762 19.7254C25.9663 19.4466 25.5197 19.3072 24.9364 19.3072C24.4199 19.3072 24.0432 19.4194 23.8062 19.6436C23.5692 19.8617 23.4507 20.1557 23.4507 20.5253H20.9169C20.9169 20.1072 21.008 19.7102 21.1903 19.3345C21.3787 18.9588 21.6491 18.6285 22.0015 18.3437C22.36 18.0588 22.7945 17.8346 23.3049 17.671C23.8214 17.5013 24.4108 17.4165 25.0731 17.4165C25.6686 17.4165 26.2216 17.4892 26.732 17.6346C27.2485 17.7801 27.6951 17.9952 28.0718 18.28C28.4486 18.5649 28.7433 18.9254 28.9559 19.3618C29.1686 19.7921 29.2749 20.292 29.2749 20.8617V25.0796C29.2749 25.6068 29.3084 26.0431 29.3752 26.3886C29.442 26.734 29.5393 27.0309 29.6669 27.2794V27.4339H27.0966ZM24.6812 25.6613C24.9364 25.6613 25.1734 25.631 25.3921 25.5704C25.6109 25.5098 25.8084 25.4311 25.9846 25.3341C26.1608 25.2371 26.3127 25.128 26.4403 25.0068C26.5679 24.8796 26.6682 24.7523 26.7411 24.6251V22.9343H25.4468C25.0519 22.9343 24.7146 22.9737 24.4351 23.0524C24.1556 23.1252 23.9277 23.2312 23.7515 23.3706C23.5753 23.5039 23.4446 23.6675 23.3596 23.8615C23.2745 24.0493 23.232 24.2554 23.232 24.4796C23.232 24.819 23.3505 25.1008 23.5874 25.325C23.8305 25.5492 24.1951 25.6613 24.6812 25.6613Z" fill="#222326"/>
<path d="M38 22.9627C38 30.1192 32.1822 35.9253 25 35.9253C17.8178 35.9253 12 30.1192 12 22.9627C12 15.8061 17.8178 10 25 10C32.1822 10 38 15.8061 38 22.9627Z" stroke="#222326" stroke-width="2"/>
<path d="M51.5732 17.3926H52.6328C53.0202 17.3926 53.3701 17.3372 53.6826 17.2266C53.9951 17.1159 54.262 16.9613 54.4834 16.7627C54.7015 16.5674 54.8691 16.3346 54.9863 16.0645C55.1068 15.7943 55.167 15.4997 55.167 15.1807C55.167 14.8389 55.1068 14.528 54.9863 14.248C54.8691 13.9681 54.7015 13.7272 54.4834 13.5254C54.262 13.3268 53.9951 13.1722 53.6826 13.0615C53.3701 12.9476 53.0202 12.8906 52.6328 12.8906H50.2012V20H51.5732V17.3926ZM51.5732 16.2793V14.0039H52.6328C52.8281 14.0039 52.9974 14.0348 53.1406 14.0967C53.2839 14.1585 53.4043 14.2432 53.502 14.3506C53.5964 14.458 53.6663 14.5833 53.7119 14.7266C53.7607 14.8698 53.7852 15.0244 53.7852 15.1904C53.7852 15.3337 53.7607 15.472 53.7119 15.6055C53.6663 15.7357 53.5964 15.8512 53.502 15.9521C53.4043 16.0531 53.2839 16.1328 53.1406 16.1914C52.9974 16.25 52.8281 16.2793 52.6328 16.2793H51.5732ZM58.7314 20.0977C59.2425 20.0977 59.6852 19.9984 60.0596 19.7998C60.4339 19.6012 60.7074 19.3799 60.8799 19.1357L60.2012 18.4033C60.0449 18.6051 59.8415 18.7565 59.5908 18.8574C59.3402 18.9583 59.0814 19.0088 58.8145 19.0088C58.6257 19.0088 58.4515 18.9795 58.292 18.9209C58.1325 18.8623 57.9909 18.7793 57.8672 18.6719C57.7467 18.5677 57.6507 18.4521 57.5791 18.3252C57.5075 18.195 57.4489 18.0241 57.4033 17.8125V17.7979H60.9873V17.2217C60.9873 16.8343 60.9336 16.4811 60.8262 16.1621C60.7188 15.8398 60.5625 15.5648 60.3574 15.3369C60.1491 15.109 59.8952 14.9333 59.5957 14.8096C59.2995 14.6826 58.9609 14.6191 58.5801 14.6191C58.2122 14.6191 57.8721 14.6859 57.5596 14.8193C57.2471 14.9528 56.9769 15.14 56.749 15.3809C56.5212 15.6217 56.3438 15.9098 56.2168 16.2451C56.0898 16.5771 56.0264 16.945 56.0264 17.3486V17.5439C56.0264 17.8988 56.0898 18.2324 56.2168 18.5449C56.347 18.8542 56.5309 19.1227 56.7686 19.3506C57.0062 19.5817 57.291 19.764 57.623 19.8975C57.9551 20.0309 58.3245 20.0977 58.7314 20.0977ZM58.5703 15.7178C58.7428 15.7178 58.8942 15.7454 59.0244 15.8008C59.1579 15.8529 59.2702 15.9245 59.3613 16.0156C59.4525 16.11 59.5241 16.2207 59.5762 16.3477C59.6283 16.4746 59.6543 16.6097 59.6543 16.7529V16.8604H57.4277C57.4603 16.6878 57.5091 16.5316 57.5742 16.3916C57.6393 16.2516 57.7207 16.1312 57.8184 16.0303C57.9128 15.9294 58.0234 15.8529 58.1504 15.8008C58.2773 15.7454 58.4173 15.7178 58.5703 15.7178ZM65.9678 14.6191C65.613 14.6191 65.2858 14.7054 64.9863 14.8779C64.6868 15.0472 64.4297 15.2816 64.2148 15.5811L64.2051 15.4639L64.1514 14.7168H62.8867V20H64.2441V16.8262C64.306 16.6764 64.3841 16.5462 64.4785 16.4355C64.5729 16.3249 64.6868 16.2337 64.8203 16.1621C64.931 16.1003 65.0563 16.0547 65.1963 16.0254C65.3395 15.9928 65.499 15.9766 65.6748 15.9766C65.8441 15.9766 66.0215 15.988 66.207 16.0107C66.3958 16.0303 66.5798 16.0612 66.7588 16.1035L66.959 14.751C66.8516 14.7184 66.71 14.6891 66.5342 14.6631C66.3617 14.6338 66.1729 14.6191 65.9678 14.6191ZM69.0244 14.7168H67.8574V20H69.0928V16.0449C69.109 16.0026 69.127 15.9635 69.1465 15.9277C69.166 15.8919 69.1888 15.861 69.2148 15.835C69.2507 15.7992 69.2913 15.7715 69.3369 15.752C69.3825 15.7324 69.4346 15.7227 69.4932 15.7227C69.5452 15.7227 69.5941 15.7308 69.6396 15.7471C69.6852 15.7601 69.7259 15.7845 69.7617 15.8203C69.7943 15.8561 69.8203 15.9066 69.8398 15.9717C69.8594 16.0368 69.8691 16.1198 69.8691 16.2207V20H71.0654V16.1035C71.0654 16.0645 71.0654 16.0335 71.0654 16.0107C71.0654 15.988 71.0654 15.9733 71.0654 15.9668C71.0817 15.931 71.1012 15.9001 71.124 15.874C71.1468 15.8447 71.1729 15.8187 71.2021 15.7959C71.238 15.7731 71.2754 15.7552 71.3145 15.7422C71.3568 15.7292 71.404 15.7227 71.4561 15.7227C71.5049 15.7227 71.5521 15.7308 71.5977 15.7471C71.6465 15.7601 71.6888 15.7845 71.7246 15.8203C71.7604 15.8594 71.7881 15.9115 71.8076 15.9766C71.8304 16.0417 71.8418 16.1247 71.8418 16.2256V20H73.0771V16.2305C73.0771 15.9375 73.0479 15.6901 72.9893 15.4883C72.9339 15.2832 72.8558 15.1156 72.7549 14.9854C72.6507 14.8584 72.5286 14.7656 72.3887 14.707C72.252 14.6484 72.1038 14.6191 71.9443 14.6191C71.8174 14.6191 71.7002 14.6354 71.5928 14.668C71.4854 14.7005 71.3893 14.7461 71.3047 14.8047C71.2363 14.8503 71.1729 14.9056 71.1143 14.9707C71.0589 15.0326 71.0085 15.1025 70.9629 15.1807C70.9336 15.0993 70.8978 15.0277 70.8555 14.9658C70.8164 14.9007 70.7692 14.8454 70.7139 14.7998C70.6423 14.738 70.5576 14.6924 70.46 14.6631C70.3623 14.6338 70.2516 14.6191 70.1279 14.6191C69.874 14.6191 69.6576 14.6859 69.4785 14.8193C69.3027 14.9495 69.1644 15.1286 69.0635 15.3564L69.0244 14.7168ZM77.4863 20H78.8633V19.917C78.7949 19.7835 78.7428 19.624 78.707 19.4385C78.6712 19.2529 78.6533 19.0186 78.6533 18.7354V16.4697C78.6533 16.1637 78.5964 15.8952 78.4824 15.6641C78.3685 15.4297 78.2106 15.236 78.0088 15.083C77.807 14.93 77.5677 14.8145 77.291 14.7363C77.0176 14.6582 76.7214 14.6191 76.4023 14.6191C76.0475 14.6191 75.7318 14.6647 75.4551 14.7559C75.1816 14.8438 74.9505 14.9642 74.7617 15.1172C74.5697 15.2702 74.4232 15.4476 74.3223 15.6494C74.2246 15.8512 74.1758 16.0645 74.1758 16.2891H75.5332C75.5332 16.1947 75.5462 16.1084 75.5723 16.0303C75.6016 15.9521 75.6455 15.8854 75.7041 15.8301C75.7692 15.7682 75.8538 15.721 75.958 15.6885C76.0622 15.6527 76.1859 15.6348 76.3291 15.6348C76.4919 15.6348 76.6335 15.6559 76.7539 15.6982C76.8776 15.7373 76.9801 15.7943 77.0615 15.8691C77.1396 15.9408 77.1982 16.027 77.2373 16.1279C77.2764 16.2256 77.2959 16.3363 77.2959 16.46V16.7725H76.5391C76.1484 16.7725 75.8018 16.8083 75.499 16.8799C75.1995 16.9482 74.9473 17.0492 74.7422 17.1826C74.5143 17.3291 74.3434 17.5163 74.2295 17.7441C74.1156 17.9688 74.0586 18.2275 74.0586 18.5205C74.0586 18.7484 74.1042 18.96 74.1953 19.1553C74.2865 19.3473 74.4134 19.5133 74.5762 19.6533C74.7389 19.7933 74.9326 19.9023 75.1572 19.9805C75.3851 20.0586 75.6341 20.0977 75.9043 20.0977C76.0703 20.0977 76.2249 20.0814 76.3682 20.0488C76.5114 20.0195 76.6432 19.9772 76.7637 19.9219C76.8809 19.8698 76.9883 19.8079 77.0859 19.7363C77.1836 19.6647 77.2699 19.5882 77.3447 19.5068C77.361 19.6012 77.3805 19.6908 77.4033 19.7754C77.4261 19.86 77.4538 19.9349 77.4863 20ZM76.1924 19.0479C76.0654 19.0479 75.9531 19.0332 75.8555 19.0039C75.7611 18.9714 75.6813 18.929 75.6162 18.877C75.5511 18.8216 75.5007 18.7549 75.4648 18.6768C75.4323 18.5954 75.416 18.5075 75.416 18.4131C75.416 18.2926 75.4388 18.182 75.4844 18.0811C75.5299 17.9769 75.5999 17.8874 75.6943 17.8125C75.7887 17.7409 75.9108 17.6855 76.0605 17.6465C76.2103 17.6042 76.391 17.583 76.6025 17.583H77.2959V18.4912C77.2568 18.5596 77.2031 18.6279 77.1348 18.6963C77.0664 18.7614 76.985 18.82 76.8906 18.8721C76.7962 18.9242 76.6904 18.9665 76.5732 18.999C76.4561 19.0316 76.3291 19.0479 76.1924 19.0479ZM80.1914 20H81.5537V16.2451C81.5993 16.1735 81.6497 16.1084 81.7051 16.0498C81.7604 15.9912 81.8223 15.9408 81.8906 15.8984C81.9753 15.8398 82.0713 15.7959 82.1787 15.7666C82.2894 15.7373 82.4098 15.7227 82.54 15.7227C82.6963 15.7227 82.8363 15.7389 82.96 15.7715C83.0837 15.8008 83.1895 15.8545 83.2773 15.9326C83.3652 16.0107 83.432 16.1182 83.4775 16.2549C83.5264 16.3883 83.5508 16.5592 83.5508 16.7676V20H84.9082V16.748C84.9082 16.3639 84.8626 16.0384 84.7715 15.7715C84.6836 15.5013 84.5599 15.2799 84.4004 15.1074C84.2376 14.9382 84.0456 14.8145 83.8242 14.7363C83.6029 14.6582 83.3587 14.6191 83.0918 14.6191C82.8835 14.6191 82.6865 14.6484 82.501 14.707C82.3154 14.7656 82.1445 14.8503 81.9883 14.9609C81.8971 15.026 81.8109 15.0993 81.7295 15.1807C81.6481 15.262 81.5732 15.3516 81.5049 15.4492L81.4219 14.7168H80.1914V20ZM88.7607 20.0977C89.2718 20.0977 89.7145 19.9984 90.0889 19.7998C90.4632 19.6012 90.7367 19.3799 90.9092 19.1357L90.2305 18.4033C90.0742 18.6051 89.8708 18.7565 89.6201 18.8574C89.3695 18.9583 89.1107 19.0088 88.8438 19.0088C88.6549 19.0088 88.4808 18.9795 88.3213 18.9209C88.1618 18.8623 88.0202 18.7793 87.8965 18.6719C87.776 18.5677 87.68 18.4521 87.6084 18.3252C87.5368 18.195 87.4782 18.0241 87.4326 17.8125V17.7979H91.0166V17.2217C91.0166 16.8343 90.9629 16.4811 90.8555 16.1621C90.748 15.8398 90.5918 15.5648 90.3867 15.3369C90.1784 15.109 89.9245 14.9333 89.625 14.8096C89.3288 14.6826 88.9902 14.6191 88.6094 14.6191C88.2415 14.6191 87.9014 14.6859 87.5889 14.8193C87.2764 14.9528 87.0062 15.14 86.7783 15.3809C86.5505 15.6217 86.373 15.9098 86.2461 16.2451C86.1191 16.5771 86.0557 16.945 86.0557 17.3486V17.5439C86.0557 17.8988 86.1191 18.2324 86.2461 18.5449C86.3763 18.8542 86.5602 19.1227 86.7979 19.3506C87.0355 19.5817 87.3203 19.764 87.6523 19.8975C87.9844 20.0309 88.3538 20.0977 88.7607 20.0977ZM88.5996 15.7178C88.7721 15.7178 88.9235 15.7454 89.0537 15.8008C89.1872 15.8529 89.2995 15.9245 89.3906 16.0156C89.4818 16.11 89.5534 16.2207 89.6055 16.3477C89.6576 16.4746 89.6836 16.6097 89.6836 16.7529V16.8604H87.457C87.4896 16.6878 87.5384 16.5316 87.6035 16.3916C87.6686 16.2516 87.75 16.1312 87.8477 16.0303C87.9421 15.9294 88.0527 15.8529 88.1797 15.8008C88.3066 15.7454 88.4466 15.7178 88.5996 15.7178ZM92.2031 20H93.5654V16.2451C93.611 16.1735 93.6615 16.1084 93.7168 16.0498C93.7721 15.9912 93.834 15.9408 93.9023 15.8984C93.987 15.8398 94.083 15.7959 94.1904 15.7666C94.3011 15.7373 94.4215 15.7227 94.5518 15.7227C94.708 15.7227 94.848 15.7389 94.9717 15.7715C95.0954 15.8008 95.2012 15.8545 95.2891 15.9326C95.377 16.0107 95.4437 16.1182 95.4893 16.2549C95.5381 16.3883 95.5625 16.5592 95.5625 16.7676V20H96.9199V16.748C96.9199 16.3639 96.8743 16.0384 96.7832 15.7715C96.6953 15.5013 96.5716 15.2799 96.4121 15.1074C96.2493 14.9382 96.0573 14.8145 95.8359 14.7363C95.6146 14.6582 95.3704 14.6191 95.1035 14.6191C94.8952 14.6191 94.6982 14.6484 94.5127 14.707C94.3271 14.7656 94.1562 14.8503 94 14.9609C93.9089 15.026 93.8226 15.0993 93.7412 15.1807C93.6598 15.262 93.585 15.3516 93.5166 15.4492L93.4336 14.7168H92.2031V20ZM100.699 13.4229H99.3418V14.7168H98.1357V15.7178H99.3418V18.1201C99.3418 18.4684 99.3874 18.7679 99.4785 19.0186C99.5697 19.266 99.6999 19.4694 99.8691 19.6289C100.035 19.7917 100.235 19.9121 100.47 19.9902C100.707 20.0651 100.971 20.1025 101.261 20.1025C101.41 20.1025 101.562 20.0944 101.715 20.0781C101.871 20.0651 102.021 20.0456 102.164 20.0195C102.307 19.9935 102.442 19.9609 102.569 19.9219C102.696 19.8796 102.807 19.8307 102.901 19.7754L102.77 18.8428C102.708 18.859 102.633 18.8753 102.545 18.8916C102.46 18.9079 102.369 18.9225 102.271 18.9355C102.171 18.9518 102.065 18.9648 101.954 18.9746C101.847 18.9844 101.741 18.9893 101.637 18.9893C101.493 18.9893 101.363 18.973 101.246 18.9404C101.132 18.9079 101.035 18.8525 100.953 18.7744C100.872 18.6995 100.808 18.5986 100.763 18.4717C100.72 18.3415 100.699 18.1803 100.699 17.9883V15.7178H102.672V14.7168H100.699V13.4229ZM49.9263 29.5786V29.6709C49.9263 30.0195 49.9761 30.3418 50.0757 30.6377C50.1753 30.9307 50.3218 31.1855 50.5151 31.4023C50.7056 31.6191 50.9399 31.7891 51.2183 31.9121C51.4995 32.0322 51.8188 32.0923 52.1763 32.0923C52.5308 32.0923 52.8472 32.0322 53.1255 31.9121C53.4038 31.7891 53.6382 31.6191 53.8286 31.4023C54.019 31.1855 54.1641 30.9307 54.2637 30.6377C54.3633 30.3418 54.4131 30.0195 54.4131 29.6709V29.5786C54.4131 29.2329 54.3633 28.9136 54.2637 28.6206C54.1641 28.3247 54.019 28.0684 53.8286 27.8516C53.6353 27.6348 53.3994 27.4648 53.1211 27.3418C52.8428 27.2188 52.5249 27.1572 52.1675 27.1572C51.8101 27.1572 51.4922 27.2188 51.2139 27.3418C50.9385 27.4648 50.7056 27.6348 50.5151 27.8516C50.3218 28.0684 50.1753 28.3247 50.0757 28.6206C49.9761 28.9136 49.9263 29.2329 49.9263 29.5786ZM51.1479 29.6709V29.5786C51.1479 29.3853 51.167 29.2021 51.2051 29.0293C51.2432 28.8564 51.3032 28.7041 51.3853 28.5723C51.4673 28.4404 51.5728 28.3364 51.7017 28.2603C51.8306 28.1841 51.9858 28.146 52.1675 28.146C52.3521 28.146 52.5088 28.1841 52.6377 28.2603C52.7666 28.3364 52.8721 28.4404 52.9541 28.5723C53.0332 28.7041 53.0918 28.8564 53.1299 29.0293C53.168 29.2021 53.187 29.3853 53.187 29.5786V29.6709C53.187 29.8701 53.168 30.0576 53.1299 30.2334C53.0918 30.4062 53.0332 30.5571 52.9541 30.686C52.8721 30.8179 52.7666 30.9219 52.6377 30.998C52.5088 31.0742 52.355 31.1123 52.1763 31.1123C51.9917 31.1123 51.8335 31.0742 51.7017 30.998C51.5728 30.9219 51.4673 30.8179 51.3853 30.686C51.3032 30.5571 51.2432 30.4062 51.2051 30.2334C51.167 30.0576 51.1479 29.8701 51.1479 29.6709ZM55.4985 32H56.7246V28.6206C56.7656 28.5562 56.811 28.4976 56.8608 28.4448C56.9106 28.3921 56.9663 28.3467 57.0278 28.3086C57.104 28.2559 57.1904 28.2163 57.2871 28.1899C57.3867 28.1636 57.4951 28.1504 57.6123 28.1504C57.7529 28.1504 57.8789 28.165 57.9902 28.1943C58.1016 28.2207 58.1968 28.269 58.2759 28.3394C58.355 28.4097 58.415 28.5063 58.4561 28.6294C58.5 28.7495 58.522 28.9033 58.522 29.0908V32H59.7437V29.0732C59.7437 28.7275 59.7026 28.4346 59.6206 28.1943C59.5415 27.9512 59.4302 27.752 59.2866 27.5967C59.1401 27.4443 58.9673 27.333 58.7681 27.2627C58.5688 27.1924 58.3491 27.1572 58.1089 27.1572C57.9214 27.1572 57.7441 27.1836 57.5771 27.2363C57.4102 27.2891 57.2563 27.3652 57.1157 27.4648C57.0337 27.5234 56.9561 27.5894 56.8828 27.6626C56.8096 27.7358 56.7422 27.8164 56.6807 27.9043L56.606 27.2451H55.4985V32ZM69.4116 30.6641L69.7852 32H71.0859L69.0293 25.6016H67.9087L65.8125 32H67.1133L67.4912 30.6641H69.4116ZM67.7944 29.6138L68.4668 27.2583L69.1216 29.6138H67.7944ZM75.1289 27.1572C74.8096 27.1572 74.5151 27.2349 74.2456 27.3901C73.9761 27.5425 73.7446 27.7534 73.5513 28.0229L73.5425 27.9175L73.4941 27.2451H72.356V32H73.5776V29.1436C73.6333 29.0088 73.7036 28.8916 73.7886 28.792C73.8735 28.6924 73.9761 28.6104 74.0962 28.5459C74.1958 28.4902 74.3086 28.4492 74.4346 28.4229C74.5635 28.3936 74.707 28.3789 74.8652 28.3789C75.0176 28.3789 75.1772 28.3892 75.3442 28.4097C75.5142 28.4272 75.6797 28.4551 75.8408 28.4932L76.021 27.2759C75.9243 27.2466 75.7969 27.2202 75.6387 27.1968C75.4834 27.1704 75.3135 27.1572 75.1289 27.1572ZM77.4712 32H78.5435L79.0488 29.46L79.1455 28.9766L79.2466 29.46L79.7695 32H80.8418L81.6943 27.2451H80.5737L80.2222 30.0488L80.1606 30.5103L80.0771 30.0576L79.563 27.2451H78.7456L78.2314 30.0708L78.1479 30.5234L78.0908 30.0708L77.7349 27.2451H76.6187L77.4712 32ZM84.832 32.0879C85.292 32.0879 85.6904 31.9985 86.0273 31.8198C86.3643 31.6411 86.6104 31.4419 86.7656 31.2222L86.1548 30.563C86.0142 30.7446 85.8311 30.8809 85.6055 30.9717C85.3799 31.0625 85.147 31.1079 84.9067 31.1079C84.7368 31.1079 84.5801 31.0815 84.4365 31.0288C84.293 30.9761 84.1655 30.9014 84.0542 30.8047C83.9458 30.7109 83.8594 30.6069 83.7949 30.4927C83.7305 30.3755 83.6777 30.2217 83.6367 30.0312V30.0181H86.8623V29.4995C86.8623 29.1509 86.814 28.833 86.7173 28.5459C86.6206 28.2559 86.48 28.0083 86.2954 27.8032C86.1079 27.5981 85.8794 27.4399 85.6099 27.3286C85.3433 27.2144 85.0386 27.1572 84.6958 27.1572C84.3647 27.1572 84.0586 27.2173 83.7773 27.3374C83.4961 27.4575 83.2529 27.626 83.0479 27.8428C82.8428 28.0596 82.6831 28.3188 82.5688 28.6206C82.4546 28.9194 82.3975 29.2505 82.3975 29.6138V29.7896C82.3975 30.1089 82.4546 30.4092 82.5688 30.6904C82.686 30.9688 82.8516 31.2104 83.0654 31.4155C83.2793 31.6235 83.5356 31.7876 83.8345 31.9077C84.1333 32.0278 84.4658 32.0879 84.832 32.0879ZM84.687 28.146C84.8423 28.146 84.9785 28.1709 85.0957 28.2207C85.2158 28.2676 85.3169 28.332 85.3989 28.4141C85.481 28.499 85.5454 28.5986 85.5923 28.7129C85.6392 28.8271 85.6626 28.9487 85.6626 29.0776V29.1743H83.6587C83.688 29.019 83.7319 28.8784 83.7905 28.7524C83.8491 28.6265 83.9224 28.5181 84.0103 28.4272C84.0952 28.3364 84.1948 28.2676 84.3091 28.2207C84.4233 28.1709 84.5493 28.146 84.687 28.146ZM90.9009 32H92.1401V31.9253C92.0786 31.8052 92.0317 31.6616 91.9995 31.4946C91.9673 31.3276 91.9512 31.1167 91.9512 30.8618V28.8228C91.9512 28.5474 91.8999 28.3057 91.7974 28.0977C91.6948 27.8867 91.5527 27.7124 91.3711 27.5747C91.1895 27.437 90.9741 27.333 90.7251 27.2627C90.479 27.1924 90.2124 27.1572 89.9253 27.1572C89.606 27.1572 89.3218 27.1982 89.0728 27.2803C88.8267 27.3594 88.6187 27.4678 88.4487 27.6055C88.2759 27.7432 88.144 27.9028 88.0532 28.0845C87.9653 28.2661 87.9214 28.458 87.9214 28.6602H89.1431C89.1431 28.5752 89.1548 28.4976 89.1782 28.4272C89.2046 28.3569 89.2441 28.2969 89.2969 28.2471C89.3555 28.1914 89.4316 28.1489 89.5254 28.1196C89.6191 28.0874 89.7305 28.0713 89.8594 28.0713C90.0059 28.0713 90.1333 28.0903 90.2417 28.1284C90.353 28.1636 90.4453 28.2148 90.5186 28.2822C90.5889 28.3467 90.6416 28.4243 90.6768 28.5151C90.7119 28.603 90.7295 28.7026 90.7295 28.814V29.0952H90.0483C89.6968 29.0952 89.3848 29.1274 89.1123 29.1919C88.8428 29.2534 88.6157 29.3442 88.4312 29.4644C88.2261 29.5962 88.0723 29.7646 87.9697 29.9697C87.8672 30.1719 87.8159 30.4048 87.8159 30.6685C87.8159 30.8735 87.8569 31.064 87.939 31.2397C88.021 31.4126 88.1353 31.562 88.2817 31.688C88.4282 31.814 88.6025 31.9121 88.8047 31.9824C89.0098 32.0527 89.2339 32.0879 89.4771 32.0879C89.6265 32.0879 89.7656 32.0732 89.8945 32.0439C90.0234 32.0176 90.1421 31.9795 90.2505 31.9297C90.356 31.8828 90.4526 31.8271 90.5405 31.7627C90.6284 31.6982 90.7061 31.6294 90.7734 31.5562C90.7881 31.6411 90.8057 31.7217 90.8262 31.7979C90.8467 31.874 90.8716 31.9414 90.9009 32ZM89.7363 31.1431C89.6221 31.1431 89.521 31.1299 89.4331 31.1035C89.3481 31.0742 89.2764 31.0361 89.2178 30.9893C89.1592 30.9395 89.1138 30.8794 89.0815 30.8091C89.0522 30.7358 89.0376 30.6567 89.0376 30.5718C89.0376 30.4634 89.0581 30.3638 89.0991 30.2729C89.1401 30.1792 89.2031 30.0986 89.2881 30.0312C89.373 29.9668 89.4829 29.917 89.6177 29.8818C89.7524 29.8438 89.915 29.8247 90.1055 29.8247H90.7295V30.6421C90.6943 30.7036 90.646 30.7651 90.5845 30.8267C90.5229 30.8853 90.4497 30.938 90.3647 30.9849C90.2798 31.0317 90.1846 31.0698 90.0791 31.0991C89.9736 31.1284 89.8594 31.1431 89.7363 31.1431ZM94.8472 32H95.9941L97.8003 27.2451H96.5259L95.4844 30.5981L95.4185 30.9321L95.3525 30.5981L94.3066 27.2451H93.0322L94.8472 32ZM101.048 32.0879C101.508 32.0879 101.906 31.9985 102.243 31.8198C102.58 31.6411 102.826 31.4419 102.981 31.2222L102.371 30.563C102.23 30.7446 102.047 30.8809 101.821 30.9717C101.596 31.0625 101.363 31.1079 101.123 31.1079C100.953 31.1079 100.796 31.0815 100.652 31.0288C100.509 30.9761 100.381 30.9014 100.27 30.8047C100.162 30.7109 100.075 30.6069 100.011 30.4927C99.9463 30.3755 99.8936 30.2217 99.8525 30.0312V30.0181H103.078V29.4995C103.078 29.1509 103.03 28.833 102.933 28.5459C102.836 28.2559 102.696 28.0083 102.511 27.8032C102.324 27.5981 102.095 27.4399 101.826 27.3286C101.559 27.2144 101.254 27.1572 100.912 27.1572C100.581 27.1572 100.274 27.2173 99.9932 27.3374C99.7119 27.4575 99.4688 27.626 99.2637 27.8428C99.0586 28.0596 98.8989 28.3188 98.7847 28.6206C98.6704 28.9194 98.6133 29.2505 98.6133 29.6138V29.7896C98.6133 30.1089 98.6704 30.4092 98.7847 30.6904C98.9019 30.9688 99.0674 31.2104 99.2812 31.4155C99.4951 31.6235 99.7515 31.7876 100.05 31.9077C100.349 32.0278 100.682 32.0879 101.048 32.0879ZM100.903 28.146C101.058 28.146 101.194 28.1709 101.312 28.2207C101.432 28.2676 101.533 28.332 101.615 28.4141C101.697 28.499 101.761 28.5986 101.808 28.7129C101.855 28.8271 101.878 28.9487 101.878 29.0776V29.1743H99.8745C99.9038 29.019 99.9478 28.8784 100.006 28.7524C100.065 28.6265 100.138 28.5181 100.226 28.4272C100.311 28.3364 100.411 28.2676 100.525 28.2207C100.639 28.1709 100.765 28.146 100.903 28.146Z" fill="#222326"/>
<rect x="2.5" y="2.5" width="118" height="41" rx="5.5" stroke="black"/>
</g>
<defs>
<filter id="filter0_d_0_3" x="0.5" y="0.5" width="123" height="46" filterUnits="userSpaceOnUse" color-interpolation-filters="sRGB">
<feFlood flood-opacity="0" result="BackgroundImageFix"/>
<feColorMatrix in="SourceAlpha" type="matrix" values="0 0 0 0 0 0 0 0 0 0 0 0 0 0 0 0 0 0 127 0" result="hardAlpha"/>
<feOffset dx="0.5" dy="0.5"/>
<feGaussianBlur stdDeviation="1"/>
<feComposite in2="hardAlpha" operator="out"/>
<feColorMatrix type="matrix" values="0 0 0 0 0 0 0 0 0 0 0 0 0 0 0 0 0 0 0.25 0"/>
<feBlend mode="normal" in2="BackgroundImageFix" result="effect1_dropShadow_0_3"/>
<feBlend mode="normal" in="SourceGraphic" in2="effect1_dropShadow_0_3" result="shape"/>
</filter>
</defs>
</svg>
