<svg width="124" height="18" viewBox="0 0 124 18" fill="none" xmlns="http://www.w3.org/2000/svg">
<path d="M2.25 12.9375V15.75H5.0625L13.3575 7.455L10.545 4.6425L2.25 12.9375ZM15.5325 5.28C15.602 5.21062 15.6572 5.1282 15.6948 5.03747C15.7325 4.94674 15.7518 4.84948 15.7518 4.75125C15.7518 4.65303 15.7325 4.55576 15.6948 4.46503C15.6572 4.3743 15.602 4.29189 15.5325 4.2225L13.7775 2.4675C13.7081 2.39797 13.6257 2.34281 13.535 2.30518C13.4442 2.26754 13.347 2.24817 13.2488 2.24817C13.1505 2.24817 13.0533 2.26754 12.9625 2.30518C12.8718 2.34281 12.7894 2.39797 12.72 2.4675L11.3475 3.84L14.16 6.6525L15.5325 5.28Z" fill="#568BBB"/>
<path d="M32.0043 15V4.81818H38.6264V6.36435H33.8487V9.12855H38.2834V10.6747H33.8487V13.4538H38.6662V15H32.0043ZM43.9585 15H40.5082V4.81818H44.0281C45.0389 4.81818 45.9073 5.02202 46.6332 5.42969C47.3623 5.83404 47.9225 6.41572 48.3136 7.17472C48.7047 7.93371 48.9002 8.84186 48.9002 9.89915C48.9002 10.9598 48.703 11.8712 48.3086 12.6335C47.9175 13.3958 47.3524 13.9808 46.6133 14.3885C45.8775 14.7962 44.9925 15 43.9585 15ZM42.3526 13.4041H43.869C44.5782 13.4041 45.1699 13.2749 45.6438 13.0163C46.1178 12.7545 46.4741 12.3651 46.7127 11.848C46.9514 11.3277 47.0707 10.678 47.0707 9.89915C47.0707 9.12026 46.9514 8.47396 46.7127 7.96023C46.4741 7.44318 46.1211 7.05706 45.6538 6.80185C45.1897 6.54332 44.613 6.41406 43.9237 6.41406H42.3526V13.4041ZM52.4972 4.81818V15H50.6527V4.81818H52.4972ZM54.0471 6.36435V4.81818H62.1706V6.36435H59.0236V15H57.1941V6.36435H54.0471ZM67.2093 15V4.81818H71.0275C71.8097 4.81818 72.466 4.96401 72.9963 5.25568C73.5299 5.54735 73.9326 5.94839 74.2044 6.45881C74.4795 6.96591 74.617 7.54261 74.617 8.18892C74.617 8.84186 74.4795 9.42187 74.2044 9.92898C73.9293 10.4361 73.5233 10.8355 72.9863 11.1271C72.4494 11.4155 71.7882 11.5597 71.0027 11.5597H68.4721V10.0433H70.7541C71.2115 10.0433 71.586 9.96378 71.8777 9.80469C72.1693 9.6456 72.3848 9.42685 72.524 9.14844C72.6665 8.87003 72.7377 8.55019 72.7377 8.18892C72.7377 7.82765 72.6665 7.50947 72.524 7.23438C72.3848 6.95928 72.1677 6.7455 71.8727 6.59304C71.581 6.43726 71.2048 6.35938 70.7441 6.35938H69.0538V15H67.2093ZM76.2191 15V4.81818H80.0373C80.8195 4.81818 81.4757 4.95407 82.006 5.22585C82.5397 5.49763 82.9424 5.87879 83.2141 6.36932C83.4892 6.85653 83.6268 7.42495 83.6268 8.07457C83.6268 8.72751 83.4876 9.29427 83.2092 9.77486C82.9341 10.2521 82.5281 10.6217 81.9911 10.8835C81.4542 11.142 80.7946 11.2713 80.0124 11.2713H77.293V9.74006H79.7638C80.2212 9.74006 80.5958 9.67708 80.8874 9.55114C81.1791 9.42187 81.3945 9.23461 81.5337 8.98935C81.6763 8.74077 81.7475 8.43584 81.7475 8.07457C81.7475 7.7133 81.6763 7.40507 81.5337 7.14986C81.3912 6.89134 81.1741 6.69579 80.8825 6.56321C80.5908 6.42732 80.2146 6.35938 79.7539 6.35938H78.0636V15H76.2191ZM81.479 10.3864L83.9996 15H81.9414L79.4656 10.3864H81.479ZM94.4226 9.90909C94.4226 11.0062 94.2171 11.9458 93.8061 12.728C93.3984 13.5069 92.8416 14.1035 92.1357 14.5178C91.433 14.9321 90.6359 15.1392 89.7443 15.1392C88.8527 15.1392 88.054 14.9321 87.348 14.5178C86.6454 14.1001 86.0885 13.5019 85.6776 12.723C85.2699 11.9408 85.0661 11.0028 85.0661 9.90909C85.0661 8.81203 85.2699 7.87405 85.6776 7.09517C86.0885 6.31297 86.6454 5.71473 87.348 5.30043C88.054 4.88613 88.8527 4.67898 89.7443 4.67898C90.6359 4.67898 91.433 4.88613 92.1357 5.30043C92.8416 5.71473 93.3984 6.31297 93.8061 7.09517C94.2171 7.87405 94.4226 8.81203 94.4226 9.90909ZM92.5682 9.90909C92.5682 9.13684 92.4472 8.48556 92.2053 7.95526C91.9666 7.42164 91.6352 7.01894 91.2109 6.74716C90.7867 6.47206 90.2978 6.33452 89.7443 6.33452C89.1908 6.33452 88.7019 6.47206 88.2777 6.74716C87.8535 7.01894 87.5204 7.42164 87.2784 7.95526C87.0398 8.48556 86.9205 9.13684 86.9205 9.90909C86.9205 10.6813 87.0398 11.3343 87.2784 11.8679C87.5204 12.3982 87.8535 12.8009 88.2777 13.076C88.7019 13.3478 89.1908 13.4837 89.7443 13.4837C90.2978 13.4837 90.7867 13.3478 91.2109 13.076C91.6352 12.8009 91.9666 12.3982 92.2053 11.8679C92.4472 11.3343 92.5682 10.6813 92.5682 9.90909ZM96.1664 15V4.81818H102.689V6.36435H98.0108V9.12855H102.242V10.6747H98.0108V15H96.1664ZM106.214 4.81818V15H104.369V4.81818H106.214ZM108.211 15V4.81818H110.056V13.4538H114.54V15H108.211ZM116.141 15V4.81818H122.763V6.36435H117.985V9.12855H122.42V10.6747H117.985V13.4538H122.803V15H116.141Z" fill="#568BBB"/>
</svg>
