<svg width="54" height="18" viewBox="0 0 54 18" fill="none" xmlns="http://www.w3.org/2000/svg">
<path fill-rule="evenodd" clip-rule="evenodd" d="M13.7765 2.4675L15.5315 4.2225C15.824 4.515 15.824 4.9875 15.5315 5.28L14.159 6.6525L11.3465 3.84L12.719 2.4675C12.8615 2.325 13.049 2.25 13.244 2.25C13.439 2.25 13.6265 2.3175 13.7765 2.4675ZM2.24902 12.9375V15.75H5.06152L13.3565 7.455L10.544 4.6425L2.24902 12.9375ZM4.43902 14.25H3.74902V13.56L10.544 6.765L11.234 7.455L4.43902 14.25Z" fill="#CBD5E1"/>
<path d="M29.1186 14V3.81818H35.5021V5.14062H30.6548V8.2429H35.169V9.56037H30.6548V12.6776H35.5618V14H29.1186ZM40.2935 14.1491C39.677 14.1491 39.1268 13.9917 38.6429 13.6768C38.1623 13.3587 37.7845 12.9062 37.5094 12.3196C37.2376 11.7296 37.1017 11.022 37.1017 10.1967C37.1017 9.37145 37.2393 8.66548 37.5144 8.07884C37.7928 7.49219 38.1739 7.04309 38.6578 6.73153C39.1417 6.41998 39.6903 6.2642 40.3034 6.2642C40.7774 6.2642 41.1586 6.34375 41.4469 6.50284C41.7386 6.65862 41.964 6.84091 42.123 7.04972C42.2855 7.25852 42.4114 7.44247 42.5009 7.60156H42.5904V3.81818H44.0769V14H42.6252V12.8118H42.5009C42.4114 12.9742 42.2821 13.1598 42.1131 13.3686C41.9474 13.5774 41.7187 13.7597 41.427 13.9155C41.1354 14.0713 40.7575 14.1491 40.2935 14.1491ZM40.6216 12.8814C41.0492 12.8814 41.4105 12.7687 41.7054 12.5433C42.0037 12.3146 42.2291 11.9981 42.3816 11.5938C42.5373 11.1894 42.6152 10.7187 42.6152 10.1818C42.6152 9.65151 42.539 9.1875 42.3865 8.78977C42.2341 8.39205 42.0104 8.08215 41.7154 7.86009C41.4204 7.63802 41.0558 7.52699 40.6216 7.52699C40.1742 7.52699 39.8013 7.64299 39.503 7.875C39.2047 8.10701 38.9793 8.42353 38.8269 8.82457C38.6777 9.22562 38.6032 9.67803 38.6032 10.1818C38.6032 10.6922 38.6794 11.1513 38.8319 11.5589C38.9843 11.9666 39.2097 12.2898 39.508 12.5284C39.8096 12.7637 40.1808 12.8814 40.6216 12.8814ZM46.1985 14V6.36364H47.685V14H46.1985ZM46.9492 5.18537C46.6907 5.18537 46.4686 5.09919 46.283 4.92685C46.1007 4.75118 46.0096 4.54238 46.0096 4.30043C46.0096 4.05516 46.1007 3.84635 46.283 3.67401C46.4686 3.49834 46.6907 3.41051 46.9492 3.41051C47.2077 3.41051 47.4281 3.49834 47.6104 3.67401C47.796 3.84635 47.8888 4.05516 47.8888 4.30043C47.8888 4.54238 47.796 4.75118 47.6104 4.92685C47.4281 5.09919 47.2077 5.18537 46.9492 5.18537ZM53.2495 6.36364V7.55682H49.0783V6.36364H53.2495ZM50.1969 4.53409H51.6834V11.7578C51.6834 12.0462 51.7265 12.2633 51.8127 12.4091C51.8989 12.5516 52.0099 12.6494 52.1458 12.7024C52.285 12.7521 52.4358 12.777 52.5982 12.777C52.7175 12.777 52.8219 12.7687 52.9114 12.7521C53.0009 12.7356 53.0705 12.7223 53.1202 12.7124L53.3887 13.9403C53.3025 13.9735 53.1799 14.0066 53.0208 14.0398C52.8617 14.0762 52.6628 14.0961 52.4242 14.0994C52.0331 14.1061 51.6685 14.0365 51.3304 13.8906C50.9924 13.7448 50.7189 13.5194 50.5101 13.2145C50.3013 12.9096 50.1969 12.5268 50.1969 12.0661V4.53409Z" fill="#94A3B8"/>
</svg>
