<svg width="634" height="427" viewBox="0 0 634 427" fill="none" xmlns="http://www.w3.org/2000/svg">
<path d="M296.469 76.5034L278.202 163.641" stroke="#E6E6E6"/>
<g filter="url(#filter0_d_5_385)">
<rect width="270.314" height="257.442" rx="7" transform="matrix(0.999914 0.0130896 -0.205179 0.978724 218.195 131.8)" fill="white"/>
</g>
<g filter="url(#filter1_d_5_385)">
<circle r="32.7166" transform="matrix(0.999914 0.0130896 -0.205179 0.978724 565.201 151.607)" fill="url(#paint0_linear_5_385)"/>
</g>
<path d="M553.435 157.678C553.663 157.496 553.945 157.391 554.22 157.395L579.184 157.722C579.64 157.728 579.755 158.269 579.367 158.581L573.423 163.343C573.196 163.526 572.914 163.63 572.639 163.626L547.675 163.3C547.218 163.294 547.103 162.752 547.492 162.44L553.435 157.678Z" fill="white"/>
<path d="M557.213 139.656C557.449 139.474 557.731 139.369 557.998 139.373L582.962 139.7C583.418 139.706 583.533 140.248 583.145 140.559L577.201 145.321C576.974 145.504 576.692 145.608 576.417 145.604L551.453 145.278C550.996 145.272 550.881 144.73 551.27 144.418L557.213 139.656Z" fill="white"/>
<path d="M576.454 148.886C576.304 148.698 576.067 148.587 575.792 148.584L550.828 148.257C550.372 148.251 550.031 148.787 550.287 149.107L554.207 153.998C554.357 154.185 554.594 154.296 554.869 154.3L579.833 154.627C580.289 154.633 580.63 154.097 580.374 153.777L576.454 148.886Z" fill="white"/>
<rect width="69.7238" height="8.58139" transform="matrix(0.999914 0.0130896 -0.205179 0.978724 222.727 207.656)" fill="#E3E3E3"/>
<rect width="51.4884" height="8.58139" transform="matrix(0.999914 0.0130896 -0.205179 0.978724 213.483 251.75)" fill="#E3E3E3"/>
<rect width="69.7238" height="8.58139" transform="matrix(0.999914 0.0130896 -0.205179 0.978724 299.953 208.667)" fill="#E3E3E3"/>
<rect width="54.7064" height="8.58139" transform="matrix(0.999914 0.0130896 -0.205179 0.978724 225.808 192.958)" fill="#E3E3E3"/>
<rect width="54.7064" height="8.58139" transform="matrix(0.999914 0.0130896 -0.205179 0.978724 285.873 193.745)" fill="#E3E3E3"/>
<rect width="69.7238" height="8.58139" transform="matrix(0.999914 0.0130896 -0.205179 0.978724 378.252 209.692)" fill="#E3E3E3"/>
<rect width="224.189" height="8.58139" transform="matrix(0.999914 0.0130896 -0.205179 0.978724 217.637 237.066)" fill="#E3E3E3"/>
<rect width="165.192" height="8.58139" transform="matrix(0.999914 0.0130896 -0.205179 0.978724 273.548 252.536)" fill="#E3E3E3"/>
<rect width="105.122" height="8.58139" transform="matrix(0.999914 0.0130896 -0.205179 0.978724 220.718 222.368)" fill="#E3E3E3"/>
<rect width="110.485" height="8.58139" transform="matrix(0.999914 0.0130896 -0.205179 0.978724 334.412 223.856)" fill="#E3E3E3"/>
<rect width="69.7238" height="8.58139" transform="matrix(0.999914 0.0130896 -0.205179 0.978724 206.881 283.246)" fill="#E3E3E3"/>
<rect width="51.4884" height="8.58139" transform="matrix(0.999914 0.0130896 -0.205179 0.978724 197.637 327.339)" fill="#E3E3E3"/>
<rect width="69.7238" height="8.58139" transform="matrix(0.999914 0.0130896 -0.205179 0.978724 284.106 284.256)" fill="#E3E3E3"/>
<rect width="54.7064" height="8.58139" transform="matrix(0.999914 0.0130896 -0.205179 0.978724 194.555 342.037)" fill="#E3E3E3"/>
<rect width="54.7064" height="8.58139" transform="matrix(0.999914 0.0130896 -0.205179 0.978724 254.62 342.824)" fill="#E3E3E3"/>
<rect width="54.7064" height="8.58139" transform="matrix(0.999914 0.0130896 -0.205179 0.978724 314.685 343.61)" fill="#E3E3E3"/>
<rect width="69.7238" height="8.58139" transform="matrix(0.999914 0.0130896 -0.205179 0.978724 362.405 285.281)" fill="#E3E3E3"/>
<rect width="224.189" height="8.58139" transform="matrix(0.999914 0.0130896 -0.205179 0.978724 201.791 312.655)" fill="#E3E3E3"/>
<rect width="165.192" height="8.58139" transform="matrix(0.999914 0.0130896 -0.205179 0.978724 257.701 328.126)" fill="#E3E3E3"/>
<rect width="105.122" height="8.58139" transform="matrix(0.999914 0.0130896 -0.205179 0.978724 204.872 297.958)" fill="#E3E3E3"/>
<rect width="110.485" height="8.58139" transform="matrix(0.999914 0.0130896 -0.205179 0.978724 318.566 299.446)" fill="#E3E3E3"/>
<g filter="url(#filter2_d_5_385)">
<rect width="391.526" height="45.0523" rx="7" transform="matrix(0.999914 0.0130896 -0.205179 0.978724 64.9268 108.739)" fill="white" fill-opacity="0.7" shape-rendering="crispEdges"/>
</g>
<path d="M94.6901 131.716C94.532 132.47 94.2901 133.156 93.9641 133.773C93.6392 134.386 93.2362 134.913 92.7554 135.354C92.28 135.79 91.7323 136.125 91.1122 136.359C90.4921 136.592 89.8061 136.704 89.0542 136.694C88.2795 136.684 87.6281 136.555 87.0999 136.306C86.5762 136.058 86.1697 135.708 85.8804 135.257C85.5957 134.806 85.4227 134.269 85.3612 133.647C85.3044 133.024 85.355 132.336 85.513 131.583C85.7224 130.583 86.0748 129.709 86.57 128.96C87.0653 128.21 87.6986 127.631 88.47 127.22C89.246 126.81 90.1512 126.612 91.1856 126.625C92.1745 126.638 92.9626 126.856 93.5501 127.28C94.1421 127.704 94.5323 128.295 94.7206 129.053C94.9144 129.807 94.9042 130.695 94.6901 131.716ZM86.7337 131.612C86.5598 132.442 86.53 133.161 86.6443 133.771C86.7587 134.381 87.0296 134.854 87.4571 135.191C87.8892 135.527 88.4903 135.701 89.2604 135.711C90.0351 135.721 90.7031 135.564 91.2644 135.24C91.8303 134.917 92.2953 134.453 92.6595 133.85C93.0236 133.246 93.2926 132.53 93.4665 131.7C93.7312 130.438 93.6667 129.449 93.2731 128.732C92.885 128.012 92.119 127.644 90.9752 127.629C90.2006 127.619 89.5285 127.773 88.959 128.092C88.3894 128.411 87.9185 128.87 87.5462 129.469C87.1794 130.064 86.9086 130.778 86.7337 131.612ZM100.805 129.227C101.739 129.239 102.418 129.563 102.842 130.199C103.266 130.835 103.346 131.785 103.082 133.047C102.907 133.881 102.632 134.58 102.258 135.143C101.884 135.706 101.435 136.129 100.909 136.413C100.388 136.697 99.8131 136.835 99.1842 136.827C98.7878 136.822 98.4499 136.766 98.1707 136.659C97.8914 136.553 97.6629 136.411 97.4852 136.234C97.3075 136.057 97.1695 135.866 97.0713 135.659L96.9893 135.658C96.9665 135.832 96.9385 136.041 96.9053 136.287C96.8766 136.533 96.8431 136.747 96.8048 136.93L96.1736 139.94L95.0321 139.926L97.2566 129.314L98.1931 129.327L98.1162 130.413L98.1709 130.413C98.3635 130.192 98.5838 129.991 98.8317 129.811C99.0806 129.627 99.3667 129.483 99.6898 129.38C100.019 129.272 100.39 129.221 100.805 129.227ZM100.41 130.161C99.8908 130.154 99.451 130.247 99.0909 130.439C98.7353 130.631 98.4435 130.922 98.2154 131.313C97.9882 131.699 97.8084 132.186 97.6758 132.775L97.6309 132.989C97.501 133.609 97.4594 134.134 97.5064 134.564C97.5579 134.994 97.7197 135.323 97.992 135.55C98.2688 135.777 98.6783 135.894 99.2206 135.901C99.6854 135.907 100.098 135.79 100.46 135.549C100.821 135.307 101.123 134.969 101.365 134.534C101.612 134.094 101.796 133.589 101.915 133.018C102.097 132.153 102.068 131.464 101.828 130.951C101.594 130.433 101.121 130.17 100.41 130.161ZM108.741 129.331C109.379 129.339 109.897 129.484 110.294 129.767C110.692 130.049 110.959 130.442 111.096 130.945C111.234 131.443 111.233 132.024 111.094 132.689L110.949 133.378L105.775 133.31C105.608 134.171 105.689 134.83 106.019 135.286C106.348 135.742 106.898 135.975 107.668 135.985C108.142 135.991 108.57 135.954 108.952 135.874C109.334 135.795 109.739 135.675 110.165 135.515L109.961 136.491C109.548 136.652 109.147 136.767 108.757 136.838C108.372 136.909 107.927 136.941 107.421 136.935C106.701 136.925 106.102 136.774 105.624 136.482C105.152 136.185 104.826 135.756 104.646 135.194C104.467 134.633 104.462 133.948 104.631 133.141C104.797 132.352 105.074 131.671 105.464 131.099C105.859 130.523 106.335 130.082 106.893 129.776C107.455 129.47 108.071 129.322 108.741 129.331ZM108.536 130.24C107.93 130.232 107.407 130.42 106.965 130.803C106.524 131.187 106.196 131.726 105.982 132.421L109.946 132.473C110.033 132.036 110.043 131.651 109.976 131.319C109.914 130.983 109.765 130.722 109.53 130.535C109.296 130.344 108.965 130.246 108.536 130.24ZM117.264 129.442C118.153 129.454 118.78 129.677 119.146 130.111C119.513 130.541 119.598 131.226 119.401 132.167L118.399 136.944L117.278 136.929L118.264 132.226C118.392 131.615 118.345 131.156 118.121 130.849C117.902 130.542 117.499 130.384 116.911 130.377C116.081 130.366 115.45 130.588 115.017 131.043C114.583 131.498 114.275 132.163 114.091 133.037L113.286 136.877L112.152 136.862L113.689 129.53L114.605 129.542L114.554 130.601L114.616 130.602C114.829 130.345 115.077 130.131 115.36 129.961C115.643 129.785 115.947 129.655 116.271 129.57C116.596 129.48 116.927 129.438 117.264 129.442ZM130.729 134.496C130.607 135.076 130.355 135.569 129.973 135.975C129.596 136.377 129.121 136.682 128.548 136.889C127.974 137.096 127.33 137.195 126.614 137.186C126.236 137.181 125.882 137.158 125.553 137.118C125.223 137.078 124.924 137.023 124.655 136.952C124.387 136.882 124.156 136.796 123.962 136.695L124.191 135.604C124.503 135.747 124.893 135.882 125.36 136.009C125.828 136.131 126.331 136.196 126.869 136.203C127.37 136.21 127.807 136.15 128.181 136.026C128.555 135.896 128.857 135.71 129.086 135.467C129.32 135.22 129.474 134.922 129.547 134.574C129.617 134.24 129.601 133.96 129.497 133.735C129.394 133.506 129.187 133.297 128.874 133.11C128.567 132.918 128.135 132.713 127.577 132.496C127.184 132.343 126.844 132.177 126.557 131.999C126.271 131.816 126.042 131.612 125.87 131.386C125.698 131.16 125.586 130.9 125.534 130.604C125.486 130.308 125.502 129.97 125.581 129.591C125.691 129.069 125.919 128.625 126.265 128.258C126.617 127.887 127.053 127.607 127.573 127.417C128.098 127.222 128.672 127.129 129.297 127.138C129.83 127.145 130.312 127.2 130.742 127.304C131.177 127.408 131.567 127.545 131.91 127.715L131.343 128.687C131.014 128.535 130.657 128.408 130.272 128.304C129.892 128.201 129.487 128.146 129.059 128.141C128.631 128.135 128.255 128.193 127.933 128.314C127.616 128.43 127.357 128.599 127.155 128.82C126.953 129.041 126.82 129.306 126.756 129.613C126.684 129.957 126.697 130.243 126.795 130.473C126.898 130.702 127.092 130.908 127.378 131.091C127.67 131.269 128.064 131.458 128.562 131.656C129.106 131.874 129.558 132.103 129.919 132.345C130.28 132.582 130.532 132.872 130.675 133.214C130.82 133.551 130.837 133.978 130.729 134.496ZM136.421 129.706C137.314 129.718 137.936 129.923 138.287 130.321C138.637 130.719 138.722 131.349 138.542 132.21L137.497 137.194L136.67 137.183L136.678 136.097L136.624 136.096C136.358 136.361 136.092 136.583 135.826 136.763C135.561 136.938 135.268 137.071 134.947 137.161C134.633 137.246 134.259 137.286 133.826 137.28C133.37 137.274 132.981 137.191 132.658 137.03C132.34 136.869 132.112 136.629 131.973 136.31C131.839 135.991 131.823 135.588 131.925 135.102C132.078 134.37 132.492 133.812 133.167 133.427C133.841 133.043 134.789 132.84 136.008 132.821L137.311 132.784L137.405 132.336C137.538 131.702 137.492 131.257 137.267 130.999C137.043 130.741 136.677 130.609 136.172 130.602C135.78 130.597 135.394 130.648 135.016 130.755C134.637 130.862 134.272 130.989 133.921 131.136L133.749 130.289C134.122 130.124 134.54 129.984 135.002 129.869C135.465 129.754 135.938 129.7 136.421 129.706ZM137.133 133.567L135.982 133.598C135.041 133.622 134.351 133.763 133.913 134.021C133.475 134.279 133.205 134.649 133.104 135.131C133.016 135.55 133.081 135.862 133.299 136.066C133.517 136.27 133.84 136.375 134.268 136.38C134.933 136.389 135.516 136.216 136.015 135.86C136.515 135.504 136.84 134.965 136.992 134.242L137.133 133.567ZM144.948 129.805C145.836 129.816 146.463 130.039 146.829 130.473C147.196 130.903 147.281 131.588 147.084 132.529L146.082 137.306L144.961 137.292L145.947 132.588C146.075 131.977 146.028 131.518 145.804 131.211C145.585 130.904 145.182 130.747 144.594 130.739C143.765 130.728 143.133 130.95 142.7 131.405C142.266 131.86 141.958 132.525 141.775 133.399L140.969 137.24L139.835 137.225L141.372 129.892L142.288 129.904L142.237 130.963L142.299 130.964C142.512 130.707 142.761 130.494 143.043 130.323C143.327 130.148 143.63 130.018 143.954 129.932C144.279 129.843 144.61 129.8 144.948 129.805ZM153.687 135.393C153.589 135.862 153.385 136.255 153.076 136.573C152.773 136.886 152.381 137.121 151.901 137.275C151.425 137.43 150.88 137.503 150.265 137.495C149.741 137.489 149.296 137.442 148.93 137.357C148.564 137.272 148.253 137.154 147.997 137.003L148.211 135.979C148.486 136.13 148.822 136.269 149.221 136.395C149.619 136.521 150.039 136.587 150.481 136.593C151.129 136.601 151.619 136.505 151.954 136.303C152.289 136.102 152.493 135.825 152.567 135.473C152.609 135.272 152.587 135.095 152.5 134.942C152.419 134.784 152.256 134.632 152.013 134.486C151.77 134.335 151.426 134.17 150.979 133.989C150.538 133.805 150.16 133.623 149.846 133.444C149.537 133.262 149.314 133.042 149.175 132.785C149.042 132.528 149.018 132.197 149.103 131.791C149.233 131.171 149.588 130.699 150.167 130.376C150.752 130.048 151.462 129.89 152.296 129.901C152.747 129.907 153.159 129.957 153.532 130.051C153.911 130.141 154.256 130.262 154.566 130.414L153.997 131.298C153.714 131.165 153.407 131.051 153.075 130.958C152.743 130.864 152.394 130.814 152.03 130.81C151.506 130.803 151.085 130.882 150.767 131.048C150.453 131.214 150.265 131.444 150.204 131.738C150.156 131.966 150.181 132.154 150.277 132.303C150.379 132.452 150.559 132.593 150.819 132.726C151.079 132.859 151.426 133.016 151.858 133.196C152.292 133.371 152.661 133.553 152.964 133.74C153.269 133.923 153.485 134.145 153.613 134.406C153.746 134.663 153.771 134.992 153.687 135.393Z" fill="#666666"/>
<path d="M176.537 133.73L172.38 137.062L169.638 133.64L168.373 134.654L171.949 139.117L177.372 134.772L176.537 133.73ZM177.338 129.913L174.596 126.492L170.438 129.823L169.604 128.782L175.027 124.436L178.603 128.9L177.338 129.913Z" fill="#666666"/>
<path d="M213.972 126.955L211.93 136.696L210.604 136.679L207.169 129.1L205.593 136.613L204.274 136.596L206.316 126.855L207.636 126.872L211.087 134.471L212.666 126.938L213.972 126.955ZM214.483 133.181L214.515 133.027C214.625 132.505 214.804 132.022 215.052 131.578C215.302 131.13 215.607 130.742 215.967 130.416C216.329 130.085 216.737 129.831 217.19 129.654C217.644 129.472 218.128 129.384 218.643 129.391C219.162 129.398 219.61 129.498 219.985 129.69C220.366 129.879 220.667 130.142 220.889 130.48C221.116 130.814 221.26 131.208 221.32 131.66C221.382 132.108 221.358 132.593 221.248 133.115L221.216 133.269C221.107 133.791 220.928 134.274 220.679 134.718C220.431 135.162 220.123 135.549 219.757 135.88C219.396 136.206 218.989 136.46 218.535 136.642C218.086 136.819 217.602 136.905 217.083 136.898C216.563 136.891 216.116 136.794 215.739 136.605C215.364 136.413 215.063 136.149 214.836 135.815C214.614 135.477 214.473 135.084 214.411 134.636C214.35 134.188 214.374 133.703 214.483 133.181ZM215.78 133.043L215.748 133.197C215.672 133.559 215.644 133.9 215.663 134.223C215.683 134.541 215.754 134.823 215.876 135.071C216.002 135.318 216.182 135.515 216.417 135.662C216.652 135.803 216.945 135.876 217.296 135.881C217.642 135.886 217.96 135.82 218.249 135.686C218.543 135.546 218.802 135.355 219.027 135.112C219.252 134.869 219.44 134.59 219.593 134.274C219.752 133.954 219.869 133.614 219.945 133.252L219.977 133.098C220.052 132.742 220.077 132.404 220.052 132.086C220.033 131.764 219.96 131.479 219.834 131.231C219.713 130.979 219.535 130.78 219.301 130.634C219.071 130.488 218.781 130.413 218.43 130.408C218.083 130.404 217.763 130.471 217.469 130.61C217.179 130.749 216.919 130.943 216.689 131.19C216.465 131.433 216.275 131.715 216.122 132.035C215.969 132.35 215.855 132.687 215.78 133.043ZM224.603 130.744L223.324 136.846L222.06 136.829L223.577 129.59L224.808 129.606L224.603 130.744ZM227.161 129.597L226.913 130.747C226.812 130.724 226.715 130.709 226.62 130.703C226.531 130.693 226.427 130.687 226.309 130.686C226.017 130.682 225.75 130.723 225.508 130.809C225.266 130.896 225.051 131.018 224.862 131.177C224.674 131.335 224.51 131.525 224.373 131.747C224.24 131.965 224.133 132.205 224.05 132.467L223.653 132.664C223.744 132.226 223.874 131.817 224.041 131.434C224.212 131.052 224.422 130.715 224.671 130.423C224.92 130.126 225.206 129.897 225.528 129.736C225.855 129.57 226.219 129.49 226.62 129.496C226.711 129.497 226.813 129.509 226.927 129.533C227.042 129.552 227.12 129.574 227.161 129.597ZM229.277 131.107L228.061 136.908L226.79 136.891L228.307 129.652L229.51 129.668L229.277 131.107ZM228.618 133.01L228.034 132.983C228.142 132.487 228.304 132.031 228.52 131.614C228.736 131.191 229.003 130.826 229.319 130.517C229.635 130.208 229.997 129.971 230.407 129.807C230.817 129.638 231.268 129.556 231.76 129.563C232.106 129.567 232.415 129.621 232.686 129.723C232.958 129.82 233.18 129.973 233.351 130.181C233.522 130.389 233.633 130.654 233.684 130.977C233.735 131.299 233.713 131.688 233.618 132.143L232.607 136.967L231.342 136.95L232.341 132.187C232.42 131.808 232.418 131.504 232.333 131.274C232.253 131.045 232.106 130.878 231.89 130.772C231.676 130.662 231.409 130.605 231.09 130.601C230.716 130.596 230.391 130.656 230.113 130.782C229.835 130.908 229.597 131.084 229.399 131.31C229.201 131.535 229.037 131.795 228.907 132.088C228.782 132.377 228.686 132.685 228.618 133.01ZM233.552 132.391L232.652 132.634C232.739 132.237 232.885 131.856 233.09 131.492C233.298 131.128 233.556 130.805 233.862 130.523C234.172 130.241 234.527 130.019 234.926 129.859C235.326 129.694 235.761 129.615 236.23 129.621C236.627 129.627 236.967 129.682 237.251 129.789C237.539 129.896 237.766 130.057 237.93 130.274C238.101 130.487 238.206 130.759 238.246 131.09C238.286 131.422 238.259 131.815 238.163 132.27L237.166 137.027L235.895 137.01L236.895 132.24C236.98 131.834 236.98 131.519 236.894 131.294C236.814 131.065 236.665 130.904 236.447 130.812C236.234 130.715 235.966 130.664 235.642 130.66C235.364 130.657 235.109 130.7 234.875 130.791C234.641 130.882 234.434 131.009 234.253 131.172C234.074 131.331 233.923 131.514 233.802 131.723C233.685 131.932 233.602 132.154 233.552 132.391ZM243.7 135.871L244.481 132.145C244.541 131.859 244.534 131.611 244.459 131.4C244.39 131.184 244.252 131.017 244.044 130.898C243.836 130.779 243.561 130.717 243.219 130.712C242.9 130.708 242.609 130.758 242.345 130.862C242.085 130.966 241.869 131.104 241.696 131.276C241.527 131.448 241.422 131.635 241.38 131.836L240.115 131.819C240.169 131.56 240.291 131.305 240.481 131.052C240.671 130.8 240.916 130.573 241.214 130.371C241.517 130.165 241.862 130.004 242.247 129.888C242.638 129.768 243.057 129.711 243.503 129.717C244.041 129.724 244.496 129.819 244.869 130.003C245.246 130.187 245.513 130.461 245.67 130.825C245.832 131.185 245.856 131.635 245.743 132.174L245.036 135.546C244.986 135.787 244.953 136.044 244.937 136.317C244.925 136.589 244.942 136.824 244.987 137.022L244.965 137.129L243.646 137.112C243.612 136.968 243.602 136.778 243.615 136.541C243.629 136.3 243.657 136.076 243.7 135.871ZM244.58 132.723L244.411 133.593L243.133 133.576C242.773 133.571 242.445 133.596 242.151 133.65C241.857 133.7 241.603 133.78 241.388 133.889C241.173 133.998 240.998 134.136 240.862 134.304C240.727 134.468 240.636 134.661 240.59 134.884C240.542 135.112 240.551 135.32 240.616 135.509C240.682 135.697 240.808 135.849 240.994 135.963C241.186 136.073 241.437 136.13 241.747 136.134C242.134 136.139 242.492 136.063 242.822 135.907C243.152 135.75 243.428 135.557 243.65 135.327C243.876 135.097 244.019 134.873 244.079 134.655L244.494 135.258C244.423 135.445 244.292 135.651 244.104 135.876C243.915 136.102 243.68 136.318 243.399 136.525C243.123 136.727 242.809 136.895 242.457 137.029C242.11 137.159 241.736 137.221 241.335 137.215C240.833 137.209 240.414 137.107 240.076 136.911C239.742 136.714 239.504 136.454 239.362 136.13C239.225 135.801 239.199 135.437 239.283 135.035C239.365 134.647 239.514 134.307 239.73 134.014C239.948 133.718 240.223 133.473 240.556 133.281C240.89 133.084 241.272 132.937 241.704 132.839C242.135 132.742 242.604 132.697 243.11 132.704L244.58 132.723ZM250.223 126.893L248.068 137.169L246.797 137.153L248.951 126.876L250.223 126.893Z" fill="#666666"/>
<path d="M283.493 135.621L279.335 138.953L276.593 135.531L275.328 136.545L278.904 141.008L284.327 136.663L283.493 135.621ZM284.293 131.804L281.551 128.383L277.393 131.714L276.559 130.673L281.982 126.327L285.558 130.79L284.293 131.804Z" fill="#666666"/>
<path d="M331.823 135.246C332.236 135.032 332.609 134.736 332.912 134.382C333.214 134.028 333.439 133.626 333.567 133.208C333.653 132.829 333.663 132.451 333.595 132.097C333.527 131.743 333.383 131.418 333.171 131.142C332.96 130.866 332.684 130.643 332.361 130.487C332.038 130.332 331.673 130.245 331.287 130.234L326.42 130.17L324.266 140.446L329.515 140.515C329.885 140.516 330.264 140.446 330.633 140.309C331.001 140.172 331.351 139.97 331.663 139.716C331.975 139.462 332.242 139.16 332.449 138.827C332.657 138.494 332.8 138.137 332.872 137.777L332.89 137.689C332.997 137.18 332.954 136.68 332.765 136.247C332.576 135.815 332.249 135.467 331.823 135.246V135.246ZM327.612 131.658L330.762 131.699C331.084 131.693 331.381 131.784 331.613 131.958C331.845 132.132 332.002 132.381 332.062 132.673C332.103 133.062 331.976 133.48 331.708 133.837C331.44 134.193 331.054 134.459 330.633 134.575C330.47 134.617 330.306 134.637 330.147 134.635L326.997 134.594L327.612 131.658ZM329.523 139.043L326.074 138.998L326.689 136.062L330.139 136.107C330.46 136.101 330.757 136.192 330.99 136.366C331.222 136.54 331.379 136.789 331.439 137.081C331.48 137.47 331.352 137.888 331.084 138.245C330.817 138.601 330.43 138.867 330.01 138.983C329.847 139.025 329.683 139.045 329.523 139.043V139.043Z" fill="#666666"/>
<path d="M357.635 133.523L359.134 133.542L355.946 140.861L354.446 140.842L357.635 133.523ZM359.51 130.603C359.362 130.601 359.208 130.642 359.067 130.721C358.927 130.8 358.807 130.914 358.722 131.047C358.637 131.18 358.591 131.328 358.591 131.471C358.59 131.613 358.634 131.745 358.717 131.849C358.8 131.953 358.919 132.025 359.059 132.055C359.198 132.085 359.352 132.073 359.501 132.019C359.65 131.965 359.786 131.873 359.894 131.753C360.002 131.633 360.076 131.492 360.106 131.347C360.147 131.152 360.107 130.964 359.995 130.825C359.883 130.685 359.709 130.606 359.51 130.603Z" fill="#666666"/>
<path d="M389.369 142.035L389.061 143.503L378.562 143.365L378.87 141.897L389.369 142.035ZM388.163 137.025C388.037 137.509 387.791 137.978 387.448 138.39C387.105 138.802 386.675 139.144 386.197 139.386C385.719 139.627 385.207 139.761 384.708 139.775C384.208 139.788 383.737 139.682 383.335 139.464C382.867 139.24 382.507 138.871 382.302 138.406C382.097 137.94 382.056 137.399 382.184 136.851L383.427 130.92L381.927 130.9L380.664 136.927C380.544 137.618 380.594 138.296 380.809 138.906C381.024 139.515 381.397 140.04 381.9 140.436C382.403 140.833 383.02 141.09 383.702 141.188C384.384 141.285 385.112 141.221 385.826 140.998C386.773 140.721 387.658 140.173 388.354 139.434C389.05 138.695 389.52 137.804 389.695 136.89L390.926 131.018L389.427 130.998L388.163 137.025ZM389.427 130.995L390.927 131.014L389.427 130.995ZM383.428 130.916L381.928 130.896L383.428 130.916Z" fill="#666666"/>
<path d="M407.307 136.58L425.305 136.816L424.998 138.284L420.632 138.227C420.767 138.717 420.775 139.251 420.655 139.79C420.562 140.302 420.343 140.808 420.018 141.265C419.693 141.722 419.27 142.116 418.787 142.415C417.629 143.099 416.337 143.429 415.114 143.353C414.21 143.347 413.354 143.156 412.602 142.791C411.911 142.475 411.362 141.962 411.014 141.31C410.699 140.687 410.62 139.946 410.787 139.192L410.81 139.081L411.097 139.084L411.097 139.083L411.439 139.088L411.438 139.089L412.813 139.107L412.79 139.218C412.702 139.562 412.7 139.905 412.783 140.219C412.867 140.533 413.033 140.808 413.268 141.021C413.847 141.502 414.618 141.747 415.457 141.716C416.18 141.773 416.949 141.594 417.646 141.209C417.908 141.047 418.137 140.832 418.312 140.583C418.486 140.335 418.602 140.06 418.648 139.782C418.72 139.515 418.726 139.247 418.664 139.001C418.603 138.755 418.476 138.538 418.295 138.37C418.22 138.306 418.14 138.247 418.057 138.193L406.999 138.048L407.307 136.58ZM421.706 131.721C421.419 131.075 420.93 130.554 420.295 130.217C419.588 129.841 418.766 129.647 417.895 129.65C416.694 129.583 415.427 129.936 414.314 130.645C413.835 130.952 413.418 131.349 413.095 131.806C412.772 132.263 412.551 132.766 412.451 133.277C412.346 133.761 412.356 134.24 412.48 134.679L415.076 134.713C415.004 134.659 414.913 134.607 414.857 134.552C414.684 134.403 414.559 134.209 414.492 133.986C414.425 133.763 414.418 133.518 414.471 133.271C414.515 132.988 414.629 132.707 414.802 132.451C414.976 132.196 415.205 131.973 415.469 131.801C416.127 131.418 416.86 131.237 417.552 131.286C418.322 131.249 419.025 131.492 419.52 131.968C419.721 132.201 419.857 132.482 419.919 132.793C419.981 133.105 419.968 133.439 419.88 133.772L419.857 133.883L421.86 133.909L421.883 133.798C422.04 133.065 421.979 132.344 421.706 131.721V131.721Z" fill="#666666"/>
<g filter="url(#filter3_d_5_385)">
<rect width="147.23" height="45.0523" rx="7" transform="matrix(0.999914 0.0130896 -0.205179 0.978724 213.361 31.7271)" fill="white"/>
</g>
<g clip-path="url(#clip0_5_385)">
<mask id="mask0_5_385" style="mask-type:alpha" maskUnits="userSpaceOnUse" x="217" y="40" width="29" height="28">
<path d="M245.207 54.2513C246.787 46.7137 241.826 40.5215 234.125 40.4207C226.424 40.3199 218.9 46.3486 217.32 53.8863C215.74 61.4239 220.702 67.6161 228.402 67.7169C236.103 67.8177 243.627 61.789 245.207 54.2513Z" fill="white"/>
</mask>
<g mask="url(#mask0_5_385)">
<path d="M230.639 40.3751L227.153 40.3295L226.438 43.7415L229.923 43.7871L230.639 40.3751Z" fill="#D6E9FB"/>
<path d="M237.611 40.4663L234.125 40.4207L233.409 43.8327L236.895 43.8784L237.611 40.4663Z" fill="#D6E9FB"/>
<path d="M244.582 40.5576L241.096 40.512L240.381 43.924L243.867 43.9696L244.582 40.5576Z" fill="#D6E9FB"/>
<path d="M227.153 40.3294L223.667 40.2838L222.952 43.6958L226.438 43.7415L227.153 40.3294Z" fill="#D6E9FB"/>
<path d="M234.125 40.4207L230.639 40.3751L229.923 43.7871L233.409 43.8327L234.125 40.4207Z" fill="#405059"/>
<path d="M241.096 40.512L237.611 40.4663L236.895 43.8784L240.381 43.924L241.096 40.512Z" fill="#D6E9FB"/>
<path d="M248.068 40.6033L244.582 40.5576L243.867 43.9696L247.353 44.0153L248.068 40.6033Z" fill="#405059"/>
<path d="M222.952 43.6958L219.466 43.6502L218.751 47.0622L222.236 47.1079L222.952 43.6958Z" fill="#405059"/>
<path d="M222.236 47.1079L218.751 47.0622L218.035 50.4742L221.521 50.5199L222.236 47.1079Z" fill="#D6E9FB"/>
<path d="M221.521 50.5199L218.035 50.4742L217.32 53.8863L220.806 53.9319L221.521 50.5199Z" fill="#405059"/>
<path d="M220.806 53.9319L217.32 53.8863L216.605 57.2983L220.091 57.3439L220.806 53.9319Z" fill="#5AEDE4"/>
<path d="M220.091 57.3439L216.605 57.2983L215.889 60.7103L219.375 60.7559L220.091 57.3439Z" fill="#D6E9FB"/>
<path d="M219.375 60.7559L215.889 60.7103L215.174 64.1223L218.66 64.168L219.375 60.7559Z" fill="#C298F8"/>
<path d="M218.66 64.168L215.174 64.1223L214.459 67.5344L217.945 67.58L218.66 64.168Z" fill="#405059"/>
<path d="M229.924 43.7871L226.438 43.7415L225.722 47.1535L229.208 47.1991L229.924 43.7871Z" fill="#405059"/>
<path d="M229.208 47.1991L225.722 47.1535L225.007 50.5655L228.493 50.6112L229.208 47.1991Z" fill="#C298F8"/>
<path d="M228.493 50.6112L225.007 50.5655L224.292 53.9775L227.778 54.0232L228.493 50.6112Z" fill="#5AEDE4"/>
<path d="M227.778 54.0232L224.292 53.9775L223.576 57.3896L227.062 57.4352L227.778 54.0232Z" fill="#D6E9FB"/>
<path d="M227.062 57.4352L223.576 57.3896L222.861 60.8016L226.347 60.8472L227.062 57.4352Z" fill="#4CA9FF"/>
<path d="M226.347 60.8472L222.861 60.8016L222.146 64.2136L225.632 64.2592L226.347 60.8472Z" fill="#405059"/>
<path d="M225.632 64.2592L222.146 64.2136L221.431 67.6256L224.916 67.6712L225.632 64.2592Z" fill="#4CA9FF"/>
<path d="M236.895 43.8784L233.409 43.8327L232.694 47.2448L236.18 47.2904L236.895 43.8784Z" fill="#C298F8"/>
<path d="M236.18 47.2904L232.694 47.2448L231.979 50.6568L235.465 50.7024L236.18 47.2904Z" fill="#C298F8"/>
<path d="M235.465 50.7024L231.979 50.6568L231.264 54.0688L234.749 54.1144L235.465 50.7024Z" fill="#C298F8"/>
<path d="M234.749 54.1144L231.264 54.0688L230.548 57.4808L234.034 57.5265L234.749 54.1144Z" fill="#405059"/>
<path d="M234.034 57.5265L230.548 57.4808L229.833 60.8929L233.319 60.9385L234.034 57.5265Z" fill="#D6E9FB"/>
<path d="M233.319 60.9385L229.833 60.8929L229.118 64.3049L232.604 64.3505L233.319 60.9385Z" fill="#D6E9FB"/>
<path d="M232.604 64.3505L229.118 64.3049L228.402 67.7169L231.888 67.7625L232.604 64.3505Z" fill="#405059"/>
<path d="M243.867 43.9696L240.381 43.924L239.666 47.336L243.152 47.3817L243.867 43.9696Z" fill="#D6E9FB"/>
<path d="M243.152 47.3817L239.666 47.336L238.951 50.748L242.436 50.7937L243.152 47.3817Z" fill="#405059"/>
<path d="M242.436 50.7937L238.951 50.748L238.235 54.1601L241.721 54.2057L242.436 50.7937Z" fill="#405059"/>
<path d="M241.721 54.2057L238.235 54.1601L237.52 57.5721L241.006 57.6177L241.721 54.2057Z" fill="#4CA9FF"/>
<path d="M241.006 57.6177L237.52 57.5721L236.805 60.9841L240.291 61.0297L241.006 57.6177Z" fill="#C298F8"/>
<path d="M240.291 61.0297L236.805 60.9841L236.089 64.3961L239.575 64.4418L240.291 61.0297Z" fill="#4CA9FF"/>
<path d="M239.575 64.4418L236.089 64.3961L235.374 67.8081L238.86 67.8538L239.575 64.4418Z" fill="#405059"/>
<path d="M226.438 43.7415L222.952 43.6958L222.236 47.1079L225.722 47.1535L226.438 43.7415Z" fill="#D6E9FB"/>
<path d="M225.722 47.1535L222.236 47.1078L221.521 50.5199L225.007 50.5655L225.722 47.1535Z" fill="#4CA9FF"/>
<path d="M225.007 50.5655L221.521 50.5199L220.806 53.9319L224.292 53.9776L225.007 50.5655Z" fill="#4CA9FF"/>
<path d="M224.292 53.9775L220.806 53.9319L220.091 57.3439L223.576 57.3896L224.292 53.9775Z" fill="#4CA9FF"/>
<path d="M223.576 57.3896L220.091 57.3439L219.375 60.756L222.861 60.8016L223.576 57.3896Z" fill="#405059"/>
<path d="M222.861 60.8016L219.375 60.756L218.66 64.168L222.146 64.2136L222.861 60.8016Z" fill="#405059"/>
<path d="M222.146 64.2136L218.66 64.168L217.945 67.58L221.431 67.6256L222.146 64.2136Z" fill="#4CA9FF"/>
<path d="M233.409 43.8327L229.923 43.7871L229.208 47.1991L232.694 47.2448L233.409 43.8327Z" fill="#5AEDE4"/>
<path d="M232.694 47.2448L229.208 47.1991L228.493 50.6111L231.979 50.6568L232.694 47.2448Z" fill="#C298F8"/>
<path d="M231.979 50.6568L228.493 50.6111L227.778 54.0232L231.264 54.0688L231.979 50.6568Z" fill="#405059"/>
<path d="M231.264 54.0688L227.778 54.0232L227.062 57.4352L230.548 57.4808L231.264 54.0688Z" fill="#D6E9FB"/>
<path d="M230.548 57.4808L227.062 57.4352L226.347 60.8472L229.833 60.8928L230.548 57.4808Z" fill="#D6E9FB"/>
<path d="M229.833 60.8928L226.347 60.8472L225.632 64.2592L229.118 64.3049L229.833 60.8928Z" fill="#C298F8"/>
<path d="M229.118 64.3048L225.632 64.2592L224.916 67.6712L228.402 67.7169L229.118 64.3048Z" fill="#C298F8"/>
<path d="M240.381 43.924L236.895 43.8784L236.18 47.2904L239.666 47.336L240.381 43.924Z" fill="#405059"/>
<path d="M239.666 47.336L236.18 47.2904L235.465 50.7024L238.951 50.7481L239.666 47.336Z" fill="#4CA9FF"/>
<path d="M238.951 50.7481L235.465 50.7024L234.749 54.1144L238.235 54.1601L238.951 50.7481Z" fill="#D6E9FB"/>
<path d="M238.235 54.1601L234.749 54.1144L234.034 57.5265L237.52 57.5721L238.235 54.1601Z" fill="#D6E9FB"/>
<path d="M237.52 57.5721L234.034 57.5265L233.319 60.9385L236.805 60.9841L237.52 57.5721Z" fill="#D6E9FB"/>
<path d="M236.805 60.9841L233.319 60.9385L232.604 64.3505L236.089 64.3961L236.805 60.9841Z" fill="#405059"/>
<path d="M236.089 64.3961L232.604 64.3505L231.888 67.7625L235.374 67.8081L236.089 64.3961Z" fill="#405059"/>
<path d="M247.353 44.0153L243.867 43.9696L243.152 47.3817L246.638 47.4273L247.353 44.0153Z" fill="#C298F8"/>
<path d="M246.638 47.4273L243.152 47.3817L242.436 50.7937L245.922 50.8393L246.638 47.4273Z" fill="#405059"/>
<path d="M245.922 50.8393L242.436 50.7937L241.721 54.2057L245.207 54.2513L245.922 50.8393Z" fill="#5AEDE4"/>
<path d="M245.207 54.2513L241.721 54.2057L241.006 57.6177L244.492 57.6633L245.207 54.2513Z" fill="#405059"/>
<path d="M244.492 57.6633L241.006 57.6177L240.291 61.0297L243.776 61.0754L244.492 57.6633Z" fill="#D6E9FB"/>
<path d="M243.777 61.0754L240.291 61.0298L239.575 64.4418L243.061 64.4874L243.777 61.0754Z" fill="#405059"/>
<path d="M243.061 64.4874L239.575 64.4418L238.86 67.8538L242.346 67.8994L243.061 64.4874Z" fill="#4CA9FF"/>
</g>
</g>
<path d="M264.533 50.6995C264.95 50.7082 265.351 50.7915 265.737 50.9495C266.123 51.1074 266.451 51.3654 266.721 51.7235C266.992 52.0783 267.169 52.5604 267.25 53.1698C267.332 53.7791 267.277 54.5412 267.085 55.4559C266.9 56.3415 266.649 57.127 266.332 57.8125C266.02 58.4947 265.653 59.0689 265.233 59.5351C264.816 60.0013 264.354 60.353 263.845 60.5903C263.34 60.8277 262.801 60.9426 262.228 60.9351C261.658 60.9276 261.172 60.8107 260.771 60.5842C260.374 60.3546 260.074 60.04 259.872 59.6405C259.674 59.2379 259.591 58.7732 259.621 58.2467L260.834 58.2626C260.848 58.7214 260.985 59.1021 261.248 59.4048C261.514 59.7043 261.915 59.8576 262.452 59.8646C263.238 59.8749 263.928 59.5473 264.523 58.8817C265.121 58.2162 265.548 57.2704 265.805 56.0442L265.726 56.0432C265.483 56.3132 265.214 56.5455 264.917 56.74C264.62 56.9346 264.305 57.0833 263.971 57.1863C263.637 57.2893 263.294 57.3385 262.943 57.3339C262.36 57.3262 261.854 57.1781 261.426 56.8895C261.002 56.5977 260.696 56.2018 260.509 55.7016C260.325 55.1983 260.301 54.6255 260.435 53.9832C260.563 53.3734 260.819 52.8172 261.204 52.3148C261.592 51.8092 262.072 51.4089 262.642 51.1139C263.215 50.8189 263.846 50.6807 264.533 50.6995ZM264.309 51.77C263.891 51.7645 263.494 51.8618 263.116 52.0617C262.742 52.2585 262.422 52.5276 262.154 52.8689C261.891 53.2069 261.715 53.5836 261.628 53.9988C261.541 54.414 261.555 54.7932 261.669 55.1362C261.787 55.476 261.988 55.7486 262.27 55.954C262.557 56.1562 262.909 56.26 263.326 56.2655C263.641 56.2696 263.947 56.2134 264.244 56.097C264.542 55.9772 264.814 55.8133 265.06 55.6051C265.31 55.3937 265.522 55.1541 265.694 54.8864C265.867 54.6154 265.985 54.3323 266.047 54.0371C266.128 53.6479 266.109 53.2817 265.988 52.9386C265.87 52.5955 265.666 52.3163 265.376 52.1011C265.089 51.8859 264.733 51.7755 264.309 51.77ZM270.999 61.0694C270.31 61.0604 269.739 60.8919 269.286 60.564C268.836 60.236 268.526 59.7815 268.355 59.2003C268.188 58.6191 268.185 57.9425 268.347 57.1704C268.51 56.3919 268.797 55.7142 269.207 55.1373C269.62 54.5605 270.119 54.1149 270.704 53.8005C271.291 53.4861 271.93 53.3335 272.619 53.3425C273.308 53.3515 273.878 53.52 274.328 53.8479C274.781 54.1759 275.09 54.6321 275.257 55.2165C275.427 55.801 275.43 56.4825 275.267 57.261C275.105 58.033 274.818 58.7059 274.405 59.2794C273.996 59.8531 273.497 60.2971 272.91 60.6114C272.325 60.9258 271.689 61.0785 270.999 61.0694ZM271.215 60.0379C271.739 60.0447 272.197 59.919 272.591 59.6607C272.984 59.4023 273.306 59.0601 273.558 58.6341C273.811 58.208 273.989 57.7452 274.094 57.2456C274.199 56.7461 274.215 56.2795 274.143 55.846C274.071 55.4124 273.894 55.0604 273.612 54.79C273.329 54.5196 272.926 54.3809 272.403 54.3741C271.879 54.3672 271.42 54.4946 271.027 54.7561C270.633 55.0177 270.31 55.3632 270.057 55.7925C269.804 56.2218 269.625 56.6862 269.52 57.1858C269.416 57.6853 269.4 58.1503 269.472 58.5806C269.545 59.0109 269.723 59.3596 270.006 59.6268C270.289 59.894 270.692 60.031 271.215 60.0379ZM277.849 53.5086L279.023 53.5239L277.342 61.5428C277.245 62.0034 277.08 62.4014 276.847 62.7366C276.617 63.0719 276.321 63.3298 275.957 63.5105C275.597 63.6912 275.171 63.7783 274.681 63.7719C274.641 63.7714 274.601 63.7709 274.562 63.7703C274.522 63.7698 274.482 63.7693 274.442 63.7688L274.667 62.6983C274.706 62.6988 274.743 62.6993 274.776 62.6997C274.809 62.7002 274.846 62.7006 274.885 62.7012C275.243 62.7058 275.527 62.6055 275.736 62.4C275.945 62.1978 276.089 61.907 276.168 61.5274L277.849 53.5086ZM278.687 52.2705C278.459 52.2675 278.277 52.1887 278.144 52.034C278.013 51.8794 277.97 51.6951 278.015 51.481C278.06 51.2669 278.18 51.0847 278.374 50.9344C278.572 50.7841 278.785 50.7104 279.014 50.7134C279.242 50.7164 279.422 50.7952 279.552 50.9498C279.686 51.1044 279.73 51.2888 279.686 51.5029C279.641 51.717 279.519 51.8992 279.322 52.0494C279.127 52.1998 278.916 52.2735 278.687 52.2705ZM279.764 61.028L281.853 51.0628L283.086 51.079L282.155 55.5166L287.584 55.5877L288.514 51.15L289.747 51.1662L287.658 61.1314L286.425 61.1152L287.359 56.6581L281.931 56.5871L280.997 61.0442L279.764 61.028ZM290.806 61.2506C290.56 61.2474 290.368 61.1587 290.228 60.9845C290.089 60.8103 290.044 60.6031 290.095 60.3631C290.145 60.123 290.276 59.9182 290.488 59.7486C290.699 59.5789 290.928 59.4957 291.173 59.4989C291.418 59.5022 291.611 59.5909 291.75 59.7651C291.89 59.9393 291.934 60.1465 291.884 60.3865C291.851 60.5455 291.779 60.6909 291.668 60.8228C291.561 60.9548 291.43 61.0604 291.278 61.1397C291.129 61.2158 290.971 61.2528 290.806 61.2506ZM294.624 61.3006C294.378 61.2974 294.186 61.2087 294.046 61.0345C293.907 60.8602 293.862 60.6531 293.912 60.4131C293.963 60.173 294.094 59.9682 294.305 59.7986C294.517 59.6289 294.746 59.5457 294.991 59.5489C295.236 59.5521 295.428 59.6409 295.568 59.8151C295.708 59.9893 295.752 60.1964 295.702 60.4365C295.669 60.5954 295.597 60.7409 295.486 60.8728C295.378 61.0047 295.248 61.1104 295.095 61.1897C294.947 61.2658 294.789 61.3028 294.624 61.3006ZM298.441 61.3506C298.196 61.3474 298.004 61.2587 297.864 61.0844C297.725 60.9102 297.68 60.7031 297.73 60.463C297.781 60.223 297.912 60.0182 298.123 59.8485C298.335 59.6789 298.563 59.5957 298.809 59.5989C299.054 59.6021 299.246 59.6908 299.386 59.8651C299.526 60.0393 299.57 60.2464 299.52 60.4865C299.487 60.6454 299.414 60.7908 299.304 60.9228C299.196 61.0547 299.066 61.1604 298.913 61.2397C298.764 61.3158 298.607 61.3528 298.441 61.3506ZM303.712 51.349L305.184 51.3683L306.909 59.6854L307.029 59.687L312.223 51.4604L313.694 51.4797L311.605 61.4449L310.452 61.4298L312.039 53.8585L311.94 53.8572L307.171 61.3868L306.057 61.3722L304.463 53.7594L304.364 53.7581L302.776 61.3293L301.623 61.3142L303.712 51.349ZM316.36 54.0127L317.549 57.0924L320.019 54.0606L321.371 54.0783L318.122 57.783L319.804 61.5522L318.452 61.5345L317.23 58.6105L314.793 61.4866L313.441 61.4689L316.65 57.7637L315.008 53.995L316.36 54.0127ZM324.144 51.6165L325.408 60.0447L325.527 60.0463L330.308 51.6971L331.6 51.7141L325.773 61.6303L324.5 61.6137L322.851 51.5995L324.144 51.6165ZM333.38 54.2355L334.569 57.3152L337.039 54.2834L338.391 54.3011L335.142 58.0058L336.824 61.775L335.472 61.7573L334.25 58.8333L331.813 61.7094L330.461 61.6917L333.67 57.9865L332.028 54.2178L333.38 54.2355Z" fill="#6C6C6C"/>
<path d="M298.263 386.031L294.453 404.207C293.093 410.693 297.363 416.022 303.989 416.108L497.189 418.638C503.816 418.724 510.291 413.536 511.65 407.05L558.269 184.678" stroke="#E6E6E6"/>
<rect width="37.5436" height="10.7267" rx="3" transform="matrix(0.999914 0.0130896 -0.205179 0.978724 356.153 412.58)" fill="#D1D1D1"/>
<rect width="37.5436" height="10.7267" rx="3" transform="matrix(0.999914 0.0130896 -0.205179 0.978724 439.815 413.676)" fill="#D1D1D1"/>
<rect width="37.5436" height="10.7267" rx="3" transform="matrix(-0.205179 0.978724 -0.999914 -0.0130896 539.077 304.438)" fill="#D1D1D1"/>
<g filter="url(#filter4_d_5_385)">
<rect width="109.413" height="40.7616" rx="7" transform="matrix(0.999914 0.0130896 -0.205179 0.978724 427.658 35.5851)" fill="#597EFF"/>
</g>
<path d="M452.186 60.1733L454.276 50.2081L458.292 50.2607C459.064 50.2708 459.692 50.4237 460.175 50.7195C460.659 51.0121 460.99 51.4149 461.168 51.9279C461.35 52.4378 461.372 53.0235 461.233 53.6853C461.094 54.347 460.826 54.929 460.428 55.4313C460.031 55.9335 459.526 56.3221 458.913 56.5971C458.304 56.8721 457.608 57.0045 456.826 56.9942L454.266 56.9607L454.62 55.2723L456.832 55.3012C457.246 55.3067 457.602 55.2414 457.9 55.1054C458.201 54.9662 458.445 54.7726 458.63 54.5246C458.818 54.2733 458.947 53.9839 459.016 53.6563C459.085 53.3254 459.078 53.0358 458.994 52.7875C458.914 52.536 458.752 52.3403 458.509 52.2005C458.266 52.0575 457.936 51.9832 457.518 51.9778L456.067 51.9587L454.339 60.2014L452.186 60.1733ZM466.774 57.1732L467.674 52.8816L469.791 52.9093L468.225 60.3832L466.191 60.3566L466.476 58.999L466.396 58.998C466.132 59.4337 465.772 59.7819 465.315 60.0426C464.862 60.3034 464.348 60.4301 463.775 60.4225C463.265 60.4159 462.839 60.2965 462.499 60.0643C462.159 59.8322 461.923 59.5054 461.792 59.0841C461.665 58.6628 461.66 58.1602 461.78 57.5763L462.777 52.8175L464.895 52.8452L463.975 57.2342C463.886 57.6754 463.933 58.0257 464.118 58.2851C464.303 58.5445 464.596 58.6768 464.997 58.682C465.252 58.6854 465.503 58.6317 465.749 58.5211C465.995 58.4072 466.21 58.2377 466.394 58.0124C466.581 57.7871 466.707 57.5074 466.774 57.1732ZM469.958 60.4059L472.047 50.4407L474.165 50.4684L473.38 54.2151L473.444 54.216C473.579 54.0161 473.756 53.8135 473.975 53.6081C474.199 53.3996 474.467 53.2275 474.782 53.0917C475.1 52.9528 475.473 52.8861 475.9 52.8917C476.457 52.899 476.941 53.0485 477.352 53.3401C477.763 53.6285 478.05 54.0599 478.212 54.6346C478.374 55.2059 478.366 55.9198 478.186 56.7762C478.012 57.6099 477.727 58.312 477.331 58.8825C476.94 59.4499 476.478 59.8781 475.945 60.1671C475.417 60.453 474.863 60.5921 474.283 60.5845C473.872 60.5791 473.536 60.508 473.275 60.3713C473.018 60.2345 472.82 60.0644 472.68 59.8609C472.54 59.6542 472.444 59.4464 472.392 59.2375L472.297 59.2363L472.046 60.4332L469.958 60.4059ZM472.815 56.6961C472.722 57.1405 472.703 57.529 472.76 57.8615C472.816 58.194 472.945 58.4543 473.144 58.6423C473.345 58.8271 473.616 58.9217 473.957 58.9262C474.302 58.9307 474.613 58.8421 474.89 58.6603C475.168 58.4753 475.403 58.2181 475.595 57.8889C475.791 57.5564 475.935 57.1728 476.026 56.7381C476.117 56.3067 476.135 55.9264 476.081 55.5971C476.027 55.2679 475.9 55.0093 475.7 54.8212C475.5 54.6332 475.226 54.5369 474.878 54.5324C474.534 54.5279 474.223 54.6132 473.947 54.7885C473.675 54.9639 473.441 55.2145 473.246 55.5405C473.052 55.8665 472.908 56.2517 472.815 56.6961ZM483.025 50.5844L480.936 60.5496L478.818 60.5219L480.907 50.5567L483.025 50.5844ZM482.632 60.5718L484.199 53.0979L486.317 53.1257L484.75 60.5995L482.632 60.5718ZM485.465 52.1484C485.15 52.1443 484.901 52.0386 484.719 51.8313C484.54 51.6208 484.481 51.3711 484.542 51.0824C484.602 50.797 484.764 50.5535 485.029 50.3521C485.298 50.1474 485.59 50.0471 485.905 50.0513C486.219 50.0554 486.466 50.1627 486.645 50.3732C486.827 50.5805 486.888 50.8269 486.829 51.1124C486.768 51.4011 486.603 51.6478 486.335 51.8524C486.07 52.0539 485.78 52.1525 485.465 52.1484ZM493.92 55.3623L491.956 55.4537C491.957 55.291 491.917 55.1441 491.834 55.0129C491.753 54.8785 491.631 54.7712 491.468 54.691C491.31 54.6076 491.108 54.5643 490.862 54.5611C490.534 54.5568 490.243 54.6213 489.989 54.7546C489.736 54.8846 489.586 55.0616 489.539 55.2854C489.502 55.4638 489.543 55.6156 489.663 55.7408C489.783 55.866 490.012 55.9682 490.351 56.0474L491.676 56.338C492.387 56.4969 492.89 56.7442 493.186 57.0799C493.481 57.4155 493.572 57.8526 493.459 58.3911C493.356 58.8809 493.119 59.3088 492.746 59.6747C492.377 60.0407 491.916 60.3242 491.362 60.5251C490.812 60.7228 490.206 60.8173 489.543 60.8087C488.532 60.7954 487.77 60.5789 487.256 60.1591C486.747 59.736 486.515 59.167 486.562 58.452L488.668 58.3723C488.667 58.6748 488.772 58.9071 488.98 59.0692C489.189 59.2281 489.483 59.31 489.861 59.3149C490.232 59.3198 490.545 59.2539 490.799 59.1174C491.058 58.9777 491.213 58.7959 491.263 58.5721C491.299 58.3839 491.25 58.2288 491.116 58.1067C490.983 57.9813 490.757 57.884 490.439 57.8148L489.171 57.5396C488.456 57.3839 487.954 57.1236 487.665 56.7588C487.379 56.394 487.295 55.9326 487.412 55.3746C487.512 54.8946 487.732 54.4827 488.07 54.1391C488.411 53.7955 488.843 53.5328 489.366 53.351C489.893 53.1692 490.483 53.0826 491.136 53.0911C492.1 53.1038 492.817 53.3132 493.287 53.7194C493.76 54.1257 493.971 54.6733 493.92 55.3623ZM497.331 56.4315L496.425 60.7524L494.307 60.7247L496.396 50.7595L498.454 50.7864L497.656 54.5963L497.745 54.5975C498.01 54.1586 498.361 53.8168 498.797 53.572C499.235 53.324 499.744 53.2038 500.324 53.2114C500.854 53.2184 501.292 53.338 501.639 53.5702C501.99 53.7992 502.23 54.126 502.361 54.5506C502.495 54.972 502.499 55.4746 502.374 56.0584L501.376 60.8172L499.258 60.7895L500.178 56.4005C500.278 55.9399 500.234 55.5799 500.046 55.3205C499.861 55.0611 499.553 54.9286 499.122 54.9229C498.834 54.9192 498.566 54.9758 498.319 55.0929C498.075 55.2101 497.866 55.383 497.692 55.6117C497.522 55.8371 497.401 56.1104 497.331 56.4315Z" fill="white"/>
<defs>
<filter id="filter0_d_5_385" x="131.662" y="100.891" width="390.535" height="325.321" filterUnits="userSpaceOnUse" color-interpolation-filters="sRGB">
<feFlood flood-opacity="0" result="BackgroundImageFix"/>
<feColorMatrix in="SourceAlpha" type="matrix" values="0 0 0 0 0 0 0 0 0 0 0 0 0 0 0 0 0 0 127 0" result="hardAlpha"/>
<feOffset dy="4"/>
<feGaussianBlur stdDeviation="17.5"/>
<feComposite in2="hardAlpha" operator="out"/>
<feColorMatrix type="matrix" values="0 0 0 0 0 0 0 0 0 0 0 0 0 0 0 0 0 0 0.08 0"/>
<feBlend mode="normal" in2="BackgroundImageFix" result="effect1_dropShadow_5_385"/>
<feBlend mode="normal" in="SourceGraphic" in2="effect1_dropShadow_5_385" result="shape"/>
</filter>
<filter id="filter1_d_5_385" x="496.799" y="88.5838" width="136.804" height="134.047" filterUnits="userSpaceOnUse" color-interpolation-filters="sRGB">
<feFlood flood-opacity="0" result="BackgroundImageFix"/>
<feColorMatrix in="SourceAlpha" type="matrix" values="0 0 0 0 0 0 0 0 0 0 0 0 0 0 0 0 0 0 127 0" result="hardAlpha"/>
<feOffset dy="4"/>
<feGaussianBlur stdDeviation="17.5"/>
<feComposite in2="hardAlpha" operator="out"/>
<feColorMatrix type="matrix" values="0 0 0 0 0 0 0 0 0 0 0 0 0 0 0 0 0 0 0.08 0"/>
<feBlend mode="normal" in2="BackgroundImageFix" result="effect1_dropShadow_5_385"/>
<feBlend mode="normal" in="SourceGraphic" in2="effect1_dropShadow_5_385" result="shape"/>
</filter>
<filter id="filter2_d_5_385" x="21.9719" y="77.83" width="468.158" height="119.037" filterUnits="userSpaceOnUse" color-interpolation-filters="sRGB">
<feFlood flood-opacity="0" result="BackgroundImageFix"/>
<feColorMatrix in="SourceAlpha" type="matrix" values="0 0 0 0 0 0 0 0 0 0 0 0 0 0 0 0 0 0 127 0" result="hardAlpha"/>
<feOffset dy="4"/>
<feGaussianBlur stdDeviation="17.5"/>
<feComposite in2="hardAlpha" operator="out"/>
<feColorMatrix type="matrix" values="0 0 0 0 0 0 0 0 0 0 0 0 0 0 0 0 0 0 0.08 0"/>
<feBlend mode="normal" in2="BackgroundImageFix" result="effect1_dropShadow_5_385"/>
<feBlend mode="normal" in="SourceGraphic" in2="effect1_dropShadow_5_385" result="shape"/>
</filter>
<filter id="filter3_d_5_385" x="170.406" y="0.818054" width="223.884" height="115.839" filterUnits="userSpaceOnUse" color-interpolation-filters="sRGB">
<feFlood flood-opacity="0" result="BackgroundImageFix"/>
<feColorMatrix in="SourceAlpha" type="matrix" values="0 0 0 0 0 0 0 0 0 0 0 0 0 0 0 0 0 0 127 0" result="hardAlpha"/>
<feOffset dy="4"/>
<feGaussianBlur stdDeviation="17.5"/>
<feComposite in2="hardAlpha" operator="out"/>
<feColorMatrix type="matrix" values="0 0 0 0 0 0 0 0 0 0 0 0 0 0 0 0 0 0 0.08 0"/>
<feBlend mode="normal" in2="BackgroundImageFix" result="effect1_dropShadow_5_385"/>
<feBlend mode="normal" in="SourceGraphic" in2="effect1_dropShadow_5_385" result="shape"/>
</filter>
<filter id="filter4_d_5_385" x="385.583" y="4.67609" width="185.189" height="111.145" filterUnits="userSpaceOnUse" color-interpolation-filters="sRGB">
<feFlood flood-opacity="0" result="BackgroundImageFix"/>
<feColorMatrix in="SourceAlpha" type="matrix" values="0 0 0 0 0 0 0 0 0 0 0 0 0 0 0 0 0 0 127 0" result="hardAlpha"/>
<feOffset dy="4"/>
<feGaussianBlur stdDeviation="17.5"/>
<feComposite in2="hardAlpha" operator="out"/>
<feColorMatrix type="matrix" values="0 0 0 0 0 0 0 0 0 0 0 0 0 0 0 0 0 0 0.08 0"/>
<feBlend mode="normal" in2="BackgroundImageFix" result="effect1_dropShadow_5_385"/>
<feBlend mode="normal" in="SourceGraphic" in2="effect1_dropShadow_5_385" result="shape"/>
</filter>
<linearGradient id="paint0_linear_5_385" x1="32.7166" y1="0" x2="32.7166" y2="65.4331" gradientUnits="userSpaceOnUse">
<stop stop-color="#2ED1B7"/>
<stop offset="1" stop-color="#B449EF"/>
</linearGradient>
<clipPath id="clip0_5_385">
<rect width="27.8895" height="27.8895" fill="white" transform="matrix(0.999914 0.0130896 -0.205179 0.978724 220.181 40.2382)"/>
</clipPath>
</defs>
</svg>
