<svg width="126" height="18" viewBox="0 0 126 18" fill="none" xmlns="http://www.w3.org/2000/svg">
<path d="M2.25 12.9375V15.75H5.0625L13.3575 7.455L10.545 4.6425L2.25 12.9375ZM15.5325 5.28C15.602 5.21062 15.6572 5.1282 15.6948 5.03747C15.7325 4.94674 15.7518 4.84948 15.7518 4.75125C15.7518 4.65303 15.7325 4.55576 15.6948 4.46503C15.6572 4.3743 15.602 4.29189 15.5325 4.2225L13.7775 2.4675C13.7081 2.39797 13.6257 2.34281 13.535 2.30518C13.4442 2.26754 13.347 2.24817 13.2488 2.24817C13.1505 2.24817 13.0533 2.26754 12.9625 2.30518C12.8718 2.34281 12.7894 2.39797 12.72 2.4675L11.3475 3.84L14.16 6.6525L15.5325 5.28Z" fill="#2471B8"/>
<path d="M32.0043 15V4.81818H38.6264V6.36435H33.8487V9.12855H38.2834V10.6747H33.8487V13.4538H38.6662V15H32.0043ZM43.9585 15H40.5082V4.81818H44.0281C45.0389 4.81818 45.9073 5.02202 46.6332 5.42969C47.3623 5.83404 47.9225 6.41572 48.3136 7.17472C48.7047 7.93371 48.9002 8.84186 48.9002 9.89915C48.9002 10.9598 48.703 11.8712 48.3086 12.6335C47.9175 13.3958 47.3524 13.9808 46.6133 14.3885C45.8775 14.7962 44.9925 15 43.9585 15ZM42.3526 13.4041H43.869C44.5782 13.4041 45.1699 13.2749 45.6438 13.0163C46.1178 12.7545 46.4741 12.3651 46.7127 11.848C46.9514 11.3277 47.0707 10.678 47.0707 9.89915C47.0707 9.12026 46.9514 8.47396 46.7127 7.96023C46.4741 7.44318 46.1211 7.05706 45.6538 6.80185C45.1897 6.54332 44.613 6.41406 43.9237 6.41406H42.3526V13.4041ZM52.4972 4.81818V15H50.6527V4.81818H52.4972ZM54.0471 6.36435V4.81818H62.1706V6.36435H59.0236V15H57.1941V6.36435H54.0471ZM68.5169 15H66.5481L70.1326 4.81818H72.4096L75.9991 15H74.0304L71.3109 6.90625H71.2314L68.5169 15ZM68.5815 11.0078H73.9508V12.4893H68.5815V11.0078ZM77.3402 15V4.81818H81.1584C81.9406 4.81818 82.5968 4.95407 83.1271 5.22585C83.6607 5.49763 84.0634 5.87879 84.3352 6.36932C84.6103 6.85653 84.7479 7.42495 84.7479 8.07457C84.7479 8.72751 84.6087 9.29427 84.3303 9.77486C84.0552 10.2521 83.6491 10.6217 83.1122 10.8835C82.5753 11.142 81.9157 11.2713 81.1335 11.2713H78.4141V9.74006H80.8849C81.3423 9.74006 81.7169 9.67708 82.0085 9.55114C82.3002 9.42187 82.5156 9.23461 82.6548 8.98935C82.7973 8.74077 82.8686 8.43584 82.8686 8.07457C82.8686 7.7133 82.7973 7.40507 82.6548 7.14986C82.5123 6.89134 82.2952 6.69579 82.0036 6.56321C81.7119 6.42732 81.3357 6.35938 80.875 6.35938H79.1847V15H77.3402ZM82.6001 10.3864L85.1207 15H83.0625L80.5866 10.3864H82.6001ZM85.9982 6.36435V4.81818H94.1218V6.36435H90.9748V15H89.1452V6.36435H85.9982ZM97.5323 4.81818V15H95.6879V4.81818H97.5323ZM108.245 8.25355H106.385C106.332 7.94863 106.235 7.6785 106.092 7.44318C105.95 7.20455 105.772 7.00237 105.56 6.83665C105.348 6.67093 105.106 6.54664 104.834 6.46378C104.566 6.3776 104.276 6.33452 103.964 6.33452C103.411 6.33452 102.92 6.47372 102.493 6.75213C102.065 7.02722 101.73 7.43158 101.488 7.9652C101.247 8.4955 101.126 9.14347 101.126 9.90909C101.126 10.688 101.247 11.3442 101.488 11.8778C101.734 12.4081 102.068 12.8092 102.493 13.081C102.92 13.3494 103.409 13.4837 103.959 13.4837C104.264 13.4837 104.549 13.4439 104.814 13.3643C105.083 13.2815 105.323 13.1605 105.535 13.0014C105.751 12.8423 105.931 12.6468 106.077 12.4148C106.226 12.1828 106.329 11.9176 106.385 11.6193L108.245 11.6293C108.175 12.1132 108.024 12.5672 107.792 12.9915C107.564 13.4157 107.264 13.7902 106.893 14.1151C106.521 14.4366 106.087 14.6884 105.59 14.8707C105.093 15.0497 104.541 15.1392 103.934 15.1392C103.04 15.1392 102.241 14.9321 101.538 14.5178C100.836 14.1035 100.282 13.5052 99.8777 12.723C99.4733 11.9408 99.2711 11.0028 99.2711 9.90909C99.2711 8.81203 99.475 7.87405 99.8826 7.09517C100.29 6.31297 100.845 5.71473 101.548 5.30043C102.251 4.88613 103.046 4.67898 103.934 4.67898C104.501 4.67898 105.028 4.75852 105.515 4.91761C106.003 5.0767 106.437 5.31037 106.818 5.61861C107.199 5.92353 107.512 6.29806 107.758 6.74219C108.006 7.183 108.169 7.68679 108.245 8.25355ZM109.934 15V4.81818H111.778V13.4538H116.263V15H109.934ZM117.864 15V4.81818H124.486V6.36435H119.708V9.12855H124.143V10.6747H119.708V13.4538H124.526V15H117.864Z" fill="#2471B8"/>
</svg>
