<svg width="50" height="50" viewBox="0 0 50 50" fill="none" xmlns="http://www.w3.org/2000/svg">
<path fill-rule="evenodd" clip-rule="evenodd" d="M25 0C11.1932 0 0 11.1932 0 25C0 38.8068 11.1932 50 25 50C38.8068 50 50 38.8068 50 25C50 11.1932 38.8068 0 25 0ZM35.8364 20.7727C36.0359 20.5446 36.1878 20.279 36.2831 19.9913C36.3785 19.7036 36.4153 19.3998 36.3915 19.0977C36.3677 18.7956 36.2837 18.5013 36.1445 18.2321C36.0053 17.9629 35.8136 17.7243 35.5808 17.5303C35.348 17.3363 35.0787 17.1908 34.7889 17.1024C34.499 17.014 34.1944 16.9845 33.8929 17.0155C33.5915 17.0466 33.2993 17.1376 33.0335 17.2833C32.7678 17.4289 32.5338 17.6262 32.3455 17.8636L22.5727 29.5886L17.5159 24.5295C17.0873 24.1155 16.5132 23.8865 15.9173 23.8916C15.3214 23.8968 14.7513 24.1358 14.33 24.5572C13.9086 24.9786 13.6696 25.5486 13.6644 26.1445C13.6592 26.7404 13.8883 27.3145 14.3023 27.7432L21.1205 34.5614C21.3438 34.7845 21.6111 34.9587 21.9055 35.0729C22.1999 35.187 22.5148 35.2385 22.8302 35.2242C23.1455 35.2099 23.4545 35.13 23.7373 34.9897C24.0201 34.8493 24.2706 34.6516 24.4727 34.4091L35.8364 20.7727Z" fill="#10AC84"/>
</svg>
