<svg width="36" height="36" viewBox="0 0 36 36" fill="none" xmlns="http://www.w3.org/2000/svg">
<path fill-rule="evenodd" clip-rule="evenodd" d="M18 0C8.05909 0 0 8.05909 0 18C0 27.9409 8.05909 36 18 36C27.9409 36 36 27.9409 36 18C36 8.05909 27.9409 0 18 0ZM25.8022 14.9564C25.9458 14.7921 26.0552 14.6008 26.1239 14.3937C26.1925 14.1866 26.219 13.9679 26.2019 13.7503C26.1848 13.5328 26.1243 13.3209 26.024 13.1271C25.9238 12.9333 25.7858 12.7615 25.6182 12.6218C25.4505 12.4821 25.2567 12.3774 25.048 12.3137C24.8393 12.2501 24.6199 12.2288 24.4029 12.2512C24.1859 12.2735 23.9755 12.3391 23.7841 12.4439C23.5928 12.5488 23.4244 12.6909 23.2887 12.8618L16.2524 21.3038L12.6115 17.6613C12.3028 17.3632 11.8895 17.1983 11.4604 17.202C11.0314 17.2057 10.621 17.3778 10.3176 17.6812C10.0142 17.9846 9.84208 18.395 9.83835 18.8241C9.83462 19.2531 9.99956 19.6665 10.2976 19.9751L15.2067 24.8842C15.3675 25.0449 15.56 25.1703 15.772 25.2525C15.9839 25.3346 16.2106 25.3717 16.4377 25.3614C16.6648 25.3511 16.8872 25.2936 17.0909 25.1926C17.2945 25.0915 17.4748 24.9491 17.6204 24.7745L25.8022 14.9564Z" fill="#04CA9A"/>
</svg>
