<svg width="158" height="25" viewBox="0 0 158 25" fill="none" xmlns="http://www.w3.org/2000/svg">
<path d="M38.4592 4.63636V17H36.2195V4.63636H38.4592ZM40.7879 17V7.72727H42.8767V9.30291H42.9854C43.1785 8.77166 43.4985 8.35713 43.9452 8.0593C44.392 7.75746 44.9252 7.60653 45.545 7.60653C46.1729 7.60653 46.7021 7.75947 47.1327 8.06534C47.5674 8.36719 47.8733 8.77971 48.0503 9.30291H48.1469C48.3522 8.78776 48.6983 8.37725 49.1853 8.07138C49.6763 7.76148 50.2578 7.60653 50.93 7.60653C51.7832 7.60653 52.4794 7.87618 53.0187 8.41548C53.558 8.95478 53.8277 9.7416 53.8277 10.7759V17H51.6363V11.114C51.6363 10.5385 51.4833 10.1179 51.1775 9.85227C50.8716 9.58262 50.4973 9.4478 50.0546 9.4478C49.5274 9.4478 49.1148 9.61281 48.817 9.94283C48.5232 10.2688 48.3763 10.6934 48.3763 11.2166V17H46.2332V11.0234C46.2332 10.5445 46.0883 10.1622 45.7986 9.87642C45.5128 9.59067 45.1385 9.4478 44.6757 9.4478C44.3618 9.4478 44.076 9.52829 43.8184 9.68928C43.5609 9.84624 43.3556 10.0696 43.2027 10.3594C43.0497 10.6451 42.9733 10.9792 42.9733 11.3615V17H40.7879ZM56.0447 20.4773V7.72727H58.1939V9.26065H58.3207C58.4334 9.03527 58.5923 8.79581 58.7976 8.54226C59.0028 8.28468 59.2805 8.06534 59.6307 7.88423C59.9808 7.6991 60.4276 7.60653 60.9709 7.60653C61.6873 7.60653 62.3332 7.78965 62.9087 8.15589C63.4883 8.51811 63.9471 9.0554 64.2852 9.76776C64.6272 10.4761 64.7983 11.3454 64.7983 12.3757C64.7983 13.3939 64.6313 14.2592 64.2972 14.9716C63.9632 15.6839 63.5084 16.2273 62.9329 16.6016C62.3574 16.9759 61.7054 17.163 60.9769 17.163C60.4457 17.163 60.005 17.0745 59.6548 16.8974C59.3047 16.7203 59.023 16.507 58.8097 16.2575C58.6004 16.0039 58.4374 15.7644 58.3207 15.5391H58.2301V20.4773H56.0447ZM58.1879 12.3636C58.1879 12.9633 58.2724 13.4885 58.4414 13.9393C58.6145 14.39 58.862 14.7422 59.1839 14.9957C59.5099 15.2453 59.9044 15.37 60.3672 15.37C60.8501 15.37 61.2546 15.2412 61.5806 14.9837C61.9066 14.7221 62.1521 14.3659 62.3171 13.9151C62.4862 13.4603 62.5707 12.9432 62.5707 12.3636C62.5707 11.7881 62.4882 11.277 62.3232 10.8303C62.1581 10.3835 61.9126 10.0334 61.5866 9.77983C61.2607 9.52628 60.8542 9.3995 60.3672 9.3995C59.9003 9.3995 59.5039 9.52225 59.1779 9.76776C58.8519 10.0133 58.6044 10.3574 58.4354 10.8001C58.2704 11.2428 58.1879 11.764 58.1879 12.3636ZM70.7145 17.1811C69.8089 17.1811 69.0241 16.9819 68.3601 16.5835C67.696 16.185 67.1809 15.6276 66.8146 14.9112C66.4524 14.1948 66.2713 13.3577 66.2713 12.3999C66.2713 11.442 66.4524 10.6029 66.8146 9.88246C67.1809 9.16205 67.696 8.60263 68.3601 8.20419C69.0241 7.80575 69.8089 7.60653 70.7145 7.60653C71.62 7.60653 72.4048 7.80575 73.0689 8.20419C73.733 8.60263 74.2461 9.16205 74.6083 9.88246C74.9746 10.6029 75.1577 11.442 75.1577 12.3999C75.1577 13.3577 74.9746 14.1948 74.6083 14.9112C74.2461 15.6276 73.733 16.185 73.0689 16.5835C72.4048 16.9819 71.62 17.1811 70.7145 17.1811ZM70.7266 15.4304C71.2176 15.4304 71.6281 15.2956 71.9581 15.0259C72.2881 14.7522 72.5336 14.386 72.6946 13.9272C72.8596 13.4684 72.9421 12.9573 72.9421 12.3938C72.9421 11.8263 72.8596 11.3132 72.6946 10.8544C72.5336 10.3916 72.2881 10.0233 71.9581 9.74964C71.6281 9.47597 71.2176 9.33913 70.7266 9.33913C70.2235 9.33913 69.8049 9.47597 69.4709 9.74964C69.1409 10.0233 68.8933 10.3916 68.7283 10.8544C68.5674 11.3132 68.4869 11.8263 68.4869 12.3938C68.4869 12.9573 68.5674 13.4684 68.7283 13.9272C68.8933 14.386 69.1409 14.7522 69.4709 15.0259C69.8049 15.2956 70.2235 15.4304 70.7266 15.4304ZM77.0125 17V7.72727H79.1315V9.27273H79.2281C79.3971 8.73745 79.6869 8.32493 80.0974 8.03516C80.5119 7.74136 80.9848 7.59446 81.5161 7.59446C81.6368 7.59446 81.7716 7.6005 81.9205 7.61257C82.0735 7.62062 82.2003 7.63471 82.3009 7.65483V9.66513C82.2083 9.63293 82.0614 9.60476 81.8602 9.58061C81.663 9.55244 81.4718 9.53835 81.2867 9.53835C80.8882 9.53835 80.53 9.62488 80.2121 9.79794C79.8982 9.96697 79.6507 10.2024 79.4695 10.5043C79.2884 10.8061 79.1979 11.1542 79.1979 11.5487V17H77.0125ZM88.8811 7.72727V9.41761H83.5505V7.72727H88.8811ZM84.8666 5.50568H87.0519V14.2109C87.0519 14.5047 87.0962 14.7301 87.1847 14.8871C87.2773 15.04 87.3981 15.1446 87.547 15.201C87.6959 15.2573 87.8609 15.2855 88.042 15.2855C88.1788 15.2855 88.3036 15.2754 88.4163 15.2553C88.533 15.2352 88.6215 15.2171 88.6819 15.201L89.0502 16.9094C88.9334 16.9497 88.7664 16.994 88.5491 17.0423C88.3358 17.0906 88.0742 17.1187 87.7643 17.1268C87.2169 17.1429 86.7239 17.0604 86.2852 16.8793C85.8466 16.6941 85.4984 16.4084 85.2409 16.022C84.9873 15.6357 84.8625 15.1527 84.8666 14.5732V5.50568ZM96.6099 17H94.2193L98.5719 4.63636H101.337L105.695 17H103.305L100.003 7.17188H99.9061L96.6099 17ZM96.6884 12.1523H103.208V13.9513H96.6884V12.1523ZM107.227 17V7.72727H109.346V9.27273H109.443C109.612 8.73745 109.902 8.32493 110.312 8.03516C110.727 7.74136 111.2 7.59446 111.731 7.59446C111.852 7.59446 111.986 7.6005 112.135 7.61257C112.288 7.62062 112.415 7.63471 112.516 7.65483V9.66513C112.423 9.63293 112.276 9.60476 112.075 9.58061C111.878 9.55244 111.687 9.53835 111.502 9.53835C111.103 9.53835 110.745 9.62488 110.427 9.79794C110.113 9.96697 109.866 10.2024 109.684 10.5043C109.503 10.8061 109.413 11.1542 109.413 11.5487V17H107.227ZM119.096 7.72727V9.41761H113.765V7.72727H119.096ZM115.081 5.50568H117.267V14.2109C117.267 14.5047 117.311 14.7301 117.4 14.8871C117.492 15.04 117.613 15.1446 117.762 15.201C117.911 15.2573 118.076 15.2855 118.257 15.2855C118.394 15.2855 118.518 15.2754 118.631 15.2553C118.748 15.2352 118.836 15.2171 118.897 15.201L119.265 16.9094C119.148 16.9497 118.981 16.994 118.764 17.0423C118.551 17.0906 118.289 17.1187 117.979 17.1268C117.432 17.1429 116.939 17.0604 116.5 16.8793C116.061 16.6941 115.713 16.4084 115.456 16.022C115.202 15.6357 115.077 15.1527 115.081 14.5732V5.50568ZM120.924 17V7.72727H123.109V17H120.924ZM122.022 6.41122C121.676 6.41122 121.378 6.29652 121.129 6.06712C120.879 5.83369 120.755 5.55398 120.755 5.22798C120.755 4.89796 120.879 4.61825 121.129 4.38885C121.378 4.15542 121.676 4.03871 122.022 4.03871C122.373 4.03871 122.67 4.15542 122.916 4.38885C123.165 4.61825 123.29 4.89796 123.29 5.22798C123.29 5.55398 123.165 5.83369 122.916 6.06712C122.67 6.29652 122.373 6.41122 122.022 6.41122ZM129.401 17.1811C128.475 17.1811 127.68 16.9779 127.016 16.5714C126.356 16.1649 125.847 15.6035 125.489 14.8871C125.135 14.1667 124.958 13.3376 124.958 12.3999C124.958 11.4581 125.139 10.627 125.501 9.9066C125.863 9.18217 126.374 8.61873 127.035 8.21626C127.699 7.80978 128.483 7.60653 129.389 7.60653C130.142 7.60653 130.808 7.74538 131.387 8.02308C131.971 8.29676 132.436 8.68513 132.782 9.18821C133.128 9.68726 133.325 10.2708 133.373 10.9389H131.285C131.2 10.4922 130.999 10.1199 130.681 9.82209C130.367 9.52024 129.946 9.36932 129.419 9.36932C128.972 9.36932 128.58 9.49006 128.242 9.73153C127.904 9.96899 127.64 10.3111 127.451 10.7578C127.266 11.2045 127.173 11.7398 127.173 12.3636C127.173 12.9955 127.266 13.5388 127.451 13.9936C127.636 14.4444 127.896 14.7925 128.23 15.038C128.568 15.2795 128.964 15.4002 129.419 15.4002C129.741 15.4002 130.029 15.3398 130.282 15.2191C130.54 15.0943 130.755 14.9152 130.928 14.6818C131.101 14.4484 131.22 14.1647 131.285 13.8306H133.373C133.321 14.4866 133.128 15.0682 132.794 15.5753C132.46 16.0784 132.005 16.4728 131.429 16.7585C130.854 17.0402 130.178 17.1811 129.401 17.1811ZM137.353 4.63636V17H135.168V4.63636H137.353ZM143.706 17.1811C142.776 17.1811 141.973 16.9879 141.297 16.6016C140.625 16.2112 140.108 15.6598 139.745 14.9474C139.383 14.2311 139.202 13.3879 139.202 12.418C139.202 11.4641 139.383 10.627 139.745 9.9066C140.112 9.18217 140.623 8.61873 141.279 8.21626C141.935 7.80978 142.705 7.60653 143.591 7.60653C144.162 7.60653 144.702 7.6991 145.209 7.88423C145.72 8.06534 146.171 8.34706 146.561 8.7294C146.955 9.11174 147.265 9.59872 147.491 10.1903C147.716 10.7779 147.829 11.4782 147.829 12.2912V12.9613H140.228V11.4883H145.734C145.73 11.0697 145.639 10.6974 145.462 10.3714C145.285 10.0414 145.038 9.78184 144.72 9.59268C144.406 9.40353 144.04 9.30895 143.621 9.30895C143.174 9.30895 142.782 9.41761 142.444 9.63494C142.106 9.84825 141.842 10.13 141.653 10.4801C141.468 10.8262 141.373 11.2066 141.369 11.6211V12.907C141.369 13.4463 141.468 13.9091 141.665 14.2955C141.862 14.6778 142.138 14.9716 142.492 15.1768C142.846 15.3781 143.261 15.4787 143.736 15.4787C144.054 15.4787 144.341 15.4344 144.599 15.3459C144.857 15.2533 145.08 15.1185 145.269 14.9414C145.458 14.7643 145.601 14.545 145.698 14.2834L147.738 14.5128C147.609 15.0521 147.364 15.523 147.002 15.9254C146.643 16.3239 146.185 16.6338 145.625 16.8551C145.066 17.0724 144.426 17.1811 143.706 17.1811ZM157.006 10.1783L155.014 10.3956C154.958 10.1944 154.859 10.0052 154.718 9.82812C154.582 9.65104 154.396 9.50817 154.163 9.3995C153.93 9.29084 153.644 9.23651 153.306 9.23651C152.851 9.23651 152.469 9.33511 152.159 9.53231C151.853 9.72952 151.702 9.98509 151.706 10.299C151.702 10.5687 151.801 10.788 152.002 10.957C152.207 11.1261 152.545 11.2649 153.016 11.3736L154.598 11.7116C155.475 11.9008 156.127 12.2006 156.554 12.6112C156.984 13.0217 157.202 13.5589 157.206 14.223C157.202 14.8066 157.031 15.3217 156.692 15.7685C156.358 16.2112 155.894 16.5573 155.298 16.8068C154.702 17.0563 154.018 17.1811 153.245 17.1811C152.11 17.1811 151.197 16.9437 150.505 16.4688C149.812 15.9898 149.4 15.3237 149.267 14.4705L151.398 14.2653C151.495 14.6838 151.7 14.9998 152.014 15.2131C152.328 15.4264 152.736 15.533 153.239 15.533C153.759 15.533 154.175 15.4264 154.489 15.2131C154.807 14.9998 154.966 14.7362 154.966 14.4222C154.966 14.1566 154.863 13.9373 154.658 13.7642C154.457 13.5911 154.143 13.4583 153.716 13.3658L152.135 13.0337C151.245 12.8486 150.587 12.5367 150.161 12.098C149.734 11.6553 149.523 11.0959 149.527 10.4197C149.523 9.84825 149.678 9.35322 149.991 8.93466C150.309 8.51207 150.75 8.18608 151.314 7.95668C151.881 7.72325 152.535 7.60653 153.276 7.60653C154.362 7.60653 155.217 7.83795 155.841 8.30078C156.469 8.76361 156.857 9.38944 157.006 10.1783Z" fill="black" fill-opacity="0.38"/>
<path d="M17.65 7.35C16.9099 6.60485 16.0296 6.01356 15.0599 5.61023C14.0902 5.2069 13.0503 4.99951 12 5C7.58001 5 4.01001 8.58 4.01001 13C4.01001 17.42 7.58001 21 12 21C15.73 21 18.84 18.45 19.73 15H17.65C17.2381 16.1695 16.4734 17.1824 15.4614 17.8988C14.4494 18.6153 13.24 19 12 19C8.69001 19 6.00001 16.31 6.00001 13C6.00001 9.69 8.69001 7 12 7C13.66 7 15.14 7.69 16.22 8.78L13 12H20V5L17.65 7.35Z" fill="#B7BBC0"/>
</svg>
