<svg width="143" height="201" viewBox="0 0 143 201" fill="none" xmlns="http://www.w3.org/2000/svg">
<circle cx="71.5" cy="71.5" r="71.5" fill="#DEDEDE" fill-opacity="0.36"/>
<path d="M75.6667 48.6667H57C54.4333 48.6667 52.3567 50.7667 52.3567 53.3333L52.3333 90.6667C52.3333 93.2333 54.41 95.3333 56.9767 95.3333H85C87.5667 95.3333 89.6667 93.2333 89.6667 90.6667V62.6667L75.6667 48.6667ZM57 90.6667V53.3333H73.3333V65H85V90.6667H57Z" fill="#999595"/>
<path d="M25.5838 175.545V193H23.1634L14.2912 180.199H14.1293V193H11.4957V175.545H13.9332L22.8139 188.364H22.9759V175.545H25.5838ZM34.7351 193.264C33.5078 193.264 32.4368 192.983 31.522 192.42C30.6072 191.858 29.897 191.071 29.3913 190.06C28.8857 189.048 28.6328 187.866 28.6328 186.514C28.6328 185.156 28.8857 183.969 29.3913 182.952C29.897 181.935 30.6072 181.145 31.522 180.582C32.4368 180.02 33.5078 179.739 34.7351 179.739C35.9624 179.739 37.0334 180.02 37.9482 180.582C38.8629 181.145 39.5732 181.935 40.0788 182.952C40.5845 183.969 40.8374 185.156 40.8374 186.514C40.8374 187.866 40.5845 189.048 40.0788 190.06C39.5732 191.071 38.8629 191.858 37.9482 192.42C37.0334 192.983 35.9624 193.264 34.7351 193.264ZM34.7436 191.125C35.5391 191.125 36.1982 190.915 36.7209 190.494C37.2436 190.074 37.63 189.514 37.88 188.815C38.1357 188.116 38.2635 187.347 38.2635 186.506C38.2635 185.67 38.1357 184.903 37.88 184.205C37.63 183.5 37.2436 182.935 36.7209 182.509C36.1982 182.082 35.5391 181.869 34.7436 181.869C33.9425 181.869 33.2777 182.082 32.7493 182.509C32.2266 182.935 31.8374 183.5 31.5817 184.205C31.3317 184.903 31.2067 185.67 31.2067 186.506C31.2067 187.347 31.3317 188.116 31.5817 188.815C31.8374 189.514 32.2266 190.074 32.7493 190.494C33.2777 190.915 33.9425 191.125 34.7436 191.125ZM53.843 193.29C53.0135 193.29 52.2635 193.136 51.593 192.83C50.9226 192.517 50.3913 192.065 49.9993 191.474C49.6129 190.884 49.4197 190.159 49.4197 189.301C49.4197 188.562 49.5618 187.955 49.8459 187.477C50.13 187 50.5135 186.622 50.9964 186.344C51.4794 186.065 52.0192 185.855 52.6158 185.713C53.2124 185.571 53.8203 185.463 54.4396 185.389C55.2237 185.298 55.8601 185.224 56.3487 185.168C56.8374 185.105 57.1925 185.006 57.4141 184.869C57.6357 184.733 57.7464 184.511 57.7464 184.205V184.145C57.7464 183.401 57.5362 182.824 57.1158 182.415C56.701 182.006 56.0817 181.801 55.2578 181.801C54.3999 181.801 53.7237 181.991 53.2294 182.372C52.7408 182.747 52.4027 183.165 52.2152 183.625L49.8203 183.08C50.1044 182.284 50.5192 181.642 51.0646 181.153C51.6158 180.659 52.2493 180.301 52.9652 180.08C53.6811 179.852 54.4339 179.739 55.2237 179.739C55.7464 179.739 56.3004 179.801 56.8857 179.926C57.4766 180.045 58.0277 180.267 58.5391 180.591C59.0561 180.915 59.4794 181.378 59.8089 181.98C60.1385 182.577 60.3033 183.352 60.3033 184.307V193H57.8146V191.21H57.7124C57.5476 191.54 57.3004 191.864 56.9709 192.182C56.6413 192.5 56.218 192.764 55.701 192.974C55.1839 193.185 54.5646 193.29 53.843 193.29ZM54.397 191.244C55.1016 191.244 55.7038 191.105 56.2038 190.827C56.7095 190.548 57.093 190.185 57.3544 189.736C57.6214 189.281 57.755 188.795 57.755 188.278V186.591C57.6641 186.682 57.4879 186.767 57.2266 186.847C56.9709 186.92 56.6783 186.986 56.3487 187.043C56.0192 187.094 55.6982 187.142 55.3857 187.188C55.0732 187.227 54.8118 187.261 54.6016 187.29C54.1072 187.352 53.6555 187.457 53.2464 187.605C52.843 187.753 52.5192 187.966 52.2749 188.244C52.0362 188.517 51.9169 188.881 51.9169 189.335C51.9169 189.966 52.1499 190.443 52.6158 190.767C53.0817 191.085 53.6754 191.244 54.397 191.244ZM63.6974 193V179.909H66.1605V181.989H66.2969C66.5355 181.284 66.956 180.73 67.5582 180.327C68.1662 179.918 68.8537 179.713 69.6207 179.713C69.7798 179.713 69.9673 179.719 70.1832 179.73C70.4048 179.741 70.5781 179.756 70.7031 179.773V182.21C70.6009 182.182 70.419 182.151 70.1577 182.116C69.8963 182.077 69.6349 182.057 69.3736 182.057C68.7713 182.057 68.2344 182.185 67.7628 182.44C67.2969 182.69 66.9276 183.04 66.6548 183.489C66.3821 183.932 66.2457 184.437 66.2457 185.006V193H63.6974ZM79.7926 179.909V181.955H72.642V179.909H79.7926ZM74.5597 176.773H77.108V189.156C77.108 189.651 77.1818 190.023 77.3295 190.273C77.4773 190.517 77.6676 190.685 77.9006 190.776C78.1392 190.861 78.3977 190.903 78.6761 190.903C78.8807 190.903 79.0597 190.889 79.2131 190.861C79.3665 190.832 79.4858 190.81 79.571 190.793L80.0312 192.898C79.8835 192.955 79.6733 193.011 79.4006 193.068C79.1278 193.131 78.7869 193.165 78.3778 193.17C77.7074 193.182 77.0824 193.062 76.5028 192.812C75.9233 192.562 75.4545 192.176 75.0966 191.653C74.7386 191.131 74.5597 190.474 74.5597 189.685V176.773ZM82.6115 193V179.909H85.1598V193H82.6115ZM83.8984 177.889C83.4553 177.889 83.0746 177.741 82.7564 177.446C82.4439 177.145 82.2876 176.787 82.2876 176.372C82.2876 175.952 82.4439 175.594 82.7564 175.298C83.0746 174.997 83.4553 174.847 83.8984 174.847C84.3416 174.847 84.7195 174.997 85.032 175.298C85.3501 175.594 85.5092 175.952 85.5092 176.372C85.5092 176.787 85.3501 177.145 85.032 177.446C84.7195 177.741 84.3416 177.889 83.8984 177.889ZM94.1023 193.264C92.8352 193.264 91.7443 192.977 90.8295 192.403C89.9205 191.824 89.2216 191.026 88.733 190.009C88.2443 188.991 88 187.827 88 186.514C88 185.185 88.25 184.011 88.75 182.994C89.25 181.972 89.9545 181.173 90.8636 180.599C91.7727 180.026 92.8438 179.739 94.0767 179.739C95.071 179.739 95.9574 179.923 96.7358 180.293C97.5142 180.656 98.142 181.168 98.6193 181.827C99.1023 182.486 99.3892 183.256 99.4801 184.136H97C96.8636 183.523 96.5511 182.994 96.0625 182.551C95.5795 182.108 94.9318 181.886 94.1193 181.886C93.4091 181.886 92.7869 182.074 92.2528 182.449C91.7244 182.818 91.3125 183.347 91.017 184.034C90.7216 184.716 90.5739 185.523 90.5739 186.455C90.5739 187.409 90.7188 188.233 91.0085 188.926C91.2983 189.619 91.7074 190.156 92.2358 190.537C92.7699 190.918 93.3977 191.108 94.1193 191.108C94.6023 191.108 95.0398 191.02 95.4318 190.844C95.8295 190.662 96.1619 190.403 96.429 190.068C96.7017 189.733 96.892 189.33 97 188.858H99.4801C99.3892 189.705 99.1136 190.46 98.6534 191.125C98.1932 191.79 97.5767 192.312 96.804 192.693C96.0369 193.074 95.1364 193.264 94.1023 193.264ZM104.754 175.545V193H102.205V175.545H104.754ZM113.824 193.264C112.534 193.264 111.423 192.989 110.491 192.438C109.565 191.881 108.849 191.099 108.344 190.094C107.844 189.082 107.594 187.898 107.594 186.54C107.594 185.199 107.844 184.017 108.344 182.994C108.849 181.972 109.554 181.173 110.457 180.599C111.366 180.026 112.429 179.739 113.645 179.739C114.384 179.739 115.099 179.861 115.793 180.105C116.486 180.349 117.108 180.733 117.659 181.256C118.21 181.778 118.645 182.457 118.963 183.293C119.281 184.122 119.44 185.131 119.44 186.318V187.222H109.034V185.312H116.943C116.943 184.642 116.807 184.048 116.534 183.531C116.261 183.009 115.878 182.597 115.384 182.295C114.895 181.994 114.321 181.844 113.662 181.844C112.946 181.844 112.321 182.02 111.787 182.372C111.259 182.719 110.849 183.173 110.56 183.736C110.276 184.293 110.134 184.898 110.134 185.551V187.043C110.134 187.918 110.287 188.662 110.594 189.276C110.906 189.889 111.341 190.358 111.898 190.682C112.455 191 113.105 191.159 113.849 191.159C114.332 191.159 114.773 191.091 115.17 190.955C115.568 190.812 115.912 190.602 116.202 190.324C116.491 190.045 116.713 189.702 116.866 189.293L119.278 189.727C119.085 190.437 118.739 191.06 118.239 191.594C117.744 192.122 117.122 192.534 116.372 192.83C115.628 193.119 114.778 193.264 113.824 193.264ZM132.077 183.105L129.768 183.514C129.671 183.219 129.518 182.937 129.308 182.67C129.103 182.403 128.825 182.185 128.472 182.014C128.12 181.844 127.68 181.759 127.151 181.759C126.43 181.759 125.827 181.92 125.344 182.244C124.862 182.562 124.62 182.974 124.62 183.48C124.62 183.918 124.782 184.27 125.106 184.537C125.43 184.804 125.952 185.023 126.674 185.193L128.754 185.67C129.958 185.949 130.856 186.378 131.447 186.957C132.038 187.537 132.333 188.29 132.333 189.216C132.333 190 132.106 190.699 131.651 191.312C131.202 191.92 130.575 192.398 129.768 192.744C128.967 193.091 128.038 193.264 126.981 193.264C125.515 193.264 124.319 192.952 123.393 192.327C122.467 191.696 121.898 190.801 121.688 189.642L124.151 189.267C124.305 189.909 124.62 190.395 125.097 190.724C125.575 191.048 126.197 191.21 126.964 191.21C127.799 191.21 128.467 191.037 128.967 190.69C129.467 190.338 129.717 189.909 129.717 189.403C129.717 188.994 129.563 188.651 129.256 188.372C128.955 188.094 128.492 187.884 127.867 187.741L125.651 187.256C124.43 186.977 123.526 186.534 122.941 185.926C122.362 185.318 122.072 184.548 122.072 183.616C122.072 182.844 122.288 182.168 122.719 181.588C123.151 181.009 123.748 180.557 124.509 180.233C125.271 179.903 126.143 179.739 127.126 179.739C128.54 179.739 129.654 180.045 130.467 180.659C131.279 181.267 131.816 182.082 132.077 183.105Z" fill="#030507" fill-opacity="0.25"/>
</svg>
