<svg width="143" height="204" viewBox="0 0 143 204" fill="none" xmlns="http://www.w3.org/2000/svg">
<circle cx="71.5" cy="71.5" r="71.5" fill="#DEDEDE" fill-opacity="0.36"/>
<path d="M75.6667 48.6667H57C54.4333 48.6667 52.3567 50.7667 52.3567 53.3333L52.3333 90.6667C52.3333 93.2333 54.41 95.3333 56.9767 95.3333H85C87.5667 95.3333 89.6667 93.2333 89.6667 90.6667V62.6667L75.6667 48.6667ZM57 90.6667V53.3333H73.3333V65H85V90.6667H57Z" fill="#999595"/>
<path d="M32.4279 184.455V199H30.4109L23.0174 188.332H22.8825V199H20.6879V184.455H22.7191L30.1197 195.136H30.2546V184.455H32.4279ZM40.054 199.22C39.0313 199.22 38.1387 198.986 37.3764 198.517C36.6141 198.048 36.0223 197.393 35.6009 196.55C35.1795 195.707 34.9688 194.722 34.9688 193.595C34.9688 192.464 35.1795 191.474 35.6009 190.626C36.0223 189.779 36.6141 189.121 37.3764 188.652C38.1387 188.183 39.0313 187.949 40.054 187.949C41.0767 187.949 41.9692 188.183 42.7315 188.652C43.4938 189.121 44.0857 189.779 44.5071 190.626C44.9285 191.474 45.1392 192.464 45.1392 193.595C45.1392 194.722 44.9285 195.707 44.5071 196.55C44.0857 197.393 43.4938 198.048 42.7315 198.517C41.9692 198.986 41.0767 199.22 40.054 199.22ZM40.0611 197.438C40.724 197.438 41.2732 197.262 41.7088 196.912C42.1444 196.562 42.4664 196.095 42.6747 195.513C42.8878 194.93 42.9943 194.289 42.9943 193.588C42.9943 192.892 42.8878 192.253 42.6747 191.67C42.4664 191.083 42.1444 190.612 41.7088 190.257C41.2732 189.902 40.724 189.724 40.0611 189.724C39.3935 189.724 38.8395 189.902 38.3991 190.257C37.9635 190.612 37.6392 191.083 37.4261 191.67C37.2178 192.253 37.1136 192.892 37.1136 193.588C37.1136 194.289 37.2178 194.93 37.4261 195.513C37.6392 196.095 37.9635 196.562 38.3991 196.912C38.8395 197.262 39.3935 197.438 40.0611 197.438ZM54.2017 199H51.8722L57.1065 184.455H59.642L64.8764 199H62.5469L58.4347 187.097H58.321L54.2017 199ZM54.5923 193.304H62.1491V195.151H54.5923V193.304ZM66.8065 199V188.091H68.859V189.824H68.9727C69.1715 189.237 69.5219 188.775 70.0238 188.439C70.5304 188.098 71.1033 187.928 71.7425 187.928C71.8751 187.928 72.0314 187.932 72.2113 187.942C72.396 187.951 72.5404 187.963 72.6445 187.977V190.009C72.5593 189.985 72.4078 189.959 72.19 189.93C71.9722 189.897 71.7544 189.881 71.5366 189.881C71.0347 189.881 70.5872 189.987 70.1942 190.2C69.806 190.409 69.4982 190.7 69.271 191.074C69.0437 191.443 68.93 191.865 68.93 192.338V199H66.8065ZM80.2191 188.091V189.795H74.2603V188.091H80.2191ZM75.8583 185.477H77.9819V195.797C77.9819 196.209 78.0434 196.519 78.1665 196.727C78.2897 196.931 78.4483 197.071 78.6424 197.146C78.8413 197.217 79.0567 197.253 79.2887 197.253C79.4592 197.253 79.6083 197.241 79.7362 197.217C79.864 197.194 79.9634 197.175 80.0344 197.161L80.418 198.915C80.2949 198.962 80.1197 199.009 79.8924 199.057C79.6651 199.109 79.381 199.137 79.0401 199.142C78.4814 199.152 77.9606 199.052 77.4776 198.844C76.9947 198.635 76.604 198.313 76.3058 197.878C76.0075 197.442 75.8583 196.895 75.8583 196.237V185.477ZM82.5682 199V188.091H84.6918V199H82.5682ZM83.6406 186.408C83.2713 186.408 82.9541 186.285 82.6889 186.038C82.4285 185.787 82.2983 185.489 82.2983 185.143C82.2983 184.793 82.4285 184.495 82.6889 184.249C82.9541 183.998 83.2713 183.872 83.6406 183.872C84.0099 183.872 84.3248 183.998 84.5852 184.249C84.8504 184.495 84.983 184.793 84.983 185.143C84.983 185.489 84.8504 185.787 84.5852 186.038C84.3248 186.285 84.0099 186.408 83.6406 186.408ZM92.1438 199.22C91.0879 199.22 90.1789 198.981 89.4165 198.503C88.659 198.02 88.0766 197.355 87.6694 196.507C87.2622 195.66 87.0586 194.689 87.0586 193.595C87.0586 192.487 87.2669 191.509 87.6836 190.662C88.1003 189.81 88.6874 189.144 89.445 188.666C90.2025 188.188 91.0951 187.949 92.1225 187.949C92.9511 187.949 93.6897 188.103 94.3384 188.411C94.9871 188.714 95.5103 189.14 95.908 189.689C96.3105 190.238 96.5496 190.88 96.6254 191.614H94.5586C94.445 191.102 94.1845 190.662 93.7773 190.293C93.3749 189.923 92.8351 189.739 92.158 189.739C91.5662 189.739 91.0477 189.895 90.6026 190.207C90.1623 190.515 89.819 190.955 89.5728 191.528C89.3266 192.097 89.2035 192.769 89.2035 193.545C89.2035 194.341 89.3242 195.027 89.5657 195.605C89.8072 196.183 90.1481 196.63 90.5884 196.947C91.0335 197.265 91.5567 197.423 92.158 197.423C92.5605 197.423 92.9251 197.35 93.2518 197.203C93.5832 197.052 93.8602 196.836 94.0827 196.557C94.31 196.277 94.4686 195.941 94.5586 195.548H96.6254C96.5496 196.254 96.32 196.884 95.9364 197.438C95.5529 197.991 95.0392 198.427 94.3952 198.744C93.756 199.062 93.0056 199.22 92.1438 199.22ZM101.02 184.455V199H98.8963V184.455H101.02ZM108.578 199.22C107.504 199.22 106.578 198.991 105.801 198.531C105.03 198.067 104.433 197.416 104.012 196.578C103.595 195.735 103.387 194.748 103.387 193.616C103.387 192.499 103.595 191.514 104.012 190.662C104.433 189.81 105.02 189.144 105.773 188.666C106.531 188.188 107.416 187.949 108.429 187.949C109.045 187.949 109.641 188.051 110.219 188.254C110.797 188.458 111.315 188.777 111.775 189.213C112.234 189.649 112.596 190.214 112.861 190.911C113.126 191.602 113.259 192.442 113.259 193.432V194.185H104.587V192.594H111.178C111.178 192.035 111.064 191.54 110.837 191.109C110.61 190.674 110.29 190.33 109.878 190.08C109.471 189.829 108.993 189.703 108.444 189.703C107.847 189.703 107.326 189.85 106.881 190.143C106.441 190.432 106.1 190.811 105.858 191.28C105.622 191.744 105.503 192.248 105.503 192.793V194.036C105.503 194.765 105.631 195.385 105.887 195.896C106.147 196.408 106.509 196.798 106.973 197.068C107.437 197.333 107.98 197.466 108.6 197.466C109.002 197.466 109.369 197.409 109.701 197.295C110.032 197.177 110.319 197.002 110.56 196.77C110.801 196.538 110.986 196.251 111.114 195.911L113.124 196.273C112.963 196.865 112.674 197.383 112.257 197.828C111.846 198.268 111.327 198.612 110.702 198.858C110.082 199.099 109.374 199.22 108.578 199.22ZM123.79 190.754L121.865 191.095C121.785 190.849 121.657 190.615 121.482 190.392C121.311 190.17 121.079 189.987 120.786 189.845C120.492 189.703 120.125 189.632 119.685 189.632C119.083 189.632 118.581 189.767 118.179 190.037C117.777 190.302 117.575 190.645 117.575 191.067C117.575 191.431 117.71 191.725 117.98 191.947C118.25 192.17 118.686 192.352 119.287 192.494L121.02 192.892C122.024 193.124 122.772 193.482 123.264 193.964C123.757 194.447 124.003 195.075 124.003 195.847C124.003 196.5 123.813 197.082 123.435 197.594C123.061 198.1 122.537 198.498 121.865 198.787C121.197 199.076 120.423 199.22 119.543 199.22C118.321 199.22 117.324 198.96 116.553 198.439C115.781 197.913 115.307 197.168 115.132 196.202L117.185 195.889C117.313 196.424 117.575 196.829 117.973 197.104C118.371 197.374 118.889 197.509 119.528 197.509C120.224 197.509 120.781 197.364 121.197 197.075C121.614 196.782 121.822 196.424 121.822 196.003C121.822 195.662 121.695 195.375 121.439 195.143C121.188 194.911 120.802 194.736 120.281 194.618L118.435 194.213C117.417 193.981 116.664 193.612 116.176 193.105C115.693 192.598 115.452 191.957 115.452 191.18C115.452 190.536 115.632 189.973 115.991 189.49C116.351 189.007 116.848 188.631 117.483 188.361C118.117 188.086 118.844 187.949 119.663 187.949C120.842 187.949 121.77 188.205 122.447 188.716C123.125 189.223 123.572 189.902 123.79 190.754Z" fill="#030507" fill-opacity="0.25"/>
</svg>
