<svg width="358" height="231" viewBox="0 0 358 231" fill="none" xmlns="http://www.w3.org/2000/svg">
<circle cx="179.5" cy="71.5" r="71.5" fill="#DEDEDE" fill-opacity="0.36"/>
<path d="M183.667 48.6667H165C162.433 48.6667 160.357 50.7667 160.357 53.3334L160.333 90.6667C160.333 93.2334 162.41 95.3334 164.977 95.3334H193C195.567 95.3334 197.667 93.2334 197.667 90.6667V62.6667L183.667 48.6667ZM165 90.6667V53.3334H181.333V65H193V90.6667H165Z" fill="#999595"/>
<path d="M8.83132 185.455H11.3242L15.1239 192.067H15.2802L19.0799 185.455H21.5728L16.2958 194.29V200H14.1083V194.29L8.83132 185.455ZM26.2727 200.22C25.25 200.22 24.3575 199.986 23.5952 199.517C22.8329 199.048 22.241 198.393 21.8196 197.55C21.3982 196.707 21.1875 195.722 21.1875 194.595C21.1875 193.464 21.3982 192.474 21.8196 191.626C22.241 190.779 22.8329 190.121 23.5952 189.652C24.3575 189.183 25.25 188.949 26.2727 188.949C27.2955 188.949 28.188 189.183 28.9503 189.652C29.7126 190.121 30.3045 190.779 30.7259 191.626C31.1473 192.474 31.358 193.464 31.358 194.595C31.358 195.722 31.1473 196.707 30.7259 197.55C30.3045 198.393 29.7126 199.048 28.9503 199.517C28.188 199.986 27.2955 200.22 26.2727 200.22ZM26.2798 198.438C26.9427 198.438 27.492 198.262 27.9276 197.912C28.3632 197.562 28.6851 197.095 28.8935 196.513C29.1065 195.93 29.2131 195.289 29.2131 194.588C29.2131 193.892 29.1065 193.253 28.8935 192.67C28.6851 192.083 28.3632 191.612 27.9276 191.257C27.492 190.902 26.9427 190.724 26.2798 190.724C25.6122 190.724 25.0582 190.902 24.6179 191.257C24.1823 191.612 23.858 192.083 23.6449 192.67C23.4366 193.253 23.3324 193.892 23.3324 194.588C23.3324 195.289 23.4366 195.93 23.6449 196.513C23.858 197.095 24.1823 197.562 24.6179 197.912C25.0582 198.262 25.6122 198.438 26.2798 198.438ZM40.6388 195.476V189.091H42.7695V200H40.6815V198.111H40.5678C40.3169 198.693 39.9144 199.179 39.3604 199.567C38.8112 199.95 38.127 200.142 37.3079 200.142C36.6071 200.142 35.9869 199.988 35.4471 199.68C34.9121 199.368 34.4906 198.906 34.1829 198.295C33.8799 197.685 33.7283 196.929 33.7283 196.03V189.091H35.8519V195.774C35.8519 196.518 36.0579 197.109 36.4698 197.55C36.8817 197.99 37.4168 198.21 38.0749 198.21C38.4727 198.21 38.868 198.111 39.261 197.912C39.6587 197.713 39.9878 197.412 40.2482 197.01C40.5134 196.607 40.6436 196.096 40.6388 195.476ZM45.6229 200V189.091H47.6754V190.824H47.7891C47.9879 190.237 48.3383 189.775 48.8402 189.439C49.3468 189.098 49.9197 188.928 50.5589 188.928C50.6915 188.928 50.8478 188.932 51.0277 188.942C51.2124 188.951 51.3568 188.963 51.4609 188.977V191.009C51.3757 190.985 51.2242 190.959 51.0064 190.93C50.7886 190.897 50.5708 190.881 50.353 190.881C49.8511 190.881 49.4036 190.987 49.0107 191.2C48.6224 191.409 48.3146 191.7 48.0874 192.074C47.8601 192.443 47.7464 192.865 47.7464 193.338V200H45.6229ZM58.5916 204.091V189.091H60.6655V190.859H60.843C60.9661 190.632 61.1437 190.369 61.3757 190.071C61.6077 189.773 61.9297 189.512 62.3416 189.29C62.7536 189.062 63.2981 188.949 63.9751 188.949C64.8558 188.949 65.6418 189.171 66.3331 189.616C67.0244 190.062 67.5665 190.703 67.9595 191.541C68.3572 192.379 68.5561 193.388 68.5561 194.567C68.5561 195.746 68.3596 196.757 67.9666 197.599C67.5736 198.437 67.0339 199.084 66.3473 199.538C65.6607 199.988 64.8771 200.213 63.9964 200.213C63.3336 200.213 62.7914 200.102 62.37 199.879C61.9534 199.657 61.6267 199.396 61.3899 199.098C61.1532 198.8 60.9709 198.535 60.843 198.303H60.7152V204.091H58.5916ZM60.6726 194.545C60.6726 195.312 60.7839 195.985 61.0064 196.562C61.2289 197.14 61.5509 197.592 61.9723 197.919C62.3937 198.241 62.9098 198.402 63.5206 198.402C64.1551 198.402 64.6854 198.234 65.1115 197.898C65.5376 197.557 65.8596 197.095 66.0774 196.513C66.3 195.93 66.4112 195.275 66.4112 194.545C66.4112 193.826 66.3023 193.179 66.0845 192.607C65.8714 192.034 65.5495 191.581 65.1186 191.25C64.6925 190.919 64.1598 190.753 63.5206 190.753C62.9051 190.753 62.3842 190.911 61.9581 191.229C61.5367 191.546 61.2171 191.989 60.9993 192.557C60.7815 193.125 60.6726 193.788 60.6726 194.545ZM77.8459 195.476V189.091H79.9766V200H77.8885V198.111H77.7749C77.5239 198.693 77.1214 199.179 76.5675 199.567C76.0182 199.95 75.334 200.142 74.5149 200.142C73.8142 200.142 73.1939 199.988 72.6541 199.68C72.1191 199.368 71.6977 198.906 71.3899 198.295C71.0869 197.685 70.9354 196.929 70.9354 196.03V189.091H73.0589V195.774C73.0589 196.518 73.2649 197.109 73.6768 197.55C74.0888 197.99 74.6238 198.21 75.282 198.21C75.6797 198.21 76.075 198.111 76.468 197.912C76.8658 197.713 77.1948 197.412 77.4553 197.01C77.7204 196.607 77.8506 196.096 77.8459 195.476ZM83.0004 200V185.455H85.1239V190.859H85.2518C85.3749 190.632 85.5524 190.369 85.7844 190.071C86.0165 189.773 86.3384 189.512 86.7504 189.29C87.1623 189.062 87.7068 188.949 88.3839 188.949C89.2646 188.949 90.0505 189.171 90.7418 189.616C91.4331 190.062 91.9753 190.703 92.3683 191.541C92.766 192.379 92.9648 193.388 92.9648 194.567C92.9648 195.746 92.7683 196.757 92.3754 197.599C91.9824 198.437 91.4426 199.084 90.756 199.538C90.0695 199.988 89.2859 200.213 88.4052 200.213C87.7423 200.213 87.2002 200.102 86.7788 199.879C86.3621 199.657 86.0354 199.396 85.7987 199.098C85.5619 198.8 85.3796 198.535 85.2518 198.303H85.0742V200H83.0004ZM85.0813 194.545C85.0813 195.312 85.1926 195.985 85.4151 196.562C85.6377 197.14 85.9596 197.592 86.381 197.919C86.8024 198.241 87.3185 198.402 87.9293 198.402C88.5638 198.402 89.0941 198.234 89.5202 197.898C89.9464 197.557 90.2683 197.095 90.4862 196.513C90.7087 195.93 90.82 195.275 90.82 194.545C90.82 193.826 90.7111 193.179 90.4933 192.607C90.2802 192.034 89.9582 191.581 89.5273 191.25C89.1012 190.919 88.5685 190.753 87.9293 190.753C87.3138 190.753 86.793 190.911 86.3668 191.229C85.9454 191.546 85.6258 191.989 85.408 192.557C85.1902 193.125 85.0813 193.788 85.0813 194.545ZM97.473 185.455V200H95.3494V185.455H97.473ZM100.33 200V189.091H102.453V200H100.33ZM101.402 187.408C101.033 187.408 100.716 187.285 100.451 187.038C100.19 186.787 100.06 186.489 100.06 186.143C100.06 185.793 100.19 185.495 100.451 185.249C100.716 184.998 101.033 184.872 101.402 184.872C101.772 184.872 102.087 184.998 102.347 185.249C102.612 185.495 102.745 185.793 102.745 186.143C102.745 186.489 102.612 186.787 102.347 187.038C102.087 187.285 101.772 187.408 101.402 187.408ZM113.485 191.754L111.56 192.095C111.48 191.849 111.352 191.615 111.177 191.392C111.006 191.17 110.774 190.987 110.481 190.845C110.187 190.703 109.82 190.632 109.38 190.632C108.779 190.632 108.277 190.767 107.874 191.037C107.472 191.302 107.271 191.645 107.271 192.067C107.271 192.431 107.406 192.725 107.675 192.947C107.945 193.17 108.381 193.352 108.982 193.494L110.715 193.892C111.719 194.124 112.467 194.482 112.96 194.964C113.452 195.447 113.698 196.075 113.698 196.847C113.698 197.5 113.509 198.082 113.13 198.594C112.756 199.1 112.233 199.498 111.56 199.787C110.893 200.076 110.119 200.22 109.238 200.22C108.016 200.22 107.02 199.96 106.248 199.439C105.476 198.913 105.003 198.168 104.827 197.202L106.88 196.889C107.008 197.424 107.271 197.829 107.668 198.104C108.066 198.374 108.585 198.509 109.224 198.509C109.92 198.509 110.476 198.364 110.893 198.075C111.309 197.782 111.518 197.424 111.518 197.003C111.518 196.662 111.39 196.375 111.134 196.143C110.883 195.911 110.497 195.736 109.977 195.618L108.13 195.213C107.112 194.981 106.359 194.612 105.871 194.105C105.388 193.598 105.147 192.957 105.147 192.18C105.147 191.536 105.327 190.973 105.687 190.49C106.047 190.007 106.544 189.631 107.178 189.361C107.813 189.086 108.54 188.949 109.359 188.949C110.538 188.949 111.466 189.205 112.143 189.716C112.82 190.223 113.267 190.902 113.485 191.754ZM118.157 193.523V200H116.033V185.455H118.128V190.866H118.263C118.519 190.279 118.909 189.813 119.435 189.467C119.961 189.122 120.647 188.949 121.495 188.949C122.243 188.949 122.896 189.103 123.455 189.411C124.018 189.718 124.454 190.178 124.762 190.788C125.074 191.394 125.23 192.152 125.23 193.061V200H123.107V193.317C123.107 192.517 122.901 191.896 122.489 191.456C122.077 191.011 121.504 190.788 120.77 190.788C120.268 190.788 119.819 190.895 119.421 191.108C119.028 191.321 118.718 191.634 118.49 192.045C118.268 192.453 118.157 192.945 118.157 193.523ZM132.766 200.22C131.691 200.22 130.766 199.991 129.989 199.531C129.217 199.067 128.621 198.416 128.199 197.578C127.783 196.735 127.574 195.748 127.574 194.616C127.574 193.499 127.783 192.514 128.199 191.662C128.621 190.81 129.208 190.144 129.961 189.666C130.718 189.188 131.604 188.949 132.617 188.949C133.232 188.949 133.829 189.051 134.407 189.254C134.984 189.458 135.503 189.777 135.962 190.213C136.421 190.649 136.783 191.214 137.049 191.911C137.314 192.602 137.446 193.442 137.446 194.432V195.185H128.775V193.594H135.365C135.365 193.035 135.252 192.54 135.025 192.109C134.797 191.674 134.478 191.33 134.066 191.08C133.658 190.829 133.18 190.703 132.631 190.703C132.034 190.703 131.514 190.85 131.069 191.143C130.628 191.432 130.287 191.811 130.046 192.28C129.809 192.744 129.691 193.248 129.691 193.793V195.036C129.691 195.765 129.819 196.385 130.074 196.896C130.335 197.408 130.697 197.798 131.161 198.068C131.625 198.333 132.167 198.466 132.787 198.466C133.19 198.466 133.557 198.409 133.888 198.295C134.22 198.177 134.506 198.002 134.748 197.77C134.989 197.538 135.174 197.251 135.301 196.911L137.311 197.273C137.15 197.865 136.862 198.383 136.445 198.828C136.033 199.268 135.515 199.612 134.89 199.858C134.269 200.099 133.561 200.22 132.766 200.22ZM143.886 200.213C143.006 200.213 142.22 199.988 141.528 199.538C140.842 199.084 140.302 198.437 139.909 197.599C139.521 196.757 139.327 195.746 139.327 194.567C139.327 193.388 139.523 192.379 139.916 191.541C140.314 190.703 140.858 190.062 141.55 189.616C142.241 189.171 143.025 188.949 143.901 188.949C144.578 188.949 145.122 189.062 145.534 189.29C145.951 189.512 146.273 189.773 146.5 190.071C146.732 190.369 146.912 190.632 147.04 190.859H147.168V185.455H149.291V200H147.217V198.303H147.04C146.912 198.535 146.727 198.8 146.486 199.098C146.249 199.396 145.922 199.657 145.506 199.879C145.089 200.102 144.549 200.213 143.886 200.213ZM144.355 198.402C144.966 198.402 145.482 198.241 145.903 197.919C146.33 197.592 146.652 197.14 146.869 196.562C147.092 195.985 147.203 195.312 147.203 194.545C147.203 193.788 147.094 193.125 146.876 192.557C146.659 191.989 146.339 191.546 145.918 191.229C145.496 190.911 144.975 190.753 144.355 190.753C143.716 190.753 143.183 190.919 142.757 191.25C142.331 191.581 142.009 192.034 141.791 192.607C141.578 193.179 141.472 193.826 141.472 194.545C141.472 195.275 141.58 195.93 141.798 196.513C142.016 197.095 142.338 197.557 142.764 197.898C143.195 198.234 143.725 198.402 144.355 198.402ZM160.79 200.241C160.098 200.241 159.473 200.114 158.915 199.858C158.356 199.598 157.913 199.221 157.587 198.729C157.265 198.236 157.104 197.633 157.104 196.918C157.104 196.302 157.222 195.795 157.459 195.398C157.696 195 158.015 194.685 158.418 194.453C158.82 194.221 159.27 194.046 159.767 193.928C160.264 193.809 160.771 193.719 161.287 193.658C161.94 193.582 162.471 193.52 162.878 193.473C163.285 193.421 163.581 193.338 163.766 193.224C163.95 193.111 164.043 192.926 164.043 192.67V192.621C164.043 192 163.867 191.52 163.517 191.179C163.171 190.838 162.655 190.668 161.969 190.668C161.254 190.668 160.69 190.826 160.278 191.143C159.871 191.456 159.589 191.804 159.433 192.188L157.438 191.733C157.674 191.07 158.02 190.535 158.474 190.128C158.934 189.716 159.462 189.418 160.058 189.233C160.655 189.044 161.282 188.949 161.94 188.949C162.376 188.949 162.838 189.001 163.325 189.105C163.818 189.205 164.277 189.389 164.703 189.659C165.134 189.929 165.487 190.315 165.761 190.817C166.036 191.314 166.173 191.96 166.173 192.756V200H164.099V198.509H164.014C163.877 198.783 163.671 199.053 163.396 199.318C163.122 199.583 162.769 199.804 162.338 199.979C161.907 200.154 161.391 200.241 160.79 200.241ZM161.251 198.537C161.839 198.537 162.34 198.421 162.757 198.189C163.179 197.957 163.498 197.654 163.716 197.28C163.938 196.901 164.05 196.496 164.05 196.065V194.659C163.974 194.735 163.827 194.806 163.609 194.872C163.396 194.934 163.152 194.988 162.878 195.036C162.603 195.078 162.336 195.118 162.075 195.156C161.815 195.189 161.597 195.218 161.422 195.241C161.01 195.294 160.634 195.381 160.293 195.504C159.956 195.627 159.687 195.805 159.483 196.037C159.284 196.264 159.185 196.567 159.185 196.946C159.185 197.472 159.379 197.869 159.767 198.139C160.155 198.404 160.65 198.537 161.251 198.537ZM169.002 200V189.091H171.054V190.824H171.168C171.367 190.237 171.717 189.775 172.219 189.439C172.726 189.098 173.299 188.928 173.938 188.928C174.07 188.928 174.227 188.932 174.407 188.942C174.591 188.951 174.736 188.963 174.84 188.977V191.009C174.755 190.985 174.603 190.959 174.385 190.93C174.167 190.897 173.95 190.881 173.732 190.881C173.23 190.881 172.783 190.987 172.39 191.2C172.001 191.409 171.694 191.7 171.466 192.074C171.239 192.443 171.125 192.865 171.125 193.338V200H169.002ZM182.414 189.091V190.795H176.456V189.091H182.414ZM178.054 186.477H180.177V196.797C180.177 197.209 180.239 197.519 180.362 197.727C180.485 197.931 180.644 198.071 180.838 198.146C181.037 198.217 181.252 198.253 181.484 198.253C181.654 198.253 181.804 198.241 181.931 198.217C182.059 198.194 182.159 198.175 182.23 198.161L182.613 199.915C182.49 199.962 182.315 200.009 182.088 200.057C181.86 200.109 181.576 200.137 181.235 200.142C180.677 200.152 180.156 200.052 179.673 199.844C179.19 199.635 178.799 199.313 178.501 198.878C178.203 198.442 178.054 197.895 178.054 197.237V186.477ZM184.763 200V189.091H186.887V200H184.763ZM185.836 187.408C185.467 187.408 185.149 187.285 184.884 187.038C184.624 186.787 184.494 186.489 184.494 186.143C184.494 185.793 184.624 185.495 184.884 185.249C185.149 184.998 185.467 184.872 185.836 184.872C186.205 184.872 186.52 184.998 186.781 185.249C187.046 185.495 187.178 185.793 187.178 186.143C187.178 186.489 187.046 186.787 186.781 187.038C186.52 187.285 186.205 187.408 185.836 187.408ZM194.339 200.22C193.283 200.22 192.374 199.981 191.612 199.503C190.854 199.02 190.272 198.355 189.865 197.507C189.458 196.66 189.254 195.689 189.254 194.595C189.254 193.487 189.462 192.509 189.879 191.662C190.296 190.81 190.883 190.144 191.64 189.666C192.398 189.188 193.29 188.949 194.318 188.949C195.146 188.949 195.885 189.103 196.534 189.411C197.182 189.714 197.706 190.14 198.103 190.689C198.506 191.238 198.745 191.88 198.821 192.614H196.754C196.64 192.102 196.38 191.662 195.973 191.293C195.57 190.923 195.03 190.739 194.353 190.739C193.761 190.739 193.243 190.895 192.798 191.207C192.358 191.515 192.014 191.955 191.768 192.528C191.522 193.097 191.399 193.769 191.399 194.545C191.399 195.341 191.52 196.027 191.761 196.605C192.002 197.183 192.343 197.63 192.784 197.947C193.229 198.265 193.752 198.423 194.353 198.423C194.756 198.423 195.12 198.35 195.447 198.203C195.779 198.052 196.056 197.836 196.278 197.557C196.505 197.277 196.664 196.941 196.754 196.548H198.821C198.745 197.254 198.515 197.884 198.132 198.438C197.748 198.991 197.234 199.427 196.591 199.744C195.951 200.062 195.201 200.22 194.339 200.22ZM203.215 185.455V200H201.092V185.455H203.215ZM210.774 200.22C209.699 200.22 208.773 199.991 207.997 199.531C207.225 199.067 206.628 198.416 206.207 197.578C205.79 196.735 205.582 195.748 205.582 194.616C205.582 193.499 205.79 192.514 206.207 191.662C206.628 190.81 207.216 190.144 207.968 189.666C208.726 189.188 209.611 188.949 210.625 188.949C211.24 188.949 211.837 189.051 212.414 189.254C212.992 189.458 213.511 189.777 213.97 190.213C214.429 190.649 214.791 191.214 215.056 191.911C215.322 192.602 215.454 193.442 215.454 194.432V195.185H206.782V193.594H213.373C213.373 193.035 213.26 192.54 213.032 192.109C212.805 191.674 212.485 191.33 212.074 191.08C211.666 190.829 211.188 190.703 210.639 190.703C210.042 190.703 209.521 190.85 209.076 191.143C208.636 191.432 208.295 191.811 208.054 192.28C207.817 192.744 207.699 193.248 207.699 193.793V195.036C207.699 195.765 207.826 196.385 208.082 196.896C208.342 197.408 208.705 197.798 209.169 198.068C209.633 198.333 210.175 198.466 210.795 198.466C211.198 198.466 211.565 198.409 211.896 198.295C212.227 198.177 212.514 198.002 212.755 197.77C212.997 197.538 213.181 197.251 213.309 196.911L215.319 197.273C215.158 197.865 214.869 198.383 214.453 198.828C214.041 199.268 213.522 199.612 212.897 199.858C212.277 200.099 211.569 200.22 210.774 200.22ZM225.985 191.754L224.06 192.095C223.98 191.849 223.852 191.615 223.677 191.392C223.506 191.17 223.274 190.987 222.981 190.845C222.687 190.703 222.32 190.632 221.88 190.632C221.279 190.632 220.777 190.767 220.374 191.037C219.972 191.302 219.771 191.645 219.771 192.067C219.771 192.431 219.906 192.725 220.175 192.947C220.445 193.17 220.881 193.352 221.482 193.494L223.215 193.892C224.219 194.124 224.967 194.482 225.46 194.964C225.952 195.447 226.198 196.075 226.198 196.847C226.198 197.5 226.009 198.082 225.63 198.594C225.256 199.1 224.733 199.498 224.06 199.787C223.393 200.076 222.619 200.22 221.738 200.22C220.516 200.22 219.52 199.96 218.748 199.439C217.976 198.913 217.503 198.168 217.327 197.202L219.38 196.889C219.508 197.424 219.771 197.829 220.168 198.104C220.566 198.374 221.085 198.509 221.724 198.509C222.42 198.509 222.976 198.364 223.393 198.075C223.809 197.782 224.018 197.424 224.018 197.003C224.018 196.662 223.89 196.375 223.634 196.143C223.383 195.911 222.997 195.736 222.477 195.618L220.63 195.213C219.612 194.981 218.859 194.612 218.371 194.105C217.888 193.598 217.647 192.957 217.647 192.18C217.647 191.536 217.827 190.973 218.187 190.49C218.547 190.007 219.044 189.631 219.678 189.361C220.313 189.086 221.04 188.949 221.859 188.949C223.038 188.949 223.966 189.205 224.643 189.716C225.32 190.223 225.767 190.902 225.985 191.754ZM236.191 200L232.981 189.091H235.175L237.313 197.102H237.42L239.565 189.091H241.759L243.89 197.067H243.996L246.12 189.091H248.315L245.112 200H242.945L240.729 192.124H240.566L238.35 200H236.191ZM250.33 200V189.091H252.453V200H250.33ZM251.402 187.408C251.033 187.408 250.716 187.285 250.451 187.038C250.19 186.787 250.06 186.489 250.06 186.143C250.06 185.793 250.19 185.495 250.451 185.249C250.716 184.998 251.033 184.872 251.402 184.872C251.772 184.872 252.087 184.998 252.347 185.249C252.612 185.495 252.745 185.793 252.745 186.143C252.745 186.489 252.612 186.787 252.347 187.038C252.087 187.285 251.772 187.408 251.402 187.408ZM257.434 185.455V200H255.31V185.455H257.434ZM262.414 185.455V200H260.291V185.455H262.414ZM278.739 191.754L276.814 192.095C276.734 191.849 276.606 191.615 276.431 191.392C276.26 191.17 276.028 190.987 275.735 190.845C275.441 190.703 275.074 190.632 274.634 190.632C274.033 190.632 273.531 190.767 273.128 191.037C272.726 191.302 272.525 191.645 272.525 192.067C272.525 192.431 272.659 192.725 272.929 192.947C273.199 193.17 273.635 193.352 274.236 193.494L275.969 193.892C276.973 194.124 277.721 194.482 278.213 194.964C278.706 195.447 278.952 196.075 278.952 196.847C278.952 197.5 278.763 198.082 278.384 198.594C278.01 199.1 277.487 199.498 276.814 199.787C276.147 200.076 275.373 200.22 274.492 200.22C273.27 200.22 272.274 199.96 271.502 199.439C270.73 198.913 270.257 198.168 270.081 197.202L272.134 196.889C272.262 197.424 272.525 197.829 272.922 198.104C273.32 198.374 273.838 198.509 274.478 198.509C275.174 198.509 275.73 198.364 276.147 198.075C276.563 197.782 276.772 197.424 276.772 197.003C276.772 196.662 276.644 196.375 276.388 196.143C276.137 195.911 275.751 195.736 275.23 195.618L273.384 195.213C272.366 194.981 271.613 194.612 271.125 194.105C270.642 193.598 270.401 192.957 270.401 192.18C270.401 191.536 270.581 190.973 270.941 190.49C271.301 190.007 271.798 189.631 272.432 189.361C273.067 189.086 273.793 188.949 274.613 188.949C275.792 188.949 276.72 189.205 277.397 189.716C278.074 190.223 278.521 190.902 278.739 191.754ZM283.411 193.523V200H281.287V185.455H283.382V190.866H283.517C283.773 190.279 284.163 189.813 284.689 189.467C285.214 189.122 285.901 188.949 286.749 188.949C287.497 188.949 288.15 189.103 288.709 189.411C289.272 189.718 289.708 190.178 290.016 190.788C290.328 191.394 290.484 192.152 290.484 193.061V200H288.361V193.317C288.361 192.517 288.155 191.896 287.743 191.456C287.331 191.011 286.758 190.788 286.024 190.788C285.522 190.788 285.072 190.895 284.675 191.108C284.282 191.321 283.972 191.634 283.744 192.045C283.522 192.453 283.411 192.945 283.411 193.523ZM297.913 200.22C296.891 200.22 295.998 199.986 295.236 199.517C294.473 199.048 293.882 198.393 293.46 197.55C293.039 196.707 292.828 195.722 292.828 194.595C292.828 193.464 293.039 192.474 293.46 191.626C293.882 190.779 294.473 190.121 295.236 189.652C295.998 189.183 296.891 188.949 297.913 188.949C298.936 188.949 299.829 189.183 300.591 189.652C301.353 190.121 301.945 190.779 302.366 191.626C302.788 192.474 302.999 193.464 302.999 194.595C302.999 195.722 302.788 196.707 302.366 197.55C301.945 198.393 301.353 199.048 300.591 199.517C299.829 199.986 298.936 200.22 297.913 200.22ZM297.92 198.438C298.583 198.438 299.133 198.262 299.568 197.912C300.004 197.562 300.326 197.095 300.534 196.513C300.747 195.93 300.854 195.289 300.854 194.588C300.854 193.892 300.747 193.253 300.534 192.67C300.326 192.083 300.004 191.612 299.568 191.257C299.133 190.902 298.583 190.724 297.92 190.724C297.253 190.724 296.699 190.902 296.259 191.257C295.823 191.612 295.499 192.083 295.286 192.67C295.077 193.253 294.973 193.892 294.973 194.588C294.973 195.289 295.077 195.93 295.286 196.513C295.499 197.095 295.823 197.562 296.259 197.912C296.699 198.262 297.253 198.438 297.92 198.438ZM307.402 200L304.192 189.091H306.386L308.524 197.102H308.631L310.776 189.091H312.97L315.101 197.067H315.207L317.331 189.091H319.526L316.322 200H314.156L311.94 192.124H311.777L309.561 200H307.402ZM333.744 195.476V189.091H335.875V200H333.787V198.111H333.673C333.422 198.693 333.02 199.179 332.466 199.567C331.917 199.95 331.232 200.142 330.413 200.142C329.713 200.142 329.092 199.988 328.553 199.68C328.018 199.368 327.596 198.906 327.288 198.295C326.985 197.685 326.834 196.929 326.834 196.03V189.091H328.957V195.774C328.957 196.518 329.163 197.109 329.575 197.55C329.987 197.99 330.522 198.21 331.18 198.21C331.578 198.21 331.973 198.111 332.366 197.912C332.764 197.713 333.093 197.412 333.354 197.01C333.619 196.607 333.749 196.096 333.744 195.476ZM338.728 204.091V189.091H340.802V190.859H340.98C341.103 190.632 341.28 190.369 341.512 190.071C341.744 189.773 342.066 189.512 342.478 189.29C342.89 189.062 343.435 188.949 344.112 188.949C344.993 188.949 345.779 189.171 346.47 189.616C347.161 190.062 347.703 190.703 348.096 191.541C348.494 192.379 348.693 193.388 348.693 194.567C348.693 195.746 348.496 196.757 348.103 197.599C347.71 198.437 347.171 199.084 346.484 199.538C345.797 199.988 345.014 200.213 344.133 200.213C343.47 200.213 342.928 200.102 342.507 199.879C342.09 199.657 341.763 199.396 341.527 199.098C341.29 198.8 341.108 198.535 340.98 198.303H340.852V204.091H338.728ZM340.809 194.545C340.809 195.312 340.921 195.985 341.143 196.562C341.366 197.14 341.688 197.592 342.109 197.919C342.53 198.241 343.047 198.402 343.657 198.402C344.292 198.402 344.822 198.234 345.248 197.898C345.674 197.557 345.996 197.095 346.214 196.513C346.437 195.93 346.548 195.275 346.548 194.545C346.548 193.826 346.439 193.179 346.221 192.607C346.008 192.034 345.686 191.581 345.255 191.25C344.829 190.919 344.297 190.753 343.657 190.753C343.042 190.753 342.521 190.911 342.095 191.229C341.673 191.546 341.354 191.989 341.136 192.557C340.918 193.125 340.809 193.788 340.809 194.545ZM21.7308 217.523V224H19.6072V209.455H21.7024V214.866H21.8374C22.093 214.279 22.4837 213.813 23.0092 213.467C23.5348 213.122 24.2214 212.949 25.0689 212.949C25.817 212.949 26.4704 213.103 27.0291 213.411C27.5926 213.718 28.0282 214.178 28.3359 214.788C28.6484 215.394 28.8047 216.152 28.8047 217.061V224H26.6811V217.317C26.6811 216.517 26.4751 215.896 26.0632 215.456C25.6513 215.011 25.0784 214.788 24.3445 214.788C23.8426 214.788 23.3928 214.895 22.995 215.108C22.602 215.321 22.2919 215.634 22.0646 216.045C21.8421 216.453 21.7308 216.945 21.7308 217.523ZM36.3402 224.22C35.2654 224.22 34.3397 223.991 33.5632 223.531C32.7914 223.067 32.1948 222.416 31.7734 221.578C31.3568 220.735 31.1484 219.748 31.1484 218.616C31.1484 217.499 31.3568 216.514 31.7734 215.662C32.1948 214.81 32.782 214.144 33.5348 213.666C34.2924 213.188 35.1778 212.949 36.1911 212.949C36.8066 212.949 37.4032 213.051 37.9808 213.254C38.5585 213.458 39.0769 213.777 39.5362 214.213C39.9955 214.649 40.3577 215.214 40.6229 215.911C40.888 216.602 41.0206 217.442 41.0206 218.432V219.185H32.3487V217.594H38.9396C38.9396 217.035 38.826 216.54 38.5987 216.109C38.3714 215.674 38.0518 215.33 37.6399 215.08C37.2327 214.829 36.7545 214.703 36.2053 214.703C35.6087 214.703 35.0878 214.85 34.6428 215.143C34.2024 215.432 33.8615 215.811 33.62 216.28C33.3833 216.744 33.2649 217.248 33.2649 217.793V219.036C33.2649 219.765 33.3928 220.385 33.6484 220.896C33.9089 221.408 34.2711 221.798 34.7351 222.068C35.1991 222.333 35.7412 222.466 36.3615 222.466C36.764 222.466 37.1309 222.409 37.4624 222.295C37.7938 222.177 38.0803 222.002 38.3217 221.77C38.5632 221.538 38.7479 221.251 38.8757 220.911L40.8857 221.273C40.7247 221.865 40.4358 222.383 40.0192 222.828C39.6072 223.268 39.0888 223.612 38.4638 223.858C37.8435 224.099 37.1357 224.22 36.3402 224.22ZM43.3768 224V213.091H45.4293V214.824H45.543C45.7418 214.237 46.0922 213.775 46.5941 213.439C47.1007 213.098 47.6737 212.928 48.3129 212.928C48.4454 212.928 48.6017 212.932 48.7816 212.942C48.9663 212.951 49.1107 212.963 49.2148 212.977V215.009C49.1296 214.985 48.9781 214.959 48.7603 214.93C48.5425 214.897 48.3247 214.881 48.1069 214.881C47.605 214.881 47.1576 214.987 46.7646 215.2C46.3763 215.409 46.0685 215.7 45.8413 216.074C45.614 216.443 45.5004 216.865 45.5004 217.338V224H43.3768ZM55.3636 224.22C54.2888 224.22 53.3632 223.991 52.5866 223.531C51.8149 223.067 51.2183 222.416 50.7969 221.578C50.3802 220.735 50.1719 219.748 50.1719 218.616C50.1719 217.499 50.3802 216.514 50.7969 215.662C51.2183 214.81 51.8054 214.144 52.5582 213.666C53.3158 213.188 54.2012 212.949 55.2145 212.949C55.83 212.949 56.4266 213.051 57.0043 213.254C57.5819 213.458 58.1004 213.777 58.5597 214.213C59.0189 214.649 59.3812 215.214 59.6463 215.911C59.9115 216.602 60.044 217.442 60.044 218.432V219.185H51.3722V217.594H57.9631C57.9631 217.035 57.8494 216.54 57.6222 216.109C57.3949 215.674 57.0753 215.33 56.6634 215.08C56.2562 214.829 55.7779 214.703 55.2287 214.703C54.6321 214.703 54.1113 214.85 53.6662 215.143C53.2259 215.432 52.8849 215.811 52.6435 216.28C52.4067 216.744 52.2884 217.248 52.2884 217.793V219.036C52.2884 219.765 52.4162 220.385 52.6719 220.896C52.9323 221.408 53.2945 221.798 53.7585 222.068C54.2225 222.333 54.7647 222.466 55.3849 222.466C55.7874 222.466 56.1544 222.409 56.4858 222.295C56.8172 222.177 57.1037 222.002 57.3452 221.77C57.5866 221.538 57.7713 221.251 57.8991 220.911L59.9091 221.273C59.7481 221.865 59.4593 222.383 59.0426 222.828C58.6307 223.268 58.1122 223.612 57.4872 223.858C56.867 224.099 56.1591 224.22 55.3636 224.22ZM63.7994 224.135C63.4111 224.135 63.0773 223.998 62.7979 223.723C62.5186 223.444 62.3789 223.107 62.3789 222.714C62.3789 222.326 62.5186 221.995 62.7979 221.72C63.0773 221.441 63.4111 221.301 63.7994 221.301C64.1876 221.301 64.5214 221.441 64.8008 221.72C65.0801 221.995 65.2198 222.326 65.2198 222.714C65.2198 222.975 65.1535 223.214 65.021 223.432C64.8931 223.645 64.7227 223.815 64.5096 223.943C64.2965 224.071 64.0598 224.135 63.7994 224.135ZM73.2933 224V209.455H78.478C79.6096 209.455 80.5471 209.661 81.2905 210.072C82.0339 210.484 82.5902 211.048 82.9595 211.763C83.3288 212.473 83.5135 213.273 83.5135 214.163C83.5135 215.058 83.3265 215.863 82.9524 216.578C82.5831 217.288 82.0244 217.852 81.2763 218.268C80.5329 218.68 79.5978 218.886 78.4709 218.886H74.9055V217.026H78.272C78.987 217.026 79.567 216.902 80.0121 216.656C80.4571 216.405 80.7839 216.064 80.9922 215.634C81.2005 215.203 81.3047 214.713 81.3047 214.163C81.3047 213.614 81.2005 213.126 80.9922 212.7C80.7839 212.274 80.4548 211.94 80.005 211.699C79.5599 211.457 78.9728 211.337 78.2436 211.337H75.4879V224H73.2933ZM92.8263 219.476V213.091H94.957V224H92.869V222.111H92.7553C92.5044 222.693 92.1019 223.179 91.5479 223.567C90.9987 223.95 90.3145 224.142 89.4954 224.142C88.7946 224.142 88.1744 223.988 87.6346 223.68C87.0996 223.368 86.6781 222.906 86.3704 222.295C86.0674 221.685 85.9158 220.929 85.9158 220.03V213.091H88.0394V219.774C88.0394 220.518 88.2454 221.109 88.6573 221.55C89.0692 221.99 89.6043 222.21 90.2624 222.21C90.6602 222.21 91.0555 222.111 91.4485 221.912C91.8462 221.713 92.1753 221.412 92.4357 221.01C92.7009 220.607 92.8311 220.096 92.8263 219.476ZM97.9808 224V209.455H100.104V214.859H100.232C100.355 214.632 100.533 214.369 100.765 214.071C100.997 213.773 101.319 213.512 101.731 213.29C102.143 213.062 102.687 212.949 103.364 212.949C104.245 212.949 105.031 213.171 105.722 213.616C106.414 214.062 106.956 214.703 107.349 215.541C107.746 216.379 107.945 217.388 107.945 218.567C107.945 219.746 107.749 220.757 107.356 221.599C106.963 222.437 106.423 223.084 105.737 223.538C105.05 223.988 104.266 224.213 103.386 224.213C102.723 224.213 102.181 224.102 101.759 223.879C101.343 223.657 101.016 223.396 100.779 223.098C100.542 222.8 100.36 222.535 100.232 222.303H100.055V224H97.9808ZM100.062 218.545C100.062 219.312 100.173 219.985 100.396 220.562C100.618 221.14 100.94 221.592 101.362 221.919C101.783 222.241 102.299 222.402 102.91 222.402C103.544 222.402 104.075 222.234 104.501 221.898C104.927 221.557 105.249 221.095 105.467 220.513C105.689 219.93 105.8 219.275 105.8 218.545C105.8 217.826 105.692 217.179 105.474 216.607C105.261 216.034 104.939 215.581 104.508 215.25C104.082 214.919 103.549 214.753 102.91 214.753C102.294 214.753 101.773 214.911 101.347 215.229C100.926 215.546 100.606 215.989 100.388 216.557C100.171 217.125 100.062 217.788 100.062 218.545ZM112.453 209.455V224H110.33V209.455H112.453ZM115.31 224V213.091H117.434V224H115.31ZM116.383 211.408C116.013 211.408 115.696 211.285 115.431 211.038C115.171 210.787 115.04 210.489 115.04 210.143C115.04 209.793 115.171 209.495 115.431 209.249C115.696 208.998 116.013 208.872 116.383 208.872C116.752 208.872 117.067 208.998 117.327 209.249C117.593 209.495 117.725 209.793 117.725 210.143C117.725 210.489 117.593 210.787 117.327 211.038C117.067 211.285 116.752 211.408 116.383 211.408ZM128.466 215.754L126.541 216.095C126.46 215.849 126.333 215.615 126.157 215.392C125.987 215.17 125.755 214.987 125.461 214.845C125.168 214.703 124.801 214.632 124.36 214.632C123.759 214.632 123.257 214.767 122.855 215.037C122.452 215.302 122.251 215.645 122.251 216.067C122.251 216.431 122.386 216.725 122.656 216.947C122.926 217.17 123.361 217.352 123.963 217.494L125.696 217.892C126.699 218.124 127.448 218.482 127.94 218.964C128.432 219.447 128.679 220.075 128.679 220.847C128.679 221.5 128.489 222.082 128.11 222.594C127.736 223.1 127.213 223.498 126.541 223.787C125.873 224.076 125.099 224.22 124.218 224.22C122.997 224.22 122 223.96 121.228 223.439C120.457 222.913 119.983 222.168 119.808 221.202L121.86 220.889C121.988 221.424 122.251 221.829 122.649 222.104C123.047 222.374 123.565 222.509 124.204 222.509C124.9 222.509 125.457 222.364 125.873 222.075C126.29 221.782 126.498 221.424 126.498 221.003C126.498 220.662 126.37 220.375 126.115 220.143C125.864 219.911 125.478 219.736 124.957 219.618L123.11 219.213C122.092 218.981 121.34 218.612 120.852 218.105C120.369 217.598 120.127 216.957 120.127 216.18C120.127 215.536 120.307 214.973 120.667 214.49C121.027 214.007 121.524 213.631 122.159 213.361C122.793 213.086 123.52 212.949 124.339 212.949C125.518 212.949 126.446 213.205 127.123 213.716C127.8 214.223 128.248 214.902 128.466 215.754ZM133.137 217.523V224H131.013V209.455H133.109V214.866H133.244C133.499 214.279 133.89 213.813 134.415 213.467C134.941 213.122 135.628 212.949 136.475 212.949C137.223 212.949 137.877 213.103 138.435 213.411C138.999 213.718 139.434 214.178 139.742 214.788C140.055 215.394 140.211 216.152 140.211 217.061V224H138.087V217.317C138.087 216.517 137.881 215.896 137.469 215.456C137.058 215.011 136.485 214.788 135.751 214.788C135.249 214.788 134.799 214.895 134.401 215.108C134.008 215.321 133.698 215.634 133.471 216.045C133.248 216.453 133.137 216.945 133.137 217.523ZM148.585 208.773L143.897 226.188H142.001L146.688 208.773H148.585ZM152.754 209.455V224H150.559V209.455H152.754ZM155.779 224V213.091H157.817V214.866H157.952C158.18 214.265 158.551 213.796 159.067 213.46C159.584 213.119 160.201 212.949 160.921 212.949C161.65 212.949 162.261 213.119 162.754 213.46C163.251 213.801 163.618 214.27 163.854 214.866H163.968C164.228 214.284 164.643 213.82 165.211 213.474C165.779 213.124 166.456 212.949 167.242 212.949C168.232 212.949 169.039 213.259 169.664 213.879C170.294 214.5 170.609 215.435 170.609 216.685V224H168.485V216.884C168.485 216.145 168.284 215.61 167.881 215.278C167.479 214.947 166.998 214.781 166.44 214.781C165.748 214.781 165.211 214.994 164.827 215.42C164.444 215.842 164.252 216.384 164.252 217.047V224H162.136V216.749C162.136 216.157 161.951 215.681 161.582 215.321C161.212 214.961 160.732 214.781 160.14 214.781C159.737 214.781 159.366 214.888 159.025 215.101C158.689 215.309 158.416 215.6 158.208 215.974C158.004 216.348 157.903 216.782 157.903 217.274V224H155.779ZM173.455 228.091V213.091H175.529V214.859H175.706C175.829 214.632 176.007 214.369 176.239 214.071C176.471 213.773 176.793 213.512 177.205 213.29C177.617 213.062 178.161 212.949 178.838 212.949C179.719 212.949 180.505 213.171 181.196 213.616C181.888 214.062 182.43 214.703 182.823 215.541C183.221 216.379 183.419 217.388 183.419 218.567C183.419 219.746 183.223 220.757 182.83 221.599C182.437 222.437 181.897 223.084 181.211 223.538C180.524 223.988 179.74 224.213 178.86 224.213C178.197 224.213 177.655 224.102 177.233 223.879C176.817 223.657 176.49 223.396 176.253 223.098C176.016 222.8 175.834 222.535 175.706 222.303H175.578V228.091H173.455ZM175.536 218.545C175.536 219.312 175.647 219.985 175.87 220.562C176.092 221.14 176.414 221.592 176.836 221.919C177.257 222.241 177.773 222.402 178.384 222.402C179.018 222.402 179.549 222.234 179.975 221.898C180.401 221.557 180.723 221.095 180.941 220.513C181.163 219.93 181.275 219.275 181.275 218.545C181.275 217.826 181.166 217.179 180.948 216.607C180.735 216.034 180.413 215.581 179.982 215.25C179.556 214.919 179.023 214.753 178.384 214.753C177.768 214.753 177.248 214.911 176.821 215.229C176.4 215.546 176.08 215.989 175.863 216.557C175.645 217.125 175.536 217.788 175.536 218.545ZM190.394 224.22C189.371 224.22 188.479 223.986 187.716 223.517C186.954 223.048 186.362 222.393 185.941 221.55C185.519 220.707 185.309 219.722 185.309 218.595C185.309 217.464 185.519 216.474 185.941 215.626C186.362 214.779 186.954 214.121 187.716 213.652C188.479 213.183 189.371 212.949 190.394 212.949C191.417 212.949 192.309 213.183 193.071 213.652C193.834 214.121 194.426 214.779 194.847 215.626C195.268 216.474 195.479 217.464 195.479 218.595C195.479 219.722 195.268 220.707 194.847 221.55C194.426 222.393 193.834 223.048 193.071 223.517C192.309 223.986 191.417 224.22 190.394 224.22ZM190.401 222.438C191.064 222.438 191.613 222.262 192.049 221.912C192.484 221.562 192.806 221.095 193.015 220.513C193.228 219.93 193.334 219.289 193.334 218.588C193.334 217.892 193.228 217.253 193.015 216.67C192.806 216.083 192.484 215.612 192.049 215.257C191.613 214.902 191.064 214.724 190.401 214.724C189.733 214.724 189.179 214.902 188.739 215.257C188.303 215.612 187.979 216.083 187.766 216.67C187.558 217.253 187.453 217.892 187.453 218.588C187.453 219.289 187.558 219.93 187.766 220.513C187.979 221.095 188.303 221.562 188.739 221.912C189.179 222.262 189.733 222.438 190.401 222.438ZM197.849 224V213.091H199.902V214.824H200.016C200.214 214.237 200.565 213.775 201.067 213.439C201.573 213.098 202.146 212.928 202.786 212.928C202.918 212.928 203.074 212.932 203.254 212.942C203.439 212.951 203.583 212.963 203.688 212.977V215.009C203.602 214.985 203.451 214.959 203.233 214.93C203.015 214.897 202.797 214.881 202.58 214.881C202.078 214.881 201.63 214.987 201.237 215.2C200.849 215.409 200.541 215.7 200.314 216.074C200.087 216.443 199.973 216.865 199.973 217.338V224H197.849ZM211.262 213.091V214.795H205.303V213.091H211.262ZM206.901 210.477H209.025V220.797C209.025 221.209 209.086 221.519 209.21 221.727C209.333 221.931 209.491 222.071 209.685 222.146C209.884 222.217 210.1 222.253 210.332 222.253C210.502 222.253 210.651 222.241 210.779 222.217C210.907 222.194 211.006 222.175 211.077 222.161L211.461 223.915C211.338 223.962 211.163 224.009 210.935 224.057C210.708 224.109 210.424 224.137 210.083 224.142C209.524 224.152 209.004 224.052 208.521 223.844C208.038 223.635 207.647 223.313 207.349 222.878C207.05 222.442 206.901 221.895 206.901 221.237V210.477ZM222.079 224.241C221.388 224.241 220.763 224.114 220.204 223.858C219.645 223.598 219.202 223.221 218.876 222.729C218.554 222.236 218.393 221.633 218.393 220.918C218.393 220.302 218.511 219.795 218.748 219.398C218.985 219 219.304 218.685 219.707 218.453C220.109 218.221 220.559 218.046 221.056 217.928C221.553 217.809 222.06 217.719 222.576 217.658C223.229 217.582 223.76 217.52 224.167 217.473C224.574 217.421 224.87 217.338 225.055 217.224C225.239 217.111 225.332 216.926 225.332 216.67V216.621C225.332 216 225.156 215.52 224.806 215.179C224.46 214.838 223.944 214.668 223.258 214.668C222.543 214.668 221.979 214.826 221.567 215.143C221.16 215.456 220.879 215.804 220.722 216.188L218.727 215.733C218.963 215.07 219.309 214.535 219.763 214.128C220.223 213.716 220.751 213.418 221.347 213.233C221.944 213.044 222.571 212.949 223.229 212.949C223.665 212.949 224.127 213.001 224.614 213.105C225.107 213.205 225.566 213.389 225.992 213.659C226.423 213.929 226.776 214.315 227.05 214.817C227.325 215.314 227.462 215.96 227.462 216.756V224H225.388V222.509H225.303C225.166 222.783 224.96 223.053 224.685 223.318C224.411 223.583 224.058 223.804 223.627 223.979C223.196 224.154 222.68 224.241 222.079 224.241ZM222.54 222.537C223.128 222.537 223.629 222.421 224.046 222.189C224.468 221.957 224.787 221.654 225.005 221.28C225.228 220.901 225.339 220.496 225.339 220.065V218.659C225.263 218.735 225.116 218.806 224.898 218.872C224.685 218.934 224.442 218.988 224.167 219.036C223.892 219.078 223.625 219.118 223.364 219.156C223.104 219.189 222.886 219.218 222.711 219.241C222.299 219.294 221.923 219.381 221.582 219.504C221.246 219.627 220.976 219.805 220.772 220.037C220.573 220.264 220.474 220.567 220.474 220.946C220.474 221.472 220.668 221.869 221.056 222.139C221.444 222.404 221.939 222.537 222.54 222.537ZM237.707 217.523V224H235.584V213.091H237.622V214.866H237.757C238.008 214.289 238.401 213.825 238.936 213.474C239.476 213.124 240.155 212.949 240.974 212.949C241.718 212.949 242.369 213.105 242.928 213.418C243.486 213.725 243.92 214.185 244.227 214.795C244.535 215.406 244.689 216.161 244.689 217.061V224H242.565V217.317C242.565 216.526 242.359 215.908 241.947 215.463C241.536 215.013 240.97 214.788 240.25 214.788C239.758 214.788 239.32 214.895 238.936 215.108C238.557 215.321 238.257 215.634 238.034 216.045C237.816 216.453 237.707 216.945 237.707 217.523ZM252.239 224.22C251.164 224.22 250.238 223.991 249.462 223.531C248.69 223.067 248.093 222.416 247.672 221.578C247.255 220.735 247.047 219.748 247.047 218.616C247.047 217.499 247.255 216.514 247.672 215.662C248.093 214.81 248.68 214.144 249.433 213.666C250.191 213.188 251.076 212.949 252.089 212.949C252.705 212.949 253.302 213.051 253.879 213.254C254.457 213.458 254.975 213.777 255.435 214.213C255.894 214.649 256.256 215.214 256.521 215.911C256.786 216.602 256.919 217.442 256.919 218.432V219.185H248.247V217.594H254.838C254.838 217.035 254.724 216.54 254.497 216.109C254.27 215.674 253.95 215.33 253.538 215.08C253.131 214.829 252.653 214.703 252.104 214.703C251.507 214.703 250.986 214.85 250.541 215.143C250.101 215.432 249.76 215.811 249.518 216.28C249.282 216.744 249.163 217.248 249.163 217.793V219.036C249.163 219.765 249.291 220.385 249.547 220.896C249.807 221.408 250.17 221.798 250.634 222.068C251.098 222.333 251.64 222.466 252.26 222.466C252.662 222.466 253.029 222.409 253.361 222.295C253.692 222.177 253.979 222.002 254.22 221.77C254.462 221.538 254.646 221.251 254.774 220.911L256.784 221.273C256.623 221.865 256.334 222.383 255.918 222.828C255.506 223.268 254.987 223.612 254.362 223.858C253.742 224.099 253.034 224.22 252.239 224.22ZM261.621 224L258.411 213.091H260.605L262.743 221.102H262.849L264.994 213.091H267.189L269.32 221.067H269.426L271.55 213.091H273.744L270.541 224H268.375L266.159 216.124H265.996L263.78 224H261.621ZM284.227 224.241C283.536 224.241 282.911 224.114 282.352 223.858C281.794 223.598 281.351 223.221 281.024 222.729C280.702 222.236 280.541 221.633 280.541 220.918C280.541 220.302 280.66 219.795 280.896 219.398C281.133 219 281.453 218.685 281.855 218.453C282.258 218.221 282.707 218.046 283.205 217.928C283.702 217.809 284.208 217.719 284.724 217.658C285.378 217.582 285.908 217.52 286.315 217.473C286.723 217.421 287.018 217.338 287.203 217.224C287.388 217.111 287.48 216.926 287.48 216.67V216.621C287.48 216 287.305 215.52 286.955 215.179C286.609 214.838 286.093 214.668 285.406 214.668C284.691 214.668 284.128 214.826 283.716 215.143C283.309 215.456 283.027 215.804 282.871 216.188L280.875 215.733C281.112 215.07 281.457 214.535 281.912 214.128C282.371 213.716 282.899 213.418 283.496 213.233C284.092 213.044 284.72 212.949 285.378 212.949C285.813 212.949 286.275 213.001 286.763 213.105C287.255 213.205 287.714 213.389 288.141 213.659C288.571 213.929 288.924 214.315 289.199 214.817C289.473 215.314 289.611 215.96 289.611 216.756V224H287.537V222.509H287.452C287.314 222.783 287.108 223.053 286.834 223.318C286.559 223.583 286.206 223.804 285.776 223.979C285.345 224.154 284.829 224.241 284.227 224.241ZM284.689 222.537C285.276 222.537 285.778 222.421 286.195 222.189C286.616 221.957 286.936 221.654 287.153 221.28C287.376 220.901 287.487 220.496 287.487 220.065V218.659C287.411 218.735 287.265 218.806 287.047 218.872C286.834 218.934 286.59 218.988 286.315 219.036C286.041 219.078 285.773 219.118 285.513 219.156C285.252 219.189 285.035 219.218 284.859 219.241C284.447 219.294 284.071 219.381 283.73 219.504C283.394 219.627 283.124 219.805 282.92 220.037C282.722 220.264 282.622 220.567 282.622 220.946C282.622 221.472 282.816 221.869 283.205 222.139C283.593 222.404 284.088 222.537 284.689 222.537ZM292.439 224V213.091H294.492V214.824H294.605C294.804 214.237 295.155 213.775 295.657 213.439C296.163 213.098 296.736 212.928 297.375 212.928C297.508 212.928 297.664 212.932 297.844 212.942C298.029 212.951 298.173 212.963 298.277 212.977V215.009C298.192 214.985 298.041 214.959 297.823 214.93C297.605 214.897 297.387 214.881 297.169 214.881C296.667 214.881 296.22 214.987 295.827 215.2C295.439 215.409 295.131 215.7 294.904 216.074C294.676 216.443 294.563 216.865 294.563 217.338V224H292.439ZM305.852 213.091V214.795H299.893V213.091H305.852ZM301.491 210.477H303.615V220.797C303.615 221.209 303.676 221.519 303.799 221.727C303.922 221.931 304.081 222.071 304.275 222.146C304.474 222.217 304.69 222.253 304.922 222.253C305.092 222.253 305.241 222.241 305.369 222.217C305.497 222.194 305.596 222.175 305.667 222.161L306.051 223.915C305.928 223.962 305.752 224.009 305.525 224.057C305.298 224.109 305.014 224.137 304.673 224.142C304.114 224.152 303.593 224.052 303.11 223.844C302.627 223.635 302.237 223.313 301.939 222.878C301.64 222.442 301.491 221.895 301.491 221.237V210.477ZM308.201 224V213.091H310.325V224H308.201ZM309.273 211.408C308.904 211.408 308.587 211.285 308.322 211.038C308.061 210.787 307.931 210.489 307.931 210.143C307.931 209.793 308.061 209.495 308.322 209.249C308.587 208.998 308.904 208.872 309.273 208.872C309.643 208.872 309.958 208.998 310.218 209.249C310.483 209.495 310.616 209.793 310.616 210.143C310.616 210.489 310.483 210.787 310.218 211.038C309.958 211.285 309.643 211.408 309.273 211.408ZM317.777 224.22C316.721 224.22 315.812 223.981 315.049 223.503C314.292 223.02 313.709 222.355 313.302 221.507C312.895 220.66 312.691 219.689 312.691 218.595C312.691 217.487 312.9 216.509 313.316 215.662C313.733 214.81 314.32 214.144 315.078 213.666C315.835 213.188 316.728 212.949 317.755 212.949C318.584 212.949 319.323 213.103 319.971 213.411C320.62 213.714 321.143 214.14 321.541 214.689C321.943 215.238 322.182 215.88 322.258 216.614H320.191C320.078 216.102 319.817 215.662 319.41 215.293C319.008 214.923 318.468 214.739 317.791 214.739C317.199 214.739 316.681 214.895 316.235 215.207C315.795 215.515 315.452 215.955 315.206 216.528C314.959 217.097 314.836 217.769 314.836 218.545C314.836 219.341 314.957 220.027 315.199 220.605C315.44 221.183 315.781 221.63 316.221 221.947C316.666 222.265 317.19 222.423 317.791 222.423C318.193 222.423 318.558 222.35 318.885 222.203C319.216 222.052 319.493 221.836 319.716 221.557C319.943 221.277 320.101 220.941 320.191 220.548H322.258C322.182 221.254 321.953 221.884 321.569 222.438C321.186 222.991 320.672 223.427 320.028 223.744C319.389 224.062 318.638 224.22 317.777 224.22ZM326.653 209.455V224H324.529V209.455H326.653ZM334.211 224.22C333.136 224.22 332.211 223.991 331.434 223.531C330.663 223.067 330.066 222.416 329.645 221.578C329.228 220.735 329.02 219.748 329.02 218.616C329.02 217.499 329.228 216.514 329.645 215.662C330.066 214.81 330.653 214.144 331.406 213.666C332.163 213.188 333.049 212.949 334.062 212.949C334.678 212.949 335.274 213.051 335.852 213.254C336.43 213.458 336.948 213.777 337.407 214.213C337.867 214.649 338.229 215.214 338.494 215.911C338.759 216.602 338.892 217.442 338.892 218.432V219.185H330.22V217.594H336.811C336.811 217.035 336.697 216.54 336.47 216.109C336.243 215.674 335.923 215.33 335.511 215.08C335.104 214.829 334.626 214.703 334.076 214.703C333.48 214.703 332.959 214.85 332.514 215.143C332.074 215.432 331.733 215.811 331.491 216.28C331.254 216.744 331.136 217.248 331.136 217.793V219.036C331.136 219.765 331.264 220.385 331.52 220.896C331.78 221.408 332.142 221.798 332.606 222.068C333.07 222.333 333.612 222.466 334.233 222.466C334.635 222.466 335.002 222.409 335.333 222.295C335.665 222.177 335.951 222.002 336.193 221.77C336.434 221.538 336.619 221.251 336.747 220.911L338.757 221.273C338.596 221.865 338.307 222.383 337.89 222.828C337.478 223.268 336.96 223.612 336.335 223.858C335.715 224.099 335.007 224.22 334.211 224.22Z" fill="#030507" fill-opacity="0.25"/>
</svg>
