<svg width="273" height="19" viewBox="0 0 273 19" fill="none" xmlns="http://www.w3.org/2000/svg">
<path d="M42.7102 3.36364V15H40.8352L35.3523 7.07386H35.2557V15H33.1477V3.36364H35.0341L40.5114 11.2955H40.6136V3.36364H42.7102ZM48.723 15.1705C47.8707 15.1705 47.1321 14.983 46.5071 14.608C45.8821 14.233 45.3973 13.7083 45.0526 13.0341C44.7116 12.3598 44.5412 11.572 44.5412 10.6705C44.5412 9.76894 44.7116 8.97917 45.0526 8.30114C45.3973 7.62311 45.8821 7.09659 46.5071 6.72159C47.1321 6.34659 47.8707 6.15909 48.723 6.15909C49.5753 6.15909 50.3139 6.34659 50.9389 6.72159C51.5639 7.09659 52.0469 7.62311 52.3878 8.30114C52.7325 8.97917 52.9048 9.76894 52.9048 10.6705C52.9048 11.572 52.7325 12.3598 52.3878 13.0341C52.0469 13.7083 51.5639 14.233 50.9389 14.608C50.3139 14.983 49.5753 15.1705 48.723 15.1705ZM48.7344 13.5227C49.1965 13.5227 49.5829 13.3958 49.8935 13.142C50.2041 12.8845 50.4351 12.5398 50.5866 12.108C50.742 11.6761 50.8196 11.1951 50.8196 10.6648C50.8196 10.1307 50.742 9.64773 50.5866 9.21591C50.4351 8.7803 50.2041 8.43371 49.8935 8.17614C49.5829 7.91856 49.1965 7.78977 48.7344 7.78977C48.2609 7.78977 47.867 7.91856 47.5526 8.17614C47.242 8.43371 47.009 8.7803 46.8537 9.21591C46.7022 9.64773 46.6264 10.1307 46.6264 10.6648C46.6264 11.1951 46.7022 11.6761 46.8537 12.108C47.009 12.5398 47.242 12.8845 47.5526 13.142C47.867 13.3958 48.2609 13.5227 48.7344 13.5227ZM59.0085 6.27273V7.86364H53.9915V6.27273H59.0085ZM55.2301 4.18182H57.2869V12.375C57.2869 12.6515 57.3286 12.8636 57.4119 13.0114C57.4991 13.1553 57.6127 13.2538 57.7528 13.3068C57.893 13.3598 58.0483 13.3864 58.2188 13.3864C58.3475 13.3864 58.465 13.3769 58.571 13.358C58.6809 13.339 58.7642 13.322 58.821 13.3068L59.1676 14.9148C59.0578 14.9527 58.9006 14.9943 58.696 15.0398C58.4953 15.0852 58.2491 15.1117 57.9574 15.1193C57.4422 15.1345 56.9782 15.0568 56.5653 14.8864C56.1525 14.7121 55.8248 14.4432 55.5824 14.0795C55.3438 13.7159 55.2263 13.2614 55.2301 12.7159V4.18182ZM67.2372 15L63.9531 3.36364H66.2202L68.3168 11.9148H68.4247L70.6634 3.36364H72.7259L74.9702 11.9205H75.0724L77.169 3.36364H79.4361L76.152 15H74.0724L71.7429 6.83523H71.652L69.3168 15H67.2372ZM82.8636 9.88636V15H80.8068V3.36364H82.8182V7.75568H82.9205C83.125 7.26326 83.4413 6.875 83.8693 6.59091C84.3011 6.30303 84.8504 6.15909 85.517 6.15909C86.1231 6.15909 86.6515 6.28598 87.1023 6.53977C87.553 6.79356 87.9015 7.16477 88.1477 7.65341C88.3977 8.14205 88.5227 8.73864 88.5227 9.44318V15H86.4659V9.76136C86.4659 9.17424 86.3144 8.7178 86.0114 8.39205C85.7121 8.0625 85.2917 7.89773 84.75 7.89773C84.3864 7.89773 84.0606 7.97727 83.7727 8.13636C83.4886 8.29167 83.2652 8.51705 83.1023 8.8125C82.9432 9.10795 82.8636 9.46591 82.8636 9.88636ZM90.6193 15V6.27273H92.6761V15H90.6193ZM91.6534 5.03409C91.3277 5.03409 91.0473 4.92614 90.8125 4.71023C90.5777 4.49053 90.4602 4.22727 90.4602 3.92045C90.4602 3.60985 90.5777 3.34659 90.8125 3.13068C91.0473 2.91098 91.3277 2.80114 91.6534 2.80114C91.983 2.80114 92.2633 2.91098 92.4943 3.13068C92.7292 3.34659 92.8466 3.60985 92.8466 3.92045C92.8466 4.22727 92.7292 4.49053 92.4943 4.71023C92.2633 4.92614 91.983 5.03409 91.6534 5.03409ZM99.1491 6.27273V7.86364H94.1321V6.27273H99.1491ZM95.3707 4.18182H97.4276V12.375C97.4276 12.6515 97.4692 12.8636 97.5526 13.0114C97.6397 13.1553 97.7533 13.2538 97.8935 13.3068C98.0336 13.3598 98.1889 13.3864 98.3594 13.3864C98.4882 13.3864 98.6056 13.3769 98.7116 13.358C98.8215 13.339 98.9048 13.322 98.9616 13.3068L99.3082 14.9148C99.1984 14.9527 99.0412 14.9943 98.8366 15.0398C98.6359 15.0852 98.3897 15.1117 98.098 15.1193C97.5829 15.1345 97.1188 15.0568 96.706 14.8864C96.2931 14.7121 95.9654 14.4432 95.723 14.0795C95.4844 13.7159 95.367 13.2614 95.3707 12.7159V4.18182ZM104.639 15.1705C103.764 15.1705 103.009 14.9886 102.372 14.625C101.74 14.2576 101.253 13.7386 100.912 13.0682C100.571 12.3939 100.401 11.6004 100.401 10.6875C100.401 9.78977 100.571 9.00189 100.912 8.32386C101.257 7.64205 101.738 7.11174 102.355 6.73295C102.973 6.35038 103.698 6.15909 104.531 6.15909C105.069 6.15909 105.577 6.24621 106.054 6.42045C106.535 6.59091 106.959 6.85606 107.327 7.21591C107.698 7.57576 107.99 8.03409 108.202 8.59091C108.414 9.14394 108.52 9.80303 108.52 10.5682V11.1989H101.366V9.8125H106.548C106.545 9.41856 106.459 9.06818 106.293 8.76136C106.126 8.45076 105.893 8.20644 105.594 8.02841C105.298 7.85038 104.954 7.76136 104.56 7.76136C104.139 7.76136 103.77 7.86364 103.452 8.06818C103.134 8.26894 102.885 8.53409 102.707 8.86364C102.533 9.18939 102.444 9.54735 102.44 9.9375V11.1477C102.44 11.6553 102.533 12.0909 102.719 12.4545C102.904 12.8144 103.164 13.0909 103.497 13.2841C103.83 13.4735 104.221 13.5682 104.668 13.5682C104.967 13.5682 105.238 13.5265 105.48 13.4432C105.723 13.3561 105.933 13.2292 106.111 13.0625C106.289 12.8958 106.423 12.6894 106.514 12.4432L108.435 12.6591C108.313 13.1667 108.082 13.6098 107.741 13.9886C107.404 14.3636 106.973 14.6553 106.446 14.8636C105.92 15.0682 105.317 15.1705 104.639 15.1705ZM112.317 3.36364V15H110.26V3.36364H112.317ZM114.432 15V6.27273H116.489V15H114.432ZM115.466 5.03409C115.14 5.03409 114.86 4.92614 114.625 4.71023C114.39 4.49053 114.273 4.22727 114.273 3.92045C114.273 3.60985 114.39 3.34659 114.625 3.13068C114.86 2.91098 115.14 2.80114 115.466 2.80114C115.795 2.80114 116.076 2.91098 116.307 3.13068C116.542 3.34659 116.659 3.60985 116.659 3.92045C116.659 4.22727 116.542 4.49053 116.307 4.71023C116.076 4.92614 115.795 5.03409 115.466 5.03409ZM125.501 8.57955L123.626 8.78409C123.573 8.5947 123.481 8.41667 123.348 8.25C123.219 8.08333 123.045 7.94886 122.825 7.84659C122.606 7.74432 122.337 7.69318 122.018 7.69318C121.59 7.69318 121.231 7.78598 120.939 7.97159C120.651 8.1572 120.509 8.39773 120.513 8.69318C120.509 8.94697 120.602 9.15341 120.791 9.3125C120.984 9.47159 121.303 9.60227 121.746 9.70455L123.234 10.0227C124.06 10.2008 124.674 10.483 125.075 10.8693C125.481 11.2557 125.685 11.7614 125.689 12.3864C125.685 12.9356 125.524 13.4205 125.206 13.8409C124.892 14.2576 124.454 14.5833 123.893 14.8182C123.333 15.053 122.689 15.1705 121.962 15.1705C120.893 15.1705 120.034 14.947 119.382 14.5C118.731 14.0492 118.342 13.4223 118.217 12.6193L120.223 12.4261C120.314 12.8201 120.507 13.1174 120.803 13.3182C121.098 13.5189 121.482 13.6193 121.956 13.6193C122.445 13.6193 122.837 13.5189 123.132 13.3182C123.431 13.1174 123.581 12.8693 123.581 12.5739C123.581 12.3239 123.484 12.1174 123.291 11.9545C123.102 11.7917 122.806 11.6667 122.405 11.5795L120.916 11.267C120.079 11.0928 119.46 10.7992 119.058 10.3864C118.657 9.9697 118.458 9.44318 118.462 8.80682C118.458 8.26894 118.604 7.80303 118.899 7.40909C119.198 7.01136 119.613 6.70455 120.143 6.48864C120.678 6.26894 121.293 6.15909 121.99 6.15909C123.013 6.15909 123.818 6.37689 124.405 6.8125C124.996 7.24811 125.361 7.83712 125.501 8.57955ZM131.743 6.27273V7.86364H126.726V6.27273H131.743ZM127.964 4.18182H130.021V12.375C130.021 12.6515 130.063 12.8636 130.146 13.0114C130.233 13.1553 130.347 13.2538 130.487 13.3068C130.627 13.3598 130.783 13.3864 130.953 13.3864C131.082 13.3864 131.199 13.3769 131.305 13.358C131.415 13.339 131.499 13.322 131.555 13.3068L131.902 14.9148C131.792 14.9527 131.635 14.9943 131.43 15.0398C131.23 15.0852 130.983 15.1117 130.692 15.1193C130.177 15.1345 129.713 15.0568 129.3 14.8864C128.887 14.7121 128.559 14.4432 128.317 14.0795C128.078 13.7159 127.961 13.2614 127.964 12.7159V4.18182ZM137.233 15.1705C136.358 15.1705 135.602 14.9886 134.966 14.625C134.333 14.2576 133.847 13.7386 133.506 13.0682C133.165 12.3939 132.994 11.6004 132.994 10.6875C132.994 9.78977 133.165 9.00189 133.506 8.32386C133.85 7.64205 134.331 7.11174 134.949 6.73295C135.566 6.35038 136.292 6.15909 137.125 6.15909C137.663 6.15909 138.17 6.24621 138.648 6.42045C139.129 6.59091 139.553 6.85606 139.92 7.21591C140.292 7.57576 140.583 8.03409 140.795 8.59091C141.008 9.14394 141.114 9.80303 141.114 10.5682V11.1989H133.96V9.8125H139.142C139.138 9.41856 139.053 9.06818 138.886 8.76136C138.72 8.45076 138.487 8.20644 138.188 8.02841C137.892 7.85038 137.547 7.76136 137.153 7.76136C136.733 7.76136 136.364 7.86364 136.045 8.06818C135.727 8.26894 135.479 8.53409 135.301 8.86364C135.127 9.18939 135.038 9.54735 135.034 9.9375V11.1477C135.034 11.6553 135.127 12.0909 135.312 12.4545C135.498 12.8144 135.758 13.0909 136.091 13.2841C136.424 13.4735 136.814 13.5682 137.261 13.5682C137.561 13.5682 137.831 13.5265 138.074 13.4432C138.316 13.3561 138.527 13.2292 138.705 13.0625C138.883 12.8958 139.017 12.6894 139.108 12.4432L141.028 12.6591C140.907 13.1667 140.676 13.6098 140.335 13.9886C139.998 14.3636 139.566 14.6553 139.04 14.8636C138.513 15.0682 137.911 15.1705 137.233 15.1705ZM146.092 15.1534C145.407 15.1534 144.793 14.9773 144.251 14.625C143.71 14.2727 143.282 13.7614 142.967 13.0909C142.653 12.4205 142.496 11.6061 142.496 10.6477C142.496 9.67803 142.655 8.85985 142.973 8.19318C143.295 7.52273 143.729 7.01705 144.274 6.67614C144.82 6.33144 145.428 6.15909 146.098 6.15909C146.609 6.15909 147.03 6.24621 147.359 6.42045C147.689 6.59091 147.95 6.79735 148.143 7.03977C148.337 7.27841 148.486 7.50379 148.592 7.71591H148.678V3.36364H150.74V15H148.717V13.625H148.592C148.486 13.8371 148.333 14.0625 148.132 14.3011C147.931 14.536 147.666 14.7367 147.337 14.9034C147.007 15.0701 146.592 15.1534 146.092 15.1534ZM146.666 13.4659C147.102 13.4659 147.473 13.3485 147.78 13.1136C148.087 12.875 148.32 12.5436 148.479 12.1193C148.638 11.6951 148.717 11.2008 148.717 10.6364C148.717 10.072 148.638 9.58144 148.479 9.16477C148.323 8.74811 148.092 8.42424 147.786 8.19318C147.482 7.96212 147.109 7.84659 146.666 7.84659C146.208 7.84659 145.825 7.96591 145.518 8.20455C145.212 8.44318 144.981 8.77273 144.825 9.19318C144.67 9.61364 144.592 10.0947 144.592 10.6364C144.592 11.1818 144.67 11.6686 144.825 12.0966C144.984 12.5208 145.217 12.8561 145.524 13.1023C145.835 13.3447 146.215 13.4659 146.666 13.4659Z" fill="#848A8C"/>
<path d="M161.5 11H272.5" stroke="#545454" stroke-opacity="0.22"/>
<path d="M13 4L1 16M13 16L1 4L13 16Z" stroke="#848A8C" stroke-width="2" stroke-linecap="round"/>
</svg>
