<svg width="376" height="92" viewBox="0 0 376 92" fill="none" xmlns="http://www.w3.org/2000/svg">
<mask id="path-1-inside-1_0_1488" fill="white">
<path d="M375.515 91.8317V45.9547C372.457 45.882 369.415 46.4216 366.569 47.5418C363.722 48.6619 361.128 50.3399 358.94 52.4771C356.751 54.6143 355.012 57.1676 353.824 59.9868C352.637 62.806 352.025 65.8341 352.025 68.8932C352.025 71.9522 352.637 74.9804 353.824 77.7996C355.012 80.6188 356.751 83.1721 358.94 85.3093C361.128 87.4465 363.722 89.1246 366.569 90.2447C369.415 91.3648 372.457 91.9044 375.515 91.8317Z"/>
<path d="M329.638 91.8316L329.638 45.9546C335.627 46.0969 341.324 48.5761 345.509 52.8624C349.695 57.1487 352.038 62.9021 352.038 68.8931C352.038 74.8841 349.695 80.6375 345.509 84.9238C341.324 89.2101 335.627 91.6893 329.638 91.8316Z"/>
<path d="M283.748 91.8316H329.638C329.638 85.7462 327.221 79.9101 322.918 75.6071C318.615 71.3041 312.779 68.8867 306.693 68.8867C300.608 68.8867 294.772 71.3041 290.469 75.6071C286.166 79.9101 283.748 85.7462 283.748 91.8316Z"/>
<path d="M283.748 45.9547L329.638 45.9546C329.638 52.04 327.221 57.8762 322.918 62.1792C318.615 66.4823 312.779 68.8997 306.693 68.8997C300.608 68.8997 294.772 66.4823 290.469 62.1792C286.166 57.8762 283.748 52.0401 283.748 45.9547Z"/>
<path d="M283.748 45.9547L283.748 0C289.834 5.32001e-07 295.67 2.4174 299.973 6.72042C304.276 11.0234 306.693 16.8596 306.693 22.945C306.693 29.0303 304.276 34.8665 299.973 39.1695C295.67 43.4725 289.834 45.8899 283.748 45.8899L283.748 45.9547Z"/>
<path d="M329.638 45.9546L329.638 1.9714e-07C323.553 -3.34861e-07 317.717 2.4174 313.414 6.72042C309.111 11.0234 306.693 16.8596 306.693 22.945C306.693 29.0303 309.111 34.8665 313.414 39.1695C317.717 43.4725 323.553 45.8899 329.638 45.8899L329.638 45.9546Z"/>
<path d="M375.515 45.9547L329.638 45.9546C329.565 42.8964 330.105 39.8546 331.225 37.008C332.345 34.1614 334.023 31.5676 336.161 29.379C338.298 27.1903 340.851 25.4512 343.67 24.2638C346.489 23.0764 349.518 22.4647 352.577 22.4647C355.636 22.4647 358.664 23.0764 361.483 24.2638C364.302 25.4512 366.855 27.1903 368.993 29.379C371.13 31.5676 372.808 34.1615 373.928 37.0081C375.048 39.8547 375.588 42.8965 375.515 45.9547Z"/>
<path d="M375.515 7.7996e-05L329.638 1.9714e-07C329.566 3.05818 330.105 6.10011 331.225 8.94671C332.345 11.7933 334.023 14.3872 336.161 16.5758C338.298 18.7644 340.851 20.5035 343.67 21.691C346.489 22.8784 349.518 23.4901 352.577 23.4901C355.636 23.4901 358.664 22.8784 361.483 21.691C364.302 20.5035 366.855 18.7644 368.993 16.5758C371.13 14.3872 372.808 11.7933 373.928 8.94671C375.048 6.10011 375.588 3.05826 375.515 7.7996e-05Z"/>
<path d="M273.725 86.2194L273.725 0.0647822L187.559 86.2194L273.725 86.2194Z"/>
<path d="M230.636 0.0647224L187.559 43.142L230.636 43.142V0.0647224Z"/>
<path d="M121.509 63.9635L100.201 85.271H121.509L142.816 63.9635L121.509 42.656L142.816 21.3604L121.509 0.0529478L100.201 0.0529459L121.509 21.3604L100.201 42.656L121.509 63.9635Z"/>
<path d="M142.817 42.656L164.124 63.9635L142.817 85.271H164.124L185.42 63.9635L164.124 42.656L185.42 21.3604L164.124 0.0529503L142.817 0.0529484L164.124 21.3604L142.817 42.656Z"/>
<path d="M86.1545 86.2193V61.9128C81.181 61.9128 76.4112 59.9371 72.8944 56.4203C69.3776 52.9035 67.402 48.1338 67.402 43.1603C67.402 38.1868 69.3776 33.4171 72.8944 29.9003C76.4112 26.3835 81.181 24.4078 86.1545 24.4078V0.101263C74.7345 0.101262 63.7823 4.63782 55.7071 12.713C47.632 20.7881 43.0954 31.7403 43.0954 43.1603C43.0954 54.5803 47.632 65.5325 55.7071 73.6077C63.7823 81.6828 74.7345 86.2193 86.1545 86.2193Z"/>
<path d="M43.059 86.2193L43.059 61.9128C38.0856 61.9128 33.3158 59.9371 29.799 56.4203C26.2823 52.9035 24.3065 48.1337 24.3065 43.1603C24.3065 38.1868 26.2823 33.417 29.799 29.9003C33.3158 26.3835 38.0856 24.4078 43.059 24.4078L43.059 0.101233C31.6391 0.101232 20.6868 4.63778 12.6117 12.7129C4.53656 20.7881 9.98366e-07 31.7403 0 43.1603C-9.98365e-07 54.5802 4.53655 65.5325 12.6117 73.6076C20.6868 81.6828 31.6391 86.2193 43.059 86.2193Z"/>
</mask>
<path d="M375.515 91.8317L375.539 92.8314L376.515 92.8082V91.8317H375.515ZM329.638 91.8316V92.8316H329.65L329.662 92.8313L329.638 91.8316ZM283.748 91.8316H282.748V92.8316H283.748V91.8316ZM283.748 45.9547H282.748H283.748ZM283.748 0V-1L282.748 -1V-6.6408e-07L283.748 0ZM283.748 45.8899V44.8899H282.749L282.748 45.8895L283.748 45.8899ZM329.638 1.9714e-07V-1V1.9714e-07ZM329.638 45.8899L330.638 45.8913L330.64 44.8899H329.638V45.8899ZM352.577 22.4647V23.4647V22.4647ZM375.515 7.7996e-05L376.515 -0.023676L376.492 -0.99992L375.515 -0.999922V7.7996e-05ZM273.725 86.2194V87.2194H274.725V86.2194H273.725ZM273.725 0.0647822L274.725 0.0647825V-2.34919L273.018 -0.642375L273.725 0.0647822ZM187.559 86.2194L186.852 85.5122L185.144 87.2194H187.559V86.2194ZM230.636 0.0647224H231.636V-2.34949L229.929 -0.642384L230.636 0.0647224ZM187.559 43.142L186.852 42.4349L185.144 44.142H187.559V43.142ZM230.636 43.142V44.142H231.636V43.142H230.636ZM121.509 63.9635L122.216 64.6706L122.923 63.9635L122.216 63.2564L121.509 63.9635ZM100.201 85.271L99.4943 84.5639L97.7872 86.271H100.201V85.271ZM121.509 85.271V86.271H121.923L122.216 85.9781L121.509 85.271ZM142.816 63.9635L143.524 64.6706L144.231 63.9635L143.524 63.2564L142.816 63.9635ZM121.509 42.656L120.802 41.9487L120.095 42.6558L120.802 43.3631L121.509 42.656ZM142.816 21.3604L143.523 22.0677L144.231 21.3606L143.524 20.6533L142.816 21.3604ZM121.509 0.0529478L122.216 -0.654159L121.923 -0.947052L121.509 -0.947052V0.0529478ZM100.201 0.0529459V-0.947054L97.7872 -0.947054L99.4943 0.760054L100.201 0.0529459ZM121.509 21.3604L122.216 22.0677L122.923 21.3606L122.216 20.6533L121.509 21.3604ZM100.201 42.656L99.4945 41.9487L98.787 42.6558L99.4943 43.3631L100.201 42.656ZM142.817 42.656L142.11 41.9487L141.402 42.6558L142.109 43.3631L142.817 42.656ZM164.124 63.9635L164.831 64.6706L165.538 63.9635L164.831 63.2564L164.124 63.9635ZM142.817 85.271L142.109 84.5639L140.402 86.271H142.817V85.271ZM164.124 85.271V86.271H164.538L164.831 85.9779L164.124 85.271ZM185.42 63.9635L186.127 64.6704L186.833 63.9635L186.127 63.2566L185.42 63.9635ZM164.124 42.656L163.417 41.9489L162.71 42.6558L163.417 43.3629L164.124 42.656ZM185.42 21.3604L186.127 22.0675L186.834 21.3606L186.127 20.6535L185.42 21.3604ZM164.124 0.0529503L164.831 -0.653958L164.538 -0.94705H164.124V0.0529503ZM142.817 0.0529484V-0.947052L140.402 -0.947052L142.109 0.760056L142.817 0.0529484ZM164.124 21.3604L164.831 22.0677L165.538 21.3606L164.831 20.6533L164.124 21.3604ZM86.1545 86.2193V87.2193H87.1545V86.2193H86.1545ZM86.1545 61.9128H87.1545V60.9128H86.1545V61.9128ZM67.402 43.1603H68.402H67.402ZM86.1545 24.4078V25.4078H87.1545V24.4078H86.1545ZM86.1545 0.101263H87.1545V-0.898736L86.1545 -0.898737V0.101263ZM43.0954 43.1603H42.0954H43.0954ZM43.059 86.2193V87.2193H44.059V86.2193H43.059ZM43.059 61.9128H44.059V60.9128H43.059V61.9128ZM24.3065 43.1603H25.3065H24.3065ZM43.059 24.4078V25.4078H44.059V24.4078H43.059ZM43.059 0.101233L44.059 0.101233V-0.898767L43.059 -0.898767V0.101233ZM0 43.1603H-1H0ZM376.515 91.8317V45.9547H374.515V91.8317H376.515ZM375.539 44.955C372.348 44.8792 369.173 45.4423 366.203 46.6112L366.935 48.4723C369.657 47.401 372.567 46.8849 375.492 46.9544L375.539 44.955ZM366.203 46.6112C363.232 47.7801 360.525 49.5313 358.241 51.7617L359.638 53.1926C361.731 51.1485 364.212 49.5436 366.935 48.4723L366.203 46.6112ZM358.241 51.7617C355.957 53.992 354.142 56.6566 352.903 59.5987L354.746 60.375C355.882 57.6787 357.545 55.2366 359.638 53.1926L358.241 51.7617ZM352.903 59.5987C351.664 62.5407 351.025 65.7008 351.025 68.8932H353.025C353.025 65.9675 353.61 63.0713 354.746 60.375L352.903 59.5987ZM351.025 68.8932C351.025 72.0855 351.664 75.2457 352.903 78.1878L354.746 77.4114C353.61 74.7151 353.025 71.8189 353.025 68.8932H351.025ZM352.903 78.1878C354.142 81.1298 355.957 83.7944 358.241 86.0248L359.638 84.5938C357.545 82.5498 355.882 80.1078 354.746 77.4114L352.903 78.1878ZM358.241 86.0248C360.525 88.2551 363.232 90.0063 366.203 91.1752L366.935 89.3141C364.212 88.2428 361.731 86.6379 359.638 84.5938L358.241 86.0248ZM366.203 91.1752C369.173 92.3441 372.348 92.9073 375.539 92.8314L375.492 90.832C372.567 90.9015 369.657 90.3854 366.935 89.3141L366.203 91.1752ZM330.638 91.8316L330.638 45.9546H328.638L328.638 91.8316H330.638ZM329.614 46.9543C335.343 47.0904 340.791 49.4616 344.794 53.5611L346.225 52.1638C341.857 47.6907 335.912 45.1034 329.662 44.9549L329.614 46.9543ZM344.794 53.5611C348.797 57.6606 351.038 63.1632 351.038 68.8931H353.038C353.038 62.641 350.593 56.6369 346.225 52.1638L344.794 53.5611ZM351.038 68.8931C351.038 74.623 348.797 80.1256 344.794 84.2251L346.225 85.6224C350.593 81.1493 353.038 75.1452 353.038 68.8931H351.038ZM344.794 84.2251C340.791 88.3246 335.343 90.6958 329.614 90.8319L329.662 92.8313C335.912 92.6828 341.857 90.0955 346.225 85.6224L344.794 84.2251ZM283.748 92.8316H329.638V90.8316H283.748V92.8316ZM330.638 91.8316C330.638 85.481 328.115 79.3905 323.625 74.9L322.211 76.3142C326.326 80.4296 328.638 86.0114 328.638 91.8316H330.638ZM323.625 74.9C319.134 70.4094 313.044 67.8867 306.693 67.8867V69.8867C312.513 69.8867 318.095 72.1987 322.211 76.3142L323.625 74.9ZM306.693 67.8867C300.343 67.8867 294.252 70.4094 289.762 74.9L291.176 76.3142C295.291 72.1987 300.873 69.8867 306.693 69.8867V67.8867ZM289.762 74.9C285.271 79.3905 282.748 85.481 282.748 91.8316H284.748C284.748 86.0114 287.06 80.4297 291.176 76.3142L289.762 74.9ZM283.748 46.9547L329.638 46.9546V44.9546L283.748 44.9547V46.9547ZM328.638 45.9546C328.638 51.7748 326.326 57.3567 322.211 61.4721L323.625 62.8863C328.115 58.3958 330.638 52.3052 330.638 45.9546H328.638ZM322.211 61.4721C318.095 65.5876 312.513 67.8997 306.693 67.8997V69.8997C313.044 69.8997 319.134 67.3769 323.625 62.8863L322.211 61.4721ZM306.693 67.8997C300.873 67.8997 295.291 65.5876 291.176 61.4721L289.761 62.8863C294.252 67.3769 300.343 69.8997 306.693 69.8997V67.8997ZM291.176 61.4721C287.06 57.3567 284.748 51.7749 284.748 45.9547H282.748C282.748 52.3053 285.271 58.3958 289.761 62.8863L291.176 61.4721ZM284.748 45.9547L284.748 6.6408e-07L282.748 -6.6408e-07L282.748 45.9547H284.748ZM283.748 1C289.568 1 295.15 3.31205 299.266 7.42752L300.68 6.01331C296.189 1.52276 290.099 -0.999999 283.748 -1V1ZM299.266 7.42752C303.381 11.543 305.693 17.1248 305.693 22.945H307.693C307.693 16.5944 305.171 10.5039 300.68 6.01331L299.266 7.42752ZM305.693 22.945C305.693 28.7651 303.381 34.3469 299.266 38.4624L300.68 39.8766C305.171 35.3861 307.693 29.2956 307.693 22.945H305.693ZM299.266 38.4624C295.15 42.5779 289.568 44.8899 283.748 44.8899V46.8899C290.099 46.8899 296.189 44.3672 300.68 39.8766L299.266 38.4624ZM282.748 45.8895L282.748 45.9542L284.748 45.9552L284.748 45.8904L282.748 45.8895ZM330.638 45.9546L330.638 2.18938e-06L328.638 -1.7951e-06L328.638 45.9546L330.638 45.9546ZM329.638 -1C323.288 -1 317.197 1.52276 312.707 6.01331L314.121 7.42752C318.236 3.31204 323.818 1 329.638 1V-1ZM312.707 6.01331C308.216 10.5039 305.693 16.5944 305.693 22.945H307.693C307.693 17.1248 310.005 11.543 314.121 7.42752L312.707 6.01331ZM305.693 22.945C305.693 29.2956 308.216 35.3861 312.707 39.8766L314.121 38.4624C310.005 34.3469 307.693 28.7651 307.693 22.945H305.693ZM312.707 39.8766C317.197 44.3672 323.288 46.8899 329.638 46.8899V44.8899C323.818 44.8899 318.236 42.5779 314.121 38.4624L312.707 39.8766ZM328.638 45.8885L328.638 45.9532L330.638 45.956L330.638 45.8913L328.638 45.8885ZM375.515 44.9547L329.638 44.9546V46.9546L375.515 46.9547V44.9547ZM330.638 45.9309C330.568 43.006 331.084 40.0967 332.156 37.3742L330.295 36.6419C329.126 39.6125 328.563 42.7869 328.638 45.9784L330.638 45.9309ZM332.156 37.3742C333.227 34.6517 334.832 32.1709 336.876 30.0776L335.445 28.6803C333.215 30.9643 331.464 33.6712 330.295 36.6419L332.156 37.3742ZM336.876 30.0776C338.92 27.9844 341.362 26.321 344.058 25.1854L343.282 23.3422C340.34 24.5813 337.675 26.3963 335.445 28.6803L336.876 30.0776ZM344.058 25.1854C346.755 24.0497 349.651 23.4647 352.577 23.4647V21.4647C349.384 21.4647 346.224 22.103 343.282 23.3422L344.058 25.1854ZM352.577 23.4647C355.502 23.4647 358.399 24.0497 361.095 25.1854L361.871 23.3422C358.929 22.103 355.769 21.4647 352.577 21.4647V23.4647ZM361.095 25.1854C363.791 26.321 366.233 27.9844 368.277 30.0776L369.708 28.6803C367.478 26.3963 364.813 24.5813 361.871 23.3422L361.095 25.1854ZM368.277 30.0776C370.321 32.1709 371.926 34.6517 372.998 37.3742L374.859 36.6419C373.69 33.6712 371.939 30.9643 369.708 28.6803L368.277 30.0776ZM372.998 37.3742C374.069 40.0968 374.585 43.0061 374.516 45.931L376.515 45.9785C376.591 42.787 376.028 39.6125 374.859 36.6419L372.998 37.3742ZM375.515 -0.999922L329.638 -1V1L375.515 1.00008V-0.999922ZM328.639 -0.0237539C328.563 3.16768 329.126 6.34218 330.295 9.31287L332.156 8.58055C331.084 5.85804 330.568 2.94868 330.638 0.0237543L328.639 -0.0237539ZM330.295 9.31287C331.464 12.2835 333.215 14.9905 335.445 17.2745L336.876 15.8771C334.832 13.7839 333.227 11.3031 332.156 8.58055L330.295 9.31287ZM335.445 17.2745C337.675 19.5585 340.34 21.3734 343.282 22.6125L344.058 20.7694C341.362 19.6337 338.92 17.9704 336.876 15.8771L335.445 17.2745ZM343.282 22.6125C346.224 23.8517 349.384 24.4901 352.577 24.4901V22.4901C349.651 22.4901 346.755 21.905 344.058 20.7694L343.282 22.6125ZM352.577 24.4901C355.769 24.4901 358.929 23.8517 361.871 22.6125L361.095 20.7694C358.399 21.905 355.502 22.4901 352.577 22.4901V24.4901ZM361.871 22.6125C364.813 21.3734 367.478 19.5585 369.708 17.2745L368.277 15.8771C366.233 17.9704 363.791 19.6337 361.095 20.7694L361.871 22.6125ZM369.708 17.2745C371.939 14.9905 373.69 12.2835 374.859 9.31287L372.998 8.58055C371.926 11.3031 370.321 13.7839 368.277 15.8771L369.708 17.2745ZM374.859 9.31287C376.028 6.3422 376.591 3.16777 376.515 -0.023676L374.515 0.0238319C374.585 2.94875 374.069 5.85803 372.998 8.58055L374.859 9.31287ZM274.725 86.2194L274.725 0.0647825L272.725 0.0647818L272.725 86.2194H274.725ZM273.018 -0.642375L186.852 85.5122L188.266 86.9265L274.432 0.771939L273.018 -0.642375ZM187.559 87.2194L273.725 87.2194V85.2194L187.559 85.2194V87.2194ZM229.929 -0.642384L186.852 42.4349L188.266 43.8491L231.343 0.771829L229.929 -0.642384ZM187.559 44.142L230.636 44.142V42.142L187.559 42.142V44.142ZM231.636 43.142V0.0647224H229.636V43.142H231.636ZM120.802 63.2564L99.4943 84.5639L100.909 85.9781L122.216 64.6706L120.802 63.2564ZM100.201 86.271H121.509V84.271H100.201V86.271ZM122.216 85.9781L143.524 64.6706L142.109 63.2564L120.802 84.5639L122.216 85.9781ZM143.524 63.2564L122.216 41.9489L120.802 43.3631L142.109 64.6706L143.524 63.2564ZM122.216 43.3633L143.523 22.0677L142.11 20.6531L120.802 41.9487L122.216 43.3633ZM143.524 20.6533L122.216 -0.654159L120.802 0.760054L142.109 22.0675L143.524 20.6533ZM121.509 -0.947052L100.201 -0.947054V1.05295L121.509 1.05295V-0.947052ZM99.4943 0.760054L120.802 22.0675L122.216 20.6533L100.909 -0.654162L99.4943 0.760054ZM120.802 20.6531L99.4945 41.9487L100.908 43.3633L122.216 22.0677L120.802 20.6531ZM99.4943 43.3631L120.802 64.6706L122.216 63.2564L100.909 41.9489L99.4943 43.3631ZM142.109 43.3631L163.417 64.6706L164.831 63.2564L143.524 41.9489L142.109 43.3631ZM163.417 63.2564L142.109 84.5639L143.524 85.9781L164.831 64.6706L163.417 63.2564ZM142.817 86.271H164.124V84.271H142.817V86.271ZM164.831 85.9779L186.127 64.6704L184.712 63.2566L163.417 84.5641L164.831 85.9779ZM186.127 63.2566L164.831 41.9491L163.417 43.3629L184.712 64.6704L186.127 63.2566ZM164.831 43.3631L186.127 22.0675L184.712 20.6533L163.417 41.9489L164.831 43.3631ZM186.127 20.6535L164.831 -0.653958L163.417 0.759858L184.712 22.0673L186.127 20.6535ZM164.124 -0.94705L142.817 -0.947052V1.05295L164.124 1.05295V-0.94705ZM142.109 0.760056L163.417 22.0675L164.831 20.6533L143.524 -0.654159L142.109 0.760056ZM163.417 20.6531L142.11 41.9487L143.523 43.3633L164.831 22.0677L163.417 20.6531ZM87.1545 86.2193V61.9128H85.1545V86.2193H87.1545ZM86.1545 60.9128C81.4462 60.9128 76.9307 59.0424 73.6015 55.7132L72.1873 57.1274C75.8916 60.8317 80.9158 62.9128 86.1545 62.9128V60.9128ZM73.6015 55.7132C70.2723 52.384 68.402 47.8686 68.402 43.1603H66.402C66.402 48.399 68.483 53.4231 72.1873 57.1274L73.6015 55.7132ZM68.402 43.1603C68.402 38.452 70.2723 33.9366 73.6015 30.6074L72.1873 29.1932C68.483 32.8975 66.402 37.9216 66.402 43.1603H68.402ZM73.6015 30.6074C76.9307 27.2782 81.4462 25.4078 86.1545 25.4078V23.4078C80.9158 23.4078 75.8916 25.4889 72.1873 29.1932L73.6015 30.6074ZM87.1545 24.4078V0.101263H85.1545V24.4078H87.1545ZM86.1545 -0.898737C74.4693 -0.898738 63.2627 3.74317 55 12.0058L56.4142 13.4201C64.3018 5.53246 74.9997 1.10126 86.1545 1.10126V-0.898737ZM55 12.0058C46.7373 20.2685 42.0954 31.4751 42.0954 43.1603H44.0954C44.0954 32.0055 48.5266 21.3077 56.4142 13.4201L55 12.0058ZM42.0954 43.1603C42.0954 54.8455 46.7373 66.0521 55 74.3148L56.4142 72.9005C48.5266 65.0129 44.0954 54.3151 44.0954 43.1603H42.0954ZM55 74.3148C63.2627 82.5774 74.4693 87.2193 86.1545 87.2193V85.2193C74.9997 85.2193 64.3018 80.7881 56.4142 72.9005L55 74.3148ZM44.059 86.2193L44.059 61.9128H42.059L42.059 86.2193H44.059ZM43.059 60.9128C38.3508 60.9128 33.8354 59.0424 30.5061 55.7132L29.0919 57.1274C32.7962 60.8317 37.8204 62.9128 43.059 62.9128V60.9128ZM30.5061 55.7132C27.1769 52.3839 25.3065 47.8685 25.3065 43.1603H23.3065C23.3065 48.399 25.3876 53.4231 29.0919 57.1274L30.5061 55.7132ZM25.3065 43.1603C25.3065 38.452 27.1769 33.9366 30.5061 30.6074L29.0919 29.1932C25.3876 32.8975 23.3065 37.9216 23.3065 43.1603H25.3065ZM30.5061 30.6074C33.8354 27.2781 38.3508 25.4078 43.059 25.4078V23.4078C37.8204 23.4078 32.7962 25.4888 29.0919 29.1932L30.5061 30.6074ZM44.059 24.4078L44.059 0.101233L42.059 0.101233L42.059 24.4078H44.059ZM43.059 -0.898767C31.3739 -0.898768 20.1673 3.74314 11.9046 12.0058L13.3188 13.42C21.2064 5.53243 31.9043 1.10123 43.059 1.10123V-0.898767ZM11.9046 12.0058C3.64191 20.2685 -0.999999 31.4751 -1 43.1603H1C1 32.0055 5.4312 21.3076 13.3188 13.42L11.9046 12.0058ZM-1 43.1603C-1 54.8455 3.64191 66.052 11.9046 74.3147L13.3188 72.9005C5.4312 65.0129 0.999999 54.315 1 43.1603H-1ZM11.9046 74.3147C20.1673 82.5774 31.3739 87.2193 43.059 87.2193V85.2193C31.9043 85.2193 21.2064 80.7881 13.3188 72.9005L11.9046 74.3147Z" fill="url(#paint0_linear_0_1488)" mask="url(#path-1-inside-1_0_1488)"/>
<defs>
<linearGradient id="paint0_linear_0_1488" x1="267.5" y1="127.5" x2="242.5" y2="-13" gradientUnits="userSpaceOnUse">
<stop stop-color="#E2E8EF" stop-opacity="0"/>
<stop offset="1" stop-color="#E2E8EF"/>
</linearGradient>
</defs>
</svg>
