<svg width="144" height="30" viewBox="0 0 144 30" fill="none" xmlns="http://www.w3.org/2000/svg">
<rect x="0.5" y="0.5" width="143" height="29" rx="2.5" stroke="#E4E4E4"/>
<path d="M10.4878 18.1588C10.5802 18.0664 10.7072 18.0125 10.842 18.0125H23.0614C23.2847 18.0125 23.3963 18.282 23.2385 18.4398L20.8246 20.8537C20.7322 20.9461 20.6052 21 20.4705 21H8.25102C8.02773 21 7.91608 20.7305 8.07392 20.5727L10.4878 18.1588Z" fill="#E4E4E4"/>
<path d="M10.4878 9.14629C10.584 9.0539 10.7111 9 10.842 9H23.0614C23.2847 9 23.3963 9.26949 23.2385 9.42733L20.8246 11.8412C20.7322 11.9336 20.6052 11.9875 20.4705 11.9875H8.25102C8.02773 11.9875 7.91608 11.718 8.07392 11.5602L10.4878 9.14629Z" fill="#E4E4E4"/>
<path d="M20.8246 13.6237C20.7322 13.5313 20.6052 13.4774 20.4705 13.4774H8.25102C8.02773 13.4774 7.91608 13.7468 8.07392 13.9047L10.4878 16.3185C10.5802 16.4109 10.7072 16.4648 10.842 16.4648H23.0614C23.2847 16.4648 23.3963 16.1954 23.2385 16.0375L20.8246 13.6237Z" fill="#E4E4E4"/>
<path d="M33.799 19V11.7273H36.3913C36.9571 11.7273 37.4259 11.8303 37.7976 12.0362C38.1693 12.2422 38.4474 12.5239 38.6321 12.8814C38.8168 13.2365 38.9091 13.6366 38.9091 14.0817C38.9091 14.5291 38.8156 14.9316 38.6286 15.2891C38.4439 15.6442 38.1645 15.9259 37.7905 16.1342C37.4188 16.3402 36.9512 16.4432 36.3878 16.4432H34.6051V15.5128H36.2884C36.6458 15.5128 36.9358 15.4512 37.1584 15.3281C37.3809 15.2027 37.5443 15.0322 37.6484 14.8168C37.7526 14.6013 37.8047 14.3563 37.8047 14.0817C37.8047 13.8071 37.7526 13.5632 37.6484 13.3501C37.5443 13.1371 37.3797 12.9702 37.1548 12.8494C36.9323 12.7287 36.6387 12.6683 36.2741 12.6683H34.8963V19H33.799ZM40.1103 19V13.5455H41.1365V14.4119H41.1934C41.2928 14.1184 41.468 13.8875 41.7189 13.7195C41.9722 13.549 42.2587 13.4638 42.5783 13.4638C42.6446 13.4638 42.7227 13.4661 42.8127 13.4709C42.905 13.4756 42.9772 13.4815 43.0293 13.4886V14.5043C42.9867 14.4924 42.9109 14.4794 42.802 14.4652C42.6931 14.4486 42.5842 14.4403 42.4753 14.4403C42.2244 14.4403 42.0007 14.4936 41.8042 14.6001C41.61 14.7043 41.4561 14.8499 41.3425 15.0369C41.2289 15.2216 41.1721 15.4323 41.1721 15.669V19H40.1103ZM46.0504 19.1101C45.5391 19.1101 45.0928 18.9929 44.7116 18.7585C44.3305 18.5241 44.0346 18.1963 43.8239 17.7749C43.6132 17.3535 43.5078 16.861 43.5078 16.2976C43.5078 15.7318 43.6132 15.237 43.8239 14.8132C44.0346 14.3894 44.3305 14.0604 44.7116 13.826C45.0928 13.5916 45.5391 13.4744 46.0504 13.4744C46.5618 13.4744 47.008 13.5916 47.3892 13.826C47.7704 14.0604 48.0663 14.3894 48.277 14.8132C48.4877 15.237 48.593 15.7318 48.593 16.2976C48.593 16.861 48.4877 17.3535 48.277 17.7749C48.0663 18.1963 47.7704 18.5241 47.3892 18.7585C47.008 18.9929 46.5618 19.1101 46.0504 19.1101ZM46.054 18.2188C46.3854 18.2188 46.66 18.1312 46.8778 17.956C47.0956 17.7808 47.2566 17.5476 47.3608 17.2564C47.4673 16.9652 47.5206 16.6444 47.5206 16.294C47.5206 15.946 47.4673 15.6264 47.3608 15.3352C47.2566 15.0417 47.0956 14.8061 46.8778 14.6286C46.66 14.451 46.3854 14.3622 46.054 14.3622C45.7202 14.3622 45.4432 14.451 45.223 14.6286C45.0052 14.8061 44.843 15.0417 44.7365 15.3352C44.6323 15.6264 44.5803 15.946 44.5803 16.294C44.5803 16.6444 44.6323 16.9652 44.7365 17.2564C44.843 17.5476 45.0052 17.7808 45.223 17.956C45.4432 18.1312 45.7202 18.2188 46.054 18.2188ZM52.0758 19.1101C51.5645 19.1101 51.1182 18.9929 50.737 18.7585C50.3559 18.5241 50.06 18.1963 49.8493 17.7749C49.6386 17.3535 49.5332 16.861 49.5332 16.2976C49.5332 15.7318 49.6386 15.237 49.8493 14.8132C50.06 14.3894 50.3559 14.0604 50.737 13.826C51.1182 13.5916 51.5645 13.4744 52.0758 13.4744C52.5872 13.4744 53.0334 13.5916 53.4146 13.826C53.7958 14.0604 54.0917 14.3894 54.3024 14.8132C54.5131 15.237 54.6184 15.7318 54.6184 16.2976C54.6184 16.861 54.5131 17.3535 54.3024 17.7749C54.0917 18.1963 53.7958 18.5241 53.4146 18.7585C53.0334 18.9929 52.5872 19.1101 52.0758 19.1101ZM52.0794 18.2188C52.4108 18.2188 52.6854 18.1312 52.9032 17.956C53.121 17.7808 53.282 17.5476 53.3862 17.2564C53.4927 16.9652 53.546 16.6444 53.546 16.294C53.546 15.946 53.4927 15.6264 53.3862 15.3352C53.282 15.0417 53.121 14.8061 52.9032 14.6286C52.6854 14.451 52.4108 14.3622 52.0794 14.3622C51.7456 14.3622 51.4686 14.451 51.2484 14.6286C51.0306 14.8061 50.8684 15.0417 50.7619 15.3352C50.6577 15.6264 50.6056 15.946 50.6056 16.294C50.6056 16.6444 50.6577 16.9652 50.7619 17.2564C50.8684 17.5476 51.0306 17.7808 51.2484 17.956C51.4686 18.1312 51.7456 18.2188 52.0794 18.2188ZM58.3995 13.5455V14.3977H55.3171V13.5455H58.3995ZM56.1623 19V12.9134C56.1623 12.5724 56.2369 12.2895 56.386 12.0646C56.5352 11.8374 56.7328 11.6681 56.979 11.5568C57.2253 11.4432 57.4928 11.3864 57.7816 11.3864C57.9947 11.3864 58.177 11.4041 58.3285 11.4396C58.48 11.4728 58.5924 11.5036 58.6658 11.532L58.4173 12.3913C58.3675 12.3771 58.3036 12.3606 58.2255 12.3416C58.1474 12.3203 58.0527 12.3097 57.9414 12.3097C57.6834 12.3097 57.4987 12.3736 57.3874 12.5014C57.2785 12.6293 57.2241 12.8139 57.2241 13.0554V19H56.1623ZM64.4391 19.1101C63.9277 19.1101 63.4815 18.9929 63.1003 18.7585C62.7192 18.5241 62.4232 18.1963 62.2125 17.7749C62.0018 17.3535 61.8965 16.861 61.8965 16.2976C61.8965 15.7318 62.0018 15.237 62.2125 14.8132C62.4232 14.3894 62.7192 14.0604 63.1003 13.826C63.4815 13.5916 63.9277 13.4744 64.4391 13.4744C64.9505 13.4744 65.3967 13.5916 65.7779 13.826C66.159 14.0604 66.455 14.3894 66.6657 14.8132C66.8764 15.237 66.9817 15.7318 66.9817 16.2976C66.9817 16.861 66.8764 17.3535 66.6657 17.7749C66.455 18.1963 66.159 18.5241 65.7779 18.7585C65.3967 18.9929 64.9505 19.1101 64.4391 19.1101ZM64.4426 18.2188C64.7741 18.2188 65.0487 18.1312 65.2665 17.956C65.4843 17.7808 65.6453 17.5476 65.7495 17.2564C65.856 16.9652 65.9093 16.6444 65.9093 16.294C65.9093 15.946 65.856 15.6264 65.7495 15.3352C65.6453 15.0417 65.4843 14.8061 65.2665 14.6286C65.0487 14.451 64.7741 14.3622 64.4426 14.3622C64.1088 14.3622 63.8319 14.451 63.6117 14.6286C63.3939 14.8061 63.2317 15.0417 63.1252 15.3352C63.021 15.6264 62.9689 15.946 62.9689 16.294C62.9689 16.6444 63.021 16.9652 63.1252 17.2564C63.2317 17.5476 63.3939 17.7808 63.6117 17.956C63.8319 18.1312 64.1088 18.2188 64.4426 18.2188ZM70.7628 13.5455V14.3977H67.6804V13.5455H70.7628ZM68.5256 19V12.9134C68.5256 12.5724 68.6001 12.2895 68.7493 12.0646C68.8984 11.8374 69.0961 11.6681 69.3423 11.5568C69.5885 11.4432 69.8561 11.3864 70.1449 11.3864C70.358 11.3864 70.5402 11.4041 70.6918 11.4396C70.8433 11.4728 70.9557 11.5036 71.0291 11.532L70.7805 12.3913C70.7308 12.3771 70.6669 12.3606 70.5888 12.3416C70.5107 12.3203 70.416 12.3097 70.3047 12.3097C70.0466 12.3097 69.862 12.3736 69.7507 12.5014C69.6418 12.6293 69.5874 12.8139 69.5874 13.0554V19H68.5256ZM74.59 19V11.7273H77.1824C77.7482 11.7273 78.2169 11.8303 78.5886 12.0362C78.9603 12.2422 79.2385 12.5239 79.4231 12.8814C79.6078 13.2365 79.7001 13.6366 79.7001 14.0817C79.7001 14.5291 79.6066 14.9316 79.4196 15.2891C79.2349 15.6442 78.9556 15.9259 78.5815 16.1342C78.2098 16.3402 77.7422 16.4432 77.1788 16.4432H75.3961V15.5128H77.0794C77.4368 15.5128 77.7269 15.4512 77.9494 15.3281C78.1719 15.2027 78.3353 15.0322 78.4395 14.8168C78.5436 14.6013 78.5957 14.3563 78.5957 14.0817C78.5957 13.8071 78.5436 13.5632 78.4395 13.3501C78.3353 13.1371 78.1708 12.9702 77.9458 12.8494C77.7233 12.7287 77.4297 12.6683 77.0652 12.6683H75.6873V19H74.59ZM83.1305 19.1101C82.6191 19.1101 82.1729 18.9929 81.7917 18.7585C81.4106 18.5241 81.1146 18.1963 80.9039 17.7749C80.6932 17.3535 80.5879 16.861 80.5879 16.2976C80.5879 15.7318 80.6932 15.237 80.9039 14.8132C81.1146 14.3894 81.4106 14.0604 81.7917 13.826C82.1729 13.5916 82.6191 13.4744 83.1305 13.4744C83.6419 13.4744 84.0881 13.5916 84.4693 13.826C84.8504 14.0604 85.1464 14.3894 85.3571 14.8132C85.5678 15.237 85.6731 15.7318 85.6731 16.2976C85.6731 16.861 85.5678 17.3535 85.3571 17.7749C85.1464 18.1963 84.8504 18.5241 84.4693 18.7585C84.0881 18.9929 83.6419 19.1101 83.1305 19.1101ZM83.1341 18.2188C83.4655 18.2188 83.7401 18.1312 83.9579 17.956C84.1757 17.7808 84.3367 17.5476 84.4409 17.2564C84.5474 16.9652 84.6007 16.6444 84.6007 16.294C84.6007 15.946 84.5474 15.6264 84.4409 15.3352C84.3367 15.0417 84.1757 14.8061 83.9579 14.6286C83.7401 14.451 83.4655 14.3622 83.1341 14.3622C82.8002 14.3622 82.5233 14.451 82.3031 14.6286C82.0853 14.8061 81.9231 15.0417 81.8166 15.3352C81.7124 15.6264 81.6603 15.946 81.6603 16.294C81.6603 16.6444 81.7124 16.9652 81.8166 17.2564C81.9231 17.5476 82.0853 17.7808 82.3031 17.956C82.5233 18.1312 82.8002 18.2188 83.1341 18.2188ZM90.9457 14.8771L89.9833 15.0476C89.9431 14.9245 89.8791 14.8073 89.7915 14.696C89.7063 14.5848 89.5903 14.4936 89.4435 14.4226C89.2968 14.3516 89.1133 14.3161 88.8931 14.3161C88.5924 14.3161 88.3415 14.3835 88.1403 14.5185C87.939 14.651 87.8384 14.8227 87.8384 15.0334C87.8384 15.2157 87.9059 15.3625 88.0408 15.4737C88.1758 15.585 88.3936 15.6761 88.6942 15.7472L89.5607 15.946C90.0626 16.062 90.4367 16.2408 90.6829 16.4822C90.9291 16.7237 91.0522 17.0374 91.0522 17.4233C91.0522 17.75 90.9575 18.0412 90.7681 18.2969C90.5811 18.5502 90.3195 18.7491 89.9833 18.8935C89.6495 19.0379 89.2624 19.1101 88.8221 19.1101C88.2113 19.1101 87.7129 18.9799 87.3271 18.7195C86.9412 18.4567 86.7044 18.0838 86.6168 17.6009L87.6431 17.4446C87.707 17.7121 87.8384 17.9145 88.0373 18.0518C88.2362 18.1868 88.4954 18.2543 88.815 18.2543C89.163 18.2543 89.4412 18.1821 89.6495 18.0376C89.8578 17.8909 89.962 17.7121 89.962 17.5014C89.962 17.331 89.8981 17.1877 89.7702 17.0717C89.6448 16.9557 89.4518 16.8681 89.1914 16.8089L88.2681 16.6065C87.7591 16.4905 87.3827 16.3059 87.1388 16.0526C86.8974 15.7992 86.7766 15.4785 86.7766 15.0902C86.7766 14.7682 86.8666 14.4865 87.0465 14.245C87.2264 14.0036 87.475 13.8153 87.7923 13.6804C88.1095 13.5431 88.4729 13.4744 88.8825 13.4744C89.4719 13.4744 89.936 13.6023 90.2745 13.858C90.613 14.1113 90.8368 14.451 90.9457 14.8771ZM94.7658 13.5455V14.3977H91.7864V13.5455H94.7658ZM92.5854 12.2386H93.6472V17.3984C93.6472 17.6044 93.678 17.7595 93.7395 17.8636C93.8011 17.9654 93.8804 18.0353 93.9775 18.0732C94.0769 18.1087 94.1846 18.1264 94.3006 18.1264C94.3858 18.1264 94.4604 18.1205 94.5243 18.1087C94.5882 18.0968 94.638 18.0874 94.6735 18.0803L94.8652 18.9574C94.8037 18.9811 94.7161 19.0047 94.6025 19.0284C94.4888 19.0545 94.3468 19.0687 94.1763 19.071C93.897 19.0758 93.6365 19.026 93.3951 18.9219C93.1536 18.8177 92.9583 18.6567 92.8091 18.4389C92.66 18.2211 92.5854 17.9477 92.5854 17.6186V12.2386Z" fill="#A9A9A9"/>
<path d="M129.667 19.6667H120.333V10.3333H125V9H120.333C119.98 9 119.641 9.14048 119.391 9.39052C119.14 9.64057 119 9.97971 119 10.3333V19.6667C119 20.0203 119.14 20.3594 119.391 20.6095C119.641 20.8595 119.98 21 120.333 21H129.667C130.4 21 131 20.4 131 19.6667V15H129.667V19.6667ZM126.333 9V10.3333H128.727L122.173 16.8867L123.113 17.8267L129.667 11.2733V13.6667H131V9H126.333Z" fill="#E4E4E4"/>
</svg>
