<svg width="196" height="32" viewBox="0 0 196 32" fill="none" xmlns="http://www.w3.org/2000/svg">
<path fill-rule="evenodd" clip-rule="evenodd" d="M169.958 9.95833V21.0417H181.042V15.5H182.625V21.0417C182.625 21.9125 181.913 22.625 181.042 22.625H169.958C169.08 22.625 168.375 21.9125 168.375 21.0417V9.95833C168.375 9.0875 169.08 8.375 169.958 8.375H175.5V9.95833H169.958ZM177.083 9.95833V8.375H182.625V13.9167H181.042V11.0746L173.26 18.8567L172.143 17.7404L179.925 9.95833H177.083Z" fill="#E2E8EF"/>
<rect x="0.5" y="0.5" width="195" height="31" rx="2.5" stroke="#CBD5E1"/>
<path d="M15.4878 18.1587C15.5802 18.0663 15.7072 18.0125 15.842 18.0125H28.0614C28.2847 18.0125 28.3963 18.2819 28.2385 18.4398L25.8246 20.8536C25.7322 20.946 25.6052 20.9999 25.4705 20.9999H13.251C13.0277 20.9999 12.9161 20.7304 13.0739 20.5726L15.4878 18.1587Z" fill="#CBD5E1"/>
<path d="M15.4878 9.14629C15.584 9.0539 15.7111 9 15.842 9H28.0614C28.2847 9 28.3963 9.26949 28.2385 9.42733L25.8246 11.8412C25.7322 11.9336 25.6052 11.9875 25.4705 11.9875H13.251C13.0277 11.9875 12.9161 11.718 13.0739 11.5602L15.4878 9.14629Z" fill="#CBD5E1"/>
<path d="M25.8246 13.6237C25.7322 13.5313 25.6052 13.4774 25.4705 13.4774H13.251C13.0277 13.4774 12.9161 13.7469 13.0739 13.9048L15.4878 16.3186C15.5802 16.411 15.7072 16.4649 15.842 16.4649H28.0614C28.2847 16.4649 28.3963 16.1954 28.2385 16.0376L25.8246 13.6237Z" fill="#CBD5E1"/>
<path d="M37.1449 20V10.5455H40.3395C41.0812 10.5455 41.6875 10.6793 42.1584 10.9471C42.6323 11.2118 42.9832 11.5703 43.2109 12.0227C43.4387 12.4751 43.5526 12.9799 43.5526 13.5369C43.5526 14.094 43.4387 14.6003 43.2109 15.0558C42.9863 15.5112 42.6385 15.8744 42.1676 16.1452C41.6967 16.413 41.0935 16.5469 40.358 16.5469H38.0682V15.5312H40.321C40.8288 15.5312 41.2366 15.4435 41.5444 15.2681C41.8522 15.0927 42.0753 14.8557 42.2138 14.5572C42.3554 14.2556 42.4261 13.9155 42.4261 13.5369C42.4261 13.1584 42.3554 12.8198 42.2138 12.5213C42.0753 12.2228 41.8506 11.9889 41.5398 11.8196C41.2289 11.6473 40.8165 11.5611 40.3026 11.5611H38.2898V20H37.1449ZM45.2491 20V12.9091H46.3017V13.9801H46.3755C46.5048 13.6293 46.7387 13.3446 47.0772 13.1261C47.4158 12.9076 47.7974 12.7983 48.2221 12.7983C48.3021 12.7983 48.4022 12.7998 48.5222 12.8029C48.6422 12.806 48.733 12.8106 48.7946 12.8168V13.9247C48.7576 13.9155 48.673 13.9016 48.5407 13.8832C48.4114 13.8616 48.2744 13.8509 48.1298 13.8509C47.7851 13.8509 47.4773 13.9232 47.2065 14.0678C46.9387 14.2094 46.7264 14.4064 46.5694 14.6587C46.4155 14.908 46.3386 15.1927 46.3386 15.5128V20H45.2491ZM52.7509 20.1477C52.1107 20.1477 51.5491 19.9954 51.0659 19.6907C50.5858 19.386 50.2103 18.9598 49.9395 18.4119C49.6717 17.8641 49.5378 17.224 49.5378 16.4915C49.5378 15.7528 49.6717 15.1081 49.9395 14.5572C50.2103 14.0063 50.5858 13.5785 51.0659 13.2738C51.5491 12.9691 52.1107 12.8168 52.7509 12.8168C53.391 12.8168 53.9512 12.9691 54.4313 13.2738C54.9145 13.5785 55.29 14.0063 55.5577 14.5572C55.8285 15.1081 55.964 15.7528 55.964 16.4915C55.964 17.224 55.8285 17.8641 55.5577 18.4119C55.29 18.9598 54.9145 19.386 54.4313 19.6907C53.9512 19.9954 53.391 20.1477 52.7509 20.1477ZM52.7509 19.169C53.2372 19.169 53.6373 19.0444 53.9512 18.7951C54.2651 18.5458 54.4975 18.218 54.6483 17.8118C54.7991 17.4055 54.8745 16.9654 54.8745 16.4915C54.8745 16.0175 54.7991 15.5759 54.6483 15.1665C54.4975 14.7572 54.2651 14.4264 53.9512 14.174C53.6373 13.9216 53.2372 13.7955 52.7509 13.7955C52.2646 13.7955 51.8645 13.9216 51.5506 14.174C51.2367 14.4264 51.0043 14.7572 50.8535 15.1665C50.7027 15.5759 50.6273 16.0175 50.6273 16.4915C50.6273 16.9654 50.7027 17.4055 50.8535 17.8118C51.0043 18.218 51.2367 18.5458 51.5506 18.7951C51.8645 19.0444 52.2646 19.169 52.7509 19.169ZM60.5077 20.1477C59.8676 20.1477 59.3059 19.9954 58.8227 19.6907C58.3426 19.386 57.9671 18.9598 57.6963 18.4119C57.4285 17.8641 57.2947 17.224 57.2947 16.4915C57.2947 15.7528 57.4285 15.1081 57.6963 14.5572C57.9671 14.0063 58.3426 13.5785 58.8227 13.2738C59.3059 12.9691 59.8676 12.8168 60.5077 12.8168C61.1479 12.8168 61.708 12.9691 62.1881 13.2738C62.6713 13.5785 63.0468 14.0063 63.3145 14.5572C63.5854 15.1081 63.7208 15.7528 63.7208 16.4915C63.7208 17.224 63.5854 17.8641 63.3145 18.4119C63.0468 18.9598 62.6713 19.386 62.1881 19.6907C61.708 19.9954 61.1479 20.1477 60.5077 20.1477ZM60.5077 19.169C60.994 19.169 61.3941 19.0444 61.708 18.7951C62.0219 18.5458 62.2543 18.218 62.4051 17.8118C62.5559 17.4055 62.6313 16.9654 62.6313 16.4915C62.6313 16.0175 62.5559 15.5759 62.4051 15.1665C62.2543 14.7572 62.0219 14.4264 61.708 14.174C61.3941 13.9216 60.994 13.7955 60.5077 13.7955C60.0215 13.7955 59.6214 13.9216 59.3074 14.174C58.9935 14.4264 58.7612 14.7572 58.6104 15.1665C58.4595 15.5759 58.3841 16.0175 58.3841 16.4915C58.3841 16.9654 58.4595 17.4055 58.6104 17.8118C58.7612 18.218 58.9935 18.5458 59.3074 18.7951C59.6214 19.0444 60.0215 19.169 60.5077 19.169ZM68.5415 12.9091V13.8324H64.7191V12.9091H68.5415ZM65.864 20V11.9304C65.864 11.5241 65.9594 11.1856 66.1502 10.9148C66.341 10.6439 66.5888 10.4408 66.8935 10.3054C67.1982 10.17 67.5198 10.1023 67.8583 10.1023C68.1261 10.1023 68.3446 10.1238 68.5138 10.1669C68.6831 10.21 68.8093 10.25 68.8924 10.2869L68.5785 11.2287C68.5231 11.2102 68.4461 11.1871 68.3477 11.1594C68.2522 11.1317 68.1261 11.1179 67.9691 11.1179C67.609 11.1179 67.349 11.2087 67.1889 11.3903C67.032 11.5719 66.9535 11.8381 66.9535 12.1889V20H65.864ZM76.6054 20.1477C75.9652 20.1477 75.4036 19.9954 74.9204 19.6907C74.4403 19.386 74.0648 18.9598 73.7939 18.4119C73.5262 17.8641 73.3923 17.224 73.3923 16.4915C73.3923 15.7528 73.5262 15.1081 73.7939 14.5572C74.0648 14.0063 74.4403 13.5785 74.9204 13.2738C75.4036 12.9691 75.9652 12.8168 76.6054 12.8168C77.2455 12.8168 77.8057 12.9691 78.2858 13.2738C78.769 13.5785 79.1444 14.0063 79.4122 14.5572C79.683 15.1081 79.8184 15.7528 79.8184 16.4915C79.8184 17.224 79.683 17.8641 79.4122 18.4119C79.1444 18.9598 78.769 19.386 78.2858 19.6907C77.8057 19.9954 77.2455 20.1477 76.6054 20.1477ZM76.6054 19.169C77.0916 19.169 77.4917 19.0444 77.8057 18.7951C78.1196 18.5458 78.3519 18.218 78.5028 17.8118C78.6536 17.4055 78.729 16.9654 78.729 16.4915C78.729 16.0175 78.6536 15.5759 78.5028 15.1665C78.3519 14.7572 78.1196 14.4264 77.8057 14.174C77.4917 13.9216 77.0916 13.7955 76.6054 13.7955C76.1191 13.7955 75.719 13.9216 75.4051 14.174C75.0912 14.4264 74.8588 14.7572 74.708 15.1665C74.5572 15.5759 74.4818 16.0175 74.4818 16.4915C74.4818 16.9654 74.5572 17.4055 74.708 17.8118C74.8588 18.218 75.0912 18.5458 75.4051 18.7951C75.719 19.0444 76.1191 19.169 76.6054 19.169ZM84.6392 12.9091V13.8324H80.8168V12.9091H84.6392ZM81.9616 20V11.9304C81.9616 11.5241 82.0571 11.1856 82.2479 10.9148C82.4387 10.6439 82.6864 10.4408 82.9911 10.3054C83.2958 10.17 83.6174 10.1023 83.956 10.1023C84.2237 10.1023 84.4422 10.1238 84.6115 10.1669C84.7808 10.21 84.907 10.25 84.9901 10.2869L84.6761 11.2287C84.6207 11.2102 84.5438 11.1871 84.4453 11.1594C84.3499 11.1317 84.2237 11.1179 84.0668 11.1179C83.7067 11.1179 83.4466 11.2087 83.2866 11.3903C83.1296 11.5719 83.0511 11.8381 83.0511 12.1889V20H81.9616ZM89.9701 20V10.5455H93.1647C93.9064 10.5455 94.5127 10.6793 94.9836 10.9471C95.4575 11.2118 95.8084 11.5703 96.0361 12.0227C96.2639 12.4751 96.3778 12.9799 96.3778 13.5369C96.3778 14.094 96.2639 14.6003 96.0361 15.0558C95.8115 15.5112 95.4637 15.8744 94.9928 16.1452C94.5219 16.413 93.9187 16.5469 93.1831 16.5469H90.8934V15.5312H93.1462C93.654 15.5312 94.0618 15.4435 94.3696 15.2681C94.6773 15.0927 94.9005 14.8557 95.039 14.5572C95.1805 14.2556 95.2513 13.9155 95.2513 13.5369C95.2513 13.1584 95.1805 12.8198 95.039 12.5213C94.9005 12.2228 94.6758 11.9889 94.365 11.8196C94.0541 11.6473 93.6417 11.5611 93.1278 11.5611H91.115V20H89.9701ZM100.879 20.1477C100.239 20.1477 99.677 19.9954 99.1938 19.6907C98.7137 19.386 98.3382 18.9598 98.0674 18.4119C97.7996 17.8641 97.6657 17.224 97.6657 16.4915C97.6657 15.7528 97.7996 15.1081 98.0674 14.5572C98.3382 14.0063 98.7137 13.5785 99.1938 13.2738C99.677 12.9691 100.239 12.8168 100.879 12.8168C101.519 12.8168 102.079 12.9691 102.559 13.2738C103.042 13.5785 103.418 14.0063 103.686 14.5572C103.956 15.1081 104.092 15.7528 104.092 16.4915C104.092 17.224 103.956 17.8641 103.686 18.4119C103.418 18.9598 103.042 19.386 102.559 19.6907C102.079 19.9954 101.519 20.1477 100.879 20.1477ZM100.879 19.169C101.365 19.169 101.765 19.0444 102.079 18.7951C102.393 18.5458 102.625 18.218 102.776 17.8118C102.927 17.4055 103.002 16.9654 103.002 16.4915C103.002 16.0175 102.927 15.5759 102.776 15.1665C102.625 14.7572 102.393 14.4264 102.079 14.174C101.765 13.9216 101.365 13.7955 100.879 13.7955C100.393 13.7955 99.9925 13.9216 99.6785 14.174C99.3646 14.4264 99.1323 14.7572 98.9814 15.1665C98.8306 15.5759 98.7552 16.0175 98.7552 16.4915C98.7552 16.9654 98.8306 17.4055 98.9814 17.8118C99.1323 18.218 99.3646 18.5458 99.6785 18.7951C99.9925 19.0444 100.393 19.169 100.879 19.169ZM110.778 14.4972L109.799 14.7741C109.737 14.611 109.647 14.4525 109.527 14.2987C109.41 14.1417 109.25 14.0124 109.047 13.9109C108.843 13.8093 108.583 13.7585 108.266 13.7585C107.832 13.7585 107.471 13.8585 107.181 14.0586C106.895 14.2556 106.752 14.5064 106.752 14.8111C106.752 15.0819 106.851 15.2958 107.048 15.4528C107.245 15.6097 107.552 15.7405 107.971 15.8452L109.023 16.1037C109.657 16.2576 110.13 16.493 110.441 16.81C110.752 17.1239 110.907 17.5286 110.907 18.0241C110.907 18.4304 110.79 18.7936 110.556 19.1136C110.325 19.4337 110.002 19.6861 109.587 19.8707C109.171 20.0554 108.688 20.1477 108.137 20.1477C107.414 20.1477 106.815 19.9908 106.341 19.6768C105.867 19.3629 105.567 18.9044 105.441 18.3011L106.475 18.0426C106.574 18.4242 106.76 18.7105 107.034 18.9013C107.311 19.0921 107.672 19.1875 108.119 19.1875C108.626 19.1875 109.03 19.0798 109.328 18.8643C109.63 18.6458 109.781 18.3842 109.781 18.0795C109.781 17.8333 109.694 17.6271 109.522 17.4609C109.35 17.2917 109.085 17.1655 108.728 17.0824L107.546 16.8054C106.897 16.6515 106.42 16.413 106.115 16.0898C105.813 15.7636 105.663 15.3558 105.663 14.8665C105.663 14.4664 105.775 14.1125 106 13.8047C106.227 13.4969 106.537 13.2553 106.928 13.0799C107.321 12.9045 107.768 12.8168 108.266 12.8168C108.968 12.8168 109.519 12.9706 109.919 13.2784C110.322 13.5862 110.608 13.9924 110.778 14.4972ZM115.631 12.9091V13.8324H111.956V12.9091H115.631ZM113.027 11.2102H114.117V17.9688C114.117 18.2765 114.161 18.5073 114.25 18.6612C114.343 18.812 114.46 18.9136 114.601 18.9659C114.746 19.0152 114.898 19.0398 115.058 19.0398C115.178 19.0398 115.277 19.0336 115.354 19.0213C115.431 19.0059 115.492 18.9936 115.538 18.9844L115.76 19.9631C115.686 19.9908 115.583 20.0185 115.451 20.0462C115.318 20.0769 115.151 20.0923 114.948 20.0923C114.64 20.0923 114.338 20.0262 114.043 19.8938C113.75 19.7615 113.507 19.5599 113.313 19.2891C113.122 19.0182 113.027 18.6766 113.027 18.2642V11.2102Z" fill="#94A3B8"/>
</svg>
