<svg width="196" height="32" viewBox="0 0 196 32" fill="none" xmlns="http://www.w3.org/2000/svg">
<rect x="0.5" y="0.5" width="195" height="31" rx="2.5" stroke="#CBD5E1"/>
<path d="M13.4878 19.1587C13.5802 19.0663 13.7072 19.0125 13.842 19.0125H26.0614C26.2847 19.0125 26.3963 19.2819 26.2385 19.4398L23.8246 21.8536C23.7322 21.946 23.6052 21.9999 23.4705 21.9999H11.251C11.0277 21.9999 10.9161 21.7304 11.0739 21.5726L13.4878 19.1587Z" fill="#CBD5E1"/>
<path d="M13.4878 10.1463C13.584 10.0539 13.7111 10 13.842 10H26.0614C26.2847 10 26.3963 10.2695 26.2385 10.4273L23.8246 12.8412C23.7322 12.9336 23.6052 12.9875 23.4705 12.9875H11.251C11.0277 12.9875 10.9161 12.718 11.0739 12.5602L13.4878 10.1463Z" fill="#CBD5E1"/>
<path d="M23.8246 14.6237C23.7322 14.5313 23.6052 14.4774 23.4705 14.4774H11.251C11.0277 14.4774 10.9161 14.7469 11.0739 14.9048L13.4878 17.3186C13.5802 17.411 13.7072 17.4649 13.842 17.4649H26.0614C26.2847 17.4649 26.3963 17.1954 26.2385 17.0376L23.8246 14.6237Z" fill="#CBD5E1"/>
<path d="M37.1449 21V11.5455H40.3395C41.0812 11.5455 41.6875 11.6793 42.1584 11.9471C42.6323 12.2118 42.9832 12.5703 43.2109 13.0227C43.4387 13.4751 43.5526 13.9799 43.5526 14.5369C43.5526 15.094 43.4387 15.6003 43.2109 16.0558C42.9863 16.5112 42.6385 16.8744 42.1676 17.1452C41.6967 17.413 41.0935 17.5469 40.358 17.5469H38.0682V16.5312H40.321C40.8288 16.5312 41.2366 16.4435 41.5444 16.2681C41.8522 16.0927 42.0753 15.8557 42.2138 15.5572C42.3554 15.2556 42.4261 14.9155 42.4261 14.5369C42.4261 14.1584 42.3554 13.8198 42.2138 13.5213C42.0753 13.2228 41.8506 12.9889 41.5398 12.8196C41.2289 12.6473 40.8165 12.5611 40.3026 12.5611H38.2898V21H37.1449ZM45.2491 21V13.9091H46.3017V14.9801H46.3755C46.5048 14.6293 46.7387 14.3446 47.0772 14.1261C47.4158 13.9076 47.7974 13.7983 48.2221 13.7983C48.3021 13.7983 48.4022 13.7998 48.5222 13.8029C48.6422 13.806 48.733 13.8106 48.7946 13.8168V14.9247C48.7576 14.9155 48.673 14.9016 48.5407 14.8832C48.4114 14.8616 48.2744 14.8509 48.1298 14.8509C47.7851 14.8509 47.4773 14.9232 47.2065 15.0678C46.9387 15.2094 46.7264 15.4064 46.5694 15.6587C46.4155 15.908 46.3386 16.1927 46.3386 16.5128V21H45.2491ZM52.7509 21.1477C52.1107 21.1477 51.5491 20.9954 51.0659 20.6907C50.5858 20.386 50.2103 19.9598 49.9395 19.4119C49.6717 18.8641 49.5378 18.224 49.5378 17.4915C49.5378 16.7528 49.6717 16.1081 49.9395 15.5572C50.2103 15.0063 50.5858 14.5785 51.0659 14.2738C51.5491 13.9691 52.1107 13.8168 52.7509 13.8168C53.391 13.8168 53.9512 13.9691 54.4313 14.2738C54.9145 14.5785 55.29 15.0063 55.5577 15.5572C55.8285 16.1081 55.964 16.7528 55.964 17.4915C55.964 18.224 55.8285 18.8641 55.5577 19.4119C55.29 19.9598 54.9145 20.386 54.4313 20.6907C53.9512 20.9954 53.391 21.1477 52.7509 21.1477ZM52.7509 20.169C53.2372 20.169 53.6373 20.0444 53.9512 19.7951C54.2651 19.5458 54.4975 19.218 54.6483 18.8118C54.7991 18.4055 54.8745 17.9654 54.8745 17.4915C54.8745 17.0175 54.7991 16.5759 54.6483 16.1665C54.4975 15.7572 54.2651 15.4264 53.9512 15.174C53.6373 14.9216 53.2372 14.7955 52.7509 14.7955C52.2646 14.7955 51.8645 14.9216 51.5506 15.174C51.2367 15.4264 51.0043 15.7572 50.8535 16.1665C50.7027 16.5759 50.6273 17.0175 50.6273 17.4915C50.6273 17.9654 50.7027 18.4055 50.8535 18.8118C51.0043 19.218 51.2367 19.5458 51.5506 19.7951C51.8645 20.0444 52.2646 20.169 52.7509 20.169ZM60.5077 21.1477C59.8676 21.1477 59.3059 20.9954 58.8227 20.6907C58.3426 20.386 57.9671 19.9598 57.6963 19.4119C57.4285 18.8641 57.2947 18.224 57.2947 17.4915C57.2947 16.7528 57.4285 16.1081 57.6963 15.5572C57.9671 15.0063 58.3426 14.5785 58.8227 14.2738C59.3059 13.9691 59.8676 13.8168 60.5077 13.8168C61.1479 13.8168 61.708 13.9691 62.1881 14.2738C62.6713 14.5785 63.0468 15.0063 63.3145 15.5572C63.5854 16.1081 63.7208 16.7528 63.7208 17.4915C63.7208 18.224 63.5854 18.8641 63.3145 19.4119C63.0468 19.9598 62.6713 20.386 62.1881 20.6907C61.708 20.9954 61.1479 21.1477 60.5077 21.1477ZM60.5077 20.169C60.994 20.169 61.3941 20.0444 61.708 19.7951C62.0219 19.5458 62.2543 19.218 62.4051 18.8118C62.5559 18.4055 62.6313 17.9654 62.6313 17.4915C62.6313 17.0175 62.5559 16.5759 62.4051 16.1665C62.2543 15.7572 62.0219 15.4264 61.708 15.174C61.3941 14.9216 60.994 14.7955 60.5077 14.7955C60.0215 14.7955 59.6214 14.9216 59.3074 15.174C58.9935 15.4264 58.7612 15.7572 58.6104 16.1665C58.4595 16.5759 58.3841 17.0175 58.3841 17.4915C58.3841 17.9654 58.4595 18.4055 58.6104 18.8118C58.7612 19.218 58.9935 19.5458 59.3074 19.7951C59.6214 20.0444 60.0215 20.169 60.5077 20.169ZM68.5415 13.9091V14.8324H64.7191V13.9091H68.5415ZM65.864 21V12.9304C65.864 12.5241 65.9594 12.1856 66.1502 11.9148C66.341 11.6439 66.5888 11.4408 66.8935 11.3054C67.1982 11.17 67.5198 11.1023 67.8583 11.1023C68.1261 11.1023 68.3446 11.1238 68.5138 11.1669C68.6831 11.21 68.8093 11.25 68.8924 11.2869L68.5785 12.2287C68.5231 12.2102 68.4461 12.1871 68.3477 12.1594C68.2522 12.1317 68.1261 12.1179 67.9691 12.1179C67.609 12.1179 67.349 12.2087 67.1889 12.3903C67.032 12.5719 66.9535 12.8381 66.9535 13.1889V21H65.864ZM76.6054 21.1477C75.9652 21.1477 75.4036 20.9954 74.9204 20.6907C74.4403 20.386 74.0648 19.9598 73.7939 19.4119C73.5262 18.8641 73.3923 18.224 73.3923 17.4915C73.3923 16.7528 73.5262 16.1081 73.7939 15.5572C74.0648 15.0063 74.4403 14.5785 74.9204 14.2738C75.4036 13.9691 75.9652 13.8168 76.6054 13.8168C77.2455 13.8168 77.8057 13.9691 78.2858 14.2738C78.769 14.5785 79.1444 15.0063 79.4122 15.5572C79.683 16.1081 79.8184 16.7528 79.8184 17.4915C79.8184 18.224 79.683 18.8641 79.4122 19.4119C79.1444 19.9598 78.769 20.386 78.2858 20.6907C77.8057 20.9954 77.2455 21.1477 76.6054 21.1477ZM76.6054 20.169C77.0916 20.169 77.4917 20.0444 77.8057 19.7951C78.1196 19.5458 78.3519 19.218 78.5028 18.8118C78.6536 18.4055 78.729 17.9654 78.729 17.4915C78.729 17.0175 78.6536 16.5759 78.5028 16.1665C78.3519 15.7572 78.1196 15.4264 77.8057 15.174C77.4917 14.9216 77.0916 14.7955 76.6054 14.7955C76.1191 14.7955 75.719 14.9216 75.4051 15.174C75.0912 15.4264 74.8588 15.7572 74.708 16.1665C74.5572 16.5759 74.4818 17.0175 74.4818 17.4915C74.4818 17.9654 74.5572 18.4055 74.708 18.8118C74.8588 19.218 75.0912 19.5458 75.4051 19.7951C75.719 20.0444 76.1191 20.169 76.6054 20.169ZM84.6392 13.9091V14.8324H80.8168V13.9091H84.6392ZM81.9616 21V12.9304C81.9616 12.5241 82.0571 12.1856 82.2479 11.9148C82.4387 11.6439 82.6864 11.4408 82.9911 11.3054C83.2958 11.17 83.6174 11.1023 83.956 11.1023C84.2237 11.1023 84.4422 11.1238 84.6115 11.1669C84.7808 11.21 84.907 11.25 84.9901 11.2869L84.6761 12.2287C84.6207 12.2102 84.5438 12.1871 84.4453 12.1594C84.3499 12.1317 84.2237 12.1179 84.0668 12.1179C83.7067 12.1179 83.4466 12.2087 83.2866 12.3903C83.1296 12.5719 83.0511 12.8381 83.0511 13.1889V21H81.9616ZM89.9701 21V11.5455H93.1647C93.9064 11.5455 94.5127 11.6793 94.9836 11.9471C95.4575 12.2118 95.8084 12.5703 96.0361 13.0227C96.2639 13.4751 96.3778 13.9799 96.3778 14.5369C96.3778 15.094 96.2639 15.6003 96.0361 16.0558C95.8115 16.5112 95.4637 16.8744 94.9928 17.1452C94.5219 17.413 93.9187 17.5469 93.1831 17.5469H90.8934V16.5312H93.1462C93.654 16.5312 94.0618 16.4435 94.3696 16.2681C94.6773 16.0927 94.9005 15.8557 95.039 15.5572C95.1805 15.2556 95.2513 14.9155 95.2513 14.5369C95.2513 14.1584 95.1805 13.8198 95.039 13.5213C94.9005 13.2228 94.6758 12.9889 94.365 12.8196C94.0541 12.6473 93.6417 12.5611 93.1278 12.5611H91.115V21H89.9701ZM100.879 21.1477C100.239 21.1477 99.677 20.9954 99.1938 20.6907C98.7137 20.386 98.3382 19.9598 98.0674 19.4119C97.7996 18.8641 97.6657 18.224 97.6657 17.4915C97.6657 16.7528 97.7996 16.1081 98.0674 15.5572C98.3382 15.0063 98.7137 14.5785 99.1938 14.2738C99.677 13.9691 100.239 13.8168 100.879 13.8168C101.519 13.8168 102.079 13.9691 102.559 14.2738C103.042 14.5785 103.418 15.0063 103.686 15.5572C103.956 16.1081 104.092 16.7528 104.092 17.4915C104.092 18.224 103.956 18.8641 103.686 19.4119C103.418 19.9598 103.042 20.386 102.559 20.6907C102.079 20.9954 101.519 21.1477 100.879 21.1477ZM100.879 20.169C101.365 20.169 101.765 20.0444 102.079 19.7951C102.393 19.5458 102.625 19.218 102.776 18.8118C102.927 18.4055 103.002 17.9654 103.002 17.4915C103.002 17.0175 102.927 16.5759 102.776 16.1665C102.625 15.7572 102.393 15.4264 102.079 15.174C101.765 14.9216 101.365 14.7955 100.879 14.7955C100.393 14.7955 99.9925 14.9216 99.6785 15.174C99.3646 15.4264 99.1323 15.7572 98.9814 16.1665C98.8306 16.5759 98.7552 17.0175 98.7552 17.4915C98.7552 17.9654 98.8306 18.4055 98.9814 18.8118C99.1323 19.218 99.3646 19.5458 99.6785 19.7951C99.9925 20.0444 100.393 20.169 100.879 20.169ZM110.778 15.4972L109.799 15.7741C109.737 15.611 109.647 15.4525 109.527 15.2987C109.41 15.1417 109.25 15.0124 109.047 14.9109C108.843 14.8093 108.583 14.7585 108.266 14.7585C107.832 14.7585 107.471 14.8585 107.181 15.0586C106.895 15.2556 106.752 15.5064 106.752 15.8111C106.752 16.0819 106.851 16.2958 107.048 16.4528C107.245 16.6097 107.552 16.7405 107.971 16.8452L109.023 17.1037C109.657 17.2576 110.13 17.493 110.441 17.81C110.752 18.1239 110.907 18.5286 110.907 19.0241C110.907 19.4304 110.79 19.7936 110.556 20.1136C110.325 20.4337 110.002 20.6861 109.587 20.8707C109.171 21.0554 108.688 21.1477 108.137 21.1477C107.414 21.1477 106.815 20.9908 106.341 20.6768C105.867 20.3629 105.567 19.9044 105.441 19.3011L106.475 19.0426C106.574 19.4242 106.76 19.7105 107.034 19.9013C107.311 20.0921 107.672 20.1875 108.119 20.1875C108.626 20.1875 109.03 20.0798 109.328 19.8643C109.63 19.6458 109.781 19.3842 109.781 19.0795C109.781 18.8333 109.694 18.6271 109.522 18.4609C109.35 18.2917 109.085 18.1655 108.728 18.0824L107.546 17.8054C106.897 17.6515 106.42 17.413 106.115 17.0898C105.813 16.7636 105.663 16.3558 105.663 15.8665C105.663 15.4664 105.775 15.1125 106 14.8047C106.227 14.4969 106.537 14.2553 106.928 14.0799C107.321 13.9045 107.768 13.8168 108.266 13.8168C108.968 13.8168 109.519 13.9706 109.919 14.2784C110.322 14.5862 110.608 14.9924 110.778 15.4972ZM115.631 13.9091V14.8324H111.956V13.9091H115.631ZM113.027 12.2102H114.117V18.9688C114.117 19.2765 114.161 19.5073 114.25 19.6612C114.343 19.812 114.46 19.9136 114.601 19.9659C114.746 20.0152 114.898 20.0398 115.058 20.0398C115.178 20.0398 115.277 20.0336 115.354 20.0213C115.431 20.0059 115.492 19.9936 115.538 19.9844L115.76 20.9631C115.686 20.9908 115.583 21.0185 115.451 21.0462C115.318 21.0769 115.151 21.0923 114.948 21.0923C114.64 21.0923 114.338 21.0262 114.043 20.8938C113.75 20.7615 113.507 20.5599 113.313 20.2891C113.122 20.0182 113.027 19.6766 113.027 19.2642V12.2102Z" fill="#94A3B8"/>
<path d="M179.208 12.6038L175 16.8021L170.792 12.6038L169.5 13.8963L175 19.3963L180.5 13.8963L179.208 12.6038Z" fill="#CBD5E1"/>
</svg>
