<svg width="100" height="21" viewBox="0 0 100 21" fill="none" xmlns="http://www.w3.org/2000/svg">
<path d="M28.0746 17V4.63636H32.9524C33.8902 4.63636 34.689 4.81546 35.3491 5.17365C36.0091 5.52782 36.5122 6.02083 36.8583 6.6527C37.2085 7.28054 37.3835 8.00497 37.3835 8.82599C37.3835 9.64702 37.2064 10.3714 36.8523 10.9993C36.4981 11.6271 35.985 12.1161 35.3129 12.4663C34.6448 12.8164 33.8358 12.9915 32.886 12.9915H29.777V10.8967H32.4634C32.9665 10.8967 33.381 10.8101 33.707 10.6371C34.0371 10.46 34.2826 10.2165 34.4435 9.9066C34.6085 9.59268 34.6911 9.23248 34.6911 8.82599C34.6911 8.41548 34.6085 8.05729 34.4435 7.75142C34.2826 7.44152 34.0371 7.20206 33.707 7.03303C33.377 6.85997 32.9585 6.77344 32.4513 6.77344H30.6886V17H28.0746ZM46.7181 4.63636H49.3321V12.6655C49.3321 13.567 49.1168 14.3558 48.6862 15.032C48.2596 15.7081 47.6619 16.2353 46.8932 16.6136C46.1245 16.9879 45.229 17.1751 44.2068 17.1751C43.1805 17.1751 42.283 16.9879 41.5143 16.6136C40.7456 16.2353 40.1479 15.7081 39.7213 15.032C39.2947 14.3558 39.0814 13.567 39.0814 12.6655V4.63636H41.6954V12.4421C41.6954 12.913 41.798 13.3316 42.0033 13.6978C42.2126 14.064 42.5064 14.3518 42.8847 14.5611C43.263 14.7704 43.7037 14.875 44.2068 14.875C44.7139 14.875 45.1546 14.7704 45.5289 14.5611C45.9072 14.3518 46.199 14.064 46.4042 13.6978C46.6135 13.3316 46.7181 12.913 46.7181 12.4421V4.63636ZM51.4828 17V4.63636H56.4331C57.3426 4.63636 58.1013 4.77119 58.709 5.04084C59.3167 5.31049 59.7735 5.68478 60.0794 6.16371C60.3852 6.63861 60.5382 7.18596 60.5382 7.80575C60.5382 8.28871 60.4416 8.7133 60.2484 9.07955C60.0552 9.44176 59.7896 9.73958 59.4515 9.97301C59.1175 10.2024 58.7351 10.3654 58.3045 10.462V10.5827C58.7754 10.6029 59.2161 10.7357 59.6266 10.9812C60.0411 11.2267 60.3772 11.5708 60.6348 12.0135C60.8923 12.4522 61.0211 12.9754 61.0211 13.5831C61.0211 14.2391 60.8581 14.8247 60.5321 15.3398C60.2102 15.851 59.7333 16.2554 59.1014 16.5533C58.4695 16.8511 57.6908 17 56.7651 17H51.4828ZM54.0968 14.8629H56.2278C56.9563 14.8629 57.4875 14.7241 57.8216 14.4464C58.1556 14.1647 58.3226 13.7904 58.3226 13.3235C58.3226 12.9814 58.2401 12.6796 58.0751 12.418C57.9101 12.1564 57.6747 11.9511 57.3688 11.8022C57.0669 11.6533 56.7067 11.5788 56.2882 11.5788H54.0968V14.8629ZM54.0968 9.81001H56.0346C56.3928 9.81001 56.7108 9.74763 56.9885 9.62287C57.2702 9.49408 57.4915 9.31297 57.6525 9.07955C57.8175 8.84612 57.9 8.56641 57.9 8.24041C57.9 7.79368 57.7411 7.43348 57.4231 7.1598C57.1092 6.88613 56.6625 6.74929 56.0829 6.74929H54.0968V9.81001ZM62.722 17V4.63636H65.336V14.8448H70.6365V17H62.722ZM74.9815 4.63636V17H72.3675V4.63636H74.9815ZM83.8392 8.19212C83.7909 7.70514 83.5837 7.32682 83.2174 7.05717C82.8512 6.78752 82.3541 6.6527 81.7263 6.6527C81.2997 6.6527 80.9395 6.71307 80.6457 6.83381C80.3519 6.95052 80.1265 7.11352 79.9695 7.3228C79.8166 7.53208 79.7401 7.76953 79.7401 8.03516C79.7321 8.25651 79.7784 8.44969 79.879 8.6147C79.9836 8.77971 80.1265 8.92259 80.3076 9.04332C80.4887 9.16004 80.698 9.26267 80.9355 9.35121C81.1729 9.43572 81.4265 9.50817 81.6961 9.56854L82.8069 9.83416C83.3462 9.9549 83.8412 10.1159 84.292 10.3171C84.7428 10.5183 85.1331 10.7659 85.4632 11.0597C85.7932 11.3535 86.0487 11.6996 86.2298 12.098C86.415 12.4964 86.5096 12.9532 86.5136 13.4684C86.5096 14.225 86.3164 14.881 85.934 15.4364C85.5557 15.9878 85.0084 16.4164 84.292 16.7223C83.5796 17.0241 82.7204 17.1751 81.7142 17.1751C80.7161 17.1751 79.8468 17.0221 79.1063 16.7163C78.3698 16.4104 77.7942 15.9576 77.3797 15.358C76.9692 14.7543 76.7539 14.0077 76.7338 13.1183H79.2632C79.2914 13.5328 79.4101 13.8789 79.6194 14.1566C79.8327 14.4303 80.1164 14.6375 80.4706 14.7784C80.8288 14.9152 81.2333 14.9837 81.684 14.9837C82.1267 14.9837 82.5111 14.9193 82.8371 14.7905C83.1671 14.6617 83.4227 14.4826 83.6038 14.2532C83.7849 14.0238 83.8754 13.7602 83.8754 13.4624C83.8754 13.1847 83.7929 12.9512 83.6279 12.7621C83.4669 12.5729 83.2295 12.4119 82.9156 12.2791C82.6057 12.1463 82.2253 12.0256 81.7746 11.9169L80.4284 11.5788C79.386 11.3253 78.5629 10.9289 77.9593 10.3896C77.3556 9.85026 77.0557 9.12382 77.0597 8.21023C77.0557 7.46165 77.2549 6.80765 77.6574 6.24822C78.0639 5.6888 78.6213 5.25213 79.3296 4.93821C80.038 4.62429 80.8429 4.46733 81.7444 4.46733C82.662 4.46733 83.4629 4.62429 84.1471 4.93821C84.8353 5.25213 85.3706 5.6888 85.7529 6.24822C86.1353 6.80765 86.3325 7.45561 86.3445 8.19212H83.8392ZM88.2718 17V4.63636H90.8858V9.73757H96.1923V4.63636H98.8002V17H96.1923V11.8928H90.8858V17H88.2718Z" fill="black"/>
<path d="M15.75 6.25L6.75 15.25L2.625 11.125L3.6825 10.0675L6.75 13.1275L14.6925 5.1925L15.75 6.25Z" fill="black"/>
</svg>
