<svg width="180" height="85" viewBox="0 0 180 85" fill="none" xmlns="http://www.w3.org/2000/svg">
<path d="M104.792 26.5417H92.5416V38.7917H88.4583V26.5417H76.2083V22.4583H88.4583V10.2083H92.5416V22.4583H104.792V26.5417Z" fill="#B7BBC0"/>
<path d="M1.36293 80V66.1818H6.54474C7.6063 66.1818 8.49692 66.3797 9.21662 66.7756C9.94082 67.1714 10.4873 67.7157 10.8562 68.4084C11.2295 69.0966 11.4162 69.8793 11.4162 70.7564C11.4162 71.6425 11.2295 72.4297 10.8562 73.1179C10.4828 73.8061 9.93182 74.3481 9.20312 74.744C8.47443 75.1353 7.57706 75.331 6.51101 75.331H3.0767V73.2731H6.17365C6.79439 73.2731 7.30268 73.1651 7.69851 72.9492C8.09434 72.7333 8.38672 72.4364 8.57564 72.0586C8.76906 71.6808 8.86577 71.2467 8.86577 70.7564C8.86577 70.2661 8.76906 69.8343 8.57564 69.4609C8.38672 69.0876 8.09209 68.7975 7.69176 68.5906C7.29593 68.3791 6.78539 68.2734 6.16016 68.2734H3.86612V80H1.36293ZM20.088 75.6413V69.6364H22.5305V80H20.1622V78.158H20.0542C19.8203 78.7383 19.4358 79.2128 18.9005 79.5817C18.3697 79.9505 17.7152 80.1349 16.9371 80.1349C16.2578 80.1349 15.6573 79.9843 15.1356 79.6829C14.6183 79.377 14.2135 78.9339 13.9211 78.3537C13.6287 77.7689 13.4825 77.0627 13.4825 76.2351V69.6364H15.925V75.8572C15.925 76.514 16.1049 77.0357 16.4648 77.4226C16.8246 77.8094 17.2969 78.0028 17.8817 78.0028C18.2415 78.0028 18.5901 77.9151 18.9275 77.7397C19.2648 77.5643 19.5415 77.3034 19.7574 76.957C19.9778 76.6062 20.088 76.1676 20.088 75.6413ZM25.15 80V66.1818H27.5925V71.3501H27.6937C27.8197 71.0982 27.9973 70.8306 28.2267 70.5472C28.4561 70.2594 28.7665 70.0142 29.1578 69.8118C29.5492 69.6049 30.0485 69.5014 30.6557 69.5014C31.4564 69.5014 32.1783 69.7061 32.8216 70.1154C33.4693 70.5202 33.9821 71.1207 34.3599 71.9169C34.7422 72.7086 34.9334 73.6802 34.9334 74.8317C34.9334 75.9697 34.7467 76.9368 34.3734 77.733C34.0001 78.5291 33.4918 79.1364 32.8485 79.5547C32.2053 79.973 31.4766 80.1822 30.6625 80.1822C30.0687 80.1822 29.5762 80.0832 29.1848 79.8853C28.7935 79.6874 28.4786 79.449 28.2402 79.1701C28.0063 78.8867 27.8242 78.6191 27.6937 78.3672H27.552V80H25.15ZM27.5453 74.8182C27.5453 75.4884 27.6397 76.0754 27.8287 76.5792C28.0221 77.083 28.2987 77.4766 28.6586 77.7599C29.0229 78.0388 29.4637 78.1783 29.981 78.1783C30.5208 78.1783 30.9728 78.0343 31.3372 77.7464C31.7015 77.4541 31.9759 77.056 32.1603 76.5522C32.3493 76.0439 32.4437 75.4659 32.4437 74.8182C32.4437 74.175 32.3515 73.6037 32.1671 73.1044C31.9827 72.6051 31.7083 72.2138 31.3439 71.9304C30.9796 71.647 30.5253 71.5053 29.981 71.5053C29.4592 71.5053 29.0162 71.6425 28.6518 71.9169C28.2875 72.1913 28.0108 72.5759 27.8219 73.0707C27.6375 73.5655 27.5453 74.148 27.5453 74.8182ZM39.4523 66.1818V80H37.0099V66.1818H39.4523ZM41.964 80V69.6364H44.4064V80H41.964ZM43.1919 68.1655C42.8051 68.1655 42.4722 68.0373 42.1934 67.7809C41.9145 67.52 41.775 67.2074 41.775 66.843C41.775 66.4742 41.9145 66.1616 42.1934 65.9052C42.4722 65.6443 42.8051 65.5138 43.1919 65.5138C43.5833 65.5138 43.9161 65.6443 44.1905 65.9052C44.4694 66.1616 44.6088 66.4742 44.6088 66.843C44.6088 67.2074 44.4694 67.52 44.1905 67.7809C43.9161 68.0373 43.5833 68.1655 43.1919 68.1655ZM55.1091 72.3757L52.8825 72.6186C52.8196 72.3937 52.7094 72.1823 52.5519 71.9844C52.399 71.7865 52.1921 71.6268 51.9312 71.5053C51.6703 71.3839 51.3509 71.3232 50.9731 71.3232C50.4648 71.3232 50.0375 71.4334 49.6911 71.6538C49.3493 71.8742 49.1806 72.1598 49.1851 72.5107C49.1806 72.812 49.2908 73.0572 49.5157 73.2461C49.7451 73.435 50.123 73.5902 50.6492 73.7116L52.417 74.0895C53.3976 74.3009 54.1263 74.636 54.6031 75.0948C55.0844 75.5536 55.3273 76.1541 55.3318 76.8963C55.3273 77.5485 55.1361 78.1243 54.7583 78.6236C54.3849 79.1184 53.8654 79.5052 53.1997 79.7841C52.5339 80.063 51.7693 80.2024 50.9056 80.2024C49.6372 80.2024 48.6161 79.937 47.8424 79.4062C47.0687 78.871 46.6077 78.1265 46.4593 77.1729L48.841 76.9435C48.949 77.4113 49.1784 77.7644 49.5292 78.0028C49.8801 78.2412 50.3366 78.3604 50.8989 78.3604C51.4791 78.3604 51.9447 78.2412 52.2955 78.0028C52.6509 77.7644 52.8286 77.4698 52.8286 77.119C52.8286 76.8221 52.7139 76.5769 52.4845 76.3835C52.2596 76.1901 51.9087 76.0417 51.4319 75.9382L49.6642 75.5671C48.6701 75.3602 47.9346 75.0116 47.4578 74.5213C46.981 74.0265 46.7449 73.4013 46.7494 72.6456C46.7449 72.0069 46.9181 71.4536 47.2689 70.9858C47.6243 70.5135 48.1168 70.1491 48.7465 69.8928C49.3808 69.6319 50.1117 69.5014 50.9394 69.5014C52.1539 69.5014 53.1097 69.7601 53.8069 70.2773C54.5086 70.7946 54.9427 71.4941 55.1091 72.3757ZM59.7883 73.9276V80H57.3458V66.1818H59.7343V71.3974H59.8557C60.0986 70.8126 60.4742 70.3516 60.9825 70.0142C61.4953 69.6723 62.1475 69.5014 62.9392 69.5014C63.6589 69.5014 64.2864 69.6521 64.8216 69.9535C65.3569 70.2549 65.7707 70.6957 66.0631 71.2759C66.36 71.8562 66.5084 72.5646 66.5084 73.4013V80H64.066V73.7791C64.066 73.0819 63.886 72.5399 63.5262 72.1531C63.1708 71.7617 62.6715 71.5661 62.0283 71.5661C61.5965 71.5661 61.2097 71.6605 60.8678 71.8494C60.5305 72.0339 60.2651 72.3015 60.0716 72.6523C59.8827 73.0032 59.7883 73.4283 59.7883 73.9276ZM85.1745 66.1818V80H82.9479L76.4369 70.5877H76.3222V80H73.819V66.1818H76.059L82.5633 75.6009H82.6847V66.1818H85.1745ZM92.3821 80.2024C91.343 80.2024 90.4457 79.9865 89.69 79.5547C88.9388 79.1184 88.3608 78.5021 87.956 77.706C87.5511 76.9053 87.3487 75.9629 87.3487 74.8789C87.3487 73.8129 87.5511 72.8772 87.956 72.0721C88.3653 71.2624 88.9366 70.6327 89.6697 70.1829C90.4029 69.7286 91.2643 69.5014 92.2539 69.5014C92.8926 69.5014 93.4954 69.6049 94.0621 69.8118C94.6334 70.0142 95.1372 70.3291 95.5735 70.7564C96.0143 71.1837 96.3607 71.728 96.6126 72.3892C96.8645 73.0459 96.9904 73.8286 96.9904 74.7372V75.4862H88.4957V73.8398H94.6491C94.6446 73.372 94.5434 72.956 94.3455 72.5916C94.1476 72.2228 93.871 71.9326 93.5156 71.7212C93.1648 71.5098 92.7554 71.4041 92.2876 71.4041C91.7884 71.4041 91.3498 71.5256 90.9719 71.7685C90.5941 72.0069 90.2995 72.3217 90.0881 72.7131C89.8812 73.0999 89.7754 73.525 89.771 73.9883V75.4254C89.771 76.0282 89.8812 76.5455 90.1016 76.9773C90.322 77.4046 90.6301 77.733 91.0259 77.9624C91.4218 78.1873 91.8851 78.2997 92.4158 78.2997C92.7712 78.2997 93.0928 78.2502 93.3807 78.1513C93.6686 78.0478 93.9182 77.8971 94.1296 77.6992C94.341 77.5013 94.5007 77.2562 94.6087 76.9638L96.8892 77.2202C96.7453 77.8229 96.4709 78.3492 96.0661 78.799C95.6657 79.2443 95.1529 79.5907 94.5277 79.8381C93.9025 80.081 93.1873 80.2024 92.3821 80.2024ZM101.14 80L98.2116 69.6364H100.701L102.523 76.9233H102.618L104.48 69.6364H106.942L108.805 76.8828H108.906L110.701 69.6364H113.197L110.262 80H107.718L105.775 72.9964H105.634L103.69 80H101.14ZM121.498 80H118.826L123.691 66.1818H126.781L131.652 80H128.98L125.29 69.0156H125.182L121.498 80ZM121.585 74.582H128.872V76.5927H121.585V74.582ZM133.364 80V69.6364H135.733V71.3636H135.841C136.029 70.7654 136.353 70.3043 136.812 69.9805C137.275 69.6521 137.804 69.4879 138.398 69.4879C138.533 69.4879 138.683 69.4947 138.85 69.5082C139.021 69.5172 139.162 69.5329 139.275 69.5554V71.8022C139.171 71.7662 139.007 71.7347 138.782 71.7077C138.562 71.6763 138.348 71.6605 138.141 71.6605C137.696 71.6605 137.296 71.7572 136.94 71.9506C136.589 72.1396 136.313 72.4027 136.11 72.7401C135.908 73.0774 135.807 73.4665 135.807 73.9073V80H133.364ZM146.629 69.6364V71.5256H140.672V69.6364H146.629ZM142.142 67.1534H144.585V76.8828C144.585 77.2112 144.634 77.4631 144.733 77.6385C144.837 77.8094 144.972 77.9264 145.138 77.9893C145.305 78.0523 145.489 78.0838 145.691 78.0838C145.844 78.0838 145.984 78.0726 146.11 78.0501C146.24 78.0276 146.339 78.0073 146.407 77.9893L146.818 79.8988C146.688 79.9438 146.501 79.9933 146.258 80.0472C146.02 80.1012 145.727 80.1327 145.381 80.1417C144.769 80.1597 144.218 80.0675 143.728 79.8651C143.238 79.6581 142.849 79.3388 142.561 78.907C142.277 78.4751 142.138 77.9354 142.142 77.2876V67.1534ZM148.672 80V69.6364H151.114V80H148.672ZM149.9 68.1655C149.513 68.1655 149.18 68.0373 148.901 67.7809C148.622 67.52 148.483 67.2074 148.483 66.843C148.483 66.4742 148.622 66.1616 148.901 65.9052C149.18 65.6443 149.513 65.5138 149.9 65.5138C150.291 65.5138 150.624 65.6443 150.899 65.9052C151.177 66.1616 151.317 66.4742 151.317 66.843C151.317 67.2074 151.177 67.52 150.899 67.7809C150.624 68.0373 150.291 68.1655 149.9 68.1655ZM158.147 80.2024C157.112 80.2024 156.224 79.9753 155.482 79.521C154.744 79.0666 154.175 78.4392 153.775 77.6385C153.379 76.8333 153.181 75.9067 153.181 74.8587C153.181 73.8061 153.383 72.8772 153.788 72.0721C154.193 71.2624 154.764 70.6327 155.502 70.1829C156.244 69.7286 157.121 69.5014 158.133 69.5014C158.974 69.5014 159.719 69.6566 160.366 69.967C161.019 70.2728 161.538 70.7069 161.925 71.2692C162.312 71.8269 162.532 72.4792 162.586 73.2259H160.252C160.157 72.7266 159.932 72.3105 159.577 71.9776C159.226 71.6403 158.756 71.4716 158.167 71.4716C157.668 71.4716 157.229 71.6065 156.851 71.8764C156.473 72.1418 156.179 72.5241 155.967 73.0234C155.76 73.5227 155.657 74.121 155.657 74.8182C155.657 75.5244 155.76 76.1316 155.967 76.6399C156.174 77.1437 156.464 77.5328 156.838 77.8072C157.216 78.0771 157.659 78.212 158.167 78.212C158.527 78.212 158.848 78.1445 159.132 78.0096C159.42 77.8701 159.66 77.67 159.854 77.4091C160.047 77.1482 160.18 76.8311 160.252 76.4577H162.586C162.528 77.1909 162.312 77.8409 161.939 78.4077C161.565 78.9699 161.057 79.4107 160.414 79.7301C159.77 80.045 159.015 80.2024 158.147 80.2024ZM167.034 66.1818V80H164.592V66.1818H167.034ZM174.134 80.2024C173.095 80.2024 172.198 79.9865 171.442 79.5547C170.691 79.1184 170.113 78.5021 169.708 77.706C169.303 76.9053 169.101 75.9629 169.101 74.8789C169.101 73.8129 169.303 72.8772 169.708 72.0721C170.117 71.2624 170.689 70.6327 171.422 70.1829C172.155 69.7286 173.016 69.5014 174.006 69.5014C174.645 69.5014 175.247 69.6049 175.814 69.8118C176.385 70.0142 176.889 70.3291 177.325 70.7564C177.766 71.1837 178.113 71.728 178.365 72.3892C178.616 73.0459 178.742 73.8286 178.742 74.7372V75.4862H170.248V73.8398H176.401C176.397 73.372 176.295 72.956 176.097 72.5916C175.9 72.2228 175.623 71.9326 175.268 71.7212C174.917 71.5098 174.507 71.4041 174.04 71.4041C173.54 71.4041 173.102 71.5256 172.724 71.7685C172.346 72.0069 172.051 72.3217 171.84 72.7131C171.633 73.0999 171.527 73.525 171.523 73.9883V75.4254C171.523 76.0282 171.633 76.5455 171.854 76.9773C172.074 77.4046 172.382 77.733 172.778 77.9624C173.174 78.1873 173.637 78.2997 174.168 78.2997C174.523 78.2997 174.845 78.2502 175.133 78.1513C175.421 78.0478 175.67 77.8971 175.882 77.6992C176.093 77.5013 176.253 77.2562 176.361 76.9638L178.641 77.2202C178.497 77.8229 178.223 78.3492 177.818 78.799C177.418 79.2443 176.905 79.5907 176.28 79.8381C175.654 80.081 174.939 80.2024 174.134 80.2024Z" fill="black" fill-opacity="0.38"/>
</svg>
