<svg width="49" height="48" viewBox="0 0 49 48" fill="none" xmlns="http://www.w3.org/2000/svg">
<path d="M14.38 28.072C13.914 29.32 13.52 30.472 13.168 31.638C15.088 30.244 17.37 29.36 20.004 29.03C25.03 28.402 29.496 25.084 31.756 20.914L28.844 18.004L31.67 15.174L33.67 13.172C34.53 12.312 35.5 10.724 36.526 8.436C25.34 10.17 18.49 17.02 14.378 28.072H14.38ZM34.5 18.002L36.5 20C34.5 26 28.5 32 20.5 33C15.162 33.668 11.828 37.334 10.496 44H6.5C8.5 32 12.5 4 42.5 4C40.5 9.994 38.504 13.992 36.506 15.994L34.5 18.002Z" fill="#1E293B"/>
</svg>
