<svg width="146" height="40" viewBox="0 0 146 40" fill="none" xmlns="http://www.w3.org/2000/svg">
<rect width="146" height="40" rx="4" fill="#F7FAFC"/>
<path fill-rule="evenodd" clip-rule="evenodd" d="M10.5 20C10.5 15.86 13.86 12.5 18 12.5C22.14 12.5 25.5 15.86 25.5 20C25.5 24.14 22.14 27.5 18 27.5C13.86 27.5 10.5 24.14 10.5 20ZM21 20L16.5 16.625V23.375L21 20Z" fill="#94A3B8"/>
<path d="M46.1186 25V14.8182H49.7479C50.5367 14.8182 51.1913 14.9541 51.7116 15.2259C52.2353 15.4976 52.6264 15.8738 52.8849 16.3544C53.1435 16.8317 53.2727 17.3835 53.2727 18.0099C53.2727 18.633 53.1418 19.1816 52.88 19.6555C52.6214 20.1262 52.2304 20.4924 51.7067 20.7543C51.1863 21.0161 50.5317 21.147 49.7429 21.147H46.9936V19.8246H49.6037C50.1009 19.8246 50.5052 19.7533 50.8168 19.6108C51.1316 19.4683 51.362 19.2611 51.5078 18.9893C51.6536 18.7176 51.7266 18.3911 51.7266 18.0099C51.7266 17.6255 51.652 17.2924 51.5028 17.0107C51.357 16.7289 51.1267 16.5135 50.8118 16.3643C50.5002 16.2119 50.0909 16.1357 49.5838 16.1357H47.6548V25H46.1186ZM51.1449 20.4062L53.6605 25H51.9105L49.4446 20.4062H51.1449ZM58.2182 25.1541C57.4658 25.1541 56.8179 24.9934 56.2743 24.6719C55.7341 24.3471 55.3165 23.8913 55.0215 23.3047C54.7298 22.7147 54.584 22.0237 54.584 21.2315C54.584 20.4493 54.7298 19.7599 55.0215 19.1634C55.3165 18.5668 55.7275 18.1011 56.2544 17.7663C56.7847 17.4316 57.4045 17.2642 58.1138 17.2642C58.5447 17.2642 58.9623 17.3355 59.3667 17.478C59.771 17.6205 60.1339 17.8442 60.4554 18.1491C60.7769 18.4541 61.0305 18.8501 61.2161 19.3374C61.4017 19.8213 61.4945 20.4096 61.4945 21.1023V21.6293H55.4242V20.5156H60.0378C60.0378 20.1245 59.9583 19.7782 59.7992 19.4766C59.6401 19.1716 59.4164 18.9313 59.128 18.7557C58.843 18.58 58.5082 18.4922 58.1238 18.4922C57.7061 18.4922 57.3416 18.5949 57.03 18.8004C56.7218 19.0026 56.4831 19.2678 56.3141 19.5959C56.1484 19.9207 56.0655 20.2737 56.0655 20.6548V21.5249C56.0655 22.0353 56.155 22.4695 56.334 22.8274C56.5163 23.1854 56.7698 23.4588 57.0946 23.6477C57.4194 23.8333 57.7989 23.9261 58.2331 23.9261C58.5149 23.9261 58.7717 23.8864 59.0037 23.8068C59.2357 23.724 59.4363 23.6013 59.6053 23.4389C59.7743 23.2765 59.9036 23.076 59.9931 22.8374L61.4 23.0909C61.2873 23.5052 61.0852 23.8681 60.7935 24.1797C60.5051 24.4879 60.1422 24.7282 59.7047 24.9006C59.2705 25.0696 58.775 25.1541 58.2182 25.1541ZM65.3661 25.169C64.8822 25.169 64.4447 25.0795 64.0536 24.9006C63.6625 24.7183 63.3526 24.4548 63.1239 24.1101C62.8986 23.7654 62.7859 23.3428 62.7859 22.8423C62.7859 22.4115 62.8687 22.0568 63.0344 21.7784C63.2002 21.5 63.4239 21.2796 63.7056 21.1172C63.9873 20.9548 64.3022 20.8321 64.6502 20.7493C64.9982 20.6664 65.3529 20.6035 65.7141 20.5604C66.1715 20.5073 66.5427 20.4643 66.8278 20.4311C67.1128 20.3946 67.32 20.3366 67.4492 20.2571C67.5785 20.1776 67.6431 20.0483 67.6431 19.8693V19.8345C67.6431 19.4003 67.5205 19.0639 67.2752 18.8253C67.0333 18.5866 66.672 18.4673 66.1914 18.4673C65.6909 18.4673 65.2965 18.5784 65.0082 18.8004C64.7231 19.0192 64.5259 19.2628 64.4165 19.5312L63.0195 19.2131C63.1853 18.7491 63.4272 18.3745 63.7454 18.0895C64.0669 17.8011 64.4364 17.5923 64.854 17.4631C65.2717 17.3305 65.7108 17.2642 66.1715 17.2642C66.4764 17.2642 66.7996 17.3007 67.141 17.3736C67.4857 17.4432 67.8072 17.5724 68.1055 17.7614C68.4071 17.9503 68.654 18.2204 68.8462 18.5717C69.0385 18.9197 69.1346 19.3722 69.1346 19.929V25H67.6829V23.956H67.6232C67.5271 24.1482 67.3829 24.3371 67.1907 24.5227C66.9985 24.7083 66.7515 24.8625 66.4499 24.9851C66.1483 25.1077 65.7871 25.169 65.3661 25.169ZM65.6893 23.9759C66.1003 23.9759 66.4516 23.8946 66.7433 23.7322C67.0382 23.5698 67.262 23.3577 67.4144 23.0959C67.5702 22.8307 67.6481 22.5473 67.6481 22.2457V21.2614C67.5951 21.3144 67.4923 21.3641 67.3398 21.4105C67.1907 21.4536 67.02 21.4917 66.8278 21.5249C66.6355 21.5547 66.4483 21.5829 66.266 21.6094C66.0837 21.6326 65.9312 21.6525 65.8086 21.669C65.5202 21.7055 65.2567 21.7668 65.0181 21.853C64.7828 21.9392 64.5939 22.0634 64.4513 22.2259C64.3121 22.3849 64.2425 22.5971 64.2425 22.8622C64.2425 23.2301 64.3784 23.5085 64.6502 23.6974C64.922 23.883 65.2683 23.9759 65.6893 23.9759ZM73.9732 25.1491C73.3567 25.1491 72.8065 24.9917 72.3226 24.6768C71.842 24.3587 71.4642 23.9062 71.1891 23.3196C70.9173 22.7296 70.7814 22.022 70.7814 21.1967C70.7814 20.3714 70.919 19.6655 71.1941 19.0788C71.4725 18.4922 71.8536 18.0431 72.3375 17.7315C72.8214 17.42 73.37 17.2642 73.9831 17.2642C74.4571 17.2642 74.8382 17.3438 75.1266 17.5028C75.4183 17.6586 75.6436 17.8409 75.8027 18.0497C75.9651 18.2585 76.0911 18.4425 76.1806 18.6016H76.2701V14.8182H77.7566V25H76.3049V23.8118H76.1806C76.0911 23.9742 75.9618 24.1598 75.7928 24.3686C75.6271 24.5774 75.3984 24.7597 75.1067 24.9155C74.815 25.0713 74.4372 25.1491 73.9732 25.1491ZM74.3013 23.8814C74.7289 23.8814 75.0901 23.7687 75.3851 23.5433C75.6834 23.3146 75.9088 22.9981 76.0613 22.5938C76.217 22.1894 76.2949 21.7187 76.2949 21.1818C76.2949 20.6515 76.2187 20.1875 76.0662 19.7898C75.9138 19.392 75.69 19.0821 75.3951 18.8601C75.1001 18.638 74.7355 18.527 74.3013 18.527C73.8539 18.527 73.481 18.643 73.1827 18.875C72.8844 19.107 72.659 19.4235 72.5066 19.8246C72.3574 20.2256 72.2828 20.678 72.2828 21.1818C72.2828 21.6922 72.3591 22.1513 72.5115 22.5589C72.664 22.9666 72.8894 23.2898 73.1877 23.5284C73.4893 23.7637 73.8605 23.8814 74.3013 23.8814ZM84.5627 25H82.932L86.5961 14.8182H88.3709L92.035 25H90.4043L87.5257 16.6676H87.4462L84.5627 25ZM84.8361 21.0128H90.1259V22.3054H84.8361V21.0128ZM93.386 25V17.3636H94.8228V18.5767H94.9023C95.0415 18.1657 95.2868 17.8426 95.6381 17.6072C95.9928 17.3686 96.3938 17.2493 96.8413 17.2493C96.9341 17.2493 97.0434 17.2526 97.1694 17.2592C97.2987 17.2659 97.3997 17.2741 97.4727 17.2841V18.706C97.413 18.6894 97.3069 18.6712 97.1545 18.6513C97.002 18.6281 96.8496 18.6165 96.6971 18.6165C96.3458 18.6165 96.0326 18.6911 95.7575 18.8402C95.4857 18.986 95.2702 19.1899 95.1112 19.4517C94.9521 19.7102 94.8725 20.0052 94.8725 20.3366V25H93.386ZM102.775 17.3636V18.5568H98.6037V17.3636H102.775ZM99.7223 15.5341H101.209V22.7578C101.209 23.0462 101.252 23.2633 101.338 23.4091C101.424 23.5516 101.535 23.6494 101.671 23.7024C101.81 23.7521 101.961 23.777 102.124 23.777C102.243 23.777 102.347 23.7687 102.437 23.7521C102.526 23.7356 102.596 23.7223 102.646 23.7124L102.914 24.9403C102.828 24.9735 102.705 25.0066 102.546 25.0398C102.387 25.0762 102.188 25.0961 101.95 25.0994C101.558 25.1061 101.194 25.0365 100.856 24.8906C100.518 24.7448 100.244 24.5194 100.036 24.2145C99.8267 23.9096 99.7223 23.5268 99.7223 23.0661V15.5341ZM104.419 25V17.3636H105.906V25H104.419ZM105.17 16.1854C104.911 16.1854 104.689 16.0992 104.504 15.9268C104.321 15.7512 104.23 15.5424 104.23 15.3004C104.23 15.0552 104.321 14.8464 104.504 14.674C104.689 14.4983 104.911 14.4105 105.17 14.4105C105.428 14.4105 105.649 14.4983 105.831 14.674C106.017 14.8464 106.11 15.0552 106.11 15.3004C106.11 15.5424 106.017 15.7512 105.831 15.9268C105.649 16.0992 105.428 16.1854 105.17 16.1854ZM111.122 25.1541C110.383 25.1541 109.747 24.9867 109.213 24.652C108.683 24.3139 108.275 23.8482 107.99 23.255C107.705 22.6617 107.562 21.9822 107.562 21.2166C107.562 20.4411 107.708 19.7566 108 19.1634C108.292 18.5668 108.703 18.1011 109.233 17.7663C109.763 17.4316 110.388 17.2642 111.107 17.2642C111.687 17.2642 112.204 17.3719 112.658 17.5874C113.112 17.7995 113.479 18.0978 113.757 18.4822C114.039 18.8667 114.206 19.3158 114.259 19.8295H112.812C112.733 19.4716 112.551 19.1634 112.266 18.9048C111.984 18.6463 111.606 18.517 111.132 18.517C110.718 18.517 110.355 18.6264 110.043 18.8452C109.735 19.0606 109.495 19.3688 109.322 19.7699C109.15 20.1676 109.064 20.6383 109.064 21.1818C109.064 21.7386 109.148 22.2192 109.317 22.6236C109.487 23.0279 109.725 23.3411 110.033 23.5632C110.345 23.7853 110.711 23.8963 111.132 23.8963C111.414 23.8963 111.669 23.8449 111.898 23.7422C112.13 23.6361 112.324 23.4853 112.479 23.2898C112.638 23.0942 112.75 22.8589 112.812 22.5838H114.259C114.206 23.0777 114.045 23.5185 113.777 23.9062C113.509 24.294 113.149 24.599 112.698 24.821C112.251 25.0431 111.725 25.1541 111.122 25.1541ZM117.335 14.8182V25H115.849V14.8182H117.335ZM122.626 25.1541C121.874 25.1541 121.226 24.9934 120.683 24.6719C120.142 24.3471 119.725 23.8913 119.43 23.3047C119.138 22.7147 118.992 22.0237 118.992 21.2315C118.992 20.4493 119.138 19.7599 119.43 19.1634C119.725 18.5668 120.136 18.1011 120.663 17.7663C121.193 17.4316 121.813 17.2642 122.522 17.2642C122.953 17.2642 123.371 17.3355 123.775 17.478C124.179 17.6205 124.542 17.8442 124.864 18.1491C125.185 18.4541 125.439 18.8501 125.624 19.3374C125.81 19.8213 125.903 20.4096 125.903 21.1023V21.6293H119.832V20.5156H124.446C124.446 20.1245 124.366 19.7782 124.207 19.4766C124.048 19.1716 123.825 18.9313 123.536 18.7557C123.251 18.58 122.916 18.4922 122.532 18.4922C122.114 18.4922 121.75 18.5949 121.438 18.8004C121.13 19.0026 120.891 19.2678 120.722 19.5959C120.557 19.9207 120.474 20.2737 120.474 20.6548V21.5249C120.474 22.0353 120.563 22.4695 120.742 22.8274C120.924 23.1854 121.178 23.4588 121.503 23.6477C121.828 23.8333 122.207 23.9261 122.641 23.9261C122.923 23.9261 123.18 23.8864 123.412 23.8068C123.644 23.724 123.844 23.6013 124.013 23.4389C124.183 23.2765 124.312 23.076 124.401 22.8374L125.808 23.0909C125.696 23.5052 125.493 23.8681 125.202 24.1797C124.913 24.4879 124.55 24.7282 124.113 24.9006C123.679 25.0696 123.183 25.1541 122.626 25.1541Z" fill="#64758B"/>
</svg>
