<svg width="21" height="21" viewBox="0 0 21 21" fill="none" xmlns="http://www.w3.org/2000/svg">
<path fill-rule="evenodd" clip-rule="evenodd" d="M17.0644 10.5C17.0644 10.7975 17.0382 11.0775 17.0032 11.3575L18.8494 12.8013C19.0157 12.9325 19.0594 13.1688 18.9544 13.3612L17.2044 16.3888C17.1257 16.5287 16.9769 16.6075 16.8282 16.6075C16.7757 16.6075 16.7232 16.5988 16.6707 16.5813L14.4919 15.7063C14.0369 16.0475 13.5469 16.345 13.0132 16.5638L12.6807 18.8825C12.6544 19.0925 12.4707 19.25 12.2519 19.25H8.75193C8.53318 19.25 8.34943 19.0925 8.32318 18.8825L7.99068 16.5638C7.45693 16.345 6.96693 16.0562 6.51193 15.7063L4.33318 16.5813C4.28943 16.5988 4.23693 16.6075 4.18443 16.6075C4.02693 16.6075 3.87818 16.5287 3.79943 16.3888L2.04943 13.3612C1.94443 13.1688 1.98818 12.9325 2.15443 12.8013L4.00068 11.3575C3.96568 11.0775 3.93943 10.7887 3.93943 10.5C3.93943 10.2113 3.96568 9.9225 4.00068 9.6425L2.15443 8.19875C1.98818 8.0675 1.93568 7.83125 2.04943 7.63875L3.79943 4.61125C3.87818 4.47125 4.02693 4.3925 4.17568 4.3925C4.22818 4.3925 4.28068 4.40125 4.33318 4.41875L6.51193 5.29375C6.96693 4.9525 7.45693 4.655 7.99068 4.43625L8.32318 2.1175C8.34943 1.9075 8.53318 1.75 8.75193 1.75L12.2519 1.75C12.4707 1.75 12.6544 1.9075 12.6807 2.1175L13.0132 4.43625C13.5469 4.655 14.0369 4.94375 14.4919 5.29375L16.6707 4.41875C16.7144 4.40125 16.7669 4.3925 16.8194 4.3925C16.9769 4.3925 17.1257 4.47125 17.2044 4.61125L18.9544 7.63875C19.0594 7.83125 19.0157 8.0675 18.8494 8.19875L17.0032 9.6425C17.0382 9.9225 17.0644 10.2025 17.0644 10.5ZM15.3144 10.5C15.3144 10.3162 15.3057 10.1325 15.2707 9.86125L15.1482 8.8725L15.9269 8.26L16.8632 7.51625L16.2507 6.4575L15.1394 6.90375L14.2119 7.28L13.4157 6.6675C13.0657 6.405 12.7157 6.20375 12.3394 6.04625L11.4119 5.67L11.2719 4.68125L11.1057 3.5H9.88943L9.71443 4.68125L9.57443 5.67L8.64693 6.04625C8.28818 6.195 7.92943 6.405 7.55318 6.685L6.76568 7.28L5.85568 6.9125L4.74443 6.46625L4.13193 7.525L5.07693 8.26L5.85568 8.8725L5.73318 9.86125C5.70693 10.1237 5.68943 10.325 5.68943 10.5C5.68943 10.675 5.70693 10.8763 5.73318 11.1475L5.85568 12.1362L5.07693 12.7487L4.13193 13.4837L4.74443 14.5425L5.85568 14.0962L6.78318 13.72L7.57943 14.3325C7.92943 14.595 8.27943 14.7963 8.65568 14.9538L9.58318 15.33L9.72318 16.3187L9.88943 17.5H11.1144L11.2894 16.3187L11.4294 15.33L12.3569 14.9538C12.7157 14.805 13.0744 14.595 13.4507 14.315L14.2382 13.72L15.1482 14.0875L16.2594 14.5337L16.8719 13.475L15.9269 12.74L15.1482 12.1275L15.2707 11.1388C15.2969 10.8762 15.3144 10.6838 15.3144 10.5ZM10.5019 7C8.56818 7 7.00193 8.56625 7.00193 10.5C7.00193 12.4338 8.56818 14 10.5019 14C12.4357 14 14.0019 12.4338 14.0019 10.5C14.0019 8.56625 12.4357 7 10.5019 7ZM8.75193 10.5C8.75193 11.4625 9.53943 12.25 10.5019 12.25C11.4644 12.25 12.2519 11.4625 12.2519 10.5C12.2519 9.5375 11.4644 8.75 10.5019 8.75C9.53943 8.75 8.75193 9.5375 8.75193 10.5Z" fill="#CBD5E1"/>
</svg>