<svg width="136" height="18" viewBox="0 0 136 18" fill="none" xmlns="http://www.w3.org/2000/svg">
<path d="M27.6605 4.50781V3.09091H36.1033V4.50781H32.6996V14H31.0589V4.50781H27.6605ZM38.6775 14L36.2698 5.81818H37.9157L39.5191 11.8267H39.599L41.2077 5.81818H42.8536L44.4516 11.8001H44.5315L46.1242 5.81818H47.7702L45.3678 14H43.7432L42.0812 8.09268H41.9587L40.2968 14H38.6775ZM52.5589 14.1651C51.7528 14.1651 51.0585 13.9929 50.4761 13.6484C49.8973 13.3004 49.4498 12.8121 49.1338 12.1836C48.8213 11.5515 48.665 10.8111 48.665 9.96236C48.665 9.12429 48.8213 8.38565 49.1338 7.74645C49.4498 7.10724 49.8902 6.60831 50.4548 6.24964C51.023 5.89098 51.6871 5.71165 52.447 5.71165C52.9086 5.71165 53.3561 5.788 53.7893 5.9407C54.2226 6.09339 54.6114 6.3331 54.9559 6.6598C55.3003 6.98651 55.572 7.41087 55.7709 7.93288C55.9697 8.45135 56.0692 9.08168 56.0692 9.82386V10.3885H49.5653V9.19531H54.5084C54.5084 8.77628 54.4232 8.40518 54.2528 8.08203C54.0823 7.75533 53.8426 7.49787 53.5336 7.30966C53.2282 7.12145 52.8696 7.02734 52.4577 7.02734C52.0102 7.02734 51.6196 7.13743 51.2858 7.3576C50.9555 7.57422 50.6998 7.85831 50.5187 8.20987C50.3412 8.55788 50.2524 8.93608 50.2524 9.34446V10.2766C50.2524 10.8235 50.3483 11.2887 50.54 11.6722C50.7354 12.0558 51.007 12.3487 51.355 12.5511C51.703 12.75 52.1096 12.8494 52.5748 12.8494C52.8767 12.8494 53.1519 12.8068 53.4005 12.7216C53.6491 12.6328 53.8639 12.5014 54.045 12.3274C54.2261 12.1534 54.3646 11.9386 54.4605 11.6829L55.968 11.9545C55.8472 12.3984 55.6306 12.7873 55.3181 13.1211C55.0091 13.4513 54.6203 13.7088 54.1515 13.8935C53.6863 14.0746 53.1555 14.1651 52.5589 14.1651ZM61.3626 14.1651C60.5565 14.1651 59.8622 13.9929 59.2798 13.6484C58.701 13.3004 58.2536 12.8121 57.9375 12.1836C57.625 11.5515 57.4688 10.8111 57.4688 9.96236C57.4688 9.12429 57.625 8.38565 57.9375 7.74645C58.2536 7.10724 58.6939 6.60831 59.2585 6.24964C59.8267 5.89098 60.4908 5.71165 61.2507 5.71165C61.7124 5.71165 62.1598 5.788 62.593 5.9407C63.0263 6.09339 63.4151 6.3331 63.7596 6.6598C64.104 6.98651 64.3757 7.41087 64.5746 7.93288C64.7734 8.45135 64.8729 9.08168 64.8729 9.82386V10.3885H58.369V9.19531H63.3121C63.3121 8.77628 63.2269 8.40518 63.0565 8.08203C62.886 7.75533 62.6463 7.49787 62.3374 7.30966C62.032 7.12145 61.6733 7.02734 61.2614 7.02734C60.8139 7.02734 60.4233 7.13743 60.0895 7.3576C59.7592 7.57422 59.5036 7.85831 59.3224 8.20987C59.1449 8.55788 59.0561 8.93608 59.0561 9.34446V10.2766C59.0561 10.8235 59.152 11.2887 59.3438 11.6722C59.5391 12.0558 59.8107 12.3487 60.1587 12.5511C60.5067 12.75 60.9134 12.8494 61.3786 12.8494C61.6804 12.8494 61.9556 12.8068 62.2042 12.7216C62.4528 12.6328 62.6676 12.5014 62.8487 12.3274C63.0298 12.1534 63.1683 11.9386 63.2642 11.6829L64.7717 11.9545C64.6509 12.3984 64.4343 12.7873 64.1218 13.1211C63.8129 13.4513 63.424 13.7088 62.9553 13.8935C62.4901 14.0746 61.9592 14.1651 61.3626 14.1651ZM70.4593 5.81818V7.09659H65.9901V5.81818H70.4593ZM67.1887 3.85795H68.7813V11.5977C68.7813 11.9066 68.8275 12.1392 68.9198 12.2955C69.0122 12.4482 69.1311 12.5529 69.2767 12.6097C69.4259 12.663 69.5874 12.6896 69.7615 12.6896C69.8893 12.6896 70.0012 12.6808 70.097 12.663C70.1929 12.6452 70.2675 12.631 70.3208 12.6204L70.6084 13.9361C70.5161 13.9716 70.3847 14.0071 70.2142 14.0426C70.0438 14.0817 69.8307 14.103 69.575 14.1065C69.156 14.1136 68.7654 14.0391 68.4031 13.8828C68.0409 13.7266 67.748 13.4851 67.5242 13.1584C67.3005 12.8317 67.1887 12.4215 67.1887 11.9279V3.85795ZM80.01 5.81818V7.09659H75.5409V5.81818H80.01ZM76.7394 3.85795H78.3321V11.5977C78.3321 11.9066 78.3783 12.1392 78.4706 12.2955C78.5629 12.4482 78.6819 12.5529 78.8275 12.6097C78.9767 12.663 79.1382 12.6896 79.3122 12.6896C79.4401 12.6896 79.5519 12.6808 79.6478 12.663C79.7437 12.6452 79.8183 12.631 79.8715 12.6204L80.1592 13.9361C80.0669 13.9716 79.9355 14.0071 79.765 14.0426C79.5945 14.0817 79.3815 14.103 79.1258 14.1065C78.7068 14.1136 78.3161 14.0391 77.9539 13.8828C77.5917 13.7266 77.2987 13.4851 77.075 13.1584C76.8513 12.8317 76.7394 12.4215 76.7394 11.9279V3.85795ZM85.1303 14.1651C84.3633 14.1651 83.6939 13.9893 83.1222 13.6378C82.5504 13.2862 82.1065 12.7944 81.7905 12.1623C81.4744 11.5302 81.3164 10.7915 81.3164 9.94638C81.3164 9.09766 81.4744 8.35547 81.7905 7.71982C82.1065 7.08416 82.5504 6.59055 83.1222 6.23899C83.6939 5.88743 84.3633 5.71165 85.1303 5.71165C85.8974 5.71165 86.5668 5.88743 87.1385 6.23899C87.7102 6.59055 88.1541 7.08416 88.4702 7.71982C88.7862 8.35547 88.9442 9.09766 88.9442 9.94638C88.9442 10.7915 88.7862 11.5302 88.4702 12.1623C88.1541 12.7944 87.7102 13.2862 87.1385 13.6378C86.5668 13.9893 85.8974 14.1651 85.1303 14.1651ZM85.1357 12.8281C85.6328 12.8281 86.0447 12.6967 86.3714 12.4339C86.6982 12.1712 86.9396 11.8214 87.0959 11.3846C87.2557 10.9478 87.3356 10.4666 87.3356 9.94105C87.3356 9.41903 87.2557 8.93963 87.0959 8.50284C86.9396 8.0625 86.6982 7.70916 86.3714 7.44283C86.0447 7.17649 85.6328 7.04332 85.1357 7.04332C84.6349 7.04332 84.2195 7.17649 83.8892 7.44283C83.5625 7.70916 83.3192 8.0625 83.1594 8.50284C83.0032 8.93963 82.9251 9.41903 82.9251 9.94105C82.9251 10.4666 83.0032 10.9478 83.1594 11.3846C83.3192 11.8214 83.5625 12.1712 83.8892 12.4339C84.2195 12.6967 84.6349 12.8281 85.1357 12.8281ZM95.7731 3.09091L98.8093 11.9759H98.9318L101.968 3.09091H103.747L99.8214 14H97.9197L93.994 3.09091H95.7731ZM107.901 14.1651C107.095 14.1651 106.4 13.9929 105.818 13.6484C105.239 13.3004 104.792 12.8121 104.476 12.1836C104.163 11.5515 104.007 10.8111 104.007 9.96236C104.007 9.12429 104.163 8.38565 104.476 7.74645C104.792 7.10724 105.232 6.60831 105.797 6.24964C106.365 5.89098 107.029 5.71165 107.789 5.71165C108.25 5.71165 108.698 5.788 109.131 5.9407C109.564 6.09339 109.953 6.3331 110.298 6.6598C110.642 6.98651 110.914 7.41087 111.113 7.93288C111.312 8.45135 111.411 9.08168 111.411 9.82386V10.3885H104.907V9.19531H109.85C109.85 8.77628 109.765 8.40518 109.595 8.08203C109.424 7.75533 109.184 7.49787 108.875 7.30966C108.57 7.12145 108.211 7.02734 107.799 7.02734C107.352 7.02734 106.961 7.13743 106.628 7.3576C106.297 7.57422 106.042 7.85831 105.861 8.20987C105.683 8.55788 105.594 8.93608 105.594 9.34446V10.2766C105.594 10.8235 105.69 11.2887 105.882 11.6722C106.077 12.0558 106.349 12.3487 106.697 12.5511C107.045 12.75 107.451 12.8494 107.917 12.8494C108.218 12.8494 108.494 12.8068 108.742 12.7216C108.991 12.6328 109.206 12.5014 109.387 12.3274C109.568 12.1534 109.706 11.9386 109.802 11.6829L111.31 11.9545C111.189 12.3984 110.972 12.7873 110.66 13.1211C110.351 13.4513 109.962 13.7088 109.493 13.8935C109.028 14.0746 108.497 14.1651 107.901 14.1651ZM113.178 14V5.81818H114.718V7.1179H114.803C114.952 6.67756 115.215 6.33132 115.591 6.07919C115.971 5.82351 116.401 5.69567 116.88 5.69567C116.98 5.69567 117.097 5.69922 117.232 5.70632C117.37 5.71342 117.479 5.7223 117.557 5.73295V7.25639C117.493 7.23864 117.379 7.21911 117.216 7.1978C117.052 7.17294 116.889 7.16051 116.726 7.16051C116.349 7.16051 116.014 7.24041 115.719 7.40021C115.428 7.55646 115.197 7.77486 115.026 8.0554C114.856 8.33239 114.771 8.64844 114.771 9.00355V14H113.178ZM118.935 14V5.81818H120.528V14H118.935ZM119.739 4.55575C119.462 4.55575 119.224 4.46342 119.025 4.27876C118.83 4.09055 118.733 3.86683 118.733 3.6076C118.733 3.34482 118.83 3.12109 119.025 2.93643C119.224 2.74822 119.462 2.65412 119.739 2.65412C120.016 2.65412 120.252 2.74822 120.448 2.93643C120.647 3.12109 120.746 3.34482 120.746 3.6076C120.746 3.86683 120.647 4.09055 120.448 4.27876C120.252 4.46342 120.016 4.55575 119.739 4.55575ZM126.564 5.81818V7.09659H121.941V5.81818H126.564ZM123.208 14V4.87003C123.208 4.35866 123.32 3.9343 123.544 3.59695C123.768 3.25604 124.064 3.00213 124.433 2.83523C124.803 2.66477 125.204 2.57954 125.637 2.57954C125.957 2.57954 126.23 2.60618 126.458 2.65945C126.685 2.70916 126.854 2.75533 126.964 2.79794L126.591 4.087C126.516 4.0657 126.42 4.04084 126.303 4.01243C126.186 3.98047 126.044 3.96449 125.877 3.96449C125.49 3.96449 125.213 4.06037 125.046 4.25213C124.883 4.44389 124.801 4.72088 124.801 5.0831V14H123.208ZM129.214 17.0682C128.976 17.0682 128.76 17.0487 128.564 17.0096C128.369 16.9741 128.223 16.935 128.127 16.8924L128.511 15.5874C128.802 15.6655 129.061 15.6992 129.289 15.6886C129.516 15.6779 129.717 15.5927 129.891 15.4329C130.068 15.2731 130.224 15.0121 130.359 14.6499L130.556 14.1065L127.563 5.81818H129.267L131.339 12.1676H131.425L133.497 5.81818H135.207L131.835 15.092C131.679 15.5181 131.48 15.8786 131.238 16.1733C130.997 16.4716 130.709 16.6953 130.375 16.8445C130.042 16.9936 129.654 17.0682 129.214 17.0682Z" fill="white"/>
<path d="M16.7471 3.49704C16.1557 3.75912 15.5203 3.93621 14.8523 4.01625C15.5415 3.60385 16.0572 2.95479 16.303 2.19017C15.6555 2.57478 14.9468 2.84551 14.2077 2.99058C13.7108 2.45995 13.0525 2.10823 12.3351 1.99004C11.6178 1.87186 10.8815 1.99381 10.2405 2.33697C9.59959 2.68013 9.08987 3.2253 8.79051 3.88783C8.49116 4.55037 8.41891 5.2932 8.58499 6.001C7.27293 5.93512 5.98939 5.5941 4.81766 5.00006C3.64594 4.40602 2.61221 3.57224 1.78357 2.55283C1.50024 3.04158 1.33732 3.60825 1.33732 4.21175C1.33701 4.75504 1.47079 5.29 1.72682 5.76919C1.98284 6.24837 2.35319 6.65694 2.80499 6.95867C2.28102 6.94199 1.76861 6.80041 1.3104 6.54571V6.58821C1.31035 7.35019 1.57393 8.08873 2.05641 8.6785C2.53889 9.26827 3.21056 9.67295 3.95745 9.82388C3.47138 9.95542 2.96177 9.9748 2.46711 9.88054C2.67784 10.5362 3.08832 11.1095 3.64108 11.5203C4.19384 11.931 4.86122 12.1587 5.54978 12.1713C4.38091 13.0889 2.93737 13.5866 1.45136 13.5844C1.18813 13.5845 0.925125 13.5691 0.663696 13.5384C2.17208 14.5082 3.92794 15.0229 5.7212 15.0209C11.7916 15.0209 15.1102 9.99317 15.1102 5.63267C15.1102 5.491 15.1066 5.34792 15.1002 5.20625C15.7457 4.73944 16.3029 4.16138 16.7457 3.49917L16.7471 3.49704Z" fill="white"/>
</svg>
