<svg width="65" height="65" viewBox="0 0 65 65" fill="none" xmlns="http://www.w3.org/2000/svg">
<circle cx="32.5" cy="32.5" r="32" fill="#F7FAFC" stroke="#E2E8EF" stroke-dasharray="5 5"/>
<path fill-rule="evenodd" clip-rule="evenodd" d="M42.3813 28.9233C41.5596 24.7546 37.8983 21.625 33.5 21.625C30.0079 21.625 26.975 23.6067 25.4646 26.5067C21.8275 26.8933 19 29.9746 19 33.7083C19 37.7079 22.2504 40.9583 26.25 40.9583H41.9583C45.2933 40.9583 48 38.2517 48 34.9167C48 31.7267 45.5229 29.1408 42.3813 28.9233ZM41.9583 38.5417H26.25C23.5796 38.5417 21.4167 36.3787 21.4167 33.7083C21.4167 31.2312 23.2654 29.165 25.7183 28.9113L27.0113 28.7783L27.6154 27.6304C28.7633 25.4192 31.0108 24.0417 33.5 24.0417C36.6658 24.0417 39.3967 26.2892 40.0129 29.3946L40.3754 31.2071L42.2242 31.34C44.1092 31.4608 45.5833 33.0437 45.5833 34.9167C45.5833 36.9104 43.9521 38.5417 41.9583 38.5417ZM31.7479 32.5H28.6667L33.5 27.6667L38.3333 32.5H35.2521V36.125H31.7479V32.5Z" fill="#CBD5E1"/>
</svg>
