<svg width="77" height="77" viewBox="0 0 77 77" fill="none" xmlns="http://www.w3.org/2000/svg">
<circle cx="38.5" cy="38.5" r="38" stroke="#DBDBDB" stroke-dasharray="5 5"/>
<path d="M49.9946 37.594C49.3027 32.1442 44.6366 27.9167 39 27.9167C34.6363 27.9167 30.8458 30.4674 29.1152 34.4875C25.7142 35.504 23.1666 38.715 23.1666 42.1667C23.1666 46.5319 26.718 50.0833 31.0833 50.0833H48.5C51.9928 50.0833 54.8333 47.2428 54.8333 43.75C54.8309 42.3307 54.353 40.9532 53.4759 39.8373C52.5988 38.7215 51.3732 37.9317 49.9946 37.594V37.594ZM40.5833 42.1667V46.9167H37.4166V42.1667H32.6666L39 34.25L45.3333 42.1667H40.5833Z" fill="#C5C5C5"/>
</svg>
