<svg width="225" height="44" viewBox="0 0 225 44" fill="none" xmlns="http://www.w3.org/2000/svg">
<rect width="225" height="44" rx="22" fill="#959FA9" fill-opacity="0.15"/>
<path fill-rule="evenodd" clip-rule="evenodd" d="M25 11C18.925 11 14 15.925 14 22C14 28.075 18.925 33 25 33C31.075 33 36 28.075 36 22C36 15.925 31.075 11 25 11ZM29.768 20.14C29.8558 20.0396 29.9226 19.9227 29.9646 19.7962C30.0065 19.6696 30.0227 19.5359 30.0123 19.403C30.0018 19.2701 29.9648 19.1406 29.9036 19.0221C29.8423 18.9037 29.758 18.7987 29.6555 18.7133C29.5531 18.628 29.4346 18.564 29.3071 18.5251C29.1796 18.4862 29.0455 18.4732 28.9129 18.4868C28.7802 18.5005 28.6517 18.5405 28.5347 18.6046C28.4178 18.6687 28.3149 18.7555 28.232 18.86L23.932 24.019L21.707 21.793C21.5184 21.6108 21.2658 21.51 21.0036 21.5123C20.7414 21.5146 20.4906 21.6198 20.3052 21.8052C20.1198 21.9906 20.0146 22.2414 20.0123 22.5036C20.01 22.7658 20.1108 23.0184 20.293 23.207L23.293 26.207C23.3913 26.3052 23.5089 26.3818 23.6384 26.4321C23.7679 26.4823 23.9065 26.505 24.0453 26.4986C24.184 26.4923 24.32 26.4572 24.4444 26.3954C24.5688 26.3337 24.6791 26.2467 24.768 26.14L29.768 20.14Z" fill="#959FA9"/>
<path d="M56.5852 29V15.9091H61.1619C62.0739 15.9091 62.826 16.0668 63.4183 16.3821C64.0107 16.6932 64.4517 17.1129 64.7415 17.6413C65.0313 18.1655 65.1761 18.7472 65.1761 19.3864C65.1761 19.9489 65.076 20.4134 64.8757 20.7798C64.6797 21.1463 64.4197 21.4361 64.0959 21.6491C63.7763 21.8622 63.429 22.0199 63.054 22.1222V22.25C63.4545 22.2756 63.8572 22.4162 64.2621 22.6719C64.6669 22.9276 65.0057 23.294 65.2784 23.7713C65.5511 24.2486 65.6875 24.8324 65.6875 25.5227C65.6875 26.179 65.5384 26.7692 65.2401 27.2933C64.9418 27.8175 64.4709 28.233 63.8274 28.5398C63.1839 28.8466 62.3466 29 61.3153 29H56.5852ZM58.1705 27.5938H61.3153C62.3509 27.5938 63.0859 27.3935 63.5206 26.9929C63.9595 26.5881 64.179 26.098 64.179 25.5227C64.179 25.0795 64.0661 24.6705 63.8402 24.2955C63.6143 23.9162 63.2926 23.6136 62.875 23.3878C62.4574 23.1577 61.9631 23.0426 61.392 23.0426H58.1705V27.5938ZM58.1705 21.6619H61.1108C61.5881 21.6619 62.0185 21.5682 62.402 21.3807C62.7898 21.1932 63.0966 20.929 63.3224 20.5881C63.5526 20.2472 63.6676 19.8466 63.6676 19.3864C63.6676 18.8111 63.4673 18.3232 63.0668 17.9226C62.6662 17.5178 62.0313 17.3153 61.1619 17.3153H58.1705V21.6619ZM72.2042 29.2045C71.2582 29.2045 70.4421 28.9957 69.756 28.5781C69.0742 28.1562 68.5479 27.5682 68.1772 26.8139C67.8107 26.0554 67.6275 25.1733 67.6275 24.1676C67.6275 23.1619 67.8107 22.2756 68.1772 21.5085C68.5479 20.7372 69.0636 20.1364 69.7241 19.706C70.3888 19.2713 71.1644 19.054 72.0508 19.054C72.5621 19.054 73.0671 19.1392 73.5657 19.3097C74.0643 19.4801 74.5181 19.7571 74.9272 20.1406C75.3363 20.5199 75.6623 21.0227 75.9052 21.6491C76.1481 22.2756 76.2695 23.0469 76.2695 23.9631V24.6023H68.7013V23.2983H74.7354C74.7354 22.7443 74.6246 22.25 74.4031 21.8153C74.1857 21.3807 73.8746 21.0376 73.4698 20.7862C73.0692 20.5348 72.5962 20.4091 72.0508 20.4091C71.4499 20.4091 70.93 20.5582 70.4911 20.8565C70.0565 21.1506 69.7219 21.5341 69.4876 22.0071C69.2532 22.4801 69.136 22.9872 69.136 23.5284V24.3977C69.136 25.1392 69.2638 25.7678 69.5195 26.2834C69.7795 26.7947 70.1396 27.1847 70.5998 27.4531C71.06 27.7173 71.5948 27.8494 72.2042 27.8494C72.6005 27.8494 72.9585 27.794 73.2781 27.6832C73.6019 27.5682 73.881 27.3977 74.1154 27.1719C74.3498 26.9418 74.5309 26.6562 74.6587 26.3153L76.1161 26.7244C75.9627 27.2188 75.7049 27.6534 75.3427 28.0284C74.9805 28.3991 74.533 28.6889 74.0004 28.8977C73.4677 29.1023 72.869 29.2045 72.2042 29.2045ZM82.8342 19.1818V20.4602H77.7461V19.1818H82.8342ZM79.229 16.8295H80.7376V26.1875C80.7376 26.6136 80.7994 26.9332 80.9229 27.1463C81.0508 27.3551 81.2127 27.4957 81.4087 27.5682C81.609 27.6364 81.82 27.6705 82.0415 27.6705C82.2077 27.6705 82.3441 27.6619 82.4506 27.6449C82.5572 27.6236 82.6424 27.6065 82.7063 27.5938L83.0131 28.9489C82.9109 28.9872 82.7681 29.0256 82.5849 29.0639C82.4016 29.1065 82.1694 29.1278 81.8881 29.1278C81.462 29.1278 81.0444 29.0362 80.6353 28.853C80.2305 28.6697 79.8938 28.3906 79.6254 28.0156C79.3612 27.6406 79.229 27.1676 79.229 26.5966V16.8295ZM87.9925 29.2301C87.3704 29.2301 86.8058 29.1129 86.2987 28.8786C85.7915 28.6399 85.3888 28.2969 85.0906 27.8494C84.7923 27.3977 84.6431 26.8523 84.6431 26.2131C84.6431 25.6506 84.7539 25.1946 84.9755 24.8452C85.1971 24.4915 85.4933 24.2145 85.864 24.0142C86.2347 23.8139 86.6438 23.6648 87.0913 23.5668C87.543 23.4645 87.9968 23.3835 88.4528 23.3239C89.0494 23.2472 89.533 23.1896 89.9038 23.1513C90.2788 23.1087 90.5515 23.0384 90.7219 22.9403C90.8967 22.8423 90.984 22.6719 90.984 22.429V22.3778C90.984 21.7472 90.8114 21.2571 90.4663 20.9077C90.1254 20.5582 89.6076 20.3835 88.913 20.3835C88.1928 20.3835 87.6282 20.5412 87.2191 20.8565C86.81 21.1719 86.5224 21.5085 86.3562 21.8665L84.9244 21.3551C85.18 20.7585 85.521 20.294 85.9471 19.9616C86.3775 19.625 86.8462 19.3906 87.3533 19.2585C87.8647 19.1222 88.3675 19.054 88.8619 19.054C89.1772 19.054 89.5394 19.0923 89.9485 19.169C90.3619 19.2415 90.7603 19.3928 91.1438 19.6229C91.5316 19.853 91.8533 20.2003 92.109 20.6648C92.3647 21.1293 92.4925 21.7514 92.4925 22.5312V29H90.984V27.6705H90.9073C90.805 27.8835 90.6346 28.1115 90.396 28.3544C90.1573 28.5973 89.8398 28.804 89.4435 28.9744C89.0472 29.1449 88.5636 29.2301 87.9925 29.2301ZM88.2227 27.875C88.8192 27.875 89.3221 27.7578 89.7312 27.5234C90.1445 27.2891 90.4556 26.9865 90.6644 26.6158C90.8775 26.245 90.984 25.8551 90.984 25.446V24.0653C90.9201 24.142 90.7795 24.2124 90.5621 24.2763C90.3491 24.3359 90.1019 24.3892 89.8207 24.4361C89.5437 24.4787 89.2731 24.517 89.0089 24.5511C88.7489 24.581 88.538 24.6065 88.3761 24.6278C87.984 24.679 87.6175 24.7621 87.2766 24.8771C86.94 24.9879 86.6673 25.1562 86.4585 25.3821C86.2539 25.6037 86.1516 25.9062 86.1516 26.2898C86.1516 26.8139 86.3455 27.2102 86.7333 27.4787C87.1254 27.7429 87.6218 27.875 88.2227 27.875ZM110.894 15.9091V29H109.36L102.226 18.7216H102.098V29H100.513V15.9091H102.047L109.206 26.2131H109.334V15.9091H110.894ZM114.066 29V15.9091H121.915V17.3153H115.651V21.7386H121.327V23.1449H115.651V29H114.066ZM123.914 17.3153V15.9091H133.732V17.3153H129.616V29H128.031V17.3153H123.914ZM141.778 15.9091L145.665 26.929H145.818L149.705 15.9091H151.366L146.56 29H144.923L140.116 15.9091H141.778ZM156.403 29.2045C155.457 29.2045 154.641 28.9957 153.955 28.5781C153.273 28.1562 152.747 27.5682 152.376 26.8139C152.01 26.0554 151.827 25.1733 151.827 24.1676C151.827 23.1619 152.01 22.2756 152.376 21.5085C152.747 20.7372 153.263 20.1364 153.923 19.706C154.588 19.2713 155.364 19.054 156.25 19.054C156.761 19.054 157.266 19.1392 157.765 19.3097C158.263 19.4801 158.717 19.7571 159.126 20.1406C159.536 20.5199 159.862 21.0227 160.104 21.6491C160.347 22.2756 160.469 23.0469 160.469 23.9631V24.6023H152.901V23.2983H158.935C158.935 22.7443 158.824 22.25 158.602 21.8153C158.385 21.3807 158.074 21.0376 157.669 20.7862C157.268 20.5348 156.795 20.4091 156.25 20.4091C155.649 20.4091 155.129 20.5582 154.69 20.8565C154.256 21.1506 153.921 21.5341 153.687 22.0071C153.452 22.4801 153.335 22.9872 153.335 23.5284V24.3977C153.335 25.1392 153.463 25.7678 153.719 26.2834C153.979 26.7947 154.339 27.1847 154.799 27.4531C155.259 27.7173 155.794 27.8494 156.403 27.8494C156.8 27.8494 157.158 27.794 157.477 27.6832C157.801 27.5682 158.08 27.3977 158.315 27.1719C158.549 26.9418 158.73 26.6562 158.858 26.3153L160.315 26.7244C160.162 27.2188 159.904 27.6534 159.542 28.0284C159.18 28.3991 158.732 28.6889 158.2 28.8977C157.667 29.1023 157.068 29.2045 156.403 29.2045ZM162.763 29V19.1818H164.221V20.6648H164.323C164.502 20.179 164.826 19.7848 165.295 19.4822C165.763 19.1797 166.292 19.0284 166.88 19.0284C166.991 19.0284 167.129 19.0305 167.295 19.0348C167.462 19.0391 167.587 19.0455 167.673 19.054V20.5881C167.621 20.5753 167.504 20.5561 167.321 20.5305C167.142 20.5007 166.952 20.4858 166.752 20.4858C166.275 20.4858 165.849 20.5859 165.474 20.7862C165.103 20.9822 164.809 21.255 164.592 21.6044C164.379 21.9496 164.272 22.3437 164.272 22.7869V29H162.763ZM169.461 29V19.1818H170.969V29H169.461ZM170.228 17.5455C169.934 17.5455 169.68 17.4453 169.467 17.245C169.258 17.0447 169.154 16.804 169.154 16.5227C169.154 16.2415 169.258 16.0007 169.467 15.8004C169.68 15.6001 169.934 15.5 170.228 15.5C170.522 15.5 170.773 15.6001 170.982 15.8004C171.195 16.0007 171.302 16.2415 171.302 16.5227C171.302 16.804 171.195 17.0447 170.982 17.245C170.773 17.4453 170.522 17.5455 170.228 17.5455ZM178.104 19.1818V20.4602H172.812V19.1818H178.104ZM174.397 29V17.8267C174.397 17.2642 174.529 16.7955 174.793 16.4205C175.058 16.0455 175.401 15.7642 175.822 15.5767C176.244 15.3892 176.69 15.2955 177.158 15.2955C177.529 15.2955 177.832 15.3253 178.066 15.3849C178.3 15.4446 178.475 15.5 178.59 15.5511L178.156 16.8551C178.079 16.8295 177.972 16.7976 177.836 16.7592C177.704 16.7209 177.529 16.7017 177.312 16.7017C176.813 16.7017 176.453 16.8274 176.232 17.0788C176.014 17.3303 175.906 17.6989 175.906 18.1847V29H174.397ZM180.219 29V19.1818H181.727V29H180.219ZM180.986 17.5455C180.692 17.5455 180.438 17.4453 180.225 17.245C180.016 17.0447 179.912 16.804 179.912 16.5227C179.912 16.2415 180.016 16.0007 180.225 15.8004C180.438 15.6001 180.692 15.5 180.986 15.5C181.28 15.5 181.531 15.6001 181.74 15.8004C181.953 16.0007 182.059 16.2415 182.059 16.5227C182.059 16.804 181.953 17.0447 181.74 17.245C181.531 17.4453 181.28 17.5455 180.986 17.5455ZM188.607 29.2045C187.661 29.2045 186.844 28.9957 186.158 28.5781C185.477 28.1562 184.95 27.5682 184.58 26.8139C184.213 26.0554 184.03 25.1733 184.03 24.1676C184.03 23.1619 184.213 22.2756 184.58 21.5085C184.95 20.7372 185.466 20.1364 186.126 19.706C186.791 19.2713 187.567 19.054 188.453 19.054C188.964 19.054 189.469 19.1392 189.968 19.3097C190.467 19.4801 190.92 19.7571 191.33 20.1406C191.739 20.5199 192.065 21.0227 192.308 21.6491C192.55 22.2756 192.672 23.0469 192.672 23.9631V24.6023H185.104V23.2983H191.138C191.138 22.7443 191.027 22.25 190.805 21.8153C190.588 21.3807 190.277 21.0376 189.872 20.7862C189.472 20.5348 188.999 20.4091 188.453 20.4091C187.852 20.4091 187.332 20.5582 186.893 20.8565C186.459 21.1506 186.124 21.5341 185.89 22.0071C185.656 22.4801 185.538 22.9872 185.538 23.5284V24.3977C185.538 25.1392 185.666 25.7678 185.922 26.2834C186.182 26.7947 186.542 27.1847 187.002 27.4531C187.462 27.7173 187.997 27.8494 188.607 27.8494C189.003 27.8494 189.361 27.794 189.68 27.6832C190.004 27.5682 190.283 27.3977 190.518 27.1719C190.752 26.9418 190.933 26.6562 191.061 26.3153L192.518 26.7244C192.365 27.2188 192.107 27.6534 191.745 28.0284C191.383 28.3991 190.935 28.6889 190.403 28.8977C189.87 29.1023 189.271 29.2045 188.607 29.2045ZM198.674 29.2045C197.856 29.2045 197.134 28.9979 196.507 28.5845C195.881 28.1669 195.391 27.5788 195.037 26.8203C194.683 26.0575 194.506 25.1562 194.506 24.1165C194.506 23.0852 194.683 22.1903 195.037 21.4318C195.391 20.6733 195.883 20.0874 196.513 19.674C197.144 19.2607 197.873 19.054 198.7 19.054C199.339 19.054 199.844 19.1605 200.214 19.3736C200.589 19.5824 200.875 19.821 201.071 20.0895C201.271 20.3537 201.427 20.571 201.538 20.7415H201.665V15.9091H203.174V29H201.717V27.4915H201.538C201.427 27.6705 201.269 27.8963 201.065 28.169C200.86 28.4375 200.568 28.6783 200.189 28.8913C199.81 29.1001 199.305 29.2045 198.674 29.2045ZM198.879 27.8494C199.484 27.8494 199.995 27.6918 200.413 27.3764C200.83 27.0568 201.148 26.6158 201.365 26.0533C201.582 25.4865 201.691 24.8324 201.691 24.0909C201.691 23.358 201.585 22.7166 201.371 22.1669C201.158 21.6129 200.843 21.1825 200.425 20.8757C200.008 20.5646 199.492 20.4091 198.879 20.4091C198.239 20.4091 197.707 20.5732 197.281 20.9013C196.859 21.2251 196.541 21.6662 196.328 22.2244C196.119 22.7784 196.015 23.4006 196.015 24.0909C196.015 24.7898 196.121 25.4247 196.335 25.9957C196.552 26.5625 196.871 27.0142 197.293 27.3509C197.719 27.6832 198.248 27.8494 198.879 27.8494Z" fill="#959FA9"/>
</svg>
