<svg width="146" height="40" viewBox="0 0 146 40" fill="none" xmlns="http://www.w3.org/2000/svg">
<rect width="146" height="40" rx="4" fill="#F7FAFC"/>
<path fill-rule="evenodd" clip-rule="evenodd" d="M10.5 20C10.5 15.86 13.86 12.5 18 12.5C22.14 12.5 25.5 15.86 25.5 20C25.5 24.14 22.14 27.5 18 27.5C13.86 27.5 10.5 24.14 10.5 20ZM21 20L16.5 16.625V23.375L21 20Z" fill="#94A3B8"/>
<path d="M48.1122 25L45.2884 14.8182H46.9041L48.8878 22.7031H48.9822L51.0455 14.8182H52.6463L54.7095 22.7081H54.804L56.7827 14.8182H58.4034L55.5746 25H54.0284L51.8857 17.3736H51.8061L49.6634 25H48.1122ZM61.1552 25.169C60.6713 25.169 60.2338 25.0795 59.8427 24.9006C59.4516 24.7183 59.1417 24.4548 58.913 24.1101C58.6876 23.7654 58.5749 23.3428 58.5749 22.8423C58.5749 22.4115 58.6578 22.0568 58.8235 21.7784C58.9892 21.5 59.2129 21.2796 59.4947 21.1172C59.7764 20.9548 60.0913 20.8321 60.4393 20.7493C60.7873 20.6664 61.1419 20.6035 61.5032 20.5604C61.9606 20.5073 62.3318 20.4643 62.6168 20.4311C62.9019 20.3946 63.109 20.3366 63.2383 20.2571C63.3675 20.1776 63.4322 20.0483 63.4322 19.8693V19.8345C63.4322 19.4003 63.3095 19.0639 63.0643 18.8253C62.8223 18.5866 62.4611 18.4673 61.9805 18.4673C61.48 18.4673 61.0856 18.5784 60.7972 18.8004C60.5122 19.0192 60.315 19.2628 60.2056 19.5312L58.8086 19.2131C58.9743 18.7491 59.2163 18.3745 59.5344 18.0895C59.8559 17.8011 60.2255 17.5923 60.6431 17.4631C61.0607 17.3305 61.4999 17.2642 61.9606 17.2642C62.2655 17.2642 62.5887 17.3007 62.93 17.3736C63.2747 17.4432 63.5962 17.5724 63.8945 17.7614C64.1961 17.9503 64.4431 18.2204 64.6353 18.5717C64.8275 18.9197 64.9237 19.3722 64.9237 19.929V25H63.4719V23.956H63.4123C63.3162 24.1482 63.172 24.3371 62.9798 24.5227C62.7875 24.7083 62.5406 24.8625 62.239 24.9851C61.9374 25.1077 61.5761 25.169 61.1552 25.169ZM61.4783 23.9759C61.8893 23.9759 62.2406 23.8946 62.5323 23.7322C62.8273 23.5698 63.051 23.3577 63.2035 23.0959C63.3593 22.8307 63.4371 22.5473 63.4371 22.2457V21.2614C63.3841 21.3144 63.2814 21.3641 63.1289 21.4105C62.9798 21.4536 62.8091 21.4917 62.6168 21.5249C62.4246 21.5547 62.2373 21.5829 62.055 21.6094C61.8728 21.6326 61.7203 21.6525 61.5977 21.669C61.3093 21.7055 61.0458 21.7668 60.8072 21.853C60.5719 21.9392 60.3829 22.0634 60.2404 22.2259C60.1012 22.3849 60.0316 22.5971 60.0316 22.8622C60.0316 23.2301 60.1675 23.5085 60.4393 23.6974C60.7111 23.883 61.0574 23.9759 61.4783 23.9759ZM70.4682 17.3636V18.5568H66.2971V17.3636H70.4682ZM67.4157 15.5341H68.9022V22.7578C68.9022 23.0462 68.9453 23.2633 69.0314 23.4091C69.1176 23.5516 69.2286 23.6494 69.3645 23.7024C69.5037 23.7521 69.6545 23.777 69.8169 23.777C69.9363 23.777 70.0407 23.7687 70.1301 23.7521C70.2196 23.7356 70.2892 23.7223 70.339 23.7124L70.6074 24.9403C70.5212 24.9735 70.3986 25.0066 70.2395 25.0398C70.0804 25.0762 69.8816 25.0961 69.6429 25.0994C69.2518 25.1061 68.8873 25.0365 68.5492 24.8906C68.2111 24.7448 67.9377 24.5194 67.7289 24.2145C67.5201 23.9096 67.4157 23.5268 67.4157 23.0661V15.5341ZM75.2472 25.1541C74.508 25.1541 73.8717 24.9867 73.3381 24.652C72.8078 24.3139 72.4001 23.8482 72.1151 23.255C71.83 22.6617 71.6875 21.9822 71.6875 21.2166C71.6875 20.4411 71.8333 19.7566 72.125 19.1634C72.4167 18.5668 72.8277 18.1011 73.358 17.7663C73.8883 17.4316 74.513 17.2642 75.2322 17.2642C75.8123 17.2642 76.3293 17.3719 76.7834 17.5874C77.2375 17.7995 77.6037 18.0978 77.8821 18.4822C78.1638 18.8667 78.3312 19.3158 78.3842 19.8295H76.9375C76.858 19.4716 76.6757 19.1634 76.3906 18.9048C76.1089 18.6463 75.7311 18.517 75.2571 18.517C74.8428 18.517 74.4799 18.6264 74.1683 18.8452C73.8601 19.0606 73.6198 19.3688 73.4474 19.7699C73.2751 20.1676 73.1889 20.6383 73.1889 21.1818C73.1889 21.7386 73.2734 22.2192 73.4425 22.6236C73.6115 23.0279 73.8501 23.3411 74.1584 23.5632C74.4699 23.7853 74.8362 23.8963 75.2571 23.8963C75.5388 23.8963 75.794 23.8449 76.0227 23.7422C76.2547 23.6361 76.4486 23.4853 76.6044 23.2898C76.7635 23.0942 76.8745 22.8589 76.9375 22.5838H78.3842C78.3312 23.0777 78.1705 23.5185 77.902 23.9062C77.6335 24.294 77.2739 24.599 76.8232 24.821C76.3757 25.0431 75.8504 25.1541 75.2472 25.1541ZM81.4604 20.4659V25H79.9739V14.8182H81.4405V18.6065H81.535C81.714 18.1955 81.9874 17.8691 82.3553 17.6271C82.7232 17.3852 83.2038 17.2642 83.7971 17.2642C84.3207 17.2642 84.7781 17.3719 85.1692 17.5874C85.5636 17.8028 85.8685 18.1243 86.084 18.5518C86.3027 18.9761 86.4121 19.5064 86.4121 20.1428V25H84.9256V20.3217C84.9256 19.7616 84.7814 19.3274 84.4931 19.0192C84.2047 18.7076 83.8037 18.5518 83.29 18.5518C82.9386 18.5518 82.6238 18.6264 82.3453 18.7756C82.0703 18.9247 81.8532 19.1435 81.6941 19.4318C81.5383 19.7169 81.4604 20.0616 81.4604 20.4659ZM93.1101 14.8182L95.9439 23.1108H96.0582L98.892 14.8182H100.553L96.8885 25H95.1136L91.4496 14.8182H93.1101ZM101.904 25V17.3636H103.39V25H101.904ZM102.654 16.1854C102.396 16.1854 102.174 16.0992 101.988 15.9268C101.806 15.7512 101.715 15.5424 101.715 15.3004C101.715 15.0552 101.806 14.8464 101.988 14.674C102.174 14.4983 102.396 14.4105 102.654 14.4105C102.913 14.4105 103.133 14.4983 103.316 14.674C103.501 14.8464 103.594 15.0552 103.594 15.3004C103.594 15.5424 103.501 15.7512 103.316 15.9268C103.133 16.0992 102.913 16.1854 102.654 16.1854ZM108.249 25.1491C107.632 25.1491 107.082 24.9917 106.598 24.6768C106.117 24.3587 105.74 23.9062 105.464 23.3196C105.193 22.7296 105.057 22.022 105.057 21.1967C105.057 20.3714 105.194 19.6655 105.469 19.0788C105.748 18.4922 106.129 18.0431 106.613 17.7315C107.097 17.42 107.645 17.2642 108.259 17.2642C108.732 17.2642 109.114 17.3438 109.402 17.5028C109.694 17.6586 109.919 17.8409 110.078 18.0497C110.241 18.2585 110.366 18.4425 110.456 18.6016H110.545V14.8182H112.032V25H110.58V23.8118H110.456C110.366 23.9742 110.237 24.1598 110.068 24.3686C109.902 24.5774 109.674 24.7597 109.382 24.9155C109.09 25.0713 108.713 25.1491 108.249 25.1491ZM108.577 23.8814C109.004 23.8814 109.366 23.7687 109.661 23.5433C109.959 23.3146 110.184 22.9981 110.337 22.5938C110.492 22.1894 110.57 21.7187 110.57 21.1818C110.57 20.6515 110.494 20.1875 110.342 19.7898C110.189 19.392 109.965 19.0821 109.67 18.8601C109.375 18.638 109.011 18.527 108.577 18.527C108.129 18.527 107.756 18.643 107.458 18.875C107.16 19.107 106.934 19.4235 106.782 19.8246C106.633 20.2256 106.558 20.678 106.558 21.1818C106.558 21.6922 106.634 22.1513 106.787 22.5589C106.939 22.9666 107.165 23.2898 107.463 23.5284C107.765 23.7637 108.136 23.8814 108.577 23.8814ZM117.445 25.1541C116.692 25.1541 116.044 24.9934 115.501 24.6719C114.961 24.3471 114.543 23.8913 114.248 23.3047C113.956 22.7147 113.811 22.0237 113.811 21.2315C113.811 20.4493 113.956 19.7599 114.248 19.1634C114.543 18.5668 114.954 18.1011 115.481 17.7663C116.011 17.4316 116.631 17.2642 117.34 17.2642C117.771 17.2642 118.189 17.3355 118.593 17.478C118.998 17.6205 119.36 17.8442 119.682 18.1491C120.003 18.4541 120.257 18.8501 120.443 19.3374C120.628 19.8213 120.721 20.4096 120.721 21.1023V21.6293H114.651V20.5156H119.264C119.264 20.1245 119.185 19.7782 119.026 19.4766C118.867 19.1716 118.643 18.9313 118.355 18.7557C118.07 18.58 117.735 18.4922 117.35 18.4922C116.933 18.4922 116.568 18.5949 116.257 18.8004C115.948 19.0026 115.71 19.2678 115.541 19.5959C115.375 19.9207 115.292 20.2737 115.292 20.6548V21.5249C115.292 22.0353 115.382 22.4695 115.561 22.8274C115.743 23.1854 115.996 23.4588 116.321 23.6477C116.646 23.8333 117.026 23.9261 117.46 23.9261C117.741 23.9261 117.998 23.8864 118.23 23.8068C118.462 23.724 118.663 23.6013 118.832 23.4389C119.001 23.2765 119.13 23.076 119.22 22.8374L120.627 23.0909C120.514 23.5052 120.312 23.8681 120.02 24.1797C119.732 24.4879 119.369 24.7282 118.931 24.9006C118.497 25.0696 118.002 25.1541 117.445 25.1541ZM125.587 25.1541C124.871 25.1541 124.246 24.9901 123.713 24.6619C123.179 24.3338 122.765 23.8748 122.47 23.2848C122.175 22.6948 122.027 22.0054 122.027 21.2166C122.027 20.4245 122.175 19.7318 122.47 19.1385C122.765 18.5452 123.179 18.0845 123.713 17.7564C124.246 17.4283 124.871 17.2642 125.587 17.2642C126.303 17.2642 126.928 17.4283 127.461 17.7564C127.995 18.0845 128.409 18.5452 128.704 19.1385C128.999 19.7318 129.147 20.4245 129.147 21.2166C129.147 22.0054 128.999 22.6948 128.704 23.2848C128.409 23.8748 127.995 24.3338 127.461 24.6619C126.928 24.9901 126.303 25.1541 125.587 25.1541ZM125.592 23.9062C126.056 23.9062 126.44 23.7836 126.745 23.5384C127.05 23.2931 127.276 22.9666 127.422 22.5589C127.571 22.1513 127.645 21.7022 127.645 21.2116C127.645 20.7244 127.571 20.277 127.422 19.8693C127.276 19.4583 127.05 19.1286 126.745 18.88C126.44 18.6314 126.056 18.5071 125.592 18.5071C125.125 18.5071 124.737 18.6314 124.429 18.88C124.124 19.1286 123.897 19.4583 123.748 19.8693C123.602 20.277 123.529 20.7244 123.529 21.2116C123.529 21.7022 123.602 22.1513 123.748 22.5589C123.897 22.9666 124.124 23.2931 124.429 23.5384C124.737 23.7836 125.125 23.9062 125.592 23.9062Z" fill="#64758B"/>
</svg>
