<svg width="50" height="51" viewBox="0 0 50 51" fill="none" xmlns="http://www.w3.org/2000/svg">
<rect y="0.5" width="50" height="50" rx="8" fill="#A873FF" fill-opacity="0.06"/>
<path opacity="0.3" fill-rule="evenodd" clip-rule="evenodd" d="M30.25 38.6667C34.162 38.6667 37.3333 35.4954 37.3333 31.5833C37.3333 27.6713 34.162 24.5 30.25 24.5C26.338 24.5 23.1667 27.6713 23.1667 31.5833C23.1667 35.4954 26.338 38.6667 30.25 38.6667Z" fill="#9D7CE5"/>
<path opacity="0.3" fill-rule="evenodd" clip-rule="evenodd" d="M21.75 38.6667C25.662 38.6667 28.8333 35.4954 28.8333 31.5833C28.8333 27.6713 25.662 24.5 21.75 24.5C17.838 24.5 14.6667 27.6713 14.6667 31.5833C14.6667 35.4954 17.838 38.6667 21.75 38.6667Z" fill="#9D7CE5"/>
<path opacity="0.3" fill-rule="evenodd" clip-rule="evenodd" d="M18.9167 30.1667C22.8287 30.1667 26 26.9954 26 23.0833C26 19.1713 22.8287 16 18.9167 16C15.0046 16 11.8333 19.1713 11.8333 23.0833C11.8333 26.9954 15.0046 30.1667 18.9167 30.1667Z" fill="#9D7CE5"/>
<path opacity="0.3" fill-rule="evenodd" clip-rule="evenodd" d="M33.0833 30.1667C36.9954 30.1667 40.1667 26.9954 40.1667 23.0833C40.1667 19.1713 36.9954 16 33.0833 16C29.1713 16 26 19.1713 26 23.0833C26 26.9954 29.1713 30.1667 33.0833 30.1667Z" fill="#9D7CE5"/>
<path opacity="0.3" fill-rule="evenodd" clip-rule="evenodd" d="M26 24.5C29.912 24.5 33.0833 21.3287 33.0833 17.4167C33.0833 13.5046 29.912 10.3333 26 10.3333C22.088 10.3333 18.9167 13.5046 18.9167 17.4167C18.9167 21.3287 22.088 24.5 26 24.5Z" fill="#9D7CE5"/>
</svg>
