<svg width="50" height="51" viewBox="0 0 50 51" fill="none" xmlns="http://www.w3.org/2000/svg">
<rect y="0.5" width="50" height="50" rx="8" fill="#A873FF" fill-opacity="0.06"/>
<path fill-rule="evenodd" clip-rule="evenodd" d="M29.875 36.2483C29.875 36.9852 30.8264 37.2803 31.2434 36.6727L40.7357 22.841C41.0773 22.3434 40.7209 21.6667 40.1173 21.6667H32.7917V12.7516C32.7917 12.0148 31.8402 11.7197 31.4233 12.3273L21.9309 26.1589C21.5894 26.6566 21.9457 27.3333 22.5493 27.3333H29.875V36.2483Z" fill="#9D7CE5"/>
<path opacity="0.3" fill-rule="evenodd" clip-rule="evenodd" d="M12.375 16.0833C12.375 15.2549 13.0466 14.5833 13.875 14.5833H22.5416C23.3701 14.5833 24.0416 15.2549 24.0416 16.0833V17.3333C24.0416 18.1618 23.3701 18.8333 22.5416 18.8333H13.875C13.0466 18.8333 12.375 18.1618 12.375 17.3333V16.0833ZM12.375 33.0833C12.375 32.2549 13.0466 31.5833 13.875 31.5833H22.5416C23.3701 31.5833 24.0416 32.2549 24.0416 33.0833V34.3333C24.0416 35.1618 23.3701 35.8333 22.5416 35.8333H13.875C13.0466 35.8333 12.375 35.1618 12.375 34.3333V33.0833ZM10.9583 23.0833C10.1299 23.0833 9.45831 23.7549 9.45831 24.5833V25.8333C9.45831 26.6618 10.1299 27.3333 10.9583 27.3333H18.1666C18.9951 27.3333 19.6666 26.6618 19.6666 25.8333V24.5833C19.6666 23.7549 18.9951 23.0833 18.1666 23.0833H10.9583Z" fill="#9D7CE5"/>
</svg>
