<svg width="72" height="46" viewBox="0 0 72 46" fill="none" xmlns="http://www.w3.org/2000/svg">
<path d="M62.4776 9.8883L66.0383 5.33569L70.5724 8.91075L67.0117 13.4634L62.4776 9.8883Z" fill="#6B7AFF"/>
<path d="M71.2335 28.5741C70.0804 22.9912 64.6381 19.404 59.0778 20.5618L16.7927 29.3665C19.099 40.5322 29.9836 47.7066 41.1043 45.3912L63.2535 40.7791C68.8139 39.6213 72.3865 34.1569 71.2335 28.5741Z" fill="#6B7AFF"/>
<path fill-rule="evenodd" clip-rule="evenodd" d="M54.9309 0.220101C60.567 -0.953407 66.083 2.68255 67.252 8.34121C68.4206 13.9998 64.7996 19.5384 59.1634 20.7119L24.6417 27.9002C13.37 30.2472 2.33755 22.9753 0 11.658L54.9309 0.220101ZM57.652 6.67171C55.6928 6.67171 54.1042 8.26654 54.1042 10.2339C54.1042 12.2012 55.6928 13.7961 57.652 13.7961C59.6113 13.7961 61.1999 12.2012 61.1999 10.2339C61.1999 8.26654 59.6113 6.67171 57.652 6.67171Z" fill="#57E0FE"/>
</svg>
