<svg width="333" height="767" viewBox="0 0 333 767" fill="none" xmlns="http://www.w3.org/2000/svg">
<path d="M67.8664 12H66.2823L69.8417 2.10909H71.5658L75.1252 12H73.5411L70.7448 3.90568H70.6675L67.8664 12ZM68.132 8.1267H73.2707V9.38239H68.132V8.1267ZM77.8817 7.59545V12H76.4376V4.58182H77.8237V5.7892H77.9155C78.0861 5.3964 78.3533 5.08087 78.7172 4.84261C79.0842 4.60435 79.5462 4.48523 80.1033 4.48523C80.6087 4.48523 81.0515 4.59148 81.4314 4.80398C81.8113 5.01326 82.1059 5.32557 82.3152 5.74091C82.5245 6.15625 82.6291 6.66979 82.6291 7.28153V12H81.1851V7.4554C81.1851 6.91771 81.045 6.49754 80.7649 6.19489C80.4848 5.88901 80.1 5.73608 79.6106 5.73608C79.2758 5.73608 78.978 5.80852 78.7172 5.95341C78.4596 6.09829 78.2551 6.31079 78.1038 6.59091C77.9557 6.8678 77.8817 7.20265 77.8817 7.59545ZM85.2129 14.7818C84.9972 14.7818 84.8008 14.7641 84.6237 14.7287C84.4466 14.6965 84.3146 14.6611 84.2277 14.6224L84.5754 13.4392C84.8394 13.51 85.0745 13.5406 85.2805 13.531C85.4866 13.5213 85.6685 13.444 85.8263 13.2991C85.9873 13.1543 86.1289 12.9176 86.2513 12.5892L86.43 12.0966L83.7158 4.58182H85.2612L87.1399 10.3386H87.2172L89.0959 4.58182H90.6462L87.5891 12.9901C87.4474 13.3764 87.2671 13.7032 87.0481 13.9705C86.8292 14.2409 86.5684 14.4438 86.2658 14.579C85.9631 14.7142 85.6122 14.7818 85.2129 14.7818ZM103.933 5.32557H102.427C102.369 5.0036 102.261 4.72026 102.103 4.47557C101.945 4.23087 101.752 4.0232 101.523 3.85255C101.295 3.68191 101.039 3.55312 100.756 3.46619C100.475 3.37926 100.178 3.33579 99.8621 3.33579C99.2922 3.33579 98.7819 3.47907 98.3312 3.76562C97.8836 4.05218 97.5295 4.47235 97.2687 5.02613C97.0111 5.57992 96.8823 6.25606 96.8823 7.05454C96.8823 7.85947 97.0111 8.53882 97.2687 9.09261C97.5295 9.6464 97.8852 10.065 98.336 10.3483C98.7868 10.6316 99.2939 10.7733 99.8573 10.7733C100.17 10.7733 100.466 10.7314 100.746 10.6477C101.029 10.5608 101.285 10.4336 101.514 10.2662C101.742 10.0988 101.936 9.89432 102.093 9.65284C102.254 9.40814 102.365 9.12803 102.427 8.8125L103.933 8.81733C103.853 9.3035 103.697 9.75104 103.465 10.1599C103.236 10.5656 102.942 10.9166 102.581 11.2128C102.224 11.5058 101.815 11.7328 101.354 11.8937C100.894 12.0547 100.392 12.1352 99.8476 12.1352C98.9912 12.1352 98.2281 11.9324 97.5584 11.5267C96.8887 11.1178 96.3607 10.5334 95.9744 9.77358C95.5912 9.01373 95.3996 8.10739 95.3996 7.05454C95.3996 5.99848 95.5928 5.09214 95.9792 4.33551C96.3655 3.57566 96.8936 2.9929 97.5633 2.58721C98.233 2.17831 98.9944 1.97386 99.8476 1.97386C100.372 1.97386 100.862 2.04952 101.316 2.20085C101.773 2.34896 102.184 2.5679 102.547 2.85767C102.911 3.14422 103.212 3.49517 103.45 3.91051C103.689 4.32263 103.85 4.79432 103.933 5.32557ZM107.047 2.10909V12H105.603V2.10909H107.047ZM108.99 12V4.58182H110.434V12H108.99ZM109.719 3.43721C109.468 3.43721 109.252 3.3535 109.072 3.18608C108.895 3.01543 108.806 2.81259 108.806 2.57755C108.806 2.3393 108.895 2.13646 109.072 1.96903C109.252 1.79839 109.468 1.71307 109.719 1.71307C109.97 1.71307 110.184 1.79839 110.362 1.96903C110.542 2.13646 110.632 2.3393 110.632 2.57755C110.632 2.81259 110.542 3.01543 110.362 3.18608C110.184 3.3535 109.97 3.43721 109.719 3.43721ZM115.574 12.1497C114.843 12.1497 114.214 11.9936 113.686 11.6812C113.161 11.3657 112.755 10.923 112.468 10.3531C112.185 9.78002 112.043 9.10871 112.043 8.3392C112.043 7.57936 112.185 6.90966 112.468 6.33011C112.755 5.75057 113.154 5.2982 113.666 4.97301C114.181 4.64782 114.783 4.48523 115.472 4.48523C115.891 4.48523 116.297 4.55445 116.689 4.6929C117.082 4.83134 117.435 5.04867 117.747 5.34489C118.059 5.6411 118.306 6.02585 118.486 6.49915C118.666 6.96922 118.757 7.54072 118.757 8.21364V8.72557H112.86V7.64375H117.341C117.341 7.26382 117.264 6.92737 117.11 6.63437C116.955 6.33816 116.738 6.10473 116.458 5.93409C116.181 5.76345 115.856 5.67812 115.482 5.67812C115.076 5.67812 114.722 5.77793 114.42 5.97756C114.12 6.17396 113.888 6.43153 113.724 6.75028C113.563 7.06581 113.483 7.40871 113.483 7.77898V8.62415C113.483 9.11998 113.57 9.54176 113.743 9.88949C113.921 10.2372 114.167 10.5028 114.482 10.6864C114.798 10.8667 115.167 10.9568 115.588 10.9568C115.862 10.9568 116.112 10.9182 116.337 10.8409C116.562 10.7604 116.757 10.6413 116.921 10.4835C117.086 10.3258 117.211 10.131 117.298 9.89915L118.665 10.1455C118.555 10.5479 118.359 10.9005 118.076 11.2031C117.795 11.5026 117.443 11.736 117.018 11.9034C116.596 12.0676 116.115 12.1497 115.574 12.1497ZM121.803 7.59545V12H120.359V4.58182H121.745V5.7892H121.837C122.007 5.3964 122.274 5.08087 122.638 4.84261C123.005 4.60435 123.467 4.48523 124.024 4.48523C124.53 4.48523 124.973 4.59148 125.352 4.80398C125.732 5.01326 126.027 5.32557 126.236 5.74091C126.446 6.15625 126.55 6.66979 126.55 7.28153V12H125.106V7.4554C125.106 6.91771 124.966 6.49754 124.686 6.19489C124.406 5.88901 124.021 5.73608 123.532 5.73608C123.197 5.73608 122.899 5.80852 122.638 5.95341C122.381 6.09829 122.176 6.31079 122.025 6.59091C121.877 6.8678 121.803 7.20265 121.803 7.59545ZM131.95 4.58182V5.74091H127.898V4.58182H131.95ZM128.984 2.80454H130.428V9.82187C130.428 10.102 130.47 10.3129 130.554 10.4545C130.638 10.593 130.745 10.688 130.877 10.7395C131.013 10.7878 131.159 10.8119 131.317 10.8119C131.433 10.8119 131.534 10.8039 131.621 10.7878C131.708 10.7717 131.776 10.7588 131.824 10.7491L132.085 11.942C132.001 11.9742 131.882 12.0064 131.727 12.0386C131.573 12.0741 131.38 12.0934 131.148 12.0966C130.768 12.103 130.414 12.0354 130.085 11.8937C129.757 11.7521 129.491 11.5331 129.289 11.2369C129.086 10.9407 128.984 10.5688 128.984 10.1213V2.80454Z" fill="white"/>
<g filter="url(#filter0_b_141_2299)">
<rect x="66.4702" y="21.0801" width="198.56" height="148.92" rx="7.48" fill="#1E293B" fill-opacity="0.59"/>
<rect x="66.8102" y="21.4201" width="197.88" height="148.24" rx="7.14" stroke="white" stroke-width="0.68"/>
</g>
<path d="M73.9502 21.4201H257.55C261.494 21.4201 264.69 24.6168 264.69 28.5601V43.8601H66.8102V28.5601C66.8102 24.6168 70.0069 21.4201 73.9502 21.4201Z" fill="#334254" fill-opacity="0.38" stroke="white" stroke-width="0.68"/>
<circle cx="95.03" cy="68.0003" r="11.9" stroke="#474B50" stroke-width="0.68"/>
<rect x="118.83" y="57.7998" width="62.56" height="4.08" fill="#D9D9D9" fill-opacity="0.08"/>
<rect x="118.83" y="99.96" width="116.28" height="4.08" fill="#D9D9D9" fill-opacity="0.08"/>
<rect x="118.83" y="91.7998" width="62.56" height="4.08" fill="#D9D9D9" fill-opacity="0.08"/>
<rect x="82.79" y="91.7998" width="27.88" height="12.24" fill="#D9D9D9" fill-opacity="0.08"/>
<rect x="118.83" y="123.759" width="116.28" height="4.08" fill="#D9D9D9" fill-opacity="0.08"/>
<rect x="118.83" y="115.6" width="62.56" height="4.08" fill="#D9D9D9" fill-opacity="0.08"/>
<rect x="82.7898" y="115.6" width="27.88" height="12.24" fill="#D9D9D9" fill-opacity="0.08"/>
<rect x="118.83" y="147.56" width="116.28" height="4.08" fill="#D9D9D9" fill-opacity="0.08"/>
<rect x="118.83" y="139.4" width="62.56" height="4.08" fill="#D9D9D9" fill-opacity="0.08"/>
<rect x="82.7898" y="139.4" width="27.88" height="12.24" fill="#D9D9D9" fill-opacity="0.08"/>
<rect x="118.83" y="64.6001" width="34" height="4.08" fill="#D9D9D9" fill-opacity="0.1"/>
<rect x="155.55" y="64.6001" width="59.84" height="4.08" fill="#D9D9D9" fill-opacity="0.1"/>
<path d="M165.651 188L165.651 226.89C165.651 240.119 176.376 250.844 189.606 250.844L247.097 250.844C260.327 250.844 271.052 261.569 271.052 274.799L271.052 306.815" stroke="#BEBEBE" stroke-opacity="0.26" stroke-width="0.958187"/>
<path d="M271 305.5V385V484" stroke="#BEBEBE" stroke-opacity="0.26" stroke-width="0.958187"/>
<path d="M165.651 188L165.651 226.89C165.651 240.12 154.926 250.844 141.697 250.844L89.9544 250.844C76.7246 250.844 65.9998 261.569 65.9998 274.799L65.9998 306.815" stroke="#BEBEBE" stroke-opacity="0.26" stroke-width="0.958187"/>
<path d="M151 570L151 595.764C151 608.994 161.725 619.719 174.955 619.719L232.045 619.719C245.275 619.719 256 630.444 256 643.674L256 664" stroke="#BEBEBE" stroke-opacity="0.26" stroke-width="0.958187"/>
<path d="M151 570L151 595.764C151 608.994 140.275 619.719 127.045 619.719L74.9547 619.719C61.7249 619.719 51 630.444 51 643.674L51 664" stroke="#BEBEBE" stroke-opacity="0.26" stroke-width="0.958187"/>
<path d="M252.245 721.145L278.034 706.255L303.824 721.145V750.924L278.034 765.813L252.245 750.924V721.145Z" stroke="white" stroke-width="0.441678"/>
<path d="M277.959 748.69C284.991 748.69 290.692 742.99 290.692 735.958C290.692 728.926 284.991 723.225 277.959 723.225C270.927 723.225 265.227 728.926 265.227 735.958C265.227 742.99 270.927 748.69 277.959 748.69Z" stroke="white" stroke-width="1.10419"/>
<path d="M280.335 740.559C280.274 740.435 280.221 740.293 280.178 740.132C280.135 739.971 280.097 739.801 280.067 739.622C279.924 739.776 279.76 739.922 279.575 740.058C279.389 740.194 279.182 740.314 278.954 740.419C278.731 740.518 278.484 740.596 278.212 740.651C277.94 740.713 277.646 740.744 277.33 740.744C276.817 740.744 276.344 740.67 275.912 740.521C275.485 740.373 275.117 740.166 274.808 739.9C274.499 739.634 274.257 739.319 274.084 738.954C273.911 738.583 273.825 738.181 273.825 737.748C273.825 736.691 274.217 735.875 275.003 735.3C275.794 734.719 276.972 734.428 278.536 734.428H279.974V733.834C279.974 733.352 279.816 732.972 279.501 732.694C279.185 732.409 278.731 732.267 278.137 732.267C277.612 732.267 277.228 732.381 276.987 732.61C276.746 732.833 276.626 733.133 276.626 733.51H274.047C274.047 733.083 274.14 732.678 274.325 732.295C274.517 731.912 274.792 731.575 275.151 731.284C275.516 730.993 275.958 730.765 276.477 730.598C277.003 730.424 277.603 730.338 278.277 730.338C278.882 730.338 279.445 730.412 279.964 730.56C280.49 730.709 280.944 730.928 281.328 731.219C281.711 731.51 282.011 731.877 282.227 732.323C282.444 732.762 282.552 733.272 282.552 733.853V738.156C282.552 738.694 282.586 739.14 282.654 739.492C282.722 739.844 282.821 740.147 282.951 740.401V740.559H280.335ZM277.878 738.75C278.137 738.75 278.379 738.719 278.601 738.657C278.824 738.595 279.025 738.515 279.204 738.416C279.383 738.317 279.538 738.206 279.668 738.082C279.798 737.952 279.9 737.822 279.974 737.693V735.968H278.657C278.255 735.968 277.912 736.008 277.627 736.088C277.343 736.162 277.111 736.271 276.932 736.413C276.752 736.549 276.619 736.716 276.533 736.914C276.446 737.105 276.403 737.315 276.403 737.544C276.403 737.891 276.524 738.178 276.765 738.407C277.012 738.636 277.383 738.75 277.878 738.75Z" fill="white"/>
<path d="M240.574 675.03C240.517 674.53 240.285 674.143 239.877 673.869C239.469 673.591 238.955 673.452 238.336 673.452C237.893 673.452 237.509 673.522 237.185 673.663C236.862 673.8 236.61 673.99 236.431 674.233C236.255 674.472 236.167 674.745 236.167 675.051C236.167 675.308 236.226 675.53 236.346 675.716C236.469 675.903 236.629 676.059 236.826 676.186C237.027 676.309 237.242 676.413 237.47 676.497C237.699 676.578 237.919 676.645 238.13 676.698L239.186 676.972C239.53 677.057 239.884 677.171 240.247 677.316C240.609 677.46 240.945 677.65 241.255 677.886C241.564 678.121 241.814 678.413 242.004 678.762C242.198 679.11 242.294 679.527 242.294 680.013C242.294 680.625 242.136 681.169 241.819 681.644C241.506 682.119 241.051 682.493 240.452 682.768C239.858 683.042 239.138 683.179 238.294 683.179C237.484 683.179 236.784 683.051 236.193 682.794C235.602 682.537 235.139 682.173 234.805 681.702C234.471 681.227 234.286 680.664 234.251 680.013H235.887C235.919 680.403 236.045 680.729 236.267 680.989C236.492 681.246 236.779 681.438 237.127 681.564C237.479 681.688 237.864 681.749 238.283 681.749C238.744 681.749 239.154 681.677 239.513 681.533C239.875 681.385 240.16 681.181 240.368 680.92C240.576 680.657 240.679 680.349 240.679 679.997C240.679 679.677 240.588 679.414 240.405 679.21C240.225 679.006 239.981 678.837 239.671 678.704C239.365 678.57 239.019 678.452 238.631 678.35L237.354 678.002C236.489 677.766 235.802 677.419 235.296 676.962C234.793 676.504 234.541 675.899 234.541 675.146C234.541 674.523 234.71 673.98 235.048 673.515C235.385 673.051 235.843 672.69 236.42 672.433C236.997 672.173 237.648 672.043 238.373 672.043C239.105 672.043 239.75 672.171 240.31 672.428C240.873 672.685 241.316 673.039 241.64 673.489C241.964 673.936 242.133 674.45 242.147 675.03H240.574ZM247.901 674.893V676.16H243.473V674.893H247.901ZM244.66 672.951H246.238V680.62C246.238 680.926 246.284 681.156 246.376 681.311C246.467 681.462 246.585 681.566 246.729 681.622C246.877 681.675 247.037 681.702 247.21 681.702C247.336 681.702 247.447 681.693 247.542 681.675C247.637 681.658 247.711 681.644 247.764 681.633L248.049 682.937C247.957 682.972 247.827 683.007 247.658 683.042C247.489 683.081 247.278 683.102 247.025 683.106C246.61 683.113 246.223 683.039 245.864 682.884C245.505 682.729 245.214 682.49 244.993 682.166C244.771 681.842 244.66 681.436 244.66 680.947V672.951ZM252.975 683.164C252.214 683.164 251.551 682.989 250.985 682.641C250.418 682.293 249.978 681.805 249.665 681.179C249.352 680.553 249.195 679.821 249.195 678.983C249.195 678.142 249.352 677.407 249.665 676.777C249.978 676.147 250.418 675.658 250.985 675.31C251.551 674.962 252.214 674.787 252.975 674.787C253.735 674.787 254.398 674.962 254.964 675.31C255.531 675.658 255.971 676.147 256.284 676.777C256.597 677.407 256.754 678.142 256.754 678.983C256.754 679.821 256.597 680.553 256.284 681.179C255.971 681.805 255.531 682.293 254.964 682.641C254.398 682.989 253.735 683.164 252.975 683.164ZM252.98 681.839C253.472 681.839 253.881 681.709 254.204 681.448C254.528 681.188 254.767 680.841 254.922 680.408C255.08 679.976 255.16 679.499 255.16 678.978C255.16 678.461 255.08 677.986 254.922 677.553C254.767 677.117 254.528 676.767 254.204 676.503C253.881 676.239 253.472 676.107 252.98 676.107C252.484 676.107 252.072 676.239 251.745 676.503C251.421 676.767 251.18 677.117 251.022 677.553C250.867 677.986 250.789 678.461 250.789 678.978C250.789 679.499 250.867 679.976 251.022 680.408C251.18 680.841 251.421 681.188 251.745 681.448C252.072 681.709 252.484 681.839 252.98 681.839ZM258.515 683V674.893H260.041V676.181H260.125C260.273 675.744 260.533 675.401 260.906 675.152C261.283 674.898 261.708 674.772 262.183 674.772C262.282 674.772 262.398 674.775 262.532 674.782C262.669 674.789 262.776 674.798 262.854 674.808V676.318C262.79 676.3 262.678 676.281 262.516 676.26C262.354 676.235 262.192 676.223 262.03 676.223C261.657 676.223 261.325 676.302 261.033 676.461C260.744 676.615 260.516 676.832 260.347 677.11C260.178 677.384 260.093 677.697 260.093 678.049V683H258.515ZM266.506 683.179C265.992 683.179 265.528 683.084 265.113 682.894C264.698 682.701 264.369 682.421 264.126 682.055C263.886 681.689 263.767 681.241 263.767 680.709C263.767 680.252 263.855 679.875 264.031 679.58C264.207 679.284 264.444 679.05 264.743 678.878C265.042 678.705 265.377 678.575 265.746 678.487C266.116 678.399 266.492 678.332 266.876 678.287C267.361 678.23 267.755 678.185 268.058 678.149C268.36 678.111 268.58 678.049 268.718 677.965C268.855 677.88 268.923 677.743 268.923 677.553V677.516C268.923 677.055 268.793 676.698 268.533 676.445C268.276 676.191 267.892 676.065 267.382 676.065C266.851 676.065 266.432 676.183 266.126 676.418C265.823 676.651 265.614 676.909 265.498 677.194L264.015 676.856C264.191 676.364 264.448 675.966 264.785 675.664C265.127 675.357 265.519 675.136 265.962 674.998C266.406 674.858 266.872 674.787 267.361 674.787C267.685 674.787 268.028 674.826 268.39 674.903C268.756 674.977 269.098 675.115 269.414 675.315C269.735 675.516 269.997 675.803 270.201 676.175C270.405 676.545 270.507 677.025 270.507 677.616V683H268.966V681.892H268.902C268.8 682.096 268.647 682.296 268.443 682.493C268.239 682.69 267.977 682.854 267.657 682.984C267.337 683.114 266.953 683.179 266.506 683.179ZM266.849 681.913C267.286 681.913 267.658 681.827 267.968 681.654C268.281 681.482 268.519 681.256 268.681 680.979C268.846 680.697 268.929 680.396 268.929 680.076V679.031C268.872 679.087 268.763 679.14 268.601 679.189C268.443 679.235 268.262 679.275 268.058 679.311C267.854 679.342 267.655 679.372 267.461 679.4C267.268 679.425 267.106 679.446 266.976 679.464C266.67 679.502 266.39 679.568 266.137 679.659C265.887 679.75 265.686 679.882 265.535 680.055C265.387 680.224 265.313 680.449 265.313 680.73C265.313 681.121 265.458 681.417 265.746 681.617C266.035 681.814 266.402 681.913 266.849 681.913ZM276.008 686.209C275.364 686.209 274.81 686.125 274.345 685.956C273.884 685.787 273.508 685.563 273.216 685.285C272.924 685.007 272.706 684.703 272.561 684.372L273.918 683.813C274.013 683.968 274.139 684.131 274.298 684.304C274.46 684.48 274.678 684.629 274.952 684.752C275.23 684.875 275.587 684.937 276.024 684.937C276.622 684.937 277.116 684.791 277.507 684.499C277.897 684.21 278.093 683.749 278.093 683.116V681.522H277.992C277.897 681.695 277.76 681.886 277.581 682.097C277.405 682.309 277.162 682.492 276.852 682.646C276.543 682.801 276.14 682.879 275.644 682.879C275.003 682.879 274.426 682.729 273.913 682.43C273.402 682.127 272.998 681.682 272.699 681.095C272.403 680.503 272.255 679.777 272.255 678.915C272.255 678.053 272.401 677.314 272.693 676.698C272.989 676.082 273.394 675.611 273.907 675.284C274.421 674.953 275.003 674.787 275.654 674.787C276.157 674.787 276.564 674.872 276.874 675.041C277.183 675.206 277.424 675.4 277.597 675.621C277.773 675.843 277.908 676.038 278.003 676.207H278.119V674.893H279.666V683.179C279.666 683.876 279.504 684.448 279.18 684.895C278.856 685.342 278.418 685.672 277.866 685.887C277.317 686.102 276.698 686.209 276.008 686.209ZM275.992 681.57C276.446 681.57 276.83 681.464 277.143 681.253C277.459 681.038 277.699 680.732 277.861 680.335C278.026 679.933 278.109 679.453 278.109 678.894C278.109 678.348 278.028 677.868 277.866 677.453C277.704 677.038 277.466 676.714 277.153 676.482C276.84 676.246 276.453 676.128 275.992 676.128C275.517 676.128 275.121 676.251 274.805 676.497C274.488 676.74 274.249 677.071 274.087 677.49C273.928 677.908 273.849 678.376 273.849 678.894C273.849 679.425 273.93 679.891 274.092 680.292C274.254 680.693 274.493 681.007 274.81 681.232C275.13 681.457 275.524 681.57 275.992 681.57ZM285.276 683.164C284.477 683.164 283.79 682.993 283.212 682.652C282.639 682.307 282.196 681.823 281.882 681.2C281.573 680.574 281.418 679.84 281.418 678.999C281.418 678.169 281.573 677.437 281.882 676.804C282.196 676.17 282.632 675.676 283.191 675.32C283.754 674.965 284.412 674.787 285.165 674.787C285.623 674.787 286.066 674.863 286.495 675.014C286.925 675.166 287.31 675.403 287.651 675.727C287.993 676.051 288.262 676.471 288.459 676.988C288.656 677.502 288.754 678.127 288.754 678.862V679.421H282.31V678.239H287.208C287.208 677.824 287.123 677.456 286.955 677.136C286.786 676.812 286.548 676.557 286.242 676.371C285.939 676.184 285.584 676.091 285.176 676.091C284.733 676.091 284.345 676.2 284.015 676.418C283.687 676.633 283.434 676.914 283.255 677.263C283.079 677.608 282.991 677.982 282.991 678.387V679.311C282.991 679.853 283.086 680.313 283.276 680.693C283.469 681.074 283.738 681.364 284.083 681.564C284.428 681.761 284.831 681.86 285.292 681.86C285.591 681.86 285.864 681.818 286.11 681.733C286.356 681.645 286.569 681.515 286.749 681.343C286.928 681.17 287.065 680.957 287.16 680.704L288.654 680.973C288.534 681.413 288.32 681.798 288.01 682.129C287.704 682.456 287.319 682.711 286.854 682.894C286.393 683.074 285.867 683.164 285.276 683.164ZM294.566 683V672.191H296.196V681.596H301.094V683H294.566ZM305.188 683.179C304.674 683.179 304.209 683.084 303.794 682.894C303.379 682.701 303.05 682.421 302.807 682.055C302.568 681.689 302.448 681.241 302.448 680.709C302.448 680.252 302.536 679.875 302.712 679.58C302.888 679.284 303.126 679.05 303.425 678.878C303.724 678.705 304.058 678.575 304.428 678.487C304.797 678.399 305.174 678.332 305.557 678.287C306.043 678.23 306.437 678.185 306.739 678.149C307.042 678.111 307.262 678.049 307.399 677.965C307.536 677.88 307.605 677.743 307.605 677.553V677.516C307.605 677.055 307.475 676.698 307.214 676.445C306.957 676.191 306.574 676.065 306.064 676.065C305.532 676.065 305.114 676.183 304.808 676.418C304.505 676.651 304.296 676.909 304.179 677.194L302.696 676.856C302.872 676.364 303.129 675.966 303.467 675.664C303.808 675.357 304.201 675.136 304.644 674.998C305.087 674.858 305.554 674.787 306.043 674.787C306.366 674.787 306.709 674.826 307.072 674.903C307.438 674.977 307.779 675.115 308.096 675.315C308.416 675.516 308.678 675.803 308.882 676.175C309.086 676.545 309.188 677.025 309.188 677.616V683H307.647V681.892H307.584C307.482 682.096 307.329 682.296 307.125 682.493C306.921 682.69 306.658 682.854 306.338 682.984C306.018 683.114 305.634 683.179 305.188 683.179ZM305.531 681.913C305.967 681.913 306.34 681.827 306.65 681.654C306.963 681.482 307.2 681.256 307.362 680.979C307.528 680.697 307.61 680.396 307.61 680.076V679.031C307.554 679.087 307.445 679.14 307.283 679.189C307.125 679.235 306.943 679.275 306.739 679.311C306.535 679.342 306.336 679.372 306.143 679.4C305.949 679.425 305.788 679.446 305.657 679.464C305.351 679.502 305.071 679.568 304.818 679.659C304.568 679.75 304.368 679.882 304.216 680.055C304.069 680.224 303.995 680.449 303.995 680.73C303.995 681.121 304.139 681.417 304.428 681.617C304.716 681.814 305.084 681.913 305.531 681.913ZM311.998 686.04C311.762 686.04 311.547 686.021 311.354 685.982C311.16 685.947 311.016 685.908 310.921 685.866L311.301 684.573C311.589 684.65 311.846 684.684 312.071 684.673C312.297 684.663 312.495 684.578 312.668 684.42C312.844 684.261 312.999 684.003 313.132 683.644L313.328 683.106L310.361 674.893H312.05L314.104 681.184H314.188L316.241 674.893H317.935L314.594 684.082C314.44 684.504 314.242 684.861 314.003 685.153C313.764 685.449 313.479 685.671 313.148 685.818C312.817 685.966 312.434 686.04 311.998 686.04ZM322.637 683.164C321.838 683.164 321.15 682.993 320.573 682.652C320 682.307 319.556 681.823 319.243 681.2C318.933 680.574 318.779 679.84 318.779 678.999C318.779 678.169 318.933 677.437 319.243 676.804C319.556 676.17 319.992 675.676 320.552 675.32C321.115 674.965 321.773 674.787 322.526 674.787C322.983 674.787 323.427 674.863 323.856 675.014C324.285 675.166 324.671 675.403 325.012 675.727C325.353 676.051 325.622 676.471 325.819 676.988C326.016 677.502 326.115 678.127 326.115 678.862V679.421H319.671V678.239H324.569C324.569 677.824 324.484 677.456 324.315 677.136C324.146 676.812 323.909 676.557 323.603 676.371C323.3 676.184 322.945 676.091 322.537 676.091C322.093 676.091 321.706 676.2 321.375 676.418C321.048 676.633 320.795 676.914 320.615 677.263C320.439 677.608 320.351 677.982 320.351 678.387V679.311C320.351 679.853 320.446 680.313 320.636 680.693C320.83 681.074 321.099 681.364 321.444 681.564C321.789 681.761 322.192 681.86 322.653 681.86C322.952 681.86 323.224 681.818 323.471 681.733C323.717 681.645 323.93 681.515 324.109 681.343C324.289 681.17 324.426 680.957 324.521 680.704L326.015 680.973C325.895 681.413 325.68 681.798 325.371 682.129C325.065 682.456 324.679 682.711 324.215 682.894C323.754 683.074 323.228 683.164 322.637 683.164ZM327.866 683V674.893H329.391V676.181H329.476C329.624 675.744 329.884 675.401 330.257 675.152C330.633 674.898 331.059 674.772 331.534 674.772C331.633 674.772 331.749 674.775 331.883 674.782C332.02 674.789 332.127 674.798 332.205 674.808V676.318C332.141 676.3 332.029 676.281 331.867 676.26C331.705 676.235 331.543 676.223 331.381 676.223C331.008 676.223 330.676 676.302 330.384 676.461C330.095 676.615 329.866 676.832 329.697 677.11C329.529 677.384 329.444 677.697 329.444 678.049V683H327.866Z" fill="white"/>
<path d="M102.601 372.409V443.629" stroke="#BEBEBE" stroke-opacity="0.26" stroke-width="0.761709"/>
<path d="M49.2746 467.062L48.1701 466.057C44.2473 462.5 41.6575 460.154 41.6575 457.274C41.6575 454.928 43.5008 453.085 45.8469 453.085C47.1722 453.085 48.4443 453.702 49.2746 454.677C50.1048 453.702 51.3769 453.085 52.7023 453.085C55.0483 453.085 56.8917 454.928 56.8917 457.274C56.8917 460.154 54.3018 462.5 50.379 466.064L49.2746 467.062Z" fill="white"/>
<path d="M70.9334 466.074V454.994H72.9404V464.391H77.8201V466.074H70.9334ZM79.4756 466.074V457.764H81.4339V466.074H79.4756ZM80.4601 456.585C80.15 456.585 79.8831 456.482 79.6595 456.276C79.4359 456.067 79.3241 455.817 79.3241 455.524C79.3241 455.229 79.4359 454.978 79.6595 454.773C79.8831 454.563 80.15 454.459 80.4601 454.459C80.7739 454.459 81.0408 454.563 81.2608 454.773C81.4844 454.978 81.5962 455.229 81.5962 455.524C81.5962 455.817 81.4844 456.067 81.2608 456.276C81.0408 456.482 80.7739 456.585 80.4601 456.585ZM85.233 463.466L85.2276 461.102H85.5414L88.5276 457.764H90.816L87.1427 461.854H86.7369L85.233 463.466ZM83.4477 466.074V454.994H85.4061V466.074H83.4477ZM88.6629 466.074L85.9579 462.292L87.2779 460.913L91.0053 466.074H88.6629ZM95.4577 466.236C94.6245 466.236 93.905 466.063 93.2991 465.717C92.6968 465.367 92.2334 464.873 91.9088 464.234C91.5842 463.592 91.4219 462.837 91.4219 461.968C91.4219 461.113 91.5842 460.363 91.9088 459.717C92.237 459.068 92.695 458.563 93.2829 458.202C93.8708 457.838 94.5614 457.656 95.3549 457.656C95.867 457.656 96.3503 457.739 96.8047 457.905C97.2627 458.067 97.6667 458.32 98.0165 458.662C98.37 459.005 98.6477 459.441 98.8496 459.971C99.0516 460.498 99.1526 461.126 99.1526 461.854V462.455H92.3416V461.135H97.2754C97.2718 460.759 97.1906 460.426 97.0319 460.134C96.8732 459.838 96.6514 459.605 96.3665 459.436C96.0852 459.266 95.757 459.182 95.3819 459.182C94.9816 459.182 94.6299 459.279 94.327 459.474C94.024 459.665 93.7878 459.917 93.6183 460.231C93.4524 460.541 93.3676 460.882 93.364 461.254V462.406C93.364 462.889 93.4524 463.304 93.6291 463.65C93.8058 463.993 94.0529 464.256 94.3703 464.44C94.6876 464.62 95.0591 464.71 95.4847 464.71C95.7696 464.71 96.0275 464.671 96.2583 464.591C96.4891 464.508 96.6893 464.388 96.8588 464.229C97.0283 464.07 97.1564 463.874 97.2429 463.639L99.0714 463.845C98.956 464.328 98.736 464.75 98.4114 465.111C98.0905 465.468 97.6793 465.746 97.178 465.944C96.6767 466.139 96.1032 466.236 95.4577 466.236ZM107.377 459.961L105.592 460.155C105.541 459.975 105.453 459.805 105.327 459.647C105.204 459.488 105.038 459.36 104.829 459.263C104.62 459.165 104.364 459.117 104.061 459.117C103.653 459.117 103.311 459.205 103.033 459.382C102.759 459.558 102.623 459.787 102.627 460.069C102.623 460.31 102.712 460.507 102.892 460.658C103.076 460.81 103.379 460.934 103.801 461.032L105.218 461.335C106.005 461.504 106.589 461.773 106.971 462.141C107.357 462.509 107.552 462.99 107.555 463.585C107.552 464.108 107.399 464.57 107.096 464.97C106.796 465.367 106.38 465.677 105.846 465.901C105.312 466.124 104.699 466.236 104.007 466.236C102.99 466.236 102.171 466.023 101.551 465.598C100.93 465.168 100.561 464.572 100.441 463.807L102.351 463.623C102.438 463.998 102.622 464.281 102.903 464.472C103.184 464.664 103.55 464.759 104.001 464.759C104.466 464.759 104.84 464.664 105.121 464.472C105.406 464.281 105.548 464.045 105.548 463.764C105.548 463.526 105.456 463.329 105.273 463.174C105.092 463.019 104.811 462.9 104.429 462.817L103.011 462.519C102.214 462.354 101.624 462.074 101.242 461.681C100.86 461.284 100.671 460.783 100.674 460.177C100.671 459.665 100.809 459.221 101.091 458.846C101.376 458.467 101.771 458.175 102.275 457.97C102.784 457.761 103.37 457.656 104.034 457.656C105.007 457.656 105.774 457.863 106.333 458.278C106.895 458.693 107.244 459.254 107.377 459.961Z" fill="white"/>
<rect x="31.3743" y="442.867" width="97.6041" height="34.4127" rx="5.71282" stroke="#F1F5F9" stroke-width="0.761709"/>
<path fill-rule="evenodd" clip-rule="evenodd" d="M49.2743 498.159C47.591 498.159 46.2275 499.523 46.2275 501.206C46.2275 502.889 47.591 504.253 49.2743 504.253C50.9577 504.253 52.3212 502.889 52.3212 501.206C52.3212 499.523 50.9577 498.159 49.2743 498.159ZM50.8739 501.206C50.8739 500.322 50.1578 499.606 49.2743 499.606C48.3907 499.606 47.6747 500.322 47.6747 501.206C47.6747 502.09 48.3907 502.806 49.2743 502.806C50.1578 502.806 50.8739 502.09 50.8739 501.206ZM53.9207 508.061C53.9207 507.574 51.5365 506.462 49.2743 506.462C47.012 506.462 44.6278 507.574 44.6278 508.061V508.899H53.9207V508.061ZM43.1807 508.061C43.1807 506.035 47.2406 505.015 49.2743 505.015C51.3081 505.015 55.368 506.035 55.368 508.061V510.347H43.1807V508.061Z" fill="#E2E8EF"/>
<path d="M70.9331 510.253V499.174H78.0309V500.856H72.9402V503.864H77.544V505.546H72.9402V510.253H70.9331ZM82.7875 510.415C81.976 510.415 81.2727 510.237 80.6776 509.88C80.0826 509.523 79.6209 509.023 79.2927 508.381C78.9681 507.739 78.8058 506.989 78.8058 506.131C78.8058 505.272 78.9681 504.52 79.2927 503.875C79.6209 503.229 80.0826 502.728 80.6776 502.371C81.2727 502.014 81.976 501.835 82.7875 501.835C83.599 501.835 84.3023 502.014 84.8973 502.371C85.4924 502.728 85.9523 503.229 86.2769 503.875C86.6051 504.52 86.7692 505.272 86.7692 506.131C86.7692 506.989 86.6051 507.739 86.2769 508.381C85.9523 509.023 85.4924 509.523 84.8973 509.88C84.3023 510.237 83.599 510.415 82.7875 510.415ZM82.7983 508.846C83.2383 508.846 83.6062 508.726 83.9019 508.484C84.1977 508.239 84.4177 507.91 84.5619 507.499C84.7098 507.088 84.7837 506.63 84.7837 506.125C84.7837 505.617 84.7098 505.157 84.5619 504.746C84.4177 504.331 84.1977 504.001 83.9019 503.756C83.6062 503.51 83.2383 503.388 82.7983 503.388C82.3475 503.388 81.9724 503.51 81.6731 503.756C81.3773 504.001 81.1555 504.331 81.0077 504.746C80.8634 505.157 80.7913 505.617 80.7913 506.125C80.7913 506.63 80.8634 507.088 81.0077 507.499C81.1555 507.91 81.3773 508.239 81.6731 508.484C81.9724 508.726 82.3475 508.846 82.7983 508.846ZM90.3897 499.174V510.253H88.4313V499.174H90.3897ZM94.3619 499.174V510.253H92.4035V499.174H94.3619ZM100 510.415C99.1889 510.415 98.4856 510.237 97.8905 509.88C97.2954 509.523 96.8338 509.023 96.5056 508.381C96.181 507.739 96.0187 506.989 96.0187 506.131C96.0187 505.272 96.181 504.52 96.5056 503.875C96.8338 503.229 97.2954 502.728 97.8905 502.371C98.4856 502.014 99.1889 501.835 100 501.835C100.812 501.835 101.515 502.014 102.11 502.371C102.705 502.728 103.165 503.229 103.49 503.875C103.818 504.52 103.982 505.272 103.982 506.131C103.982 506.989 103.818 507.739 103.49 508.381C103.165 509.023 102.705 509.523 102.11 509.88C101.515 510.237 100.812 510.415 100 510.415ZM100.011 508.846C100.451 508.846 100.819 508.726 101.115 508.484C101.411 508.239 101.631 507.91 101.775 507.499C101.923 507.088 101.997 506.63 101.997 506.125C101.997 505.617 101.923 505.157 101.775 504.746C101.631 504.331 101.411 504.001 101.115 503.756C100.819 503.51 100.451 503.388 100.011 503.388C99.5603 503.388 99.1853 503.51 98.8859 503.756C98.5902 504.001 98.3684 504.331 98.2205 504.746C98.0762 505.157 98.0041 505.617 98.0041 506.125C98.0041 506.63 98.0762 507.088 98.2205 507.499C98.3684 507.91 98.5902 508.239 98.8859 508.484C99.1853 508.726 99.5603 508.846 100.011 508.846ZM107.121 510.253L104.773 501.943H106.769L108.23 507.786H108.306L109.799 501.943H111.774L113.267 507.754H113.348L114.787 501.943H116.789L114.435 510.253H112.396L110.838 504.637H110.724L109.166 510.253H107.121ZM121.597 510.415C120.763 510.415 120.044 510.242 119.438 509.896C118.836 509.546 118.372 509.052 118.048 508.414C117.723 507.772 117.561 507.016 117.561 506.147C117.561 505.292 117.723 504.542 118.048 503.896C118.376 503.247 118.834 502.742 119.422 502.382C120.01 502.017 120.7 501.835 121.494 501.835C122.006 501.835 122.489 501.918 122.944 502.084C123.402 502.246 123.806 502.499 124.155 502.841C124.509 503.184 124.787 503.62 124.989 504.151C125.19 504.677 125.291 505.305 125.291 506.033V506.634H118.48V505.314H123.414C123.411 504.939 123.33 504.605 123.171 504.313C123.012 504.017 122.79 503.785 122.505 503.615C122.224 503.446 121.896 503.361 121.521 503.361C121.12 503.361 120.769 503.458 120.466 503.653C120.163 503.844 119.927 504.096 119.757 504.41C119.591 504.72 119.507 505.061 119.503 505.433V506.585C119.503 507.068 119.591 507.483 119.768 507.829C119.945 508.172 120.192 508.435 120.509 508.619C120.827 508.799 121.198 508.89 121.624 508.89C121.909 508.89 122.166 508.85 122.397 508.771C122.628 508.688 122.828 508.567 122.998 508.408C123.167 508.249 123.295 508.053 123.382 507.818L125.21 508.024C125.095 508.507 124.875 508.929 124.55 509.29C124.229 509.647 123.818 509.925 123.317 510.123C122.816 510.318 122.242 510.415 121.597 510.415ZM126.948 510.253V501.943H128.847V503.328H128.934C129.085 502.849 129.345 502.479 129.713 502.219C130.084 501.956 130.508 501.824 130.984 501.824C131.092 501.824 131.213 501.83 131.346 501.841C131.484 501.848 131.597 501.86 131.687 501.878V503.68C131.604 503.651 131.473 503.626 131.292 503.604C131.116 503.579 130.944 503.566 130.778 503.566C130.421 503.566 130.1 503.644 129.815 503.799C129.534 503.95 129.312 504.161 129.15 504.432C128.988 504.702 128.907 505.014 128.907 505.368V510.253H126.948ZM139.556 504.14L137.771 504.335C137.72 504.154 137.632 503.985 137.506 503.826C137.383 503.667 137.217 503.539 137.008 503.442C136.799 503.345 136.543 503.296 136.24 503.296C135.832 503.296 135.49 503.384 135.212 503.561C134.938 503.738 134.802 503.967 134.806 504.248C134.802 504.49 134.891 504.686 135.071 504.838C135.255 504.989 135.558 505.114 135.98 505.211L137.397 505.514C138.184 505.683 138.768 505.952 139.15 506.32C139.536 506.688 139.731 507.169 139.734 507.764C139.731 508.287 139.578 508.749 139.275 509.149C138.975 509.546 138.559 509.856 138.025 510.08C137.491 510.303 136.878 510.415 136.186 510.415C135.169 510.415 134.35 510.202 133.73 509.777C133.109 509.348 132.74 508.751 132.62 507.986L134.53 507.802C134.617 508.177 134.801 508.46 135.082 508.652C135.363 508.843 135.729 508.938 136.18 508.938C136.645 508.938 137.019 508.843 137.3 508.652C137.585 508.46 137.727 508.224 137.727 507.943C137.727 507.705 137.635 507.508 137.452 507.353C137.271 507.198 136.99 507.079 136.608 506.996L135.19 506.699C134.393 506.533 133.803 506.253 133.421 505.86C133.039 505.463 132.85 504.962 132.853 504.356C132.85 503.844 132.988 503.4 133.27 503.025C133.555 502.647 133.95 502.355 134.454 502.149C134.963 501.94 135.549 501.835 136.213 501.835C137.186 501.835 137.953 502.043 138.512 502.457C139.074 502.872 139.423 503.433 139.556 504.14Z" fill="white"/>
<rect x="31.374" y="487.046" width="129.402" height="34.4127" rx="5.71282" stroke="#F1F5F9" stroke-width="0.761709"/>
<path fill-rule="evenodd" clip-rule="evenodd" d="M181.825 496.636H194.012C194.85 496.636 195.536 497.321 195.536 498.159V511.87L192.489 508.823H181.825C180.987 508.823 180.302 508.138 180.302 507.3V498.159C180.302 497.321 180.987 496.636 181.825 496.636ZM193.121 507.3L194.012 508.191V498.159H181.825V507.3H193.121Z" fill="#F7FAFC"/>
<path d="M219.061 502.912H217.038C216.98 502.58 216.874 502.286 216.718 502.03C216.563 501.77 216.37 501.55 216.14 501.37C215.909 501.19 215.645 501.054 215.35 500.964C215.058 500.87 214.742 500.824 214.403 500.824C213.801 500.824 213.267 500.975 212.802 501.278C212.336 501.577 211.972 502.017 211.709 502.598C211.446 503.175 211.314 503.88 211.314 504.713C211.314 505.561 211.446 506.275 211.709 506.856C211.976 507.433 212.34 507.869 212.802 508.165C213.267 508.457 213.799 508.603 214.398 508.603C214.729 508.603 215.04 508.56 215.328 508.473C215.62 508.383 215.882 508.251 216.113 508.078C216.347 507.905 216.544 507.692 216.702 507.44C216.865 507.187 216.976 506.899 217.038 506.574L219.061 506.585C218.985 507.112 218.821 507.606 218.569 508.067C218.32 508.529 217.993 508.937 217.589 509.29C217.185 509.64 216.713 509.914 216.172 510.112C215.631 510.307 215.031 510.404 214.371 510.404C213.397 510.404 212.528 510.179 211.763 509.728C210.998 509.277 210.396 508.626 209.956 507.775C209.516 506.924 209.296 505.903 209.296 504.713C209.296 503.519 209.518 502.499 209.962 501.651C210.405 500.8 211.009 500.149 211.774 499.698C212.538 499.247 213.404 499.022 214.371 499.022C214.987 499.022 215.561 499.109 216.091 499.282C216.621 499.455 217.094 499.709 217.508 500.045C217.923 500.376 218.264 500.784 218.531 501.267C218.801 501.747 218.978 502.295 219.061 502.912ZM224.437 510.415C223.625 510.415 222.922 510.237 222.327 509.88C221.732 509.523 221.27 509.023 220.942 508.381C220.618 507.739 220.455 506.989 220.455 506.131C220.455 505.272 220.618 504.52 220.942 503.875C221.27 503.229 221.732 502.728 222.327 502.371C222.922 502.014 223.625 501.835 224.437 501.835C225.248 501.835 225.952 502.014 226.547 502.371C227.142 502.728 227.602 503.229 227.926 503.875C228.255 504.52 228.419 505.272 228.419 506.131C228.419 506.989 228.255 507.739 227.926 508.381C227.602 509.023 227.142 509.523 226.547 509.88C225.952 510.237 225.248 510.415 224.437 510.415ZM224.448 508.846C224.888 508.846 225.256 508.726 225.551 508.484C225.847 508.239 226.067 507.91 226.211 507.499C226.359 507.088 226.433 506.63 226.433 506.125C226.433 505.617 226.359 505.157 226.211 504.746C226.067 504.331 225.847 504.001 225.551 503.756C225.256 503.51 224.888 503.388 224.448 503.388C223.997 503.388 223.622 503.51 223.323 503.756C223.027 504.001 222.805 504.331 222.657 504.746C222.513 505.157 222.441 505.617 222.441 506.125C222.441 506.63 222.513 507.088 222.657 507.499C222.805 507.91 223.027 508.239 223.323 508.484C223.622 508.726 223.997 508.846 224.448 508.846ZM230.081 510.253V501.943H231.953V503.355H232.05C232.223 502.879 232.51 502.508 232.91 502.241C233.311 501.97 233.788 501.835 234.344 501.835C234.906 501.835 235.381 501.972 235.767 502.246C236.156 502.517 236.43 502.886 236.589 503.355H236.675C236.859 502.894 237.17 502.526 237.606 502.252C238.046 501.974 238.567 501.835 239.169 501.835C239.934 501.835 240.558 502.077 241.041 502.56C241.524 503.043 241.766 503.748 241.766 504.675V510.253H239.802V504.978C239.802 504.463 239.665 504.086 239.391 503.848C239.117 503.606 238.782 503.485 238.385 503.485C237.912 503.485 237.543 503.633 237.276 503.929C237.013 504.221 236.881 504.601 236.881 505.07V510.253H234.961V504.897C234.961 504.468 234.831 504.125 234.571 503.869C234.315 503.613 233.98 503.485 233.565 503.485C233.283 503.485 233.027 503.557 232.797 503.702C232.566 503.842 232.382 504.042 232.245 504.302C232.108 504.558 232.039 504.857 232.039 505.2V510.253H230.081ZM243.753 510.253V501.943H245.625V503.355H245.722C245.895 502.879 246.182 502.508 246.582 502.241C246.983 501.97 247.46 501.835 248.016 501.835C248.579 501.835 249.053 501.972 249.439 502.246C249.828 502.517 250.102 502.886 250.261 503.355H250.348C250.531 502.894 250.842 502.526 251.278 502.252C251.718 501.974 252.239 501.835 252.841 501.835C253.606 501.835 254.23 502.077 254.713 502.56C255.197 503.043 255.438 503.748 255.438 504.675V510.253H253.474V504.978C253.474 504.463 253.337 504.086 253.063 503.848C252.789 503.606 252.454 503.485 252.057 503.485C251.585 503.485 251.215 503.633 250.948 503.929C250.685 504.221 250.553 504.601 250.553 505.07V510.253H248.633V504.897C248.633 504.468 248.503 504.125 248.243 503.869C247.987 503.613 247.652 503.485 247.237 503.485C246.956 503.485 246.699 503.557 246.469 503.702C246.238 503.842 246.054 504.042 245.917 504.302C245.78 504.558 245.711 504.857 245.711 505.2V510.253H243.753ZM261.104 510.415C260.271 510.415 259.551 510.242 258.945 509.896C258.343 509.546 257.879 509.052 257.555 508.414C257.23 507.772 257.068 507.016 257.068 506.147C257.068 505.292 257.23 504.542 257.555 503.896C257.883 503.247 258.341 502.742 258.929 502.382C259.517 502.017 260.207 501.835 261.001 501.835C261.513 501.835 261.996 501.918 262.451 502.084C262.909 502.246 263.313 502.499 263.663 502.841C264.016 503.184 264.294 503.62 264.496 504.151C264.698 504.677 264.799 505.305 264.799 506.033V506.634H257.988V505.314H262.921C262.918 504.939 262.837 504.605 262.678 504.313C262.519 504.017 262.297 503.785 262.013 503.615C261.731 503.446 261.403 503.361 261.028 503.361C260.628 503.361 260.276 503.458 259.973 503.653C259.67 503.844 259.434 504.096 259.264 504.41C259.098 504.72 259.014 505.061 259.01 505.433V506.585C259.01 507.068 259.098 507.483 259.275 507.829C259.452 508.172 259.699 508.435 260.016 508.619C260.334 508.799 260.705 508.89 261.131 508.89C261.416 508.89 261.674 508.85 261.904 508.771C262.135 508.688 262.335 508.567 262.505 508.408C262.674 508.249 262.802 508.053 262.889 507.818L264.717 508.024C264.602 508.507 264.382 508.929 264.057 509.29C263.737 509.647 263.325 509.925 262.824 510.123C262.323 510.318 261.749 510.415 261.104 510.415ZM268.414 505.384V510.253H266.455V501.943H268.327V503.355H268.425C268.616 502.89 268.921 502.52 269.339 502.246C269.761 501.972 270.282 501.835 270.902 501.835C271.476 501.835 271.975 501.958 272.401 502.203C272.83 502.448 273.162 502.804 273.396 503.269C273.634 503.734 273.752 504.298 273.748 504.962V510.253H271.79V505.265C271.79 504.71 271.645 504.275 271.357 503.961C271.072 503.647 270.677 503.491 270.172 503.491C269.829 503.491 269.525 503.566 269.258 503.718C268.994 503.866 268.787 504.08 268.636 504.362C268.488 504.643 268.414 504.984 268.414 505.384ZM279.888 501.943V503.458H275.111V501.943H279.888ZM276.291 499.953H278.249V507.754C278.249 508.017 278.289 508.219 278.368 508.359C278.451 508.497 278.559 508.59 278.693 508.641C278.826 508.691 278.974 508.717 279.136 508.717C279.259 508.717 279.371 508.708 279.472 508.689C279.576 508.671 279.655 508.655 279.71 508.641L280.04 510.172C279.935 510.208 279.785 510.248 279.591 510.291C279.399 510.334 279.165 510.359 278.887 510.367C278.397 510.381 277.955 510.307 277.562 510.145C277.169 509.979 276.857 509.723 276.626 509.377C276.399 509.03 276.287 508.598 276.291 508.078V499.953ZM287.975 504.14L286.189 504.335C286.139 504.154 286.05 503.985 285.924 503.826C285.802 503.667 285.636 503.539 285.426 503.442C285.217 503.345 284.961 503.296 284.658 503.296C284.251 503.296 283.908 503.384 283.63 503.561C283.356 503.738 283.221 503.967 283.225 504.248C283.221 504.49 283.309 504.686 283.49 504.838C283.674 504.989 283.977 505.114 284.399 505.211L285.816 505.514C286.602 505.683 287.186 505.952 287.569 506.32C287.955 506.688 288.149 507.169 288.153 507.764C288.149 508.287 287.996 508.749 287.693 509.149C287.394 509.546 286.977 509.856 286.444 510.08C285.91 510.303 285.297 510.415 284.604 510.415C283.587 510.415 282.768 510.202 282.148 509.777C281.528 509.348 281.158 508.751 281.039 507.986L282.949 507.802C283.035 508.177 283.219 508.46 283.501 508.652C283.782 508.843 284.148 508.938 284.599 508.938C285.064 508.938 285.437 508.843 285.719 508.652C286.004 508.46 286.146 508.224 286.146 507.943C286.146 507.705 286.054 507.508 285.87 507.353C285.69 507.198 285.408 507.079 285.026 506.996L283.609 506.699C282.812 506.533 282.222 506.253 281.84 505.86C281.457 505.463 281.268 504.962 281.272 504.356C281.268 503.844 281.407 503.4 281.688 503.025C281.973 502.647 282.368 502.355 282.873 502.149C283.382 501.94 283.968 501.835 284.631 501.835C285.605 501.835 286.371 502.043 286.93 502.457C287.493 502.872 287.841 503.433 287.975 504.14Z" fill="white"/>
<rect x="170.018" y="487.046" width="138.941" height="34.4127" rx="5.71282" stroke="#F1F5F9" stroke-width="0.761709"/>
<path fill-rule="evenodd" clip-rule="evenodd" d="M46.9892 548.432C48.4593 548.432 49.6552 547.236 49.6552 545.766C49.6552 544.296 48.4593 543.1 46.9892 543.1C45.5191 543.1 44.3232 544.296 44.3232 545.766C44.3232 547.236 45.5191 548.432 46.9892 548.432ZM41.6572 552.431C41.6572 550.656 45.2068 549.765 46.9892 549.765C48.7716 549.765 52.3212 550.656 52.3212 552.431V553.764H41.6572V552.431ZM46.9893 551.288C45.6258 551.288 44.0795 551.799 43.4397 552.241H50.5388C49.899 551.799 48.3527 551.288 46.9893 551.288ZM48.1318 545.766C48.1318 545.134 47.6214 544.624 46.9892 544.624C46.357 544.624 45.8466 545.134 45.8466 545.766C45.8466 546.398 46.357 546.909 46.9892 546.909C47.6214 546.909 48.1318 546.398 48.1318 545.766ZM52.3517 549.811C53.2352 550.451 53.8446 551.304 53.8446 552.431V553.764H56.8914V552.431C56.8914 550.892 54.2255 550.016 52.3517 549.811ZM54.2254 545.766C54.2254 547.236 53.0295 548.432 51.5594 548.432C51.1481 548.432 50.7673 548.333 50.4169 548.165C50.8968 547.488 51.1786 546.657 51.1786 545.766C51.1786 544.875 50.8968 544.045 50.4169 543.367C50.7673 543.199 51.1481 543.1 51.5594 543.1C53.0295 543.1 54.2254 544.296 54.2254 545.766Z" fill="#F7FAFC"/>
<path d="M70.9331 554.432V543.353H78.0309V545.035H72.9402V548.043H77.544V549.726H72.9402V554.432H70.9331ZM82.7875 554.594C81.976 554.594 81.2727 554.416 80.6776 554.059C80.0826 553.702 79.6209 553.202 79.2927 552.56C78.9681 551.918 78.8058 551.168 78.8058 550.31C78.8058 549.451 78.9681 548.699 79.2927 548.054C79.6209 547.408 80.0826 546.907 80.6776 546.55C81.2727 546.193 81.976 546.014 82.7875 546.014C83.599 546.014 84.3023 546.193 84.8973 546.55C85.4924 546.907 85.9523 547.408 86.2769 548.054C86.6051 548.699 86.7692 549.451 86.7692 550.31C86.7692 551.168 86.6051 551.918 86.2769 552.56C85.9523 553.202 85.4924 553.702 84.8973 554.059C84.3023 554.416 83.599 554.594 82.7875 554.594ZM82.7983 553.026C83.2383 553.026 83.6062 552.905 83.9019 552.663C84.1977 552.418 84.4177 552.09 84.5619 551.679C84.7098 551.267 84.7837 550.809 84.7837 550.304C84.7837 549.796 84.7098 549.336 84.5619 548.925C84.4177 548.51 84.1977 548.18 83.9019 547.935C83.6062 547.69 83.2383 547.567 82.7983 547.567C82.3475 547.567 81.9724 547.69 81.6731 547.935C81.3773 548.18 81.1555 548.51 81.0077 548.925C80.8634 549.336 80.7913 549.796 80.7913 550.304C80.7913 550.809 80.8634 551.267 81.0077 551.679C81.1555 552.09 81.3773 552.418 81.6731 552.663C81.9724 552.905 82.3475 553.026 82.7983 553.026ZM90.3897 543.353V554.432H88.4313V543.353H90.3897ZM94.3619 543.353V554.432H92.4035V543.353H94.3619ZM100 554.594C99.1889 554.594 98.4856 554.416 97.8905 554.059C97.2954 553.702 96.8338 553.202 96.5056 552.56C96.181 551.918 96.0187 551.168 96.0187 550.31C96.0187 549.451 96.181 548.699 96.5056 548.054C96.8338 547.408 97.2954 546.907 97.8905 546.55C98.4856 546.193 99.1889 546.014 100 546.014C100.812 546.014 101.515 546.193 102.11 546.55C102.705 546.907 103.165 547.408 103.49 548.054C103.818 548.699 103.982 549.451 103.982 550.31C103.982 551.168 103.818 551.918 103.49 552.56C103.165 553.202 102.705 553.702 102.11 554.059C101.515 554.416 100.812 554.594 100 554.594ZM100.011 553.026C100.451 553.026 100.819 552.905 101.115 552.663C101.411 552.418 101.631 552.09 101.775 551.679C101.923 551.267 101.997 550.809 101.997 550.304C101.997 549.796 101.923 549.336 101.775 548.925C101.631 548.51 101.411 548.18 101.115 547.935C100.819 547.69 100.451 547.567 100.011 547.567C99.5603 547.567 99.1853 547.69 98.8859 547.935C98.5902 548.18 98.3684 548.51 98.2205 548.925C98.0762 549.336 98.0041 549.796 98.0041 550.304C98.0041 550.809 98.0762 551.267 98.2205 551.679C98.3684 552.09 98.5902 552.418 98.8859 552.663C99.1853 552.905 99.5603 553.026 100.011 553.026ZM107.121 554.432L104.773 546.123H106.769L108.23 551.965H108.306L109.799 546.123H111.774L113.267 551.933H113.348L114.787 546.123H116.789L114.435 554.432H112.396L110.838 548.817H110.724L109.166 554.432H107.121ZM118.156 554.432V546.123H120.114V554.432H118.156ZM119.14 544.943C118.83 544.943 118.563 544.84 118.34 544.635C118.116 544.426 118.004 544.175 118.004 543.883C118.004 543.587 118.116 543.336 118.34 543.131C118.563 542.922 118.83 542.817 119.14 542.817C119.454 542.817 119.721 542.922 119.941 543.131C120.165 543.336 120.277 543.587 120.277 543.883C120.277 544.175 120.165 544.426 119.941 544.635C119.721 544.84 119.454 544.943 119.14 544.943ZM124.086 549.563V554.432H122.128V546.123H124V547.535H124.097C124.288 547.069 124.593 546.7 125.012 546.426C125.433 546.151 125.955 546.014 126.575 546.014C127.148 546.014 127.648 546.137 128.074 546.382C128.503 546.627 128.834 546.983 129.069 547.448C129.307 547.913 129.424 548.478 129.421 549.141V554.432H127.462V549.444C127.462 548.889 127.318 548.454 127.029 548.14C126.744 547.827 126.35 547.67 125.845 547.67C125.502 547.67 125.197 547.746 124.93 547.897C124.667 548.045 124.46 548.259 124.308 548.541C124.16 548.822 124.086 549.163 124.086 549.563ZM135.025 557.721C134.322 557.721 133.718 557.626 133.213 557.435C132.708 557.247 132.302 556.995 131.996 556.677C131.689 556.36 131.476 556.008 131.357 555.622L133.121 555.195C133.2 555.357 133.316 555.518 133.467 555.676C133.619 555.839 133.822 555.972 134.078 556.077C134.338 556.185 134.665 556.239 135.058 556.239C135.613 556.239 136.073 556.104 136.437 555.833C136.801 555.566 136.984 555.126 136.984 554.513V552.939H136.886C136.785 553.141 136.637 553.348 136.443 553.561C136.251 553.774 135.997 553.952 135.68 554.097C135.366 554.241 134.971 554.313 134.495 554.313C133.857 554.313 133.278 554.163 132.758 553.864C132.243 553.561 131.832 553.11 131.525 552.512C131.222 551.909 131.071 551.156 131.071 550.25C131.071 549.338 131.222 548.568 131.525 547.94C131.832 547.309 132.245 546.831 132.764 546.507C133.283 546.178 133.862 546.014 134.5 546.014C134.987 546.014 135.388 546.097 135.701 546.263C136.019 546.426 136.271 546.622 136.459 546.853C136.646 547.08 136.789 547.295 136.886 547.497H136.994V546.123H138.926V554.567C138.926 555.278 138.756 555.866 138.417 556.331C138.078 556.796 137.615 557.144 137.027 557.375C136.439 557.606 135.772 557.721 135.025 557.721ZM135.041 552.777C135.456 552.777 135.81 552.676 136.102 552.474C136.394 552.272 136.616 551.981 136.767 551.603C136.919 551.224 136.994 550.77 136.994 550.239C136.994 549.717 136.919 549.258 136.767 548.865C136.619 548.472 136.399 548.168 136.107 547.951C135.819 547.731 135.463 547.621 135.041 547.621C134.605 547.621 134.241 547.735 133.949 547.962C133.656 548.189 133.436 548.501 133.289 548.898C133.141 549.291 133.067 549.738 133.067 550.239C133.067 550.748 133.141 551.193 133.289 551.576C133.44 551.954 133.662 552.25 133.954 552.463C134.25 552.672 134.612 552.777 135.041 552.777Z" fill="white"/>
<rect x="31.374" y="531.226" width="129.402" height="34.4127" rx="5.71282" stroke="#F1F5F9" stroke-width="0.761709"/>
<path fill-rule="evenodd" clip-rule="evenodd" d="M163.284 453.218C163.093 453.218 162.895 453.294 162.751 453.439L161.357 454.833L164.213 457.689L165.607 456.296C165.904 455.999 165.904 455.519 165.607 455.222L163.825 453.439C163.672 453.287 163.482 453.218 163.284 453.218ZM160.542 457.804L161.242 458.505L154.341 465.406H153.641V464.705L160.542 457.804ZM152.117 464.073L160.542 455.648L163.398 458.504L154.974 466.929H152.117V464.073Z" fill="#F7FAFC"/>
<path d="M180.632 466.074V454.994H184.787C185.638 454.994 186.352 455.153 186.929 455.47C187.51 455.788 187.948 456.224 188.244 456.78C188.543 457.331 188.693 457.959 188.693 458.662C188.693 459.373 188.543 460.004 188.244 460.556C187.945 461.107 187.503 461.542 186.919 461.859C186.334 462.173 185.615 462.33 184.76 462.33H182.006V460.68H184.49C184.987 460.68 185.395 460.594 185.712 460.42C186.03 460.247 186.264 460.009 186.415 459.706C186.571 459.403 186.648 459.055 186.648 458.662C186.648 458.269 186.571 457.923 186.415 457.624C186.264 457.324 186.028 457.092 185.707 456.926C185.389 456.756 184.98 456.671 184.479 456.671H182.639V466.074H180.632ZM193.855 466.236C193.044 466.236 192.341 466.058 191.746 465.7C191.15 465.343 190.689 464.844 190.361 464.202C190.036 463.56 189.874 462.81 189.874 461.951C189.874 461.093 190.036 460.341 190.361 459.695C190.689 459.05 191.15 458.549 191.746 458.192C192.341 457.835 193.044 457.656 193.855 457.656C194.667 457.656 195.37 457.835 195.965 458.192C196.56 458.549 197.02 459.05 197.345 459.695C197.673 460.341 197.837 461.093 197.837 461.951C197.837 462.81 197.673 463.56 197.345 464.202C197.02 464.844 196.56 465.343 195.965 465.7C195.37 466.058 194.667 466.236 193.855 466.236ZM193.866 464.667C194.306 464.667 194.674 464.546 194.97 464.305C195.266 464.059 195.486 463.731 195.63 463.32C195.778 462.909 195.852 462.451 195.852 461.946C195.852 461.437 195.778 460.978 195.63 460.566C195.486 460.152 195.266 459.822 194.97 459.576C194.674 459.331 194.306 459.209 193.866 459.209C193.415 459.209 193.04 459.331 192.741 459.576C192.445 459.822 192.223 460.152 192.076 460.566C191.931 460.978 191.859 461.437 191.859 461.946C191.859 462.451 191.931 462.909 192.076 463.32C192.223 463.731 192.445 464.059 192.741 464.305C193.04 464.546 193.415 464.667 193.866 464.667ZM206.067 459.961L204.282 460.155C204.231 459.975 204.143 459.805 204.016 459.647C203.894 459.488 203.728 459.36 203.519 459.263C203.31 459.165 203.054 459.117 202.751 459.117C202.343 459.117 202 459.205 201.723 459.382C201.449 459.558 201.313 459.787 201.317 460.069C201.313 460.31 201.402 460.507 201.582 460.658C201.766 460.81 202.069 460.934 202.491 461.032L203.908 461.335C204.695 461.504 205.279 461.773 205.661 462.141C206.047 462.509 206.242 462.99 206.245 463.585C206.242 464.108 206.088 464.57 205.786 464.97C205.486 465.367 205.07 465.677 204.536 465.901C204.002 466.124 203.389 466.236 202.696 466.236C201.679 466.236 200.861 466.023 200.24 465.598C199.62 465.168 199.25 464.572 199.131 463.807L201.041 463.623C201.128 463.998 201.312 464.281 201.593 464.472C201.874 464.664 202.24 464.759 202.691 464.759C203.156 464.759 203.53 464.664 203.811 464.472C204.096 464.281 204.238 464.045 204.238 463.764C204.238 463.526 204.146 463.329 203.962 463.174C203.782 463.019 203.501 462.9 203.118 462.817L201.701 462.519C200.904 462.354 200.314 462.074 199.932 461.681C199.55 461.284 199.36 460.783 199.364 460.177C199.36 459.665 199.499 459.221 199.781 458.846C200.065 458.467 200.46 458.175 200.965 457.97C201.474 457.761 202.06 457.656 202.724 457.656C203.697 457.656 204.464 457.863 205.023 458.278C205.585 458.693 205.933 459.254 206.067 459.961ZM212.01 457.764V459.279H207.233V457.764H212.01ZM208.412 455.773H210.37V463.574C210.37 463.838 210.41 464.04 210.489 464.18C210.572 464.317 210.681 464.411 210.814 464.462C210.947 464.512 211.095 464.537 211.258 464.537C211.38 464.537 211.492 464.528 211.593 464.51C211.698 464.492 211.777 464.476 211.831 464.462L212.161 465.993C212.056 466.029 211.907 466.068 211.712 466.112C211.521 466.155 211.286 466.18 211.009 466.187C210.518 466.202 210.076 466.128 209.683 465.966C209.29 465.8 208.978 465.544 208.747 465.197C208.52 464.851 208.408 464.418 208.412 463.899V455.773ZM220.096 459.961L218.311 460.155C218.26 459.975 218.172 459.805 218.046 459.647C217.923 459.488 217.757 459.36 217.548 459.263C217.339 459.165 217.083 459.117 216.78 459.117C216.372 459.117 216.03 459.205 215.752 459.382C215.478 459.558 215.343 459.787 215.346 460.069C215.343 460.31 215.431 460.507 215.611 460.658C215.795 460.81 216.098 460.934 216.52 461.032L217.937 461.335C218.724 461.504 219.308 461.773 219.69 462.141C220.076 462.509 220.271 462.99 220.275 463.585C220.271 464.108 220.118 464.57 219.815 464.97C219.515 465.367 219.099 465.677 218.565 465.901C218.031 466.124 217.418 466.236 216.726 466.236C215.709 466.236 214.89 466.023 214.27 465.598C213.649 465.168 213.28 464.572 213.161 463.807L215.07 463.623C215.157 463.998 215.341 464.281 215.622 464.472C215.903 464.664 216.269 464.759 216.72 464.759C217.185 464.759 217.559 464.664 217.84 464.472C218.125 464.281 218.267 464.045 218.267 463.764C218.267 463.526 218.175 463.329 217.992 463.174C217.811 463.019 217.53 462.9 217.148 462.817L215.73 462.519C214.933 462.354 214.343 462.074 213.961 461.681C213.579 461.284 213.39 460.783 213.393 460.177C213.39 459.665 213.528 459.221 213.81 458.846C214.095 458.467 214.49 458.175 214.994 457.97C215.503 457.761 216.089 457.656 216.753 457.656C217.726 457.656 218.493 457.863 219.052 458.278C219.615 458.693 219.963 459.254 220.096 459.961Z" fill="white"/>
<rect x="141.073" y="442.867" width="100.784" height="34.4127" rx="5.71282" stroke="#F1F5F9" stroke-width="0.761709"/>
<rect x="31.3809" y="324.802" width="153.104" height="45.7026" rx="5.71282" fill="#1E293B" stroke="white" stroke-width="0.761709"/>
<path d="M74.5968 344.663C75.0909 344.667 75.5778 344.757 76.0575 344.934C76.5371 345.11 76.9699 345.399 77.3558 345.799C77.7453 346.2 78.0555 346.741 78.2863 347.422C78.5207 348.1 78.6398 348.944 78.6434 349.954C78.6434 350.924 78.546 351.788 78.3512 352.545C78.1565 353.299 77.877 353.936 77.5127 354.455C77.152 354.974 76.7138 355.369 76.1981 355.64C75.6824 355.91 75.1017 356.046 74.4561 356.046C73.7961 356.046 73.2101 355.916 72.6979 355.656C72.1858 355.396 71.7692 355.037 71.4482 354.579C71.1273 354.118 70.9271 353.588 70.8477 352.989H72.4978C72.606 353.465 72.826 353.851 73.1578 354.147C73.4932 354.439 73.926 354.585 74.4561 354.585C75.2676 354.585 75.9006 354.231 76.355 353.525C76.8094 352.814 77.0384 351.822 77.042 350.549H76.9555C76.7679 350.859 76.5335 351.126 76.2522 351.35C75.9745 351.573 75.6625 351.746 75.3163 351.869C74.9701 351.992 74.6004 352.053 74.2073 352.053C73.5689 352.053 72.9883 351.896 72.4653 351.582C71.9423 351.269 71.5258 350.838 71.2156 350.289C70.9055 349.741 70.7504 349.115 70.7504 348.412C70.7504 347.713 70.9091 347.078 71.2264 346.508C71.5474 345.938 71.9946 345.487 72.5681 345.155C73.1451 344.82 73.8214 344.656 74.5968 344.663ZM74.6022 346.07C74.1802 346.07 73.7997 346.174 73.4607 346.383C73.1253 346.589 72.8602 346.869 72.6655 347.222C72.4707 347.572 72.3733 347.961 72.3733 348.391C72.3733 348.82 72.4671 349.209 72.6546 349.559C72.8458 349.905 73.1055 350.181 73.4337 350.387C73.7655 350.589 74.1442 350.69 74.5697 350.69C74.8871 350.69 75.1829 350.628 75.457 350.506C75.7311 350.383 75.9709 350.214 76.1765 349.997C76.382 349.777 76.5425 349.528 76.6579 349.251C76.7734 348.973 76.8311 348.681 76.8311 348.374C76.8311 347.967 76.7337 347.588 76.5389 347.238C76.3478 346.888 76.0845 346.607 75.7491 346.394C75.4137 346.178 75.0314 346.07 74.6022 346.07ZM87.2031 354.055L80.9818 347.833L82.0042 346.811L88.2256 353.032L87.2031 354.055ZM82.0042 354.055L80.9818 353.032L87.2031 346.811L88.2256 347.833L82.0042 354.055ZM94.6011 356.046C93.8582 356.046 93.1946 355.917 92.6103 355.661C92.0296 355.405 91.5698 355.05 91.2308 354.596C90.8954 354.138 90.715 353.607 90.6898 353.005H92.3885C92.4101 353.333 92.5201 353.618 92.7185 353.86C92.9205 354.098 93.1837 354.282 93.5083 354.412C93.8329 354.542 94.1936 354.606 94.5903 354.606C95.0267 354.606 95.4126 354.531 95.748 354.379C96.087 354.228 96.3521 354.017 96.5433 353.746C96.7344 353.472 96.83 353.157 96.83 352.8C96.83 352.428 96.7344 352.102 96.5433 351.82C96.3557 351.535 96.0798 351.312 95.7156 351.15C95.3549 350.987 94.9185 350.906 94.4064 350.906H93.4705V349.543H94.4064C94.8175 349.543 95.1782 349.469 95.4883 349.321C95.8021 349.173 96.0474 348.968 96.2241 348.704C96.4008 348.437 96.4892 348.125 96.4892 347.768C96.4892 347.426 96.4116 347.128 96.2565 346.876C96.1051 346.62 95.8887 346.42 95.6074 346.275C95.3297 346.131 95.0015 346.059 94.6228 346.059C94.2621 346.059 93.9249 346.126 93.6111 346.259C93.301 346.389 93.0485 346.576 92.8537 346.822C92.659 347.063 92.5544 347.354 92.54 347.693H90.9224C90.9404 347.094 91.1172 346.567 91.4526 346.113C91.7916 345.659 92.2388 345.303 92.7942 345.047C93.3496 344.791 93.9664 344.663 94.6444 344.663C95.3549 344.663 95.968 344.802 96.4838 345.08C97.0031 345.354 97.4034 345.72 97.6848 346.178C97.9697 346.636 98.1103 347.137 98.1067 347.682C98.1103 348.302 97.9372 348.829 97.5874 349.262C97.2411 349.694 96.7795 349.985 96.2024 350.133V350.219C96.9382 350.331 97.508 350.623 97.912 351.095C98.3195 351.568 98.5215 352.154 98.5179 352.854C98.5215 353.463 98.352 354.01 98.0093 354.493C97.6703 354.976 97.2069 355.357 96.619 355.634C96.0311 355.908 95.3585 356.046 94.6011 356.046ZM104.068 359.183C103.408 359.183 102.84 359.097 102.364 358.924C101.892 358.75 101.506 358.521 101.207 358.237C100.907 357.952 100.684 357.64 100.536 357.301L101.926 356.727C102.023 356.886 102.153 357.054 102.316 357.23C102.482 357.411 102.705 357.564 102.986 357.69C103.271 357.816 103.637 357.879 104.085 357.879C104.698 357.879 105.204 357.73 105.605 357.43C106.005 357.135 106.205 356.662 106.205 356.013V354.379H106.103C106.005 354.556 105.864 354.753 105.681 354.969C105.5 355.185 105.251 355.373 104.934 355.532C104.617 355.69 104.204 355.77 103.695 355.77C103.039 355.77 102.447 355.616 101.921 355.31C101.398 355 100.983 354.543 100.676 353.941C100.373 353.335 100.222 352.59 100.222 351.707C100.222 350.823 100.372 350.066 100.671 349.435C100.974 348.804 101.389 348.32 101.915 347.985C102.442 347.646 103.039 347.476 103.706 347.476C104.222 347.476 104.638 347.563 104.956 347.736C105.273 347.905 105.52 348.104 105.697 348.331C105.877 348.558 106.016 348.758 106.113 348.932H106.232V347.584H107.817V356.078C107.817 356.792 107.652 357.378 107.32 357.836C106.988 358.294 106.539 358.633 105.973 358.853C105.41 359.073 104.775 359.183 104.068 359.183ZM104.052 354.428C104.517 354.428 104.911 354.32 105.232 354.103C105.556 353.883 105.801 353.57 105.967 353.162C106.137 352.751 106.222 352.259 106.222 351.685C106.222 351.126 106.139 350.634 105.973 350.208C105.807 349.783 105.563 349.451 105.242 349.213C104.921 348.971 104.525 348.85 104.052 348.85C103.565 348.85 103.16 348.977 102.835 349.229C102.51 349.478 102.265 349.817 102.099 350.246C101.937 350.675 101.856 351.155 101.856 351.685C101.856 352.23 101.939 352.708 102.105 353.119C102.271 353.53 102.516 353.851 102.84 354.082C103.169 354.313 103.572 354.428 104.052 354.428ZM111.053 355.997C110.757 355.997 110.503 355.892 110.29 355.683C110.077 355.47 109.971 355.214 109.971 354.915C109.971 354.619 110.077 354.367 110.29 354.157C110.503 353.945 110.757 353.838 111.053 353.838C111.348 353.838 111.603 353.945 111.815 354.157C112.028 354.367 112.135 354.619 112.135 354.915C112.135 355.113 112.084 355.295 111.983 355.461C111.886 355.624 111.756 355.753 111.594 355.851C111.431 355.948 111.251 355.997 111.053 355.997ZM115.367 355.997C115.071 355.997 114.817 355.892 114.604 355.683C114.391 355.47 114.285 355.214 114.285 354.915C114.285 354.619 114.391 354.367 114.604 354.157C114.817 353.945 115.071 353.838 115.367 353.838C115.663 353.838 115.917 353.945 116.13 354.157C116.342 354.367 116.449 354.619 116.449 354.915C116.449 355.113 116.398 355.295 116.297 355.461C116.2 355.624 116.07 355.753 115.908 355.851C115.746 355.948 115.565 355.997 115.367 355.997ZM119.681 355.997C119.386 355.997 119.131 355.892 118.918 355.683C118.706 355.47 118.599 355.214 118.599 354.915C118.599 354.619 118.706 354.367 118.918 354.157C119.131 353.945 119.386 353.838 119.681 353.838C119.977 353.838 120.231 353.945 120.444 354.157C120.657 354.367 120.763 354.619 120.763 354.915C120.763 355.113 120.713 355.295 120.612 355.461C120.514 355.624 120.385 355.753 120.222 355.851C120.06 355.948 119.88 355.997 119.681 355.997ZM123.06 344.815H125.088L128.616 353.427H128.746L132.273 344.815H134.301V355.894H132.711V347.877H132.608L129.341 355.878H128.021L124.753 347.871H124.65V355.894H123.06V344.815ZM140.086 359.183C139.426 359.183 138.858 359.097 138.382 358.924C137.909 358.75 137.523 358.521 137.224 358.237C136.925 357.952 136.701 357.64 136.553 357.301L137.944 356.727C138.041 356.886 138.171 357.054 138.333 357.23C138.499 357.411 138.723 357.564 139.004 357.69C139.289 357.816 139.655 357.879 140.102 357.879C140.715 357.879 141.222 357.73 141.622 357.43C142.023 357.135 142.223 356.662 142.223 356.013V354.379H142.12C142.023 354.556 141.882 354.753 141.698 354.969C141.518 355.185 141.269 355.373 140.952 355.532C140.634 355.69 140.221 355.77 139.713 355.77C139.056 355.77 138.465 355.616 137.938 355.31C137.415 355 137.001 354.543 136.694 353.941C136.391 353.335 136.24 352.59 136.24 351.707C136.24 350.823 136.389 350.066 136.689 349.435C136.991 348.804 137.406 348.32 137.933 347.985C138.459 347.646 139.056 347.476 139.723 347.476C140.239 347.476 140.656 347.563 140.973 347.736C141.291 347.905 141.538 348.104 141.714 348.331C141.895 348.558 142.033 348.758 142.131 348.932H142.25V347.584H143.835V356.078C143.835 356.792 143.669 357.378 143.337 357.836C143.005 358.294 142.556 358.633 141.99 358.853C141.428 359.073 140.793 359.183 140.086 359.183ZM140.07 354.428C140.535 354.428 140.928 354.32 141.249 354.103C141.574 353.883 141.819 353.57 141.985 353.162C142.154 352.751 142.239 352.259 142.239 351.685C142.239 351.126 142.156 350.634 141.99 350.208C141.824 349.783 141.581 349.451 141.26 349.213C140.939 348.971 140.542 348.85 140.07 348.85C139.583 348.85 139.177 348.977 138.852 349.229C138.528 349.478 138.283 349.817 138.117 350.246C137.954 350.675 137.873 351.155 137.873 351.685C137.873 352.23 137.956 352.708 138.122 353.119C138.288 353.53 138.533 353.851 138.858 354.082C139.186 354.313 139.59 354.428 140.07 354.428ZM146.134 355.894V344.815H147.806V350.105H147.941L152.588 344.815H154.693L150.224 349.803L154.709 355.894H152.696L149.115 350.944L147.806 352.448V355.894H146.134ZM156.251 355.894V344.815H157.922V354.455H162.943V355.894H156.251Z" fill="white"/>
<path d="M31.0066 298.921H32.9055L35.7998 303.957H35.9188L38.8131 298.921H40.7119L36.6924 305.65V310H35.0262V305.65L31.0066 298.921ZM44.2919 310.168C43.5129 310.168 42.8331 309.989 42.2524 309.632C41.6717 309.275 41.2209 308.776 40.8999 308.134C40.579 307.492 40.4185 306.741 40.4185 305.883C40.4185 305.021 40.579 304.267 40.8999 303.622C41.2209 302.976 41.6717 302.475 42.2524 302.118C42.8331 301.761 43.5129 301.582 44.2919 301.582C45.0709 301.582 45.7508 301.761 46.3314 302.118C46.9121 302.475 47.3629 302.976 47.6839 303.622C48.0049 304.267 48.1654 305.021 48.1654 305.883C48.1654 306.741 48.0049 307.492 47.6839 308.134C47.3629 308.776 46.9121 309.275 46.3314 309.632C45.7508 309.989 45.0709 310.168 44.2919 310.168ZM44.2973 308.81C44.8023 308.81 45.2206 308.676 45.5524 308.409C45.8842 308.143 46.1295 307.787 46.2882 307.344C46.4505 306.9 46.5316 306.411 46.5316 305.878C46.5316 305.348 46.4505 304.861 46.2882 304.417C46.1295 303.97 45.8842 303.611 45.5524 303.34C45.2206 303.07 44.8023 302.935 44.2973 302.935C43.7888 302.935 43.3668 303.07 43.0314 303.34C42.6996 303.611 42.4526 303.97 42.2903 304.417C42.1316 304.861 42.0522 305.348 42.0522 305.878C42.0522 306.411 42.1316 306.9 42.2903 307.344C42.4526 307.787 42.6996 308.143 43.0314 308.409C43.3668 308.676 43.7888 308.81 44.2973 308.81ZM55.2347 306.554V301.69H56.8577V310H55.2672V308.561H55.1806C54.9895 309.005 54.6829 309.374 54.261 309.67C53.8426 309.962 53.3214 310.108 52.6975 310.108C52.1637 310.108 51.6913 309.991 51.2801 309.757C50.8726 309.519 50.5516 309.167 50.3172 308.702C50.0863 308.236 49.9709 307.661 49.9709 306.976V301.69H51.5885V306.781C51.5885 307.347 51.7454 307.798 52.0591 308.134C52.3729 308.469 52.7805 308.637 53.2818 308.637C53.5847 308.637 53.8859 308.561 54.1852 308.409C54.4882 308.258 54.7388 308.029 54.9372 307.722C55.1392 307.416 55.2383 307.026 55.2347 306.554ZM59.0311 310V301.69H60.5946V303.01H60.6811C60.8326 302.563 61.0995 302.212 61.4818 301.956C61.8677 301.696 62.3041 301.566 62.791 301.566C62.892 301.566 63.011 301.57 63.148 301.577C63.2887 301.584 63.3987 301.593 63.478 301.604V303.151C63.4131 303.133 63.2977 303.113 63.1318 303.092C62.9659 303.066 62.8 303.054 62.6341 303.054C62.2518 303.054 61.911 303.135 61.6116 303.297C61.3159 303.456 61.0814 303.678 60.9083 303.963C60.7352 304.244 60.6487 304.565 60.6487 304.926V310H59.0311ZM71.2087 310L68.1359 298.921H69.8941L72.0527 307.501H72.1554L74.4005 298.921H76.1425L78.3876 307.506H78.4904L80.6435 298.921H82.4071L79.3289 310H77.6465L75.3148 301.701H75.2283L72.8966 310H71.2087ZM85.4015 310.184C84.8749 310.184 84.3989 310.087 83.9733 309.892C83.5477 309.693 83.2105 309.407 82.9617 309.032C82.7164 308.657 82.5938 308.197 82.5938 307.652C82.5938 307.183 82.684 306.797 82.8643 306.494C83.0446 306.191 83.2881 305.952 83.5946 305.775C83.9012 305.598 84.2438 305.465 84.6225 305.375C85.0012 305.284 85.3871 305.216 85.7802 305.169C86.2779 305.111 86.6818 305.064 86.992 305.028C87.3022 304.989 87.5276 304.926 87.6682 304.839C87.8089 304.752 87.8792 304.612 87.8792 304.417V304.379C87.8792 303.907 87.7458 303.541 87.4789 303.281C87.2156 303.021 86.8225 302.891 86.2995 302.891C85.755 302.891 85.3258 303.012 85.012 303.254C84.7018 303.492 84.4872 303.757 84.3682 304.049L82.8481 303.703C83.0284 303.198 83.2917 302.79 83.6379 302.48C83.9877 302.167 84.3899 301.939 84.8443 301.799C85.2987 301.654 85.7766 301.582 86.2779 301.582C86.6097 301.582 86.9614 301.622 87.3328 301.701C87.7079 301.777 88.0578 301.918 88.3823 302.123C88.7105 302.329 88.9792 302.623 89.1884 303.005C89.3976 303.384 89.5022 303.876 89.5022 304.482V310H87.9225V308.864H87.8576C87.753 309.073 87.5961 309.279 87.3869 309.481C87.1778 309.683 86.9091 309.85 86.5809 309.984C86.2527 310.117 85.8595 310.184 85.4015 310.184ZM85.7532 308.886C86.2004 308.886 86.5827 308.797 86.9 308.62C87.221 308.444 87.4645 308.213 87.6304 307.928C87.7999 307.639 87.8846 307.331 87.8846 307.003V305.932C87.8269 305.989 87.7151 306.044 87.5492 306.094C87.3869 306.141 87.2012 306.182 86.992 306.219C86.7828 306.251 86.5791 306.282 86.3807 306.31C86.1823 306.336 86.0164 306.357 85.883 306.375C85.5692 306.415 85.2825 306.482 85.0228 306.576C84.7668 306.669 84.5612 306.805 84.4061 306.981C84.2546 307.154 84.1789 307.385 84.1789 307.674C84.1789 308.074 84.3268 308.377 84.6225 308.583C84.9182 308.785 85.2951 308.886 85.7532 308.886ZM93.2742 298.921V310H91.6567V298.921H93.2742ZM97.0679 298.921V310H95.4503V298.921H97.0679ZM102.825 310.168C102.007 310.168 101.302 309.993 100.71 309.643C100.122 309.29 99.6678 308.794 99.3468 308.155C99.0294 307.513 98.8707 306.761 98.8707 305.899C98.8707 305.048 99.0294 304.298 99.3468 303.649C99.6678 303 100.115 302.493 100.688 302.129C101.265 301.764 101.94 301.582 102.712 301.582C103.181 301.582 103.635 301.66 104.075 301.815C104.515 301.97 104.91 302.213 105.26 302.545C105.61 302.877 105.886 303.308 106.087 303.838C106.289 304.365 106.39 305.005 106.39 305.759V306.332H99.785V305.12H104.805C104.805 304.695 104.719 304.318 104.546 303.99C104.373 303.658 104.129 303.396 103.815 303.205C103.505 303.014 103.141 302.918 102.723 302.918C102.268 302.918 101.871 303.03 101.532 303.254C101.197 303.474 100.937 303.762 100.753 304.119C100.573 304.473 100.483 304.857 100.483 305.272V306.219C100.483 306.774 100.58 307.246 100.775 307.636C100.973 308.025 101.249 308.323 101.603 308.529C101.956 308.73 102.369 308.831 102.842 308.831C103.148 308.831 103.428 308.788 103.68 308.702C103.933 308.611 104.151 308.478 104.335 308.301C104.519 308.125 104.659 307.906 104.757 307.647L106.288 307.923C106.165 308.373 105.945 308.768 105.628 309.107C105.314 309.443 104.919 309.704 104.443 309.892C103.97 310.076 103.431 310.168 102.825 310.168ZM112.064 301.69V302.989H107.525V301.69H112.064ZM108.742 299.7H110.36V307.56C110.36 307.874 110.407 308.11 110.501 308.269C110.594 308.424 110.715 308.53 110.863 308.588C111.015 308.642 111.179 308.669 111.355 308.669C111.485 308.669 111.599 308.66 111.696 308.642C111.794 308.624 111.869 308.61 111.923 308.599L112.216 309.935C112.122 309.971 111.988 310.007 111.815 310.043C111.642 310.083 111.426 310.105 111.166 310.108C110.74 310.115 110.344 310.04 109.976 309.881C109.608 309.722 109.31 309.477 109.083 309.145C108.856 308.813 108.742 308.397 108.742 307.896V299.7Z" fill="white"/>
<path fill-rule="evenodd" clip-rule="evenodd" d="M59.0088 341.211V343.309C59.5519 343.632 59.9292 344.211 59.9292 344.893V350.415C59.9292 351.096 59.5519 351.676 59.0088 351.998V354.096C59.0088 355.109 58.1805 355.937 57.168 355.937H44.2824C43.2608 355.937 42.4417 355.109 42.4417 354.096V341.211C42.4417 340.198 43.2608 339.37 44.2824 339.37H57.168C58.1805 339.37 59.0088 340.198 59.0088 341.211ZM51.6455 350.415H58.0883V344.892H51.6455V350.415ZM44.2824 354.096V341.211H57.168V343.052H51.6456C50.6332 343.052 49.8048 343.88 49.8048 344.892V350.415C49.8048 351.427 50.6332 352.256 51.6456 352.256H57.168V354.096H44.2824ZM53.0261 347.654C53.0261 346.891 53.6442 346.273 54.4067 346.273C55.1692 346.273 55.7873 346.891 55.7873 347.654C55.7873 348.416 55.1692 349.034 54.4067 349.034C53.6442 349.034 53.0261 348.416 53.0261 347.654Z" fill="#F7FAFC"/>
<path d="M31.4642 585.323H33.4929L37.0202 593.935H37.15L40.6772 585.323H42.7059V596.402H41.1154V588.385H41.0126L37.7451 596.386H36.4251L33.1575 588.38H33.0547V596.402H31.4642V585.323ZM48.5878 596.57C47.7691 596.57 47.064 596.395 46.4726 596.045C45.8847 595.692 45.4303 595.196 45.1093 594.558C44.7919 593.916 44.6332 593.164 44.6332 592.302C44.6332 591.451 44.7919 590.7 45.1093 590.051C45.4303 589.402 45.8775 588.895 46.4509 588.531C47.028 588.167 47.7024 587.985 48.4742 587.985C48.9431 587.985 49.3975 588.062 49.8375 588.217C50.2775 588.372 50.6724 588.616 51.0223 588.948C51.3721 589.279 51.648 589.71 51.85 590.241C52.0519 590.767 52.1529 591.407 52.1529 592.161V592.734H45.5475V591.523H50.5678C50.5678 591.097 50.4813 590.72 50.3082 590.392C50.135 590.06 49.8916 589.799 49.5778 589.608C49.2677 589.416 48.9034 589.321 48.485 589.321C48.0306 589.321 47.6339 589.433 47.2949 589.656C46.9594 589.876 46.6998 590.165 46.5158 590.522C46.3355 590.875 46.2453 591.259 46.2453 591.674V592.621C46.2453 593.176 46.3427 593.649 46.5375 594.038C46.7358 594.428 47.0117 594.725 47.3652 594.931C47.7186 595.133 48.1316 595.234 48.604 595.234C48.9106 595.234 49.1901 595.191 49.4426 595.104C49.695 595.014 49.9132 594.88 50.0972 594.704C50.2811 594.527 50.4218 594.309 50.5191 594.049L52.0501 594.325C51.9275 594.776 51.7075 595.171 51.3901 595.51C51.0764 595.845 50.6814 596.107 50.2054 596.294C49.7329 596.478 49.1937 596.57 48.5878 596.57ZM57.8265 588.093V589.391H53.2876V588.093H57.8265ZM54.5049 586.102H56.1224V593.962C56.1224 594.276 56.1693 594.512 56.2631 594.671C56.3568 594.826 56.4777 594.933 56.6255 594.99C56.777 595.044 56.9411 595.072 57.1178 595.072C57.2477 595.072 57.3613 595.062 57.4586 595.044C57.556 595.026 57.6318 595.012 57.6859 595.001L57.978 596.337C57.8842 596.373 57.7508 596.41 57.5777 596.446C57.4045 596.485 57.1882 596.507 56.9285 596.511C56.5029 596.518 56.1062 596.442 55.7383 596.283C55.3704 596.125 55.0729 595.879 54.8457 595.548C54.6185 595.216 54.5049 594.799 54.5049 594.298V586.102ZM62.034 596.586C61.5075 596.586 61.0314 596.489 60.6058 596.294C60.1803 596.096 59.843 595.809 59.5942 595.434C59.3489 595.059 59.2263 594.599 59.2263 594.054C59.2263 593.586 59.3165 593.2 59.4968 592.897C59.6771 592.594 59.9206 592.354 60.2271 592.177C60.5337 592.001 60.8763 591.867 61.255 591.777C61.6337 591.687 62.0196 591.618 62.4127 591.571C62.9104 591.514 63.3144 591.467 63.6245 591.431C63.9347 591.391 64.1601 591.328 64.3008 591.241C64.4414 591.155 64.5118 591.014 64.5118 590.819V590.781C64.5118 590.309 64.3783 589.943 64.1114 589.683C63.8481 589.424 63.455 589.294 62.9321 589.294C62.3875 589.294 61.9583 589.415 61.6445 589.656C61.3344 589.894 61.1198 590.159 61.0008 590.451L59.4806 590.105C59.6609 589.6 59.9242 589.193 60.2704 588.883C60.6203 588.569 61.0224 588.342 61.4768 588.201C61.9313 588.057 62.4091 587.985 62.9104 587.985C63.2422 587.985 63.5939 588.024 63.9654 588.104C64.3404 588.179 64.6903 588.32 65.0149 588.526C65.3431 588.731 65.6118 589.025 65.8209 589.407C66.0301 589.786 66.1347 590.278 66.1347 590.884V596.402H64.555V595.266H64.4901C64.3855 595.475 64.2286 595.681 64.0195 595.883C63.8103 596.085 63.5416 596.253 63.2134 596.386C62.8852 596.52 62.4921 596.586 62.034 596.586ZM62.3857 595.288C62.8329 595.288 63.2152 595.2 63.5326 595.023C63.8536 594.846 64.097 594.615 64.2629 594.33C64.4324 594.042 64.5172 593.733 64.5172 593.405V592.334C64.4595 592.392 64.3477 592.446 64.1818 592.496C64.0195 592.543 63.8337 592.585 63.6245 592.621C63.4154 592.653 63.2116 592.684 63.0132 592.713C62.8149 592.738 62.649 592.76 62.5155 592.778C62.2017 592.817 61.915 592.884 61.6553 592.978C61.3993 593.072 61.1937 593.207 61.0386 593.384C60.8871 593.557 60.8114 593.788 60.8114 594.076C60.8114 594.476 60.9593 594.779 61.255 594.985C61.5508 595.187 61.9276 595.288 62.3857 595.288ZM71.3999 596.565C70.7291 596.565 70.1304 596.393 69.6038 596.051C69.0808 595.704 68.6697 595.212 68.3703 594.574C68.0746 593.932 67.9267 593.162 67.9267 592.264C67.9267 591.366 68.0764 590.598 68.3758 589.959C68.6787 589.321 69.0935 588.832 69.62 588.493C70.1466 588.154 70.7435 587.985 71.4107 587.985C71.9264 587.985 72.3412 588.071 72.655 588.244C72.9723 588.414 73.2176 588.612 73.3907 588.839C73.5674 589.067 73.7045 589.267 73.8019 589.44H73.8992V585.323H75.5168V596.402H73.9371V595.109H73.8019C73.7045 595.286 73.5638 595.488 73.3799 595.715C73.1996 595.943 72.9507 596.141 72.6333 596.31C72.3159 596.48 71.9048 596.565 71.3999 596.565ZM71.7569 595.185C72.2222 595.185 72.6153 595.062 72.9363 594.817C73.2609 594.568 73.5061 594.224 73.672 593.784C73.8415 593.344 73.9263 592.832 73.9263 592.248C73.9263 591.671 73.8433 591.166 73.6774 590.733C73.5115 590.3 73.2681 589.963 72.9471 589.721C72.6261 589.48 72.2294 589.359 71.7569 589.359C71.27 589.359 70.8643 589.485 70.5397 589.737C70.2151 589.99 69.9699 590.334 69.804 590.771C69.6417 591.207 69.5605 591.699 69.5605 592.248C69.5605 592.803 69.6435 593.302 69.8094 593.746C69.9753 594.19 70.2205 594.541 70.5451 594.801C70.8733 595.057 71.2773 595.185 71.7569 595.185ZM80.2437 596.586C79.7171 596.586 79.241 596.489 78.8154 596.294C78.3899 596.096 78.0527 595.809 77.8038 595.434C77.5586 595.059 77.4359 594.599 77.4359 594.054C77.4359 593.586 77.5261 593.2 77.7064 592.897C77.8868 592.594 78.1302 592.354 78.4368 592.177C78.7433 592.001 79.0859 591.867 79.4646 591.777C79.8433 591.687 80.2292 591.618 80.6223 591.571C81.1201 591.514 81.524 591.467 81.8342 591.431C82.1443 591.391 82.3697 591.328 82.5104 591.241C82.651 591.155 82.7214 591.014 82.7214 590.819V590.781C82.7214 590.309 82.5879 589.943 82.321 589.683C82.0578 589.424 81.6646 589.294 81.1417 589.294C80.5971 589.294 80.1679 589.415 79.8541 589.656C79.544 589.894 79.3294 590.159 79.2104 590.451L77.6902 590.105C77.8705 589.6 78.1338 589.193 78.48 588.883C78.8299 588.569 79.232 588.342 79.6864 588.201C80.1409 588.057 80.6187 587.985 81.1201 587.985C81.4519 587.985 81.8035 588.024 82.175 588.104C82.5501 588.179 82.8999 588.32 83.2245 588.526C83.5527 588.731 83.8214 589.025 84.0306 589.407C84.2397 589.786 84.3443 590.278 84.3443 590.884V596.402H82.7647V595.266H82.6997C82.5951 595.475 82.4383 595.681 82.2291 595.883C82.0199 596.085 81.7512 596.253 81.423 596.386C81.0948 596.52 80.7017 596.586 80.2437 596.586ZM80.5953 595.288C81.0425 595.288 81.4248 595.2 81.7422 595.023C82.0632 594.846 82.3066 594.615 82.4725 594.33C82.642 594.042 82.7268 593.733 82.7268 593.405V592.334C82.6691 592.392 82.5573 592.446 82.3914 592.496C82.2291 592.543 82.0433 592.585 81.8342 592.621C81.625 592.653 81.4212 592.684 81.2228 592.713C81.0245 592.738 80.8586 592.76 80.7251 592.778C80.4114 592.817 80.1246 592.884 79.865 592.978C79.6089 593.072 79.4033 593.207 79.2482 593.384C79.0968 593.557 79.021 593.788 79.021 594.076C79.021 594.476 79.1689 594.779 79.4646 594.985C79.7604 595.187 80.1373 595.288 80.5953 595.288ZM90.3777 588.093V589.391H85.8388V588.093H90.3777ZM87.056 586.102H88.6736V593.962C88.6736 594.276 88.7205 594.512 88.8142 594.671C88.908 594.826 89.0288 594.933 89.1767 594.99C89.3282 595.044 89.4923 595.072 89.669 595.072C89.7988 595.072 89.9124 595.062 90.0098 595.044C90.1072 595.026 90.1829 595.012 90.237 595.001L90.5292 596.337C90.4354 596.373 90.302 596.41 90.1288 596.446C89.9557 596.485 89.7393 596.507 89.4797 596.511C89.0541 596.518 88.6574 596.442 88.2895 596.283C87.9216 596.125 87.6241 595.879 87.3969 595.548C87.1696 595.216 87.056 594.799 87.056 594.298V586.102ZM94.5852 596.586C94.0587 596.586 93.5826 596.489 93.157 596.294C92.7314 596.096 92.3942 595.809 92.1454 595.434C91.9001 595.059 91.7775 594.599 91.7775 594.054C91.7775 593.586 91.8677 593.2 92.048 592.897C92.2283 592.594 92.4718 592.354 92.7783 592.177C93.0849 592.001 93.4275 591.867 93.8062 591.777C94.1849 591.687 94.5708 591.618 94.9639 591.571C95.4616 591.514 95.8656 591.467 96.1757 591.431C96.4859 591.391 96.7113 591.328 96.8519 591.241C96.9926 591.155 97.0629 591.014 97.0629 590.819V590.781C97.0629 590.309 96.9295 589.943 96.6626 589.683C96.3993 589.424 96.0062 589.294 95.4833 589.294C94.9387 589.294 94.5095 589.415 94.1957 589.656C93.8855 589.894 93.6709 590.159 93.5519 590.451L92.0318 590.105C92.2121 589.6 92.4754 589.193 92.8216 588.883C93.1714 588.569 93.5736 588.342 94.028 588.201C94.4824 588.057 94.9603 587.985 95.4616 587.985C95.7934 587.985 96.1451 588.024 96.5165 588.104C96.8916 588.179 97.2415 588.32 97.5661 588.526C97.8943 588.731 98.1629 589.025 98.3721 589.407C98.5813 589.786 98.6859 590.278 98.6859 590.884V596.402H97.1062V595.266H97.0413C96.9367 595.475 96.7798 595.681 96.5706 595.883C96.3615 596.085 96.0928 596.253 95.7646 596.386C95.4364 596.52 95.0433 596.586 94.5852 596.586ZM94.9369 595.288C95.3841 595.288 95.7664 595.2 96.0837 595.023C96.4047 594.846 96.6482 594.615 96.8141 594.33C96.9836 594.042 97.0683 593.733 97.0683 593.405V592.334C97.0106 592.392 96.8988 592.446 96.7329 592.496C96.5706 592.543 96.3849 592.585 96.1757 592.621C95.9665 592.653 95.7628 592.684 95.5644 592.713C95.366 592.738 95.2001 592.76 95.0667 592.778C94.7529 592.817 94.4662 592.884 94.2065 592.978C93.9505 593.072 93.7449 593.207 93.5898 593.384C93.4383 593.557 93.3626 593.788 93.3626 594.076C93.3626 594.476 93.5105 594.779 93.8062 594.985C94.1019 595.187 94.4788 595.288 94.9369 595.288Z" fill="white"/>
<circle cx="102.6" cy="400.593" r="11.0448" fill="#1E293B" stroke="#3D464F" stroke-width="0.761709"/>
<path d="M98.2505 403.296L98.0707 404.553C98.0596 404.631 98.0668 404.711 98.0918 404.785C98.1167 404.86 98.1587 404.928 98.2144 404.984C98.2701 405.04 98.338 405.082 98.4128 405.106C98.4875 405.131 98.5671 405.139 98.6451 405.128L99.9019 404.948C100.092 404.921 100.57 403.639 100.57 403.639C100.57 403.639 100.809 403.845 100.907 403.876C101.117 403.942 101.32 403.737 101.389 403.528L101.585 402.629C101.585 402.629 101.878 402.777 101.984 402.799C102.119 402.827 102.25 402.743 102.343 402.65C102.399 402.594 102.441 402.526 102.466 402.451L102.601 401.613C102.601 401.613 102.944 401.708 103.061 401.722C103.195 401.737 103.325 401.669 103.42 401.573L103.998 400.995C104.487 401.154 105.01 401.174 105.511 401.055C106.011 400.935 106.468 400.679 106.832 400.316C107.355 399.792 107.648 399.082 107.648 398.341C107.648 397.601 107.355 396.891 106.832 396.366C106.308 395.843 105.597 395.55 104.857 395.55C104.117 395.55 103.406 395.843 102.882 396.366C102.519 396.73 102.263 397.188 102.144 397.688C102.024 398.188 102.044 398.711 102.203 399.2L98.3937 403.009C98.316 403.087 98.2657 403.188 98.2505 403.296V403.296ZM105.904 397.295C106.181 397.572 106.336 397.949 106.336 398.341C106.336 398.734 106.181 399.11 105.904 399.388L103.81 397.295C104.088 397.018 104.465 396.862 104.857 396.862C105.249 396.862 105.626 397.018 105.904 397.295Z" fill="white"/>
<circle cx="50.3921" cy="730.392" r="29.0859" stroke="white" stroke-width="0.612335"/>
<path d="M42.4385 735.372C42.5753 735.236 42.7633 735.156 42.9627 735.156H61.0453C61.3757 735.156 61.5409 735.555 61.3073 735.788L57.7352 739.36C57.5985 739.497 57.4105 739.577 57.2111 739.577H39.1285C38.7981 739.577 38.6329 739.178 38.8665 738.944L42.4385 735.372Z" fill="white"/>
<path d="M42.4383 722.036C42.5807 721.899 42.7687 721.819 42.9624 721.819H61.045C61.3754 721.819 61.5407 722.218 61.3071 722.452L57.735 726.024C57.5983 726.161 57.4103 726.24 57.2109 726.24H39.1283C38.7979 726.24 38.6326 725.841 38.8662 725.608L42.4383 722.036Z" fill="white"/>
<path d="M57.7352 728.661C57.5985 728.525 57.4105 728.445 57.2111 728.445H39.1285C38.7981 728.445 38.6329 728.844 38.8665 729.077L42.4385 732.649C42.5753 732.786 42.7633 732.866 42.9627 732.866H61.0453C61.3757 732.866 61.5409 732.467 61.3073 732.233L57.7352 728.661Z" fill="white"/>
<path d="M10.5735 666.706H8.92673C8.86339 666.354 8.74552 666.044 8.5731 665.777C8.40068 665.509 8.18956 665.282 7.93974 665.096C7.68991 664.909 7.41017 664.769 7.10053 664.674C6.7944 664.579 6.46892 664.531 6.12409 664.531C5.50128 664.531 4.94357 664.688 4.45095 665.001C3.96185 665.314 3.57479 665.773 3.28978 666.379C3.00828 666.984 2.86753 667.723 2.86753 668.595C2.86753 669.475 3.00828 670.217 3.28978 670.823C3.57479 671.428 3.96361 671.885 4.45623 672.195C4.94884 672.505 5.50304 672.659 6.11881 672.659C6.46012 672.659 6.78384 672.614 7.08997 672.522C7.39961 672.427 7.67935 672.288 7.92918 672.105C8.17901 671.922 8.39013 671.699 8.56254 671.435C8.73848 671.167 8.85987 670.861 8.92673 670.516L10.5735 670.522C10.4855 671.053 10.3149 671.542 10.0615 671.989C9.81168 672.432 9.48972 672.816 9.09563 673.14C8.70505 673.46 8.25818 673.708 7.755 673.884C7.25183 674.06 6.70291 674.148 6.10825 674.148C5.17228 674.148 4.33835 673.926 3.60646 673.483C2.87457 673.036 2.29751 672.397 1.87526 671.567C1.45654 670.736 1.24718 669.746 1.24718 668.595C1.24718 667.441 1.4583 666.451 1.88054 665.624C2.30278 664.793 2.87985 664.156 3.61174 663.713C4.34363 663.266 5.1758 663.043 6.10825 663.043C6.6818 663.043 7.21664 663.125 7.71278 663.291C8.21243 663.453 8.66107 663.692 9.05868 664.009C9.45629 664.322 9.78529 664.705 10.0457 665.159C10.3061 665.61 10.482 666.125 10.5735 666.706ZM15.8133 674.164C15.0532 674.164 14.3899 673.989 13.8234 673.641C13.2569 673.293 12.8171 672.805 12.5039 672.179C12.1908 671.553 12.0342 670.821 12.0342 669.983C12.0342 669.142 12.1908 668.407 12.5039 667.777C12.8171 667.147 13.2569 666.658 13.8234 666.31C14.3899 665.962 15.0532 665.787 15.8133 665.787C16.5733 665.787 17.2366 665.962 17.8031 666.31C18.3696 666.658 18.8094 667.147 19.1226 667.777C19.4358 668.407 19.5923 669.142 19.5923 669.983C19.5923 670.821 19.4358 671.553 19.1226 672.179C18.8094 672.805 18.3696 673.293 17.8031 673.641C17.2366 673.989 16.5733 674.164 15.8133 674.164ZM15.8185 672.839C16.3112 672.839 16.7193 672.709 17.043 672.448C17.3668 672.188 17.606 671.841 17.7609 671.408C17.9192 670.976 17.9984 670.499 17.9984 669.978C17.9984 669.461 17.9192 668.986 17.7609 668.553C17.606 668.117 17.3668 667.767 17.043 667.503C16.7193 667.239 16.3112 667.107 15.8185 667.107C15.3224 667.107 14.9107 667.239 14.5835 667.503C14.2598 667.767 14.0187 668.117 13.8604 668.553C13.7056 668.986 13.6281 669.461 13.6281 669.978C13.6281 670.499 13.7056 670.976 13.8604 671.408C14.0187 671.841 14.2598 672.188 14.5835 672.448C14.9107 672.709 15.3224 672.839 15.8185 672.839ZM22.932 669.186V674H21.3539V665.893H22.8687V667.212H22.969C23.1555 666.783 23.4475 666.438 23.8451 666.178C24.2463 665.918 24.7512 665.787 25.3599 665.787C25.9124 665.787 26.3962 665.903 26.8114 666.136C27.2266 666.364 27.5485 666.706 27.7773 667.16C28.006 667.614 28.1203 668.175 28.1203 668.843V674H26.5422V669.033C26.5422 668.446 26.3891 667.987 26.083 667.656C25.7769 667.322 25.3564 667.154 24.8216 667.154C24.4556 667.154 24.1301 667.234 23.8451 667.392C23.5636 667.55 23.3402 667.782 23.1748 668.089C23.0129 668.391 22.932 668.757 22.932 669.186ZM36.3119 667.872L34.8815 668.126C34.8217 667.943 34.7267 667.768 34.5965 667.603C34.4698 667.438 34.2974 667.302 34.0792 667.197C33.8611 667.091 33.5884 667.038 33.2611 667.038C32.8143 667.038 32.4413 667.139 32.1422 667.339C31.8431 667.536 31.6936 667.791 31.6936 668.104C31.6936 668.375 31.7939 668.594 31.9944 668.759C32.195 668.924 32.5187 669.06 32.9656 669.165L34.2534 669.461C34.9994 669.633 35.5553 669.899 35.9213 670.258C36.2872 670.617 36.4702 671.083 36.4702 671.657C36.4702 672.142 36.3294 672.575 36.048 672.955C35.77 673.331 35.3812 673.627 34.8815 673.842C34.3854 674.056 33.8101 674.164 33.1556 674.164C32.2478 674.164 31.5071 673.97 30.9335 673.583C30.36 673.192 30.0081 672.638 29.8779 671.92L31.4033 671.688C31.4983 672.086 31.6936 672.387 31.9891 672.591C32.2847 672.791 32.67 672.892 33.145 672.892C33.6623 672.892 34.0757 672.784 34.3854 672.57C34.695 672.351 34.8498 672.086 34.8498 671.773C34.8498 671.519 34.7548 671.306 34.5648 671.134C34.3783 670.962 34.0916 670.831 33.7045 670.743L32.3322 670.443C31.5757 670.27 31.0162 669.996 30.6538 669.619C30.2949 669.243 30.1154 668.766 30.1154 668.189C30.1154 667.71 30.2491 667.292 30.5166 666.933C30.784 666.574 31.1534 666.294 31.625 666.093C32.0965 665.889 32.6366 665.787 33.2453 665.787C34.1215 665.787 34.8111 665.977 35.3143 666.357C35.8175 666.734 36.15 667.239 36.3119 667.872ZM41.6994 674.164C40.9007 674.164 40.2128 673.993 39.6357 673.652C39.0622 673.307 38.6188 672.823 38.3056 672.2C37.996 671.574 37.8412 670.84 37.8412 669.999C37.8412 669.169 37.996 668.437 38.3056 667.804C38.6188 667.17 39.0551 666.676 39.6146 666.32C40.1776 665.965 40.8356 665.787 41.5886 665.787C42.046 665.787 42.4894 665.863 42.9187 666.014C43.3479 666.166 43.7332 666.403 44.0745 666.727C44.4159 667.051 44.685 667.471 44.8821 667.988C45.0791 668.502 45.1777 669.127 45.1777 669.862V670.421H38.7332V669.239H43.6312C43.6312 668.824 43.5467 668.456 43.3778 668.136C43.2089 667.812 42.9714 667.557 42.6653 667.371C42.3627 667.184 42.0073 667.091 41.5991 667.091C41.1558 667.091 40.7687 667.2 40.438 667.418C40.1107 667.633 39.8574 667.914 39.6779 668.263C39.502 668.608 39.414 668.982 39.414 669.387V670.311C39.414 670.853 39.509 671.313 39.699 671.693C39.8926 672.074 40.1618 672.364 40.5066 672.564C40.8514 672.761 41.2543 672.86 41.7153 672.86C42.0143 672.86 42.287 672.818 42.5334 672.733C42.7797 672.645 42.9925 672.515 43.172 672.343C43.3514 672.17 43.4887 671.957 43.5837 671.704L45.0774 671.973C44.9577 672.413 44.7431 672.798 44.4334 673.129C44.1273 673.456 43.742 673.711 43.2776 673.894C42.8166 674.074 42.2906 674.164 41.6994 674.164ZM48.5068 669.186V674H46.9286V665.893H48.4434V667.212H48.5437C48.7302 666.783 49.0223 666.438 49.4199 666.178C49.821 665.918 50.3259 665.787 50.9347 665.787C51.4871 665.787 51.9709 665.903 52.3861 666.136C52.8013 666.364 53.1233 666.706 53.352 667.16C53.5807 667.614 53.6951 668.175 53.6951 668.843V674H52.117V669.033C52.117 668.446 51.9639 667.987 51.6578 667.656C51.3516 667.322 50.9312 667.154 50.3963 667.154C50.0304 667.154 49.7049 667.234 49.4199 667.392C49.1384 667.55 48.9149 667.782 48.7496 668.089C48.5877 668.391 48.5068 668.757 48.5068 669.186ZM61.8866 667.872L60.4563 668.126C60.3964 667.943 60.3014 667.768 60.1713 667.603C60.0446 667.438 59.8722 667.302 59.654 667.197C59.4358 667.091 59.1631 667.038 58.8359 667.038C58.389 667.038 58.0161 667.139 57.717 667.339C57.4179 667.536 57.2683 667.791 57.2683 668.104C57.2683 668.375 57.3686 668.594 57.5692 668.759C57.7697 668.924 58.0935 669.06 58.5403 669.165L59.8282 669.461C60.5741 669.633 61.1301 669.899 61.496 670.258C61.862 670.617 62.045 671.083 62.045 671.657C62.045 672.142 61.9042 672.575 61.6227 672.955C61.3447 673.331 60.9559 673.627 60.4563 673.842C59.9601 674.056 59.3848 674.164 58.7303 674.164C57.8225 674.164 57.0818 673.97 56.5083 673.583C55.9347 673.192 55.5829 672.638 55.4527 671.92L56.978 671.688C57.073 672.086 57.2683 672.387 57.5639 672.591C57.8595 672.791 58.2448 672.892 58.7198 672.892C59.237 672.892 59.6505 672.784 59.9601 672.57C60.2698 672.351 60.4246 672.086 60.4246 671.773C60.4246 671.519 60.3296 671.306 60.1396 671.134C59.9531 670.962 59.6663 670.831 59.2793 670.743L57.907 670.443C57.1505 670.27 56.591 669.996 56.2286 669.619C55.8696 669.243 55.6902 668.766 55.6902 668.189C55.6902 667.71 55.8239 667.292 56.0913 666.933C56.3587 666.574 56.7282 666.294 57.1997 666.093C57.6712 665.889 58.2113 665.787 58.8201 665.787C59.6962 665.787 60.3859 665.977 60.8891 666.357C61.3922 666.734 61.7248 667.239 61.8866 667.872ZM68.9157 670.638V665.893H70.4991V674H68.9473V672.596H68.8629C68.6764 673.029 68.3773 673.39 67.9656 673.678C67.5574 673.963 67.049 674.106 66.4402 674.106C65.9195 674.106 65.4585 673.991 65.0574 673.762C64.6598 673.53 64.3466 673.187 64.1179 672.733C63.8927 672.279 63.7801 671.718 63.7801 671.05V665.893H65.3582V670.86C65.3582 671.412 65.5113 671.852 65.8174 672.179C66.1236 672.506 66.5212 672.67 67.0103 672.67C67.3058 672.67 67.5997 672.596 67.8917 672.448C68.1873 672.3 68.4318 672.077 68.6254 671.778C68.8224 671.479 68.9192 671.099 68.9157 670.638ZM78.6945 667.872L77.2642 668.126C77.2044 667.943 77.1094 667.768 76.9792 667.603C76.8525 667.438 76.6801 667.302 76.4619 667.197C76.2438 667.091 75.9711 667.038 75.6438 667.038C75.197 667.038 74.824 667.139 74.5249 667.339C74.2258 667.536 74.0763 667.791 74.0763 668.104C74.0763 668.375 74.1765 668.594 74.3771 668.759C74.5777 668.924 74.9014 669.06 75.3483 669.165L76.6361 669.461C77.3821 669.633 77.938 669.899 78.304 670.258C78.6699 670.617 78.8529 671.083 78.8529 671.657C78.8529 672.142 78.7121 672.575 78.4306 672.955C78.1527 673.331 77.7639 673.627 77.2642 673.842C76.7681 674.056 76.1928 674.164 75.5383 674.164C74.6305 674.164 73.8898 673.97 73.3162 673.583C72.7427 673.192 72.3908 672.638 72.2606 671.92L73.786 671.688C73.881 672.086 74.0763 672.387 74.3718 672.591C74.6674 672.791 75.0527 672.892 75.5277 672.892C76.045 672.892 76.4584 672.784 76.7681 672.57C77.0777 672.351 77.2325 672.086 77.2325 671.773C77.2325 671.519 77.1375 671.306 76.9475 671.134C76.761 670.962 76.4742 670.831 76.0872 670.743L74.7149 670.443C73.9584 670.27 73.3989 669.996 73.0365 669.619C72.6776 669.243 72.4981 668.766 72.4981 668.189C72.4981 667.71 72.6318 667.292 72.8993 666.933C73.1667 666.574 73.5361 666.294 74.0076 666.093C74.4791 665.889 75.0193 665.787 75.628 665.787C76.5042 665.787 77.1938 665.977 77.697 666.357C78.2002 666.734 78.5327 667.239 78.6945 667.872ZM84.6482 674V663.191H86.2791V672.596H91.1771V674H84.6482ZM95.2702 674.179C94.7565 674.179 94.292 674.084 93.8768 673.894C93.4616 673.701 93.1326 673.421 92.8898 673.055C92.6506 672.689 92.5309 672.241 92.5309 671.709C92.5309 671.252 92.6189 670.875 92.7948 670.58C92.9708 670.284 93.2083 670.05 93.5074 669.878C93.8065 669.705 94.1407 669.575 94.5102 669.487C94.8797 669.399 95.2562 669.332 95.6397 669.287C96.1253 669.23 96.5194 669.185 96.822 669.149C97.1246 669.111 97.3445 669.049 97.4817 668.965C97.619 668.88 97.6876 668.743 97.6876 668.553V668.516C97.6876 668.055 97.5574 667.698 97.297 667.445C97.0401 667.191 96.6566 667.065 96.1464 667.065C95.6151 667.065 95.1963 667.183 94.8902 667.418C94.5876 667.651 94.3783 667.909 94.2621 668.194L92.779 667.856C92.9549 667.364 93.2118 666.966 93.5496 666.664C93.8909 666.357 94.2832 666.136 94.7266 665.998C95.17 665.858 95.6362 665.787 96.1253 665.787C96.449 665.787 96.7921 665.826 97.1545 665.903C97.5204 665.977 97.8618 666.115 98.1784 666.315C98.4986 666.516 98.7608 666.803 98.9649 667.175C99.169 667.545 99.271 668.025 99.271 668.616V674H97.7298V672.892H97.6665C97.5644 673.096 97.4114 673.296 97.2073 673.493C97.0032 673.69 96.7411 673.854 96.4209 673.984C96.1007 674.114 95.7171 674.179 95.2702 674.179ZM95.6133 672.913C96.0496 672.913 96.4226 672.827 96.7323 672.654C97.0454 672.482 97.2829 672.256 97.4448 671.979C97.6102 671.697 97.6929 671.396 97.6929 671.076V670.031C97.6366 670.087 97.5275 670.14 97.3656 670.189C97.2073 670.235 97.0261 670.275 96.822 670.311C96.6179 670.342 96.4191 670.372 96.2256 670.4C96.032 670.425 95.8702 670.446 95.74 670.464C95.4339 670.502 95.1541 670.568 94.9008 670.659C94.6509 670.75 94.4504 670.882 94.2991 671.055C94.1513 671.224 94.0774 671.449 94.0774 671.73C94.0774 672.121 94.2217 672.417 94.5102 672.617C94.7987 672.814 95.1664 672.913 95.6133 672.913ZM102.08 677.04C101.844 677.04 101.63 677.021 101.436 676.982C101.243 676.947 101.099 676.908 101.004 676.866L101.384 675.573C101.672 675.65 101.929 675.684 102.154 675.673C102.379 675.663 102.578 675.578 102.751 675.42C102.926 675.261 103.081 675.003 103.215 674.644L103.41 674.106L100.444 665.893H102.133L104.186 672.184H104.271L106.324 665.893H108.018L104.677 675.082C104.522 675.504 104.325 675.861 104.086 676.153C103.847 676.449 103.562 676.671 103.231 676.818C102.9 676.966 102.517 677.04 102.08 677.04ZM112.719 674.164C111.921 674.164 111.233 673.993 110.656 673.652C110.082 673.307 109.639 672.823 109.326 672.2C109.016 671.574 108.861 670.84 108.861 669.999C108.861 669.169 109.016 668.437 109.326 667.804C109.639 667.17 110.075 666.676 110.635 666.32C111.198 665.965 111.856 665.787 112.609 665.787C113.066 665.787 113.509 665.863 113.939 666.014C114.368 666.166 114.753 666.403 115.095 666.727C115.436 667.051 115.705 667.471 115.902 667.988C116.099 668.502 116.198 669.127 116.198 669.862V670.421H109.753V669.239H114.651C114.651 668.824 114.567 668.456 114.398 668.136C114.229 667.812 113.991 667.557 113.685 667.371C113.383 667.184 113.027 667.091 112.619 667.091C112.176 667.091 111.789 667.2 111.458 667.418C111.131 667.633 110.877 667.914 110.698 668.263C110.522 668.608 110.434 668.982 110.434 669.387V670.311C110.434 670.853 110.529 671.313 110.719 671.693C110.913 672.074 111.182 672.364 111.527 672.564C111.871 672.761 112.274 672.86 112.735 672.86C113.034 672.86 113.307 672.818 113.553 672.733C113.8 672.645 114.013 672.515 114.192 672.343C114.371 672.17 114.509 671.957 114.604 671.704L116.097 671.973C115.978 672.413 115.763 672.798 115.453 673.129C115.147 673.456 114.762 673.711 114.298 673.894C113.837 674.074 113.311 674.164 112.719 674.164ZM117.949 674V665.893H119.474V667.181H119.558C119.706 666.744 119.967 666.401 120.34 666.152C120.716 665.898 121.142 665.772 121.617 665.772C121.715 665.772 121.832 665.775 121.965 665.782C122.102 665.789 122.21 665.798 122.287 665.808V667.318C122.224 667.3 122.111 667.281 121.949 667.26C121.788 667.235 121.626 667.223 121.464 667.223C121.091 667.223 120.758 667.302 120.466 667.461C120.178 667.615 119.949 667.832 119.78 668.11C119.611 668.384 119.527 668.697 119.527 669.049V674H117.949Z" fill="white"/>
<defs>
<filter id="filter0_b_141_2299" x="33.8252" y="-11.5649" width="263.85" height="214.21" filterUnits="userSpaceOnUse" color-interpolation-filters="sRGB">
<feFlood flood-opacity="0" result="BackgroundImageFix"/>
<feGaussianBlur in="BackgroundImageFix" stdDeviation="16.3225"/>
<feComposite in2="SourceAlpha" operator="in" result="effect1_backgroundBlur_141_2299"/>
<feBlend mode="normal" in="SourceGraphic" in2="effect1_backgroundBlur_141_2299" result="shape"/>
</filter>
</defs>
</svg>
