<svg width="1300" height="472" viewBox="0 0 1300 472" fill="none" xmlns="http://www.w3.org/2000/svg">
<path d="M607.786 141.979V245.69" stroke="#BEBEBE" stroke-opacity="0.26" stroke-width="0.958187"/>
<path d="M518.768 274.941L517.379 273.677C512.444 269.202 509.187 266.251 509.187 262.629C509.187 259.677 511.505 257.359 514.457 257.359C516.124 257.359 517.724 258.135 518.768 259.361C519.813 258.135 521.413 257.359 523.08 257.359C526.031 257.359 528.35 259.677 528.35 262.629C528.35 266.251 525.092 269.202 520.158 273.686L518.768 274.941Z" fill="white"/>
<path d="M546.014 272.65V258.713H548.539V270.534H554.677V272.65H546.014ZM556.76 272.65V262.197H559.223V272.65H556.76ZM557.998 260.714C557.608 260.714 557.272 260.584 556.991 260.326C556.71 260.063 556.569 259.747 556.569 259.38C556.569 259.008 556.71 258.692 556.991 258.434C557.272 258.171 557.608 258.039 557.998 258.039C558.393 258.039 558.729 258.171 559.005 258.434C559.287 258.692 559.427 259.008 559.427 259.38C559.427 259.747 559.287 260.063 559.005 260.326C558.729 260.584 558.393 260.714 557.998 260.714ZM564.002 269.37L563.995 266.396H564.39L568.147 262.197H571.025L566.404 267.342H565.894L564.002 269.37ZM561.756 272.65V258.713H564.22V272.65H561.756ZM568.317 272.65L564.914 267.893L566.575 266.158L571.263 272.65H568.317ZM576.864 272.854C575.816 272.854 574.911 272.637 574.149 272.201C573.391 271.761 572.808 271.139 572.4 270.336C571.992 269.529 571.787 268.578 571.787 267.485C571.787 266.41 571.992 265.466 572.4 264.654C572.813 263.837 573.389 263.202 574.128 262.748C574.868 262.29 575.737 262.061 576.735 262.061C577.379 262.061 577.987 262.165 578.559 262.374C579.135 262.578 579.643 262.896 580.083 263.327C580.528 263.758 580.877 264.307 581.131 264.974C581.385 265.636 581.512 266.426 581.512 267.342V268.097H572.944V266.437H579.151C579.146 265.965 579.044 265.545 578.845 265.178C578.645 264.806 578.366 264.513 578.008 264.3C577.654 264.087 577.241 263.98 576.769 263.98C576.265 263.98 575.823 264.103 575.442 264.348C575.061 264.588 574.764 264.906 574.55 265.3C574.342 265.691 574.235 266.119 574.231 266.587V268.036C574.231 268.644 574.342 269.166 574.564 269.601C574.786 270.032 575.097 270.364 575.496 270.595C575.896 270.822 576.363 270.935 576.898 270.935C577.257 270.935 577.581 270.885 577.871 270.785C578.162 270.681 578.414 270.529 578.627 270.33C578.84 270.13 579.001 269.883 579.11 269.588L581.41 269.846C581.265 270.454 580.988 270.985 580.58 271.439C580.176 271.888 579.659 272.237 579.028 272.487C578.398 272.732 577.676 272.854 576.864 272.854ZM591.858 264.96L589.612 265.205C589.549 264.978 589.438 264.765 589.279 264.565C589.125 264.366 588.916 264.205 588.653 264.082C588.39 263.96 588.067 263.899 587.686 263.899C587.174 263.899 586.743 264.01 586.393 264.232C586.049 264.454 585.878 264.742 585.883 265.096C585.878 265.4 585.99 265.647 586.216 265.838C586.448 266.029 586.829 266.185 587.36 266.308L589.143 266.689C590.132 266.902 590.867 267.24 591.348 267.703C591.833 268.165 592.078 268.771 592.083 269.52C592.078 270.178 591.885 270.758 591.504 271.262C591.128 271.761 590.604 272.151 589.932 272.432C589.261 272.714 588.489 272.854 587.618 272.854C586.339 272.854 585.309 272.587 584.529 272.051C583.748 271.511 583.283 270.761 583.134 269.799L585.536 269.567C585.645 270.039 585.876 270.395 586.23 270.636C586.584 270.876 587.044 270.996 587.612 270.996C588.197 270.996 588.666 270.876 589.02 270.636C589.379 270.395 589.558 270.098 589.558 269.744C589.558 269.445 589.442 269.198 589.211 269.003C588.984 268.807 588.63 268.658 588.149 268.553L586.366 268.179C585.363 267.97 584.622 267.619 584.141 267.124C583.66 266.625 583.422 265.995 583.426 265.232C583.422 264.588 583.596 264.03 583.95 263.558C584.309 263.082 584.805 262.714 585.441 262.456C586.08 262.193 586.818 262.061 587.652 262.061C588.877 262.061 589.841 262.322 590.545 262.844C591.252 263.365 591.69 264.071 591.858 264.96Z" fill="white"/>
<rect x="496.251" y="244.505" width="122.78" height="43.2892" rx="7.1864" stroke="#F1F5F9" stroke-width="0.958187"/>
<path fill-rule="evenodd" clip-rule="evenodd" d="M518.769 322.819C516.651 322.819 514.936 324.534 514.936 326.652C514.936 328.769 516.651 330.485 518.769 330.485C520.886 330.485 522.601 328.769 522.601 326.652C522.601 324.534 520.886 322.819 518.769 322.819ZM520.781 326.652C520.781 325.54 519.88 324.64 518.768 324.64C517.657 324.64 516.756 325.54 516.756 326.652C516.756 327.763 517.657 328.664 518.768 328.664C519.88 328.664 520.781 327.763 520.781 326.652ZM524.613 335.275C524.613 334.662 521.614 333.263 518.768 333.263C515.923 333.263 512.923 334.662 512.923 335.275V336.329H524.613V335.275ZM511.103 335.276C511.103 332.727 516.21 331.443 518.769 331.443C521.327 331.443 526.434 332.727 526.434 335.276V338.15H511.103V335.276Z" fill="#E2E8EF"/>
<path d="M546.014 336.985V323.047H554.943V325.164H548.539V328.948H554.33V331.064H548.539V336.985H546.014ZM560.926 337.189C559.905 337.189 559.021 336.964 558.272 336.515C557.524 336.066 556.943 335.438 556.53 334.63C556.122 333.822 555.917 332.879 555.917 331.799C555.917 330.719 556.122 329.773 556.53 328.961C556.943 328.149 557.524 327.518 558.272 327.069C559.021 326.62 559.905 326.396 560.926 326.396C561.947 326.396 562.832 326.62 563.58 327.069C564.329 327.518 564.907 328.149 565.316 328.961C565.728 329.773 565.935 330.719 565.935 331.799C565.935 332.879 565.728 333.822 565.316 334.63C564.907 335.438 564.329 336.066 563.58 336.515C562.832 336.964 561.947 337.189 560.926 337.189ZM560.94 335.215C561.493 335.215 561.956 335.063 562.328 334.759C562.7 334.451 562.977 334.038 563.158 333.521C563.344 333.004 563.437 332.427 563.437 331.792C563.437 331.152 563.344 330.574 563.158 330.057C562.977 329.535 562.7 329.12 562.328 328.811C561.956 328.503 561.493 328.349 560.94 328.349C560.373 328.349 559.901 328.503 559.524 328.811C559.152 329.12 558.873 329.535 558.687 330.057C558.506 330.574 558.415 331.152 558.415 331.792C558.415 332.427 558.506 333.004 558.687 333.521C558.873 334.038 559.152 334.451 559.524 334.759C559.901 335.063 560.373 335.215 560.94 335.215ZM570.489 323.047V336.985H568.026V323.047H570.489ZM575.486 323.047V336.985H573.023V323.047H575.486ZM582.579 337.189C581.558 337.189 580.673 336.964 579.925 336.515C579.176 336.066 578.596 335.438 578.183 334.63C577.774 333.822 577.57 332.879 577.57 331.799C577.57 330.719 577.774 329.773 578.183 328.961C578.596 328.149 579.176 327.518 579.925 327.069C580.673 326.62 581.558 326.396 582.579 326.396C583.6 326.396 584.484 326.62 585.233 327.069C585.982 327.518 586.56 328.149 586.968 328.961C587.381 329.773 587.588 330.719 587.588 331.799C587.588 332.879 587.381 333.822 586.968 334.63C586.56 335.438 585.982 336.066 585.233 336.515C584.484 336.964 583.6 337.189 582.579 337.189ZM582.593 335.215C583.146 335.215 583.609 335.063 583.981 334.759C584.353 334.451 584.63 334.038 584.811 333.521C584.997 333.004 585.09 332.427 585.09 331.792C585.09 331.152 584.997 330.574 584.811 330.057C584.63 329.535 584.353 329.12 583.981 328.811C583.609 328.503 583.146 328.349 582.593 328.349C582.025 328.349 581.554 328.503 581.177 328.811C580.805 329.12 580.526 329.535 580.34 330.057C580.159 330.574 580.068 331.152 580.068 331.792C580.068 332.427 580.159 333.004 580.34 333.521C580.526 334.038 580.805 334.451 581.177 334.759C581.554 335.063 582.025 335.215 582.593 335.215ZM591.536 336.985L588.583 326.532H591.094L592.932 333.881H593.027L594.905 326.532H597.389L599.267 333.841H599.369L601.18 326.532H603.698L600.737 336.985H598.172L596.212 329.921H596.069L594.109 336.985H591.536ZM609.746 337.189C608.698 337.189 607.793 336.971 607.03 336.535C606.273 336.095 605.69 335.474 605.281 334.671C604.873 333.863 604.669 332.913 604.669 331.819C604.669 330.744 604.873 329.8 605.281 328.988C605.694 328.172 606.271 327.537 607.01 327.083C607.75 326.625 608.618 326.396 609.616 326.396C610.261 326.396 610.869 326.5 611.44 326.709C612.016 326.913 612.525 327.23 612.965 327.661C613.409 328.092 613.759 328.641 614.013 329.308C614.267 329.971 614.394 330.76 614.394 331.676V332.432H605.826V330.771H612.032C612.028 330.3 611.926 329.88 611.726 329.512C611.526 329.14 611.247 328.848 610.889 328.635C610.535 328.421 610.122 328.315 609.65 328.315C609.147 328.315 608.705 328.437 608.323 328.682C607.942 328.923 607.645 329.24 607.432 329.635C607.223 330.025 607.117 330.454 607.112 330.921V332.371C607.112 332.979 607.223 333.5 607.446 333.936C607.668 334.367 607.979 334.698 608.378 334.929C608.777 335.156 609.244 335.27 609.78 335.27C610.138 335.27 610.463 335.22 610.753 335.12C611.043 335.016 611.295 334.864 611.508 334.664C611.722 334.464 611.883 334.217 611.992 333.922L614.292 334.181C614.147 334.789 613.87 335.32 613.461 335.773C613.058 336.222 612.54 336.572 611.91 336.821C611.279 337.066 610.558 337.189 609.746 337.189ZM616.478 336.985V326.532H618.867V328.274H618.975C619.166 327.67 619.493 327.205 619.955 326.879C620.423 326.548 620.956 326.382 621.555 326.382C621.691 326.382 621.843 326.389 622.011 326.402C622.183 326.411 622.326 326.427 622.439 326.45V328.716C622.335 328.68 622.169 328.648 621.943 328.621C621.72 328.589 621.505 328.573 621.296 328.573C620.847 328.573 620.443 328.671 620.085 328.866C619.731 329.056 619.452 329.322 619.248 329.662C619.043 330.002 618.941 330.395 618.941 330.839V336.985H616.478ZM632.338 329.295L630.092 329.54C630.028 329.313 629.917 329.1 629.758 328.9C629.604 328.7 629.396 328.539 629.132 328.417C628.869 328.294 628.547 328.233 628.166 328.233C627.653 328.233 627.222 328.344 626.873 328.566C626.528 328.789 626.358 329.077 626.363 329.431C626.358 329.735 626.469 329.982 626.696 330.173C626.927 330.363 627.309 330.52 627.839 330.642L629.622 331.023C630.611 331.236 631.346 331.574 631.827 332.037C632.313 332.5 632.558 333.106 632.562 333.854C632.558 334.512 632.365 335.093 631.984 335.596C631.607 336.095 631.083 336.486 630.412 336.767C629.74 337.048 628.969 337.189 628.098 337.189C626.819 337.189 625.789 336.921 625.008 336.386C624.228 335.846 623.763 335.095 623.613 334.133L626.016 333.902C626.124 334.374 626.356 334.73 626.71 334.97C627.064 335.211 627.524 335.331 628.091 335.331C628.676 335.331 629.146 335.211 629.5 334.97C629.858 334.73 630.037 334.433 630.037 334.079C630.037 333.779 629.922 333.532 629.69 333.337C629.464 333.142 629.11 332.992 628.629 332.888L626.846 332.514C625.843 332.305 625.101 331.953 624.62 331.459C624.14 330.96 623.901 330.329 623.906 329.567C623.901 328.923 624.076 328.365 624.43 327.893C624.788 327.416 625.285 327.049 625.92 326.79C626.56 326.527 627.297 326.396 628.132 326.396C629.357 326.396 630.321 326.656 631.024 327.178C631.732 327.7 632.17 328.405 632.338 329.295Z" fill="white"/>
<rect x="496.251" y="308.84" width="162.78" height="43.2892" rx="7.1864" stroke="#F1F5F9" stroke-width="0.958187"/>
<path fill-rule="evenodd" clip-rule="evenodd" d="M727.981 320.903H743.312C744.366 320.903 745.228 321.765 745.228 322.819V340.066L741.395 336.234H727.981C726.927 336.234 726.064 335.371 726.064 334.317V322.819C726.064 321.765 726.927 320.903 727.981 320.903ZM742.191 334.317L743.312 335.438V322.819H727.981V334.317H742.191Z" fill="#F7FAFC"/>
<path d="M774.821 327.75H772.276C772.204 327.332 772.07 326.963 771.875 326.641C771.68 326.314 771.437 326.037 771.147 325.81C770.856 325.583 770.525 325.413 770.153 325.3C769.786 325.182 769.389 325.123 768.962 325.123C768.204 325.123 767.533 325.314 766.948 325.695C766.362 326.071 765.904 326.625 765.573 327.355C765.242 328.081 765.076 328.968 765.076 330.016C765.076 331.082 765.242 331.98 765.573 332.711C765.909 333.437 766.367 333.986 766.948 334.358C767.533 334.725 768.202 334.909 768.955 334.909C769.373 334.909 769.763 334.855 770.126 334.746C770.493 334.632 770.822 334.467 771.113 334.249C771.407 334.031 771.655 333.763 771.854 333.446C772.059 333.128 772.199 332.765 772.276 332.357L774.821 332.371C774.726 333.033 774.52 333.655 774.202 334.235C773.889 334.816 773.479 335.329 772.97 335.773C772.462 336.213 771.868 336.558 771.187 336.808C770.507 337.053 769.752 337.175 768.921 337.175C767.696 337.175 766.603 336.892 765.641 336.325C764.679 335.757 763.922 334.938 763.368 333.868C762.815 332.797 762.538 331.513 762.538 330.016C762.538 328.514 762.817 327.23 763.375 326.164C763.933 325.093 764.693 324.275 765.655 323.707C766.617 323.14 767.705 322.857 768.921 322.857C769.697 322.857 770.418 322.966 771.085 323.183C771.752 323.401 772.347 323.721 772.868 324.143C773.39 324.56 773.819 325.073 774.155 325.681C774.495 326.284 774.717 326.974 774.821 327.75ZM781.584 337.189C780.563 337.189 779.679 336.964 778.93 336.515C778.182 336.066 777.601 335.438 777.188 334.63C776.78 333.822 776.576 332.879 776.576 331.799C776.576 330.719 776.78 329.773 777.188 328.961C777.601 328.149 778.182 327.518 778.93 327.069C779.679 326.62 780.563 326.396 781.584 326.396C782.605 326.396 783.49 326.62 784.238 327.069C784.987 327.518 785.565 328.149 785.974 328.961C786.387 329.773 786.593 330.719 786.593 331.799C786.593 332.879 786.387 333.822 785.974 334.63C785.565 335.438 784.987 336.066 784.238 336.515C783.49 336.964 782.605 337.189 781.584 337.189ZM781.598 335.215C782.151 335.215 782.614 335.063 782.986 334.759C783.358 334.451 783.635 334.038 783.816 333.521C784.002 333.004 784.095 332.427 784.095 331.792C784.095 331.152 784.002 330.574 783.816 330.057C783.635 329.535 783.358 329.12 782.986 328.811C782.614 328.503 782.151 328.349 781.598 328.349C781.031 328.349 780.559 328.503 780.182 328.811C779.81 329.12 779.531 329.535 779.345 330.057C779.164 330.574 779.073 331.152 779.073 331.792C779.073 332.427 779.164 333.004 779.345 333.521C779.531 334.038 779.81 334.451 780.182 334.759C780.559 335.063 781.031 335.215 781.598 335.215ZM788.684 336.985V326.532H791.039V328.308H791.161C791.379 327.709 791.739 327.242 792.243 326.906C792.747 326.566 793.348 326.396 794.046 326.396C794.754 326.396 795.351 326.568 795.836 326.913C796.326 327.253 796.671 327.718 796.871 328.308H796.98C797.211 327.727 797.601 327.264 798.15 326.92C798.704 326.57 799.359 326.396 800.117 326.396C801.079 326.396 801.863 326.7 802.471 327.307C803.079 327.915 803.383 328.802 803.383 329.968V336.985H800.913V330.349C800.913 329.701 800.741 329.227 800.396 328.927C800.051 328.623 799.629 328.471 799.13 328.471C798.536 328.471 798.071 328.657 797.735 329.029C797.404 329.397 797.238 329.875 797.238 330.465V336.985H794.822V330.247C794.822 329.707 794.659 329.276 794.332 328.954C794.01 328.632 793.588 328.471 793.066 328.471C792.713 328.471 792.39 328.562 792.1 328.743C791.81 328.92 791.578 329.172 791.406 329.499C791.234 329.821 791.147 330.197 791.147 330.628V336.985H788.684ZM805.883 336.985V326.532H808.237V328.308H808.36C808.577 327.709 808.938 327.242 809.442 326.906C809.945 326.566 810.546 326.396 811.245 326.396C811.953 326.396 812.55 326.568 813.035 326.913C813.525 327.253 813.87 327.718 814.069 328.308H814.178C814.41 327.727 814.8 327.264 815.349 326.92C815.902 326.57 816.558 326.396 817.315 326.396C818.277 326.396 819.062 326.7 819.67 327.307C820.278 327.915 820.582 328.802 820.582 329.968V336.985H818.112V330.349C818.112 329.701 817.939 329.227 817.595 328.927C817.25 328.623 816.828 328.471 816.329 328.471C815.734 328.471 815.269 328.657 814.934 329.029C814.602 329.397 814.437 329.875 814.437 330.465V336.985H812.021V330.247C812.021 329.707 811.858 329.276 811.531 328.954C811.209 328.632 810.787 328.471 810.265 328.471C809.911 328.471 809.589 328.562 809.299 328.743C809.008 328.92 808.777 329.172 808.605 329.499C808.432 329.821 808.346 330.197 808.346 330.628V336.985H805.883ZM827.709 337.189C826.661 337.189 825.756 336.971 824.994 336.535C824.236 336.095 823.653 335.474 823.245 334.671C822.836 333.863 822.632 332.913 822.632 331.819C822.632 330.744 822.836 329.8 823.245 328.988C823.657 328.172 824.234 327.537 824.973 327.083C825.713 326.625 826.581 326.396 827.58 326.396C828.224 326.396 828.832 326.5 829.403 326.709C829.98 326.913 830.488 327.23 830.928 327.661C831.372 328.092 831.722 328.641 831.976 329.308C832.23 329.971 832.357 330.76 832.357 331.676V332.432H823.789V330.771H829.995C829.991 330.3 829.889 329.88 829.689 329.512C829.49 329.14 829.211 328.848 828.852 328.635C828.498 328.421 828.085 328.315 827.614 328.315C827.11 328.315 826.668 328.437 826.287 328.682C825.905 328.923 825.608 329.24 825.395 329.635C825.186 330.025 825.08 330.454 825.075 330.921V332.371C825.075 332.979 825.186 333.5 825.409 333.936C825.631 334.367 825.942 334.698 826.341 334.929C826.74 335.156 827.208 335.27 827.743 335.27C828.101 335.27 828.426 335.22 828.716 335.12C829.006 335.016 829.258 334.864 829.471 334.664C829.685 334.464 829.846 334.217 829.955 333.922L832.255 334.181C832.11 334.789 831.833 335.32 831.425 335.773C831.021 336.222 830.504 336.572 829.873 336.821C829.242 337.066 828.521 337.189 827.709 337.189ZM836.905 330.86V336.985H834.441V326.532H836.796V328.308H836.918C837.159 327.723 837.542 327.258 838.068 326.913C838.599 326.568 839.255 326.396 840.035 326.396C840.756 326.396 841.385 326.55 841.92 326.858C842.46 327.167 842.877 327.614 843.172 328.199C843.472 328.784 843.619 329.494 843.615 330.329V336.985H841.151V330.71C841.151 330.011 840.97 329.465 840.607 329.07C840.248 328.675 839.751 328.478 839.116 328.478C838.685 328.478 838.302 328.573 837.966 328.764C837.635 328.95 837.374 329.22 837.184 329.574C836.998 329.928 836.905 330.356 836.905 330.86ZM851.339 326.532V328.437H845.33V326.532H851.339ZM846.813 324.027H849.277V333.841C849.277 334.172 849.327 334.426 849.426 334.603C849.531 334.775 849.667 334.893 849.835 334.957C850.002 335.02 850.189 335.052 850.393 335.052C850.547 335.052 850.688 335.041 850.815 335.018C850.946 334.995 851.046 334.975 851.114 334.957L851.529 336.883C851.398 336.928 851.209 336.978 850.964 337.032C850.724 337.087 850.429 337.118 850.08 337.128C849.463 337.146 848.907 337.053 848.412 336.849C847.918 336.64 847.525 336.318 847.235 335.882C846.949 335.447 846.809 334.902 846.813 334.249V324.027ZM861.511 329.295L859.265 329.54C859.202 329.313 859.09 329.1 858.932 328.9C858.777 328.7 858.569 328.539 858.306 328.417C858.042 328.294 857.72 328.233 857.339 328.233C856.827 328.233 856.396 328.344 856.046 328.566C855.701 328.789 855.531 329.077 855.536 329.431C855.531 329.735 855.642 329.982 855.869 330.173C856.101 330.363 856.482 330.52 857.013 330.642L858.796 331.023C859.785 331.236 860.52 331.574 861 332.037C861.486 332.5 861.731 333.106 861.735 333.854C861.731 334.512 861.538 335.093 861.157 335.596C860.78 336.095 860.256 336.486 859.585 336.767C858.913 337.048 858.142 337.189 857.271 337.189C855.992 337.189 854.962 336.921 854.182 336.386C853.401 335.846 852.936 335.095 852.786 334.133L855.189 333.902C855.298 334.374 855.529 334.73 855.883 334.97C856.237 335.211 856.697 335.331 857.264 335.331C857.85 335.331 858.319 335.211 858.673 334.97C859.031 334.73 859.211 334.433 859.211 334.079C859.211 333.779 859.095 333.532 858.864 333.337C858.637 333.142 858.283 332.992 857.802 332.888L856.019 332.514C855.016 332.305 854.275 331.953 853.794 331.459C853.313 330.96 853.075 330.329 853.079 329.567C853.075 328.923 853.249 328.365 853.603 327.893C853.961 327.416 854.458 327.049 855.093 326.79C855.733 326.527 856.47 326.396 857.305 326.396C858.53 326.396 859.494 326.656 860.197 327.178C860.905 327.7 861.343 328.405 861.511 329.295Z" fill="white"/>
<rect x="713.129" y="308.84" width="174.78" height="43.2892" rx="7.1864" stroke="#F1F5F9" stroke-width="0.958187"/>
<path fill-rule="evenodd" clip-rule="evenodd" d="M515.894 394.819C517.743 394.819 519.247 393.314 519.247 391.465C519.247 389.616 517.743 388.111 515.894 388.111C514.045 388.111 512.54 389.616 512.54 391.465C512.54 393.314 514.045 394.819 515.894 394.819ZM509.187 399.849C509.187 397.617 513.652 396.495 515.894 396.495C518.136 396.495 522.601 397.617 522.601 399.849V401.526H509.187V399.849ZM515.894 398.412C514.179 398.412 512.234 399.054 511.429 399.61H520.359C519.554 399.054 517.609 398.412 515.894 398.412ZM517.331 391.465C517.331 390.67 516.689 390.028 515.894 390.028C515.099 390.028 514.457 390.67 514.457 391.465C514.457 392.26 515.099 392.902 515.894 392.902C516.689 392.902 517.331 392.26 517.331 391.465ZM522.64 396.553C523.751 397.358 524.518 398.431 524.518 399.849V401.526H528.35V399.849C528.35 397.914 524.997 396.812 522.64 396.553ZM524.997 391.465C524.997 393.314 523.492 394.819 521.643 394.819C521.126 394.819 520.646 394.694 520.206 394.483C520.809 393.63 521.164 392.586 521.164 391.465C521.164 390.344 520.809 389.299 520.206 388.447C520.646 388.236 521.126 388.111 521.643 388.111C523.492 388.111 524.997 389.616 524.997 391.465Z" fill="#F7FAFC"/>
<path d="M546.014 401.319V387.381H554.943V389.498H548.539V393.282H554.33V395.398H548.539V401.319H546.014ZM560.926 401.523C559.905 401.523 559.021 401.298 558.272 400.849C557.524 400.4 556.943 399.772 556.53 398.964C556.122 398.156 555.917 397.213 555.917 396.133C555.917 395.053 556.122 394.107 556.53 393.295C556.943 392.483 557.524 391.852 558.272 391.403C559.021 390.954 559.905 390.73 560.926 390.73C561.947 390.73 562.832 390.954 563.58 391.403C564.329 391.852 564.907 392.483 565.316 393.295C565.728 394.107 565.935 395.053 565.935 396.133C565.935 397.213 565.728 398.156 565.316 398.964C564.907 399.772 564.329 400.4 563.58 400.849C562.832 401.298 561.947 401.523 560.926 401.523ZM560.94 399.549C561.493 399.549 561.956 399.397 562.328 399.093C562.7 398.785 562.977 398.372 563.158 397.855C563.344 397.338 563.437 396.761 563.437 396.126C563.437 395.486 563.344 394.908 563.158 394.391C562.977 393.869 562.7 393.454 562.328 393.145C561.956 392.837 561.493 392.683 560.94 392.683C560.373 392.683 559.901 392.837 559.524 393.145C559.152 393.454 558.873 393.869 558.687 394.391C558.506 394.908 558.415 395.486 558.415 396.126C558.415 396.761 558.506 397.338 558.687 397.855C558.873 398.372 559.152 398.785 559.524 399.093C559.901 399.397 560.373 399.549 560.94 399.549ZM570.489 387.381V401.319H568.026V387.381H570.489ZM575.486 387.381V401.319H573.023V387.381H575.486ZM582.579 401.523C581.558 401.523 580.673 401.298 579.925 400.849C579.176 400.4 578.596 399.772 578.183 398.964C577.774 398.156 577.57 397.213 577.57 396.133C577.57 395.053 577.774 394.107 578.183 393.295C578.596 392.483 579.176 391.852 579.925 391.403C580.673 390.954 581.558 390.73 582.579 390.73C583.6 390.73 584.484 390.954 585.233 391.403C585.982 391.852 586.56 392.483 586.968 393.295C587.381 394.107 587.588 395.053 587.588 396.133C587.588 397.213 587.381 398.156 586.968 398.964C586.56 399.772 585.982 400.4 585.233 400.849C584.484 401.298 583.6 401.523 582.579 401.523ZM582.593 399.549C583.146 399.549 583.609 399.397 583.981 399.093C584.353 398.785 584.63 398.372 584.811 397.855C584.997 397.338 585.09 396.761 585.09 396.126C585.09 395.486 584.997 394.908 584.811 394.391C584.63 393.869 584.353 393.454 583.981 393.145C583.609 392.837 583.146 392.683 582.593 392.683C582.025 392.683 581.554 392.837 581.177 393.145C580.805 393.454 580.526 393.869 580.34 394.391C580.159 394.908 580.068 395.486 580.068 396.126C580.068 396.761 580.159 397.338 580.34 397.855C580.526 398.372 580.805 398.785 581.177 399.093C581.554 399.397 582.025 399.549 582.593 399.549ZM591.536 401.319L588.583 390.866H591.094L592.932 398.215H593.027L594.905 390.866H597.389L599.267 398.175H599.369L601.18 390.866H603.698L600.737 401.319H598.172L596.212 394.255H596.069L594.109 401.319H591.536ZM605.418 401.319V390.866H607.881V401.319H605.418ZM606.656 389.382C606.266 389.382 605.93 389.253 605.649 388.994C605.368 388.731 605.227 388.416 605.227 388.048C605.227 387.676 605.368 387.361 605.649 387.102C605.93 386.839 606.266 386.708 606.656 386.708C607.051 386.708 607.387 386.839 607.663 387.102C607.945 387.361 608.085 387.676 608.085 388.048C608.085 388.416 607.945 388.731 607.663 388.994C607.387 389.253 607.051 389.382 606.656 389.382ZM612.878 395.194V401.319H610.414V390.866H612.769V392.642H612.892C613.132 392.057 613.515 391.592 614.042 391.247C614.572 390.902 615.228 390.73 616.008 390.73C616.73 390.73 617.358 390.884 617.893 391.192C618.433 391.501 618.851 391.948 619.146 392.533C619.445 393.118 619.592 393.828 619.588 394.663V401.319H617.124V395.044C617.124 394.345 616.943 393.799 616.58 393.404C616.222 393.009 615.725 392.812 615.09 392.812C614.659 392.812 614.275 392.907 613.94 393.098C613.608 393.284 613.347 393.554 613.157 393.908C612.971 394.262 612.878 394.69 612.878 395.194ZM626.638 405.456C625.754 405.456 624.994 405.336 624.358 405.096C623.723 404.86 623.213 404.542 622.827 404.143C622.442 403.744 622.174 403.301 622.024 402.816L624.243 402.278C624.343 402.482 624.488 402.684 624.678 402.884C624.869 403.088 625.125 403.256 625.447 403.387C625.774 403.524 626.185 403.592 626.679 403.592C627.378 403.592 627.956 403.421 628.414 403.081C628.873 402.745 629.102 402.192 629.102 401.421V399.44H628.979C628.852 399.694 628.666 399.955 628.421 400.223C628.181 400.491 627.861 400.715 627.462 400.897C627.067 401.078 626.57 401.169 625.971 401.169C625.168 401.169 624.44 400.981 623.787 400.604C623.138 400.223 622.621 399.656 622.235 398.903C621.854 398.145 621.664 397.197 621.664 396.058C621.664 394.91 621.854 393.942 622.235 393.152C622.621 392.358 623.14 391.757 623.794 391.349C624.447 390.936 625.175 390.73 625.978 390.73C626.591 390.73 627.094 390.834 627.489 391.043C627.888 391.247 628.206 391.494 628.442 391.784C628.678 392.07 628.857 392.34 628.979 392.594H629.115V390.866H631.545V401.489C631.545 402.382 631.332 403.122 630.905 403.707C630.479 404.293 629.896 404.73 629.156 405.021C628.417 405.311 627.577 405.456 626.638 405.456ZM626.659 399.236C627.18 399.236 627.625 399.109 627.992 398.855C628.36 398.601 628.639 398.236 628.83 397.759C629.02 397.283 629.115 396.711 629.115 396.044C629.115 395.387 629.02 394.81 628.83 394.316C628.644 393.821 628.367 393.438 627.999 393.166C627.636 392.889 627.189 392.751 626.659 392.751C626.11 392.751 625.651 392.894 625.284 393.179C624.916 393.465 624.64 393.858 624.454 394.357C624.268 394.851 624.175 395.414 624.175 396.044C624.175 396.684 624.268 397.244 624.454 397.725C624.644 398.202 624.923 398.574 625.291 398.841C625.663 399.105 626.119 399.236 626.659 399.236Z" fill="white"/>
<rect x="496.251" y="373.174" width="162.78" height="43.2892" rx="7.1864" stroke="#F1F5F9" stroke-width="0.958187"/>
<path fill-rule="evenodd" clip-rule="evenodd" d="M695.786 257.526C695.547 257.526 695.297 257.622 695.115 257.804L693.362 259.558L696.955 263.151L698.709 261.397C699.082 261.024 699.082 260.42 698.709 260.046L696.466 257.804C696.275 257.613 696.035 257.526 695.786 257.526ZM692.337 263.295L693.218 264.176L684.537 272.857H683.656V271.976L692.337 263.295ZM681.739 271.18L692.337 260.583L695.93 264.176L685.332 274.774H681.739V271.18Z" fill="#F7FAFC"/>
<path d="M717.61 272.65V258.713H722.836C723.907 258.713 724.805 258.913 725.531 259.312C726.262 259.711 726.813 260.26 727.185 260.959C727.561 261.653 727.75 262.442 727.75 263.327C727.75 264.221 727.561 265.015 727.185 265.709C726.808 266.403 726.253 266.95 725.518 267.349C724.783 267.744 723.877 267.941 722.802 267.941H719.338V265.865H722.462C723.088 265.865 723.601 265.756 724 265.539C724.399 265.321 724.694 265.021 724.885 264.64C725.08 264.259 725.177 263.821 725.177 263.327C725.177 262.832 725.08 262.397 724.885 262.02C724.694 261.644 724.397 261.351 723.993 261.142C723.594 260.929 723.079 260.823 722.448 260.823H720.135V272.65H717.61ZM734.244 272.854C733.223 272.854 732.338 272.63 731.59 272.181C730.841 271.731 730.26 271.103 729.847 270.296C729.439 269.488 729.235 268.544 729.235 267.465C729.235 266.385 729.439 265.439 729.847 264.627C730.26 263.815 730.841 263.184 731.59 262.735C732.338 262.286 733.223 262.061 734.244 262.061C735.264 262.061 736.149 262.286 736.898 262.735C737.646 263.184 738.225 263.815 738.633 264.627C739.046 265.439 739.252 266.385 739.252 267.465C739.252 268.544 739.046 269.488 738.633 270.296C738.225 271.103 737.646 271.731 736.898 272.181C736.149 272.63 735.264 272.854 734.244 272.854ZM734.257 270.881C734.811 270.881 735.274 270.729 735.646 270.425C736.018 270.116 736.294 269.703 736.476 269.186C736.662 268.669 736.755 268.093 736.755 267.458C736.755 266.818 736.662 266.24 736.476 265.722C736.294 265.201 736.018 264.785 735.646 264.477C735.274 264.168 734.811 264.014 734.257 264.014C733.69 264.014 733.218 264.168 732.842 264.477C732.47 264.785 732.191 265.201 732.005 265.722C731.823 266.24 731.732 266.818 731.732 267.458C731.732 268.093 731.823 268.669 732.005 269.186C732.191 269.703 732.47 270.116 732.842 270.425C733.218 270.729 733.69 270.881 734.257 270.881ZM749.605 264.96L747.359 265.205C747.296 264.978 747.184 264.765 747.026 264.565C746.871 264.366 746.663 264.205 746.4 264.082C746.136 263.96 745.814 263.899 745.433 263.899C744.921 263.899 744.49 264.01 744.14 264.232C743.795 264.454 743.625 264.742 743.63 265.096C743.625 265.4 743.736 265.647 743.963 265.838C744.195 266.029 744.576 266.185 745.107 266.308L746.89 266.689C747.879 266.902 748.614 267.24 749.095 267.703C749.58 268.165 749.825 268.771 749.829 269.52C749.825 270.178 749.632 270.758 749.251 271.262C748.874 271.761 748.35 272.151 747.679 272.432C747.008 272.714 746.236 272.854 745.365 272.854C744.086 272.854 743.056 272.587 742.276 272.051C741.495 271.511 741.03 270.761 740.881 269.799L743.283 269.567C743.392 270.039 743.623 270.395 743.977 270.636C744.331 270.876 744.791 270.996 745.358 270.996C745.944 270.996 746.413 270.876 746.767 270.636C747.126 270.395 747.305 270.098 747.305 269.744C747.305 269.445 747.189 269.198 746.958 269.003C746.731 268.807 746.377 268.658 745.896 268.553L744.113 268.179C743.11 267.97 742.369 267.619 741.888 267.124C741.407 266.625 741.169 265.995 741.173 265.232C741.169 264.588 741.343 264.03 741.697 263.558C742.056 263.082 742.552 262.714 743.188 262.456C743.827 262.193 744.564 262.061 745.399 262.061C746.624 262.061 747.588 262.322 748.291 262.844C748.999 263.365 749.437 264.071 749.605 264.96ZM757.081 262.197V264.103H751.071V262.197H757.081ZM752.555 259.693H755.019V269.506C755.019 269.837 755.068 270.091 755.168 270.268C755.273 270.441 755.409 270.559 755.577 270.622C755.744 270.686 755.93 270.717 756.135 270.717C756.289 270.717 756.43 270.706 756.557 270.683C756.688 270.661 756.788 270.64 756.856 270.622L757.271 272.548C757.14 272.593 756.951 272.643 756.706 272.698C756.466 272.752 756.171 272.784 755.822 272.793C755.205 272.811 754.649 272.718 754.154 272.514C753.66 272.305 753.267 271.983 752.977 271.548C752.691 271.112 752.55 270.568 752.555 269.914V259.693ZM767.253 264.96L765.007 265.205C764.944 264.978 764.832 264.765 764.674 264.565C764.519 264.366 764.311 264.205 764.047 264.082C763.784 263.96 763.462 263.899 763.081 263.899C762.568 263.899 762.137 264.01 761.788 264.232C761.443 264.454 761.273 264.742 761.278 265.096C761.273 265.4 761.384 265.647 761.611 265.838C761.843 266.029 762.224 266.185 762.754 266.308L764.537 266.689C765.526 266.902 766.261 267.24 766.742 267.703C767.228 268.165 767.473 268.771 767.477 269.52C767.473 270.178 767.28 270.758 766.899 271.262C766.522 271.761 765.998 272.151 765.327 272.432C764.655 272.714 763.884 272.854 763.013 272.854C761.734 272.854 760.704 272.587 759.923 272.051C759.143 271.511 758.678 270.761 758.528 269.799L760.931 269.567C761.04 270.039 761.271 270.395 761.625 270.636C761.979 270.876 762.439 270.996 763.006 270.996C763.592 270.996 764.061 270.876 764.415 270.636C764.773 270.395 764.953 270.098 764.953 269.744C764.953 269.445 764.837 269.198 764.606 269.003C764.379 268.807 764.025 268.658 763.544 268.553L761.761 268.179C760.758 267.97 760.016 267.619 759.536 267.124C759.055 266.625 758.816 265.995 758.821 265.232C758.816 264.588 758.991 264.03 759.345 263.558C759.703 263.082 760.2 262.714 760.835 262.456C761.475 262.193 762.212 262.061 763.047 262.061C764.272 262.061 765.236 262.322 765.939 262.844C766.647 263.365 767.085 264.071 767.253 264.96Z" fill="white"/>
<rect x="667.847" y="244.505" width="126.78" height="43.2892" rx="7.1864" stroke="#F1F5F9" stroke-width="0.958187"/>
<path d="M14.2138 81.4436H11.9817L16.9972 67.5063H19.4267L24.4422 81.4436H22.21L18.2698 70.0379H18.1609L14.2138 81.4436ZM14.5881 75.9857H21.8289V77.7551H14.5881V75.9857ZM28.3263 75.2372V81.4436H26.2915V70.9907H28.2447V72.692H28.374C28.6144 72.1385 28.991 71.6939 29.5036 71.3581C30.0208 71.0224 30.6719 70.8545 31.4568 70.8545C32.169 70.8545 32.7929 71.0043 33.3282 71.3037C33.8636 71.5986 34.2787 72.0387 34.5736 72.6239C34.8685 73.2092 35.0159 73.9328 35.0159 74.7948V81.4436H32.9811V75.0398C32.9811 74.2822 32.7838 73.6901 32.3891 73.2636C31.9944 72.8326 31.4522 72.6171 30.7626 72.6171C30.2908 72.6171 29.8711 72.7192 29.5036 72.9234C29.1407 73.1275 28.8526 73.427 28.6394 73.8217C28.4307 74.2118 28.3263 74.6837 28.3263 75.2372ZM38.6568 85.3635C38.3528 85.3635 38.076 85.3385 37.8265 85.2886C37.577 85.2432 37.391 85.1933 37.2685 85.1389L37.7585 83.4716C38.1305 83.5714 38.4617 83.6145 38.752 83.6009C39.0424 83.5873 39.2987 83.4784 39.521 83.2742C39.7479 83.0701 39.9475 82.7366 40.1199 82.2739L40.3717 81.5797L36.5471 70.9907H38.7248L41.3721 79.1026H41.481L44.1282 70.9907H46.3127L42.005 82.8387C41.8054 83.3831 41.5513 83.8436 41.2428 84.2202C40.9343 84.6013 40.5668 84.8871 40.1403 85.0776C39.7139 85.2682 39.2193 85.3635 38.6568 85.3635ZM65.0358 72.0387H62.9126C62.8309 71.585 62.6789 71.1857 62.4566 70.8409C62.2343 70.4961 61.9621 70.2035 61.64 69.9631C61.3179 69.7226 60.9572 69.5411 60.5579 69.4186C60.1632 69.2961 59.7436 69.2349 59.299 69.2349C58.4959 69.2349 57.7768 69.4368 57.1417 69.8406C56.511 70.2443 56.012 70.8364 55.6445 71.6167C55.2816 72.3971 55.1001 73.3498 55.1001 74.475C55.1001 75.6092 55.2816 76.5665 55.6445 77.3468C56.012 78.1272 56.5133 78.7169 57.1485 79.1162C57.7836 79.5154 58.4982 79.7151 59.2922 79.7151C59.7322 79.7151 60.1496 79.6561 60.5443 79.5381C60.9436 79.4156 61.3043 79.2364 61.6264 79.0005C61.9485 78.7646 62.2207 78.4765 62.443 78.1362C62.6698 77.7914 62.8264 77.3967 62.9126 76.9521L65.0358 76.9589C64.9224 77.644 64.7024 78.2746 64.3757 78.8508C64.0536 79.4224 63.6385 79.9169 63.1303 80.3343C62.6267 80.7472 62.0506 81.067 61.4018 81.2939C60.753 81.5207 60.0453 81.6342 59.2785 81.6342C58.0717 81.6342 56.9965 81.3483 56.0528 80.7767C55.1092 80.2005 54.3651 79.3771 53.8207 78.3064C53.2808 77.2357 53.0109 75.9585 53.0109 74.475C53.0109 72.9869 53.2831 71.7097 53.8275 70.6436C54.3719 69.5729 55.116 68.7517 56.0596 68.1801C57.0033 67.6039 58.0763 67.3158 59.2785 67.3158C60.018 67.3158 60.7077 67.4224 61.3474 67.6356C61.9916 67.8443 62.57 68.1528 63.0827 68.5612C63.5954 68.9649 64.0196 69.4595 64.3553 70.0447C64.691 70.6254 64.9179 71.2901 65.0358 72.0387ZM69.4235 67.5063V81.4436H67.3888V67.5063H69.4235ZM72.161 81.4436V70.9907H74.1958V81.4436H72.161ZM73.1886 69.3778C72.8347 69.3778 72.5307 69.2598 72.2767 69.0239C72.0271 68.7835 71.9024 68.4976 71.9024 68.1665C71.9024 67.8307 72.0271 67.5449 72.2767 67.309C72.5307 67.0685 72.8347 66.9483 73.1886 66.9483C73.5425 66.9483 73.8442 67.0685 74.0937 67.309C74.3478 67.5449 74.4748 67.8307 74.4748 68.1665C74.4748 68.4976 74.3478 68.7835 74.0937 69.0239C73.8442 69.2598 73.5425 69.3778 73.1886 69.3778ZM81.4383 81.6546C80.4084 81.6546 79.5215 81.4345 78.7774 80.9945C78.0379 80.5498 77.4663 79.926 77.0625 79.123C76.6633 78.3154 76.4636 77.3695 76.4636 76.2852C76.4636 75.2145 76.6633 74.2708 77.0625 73.4542C77.4663 72.6375 78.0289 72.0001 78.7502 71.5419C79.4761 71.0837 80.3245 70.8545 81.2954 70.8545C81.8852 70.8545 82.4568 70.9521 83.0103 71.1472C83.5638 71.3423 84.0606 71.6485 84.5007 72.0659C84.9408 72.4833 85.2879 73.0254 85.5419 73.6924C85.796 74.3547 85.923 75.16 85.923 76.1082V76.8296H77.6137V75.3052H83.9291C83.9291 74.7699 83.8202 74.2958 83.6024 73.8829C83.3846 73.4655 83.0784 73.1366 82.6837 72.8961C82.2935 72.6557 81.8353 72.5355 81.309 72.5355C80.7374 72.5355 80.2383 72.6761 79.8118 72.9574C79.3899 73.2341 79.0633 73.5971 78.8319 74.0462C78.605 74.4909 78.4916 74.974 78.4916 75.4958V76.6867C78.4916 77.3854 78.6141 77.9797 78.8591 78.4697C79.1086 78.9597 79.4557 79.334 79.9003 79.5926C80.3449 79.8466 80.8644 79.9737 81.4587 79.9737C81.8444 79.9737 82.196 79.9192 82.5136 79.8103C82.8311 79.6969 83.1056 79.529 83.337 79.3067C83.5684 79.0844 83.7453 78.81 83.8678 78.4833L85.7937 78.8304C85.6395 79.3975 85.3627 79.8943 84.9635 80.3207C84.5688 80.7427 84.072 81.0716 83.4731 81.3075C82.8788 81.5389 82.2005 81.6546 81.4383 81.6546ZM90.2155 75.2372V81.4436H88.1807V70.9907H90.1338V72.692H90.2631C90.5035 72.1385 90.8801 71.6939 91.3928 71.3581C91.91 71.0224 92.561 70.8545 93.3459 70.8545C94.0582 70.8545 94.682 71.0043 95.2174 71.3037C95.7527 71.5986 96.1678 72.0387 96.4627 72.6239C96.7576 73.2092 96.9051 73.9328 96.9051 74.7948V81.4436H94.8703V75.0398C94.8703 74.2822 94.6729 73.6901 94.2782 73.2636C93.8835 72.8326 93.3414 72.6171 92.6518 72.6171C92.1799 72.6171 91.7603 72.7192 91.3928 72.9234C91.0298 73.1275 90.7417 73.427 90.5285 73.8217C90.3198 74.2118 90.2155 74.6837 90.2155 75.2372ZM104.513 70.9907V72.6239H98.8038V70.9907H104.513ZM100.335 68.4863H102.37V78.3744C102.37 78.7691 102.429 79.0663 102.547 79.2659C102.665 79.461 102.817 79.5948 103.003 79.6674C103.193 79.7355 103.4 79.7695 103.622 79.7695C103.785 79.7695 103.928 79.7582 104.051 79.7355C104.173 79.7128 104.268 79.6946 104.336 79.681L104.704 81.3619C104.586 81.4073 104.418 81.4527 104.2 81.498C103.983 81.548 103.71 81.5752 103.384 81.5797C102.848 81.5888 102.349 81.4935 101.887 81.2939C101.424 81.0943 101.05 80.7858 100.764 80.3684C100.478 79.951 100.335 79.427 100.335 78.7963V68.4863Z" fill="white"/>
<g filter="url(#filter0_b_45_360)">
<rect x="1.24353" y="99.8291" width="347.957" height="242.917" rx="10.5401" fill="#1E293B" fill-opacity="0.59"/>
<rect x="1.72262" y="100.308" width="346.999" height="241.959" rx="10.061" stroke="white" stroke-width="0.958187"/>
</g>
<path d="M11.7836 100.308H338.661C344.217 100.308 348.722 104.813 348.722 110.369V137.063H1.72262V110.369C1.72262 104.813 6.22707 100.308 11.7836 100.308Z" fill="#334254" fill-opacity="0.38" stroke="white" stroke-width="0.958187"/>
<path d="M72.2627 176.364C72.2627 187.095 62.9068 195.851 51.2923 195.851C39.6778 195.851 30.322 187.095 30.322 176.364C30.322 165.634 39.6778 156.878 51.2923 156.878C62.9068 156.878 72.2627 165.634 72.2627 176.364Z" stroke="#474B50" stroke-width="0.958187"/>
<rect x="92.9995" y="159.726" width="109.63" height="6.65526" fill="#D9D9D9" fill-opacity="0.08"/>
<rect x="80.6267" y="226.685" width="163.85" height="5.74912" fill="#D9D9D9" fill-opacity="0.08"/>
<rect x="80.6267" y="215.187" width="88.1532" height="5.74912" fill="#D9D9D9" fill-opacity="0.08"/>
<rect x="29.8429" y="215.187" width="39.2857" height="17.2474" fill="#D9D9D9" fill-opacity="0.08"/>
<rect x="80.6267" y="260.222" width="163.85" height="5.74912" fill="#D9D9D9" fill-opacity="0.08"/>
<rect x="80.6267" y="248.724" width="88.1532" height="5.74912" fill="#D9D9D9" fill-opacity="0.08"/>
<rect x="29.8429" y="248.724" width="39.2857" height="17.2474" fill="#D9D9D9" fill-opacity="0.08"/>
<rect x="80.6267" y="293.758" width="163.85" height="5.74912" fill="#D9D9D9" fill-opacity="0.08"/>
<rect x="80.6267" y="282.26" width="88.1532" height="5.74912" fill="#D9D9D9" fill-opacity="0.08"/>
<rect x="29.8429" y="282.26" width="39.2857" height="17.2474" fill="#D9D9D9" fill-opacity="0.08"/>
<rect x="92.9995" y="170.819" width="59.5817" height="6.65526" fill="#D9D9D9" fill-opacity="0.1"/>
<rect x="157.348" y="170.819" width="104.864" height="6.65526" fill="#D9D9D9" fill-opacity="0.1"/>
<path d="M349.201 227.388H403.402C416.631 227.388 427.356 216.663 427.356 203.433V129.33C427.356 116.1 438.081 105.375 451.311 105.375H496.963" stroke="#BEBEBE" stroke-opacity="0.26" stroke-width="0.958187"/>
<path d="M349.201 227.388H403.402C416.631 227.388 427.356 238.113 427.356 251.343V318.791C427.356 332.021 438.081 342.746 451.311 342.746H496.963" stroke="#BEBEBE" stroke-opacity="0.26" stroke-width="0.958187"/>
<rect x="496.251" y="72.5777" width="239.752" height="66.7036" rx="7.1864" fill="#1E293B" stroke="white" stroke-width="0.958187"/>
<path d="M562.52 99.046C563.142 99.0506 563.754 99.164 564.358 99.3863C564.961 99.6086 565.506 99.9715 565.991 100.475C566.481 100.979 566.871 101.659 567.162 102.517C567.457 103.37 567.606 104.431 567.611 105.702C567.611 106.922 567.488 108.009 567.243 108.961C566.998 109.91 566.647 110.71 566.189 111.364C565.735 112.017 565.184 112.514 564.535 112.854C563.886 113.194 563.156 113.364 562.344 113.364C561.513 113.364 560.776 113.201 560.132 112.874C559.488 112.548 558.964 112.096 558.56 111.52C558.156 110.939 557.904 110.272 557.804 109.519H559.88C560.016 110.118 560.293 110.604 560.71 110.976C561.132 111.343 561.677 111.527 562.344 111.527C563.364 111.527 564.161 111.082 564.732 110.193C565.304 109.299 565.592 108.052 565.596 106.45H565.488C565.252 106.84 564.957 107.176 564.603 107.457C564.254 107.739 563.861 107.956 563.426 108.111C562.99 108.265 562.525 108.342 562.03 108.342C561.227 108.342 560.497 108.145 559.839 107.75C559.181 107.355 558.657 106.813 558.267 106.124C557.877 105.434 557.682 104.647 557.682 103.762C557.682 102.882 557.882 102.083 558.281 101.367C558.685 100.65 559.247 100.083 559.968 99.6653C560.694 99.2434 561.545 99.0369 562.52 99.046ZM562.527 100.815C561.996 100.815 561.518 100.947 561.091 101.21C560.669 101.469 560.336 101.82 560.091 102.265C559.846 102.705 559.723 103.195 559.723 103.735C559.723 104.275 559.841 104.765 560.077 105.205C560.318 105.64 560.644 105.987 561.057 106.246C561.475 106.5 561.951 106.627 562.486 106.627C562.886 106.627 563.258 106.55 563.603 106.396C563.947 106.241 564.249 106.028 564.508 105.756C564.766 105.479 564.968 105.166 565.113 104.817C565.258 104.468 565.331 104.1 565.331 103.714C565.331 103.202 565.209 102.725 564.964 102.285C564.723 101.845 564.392 101.491 563.97 101.224C563.548 100.952 563.067 100.815 562.527 100.815ZM578.379 110.86L570.552 103.034L571.839 101.748L579.665 109.574L578.379 110.86ZM571.839 110.86L570.552 109.574L578.379 101.748L579.665 103.034L571.839 110.86ZM587.685 113.364C586.75 113.364 585.915 113.203 585.18 112.881C584.45 112.559 583.872 112.112 583.445 111.541C583.023 110.964 582.796 110.297 582.765 109.54H584.901C584.929 109.953 585.067 110.311 585.317 110.615C585.571 110.914 585.902 111.146 586.31 111.309C586.718 111.473 587.172 111.554 587.671 111.554C588.22 111.554 588.706 111.459 589.128 111.268C589.554 111.078 589.887 110.812 590.128 110.472C590.368 110.127 590.489 109.73 590.489 109.281C590.489 108.814 590.368 108.403 590.128 108.049C589.892 107.691 589.545 107.41 589.087 107.206C588.633 107.001 588.084 106.899 587.44 106.899H586.262V105.184H587.44C587.957 105.184 588.411 105.091 588.801 104.905C589.196 104.719 589.504 104.461 589.726 104.13C589.949 103.794 590.06 103.401 590.06 102.952C590.06 102.521 589.962 102.147 589.767 101.829C589.577 101.507 589.304 101.255 588.951 101.074C588.601 100.893 588.188 100.802 587.712 100.802C587.258 100.802 586.834 100.886 586.439 101.054C586.049 101.217 585.732 101.453 585.487 101.761C585.242 102.065 585.11 102.431 585.092 102.857H583.057C583.08 102.104 583.302 101.441 583.724 100.87C584.151 100.298 584.713 99.8513 585.412 99.5292C586.11 99.2071 586.886 99.046 587.739 99.046C588.633 99.046 589.404 99.2207 590.053 99.57C590.706 99.9148 591.21 100.375 591.564 100.952C591.922 101.528 592.099 102.158 592.095 102.843C592.099 103.624 591.881 104.286 591.441 104.831C591.006 105.375 590.425 105.74 589.699 105.926V106.035C590.625 106.176 591.342 106.543 591.85 107.138C592.362 107.732 592.616 108.469 592.612 109.349C592.616 110.116 592.403 110.803 591.972 111.411C591.546 112.019 590.963 112.498 590.223 112.847C589.484 113.192 588.638 113.364 587.685 113.364ZM599.594 117.311C598.764 117.311 598.049 117.203 597.45 116.985C596.856 116.767 596.371 116.479 595.994 116.121C595.618 115.762 595.336 115.37 595.15 114.943L596.899 114.222C597.022 114.421 597.185 114.632 597.389 114.855C597.598 115.082 597.879 115.274 598.233 115.433C598.591 115.592 599.052 115.671 599.614 115.671C600.386 115.671 601.023 115.483 601.527 115.107C602.03 114.735 602.282 114.14 602.282 113.324V111.268H602.153C602.03 111.491 601.853 111.738 601.622 112.01C601.395 112.282 601.082 112.518 600.683 112.718C600.284 112.917 599.764 113.017 599.125 113.017C598.299 113.017 597.555 112.824 596.892 112.439C596.235 112.049 595.713 111.475 595.327 110.717C594.946 109.955 594.755 109.018 594.755 107.907C594.755 106.795 594.944 105.842 595.32 105.048C595.701 104.254 596.223 103.646 596.886 103.224C597.548 102.798 598.299 102.585 599.138 102.585C599.787 102.585 600.311 102.694 600.71 102.911C601.109 103.125 601.42 103.374 601.642 103.66C601.869 103.946 602.044 104.198 602.166 104.415H602.316V102.721H604.31V113.405C604.31 114.304 604.101 115.041 603.684 115.617C603.267 116.193 602.702 116.62 601.99 116.896C601.282 117.173 600.483 117.311 599.594 117.311ZM599.574 111.33C600.159 111.33 600.653 111.193 601.057 110.921C601.466 110.645 601.774 110.25 601.983 109.737C602.196 109.22 602.303 108.601 602.303 107.879C602.303 107.176 602.198 106.557 601.99 106.021C601.781 105.486 601.475 105.069 601.071 104.769C600.667 104.465 600.168 104.313 599.574 104.313C598.961 104.313 598.451 104.472 598.042 104.79C597.634 105.103 597.326 105.529 597.117 106.069C596.913 106.609 596.811 107.212 596.811 107.879C596.811 108.564 596.915 109.166 597.124 109.683C597.332 110.2 597.641 110.604 598.049 110.894C598.462 111.184 598.97 111.33 599.574 111.33ZM608.38 113.303C608.008 113.303 607.688 113.172 607.42 112.908C607.152 112.641 607.019 112.319 607.019 111.942C607.019 111.57 607.152 111.252 607.42 110.989C607.688 110.722 608.008 110.588 608.38 110.588C608.752 110.588 609.072 110.722 609.339 110.989C609.607 111.252 609.741 111.57 609.741 111.942C609.741 112.192 609.677 112.421 609.55 112.629C609.428 112.834 609.264 112.997 609.06 113.119C608.856 113.242 608.629 113.303 608.38 113.303ZM613.807 113.303C613.435 113.303 613.115 113.172 612.847 112.908C612.58 112.641 612.446 112.319 612.446 111.942C612.446 111.57 612.58 111.252 612.847 110.989C613.115 110.722 613.435 110.588 613.807 110.588C614.179 110.588 614.499 110.722 614.766 110.989C615.034 111.252 615.168 111.57 615.168 111.942C615.168 112.192 615.104 112.421 614.977 112.629C614.855 112.834 614.692 112.997 614.487 113.119C614.283 113.242 614.056 113.303 613.807 113.303ZM619.234 113.303C618.862 113.303 618.542 113.172 618.275 112.908C618.007 112.641 617.873 112.319 617.873 111.942C617.873 111.57 618.007 111.252 618.275 110.989C618.542 110.722 618.862 110.588 619.234 110.588C619.606 110.588 619.926 110.722 620.194 110.989C620.461 111.252 620.595 111.57 620.595 111.942C620.595 112.192 620.532 112.421 620.405 112.629C620.282 112.834 620.119 112.997 619.915 113.119C619.711 113.242 619.484 113.303 619.234 113.303ZM623.484 99.2366H626.036L630.473 110.071H630.636L635.074 99.2366H637.626V113.174H635.625V103.088H635.495L631.385 113.153H629.725L625.614 103.082H625.485V113.174H623.484V99.2366ZM644.902 117.311C644.072 117.311 643.357 117.203 642.758 116.985C642.164 116.767 641.679 116.479 641.302 116.121C640.926 115.762 640.644 115.37 640.458 114.943L642.207 114.222C642.33 114.421 642.493 114.632 642.697 114.855C642.906 115.082 643.187 115.274 643.541 115.433C643.899 115.592 644.36 115.671 644.923 115.671C645.694 115.671 646.331 115.483 646.835 115.107C647.338 114.735 647.59 114.14 647.59 113.324V111.268H647.461C647.338 111.491 647.161 111.738 646.93 112.01C646.703 112.282 646.39 112.518 645.991 112.718C645.592 112.917 645.072 113.017 644.433 113.017C643.607 113.017 642.863 112.824 642.2 112.439C641.543 112.049 641.021 111.475 640.635 110.717C640.254 109.955 640.064 109.018 640.064 107.907C640.064 106.795 640.252 105.842 640.628 105.048C641.009 104.254 641.531 103.646 642.194 103.224C642.856 102.798 643.607 102.585 644.446 102.585C645.095 102.585 645.619 102.694 646.018 102.911C646.417 103.125 646.728 103.374 646.95 103.66C647.177 103.946 647.352 104.198 647.474 104.415H647.624V102.721H649.618V113.405C649.618 114.304 649.409 115.041 648.992 115.617C648.575 116.193 648.01 116.62 647.298 116.896C646.59 117.173 645.791 117.311 644.902 117.311ZM644.882 111.33C645.467 111.33 645.961 111.193 646.365 110.921C646.774 110.645 647.082 110.25 647.291 109.737C647.504 109.22 647.611 108.601 647.611 107.879C647.611 107.176 647.506 106.557 647.298 106.021C647.089 105.486 646.783 105.069 646.379 104.769C645.975 104.465 645.476 104.313 644.882 104.313C644.269 104.313 643.759 104.472 643.35 104.79C642.942 105.103 642.634 105.529 642.425 106.069C642.221 106.609 642.119 107.212 642.119 107.879C642.119 108.564 642.223 109.166 642.432 109.683C642.64 110.2 642.949 110.604 643.357 110.894C643.77 111.184 644.278 111.33 644.882 111.33ZM652.51 113.174V99.2366H654.613V105.892H654.783L660.629 99.2366H663.276L657.655 105.511L663.297 113.174H660.765L656.26 106.947L654.613 108.839V113.174H652.51ZM665.236 113.174V99.2366H667.339V111.364H673.654V113.174H665.236Z" fill="white"/>
<path d="M508.001 34.23H510.39L514.031 40.5657H514.18L517.821 34.23H520.21L515.154 42.6958V48.1672H513.058V42.6958L508.001 34.23ZM524.713 48.3782C523.733 48.3782 522.878 48.1536 522.148 47.7045C521.417 47.2553 520.85 46.627 520.446 45.8194C520.043 45.0118 519.841 44.0682 519.841 42.9884C519.841 41.9041 520.043 40.9559 520.446 40.1438C520.85 39.3317 521.417 38.7011 522.148 38.2519C522.878 37.8028 523.733 37.5782 524.713 37.5782C525.693 37.5782 526.549 37.8028 527.279 38.2519C528.009 38.7011 528.577 39.3317 528.98 40.1438C529.384 40.9559 529.586 41.9041 529.586 42.9884C529.586 44.0682 529.384 45.0118 528.98 45.8194C528.577 46.627 528.009 47.2553 527.279 47.7045C526.549 48.1536 525.693 48.3782 524.713 48.3782ZM524.72 46.6701C525.355 46.6701 525.882 46.5022 526.299 46.1665C526.716 45.8307 527.025 45.3839 527.225 44.8258C527.429 44.2678 527.531 43.6531 527.531 42.9816C527.531 42.3147 527.429 41.7022 527.225 41.1442C527.025 40.5816 526.716 40.1302 526.299 39.7899C525.882 39.4496 525.355 39.2795 524.72 39.2795C524.081 39.2795 523.55 39.4496 523.128 39.7899C522.71 40.1302 522.4 40.5816 522.195 41.1442C521.996 41.7022 521.896 42.3147 521.896 42.9816C521.896 43.6531 521.996 44.2678 522.195 44.8258C522.4 45.3839 522.71 45.8307 523.128 46.1665C523.55 46.5022 524.081 46.6701 524.72 46.6701ZM538.479 43.8323V37.7143H540.52V48.1672H538.52V46.357H538.411C538.17 46.9151 537.785 47.3801 537.254 47.7521C536.728 48.1196 536.072 48.3033 535.287 48.3033C534.616 48.3033 534.021 48.1559 533.504 47.861C532.991 47.5616 532.588 47.1192 532.293 46.534C532.002 45.9487 531.857 45.2251 531.857 44.3631V37.7143H533.892V44.1181C533.892 44.8304 534.089 45.3975 534.484 45.8194C534.879 46.2413 535.391 46.4523 536.022 46.4523C536.403 46.4523 536.782 46.357 537.159 46.1665C537.54 45.9759 537.855 45.6878 538.105 45.3022C538.359 44.9166 538.483 44.4266 538.479 43.8323ZM543.254 48.1672V37.7143H545.221V39.3748H545.33C545.521 38.8122 545.856 38.3699 546.337 38.0477C546.823 37.7211 547.372 37.5578 547.984 37.5578C548.111 37.5578 548.261 37.5623 548.433 37.5714C548.61 37.5804 548.749 37.5918 548.848 37.6054V39.5517C548.767 39.529 548.622 39.5041 548.413 39.4769C548.204 39.4451 547.995 39.4292 547.787 39.4292C547.306 39.4292 546.877 39.5313 546.501 39.7355C546.129 39.9351 545.834 40.2141 545.616 40.5725C545.398 40.9264 545.289 41.3302 545.289 41.7839V48.1672H543.254ZM558.573 48.1672L554.708 34.23H556.92L559.635 45.0232H559.764L562.588 34.23H564.78L567.604 45.03H567.733L570.442 34.23H572.66L568.788 48.1672H566.672L563.738 37.7279H563.63L560.696 48.1672H558.573ZM576.427 48.3986C575.765 48.3986 575.166 48.2761 574.63 48.0311C574.095 47.7816 573.671 47.4209 573.358 46.9491C573.049 46.4773 572.895 45.8988 572.895 45.2137C572.895 44.6239 573.008 44.1385 573.235 43.7574C573.462 43.3763 573.768 43.0746 574.154 42.8523C574.54 42.63 574.971 42.4621 575.447 42.3487C575.923 42.2353 576.409 42.1491 576.903 42.0901C577.529 42.0175 578.038 41.9585 578.428 41.9132C578.818 41.8633 579.101 41.7839 579.278 41.675C579.455 41.5661 579.544 41.3892 579.544 41.1442V41.0965C579.544 40.5022 579.376 40.0417 579.04 39.715C578.709 39.3884 578.214 39.2251 577.557 39.2251C576.872 39.2251 576.332 39.3771 575.937 39.681C575.547 39.9805 575.277 40.3139 575.127 40.6814L573.215 40.2459C573.442 39.6107 573.773 39.098 574.208 38.7079C574.648 38.3132 575.154 38.0273 575.726 37.8504C576.298 37.6689 576.899 37.5782 577.529 37.5782C577.947 37.5782 578.389 37.6281 578.856 37.7279C579.328 37.8232 579.768 38.0001 580.177 38.2587C580.589 38.5173 580.927 38.8871 581.191 39.368C581.454 39.8443 581.585 40.4636 581.585 41.2258V48.1672H579.598V46.7381H579.517C579.385 47.0013 579.188 47.2599 578.924 47.5139C578.661 47.768 578.323 47.979 577.91 48.1468C577.498 48.3147 577.003 48.3986 576.427 48.3986ZM576.869 46.7653C577.432 46.7653 577.913 46.6542 578.312 46.4319C578.716 46.2096 579.022 45.9192 579.231 45.5608C579.444 45.1979 579.551 44.81 579.551 44.3971V43.0496C579.478 43.1222 579.337 43.1903 579.129 43.2538C578.924 43.3128 578.691 43.365 578.428 43.4103C578.165 43.4512 577.908 43.4897 577.659 43.526C577.409 43.5578 577.2 43.585 577.033 43.6077C576.638 43.6576 576.277 43.7415 575.951 43.8595C575.628 43.9774 575.37 44.1476 575.175 44.3699C574.984 44.5876 574.889 44.878 574.889 45.241C574.889 45.7445 575.075 46.1256 575.447 46.3842C575.819 46.6383 576.293 46.7653 576.869 46.7653ZM586.33 34.23V48.1672H584.296V34.23H586.33ZM591.103 34.23V48.1672H589.068V34.23H591.103ZM598.345 48.3782C597.315 48.3782 596.428 48.1582 595.684 47.7181C594.945 47.2735 594.373 46.6497 593.969 45.8466C593.57 45.0391 593.37 44.0931 593.37 43.0088C593.37 41.9381 593.57 40.9944 593.969 40.1778C594.373 39.3612 594.936 38.7237 595.657 38.2655C596.383 37.8073 597.231 37.5782 598.202 37.5782C598.792 37.5782 599.364 37.6757 599.917 37.8708C600.471 38.0659 600.967 38.3721 601.407 38.7895C601.848 39.2069 602.195 39.7491 602.449 40.416C602.703 41.0784 602.83 41.8837 602.83 42.8319V43.5532H594.521V42.0289H600.836C600.836 41.4935 600.727 41.0194 600.509 40.6065C600.291 40.1892 599.985 39.8602 599.59 39.6198C599.2 39.3793 598.742 39.2591 598.216 39.2591C597.644 39.2591 597.145 39.3997 596.719 39.681C596.297 39.9578 595.97 40.3207 595.739 40.7699C595.512 41.2145 595.398 41.6977 595.398 42.2194V43.4103C595.398 44.109 595.521 44.7033 595.766 45.1933C596.015 45.6833 596.362 46.0576 596.807 46.3162C597.252 46.5703 597.771 46.6973 598.366 46.6973C598.751 46.6973 599.103 46.6428 599.42 46.534C599.738 46.4205 600.012 46.2527 600.244 46.0304C600.475 45.8081 600.652 45.5336 600.775 45.2069L602.7 45.554C602.546 46.1211 602.269 46.6179 601.87 47.0444C601.476 47.4663 600.979 47.7952 600.38 48.0311C599.786 48.2625 599.107 48.3782 598.345 48.3782ZM609.967 37.7143V39.3476H604.257V37.7143H609.967ZM605.788 35.2099H607.823V45.098C607.823 45.4928 607.882 45.7899 608 45.9895C608.118 46.1846 608.27 46.3185 608.456 46.3911C608.647 46.4591 608.853 46.4931 609.075 46.4931C609.239 46.4931 609.382 46.4818 609.504 46.4591C609.627 46.4364 609.722 46.4183 609.79 46.4047L610.157 48.0856C610.039 48.1309 609.872 48.1763 609.654 48.2217C609.436 48.2716 609.164 48.2988 608.837 48.3033C608.302 48.3124 607.803 48.2171 607.34 48.0175C606.877 47.8179 606.503 47.5094 606.217 47.092C605.931 46.6746 605.788 46.1506 605.788 45.52V35.2099Z" fill="white"/>
<path fill-rule="evenodd" clip-rule="evenodd" d="M539.589 96.5475V99.6034C540.439 100.073 541.029 100.917 541.029 101.909V109.95C541.029 110.942 540.439 111.787 539.589 112.256V115.312C539.589 116.786 538.294 117.992 536.71 117.992H516.551C514.953 117.992 513.671 116.786 513.671 115.312V96.5475C513.671 95.0732 514.953 93.8669 516.551 93.8669H536.71C538.294 93.8669 539.589 95.0732 539.589 96.5475ZM538.15 109.95V101.909H528.07V109.95H538.15ZM516.551 115.312V96.5477H536.709V99.2282H528.07C526.486 99.2282 525.19 100.435 525.19 101.909V109.951C525.19 111.425 526.486 112.631 528.07 112.631H536.709V115.312H516.551ZM530.23 105.93C530.23 104.819 531.197 103.919 532.39 103.919C533.583 103.919 534.55 104.819 534.55 105.93C534.55 107.04 533.583 107.94 532.39 107.94C531.197 107.94 530.23 107.04 530.23 105.93Z" fill="#F7FAFC"/>
<path d="M1257.94 103.157C1257.94 132.265 1232.58 155.92 1201.22 155.92C1169.86 155.92 1144.5 132.265 1144.5 103.157C1144.5 74.0484 1169.86 50.3939 1201.22 50.3939C1232.58 50.3939 1257.94 74.0484 1257.94 103.157Z" stroke="white" stroke-width="0.958187"/>
<path d="M1185.74 112.178C1186.01 111.931 1186.38 111.786 1186.76 111.786H1221.95C1222.6 111.786 1222.92 112.509 1222.46 112.932L1215.51 119.402C1215.25 119.65 1214.88 119.794 1214.49 119.794H1179.3C1178.66 119.794 1178.34 119.072 1178.79 118.649L1185.74 112.178Z" fill="white"/>
<path d="M1185.74 88.0201C1186.02 87.7724 1186.39 87.6279 1186.76 87.6279H1221.95C1222.6 87.6279 1222.92 88.3503 1222.46 88.7734L1215.51 95.2441C1215.25 95.4917 1214.88 95.6362 1214.49 95.6362H1179.3C1178.66 95.6362 1178.34 94.9138 1178.79 94.4907L1185.74 88.0201Z" fill="white"/>
<path d="M1215.51 100.022C1215.25 99.7739 1214.88 99.6294 1214.49 99.6294H1179.3C1178.66 99.6294 1178.34 100.352 1178.79 100.775L1185.74 107.246C1186.01 107.493 1186.38 107.638 1186.76 107.638H1221.95C1222.6 107.638 1222.92 106.915 1222.46 106.492L1215.51 100.022Z" fill="white"/>
<path d="M1139.87 293.118L1209.56 255.662L1279.26 293.118V367.971L1209.56 405.427L1139.87 367.971V293.118Z" stroke="white" stroke-width="0.958187"/>
<path d="M1209.36 362.33C1228.33 362.33 1243.71 348.014 1243.71 330.354C1243.71 312.694 1228.33 298.378 1209.36 298.378C1190.38 298.378 1175 312.694 1175 330.354C1175 348.014 1190.38 362.33 1209.36 362.33Z" stroke="white" stroke-width="2.39547"/>
<path d="M1215.77 341.908C1215.6 341.597 1215.46 341.24 1215.34 340.837C1215.23 340.433 1215.13 340.006 1215.04 339.555C1214.66 339.944 1214.22 340.309 1213.72 340.65C1213.21 340.992 1212.66 341.295 1212.04 341.559C1211.44 341.807 1210.77 342.001 1210.04 342.141C1209.3 342.296 1208.51 342.374 1207.66 342.374C1206.28 342.374 1205 342.187 1203.83 341.815C1202.68 341.442 1201.69 340.922 1200.85 340.254C1200.02 339.587 1199.37 338.795 1198.9 337.879C1198.43 336.947 1198.2 335.938 1198.2 334.851C1198.2 332.195 1199.26 330.146 1201.38 328.701C1203.51 327.242 1206.69 326.512 1210.91 326.512H1214.79V325.021C1214.79 323.81 1214.37 322.855 1213.52 322.156C1212.66 321.442 1211.44 321.085 1209.84 321.085C1208.42 321.085 1207.38 321.372 1206.73 321.947C1206.08 322.506 1205.76 323.259 1205.76 324.206H1198.8C1198.8 323.135 1199.05 322.118 1199.55 321.155C1200.07 320.192 1200.81 319.346 1201.78 318.616C1202.76 317.886 1203.96 317.312 1205.36 316.892C1206.78 316.458 1208.39 316.24 1210.21 316.24C1211.85 316.24 1213.37 316.427 1214.77 316.799C1216.18 317.172 1217.41 317.723 1218.44 318.453C1219.48 319.183 1220.29 320.107 1220.87 321.225C1221.46 322.327 1221.75 323.608 1221.75 325.068V335.875C1221.75 337.226 1221.84 338.344 1222.02 339.229C1222.21 340.115 1222.47 340.875 1222.82 341.512V341.908H1215.77ZM1209.14 337.366C1209.84 337.366 1210.49 337.288 1211.09 337.133C1211.69 336.978 1212.23 336.776 1212.71 336.527C1213.2 336.279 1213.62 335.999 1213.97 335.689C1214.32 335.363 1214.59 335.037 1214.79 334.711V330.378H1211.24C1210.15 330.378 1209.23 330.479 1208.46 330.681C1207.69 330.868 1207.07 331.139 1206.58 331.497C1206.1 331.838 1205.74 332.257 1205.51 332.754C1205.27 333.236 1205.16 333.763 1205.16 334.338C1205.16 335.208 1205.48 335.93 1206.13 336.504C1206.8 337.079 1207.8 337.366 1209.14 337.366Z" fill="white"/>
<path d="M830.621 269.538H1044.99C1058.22 269.538 1068.95 258.813 1068.95 245.583V137.094C1068.95 123.864 1079.67 113.139 1092.9 113.139H1145.81" stroke="#BEBEBE" stroke-opacity="0.26" stroke-width="0.958187"/>
<path d="M1001.62 275.084V316.019C1001.62 329.248 1012.35 339.973 1025.58 339.973H1138.66" stroke="#BEBEBE" stroke-opacity="0.26" stroke-width="0.958187"/>
<path d="M508.306 451.293H510.858L515.295 462.127H515.458L519.895 451.293H522.447V465.23H520.446V455.145H520.317L516.207 465.21H514.546L510.436 455.138H510.307V465.23H508.306V451.293ZM529.846 465.441C528.816 465.441 527.929 465.221 527.185 464.781C526.446 464.336 525.874 463.712 525.471 462.909C525.071 462.102 524.872 461.156 524.872 460.072C524.872 459.001 525.071 458.057 525.471 457.241C525.874 456.424 526.437 455.786 527.158 455.328C527.884 454.87 528.733 454.641 529.703 454.641C530.293 454.641 530.865 454.738 531.418 454.934C531.972 455.129 532.469 455.435 532.909 455.852C533.349 456.27 533.696 456.812 533.95 457.479C534.204 458.141 534.331 458.946 534.331 459.895V460.616H526.022V459.092H532.337C532.337 458.556 532.228 458.082 532.01 457.669C531.793 457.252 531.486 456.923 531.092 456.683C530.702 456.442 530.243 456.322 529.717 456.322C529.145 456.322 528.646 456.462 528.22 456.744C527.798 457.021 527.471 457.383 527.24 457.833C527.013 458.277 526.9 458.76 526.9 459.282V460.473C526.9 461.172 527.022 461.766 527.267 462.256C527.517 462.746 527.864 463.12 528.308 463.379C528.753 463.633 529.272 463.76 529.867 463.76C530.252 463.76 530.604 463.706 530.922 463.597C531.239 463.483 531.514 463.315 531.745 463.093C531.976 462.871 532.153 462.596 532.276 462.27L534.202 462.617C534.047 463.184 533.771 463.681 533.371 464.107C532.977 464.529 532.48 464.858 531.881 465.094C531.287 465.325 530.609 465.441 529.846 465.441ZM541.468 454.777V456.41H535.758V454.777H541.468ZM537.29 452.273H539.324V462.161C539.324 462.555 539.383 462.853 539.501 463.052C539.619 463.247 539.771 463.381 539.957 463.454C540.148 463.522 540.354 463.556 540.577 463.556C540.74 463.556 540.883 463.545 541.005 463.522C541.128 463.499 541.223 463.481 541.291 463.467L541.659 465.148C541.541 465.194 541.373 465.239 541.155 465.284C540.937 465.334 540.665 465.362 540.338 465.366C539.803 465.375 539.304 465.28 538.841 465.08C538.378 464.881 538.004 464.572 537.718 464.155C537.433 463.737 537.29 463.213 537.29 462.583V452.273ZM546.761 465.461C546.099 465.461 545.5 465.339 544.964 465.094C544.429 464.844 544.005 464.484 543.692 464.012C543.383 463.54 543.229 462.962 543.229 462.276C543.229 461.687 543.342 461.201 543.569 460.82C543.796 460.439 544.102 460.137 544.488 459.915C544.874 459.693 545.305 459.525 545.781 459.411C546.257 459.298 546.743 459.212 547.237 459.153C547.863 459.08 548.371 459.021 548.762 458.976C549.152 458.926 549.435 458.847 549.612 458.738C549.789 458.629 549.878 458.452 549.878 458.207V458.159C549.878 457.565 549.71 457.104 549.374 456.778C549.043 456.451 548.548 456.288 547.891 456.288C547.206 456.288 546.666 456.44 546.271 456.744C545.881 457.043 545.611 457.377 545.461 457.744L543.549 457.309C543.776 456.673 544.107 456.161 544.542 455.771C544.982 455.376 545.488 455.09 546.06 454.913C546.632 454.732 547.233 454.641 547.863 454.641C548.281 454.641 548.723 454.691 549.19 454.791C549.662 454.886 550.102 455.063 550.511 455.321C550.923 455.58 551.261 455.95 551.525 456.431C551.788 456.907 551.919 457.526 551.919 458.289V465.23H549.932V463.801H549.851C549.719 464.064 549.522 464.323 549.258 464.577C548.995 464.831 548.657 465.042 548.244 465.21C547.832 465.377 547.337 465.461 546.761 465.461ZM547.203 463.828C547.766 463.828 548.247 463.717 548.646 463.495C549.05 463.272 549.356 462.982 549.565 462.624C549.778 462.261 549.885 461.873 549.885 461.46V460.112C549.812 460.185 549.671 460.253 549.463 460.317C549.258 460.376 549.025 460.428 548.762 460.473C548.499 460.514 548.242 460.552 547.993 460.589C547.743 460.621 547.534 460.648 547.367 460.67C546.972 460.72 546.611 460.804 546.285 460.922C545.962 461.04 545.704 461.21 545.509 461.433C545.318 461.65 545.223 461.941 545.223 462.304C545.223 462.807 545.409 463.188 545.781 463.447C546.153 463.701 546.627 463.828 547.203 463.828ZM558.543 465.434C557.699 465.434 556.946 465.219 556.283 464.788C555.625 464.352 555.108 463.733 554.732 462.93C554.36 462.122 554.174 461.154 554.174 460.024C554.174 458.894 554.362 457.928 554.738 457.125C555.12 456.322 555.641 455.707 556.304 455.281C556.966 454.854 557.717 454.641 558.556 454.641C559.205 454.641 559.727 454.75 560.121 454.968C560.521 455.181 560.829 455.43 561.047 455.716C561.269 456.002 561.442 456.254 561.564 456.472H561.687V451.293H563.721V465.23H561.734V463.604H561.564C561.442 463.826 561.265 464.08 561.033 464.366C560.806 464.652 560.493 464.901 560.094 465.114C559.695 465.328 559.178 465.434 558.543 465.434ZM558.992 463.699C559.577 463.699 560.072 463.545 560.475 463.236C560.884 462.923 561.192 462.49 561.401 461.936C561.614 461.383 561.721 460.738 561.721 460.004C561.721 459.278 561.616 458.642 561.408 458.098C561.199 457.554 560.893 457.129 560.489 456.825C560.085 456.521 559.586 456.369 558.992 456.369C558.379 456.369 557.869 456.528 557.461 456.846C557.052 457.163 556.744 457.597 556.535 458.146C556.331 458.695 556.229 459.314 556.229 460.004C556.229 460.702 556.333 461.331 556.542 461.889C556.751 462.447 557.059 462.889 557.467 463.216C557.88 463.538 558.388 463.699 558.992 463.699ZM569.668 465.461C569.005 465.461 568.406 465.339 567.871 465.094C567.336 464.844 566.911 464.484 566.598 464.012C566.29 463.54 566.136 462.962 566.136 462.276C566.136 461.687 566.249 461.201 566.476 460.82C566.703 460.439 567.009 460.137 567.395 459.915C567.78 459.693 568.211 459.525 568.688 459.411C569.164 459.298 569.649 459.212 570.144 459.153C570.77 459.08 571.278 459.021 571.668 458.976C572.058 458.926 572.342 458.847 572.519 458.738C572.696 458.629 572.784 458.452 572.784 458.207V458.159C572.784 457.565 572.617 457.104 572.281 456.778C571.95 456.451 571.455 456.288 570.797 456.288C570.112 456.288 569.572 456.44 569.178 456.744C568.787 457.043 568.517 457.377 568.368 457.744L566.455 457.309C566.682 456.673 567.013 456.161 567.449 455.771C567.889 455.376 568.395 455.09 568.967 454.913C569.538 454.732 570.139 454.641 570.77 454.641C571.187 454.641 571.63 454.691 572.097 454.791C572.569 454.886 573.009 455.063 573.417 455.321C573.83 455.58 574.168 455.95 574.431 456.431C574.694 456.907 574.826 457.526 574.826 458.289V465.23H572.839V463.801H572.757C572.626 464.064 572.428 464.323 572.165 464.577C571.902 464.831 571.564 465.042 571.151 465.21C570.738 465.377 570.244 465.461 569.668 465.461ZM570.11 463.828C570.672 463.828 571.153 463.717 571.553 463.495C571.956 463.272 572.263 462.982 572.471 462.624C572.685 462.261 572.791 461.873 572.791 461.46V460.112C572.719 460.185 572.578 460.253 572.369 460.317C572.165 460.376 571.931 460.428 571.668 460.473C571.405 460.514 571.149 460.552 570.899 460.589C570.65 460.621 570.441 460.648 570.273 460.67C569.879 460.72 569.518 460.804 569.191 460.922C568.869 461.04 568.61 461.21 568.415 461.433C568.225 461.65 568.13 461.941 568.13 462.304C568.13 462.807 568.316 463.188 568.688 463.447C569.06 463.701 569.534 463.828 570.11 463.828ZM582.416 454.777V456.41H576.706V454.777H582.416ZM578.237 452.273H580.272V462.161C580.272 462.555 580.331 462.853 580.449 463.052C580.567 463.247 580.719 463.381 580.905 463.454C581.095 463.522 581.302 463.556 581.524 463.556C581.687 463.556 581.83 463.545 581.953 463.522C582.075 463.499 582.171 463.481 582.239 463.467L582.606 465.148C582.488 465.194 582.32 465.239 582.103 465.284C581.885 465.334 581.613 465.362 581.286 465.366C580.751 465.375 580.252 465.28 579.789 465.08C579.326 464.881 578.952 464.572 578.666 464.155C578.38 463.737 578.237 463.213 578.237 462.583V452.273ZM587.708 465.461C587.046 465.461 586.447 465.339 585.912 465.094C585.376 464.844 584.952 464.484 584.639 464.012C584.331 463.54 584.176 462.962 584.176 462.276C584.176 461.687 584.29 461.201 584.517 460.82C584.744 460.439 585.05 460.137 585.435 459.915C585.821 459.693 586.252 459.525 586.728 459.411C587.205 459.298 587.69 459.212 588.185 459.153C588.811 459.08 589.319 459.021 589.709 458.976C590.099 458.926 590.383 458.847 590.56 458.738C590.737 458.629 590.825 458.452 590.825 458.207V458.159C590.825 457.565 590.657 457.104 590.322 456.778C589.99 456.451 589.496 456.288 588.838 456.288C588.153 456.288 587.613 456.44 587.218 456.744C586.828 457.043 586.558 457.377 586.409 457.744L584.496 457.309C584.723 456.673 585.054 456.161 585.49 455.771C585.93 455.376 586.436 455.09 587.007 454.913C587.579 454.732 588.18 454.641 588.811 454.641C589.228 454.641 589.671 454.691 590.138 454.791C590.61 454.886 591.05 455.063 591.458 455.321C591.871 455.58 592.209 455.95 592.472 456.431C592.735 456.907 592.867 457.526 592.867 458.289V465.23H590.88V463.801H590.798C590.666 464.064 590.469 464.323 590.206 464.577C589.943 464.831 589.605 465.042 589.192 465.21C588.779 465.377 588.285 465.461 587.708 465.461ZM588.151 463.828C588.713 463.828 589.194 463.717 589.593 463.495C589.997 463.272 590.304 462.982 590.512 462.624C590.725 462.261 590.832 461.873 590.832 461.46V460.112C590.759 460.185 590.619 460.253 590.41 460.317C590.206 460.376 589.972 460.428 589.709 460.473C589.446 460.514 589.19 460.552 588.94 460.589C588.691 460.621 588.482 460.648 588.314 460.67C587.919 460.72 587.559 460.804 587.232 460.922C586.91 461.04 586.651 461.21 586.456 461.433C586.266 461.65 586.17 461.941 586.17 462.304C586.17 462.807 586.356 463.188 586.728 463.447C587.1 463.701 587.575 463.828 588.151 463.828Z" fill="white"/>
<path d="M1136.09 6.59507H1133.97C1133.89 6.14138 1133.73 5.74214 1133.51 5.39733C1133.29 5.05253 1133.02 4.7599 1132.69 4.51945C1132.37 4.279 1132.01 4.09752 1131.61 3.97503C1131.22 3.85253 1130.8 3.79128 1130.35 3.79128C1129.55 3.79128 1128.83 3.99317 1128.2 4.39696C1127.57 4.80074 1127.07 5.3928 1126.7 6.17314C1126.34 6.95348 1126.15 7.90622 1126.15 9.03137C1126.15 10.1656 1126.34 11.1229 1126.7 11.9032C1127.07 12.6835 1127.57 13.2733 1128.2 13.6726C1128.84 14.0718 1129.55 14.2715 1130.35 14.2715C1130.79 14.2715 1131.2 14.2125 1131.6 14.0945C1132 13.972 1132.36 13.7928 1132.68 13.5569C1133 13.321 1133.28 13.0329 1133.5 12.6926C1133.72 12.3478 1133.88 11.9531 1133.97 11.5085L1136.09 11.5153C1135.98 12.2004 1135.76 12.831 1135.43 13.4072C1135.11 13.9788 1134.69 14.4733 1134.18 14.8907C1133.68 15.3036 1133.11 15.6234 1132.46 15.8503C1131.81 16.0771 1131.1 16.1905 1130.33 16.1905C1129.13 16.1905 1128.05 15.9047 1127.11 15.3331C1126.16 14.7569 1125.42 13.9335 1124.88 12.8628C1124.34 11.7921 1124.07 10.5149 1124.07 9.03137C1124.07 7.54327 1124.34 6.26615 1124.88 5.19998C1125.43 4.12928 1126.17 3.30811 1127.11 2.73646C1128.06 2.16028 1129.13 1.87219 1130.33 1.87219C1131.07 1.87219 1131.76 1.9788 1132.4 2.19204C1133.05 2.40073 1133.62 2.70924 1134.14 3.11756C1134.65 3.52134 1135.07 4.01586 1135.41 4.60111C1135.75 5.18183 1135.97 5.84648 1136.09 6.59507ZM1142.85 16.211C1141.87 16.211 1141.01 15.9864 1140.28 15.5372C1139.55 15.0881 1138.98 14.4597 1138.58 13.6522C1138.18 12.8446 1137.97 11.9009 1137.97 10.8212C1137.97 9.73685 1138.18 8.78864 1138.58 7.97655C1138.98 7.16445 1139.55 6.53382 1140.28 6.08467C1141.01 5.63552 1141.87 5.41095 1142.85 5.41095C1143.83 5.41095 1144.68 5.63552 1145.41 6.08467C1146.14 6.53382 1146.71 7.16445 1147.11 7.97655C1147.52 8.78864 1147.72 9.73685 1147.72 10.8212C1147.72 11.9009 1147.52 12.8446 1147.11 13.6522C1146.71 14.4597 1146.14 15.0881 1145.41 15.5372C1144.68 15.9864 1143.83 16.211 1142.85 16.211ZM1142.85 14.5028C1143.49 14.5028 1144.01 14.335 1144.43 13.9992C1144.85 13.6635 1145.16 13.2166 1145.36 12.6586C1145.56 12.1006 1145.66 11.4858 1145.66 10.8144C1145.66 10.1474 1145.56 9.53496 1145.36 8.97693C1145.16 8.41435 1144.85 7.96293 1144.43 7.62267C1144.01 7.2824 1143.49 7.11227 1142.85 7.11227C1142.21 7.11227 1141.68 7.2824 1141.26 7.62267C1140.84 7.96293 1140.53 8.41435 1140.33 8.97693C1140.13 9.53496 1140.03 10.1474 1140.03 10.8144C1140.03 11.4858 1140.13 12.1006 1140.33 12.6586C1140.53 13.2166 1140.84 13.6635 1141.26 13.9992C1141.68 14.335 1142.21 14.5028 1142.85 14.5028ZM1152.02 9.79356V16H1149.99V5.54705H1151.94V7.24838H1152.07C1152.31 6.69488 1152.69 6.25027 1153.2 5.91454C1153.72 5.57881 1154.37 5.41095 1155.16 5.41095C1155.87 5.41095 1156.49 5.56066 1157.03 5.8601C1157.56 6.15499 1157.98 6.59507 1158.27 7.18032C1158.57 7.76558 1158.71 8.48921 1158.71 9.35122V16H1156.68V9.59621C1156.68 8.83855 1156.48 8.24649 1156.09 7.82002C1155.69 7.38902 1155.15 7.17352 1154.46 7.17352C1153.99 7.17352 1153.57 7.2756 1153.2 7.47976C1152.84 7.68392 1152.55 7.98335 1152.34 8.37806C1152.13 8.76823 1152.02 9.24006 1152.02 9.79356ZM1169.28 8.09904L1167.43 8.4257C1167.36 8.18978 1167.23 7.9652 1167.06 7.75197C1166.9 7.53874 1166.68 7.36407 1166.4 7.22796C1166.12 7.09186 1165.76 7.0238 1165.34 7.0238C1164.77 7.0238 1164.29 7.1531 1163.9 7.4117C1163.51 7.66577 1163.32 7.99469 1163.32 8.39847C1163.32 8.74781 1163.45 9.0291 1163.71 9.24233C1163.97 9.45557 1164.39 9.63023 1164.96 9.76634L1166.62 10.1474C1167.58 10.3697 1168.3 10.7123 1168.77 11.175C1169.24 11.6378 1169.48 12.2389 1169.48 12.9784C1169.48 13.6045 1169.3 14.1626 1168.94 14.6525C1168.58 15.138 1168.08 15.5191 1167.43 15.7958C1166.79 16.0726 1166.05 16.211 1165.21 16.211C1164.04 16.211 1163.08 15.9614 1162.34 15.4624C1161.6 14.9588 1161.15 14.2442 1160.98 13.3187L1162.95 13.0193C1163.07 13.5319 1163.32 13.9198 1163.7 14.183C1164.08 14.4416 1164.58 14.5709 1165.19 14.5709C1165.86 14.5709 1166.39 14.4325 1166.79 14.1558C1167.19 13.8745 1167.39 13.5319 1167.39 13.1282C1167.39 12.8015 1167.27 12.527 1167.02 12.3047C1166.78 12.0824 1166.41 11.9145 1165.91 11.8011L1164.15 11.4132C1163.17 11.1909 1162.45 10.837 1161.98 10.3516C1161.52 9.86615 1161.29 9.25141 1161.29 8.50736C1161.29 7.89034 1161.46 7.35046 1161.8 6.8877C1162.15 6.42494 1162.63 6.06425 1163.23 5.80565C1163.84 5.54251 1164.54 5.41095 1165.32 5.41095C1166.45 5.41095 1167.34 5.65594 1167.99 6.14592C1168.64 6.63136 1169.07 7.2824 1169.28 8.09904ZM1176.22 16.211C1175.19 16.211 1174.31 15.9909 1173.56 15.5508C1172.82 15.1062 1172.25 14.4824 1171.85 13.6794C1171.45 12.8718 1171.25 11.9259 1171.25 10.8416C1171.25 9.77088 1171.45 8.82721 1171.85 8.01057C1172.25 7.19394 1172.81 6.55651 1173.53 6.09828C1174.26 5.64006 1175.11 5.41095 1176.08 5.41095C1176.67 5.41095 1177.24 5.50849 1177.79 5.70357C1178.35 5.89866 1178.85 6.2049 1179.29 6.62229C1179.73 7.03968 1180.07 7.58184 1180.33 8.24876C1180.58 8.91114 1180.71 9.71644 1180.71 10.6646V11.386H1172.4V9.86162H1178.71C1178.71 9.32626 1178.6 8.85216 1178.39 8.43931C1178.17 8.02191 1177.86 7.69299 1177.47 7.45254C1177.08 7.21208 1176.62 7.09186 1176.09 7.09186C1175.52 7.09186 1175.02 7.2325 1174.6 7.51378C1174.17 7.79053 1173.85 8.15348 1173.62 8.60263C1173.39 9.04725 1173.28 9.53042 1173.28 10.0522V11.2431C1173.28 11.9418 1173.4 12.5361 1173.64 13.0261C1173.89 13.5161 1174.24 13.8904 1174.68 14.149C1175.13 14.403 1175.65 14.5301 1176.24 14.5301C1176.63 14.5301 1176.98 14.4756 1177.3 14.3667C1177.62 14.2533 1177.89 14.0854 1178.12 13.8631C1178.35 13.6408 1178.53 13.3663 1178.65 13.0397L1180.58 13.3868C1180.42 13.9539 1180.15 14.4507 1179.75 14.8771C1179.35 15.2991 1178.86 15.628 1178.26 15.8639C1177.66 16.0953 1176.99 16.211 1176.22 16.211ZM1185 9.79356V16H1182.97V5.54705H1184.92V7.24838H1185.05C1185.29 6.69488 1185.66 6.25027 1186.18 5.91454C1186.69 5.57881 1187.35 5.41095 1188.13 5.41095C1188.84 5.41095 1189.47 5.56066 1190 5.8601C1190.54 6.15499 1190.95 6.59507 1191.25 7.18032C1191.54 7.76558 1191.69 8.48921 1191.69 9.35122V16H1189.65V9.59621C1189.65 8.83855 1189.46 8.24649 1189.06 7.82002C1188.67 7.38902 1188.13 7.17352 1187.44 7.17352C1186.96 7.17352 1186.54 7.2756 1186.18 7.47976C1185.81 7.68392 1185.53 7.98335 1185.31 8.37806C1185.1 8.76823 1185 9.24006 1185 9.79356ZM1202.25 8.09904L1200.41 8.4257C1200.33 8.18978 1200.21 7.9652 1200.04 7.75197C1199.88 7.53874 1199.65 7.36407 1199.37 7.22796C1199.09 7.09186 1198.74 7.0238 1198.32 7.0238C1197.74 7.0238 1197.26 7.1531 1196.88 7.4117C1196.49 7.66577 1196.3 7.99469 1196.3 8.39847C1196.3 8.74781 1196.43 9.0291 1196.68 9.24233C1196.94 9.45557 1197.36 9.63023 1197.94 9.76634L1199.6 10.1474C1200.56 10.3697 1201.28 10.7123 1201.75 11.175C1202.22 11.6378 1202.46 12.2389 1202.46 12.9784C1202.46 13.6045 1202.27 14.1626 1201.91 14.6525C1201.55 15.138 1201.05 15.5191 1200.41 15.7958C1199.77 16.0726 1199.03 16.211 1198.18 16.211C1197.01 16.211 1196.06 15.9614 1195.32 15.4624C1194.58 14.9588 1194.12 14.2442 1193.96 13.3187L1195.92 13.0193C1196.05 13.5319 1196.3 13.9198 1196.68 14.183C1197.06 14.4416 1197.56 14.5709 1198.17 14.5709C1198.84 14.5709 1199.37 14.4325 1199.77 14.1558C1200.17 13.8745 1200.37 13.5319 1200.37 13.1282C1200.37 12.8015 1200.24 12.527 1200 12.3047C1199.76 12.0824 1199.39 11.9145 1198.89 11.8011L1197.12 11.4132C1196.14 11.1909 1195.42 10.837 1194.96 10.3516C1194.49 9.86615 1194.26 9.25141 1194.26 8.50736C1194.26 7.89034 1194.43 7.35046 1194.78 6.8877C1195.12 6.42494 1195.6 6.06425 1196.21 5.80565C1196.82 5.54251 1197.51 5.41095 1198.3 5.41095C1199.43 5.41095 1200.32 5.65594 1200.97 6.14592C1201.61 6.63136 1202.04 7.2824 1202.25 8.09904ZM1211.31 11.665V5.54705H1213.36V16H1211.36V14.1898H1211.25C1211.01 14.7478 1210.62 15.2129 1210.09 15.5849C1209.56 15.9524 1208.91 16.1361 1208.12 16.1361C1207.45 16.1361 1206.86 15.9887 1206.34 15.6938C1205.83 15.3943 1205.42 14.952 1205.13 14.3667C1204.84 13.7815 1204.69 13.0578 1204.69 12.1958V5.54705H1206.73V11.9508C1206.73 12.6631 1206.93 13.2302 1207.32 13.6522C1207.71 14.0741 1208.23 14.2851 1208.86 14.2851C1209.24 14.2851 1209.62 14.1898 1209.99 13.9992C1210.38 13.8087 1210.69 13.5206 1210.94 13.135C1211.19 12.7493 1211.32 12.2594 1211.31 11.665ZM1223.92 8.09904L1222.08 8.4257C1222 8.18978 1221.88 7.9652 1221.71 7.75197C1221.55 7.53874 1221.33 7.36407 1221.04 7.22796C1220.76 7.09186 1220.41 7.0238 1219.99 7.0238C1219.41 7.0238 1218.93 7.1531 1218.55 7.4117C1218.16 7.66577 1217.97 7.99469 1217.97 8.39847C1217.97 8.74781 1218.1 9.0291 1218.36 9.24233C1218.61 9.45557 1219.03 9.63023 1219.61 9.76634L1221.27 10.1474C1222.23 10.3697 1222.95 10.7123 1223.42 11.175C1223.89 11.6378 1224.13 12.2389 1224.13 12.9784C1224.13 13.6045 1223.95 14.1626 1223.58 14.6525C1223.22 15.138 1222.72 15.5191 1222.08 15.7958C1221.44 16.0726 1220.7 16.211 1219.85 16.211C1218.68 16.211 1217.73 15.9614 1216.99 15.4624C1216.25 14.9588 1215.8 14.2442 1215.63 13.3187L1217.59 13.0193C1217.72 13.5319 1217.97 13.9198 1218.35 14.183C1218.73 14.4416 1219.23 14.5709 1219.84 14.5709C1220.51 14.5709 1221.04 14.4325 1221.44 14.1558C1221.84 13.8745 1222.04 13.5319 1222.04 13.1282C1222.04 12.8015 1221.92 12.527 1221.67 12.3047C1221.43 12.0824 1221.06 11.9145 1220.56 11.8011L1218.79 11.4132C1217.82 11.1909 1217.1 10.837 1216.63 10.3516C1216.16 9.86615 1215.93 9.25141 1215.93 8.50736C1215.93 7.89034 1216.11 7.35046 1216.45 6.8877C1216.8 6.42494 1217.27 6.06425 1217.88 5.80565C1218.49 5.54251 1219.18 5.41095 1219.97 5.41095C1221.1 5.41095 1221.99 5.65594 1222.64 6.14592C1223.29 6.63136 1223.71 7.2824 1223.92 8.09904ZM1231.6 16V2.06274H1233.7V14.1898H1240.02V16H1231.6ZM1245.3 16.2314C1244.63 16.2314 1244.03 16.1089 1243.5 15.8639C1242.96 15.6144 1242.54 15.2537 1242.23 14.7819C1241.92 14.31 1241.76 13.7316 1241.76 13.0465C1241.76 12.4567 1241.88 11.9713 1242.1 11.5902C1242.33 11.2091 1242.64 10.9074 1243.02 10.6851C1243.41 10.4628 1243.84 10.2949 1244.32 10.1815C1244.79 10.068 1245.28 9.98184 1245.77 9.92286C1246.4 9.85027 1246.91 9.79129 1247.3 9.74592C1247.69 9.69602 1247.97 9.61662 1248.15 9.50774C1248.32 9.39885 1248.41 9.22192 1248.41 8.97693V8.92929C1248.41 8.33496 1248.24 7.87447 1247.91 7.54781C1247.58 7.22116 1247.08 7.05783 1246.42 7.05783C1245.74 7.05783 1245.2 7.20981 1244.81 7.51378C1244.41 7.81322 1244.14 8.14668 1244 8.51416L1242.08 8.07863C1242.31 7.44346 1242.64 6.9308 1243.08 6.54063C1243.52 6.14592 1244.02 5.8601 1244.59 5.68316C1245.17 5.50168 1245.77 5.41095 1246.4 5.41095C1246.81 5.41095 1247.26 5.46085 1247.72 5.56066C1248.2 5.65594 1248.64 5.83287 1249.04 6.09148C1249.46 6.35008 1249.8 6.71983 1250.06 7.20074C1250.32 7.67711 1250.45 8.2964 1250.45 9.05859V16H1248.47V14.5709H1248.38C1248.25 14.834 1248.06 15.0926 1247.79 15.3467C1247.53 15.6008 1247.19 15.8117 1246.78 15.9796C1246.37 16.1474 1245.87 16.2314 1245.3 16.2314ZM1245.74 14.5981C1246.3 14.5981 1246.78 14.487 1247.18 14.2646C1247.58 14.0423 1247.89 13.752 1248.1 13.3936C1248.31 13.0306 1248.42 12.6427 1248.42 12.2299V10.8824C1248.35 10.955 1248.21 11.0231 1248 11.0866C1247.79 11.1455 1247.56 11.1977 1247.3 11.2431C1247.03 11.2839 1246.78 11.3225 1246.53 11.3588C1246.28 11.3905 1246.07 11.4178 1245.9 11.4404C1245.51 11.4904 1245.15 11.5743 1244.82 11.6922C1244.5 11.8102 1244.24 11.9803 1244.04 12.2026C1243.85 12.4204 1243.76 12.7108 1243.76 13.0737C1243.76 13.5773 1243.94 13.9584 1244.32 14.217C1244.69 14.4711 1245.16 14.5981 1245.74 14.5981ZM1254.08 19.9199C1253.77 19.9199 1253.49 19.8949 1253.25 19.845C1253 19.7996 1252.81 19.7497 1252.69 19.6953L1253.18 18.028C1253.55 18.1278 1253.88 18.1709 1254.17 18.1573C1254.46 18.1437 1254.72 18.0348 1254.94 17.8306C1255.17 17.6265 1255.37 17.293 1255.54 16.8302L1255.79 16.1361L1251.97 5.54705H1254.14L1256.79 13.659H1256.9L1259.55 5.54705H1261.73L1257.42 17.3951C1257.22 17.9395 1256.97 18.4 1256.66 18.7766C1256.35 19.1577 1255.99 19.4435 1255.56 19.634C1255.13 19.8246 1254.64 19.9199 1254.08 19.9199ZM1267.79 16.211C1266.76 16.211 1265.88 15.9909 1265.13 15.5508C1264.39 15.1062 1263.82 14.4824 1263.42 13.6794C1263.02 12.8718 1262.82 11.9259 1262.82 10.8416C1262.82 9.77088 1263.02 8.82721 1263.42 8.01057C1263.82 7.19394 1264.38 6.55651 1265.11 6.09828C1265.83 5.64006 1266.68 5.41095 1267.65 5.41095C1268.24 5.41095 1268.81 5.50849 1269.37 5.70357C1269.92 5.89866 1270.42 6.2049 1270.86 6.62229C1271.3 7.03968 1271.64 7.58184 1271.9 8.24876C1272.15 8.91114 1272.28 9.71644 1272.28 10.6646V11.386H1263.97V9.86162H1270.28C1270.28 9.32626 1270.18 8.85216 1269.96 8.43931C1269.74 8.02191 1269.43 7.69299 1269.04 7.45254C1268.65 7.21208 1268.19 7.09186 1267.66 7.09186C1267.09 7.09186 1266.59 7.2325 1266.17 7.51378C1265.75 7.79053 1265.42 8.15348 1265.19 8.60263C1264.96 9.04725 1264.85 9.53042 1264.85 10.0522V11.2431C1264.85 11.9418 1264.97 12.5361 1265.21 13.0261C1265.46 13.5161 1265.81 13.8904 1266.26 14.149C1266.7 14.403 1267.22 14.5301 1267.81 14.5301C1268.2 14.5301 1268.55 14.4756 1268.87 14.3667C1269.19 14.2533 1269.46 14.0854 1269.69 13.8631C1269.92 13.6408 1270.1 13.3663 1270.22 13.0397L1272.15 13.3868C1271.99 13.9539 1271.72 14.4507 1271.32 14.8771C1270.92 15.2991 1270.43 15.628 1269.83 15.8639C1269.23 16.0953 1268.56 16.211 1267.79 16.211ZM1274.54 16V5.54705H1276.5V7.20755H1276.61C1276.8 6.64497 1277.14 6.20263 1277.62 5.88051C1278.1 5.55386 1278.65 5.39053 1279.27 5.39053C1279.39 5.39053 1279.54 5.39507 1279.71 5.40414C1279.89 5.41321 1280.03 5.42456 1280.13 5.43817V7.38448C1280.05 7.3618 1279.9 7.33685 1279.69 7.30963C1279.49 7.27787 1279.28 7.26199 1279.07 7.26199C1278.59 7.26199 1278.16 7.36407 1277.78 7.56823C1277.41 7.76785 1277.11 8.04687 1276.9 8.40528C1276.68 8.75916 1276.57 9.16294 1276.57 9.61662V16H1274.54Z" fill="white"/>
<path d="M1146.27 440.535C1146.2 439.89 1145.9 439.391 1145.37 439.037C1144.85 438.679 1144.18 438.5 1143.38 438.5C1142.81 438.5 1142.32 438.59 1141.9 438.772C1141.48 438.949 1141.16 439.194 1140.93 439.507C1140.7 439.815 1140.59 440.167 1140.59 440.562C1140.59 440.893 1140.66 441.179 1140.82 441.419C1140.98 441.66 1141.18 441.862 1141.44 442.025C1141.7 442.184 1141.97 442.318 1142.27 442.426C1142.56 442.531 1142.85 442.617 1143.12 442.685L1144.48 443.039C1144.93 443.148 1145.38 443.295 1145.85 443.481C1146.32 443.667 1146.75 443.912 1147.15 444.216C1147.55 444.52 1147.87 444.897 1148.11 445.346C1148.36 445.795 1148.49 446.333 1148.49 446.959C1148.49 447.748 1148.28 448.449 1147.88 449.062C1147.47 449.674 1146.89 450.157 1146.11 450.511C1145.35 450.865 1144.42 451.042 1143.33 451.042C1142.29 451.042 1141.38 450.876 1140.62 450.545C1139.86 450.214 1139.26 449.744 1138.83 449.136C1138.4 448.524 1138.16 447.798 1138.12 446.959H1140.23C1140.27 447.462 1140.43 447.882 1140.72 448.218C1141.01 448.549 1141.38 448.796 1141.83 448.96C1142.28 449.118 1142.78 449.198 1143.32 449.198C1143.91 449.198 1144.44 449.105 1144.9 448.919C1145.37 448.728 1145.74 448.465 1146 448.129C1146.27 447.789 1146.41 447.392 1146.41 446.938C1146.41 446.525 1146.29 446.187 1146.05 445.924C1145.82 445.661 1145.51 445.443 1145.11 445.271C1144.71 445.099 1144.26 444.947 1143.77 444.815L1142.12 444.366C1141 444.062 1140.12 443.615 1139.46 443.025C1138.82 442.435 1138.49 441.655 1138.49 440.684C1138.49 439.881 1138.71 439.18 1139.15 438.581C1139.58 437.983 1140.17 437.518 1140.91 437.186C1141.66 436.851 1142.5 436.683 1143.43 436.683C1144.38 436.683 1145.21 436.848 1145.93 437.18C1146.66 437.511 1147.23 437.967 1147.64 438.547C1148.06 439.124 1148.28 439.786 1148.3 440.535H1146.27ZM1155.72 440.358V441.991H1150.01V440.358H1155.72ZM1151.54 437.853H1153.57V447.741C1153.57 448.136 1153.63 448.433 1153.75 448.633C1153.87 448.828 1154.02 448.962 1154.21 449.034C1154.4 449.102 1154.6 449.136 1154.83 449.136C1154.99 449.136 1155.13 449.125 1155.25 449.102C1155.38 449.08 1155.47 449.062 1155.54 449.048L1155.91 450.729C1155.79 450.774 1155.62 450.82 1155.4 450.865C1155.19 450.915 1154.91 450.942 1154.59 450.947C1154.05 450.956 1153.55 450.86 1153.09 450.661C1152.63 450.461 1152.25 450.153 1151.97 449.735C1151.68 449.318 1151.54 448.794 1151.54 448.163V437.853ZM1162.26 451.022C1161.28 451.022 1160.42 450.797 1159.69 450.348C1158.96 449.899 1158.4 449.27 1157.99 448.463C1157.59 447.655 1157.39 446.711 1157.39 445.632C1157.39 444.547 1157.59 443.599 1157.99 442.787C1158.4 441.975 1158.96 441.344 1159.69 440.895C1160.42 440.446 1161.28 440.221 1162.26 440.221C1163.24 440.221 1164.09 440.446 1164.82 440.895C1165.56 441.344 1166.12 441.975 1166.53 442.787C1166.93 443.599 1167.13 444.547 1167.13 445.632C1167.13 446.711 1166.93 447.655 1166.53 448.463C1166.12 449.27 1165.56 449.899 1164.82 450.348C1164.09 450.797 1163.24 451.022 1162.26 451.022ZM1162.27 449.313C1162.9 449.313 1163.43 449.146 1163.84 448.81C1164.26 448.474 1164.57 448.027 1164.77 447.469C1164.97 446.911 1165.08 446.296 1165.08 445.625C1165.08 444.958 1164.97 444.346 1164.77 443.787C1164.57 443.225 1164.26 442.773 1163.84 442.433C1163.43 442.093 1162.9 441.923 1162.27 441.923C1161.63 441.923 1161.1 442.093 1160.67 442.433C1160.26 442.773 1159.95 443.225 1159.74 443.787C1159.54 444.346 1159.44 444.958 1159.44 445.625C1159.44 446.296 1159.54 446.911 1159.74 447.469C1159.95 448.027 1160.26 448.474 1160.67 448.81C1161.1 449.146 1161.63 449.313 1162.27 449.313ZM1169.4 450.811V440.358H1171.37V442.018H1171.48C1171.67 441.456 1172.01 441.013 1172.49 440.691C1172.97 440.364 1173.52 440.201 1174.13 440.201C1174.26 440.201 1174.41 440.206 1174.58 440.215C1174.76 440.224 1174.9 440.235 1175 440.249V442.195C1174.92 442.172 1174.77 442.147 1174.56 442.12C1174.35 442.088 1174.14 442.073 1173.94 442.073C1173.45 442.073 1173.03 442.175 1172.65 442.379C1172.28 442.578 1171.98 442.857 1171.76 443.216C1171.55 443.57 1171.44 443.973 1171.44 444.427V450.811H1169.4ZM1179.71 451.042C1179.04 451.042 1178.45 450.919 1177.91 450.674C1177.37 450.425 1176.95 450.064 1176.64 449.592C1176.33 449.121 1176.17 448.542 1176.17 447.857C1176.17 447.267 1176.29 446.782 1176.51 446.401C1176.74 446.02 1177.05 445.718 1177.43 445.496C1177.82 445.273 1178.25 445.105 1178.73 444.992C1179.2 444.879 1179.69 444.792 1180.18 444.733C1180.81 444.661 1181.32 444.602 1181.71 444.556C1182.1 444.507 1182.38 444.427 1182.56 444.318C1182.73 444.209 1182.82 444.032 1182.82 443.787V443.74C1182.82 443.146 1182.66 442.685 1182.32 442.358C1181.99 442.032 1181.49 441.868 1180.84 441.868C1180.15 441.868 1179.61 442.02 1179.22 442.324C1178.83 442.624 1178.56 442.957 1178.41 443.325L1176.49 442.889C1176.72 442.254 1177.05 441.741 1177.49 441.351C1177.93 440.956 1178.43 440.671 1179.01 440.494C1179.58 440.312 1180.18 440.221 1180.81 440.221C1181.23 440.221 1181.67 440.271 1182.14 440.371C1182.61 440.466 1183.05 440.643 1183.46 440.902C1183.87 441.161 1184.21 441.53 1184.47 442.011C1184.73 442.488 1184.86 443.107 1184.86 443.869V450.811H1182.88V449.381H1182.8C1182.66 449.645 1182.47 449.903 1182.2 450.157C1181.94 450.411 1181.6 450.622 1181.19 450.79C1180.78 450.958 1180.28 451.042 1179.71 451.042ZM1180.15 449.409C1180.71 449.409 1181.19 449.298 1181.59 449.075C1182 448.853 1182.3 448.563 1182.51 448.204C1182.72 447.841 1182.83 447.453 1182.83 447.04V445.693C1182.76 445.766 1182.62 445.834 1182.41 445.897C1182.2 445.956 1181.97 446.008 1181.71 446.054C1181.44 446.094 1181.19 446.133 1180.94 446.169C1180.69 446.201 1180.48 446.228 1180.31 446.251C1179.92 446.301 1179.56 446.385 1179.23 446.503C1178.91 446.621 1178.65 446.791 1178.45 447.013C1178.26 447.231 1178.17 447.521 1178.17 447.884C1178.17 448.388 1178.35 448.769 1178.73 449.028C1179.1 449.282 1179.57 449.409 1180.15 449.409ZM1191.96 454.948C1191.13 454.948 1190.41 454.839 1189.81 454.622C1189.22 454.404 1188.73 454.116 1188.36 453.757C1187.98 453.399 1187.7 453.006 1187.51 452.58L1189.26 451.859C1189.39 452.058 1189.55 452.269 1189.75 452.491C1189.96 452.718 1190.24 452.911 1190.6 453.07C1190.96 453.229 1191.42 453.308 1191.98 453.308C1192.75 453.308 1193.39 453.12 1193.89 452.743C1194.39 452.371 1194.65 451.777 1194.65 450.96V448.905H1194.52C1194.39 449.127 1194.22 449.375 1193.99 449.647C1193.76 449.919 1193.45 450.155 1193.05 450.355C1192.65 450.554 1192.13 450.654 1191.49 450.654C1190.66 450.654 1189.92 450.461 1189.26 450.076C1188.6 449.685 1188.08 449.111 1187.69 448.354C1187.31 447.592 1187.12 446.655 1187.12 445.543C1187.12 444.432 1187.31 443.479 1187.68 442.685C1188.07 441.891 1188.59 441.283 1189.25 440.861C1189.91 440.435 1190.66 440.221 1191.5 440.221C1192.15 440.221 1192.67 440.33 1193.07 440.548C1193.47 440.761 1193.78 441.011 1194.01 441.297C1194.23 441.583 1194.41 441.834 1194.53 442.052H1194.68V440.358H1196.67V451.042C1196.67 451.94 1196.47 452.677 1196.05 453.254C1195.63 453.83 1195.07 454.256 1194.35 454.533C1193.65 454.81 1192.85 454.948 1191.96 454.948ZM1191.94 448.966C1192.52 448.966 1193.02 448.83 1193.42 448.558C1193.83 448.281 1194.14 447.887 1194.35 447.374C1194.56 446.857 1194.67 446.237 1194.67 445.516C1194.67 444.813 1194.56 444.194 1194.35 443.658C1194.14 443.123 1193.84 442.705 1193.43 442.406C1193.03 442.102 1192.53 441.95 1191.94 441.95C1191.32 441.95 1190.81 442.109 1190.41 442.426C1190 442.739 1189.69 443.166 1189.48 443.706C1189.28 444.246 1189.17 444.849 1189.17 445.516C1189.17 446.201 1189.28 446.802 1189.49 447.319C1189.7 447.837 1190 448.24 1190.41 448.531C1190.83 448.821 1191.33 448.966 1191.94 448.966ZM1203.91 451.022C1202.88 451.022 1201.99 450.801 1201.25 450.361C1200.51 449.917 1199.94 449.293 1199.53 448.49C1199.13 447.682 1198.93 446.736 1198.93 445.652C1198.93 444.581 1199.13 443.638 1199.53 442.821C1199.94 442.004 1200.5 441.367 1201.22 440.909C1201.95 440.451 1202.79 440.221 1203.76 440.221C1204.35 440.221 1204.93 440.319 1205.48 440.514C1206.03 440.709 1206.53 441.015 1206.97 441.433C1207.41 441.85 1207.76 442.392 1208.01 443.059C1208.27 443.722 1208.39 444.527 1208.39 445.475V446.197H1200.08V444.672H1206.4C1206.4 444.137 1206.29 443.663 1206.07 443.25C1205.85 442.832 1205.55 442.504 1205.15 442.263C1204.76 442.023 1204.3 441.902 1203.78 441.902C1203.21 441.902 1202.71 442.043 1202.28 442.324C1201.86 442.601 1201.53 442.964 1201.3 443.413C1201.07 443.858 1200.96 444.341 1200.96 444.863V446.054C1200.96 446.752 1201.08 447.347 1201.33 447.837C1201.58 448.327 1201.93 448.701 1202.37 448.96C1202.81 449.214 1203.33 449.341 1203.93 449.341C1204.31 449.341 1204.67 449.286 1204.98 449.177C1205.3 449.064 1205.58 448.896 1205.81 448.674C1206.04 448.451 1206.21 448.177 1206.34 447.85L1208.26 448.197C1208.11 448.764 1207.83 449.261 1207.43 449.688C1207.04 450.11 1206.54 450.439 1205.94 450.674C1205.35 450.906 1204.67 451.022 1203.91 451.022ZM1215.89 450.811V436.873H1217.99V449H1224.3V450.811H1215.89ZM1229.58 451.042C1228.92 451.042 1228.32 450.919 1227.78 450.674C1227.25 450.425 1226.82 450.064 1226.51 449.592C1226.2 449.121 1226.05 448.542 1226.05 447.857C1226.05 447.267 1226.16 446.782 1226.39 446.401C1226.62 446.02 1226.92 445.718 1227.31 445.496C1227.69 445.273 1228.12 445.105 1228.6 444.992C1229.08 444.879 1229.56 444.792 1230.06 444.733C1230.68 444.661 1231.19 444.602 1231.58 444.556C1231.97 444.507 1232.26 444.427 1232.43 444.318C1232.61 444.209 1232.7 444.032 1232.7 443.787V443.74C1232.7 443.146 1232.53 442.685 1232.19 442.358C1231.86 442.032 1231.37 441.868 1230.71 441.868C1230.03 441.868 1229.49 442.02 1229.09 442.324C1228.7 442.624 1228.43 442.957 1228.28 443.325L1226.37 442.889C1226.6 442.254 1226.93 441.741 1227.36 441.351C1227.8 440.956 1228.31 440.671 1228.88 440.494C1229.45 440.312 1230.05 440.221 1230.68 440.221C1231.1 440.221 1231.54 440.271 1232.01 440.371C1232.48 440.466 1232.92 440.643 1233.33 440.902C1233.74 441.161 1234.08 441.53 1234.34 442.011C1234.61 442.488 1234.74 443.107 1234.74 443.869V450.811H1232.75V449.381H1232.67C1232.54 449.645 1232.34 449.903 1232.08 450.157C1231.82 450.411 1231.48 450.622 1231.06 450.79C1230.65 450.958 1230.16 451.042 1229.58 451.042ZM1230.02 449.409C1230.59 449.409 1231.07 449.298 1231.47 449.075C1231.87 448.853 1232.18 448.563 1232.38 448.204C1232.6 447.841 1232.7 447.453 1232.7 447.04V445.693C1232.63 445.766 1232.49 445.834 1232.28 445.897C1232.08 445.956 1231.84 446.008 1231.58 446.054C1231.32 446.094 1231.06 446.133 1230.81 446.169C1230.56 446.201 1230.35 446.228 1230.19 446.251C1229.79 446.301 1229.43 446.385 1229.1 446.503C1228.78 446.621 1228.52 446.791 1228.33 447.013C1228.14 447.231 1228.04 447.521 1228.04 447.884C1228.04 448.388 1228.23 448.769 1228.6 449.028C1228.97 449.282 1229.45 449.409 1230.02 449.409ZM1238.36 454.73C1238.06 454.73 1237.78 454.705 1237.53 454.656C1237.28 454.61 1237.1 454.56 1236.97 454.506L1237.46 452.839C1237.84 452.938 1238.17 452.981 1238.46 452.968C1238.75 452.954 1239 452.845 1239.23 452.641C1239.45 452.437 1239.65 452.104 1239.82 451.641L1240.08 450.947L1236.25 440.358H1238.43L1241.08 448.47H1241.19L1243.83 440.358H1246.02L1241.71 452.206C1241.51 452.75 1241.26 453.211 1240.95 453.587C1240.64 453.968 1240.27 454.254 1239.84 454.445C1239.42 454.635 1238.92 454.73 1238.36 454.73ZM1252.08 451.022C1251.05 451.022 1250.16 450.801 1249.42 450.361C1248.68 449.917 1248.11 449.293 1247.7 448.49C1247.3 447.682 1247.1 446.736 1247.1 445.652C1247.1 444.581 1247.3 443.638 1247.7 442.821C1248.11 442.004 1248.67 441.367 1249.39 440.909C1250.12 440.451 1250.97 440.221 1251.94 440.221C1252.53 440.221 1253.1 440.319 1253.65 440.514C1254.2 440.709 1254.7 441.015 1255.14 441.433C1255.58 441.85 1255.93 442.392 1256.18 443.059C1256.44 443.722 1256.56 444.527 1256.56 445.475V446.197H1248.25V444.672H1254.57C1254.57 444.137 1254.46 443.663 1254.24 443.25C1254.03 442.832 1253.72 442.504 1253.32 442.263C1252.93 442.023 1252.48 441.902 1251.95 441.902C1251.38 441.902 1250.88 442.043 1250.45 442.324C1250.03 442.601 1249.7 442.964 1249.47 443.413C1249.25 443.858 1249.13 444.341 1249.13 444.863V446.054C1249.13 446.752 1249.25 447.347 1249.5 447.837C1249.75 448.327 1250.1 448.701 1250.54 448.96C1250.99 449.214 1251.51 449.341 1252.1 449.341C1252.49 449.341 1252.84 449.286 1253.15 449.177C1253.47 449.064 1253.75 448.896 1253.98 448.674C1254.21 448.451 1254.39 448.177 1254.51 447.85L1256.43 448.197C1256.28 448.764 1256 449.261 1255.6 449.688C1255.21 450.11 1254.71 450.439 1254.11 450.674C1253.52 450.906 1252.84 451.022 1252.08 451.022ZM1258.82 450.811V440.358H1260.79V442.018H1260.9C1261.09 441.456 1261.42 441.013 1261.9 440.691C1262.39 440.364 1262.94 440.201 1263.55 440.201C1263.68 440.201 1263.83 440.206 1264 440.215C1264.18 440.224 1264.32 440.235 1264.42 440.249V442.195C1264.33 442.172 1264.19 442.147 1263.98 442.12C1263.77 442.088 1263.56 442.073 1263.35 442.073C1262.87 442.073 1262.44 442.175 1262.07 442.379C1261.7 442.578 1261.4 442.857 1261.18 443.216C1260.97 443.57 1260.86 443.973 1260.86 444.427V450.811H1258.82Z" fill="white"/>
<path d="M625.181 183.02C625.181 191.912 617.426 199.179 607.786 199.179C598.146 199.179 590.39 191.912 590.39 183.02C590.39 174.127 598.146 166.861 607.786 166.861C617.426 166.861 625.181 174.127 625.181 183.02Z" fill="#1E293B" stroke="#3D464F" stroke-width="0.958187"/>
<path d="M600.98 186.957L600.699 188.788C600.681 188.901 600.693 189.017 600.732 189.126C600.771 189.235 600.836 189.334 600.924 189.415C601.011 189.496 601.117 189.557 601.234 189.593C601.351 189.63 601.475 189.64 601.597 189.624L603.564 189.362C603.861 189.323 604.608 187.457 604.608 187.457C604.608 187.457 604.983 187.756 605.137 187.801C605.464 187.897 605.782 187.598 605.89 187.295L606.197 185.985C606.197 185.985 606.655 186.201 606.821 186.233C607.033 186.273 607.238 186.152 607.383 186.016C607.47 185.935 607.536 185.836 607.575 185.727L607.786 184.506C607.786 184.506 608.322 184.644 608.506 184.664C608.715 184.686 608.918 184.587 609.067 184.448L609.971 183.607C610.737 183.838 611.555 183.867 612.338 183.693C613.12 183.518 613.835 183.146 614.405 182.617C615.223 181.854 615.682 180.82 615.682 179.742C615.682 178.663 615.223 177.629 614.405 176.866C613.585 176.104 612.474 175.677 611.316 175.677C610.157 175.677 609.046 176.104 608.226 176.866C607.658 177.396 607.258 178.062 607.07 178.79C606.883 179.518 606.915 180.28 607.163 180.993L601.204 186.539C601.082 186.652 601.004 186.799 600.98 186.957V186.957ZM612.953 178.218C613.386 178.622 613.63 179.17 613.63 179.742C613.63 180.313 613.386 180.861 612.953 181.266L609.678 178.218C610.113 177.814 610.702 177.588 611.316 177.588C611.929 177.588 612.518 177.814 612.953 178.218Z" fill="white"/>
<defs>
<filter id="filter0_b_45_360" x="-44.7565" y="53.8291" width="439.957" height="334.917" filterUnits="userSpaceOnUse" color-interpolation-filters="sRGB">
<feFlood flood-opacity="0" result="BackgroundImageFix"/>
<feGaussianBlur in="BackgroundImageFix" stdDeviation="23"/>
<feComposite in2="SourceAlpha" operator="in" result="effect1_backgroundBlur_45_360"/>
<feBlend mode="normal" in="SourceGraphic" in2="effect1_backgroundBlur_45_360" result="shape"/>
</filter>
</defs>
</svg>
