<svg width="80" height="79" viewBox="0 0 80 79" fill="none" xmlns="http://www.w3.org/2000/svg">
<path opacity="0.3" fill-rule="evenodd" clip-rule="evenodd" d="M49.8112 72.1124C58.8405 72.1124 66.1603 64.7927 66.1603 55.7633C66.1603 46.7339 58.8405 39.4142 49.8112 39.4142C40.7818 39.4142 33.462 46.7339 33.462 55.7633C33.462 64.7927 40.7818 72.1124 49.8112 72.1124Z" fill="#94A3B8"/>
<path opacity="0.3" fill-rule="evenodd" clip-rule="evenodd" d="M30.1922 72.1124C39.2216 72.1124 46.5413 64.7927 46.5413 55.7633C46.5413 46.7339 39.2216 39.4142 30.1922 39.4142C21.1628 39.4142 13.8431 46.7339 13.8431 55.7633C13.8431 64.7927 21.1628 72.1124 30.1922 72.1124Z" fill="#94A3B8"/>
<path opacity="0.3" fill-rule="evenodd" clip-rule="evenodd" d="M23.6526 52.4935C32.682 52.4935 40.0017 45.1737 40.0017 36.1443C40.0017 27.115 32.682 19.7952 23.6526 19.7952C14.6232 19.7952 7.30347 27.115 7.30347 36.1443C7.30347 45.1737 14.6232 52.4935 23.6526 52.4935Z" fill="#94A3B8"/>
<path opacity="0.3" fill-rule="evenodd" clip-rule="evenodd" d="M56.3508 52.4935C65.3802 52.4935 72.6999 45.1737 72.6999 36.1443C72.6999 27.115 65.3802 19.7952 56.3508 19.7952C47.3214 19.7952 40.0017 27.115 40.0017 36.1443C40.0017 45.1737 47.3214 52.4935 56.3508 52.4935Z" fill="#94A3B8"/>
<path opacity="0.3" fill-rule="evenodd" clip-rule="evenodd" d="M40.0017 39.4141C49.031 39.4141 56.3508 32.0944 56.3508 23.065C56.3508 14.0356 49.031 6.71588 40.0017 6.71588C30.9723 6.71588 23.6526 14.0356 23.6526 23.065C23.6526 32.0944 30.9723 39.4141 40.0017 39.4141Z" fill="#94A3B8"/>
</svg>
