<svg width="86" height="81" viewBox="0 0 86 81" fill="none" xmlns="http://www.w3.org/2000/svg">
<path fill-rule="evenodd" clip-rule="evenodd" d="M53.5127 71.5758C53.5127 72.3043 54.4506 72.5998 54.8682 72.0028L80.838 34.8812C81.1835 34.3874 80.8302 33.7091 80.2276 33.7091H60.549V9.25293C60.549 8.5244 59.6112 8.22891 59.1936 8.82586L33.2237 45.9475C32.8782 46.4413 33.2315 47.1196 33.8342 47.1196H53.5127V71.5758Z" fill="#94A3B8"/>
<path opacity="0.3" fill-rule="evenodd" clip-rule="evenodd" d="M11.2947 18.4362C11.2947 17.6132 11.9618 16.9461 12.7848 16.9461H37.95C38.7729 16.9461 39.4401 17.6132 39.4401 18.4362V25.5139C39.4401 26.3368 38.7729 27.0039 37.95 27.0039H12.7848C11.9619 27.0039 11.2947 26.3368 11.2947 25.5139V18.4362ZM11.2947 58.6674C11.2947 57.8445 11.9618 57.1774 12.7848 57.1774H37.95C38.7729 57.1774 39.4401 57.8445 39.4401 58.6674V65.7451C39.4401 66.5681 38.7729 67.2352 37.95 67.2352H12.7848C11.9619 67.2352 11.2947 66.5681 11.2947 65.7451V58.6674ZM5.74844 37.0617C4.92551 37.0617 4.25839 37.7289 4.25839 38.5518V45.6295C4.25839 46.4524 4.92551 47.1195 5.74844 47.1195H27.3955C28.2184 47.1195 28.8856 46.4524 28.8856 45.6295V38.5518C28.8856 37.7288 28.2184 37.0617 27.3955 37.0617H5.74844Z" fill="#94A3B8"/>
</svg>
