<svg width="141" height="35" viewBox="0 0 141 35" fill="none" xmlns="http://www.w3.org/2000/svg">
<g opacity="0.4">
<path opacity="0.4" d="M2.97644 17.1189L0.571981 22.5867C0.434606 22.8991 0.586676 23.2594 0.91164 23.3915L6.59947 25.7029C6.92443 25.835 7.29923 25.6888 7.43661 25.3764L9.84107 19.9086C9.97844 19.5962 9.82637 19.2359 9.50141 19.1039L3.81358 16.7924C3.48861 16.6604 3.11381 16.8065 2.97644 17.1189Z" fill="#FF9F43"/>
<path opacity="0.4" d="M2.97644 17.1189L0.571981 22.5867C0.434606 22.8991 0.586676 23.2594 0.91164 23.3915L6.59947 25.7029C6.92443 25.835 7.29923 25.6888 7.43661 25.3764L9.84107 19.9086C9.97844 19.5962 9.82637 19.2359 9.50141 19.1039L3.81358 16.7924C3.48861 16.6604 3.11381 16.8065 2.97644 17.1189Z" fill="black" fill-opacity="0.2"/>
</g>
<path d="M9.84131 19.9087L7.43685 25.3765C7.29947 25.6889 7.45154 26.0492 7.77651 26.1813L13.4643 28.4927C13.7893 28.6248 14.1641 28.4786 14.3015 28.1662L16.7059 22.6984C16.8433 22.386 16.6912 22.0257 16.3663 21.8936L10.6784 19.5822C10.3535 19.4501 9.97868 19.5963 9.84131 19.9087Z" fill="#FF6B6B"/>
<g opacity="0.4">
<path opacity="0.4" d="M16.7056 22.6983L14.3012 28.1661C14.1638 28.4784 14.3159 28.8387 14.6408 28.9708L20.3287 31.2822C20.6536 31.4143 21.0284 31.2681 21.1658 30.9557L23.5703 25.4879C23.7076 25.1755 23.5556 24.8152 23.2306 24.6832L17.5428 22.3717C17.2178 22.2397 16.843 22.3859 16.7056 22.6983Z" fill="#10AC84"/>
<path opacity="0.4" d="M16.7056 22.6983L14.3012 28.1661C14.1638 28.4784 14.3159 28.8387 14.6408 28.9708L20.3287 31.2822C20.6536 31.4143 21.0284 31.2681 21.1658 30.9557L23.5703 25.4879C23.7076 25.1755 23.5556 24.8152 23.2306 24.6832L17.5428 22.3717C17.2178 22.2397 16.843 22.3859 16.7056 22.6983Z" fill="black" fill-opacity="0.2"/>
</g>
<path d="M5.87848 10.5199L3.47402 15.9877C3.33664 16.3001 3.48872 16.6604 3.81368 16.7925L9.50151 19.1039C9.82648 19.236 10.2013 19.0898 10.3387 18.7774L12.7431 13.3096C12.8805 12.9972 12.7284 12.6369 12.4034 12.5048L6.71562 10.1934C6.39065 10.0613 6.01585 10.2075 5.87848 10.5199Z" fill="#5F27CD"/>
<path d="M12.7433 13.3094L10.3388 18.7772C10.2015 19.0896 10.3535 19.4499 10.6785 19.582L16.3663 21.8934C16.6913 22.0255 17.0661 21.8793 17.2035 21.5669L19.6079 16.0991C19.7453 15.7867 19.5932 15.4264 19.2683 15.2943L13.5804 12.9829C13.2555 12.8508 12.8807 12.997 12.7433 13.3094Z" fill="#FECA57"/>
<path d="M19.6077 16.0992L17.2032 21.567C17.0658 21.8794 17.2179 22.2397 17.5429 22.3717L23.2307 24.6832C23.5557 24.8152 23.9305 24.669 24.0678 24.3566L26.4723 18.8888C26.6097 18.5764 26.4576 18.2161 26.1326 18.0841L20.4448 15.7726C20.1198 15.6406 19.745 15.7868 19.6077 16.0992Z" fill="#FF9F43"/>
<g opacity="0.4">
<path opacity="0.4" d="M8.78045 3.92082L6.376 9.38862C6.23862 9.70101 6.39069 10.0613 6.71566 10.1934L12.4035 12.5048C12.7284 12.6369 13.1032 12.4907 13.2406 12.1783L15.6451 6.71049C15.7825 6.3981 15.6304 6.0378 15.3054 5.90574L9.61759 3.5943C9.29263 3.46224 8.91783 3.60843 8.78045 3.92082Z" fill="#10AC84"/>
<path opacity="0.4" d="M8.78045 3.92082L6.376 9.38862C6.23862 9.70101 6.39069 10.0613 6.71566 10.1934L12.4035 12.5048C12.7284 12.6369 13.1032 12.4907 13.2406 12.1783L15.6451 6.71049C15.7825 6.3981 15.6304 6.0378 15.3054 5.90574L9.61759 3.5943C9.29263 3.46224 8.91783 3.60843 8.78045 3.92082Z" fill="black" fill-opacity="0.2"/>
</g>
<path d="M15.6453 6.71037L13.2408 12.1782C13.1034 12.4906 13.2555 12.8509 13.5805 12.9829L19.2683 15.2944C19.5933 15.4264 19.9681 15.2802 20.1054 14.9678L22.5099 9.50005C22.6473 9.18765 22.4952 8.82735 22.1702 8.69529L16.4824 6.38385C16.1574 6.25179 15.7826 6.39798 15.6453 6.71037Z" fill="#FF6B6B"/>
<g opacity="0.4">
<path opacity="0.4" d="M22.5097 9.50013L20.1052 14.9679C19.9679 15.2803 20.1199 15.6406 20.4449 15.7727L26.1327 18.0841C26.4577 18.2162 26.8325 18.07 26.9699 17.7576L29.3743 12.2898C29.5117 11.9774 29.3596 11.6171 29.0347 11.4851L23.3468 9.17361C23.0219 9.04155 22.6471 9.18774 22.5097 9.50013Z" fill="#2E86DE"/>
<path opacity="0.4" d="M22.5097 9.50013L20.1052 14.9679C19.9679 15.2803 20.1199 15.6406 20.4449 15.7727L26.1327 18.0841C26.4577 18.2162 26.8325 18.07 26.9699 17.7576L29.3743 12.2898C29.5117 11.9774 29.3596 11.6171 29.0347 11.4851L23.3468 9.17361C23.0219 9.04155 22.6471 9.18774 22.5097 9.50013Z" fill="black" fill-opacity="0.2"/>
</g>
<path d="M6.10991 9.65982L0.572862 12.2879C0.256513 12.4381 0.126681 12.8063 0.282875 13.1104L3.01673 18.4333C3.17292 18.7374 3.55599 18.8622 3.87234 18.712L9.40939 16.084C9.72574 15.9338 9.85557 15.5655 9.69938 15.2614L6.96552 9.93859C6.80933 9.63448 6.42626 9.50967 6.10991 9.65982Z" fill="#FF9F43"/>
<path d="M9.40959 16.084L3.87254 18.7121C3.5562 18.8623 3.42636 19.2305 3.58256 19.5347L6.31641 24.8575C6.4726 25.1616 6.85567 25.2864 7.17202 25.1363L12.7091 22.5082C13.0254 22.358 13.1552 21.9898 12.9991 21.6857L10.2652 16.3628C10.109 16.0587 9.72594 15.9339 9.40959 16.084Z" fill="#FF6B6B"/>
<path d="M12.7089 22.5082L7.17186 25.1363C6.85551 25.2865 6.72568 25.6547 6.88187 25.9588L9.61572 31.2817C9.77192 31.5858 10.155 31.7106 10.4713 31.5605L16.0084 28.9324C16.3247 28.7822 16.4546 28.414 16.2984 28.1099L13.5645 22.787C13.4083 22.4829 13.0253 22.3581 12.7089 22.5082Z" fill="#10AC84"/>
<path d="M12.7926 6.48791L7.2556 9.11601C6.93925 9.26616 6.80942 9.63441 6.96561 9.93852L9.69946 15.2614C9.85566 15.5655 10.2387 15.6903 10.5551 15.5401L16.0921 12.912C16.4085 12.7619 16.5383 12.3936 16.3821 12.0895L13.6483 6.76668C13.4921 6.46257 13.109 6.33776 12.7926 6.48791Z" fill="#5F27CD"/>
<path d="M16.0919 12.9122L10.5549 15.5403C10.2385 15.6904 10.1087 16.0587 10.2649 16.3628L12.9987 21.6857C13.1549 21.9898 13.538 22.1146 13.8543 21.9644L19.3914 19.3363C19.7077 19.1862 19.8376 18.8179 19.6814 18.5138L16.9475 13.191C16.7913 12.8869 16.4083 12.762 16.0919 12.9122Z" fill="#FECA57"/>
<path d="M19.3916 19.3364L13.8546 21.9645C13.5383 22.1147 13.4084 22.4829 13.5646 22.787L16.2985 28.1099C16.4547 28.414 16.8377 28.5388 17.1541 28.3886L22.6911 25.7606C23.0075 25.6104 23.1373 25.2421 22.9811 24.938L20.2473 19.6152C20.0911 19.3111 19.708 19.1863 19.3916 19.3364Z" fill="#FF9F43"/>
<path d="M19.4755 3.31613L13.9384 5.94422C13.6221 6.09437 13.4922 6.46263 13.6484 6.76674L16.3823 12.0896C16.5385 12.3937 16.9215 12.5185 17.2379 12.3684L22.7749 9.74027C23.0913 9.59011 23.2211 9.22186 23.0649 8.91775L20.3311 3.5949C20.1749 3.29079 19.7918 3.16598 19.4755 3.31613Z" fill="#10AC84"/>
<path d="M22.7746 9.74032L17.2376 12.3684C16.9212 12.5186 16.7914 12.8868 16.9476 13.1909L19.6815 18.5138C19.8377 18.8179 20.2207 18.9427 20.5371 18.7925L26.0741 16.1645C26.3905 16.0143 26.5203 15.6461 26.3641 15.3419L23.6303 10.0191C23.4741 9.71498 23.091 9.59017 22.7746 9.74032Z" fill="#FF6B6B"/>
<path d="M26.0744 16.1643L20.5373 18.7924C20.221 18.9426 20.0912 19.3108 20.2474 19.6149L22.9812 24.9378C23.1374 25.2419 23.5205 25.3667 23.8368 25.2166L29.3739 22.5885C29.6902 22.4383 29.82 22.0701 29.6638 21.766L26.93 16.4431C26.7738 16.139 26.3907 16.0142 26.0744 16.1643Z" fill="#2E86DE"/>
<path d="M52.5561 10.8557H56.5357L51.917 24.8182H48.3439L45.6715 16.3569L42.999 24.8182H39.426L34.8072 10.8557H38.7869L41.2561 19.4287L43.8995 10.8557H47.4434L50.0869 19.4566L52.5561 10.8557Z" fill="#151829"/>
<path d="M70.363 23.0869C68.8716 24.5018 67.0511 25.2092 64.9018 25.2092C62.7522 25.2092 60.9318 24.5018 59.4407 23.0869C57.9688 21.6534 57.2329 19.9034 57.2329 17.837C57.2329 15.7706 57.9688 14.0299 59.4407 12.615C60.9318 11.1815 62.7522 10.4648 64.9018 10.4648C67.0511 10.4648 68.8716 11.1815 70.363 12.615C71.8544 14.0299 72.5998 15.7706 72.5998 17.837C72.5998 19.9034 71.8544 21.6534 70.363 23.0869ZM62.084 20.6016C62.8394 21.3276 63.7786 21.6906 64.9018 21.6906C66.025 21.6906 66.9644 21.3276 67.7197 20.6016C68.4751 19.8755 68.8524 18.954 68.8524 17.837C68.8524 16.72 68.4751 15.7984 67.7197 15.0724C66.9644 14.3464 66.025 13.9833 64.9018 13.9833C63.7786 13.9833 62.8394 14.3464 62.084 15.0724C61.3482 15.7984 60.9802 16.72 60.9802 17.837C60.9802 18.954 61.3482 19.8755 62.084 20.6016Z" fill="#151829"/>
<path d="M78.9832 13.2572C79.332 12.3636 79.9033 11.6934 80.697 11.2466C81.5106 10.7998 82.4109 10.5765 83.3985 10.5765V14.5977C82.256 14.4673 81.2299 14.6908 80.3197 15.2679C79.4287 15.845 78.9832 16.8037 78.9832 18.1441V24.8182H75.2357V10.8557H78.9832V13.2572Z" fill="#151829"/>
<path d="M96.0607 5.27069H99.8081V24.8182H96.0607V23.1706C94.9566 24.5296 93.3883 25.2092 91.3548 25.2092C89.3986 25.2092 87.7238 24.5018 86.3291 23.0869C84.9542 21.6534 84.267 19.9034 84.267 17.8369C84.267 15.7705 84.9542 14.0298 86.3291 12.615C87.7238 11.1815 89.3986 10.4647 91.3548 10.4647C93.3883 10.4647 94.9566 11.1442 96.0607 12.5033V5.27069ZM89.1471 20.6853C89.9216 21.4114 90.8901 21.7744 92.0518 21.7744C93.2142 21.7744 94.1728 21.4114 94.9281 20.6853C95.6834 19.9406 96.0607 18.9912 96.0607 17.8369C96.0607 16.6827 95.6834 15.7426 94.9281 15.0165C94.1728 14.2718 93.2142 13.8995 92.0518 13.8995C90.8901 13.8995 89.9216 14.2718 89.1471 15.0165C88.3918 15.7426 88.0144 16.6827 88.0144 17.8369C88.0144 18.9912 88.3918 19.9406 89.1471 20.6853Z" fill="#151829"/>
<path d="M110.149 25.2092C107.96 25.2092 106.13 24.5018 104.658 23.0869C103.206 21.672 102.48 19.9221 102.48 17.837C102.48 15.7519 103.206 14.0019 104.658 12.5871C106.13 11.1722 107.96 10.4648 110.149 10.4648C111.562 10.4648 112.85 10.7906 114.012 11.4421C115.174 12.0937 116.056 12.9687 116.655 14.0671L113.432 15.8822C113.141 15.3051 112.695 14.849 112.095 14.5139C111.514 14.1788 110.856 14.0113 110.12 14.0113C108.996 14.0113 108.067 14.3743 107.331 15.1003C106.595 15.8078 106.227 16.72 106.227 17.837C106.227 18.9354 106.595 19.8476 107.331 20.5736C108.067 21.2811 108.996 21.6348 110.12 21.6348C110.875 21.6348 111.543 21.4766 112.124 21.16C112.725 20.8249 113.17 20.3689 113.46 19.7917L116.714 21.579C116.075 22.6773 115.174 23.5616 114.012 24.2318C112.85 24.8834 111.562 25.2092 110.149 25.2092Z" fill="#151829"/>
<path d="M121.635 19.317C122.138 21.0669 123.504 21.942 125.731 21.942C127.164 21.942 128.248 21.4766 128.985 20.5457L132.005 22.2212C130.573 24.2132 128.462 25.2092 125.673 25.2092C123.272 25.2092 121.345 24.5111 119.892 23.1148C118.439 21.7186 117.713 19.9593 117.713 17.837C117.713 15.7333 118.43 13.9833 119.863 12.5871C121.296 11.1722 123.136 10.4648 125.382 10.4648C127.512 10.4648 129.265 11.1722 130.64 12.5871C132.034 14.0019 132.731 15.7519 132.731 17.837C132.731 18.3024 132.683 18.7958 132.586 19.317H121.635ZM121.577 16.5245H128.985C128.771 15.5751 128.326 14.8676 127.648 14.4022C126.989 13.9368 126.235 13.7041 125.382 13.7041C124.375 13.7041 123.542 13.9554 122.884 14.4581C122.226 14.9421 121.79 15.6309 121.577 16.5245Z" fill="#151829"/>
<path d="M135.347 24.8182V4.43295H139.095V24.8182H135.347Z" fill="#151829"/>
</svg>
