<svg width="30" height="35" viewBox="0 0 30 35" fill="none" xmlns="http://www.w3.org/2000/svg">
<g clip-path="url(#clip0_165_459)">
<g opacity="0.4">
<path opacity="0.4" d="M2.75973 17.8663L0.355269 23.3341C0.217894 23.6465 0.369964 24.0068 0.694928 24.1389L6.38276 26.4503C6.70772 26.5824 7.08252 26.4362 7.2199 26.1238L9.62436 20.656C9.76173 20.3436 9.60966 19.9833 9.2847 19.8513L3.59687 17.5398C3.2719 17.4078 2.8971 17.5539 2.75973 17.8663Z" fill="#FF9F43"/>
<path opacity="0.4" d="M2.75973 17.8663L0.355269 23.3341C0.217894 23.6465 0.369964 24.0068 0.694928 24.1389L6.38276 26.4503C6.70772 26.5824 7.08252 26.4362 7.2199 26.1238L9.62436 20.656C9.76173 20.3436 9.60966 19.9833 9.2847 19.8513L3.59687 17.5398C3.2719 17.4078 2.8971 17.5539 2.75973 17.8663Z" fill="black" fill-opacity="0.2"/>
</g>
<path d="M9.6246 20.6564L7.22014 26.1242C7.08276 26.4366 7.23483 26.7969 7.5598 26.929L13.2476 29.2404C13.5726 29.3725 13.9474 29.2263 14.0848 28.9139L16.4892 23.4461C16.6266 23.1337 16.4745 22.7734 16.1496 22.6413L10.4617 20.3299C10.1368 20.1978 9.76197 20.344 9.6246 20.6564Z" fill="#FF6B6B"/>
<g opacity="0.4">
<path opacity="0.4" d="M16.4889 23.446L14.0845 28.9138C13.9471 29.2261 14.0992 29.5864 14.4241 29.7185L20.112 32.0299C20.4369 32.162 20.8117 32.0158 20.9491 31.7034L23.3536 26.2356C23.4909 25.9232 23.3389 25.5629 23.0139 25.4309L17.3261 23.1194C17.0011 22.9874 16.6263 23.1336 16.4889 23.446Z" fill="#10AC84"/>
<path opacity="0.4" d="M16.4889 23.446L14.0845 28.9138C13.9471 29.2261 14.0992 29.5864 14.4241 29.7185L20.112 32.0299C20.4369 32.162 20.8117 32.0158 20.9491 31.7034L23.3536 26.2356C23.4909 25.9232 23.3389 25.5629 23.0139 25.4309L17.3261 23.1194C17.0011 22.9874 16.6263 23.1336 16.4889 23.446Z" fill="black" fill-opacity="0.2"/>
</g>
<path d="M5.66183 11.2672L3.25737 16.735C3.11999 17.0474 3.27207 17.4077 3.59703 17.5398L9.28486 19.8512C9.60983 19.9833 9.98465 19.8371 10.1221 19.5247L12.5265 14.0569C12.6639 13.7445 12.5118 13.3842 12.1868 13.2521L6.49897 10.9407C6.174 10.8086 5.7992 10.9548 5.66183 11.2672Z" fill="#5F27CD"/>
<path d="M12.5266 14.0568L10.1221 19.5246C9.98478 19.837 10.1368 20.1973 10.4618 20.3294L16.1496 22.6408C16.4746 22.7729 16.8494 22.6267 16.9868 22.3143L19.3912 16.8465C19.5286 16.5341 19.3765 16.1738 19.0516 16.0417L13.3637 13.7303C13.0388 13.5982 12.664 13.7444 12.5266 14.0568Z" fill="#FECA57"/>
<path d="M19.391 16.8469L16.9865 22.3147C16.8491 22.6271 17.0012 22.9874 17.3262 23.1194L23.014 25.4309C23.339 25.5629 23.7138 25.4167 23.8511 25.1043L26.2556 19.6365C26.393 19.3241 26.2409 18.9638 25.9159 18.8318L20.2281 16.5203C19.9031 16.3883 19.5283 16.5345 19.391 16.8469Z" fill="#FF9F43"/>
<g opacity="0.4">
<path opacity="0.4" d="M8.5638 4.6686L6.15935 10.1364C6.02197 10.4488 6.17404 10.8091 6.49901 10.9412L12.1868 13.2526C12.5117 13.3847 12.8865 13.2385 13.0239 12.9261L15.4284 7.45827C15.5658 7.14588 15.4137 6.78558 15.0887 6.65352L9.40094 4.34208C9.07598 4.21002 8.70118 4.35621 8.5638 4.6686Z" fill="#10AC84"/>
<path opacity="0.4" d="M8.5638 4.6686L6.15935 10.1364C6.02197 10.4488 6.17404 10.8091 6.49901 10.9412L12.1868 13.2526C12.5117 13.3847 12.8865 13.2385 13.0239 12.9261L15.4284 7.45827C15.5658 7.14588 15.4137 6.78558 15.0887 6.65352L9.40094 4.34208C9.07598 4.21002 8.70118 4.35621 8.5638 4.6686Z" fill="black" fill-opacity="0.2"/>
</g>
<path d="M15.4286 7.45815L13.0241 12.926C12.8867 13.2384 13.0388 13.5987 13.3638 13.7307L19.0516 16.0422C19.3766 16.1742 19.7514 16.028 19.8887 15.7156L22.2932 10.2478C22.4306 9.93543 22.2785 9.57513 21.9535 9.44307L16.2657 7.13163C15.9407 6.99957 15.5659 7.14576 15.4286 7.45815Z" fill="#FF6B6B"/>
<g opacity="0.4">
<path opacity="0.4" d="M22.2931 10.2477L19.8886 15.7155C19.7513 16.0279 19.9033 16.3882 20.2283 16.5203L25.9161 18.8317C26.2411 18.9638 26.6159 18.8176 26.7533 18.5052L29.1577 13.0374C29.2951 12.725 29.143 12.3647 28.8181 12.2327L23.1302 9.92118C22.8053 9.78912 22.4305 9.93531 22.2931 10.2477Z" fill="#2E86DE"/>
<path opacity="0.4" d="M22.2931 10.2477L19.8886 15.7155C19.7513 16.0279 19.9033 16.3882 20.2283 16.5203L25.9161 18.8317C26.2411 18.9638 26.6159 18.8176 26.7533 18.5052L29.1577 13.0374C29.2951 12.725 29.143 12.3647 28.8181 12.2327L23.1302 9.92118C22.8053 9.78912 22.4305 9.93531 22.2931 10.2477Z" fill="black" fill-opacity="0.2"/>
</g>
<path d="M5.89319 10.4073L0.356144 13.0354C0.0397945 13.1856 -0.0900375 13.5538 0.0661565 13.8579L2.80001 19.1808C2.9562 19.4849 3.33927 19.6097 3.65562 19.4595L9.19267 16.8315C9.50902 16.6813 9.63885 16.313 9.48266 16.0089L6.7488 10.6861C6.59261 10.382 6.20954 10.2572 5.89319 10.4073Z" fill="#FF9F43"/>
<path d="M9.19287 16.8316L3.65582 19.4597C3.33948 19.6099 3.20964 19.9781 3.36584 20.2823L6.09969 25.6051C6.25588 25.9092 6.63895 26.034 6.9553 25.8839L12.4924 23.2558C12.8087 23.1056 12.9385 22.7374 12.7824 22.4333L10.0485 17.1104C9.89228 16.8063 9.50922 16.6815 9.19287 16.8316Z" fill="#FF6B6B"/>
<path d="M12.4922 23.2559L6.95514 25.884C6.63879 26.0342 6.50896 26.4024 6.66515 26.7065L9.399 32.0294C9.5552 32.3335 9.93828 32.4583 10.2546 32.3082L15.7917 29.6801C16.108 29.5299 16.2379 29.1617 16.0817 28.8576L13.3478 23.5348C13.1916 23.2307 12.8086 23.1058 12.4922 23.2559Z" fill="#10AC84"/>
<path d="M12.5759 7.23547L7.03888 9.86357C6.72253 10.0137 6.5927 10.382 6.74889 10.6861L9.48274 16.009C9.63894 16.3131 10.022 16.4379 10.3384 16.2877L15.8754 13.6596C16.1918 13.5095 16.3216 13.1412 16.1654 12.8371L13.4316 7.51424C13.2754 7.21013 12.8923 7.08532 12.5759 7.23547Z" fill="#5F27CD"/>
<path d="M15.8752 13.6598L10.3382 16.2879C10.0218 16.438 9.89202 16.8063 10.0482 17.1104L12.782 22.4333C12.9382 22.7374 13.3213 22.8622 13.6376 22.712L19.1747 20.0839C19.491 19.9338 19.6209 19.5655 19.4647 19.2614L16.7308 13.9386C16.5746 13.6345 16.1916 13.5096 15.8752 13.6598Z" fill="#FECA57"/>
<path d="M19.1749 20.0841L13.6379 22.7122C13.3216 22.8624 13.1917 23.2306 13.3479 23.5347L16.0818 28.8576C16.238 29.1617 16.621 29.2865 16.9374 29.1363L22.4744 26.5083C22.7908 26.3581 22.9206 25.9898 22.7644 25.6857L20.0306 20.3629C19.8744 20.0588 19.4913 19.934 19.1749 20.0841Z" fill="#FF9F43"/>
<path d="M19.2588 4.0636L13.7217 6.69169C13.4054 6.84184 13.2755 7.2101 13.4317 7.51421L16.1656 12.8371C16.3218 13.1412 16.7048 13.266 17.0212 13.1159L22.5582 10.4877C22.8746 10.3376 23.0044 9.96933 22.8482 9.66522L20.1144 4.34237C19.9582 4.03826 19.5751 3.91345 19.2588 4.0636Z" fill="#10AC84"/>
<path d="M22.558 10.4879L17.021 13.116C16.7046 13.2662 16.5748 13.6344 16.731 13.9385L19.4649 19.2614C19.6211 19.5655 20.0041 19.6903 20.3205 19.5401L25.8575 16.9121C26.1739 16.7619 26.3037 16.3937 26.1475 16.0895L23.4137 10.7667C23.2575 10.4626 22.8744 10.3378 22.558 10.4879Z" fill="#FF6B6B"/>
<path d="M25.8578 16.9117L20.3207 19.5398C20.0044 19.69 19.8746 20.0582 20.0308 20.3623L22.7646 25.6852C22.9208 25.9893 23.3039 26.1141 23.6202 25.964L29.1573 23.3359C29.4736 23.1857 29.6034 22.8175 29.4472 22.5134L26.7134 17.1905C26.5572 16.8864 26.1741 16.7616 25.8578 16.9117Z" fill="#2E86DE"/>
</g>
<defs>
<clipPath id="clip0_165_459">
<rect width="29.51" height="35" fill="white"/>
</clipPath>
</defs>
</svg>
