<svg width="2666" height="636" viewBox="0 0 2666 636" fill="none" xmlns="http://www.w3.org/2000/svg">
<path d="M1096.7 413.4C1095.3 410.7 1094.2 407.6 1093.2 404C1092.2 400.5 1091.4 396.7 1090.8 392.8C1087.7 396.2 1084.1 399.4 1080 402.4C1075.9 405.4 1071.4 408 1066.3 410.4C1061.4 412.6 1056 414.3 1050 415.5C1044 416.9 1037.6 417.5 1030.6 417.5C1019.3 417.5 1008.9 415.9 999.4 412.6C990 409.3 981.9 404.8 975.1 398.9C968.3 393.1 963 386.1 959.2 378.1C955.4 369.9 953.5 361.1 953.5 351.6C953.5 328.3 962.1 310.4 979.4 297.8C996.8 285 1022.7 278.6 1057.1 278.6H1088.7V265.5C1088.7 254.9 1085.2 246.5 1078.3 240.4C1071.4 234.1 1061.4 231 1048.3 231C1036.7 231 1028.3 233.5 1023 238.5C1017.7 243.4 1015 250 1015 258.3H958.3C958.3 248.9 960.3 240 964.4 231.6C968.6 223.2 974.7 215.8 982.6 209.4C990.6 203 1000.3 198 1011.8 194.3C1023.4 190.5 1036.5 188.6 1051.4 188.6C1064.7 188.6 1077.1 190.2 1088.5 193.5C1100.1 196.8 1110.1 201.6 1118.5 208C1126.9 214.4 1133.5 222.5 1138.3 232.3C1143.1 242 1145.4 253.2 1145.4 266V360.6C1145.4 372.4 1146.1 382.2 1147.6 390C1149.1 397.8 1151.3 404.4 1154.1 410V413.5H1096.7V413.4ZM1042.6 373.6C1048.3 373.6 1053.6 372.9 1058.5 371.6C1063.4 370.2 1067.8 368.5 1071.8 366.3C1075.7 364.1 1079.1 361.7 1082 359C1084.9 356.1 1087.1 353.3 1088.7 350.4V312.4H1059.7C1050.9 312.4 1043.3 313.3 1037.1 315.1C1030.8 316.7 1025.7 319.1 1021.8 322.2C1017.9 325.2 1014.9 328.9 1013 333.2C1011.1 337.4 1010.1 342 1010.1 347.1C1010.1 354.7 1012.8 361 1018.1 366.1C1023.6 371.1 1031.8 373.6 1042.6 373.6Z" fill="#222326"/>
<path d="M1368.2 188.6C1376.8 188.6 1384.7 189.2 1391.9 190.4C1399.2 191.5 1405.2 192.7 1409.6 194.1L1401.2 250.6C1393.7 248.8 1386 247.5 1378.2 246.7C1370.4 245.7 1363 245.3 1356 245.3C1340.1 245.3 1327.3 248.4 1317.7 254.5C1308.2 260.6 1301 269.4 1296.3 280.8V413.4H1239.6V192.7H1292.4L1295.1 228.8C1304.1 216.3 1314.8 206.5 1327.3 199.4C1339.7 192.2 1353.4 188.6 1368.2 188.6Z" fill="#222326"/>
<path d="M1601.8 344.2L1621 192.6H1673L1633.4 413.3H1583.6L1554.6 273L1526.7 413.3H1476.9L1437.3 192.6H1489.1L1508.3 344.8L1536 192.6H1573.9L1601.8 344.2Z" fill="#222326"/>
<path d="M1818.6 417.5C1801.6 417.5 1786.2 414.7 1772.3 409.1C1758.4 403.5 1746.5 396 1736.6 386.5C1726.7 376.8 1719 365.6 1713.6 352.6C1708.3 339.5 1705.6 325.6 1705.6 310.8V302.6C1705.6 285.7 1708.3 270.4 1713.6 256.5C1718.9 242.5 1726.3 230.5 1735.8 220.4C1745.3 210.3 1756.6 202.5 1769.7 196.9C1782.8 191.3 1797 188.5 1812.3 188.5C1828.2 188.5 1842.4 191.2 1854.7 196.5C1867.2 201.7 1877.7 209 1886.3 218.5C1895 228 1901.6 239.5 1906.1 253C1910.6 266.3 1912.8 281.1 1912.8 297.3V321.4H1763.1C1764.2 328.9 1766.4 335.7 1769.6 342C1773 348.1 1777.3 353.4 1782.4 357.9C1787.6 362.4 1793.5 365.9 1800.1 368.3C1806.8 370.7 1814 372 1821.9 372C1827.5 372 1833 371.5 1838.4 370.4C1844 369.3 1849.3 367.7 1854.3 365.7C1859.3 363.5 1864 360.9 1868.4 357.7C1872.8 354.6 1876.6 350.9 1879.8 346.7L1908.2 377.3C1904.7 382.3 1900 387.3 1894.3 392.2C1888.7 397 1882.1 401.2 1874.3 405.1C1866.7 408.8 1858.2 411.8 1848.8 414.1C1839.6 416.3 1829.5 417.5 1818.6 417.5ZM1811.9 234.5C1805.5 234.5 1799.7 235.7 1794.4 238C1789.1 240.2 1784.4 243.4 1780.3 247.6C1776.4 251.8 1773 256.8 1770.3 262.7C1767.6 268.5 1765.5 275.1 1764.2 282.3H1857.2V277.8C1856.9 271.8 1855.8 266.2 1853.7 260.9C1851.7 255.6 1848.7 251 1844.9 247.2C1841.1 243.3 1836.4 240.2 1830.8 238C1825.4 235.7 1819.1 234.5 1811.9 234.5Z" fill="#222326"/>
<path d="M2100.3 413.4C2098.9 410.7 2097.8 407.6 2096.8 404C2095.9 400.5 2095 396.7 2094.4 392.8C2091.3 396.2 2087.7 399.4 2083.6 402.4C2079.5 405.4 2075 408 2069.9 410.4C2065 412.6 2059.6 414.3 2053.6 415.5C2047.6 416.9 2041.2 417.5 2034.2 417.5C2022.9 417.5 2012.5 415.9 2003 412.6C1993.6 409.3 1985.5 404.8 1978.7 398.9C1971.9 393.1 1966.6 386.1 1962.8 378.1C1959 369.9 1957.1 361.1 1957.1 351.6C1957.1 328.3 1965.7 310.4 1983 297.8C2000.4 285 2026.3 278.6 2060.7 278.6H2092.3V265.5C2092.3 254.9 2088.8 246.5 2081.9 240.4C2075 234.1 2065 231 2051.9 231C2040.3 231 2031.9 233.5 2026.6 238.5C2021.3 243.4 2018.6 250 2018.6 258.3H1962C1962 248.9 1964 240 1968.1 231.6C1972.3 223.2 1978.4 215.8 1986.3 209.4C1994.3 203 2004 198 2015.5 194.3C2027.1 190.5 2040.3 188.6 2055.1 188.6C2068.4 188.6 2080.8 190.2 2092.2 193.5C2103.7 196.8 2113.7 201.6 2122.2 208C2130.7 214.4 2137.2 222.5 2142 232.3C2146.8 242 2149.1 253.2 2149.1 266V360.6C2149.1 372.4 2149.9 382.2 2151.4 390C2152.9 397.8 2155.1 404.4 2157.9 410V413.5H2100.3V413.4ZM2046.2 373.6C2051.9 373.6 2057.2 372.9 2062.1 371.6C2067 370.2 2071.4 368.5 2075.3 366.3C2079.3 364.1 2082.7 361.7 2085.5 359C2088.4 356.1 2090.6 353.3 2092.2 350.4V312.4H2063.2C2054.4 312.4 2046.8 313.3 2040.5 315.1C2034.2 316.7 2029.2 319.1 2025.2 322.2C2021.2 325.2 2018.3 328.9 2016.4 333.2C2014.5 337.4 2013.5 342 2013.5 347.1C2013.5 354.7 2016.1 361 2021.5 366.1C2027.2 371.1 2035.4 373.6 2046.2 373.6Z" fill="#222326"/>
<path d="M2307.1 347.9L2310 363.8L2312.9 348.5L2361.4 192.7H2420.6L2336.8 413.4H2283.6L2199.4 192.7H2258.6L2307.1 347.9Z" fill="#222326"/>
<path d="M2571.3 417.5C2554.3 417.5 2538.9 414.7 2525 409.1C2511.1 403.5 2499.2 396 2489.3 386.5C2479.4 376.8 2471.7 365.6 2466.2 352.6C2460.9 339.5 2458.2 325.6 2458.2 310.8V302.6C2458.2 285.7 2460.9 270.4 2466.2 256.5C2471.5 242.5 2478.9 230.5 2488.4 220.4C2497.9 210.3 2509.2 202.5 2522.3 196.9C2535.4 191.3 2549.6 188.5 2564.9 188.5C2580.8 188.5 2594.9 191.2 2607.3 196.5C2619.8 201.7 2630.4 209 2638.9 218.5C2647.6 228 2654.2 239.5 2658.7 253C2663.2 266.3 2665.4 281.1 2665.4 297.3V321.4H2515.7C2516.8 328.9 2519 335.7 2522.2 342C2525.6 348.1 2529.9 353.4 2535 357.9C2540.2 362.4 2546.1 365.9 2552.8 368.3C2559.5 370.7 2566.7 372 2574.6 372C2580.2 372 2585.7 371.5 2591.1 370.4C2596.7 369.3 2602 367.7 2607 365.7C2612 363.5 2616.7 360.9 2621.1 357.7C2625.5 354.6 2629.3 350.9 2632.5 346.7L2660.8 377.3C2657.3 382.3 2652.6 387.3 2646.9 392.2C2641.3 397 2634.7 401.2 2626.9 405.1C2619.3 408.8 2610.8 411.8 2601.4 414.1C2592.3 416.3 2582.2 417.5 2571.3 417.5ZM2564.6 234.5C2558.2 234.5 2552.4 235.7 2547.1 238C2541.8 240.2 2537.1 243.4 2533 247.6C2529.1 251.8 2525.7 256.8 2523 262.7C2520.3 268.5 2518.2 275.1 2516.9 282.3H2609.9V277.8C2609.6 271.8 2608.5 266.2 2606.4 260.9C2604.4 255.6 2601.4 251 2597.6 247.2C2593.8 243.3 2589.1 240.2 2583.5 238C2578.1 235.7 2571.7 234.5 2564.6 234.5Z" fill="#222326"/>
<path d="M317.9 610.8C479.664 610.8 610.8 479.664 610.8 317.9C610.8 156.136 479.664 25 317.9 25C156.136 25 25 156.136 25 317.9C25 479.664 156.136 610.8 317.9 610.8Z" stroke="#222326" stroke-width="49.9424"/>
<path d="M372.6 423.7C371.2 420.9 370 417.6 369 413.9C368 410.2 367.2 406.3 366.4 402.2C363.1 405.8 359.4 409.1 355.1 412.2C350.8 415.3 346.1 418.1 340.8 420.5C335.7 422.8 330 424.6 323.7 425.8C317.4 427.2 310.7 427.9 303.4 427.9C291.6 427.9 280.7 426.2 270.8 422.8C261 419.4 252.5 414.6 245.4 408.5C238.3 402.4 232.7 395.1 228.8 386.7C224.8 378.2 222.8 368.9 222.8 359C222.8 334.7 231.8 315.9 249.9 302.7C268.1 289.3 295.2 282.6 331.2 282.6H364.3V268.9C364.3 257.8 360.7 249.1 353.4 242.7C346.1 236.2 335.7 232.9 322 232.9C309.9 232.9 301.1 235.5 295.5 240.8C290 245.9 287.2 252.8 287.2 261.5H227.9C227.9 251.7 230 242.4 234.3 233.5C238.7 224.7 245 216.9 253.3 210.2C261.7 203.5 271.9 198.3 283.8 194.4C295.9 190.4 309.7 188.4 325.2 188.4C339.1 188.4 352.1 190.1 364 193.5C376.1 196.9 386.5 202 395.4 208.6C404.2 215.3 411.1 223.8 416.1 234C421.1 244.1 423.6 255.8 423.6 269.2V368.2C423.6 380.6 424.4 390.8 425.9 398.9C427.5 407 429.7 414 432.7 419.8V423.4H372.6V423.7ZM316.1 382.1C322.1 382.1 327.6 381.4 332.7 380C337.8 378.6 342.4 376.7 346.6 374.5C350.7 372.2 354.3 369.7 357.3 366.8C360.3 363.8 362.6 360.8 364.3 357.8V318.1H334C324.8 318.1 316.9 319 310.3 320.9C303.8 322.6 298.4 325.1 294.3 328.4C290.2 331.5 287.1 335.4 285.1 339.9C283.1 344.3 282.1 349.1 282.1 354.4C282.1 362.4 284.9 369 290.4 374.2C296.2 379.5 304.7 382.1 316.1 382.1Z" fill="#222326"/>
</svg>
