<svg width="115" height="33" viewBox="0 0 115 33" fill="none" xmlns="http://www.w3.org/2000/svg">
<g clip-path="url(#clip0_0_1426)">
<path d="M15.1587 2.13977L15.1667 8.85841" stroke="black" stroke-linejoin="round"/>
<path d="M27.9025 23.6853L22.1 20.3234" stroke="black" stroke-linejoin="round"/>
<path d="M2.70618 23.6853L8.50866 20.3234" stroke="black" stroke-linejoin="round"/>
<path d="M15.1632 16.5055L8.38562 12.6482L15.1632 8.7926L21.9317 12.664L15.1632 16.5055Z" stroke="black" stroke-width="2" stroke-linecap="round" stroke-linejoin="round"/>
<path d="M15.1694 24.1769L8.39432 20.3493L8.38562 12.6482L15.1694 16.5055V24.1769Z" stroke="black" stroke-width="2" stroke-linejoin="round"/>
<path d="M15.1587 24.177L21.9334 20.3665V12.6641L15.1587 16.5055V24.177Z" stroke="black" stroke-width="2" stroke-linejoin="round"/>
<path d="M27.6627 23.6852V9.33629L15.1585 2.1615L2.6546 9.33629V23.6852L15.1585 30.86L27.6627 23.6852Z" stroke="black" stroke-width="3" stroke-miterlimit="10"/>
<path d="M15.1587 16.5234L14.7647 17.1877L15.158 17.4138L15.5518 17.1883L15.1587 16.5234ZM2.28101 10.0132L14.7647 17.1877L15.5528 15.859L3.06907 8.68452L2.28101 10.0132ZM15.5518 17.1883L28.0762 10.0138L27.29 8.68396L14.7656 15.8585L15.5518 17.1883Z" fill="black"/>
<path d="M15.1587 16.5234V30.8601" stroke="black" stroke-width="3" stroke-miterlimit="10" stroke-linecap="round"/>
</g>
<path fill-rule="evenodd" clip-rule="evenodd" d="M82.2226 6.81689C80.5991 7.21519 79.5641 8.80504 79.5641 10.9007V11.8828H78.5772H77.5902L77.6379 13.1903L77.6856 14.4977L78.6249 14.5483L79.5641 14.5989V18.8924V23.1859H81.1159H82.6677V18.884V14.5821H84.5462H86.4247V18.884V23.1859H87.9765H89.5283V17.5377V11.8898L86.1388 11.844C82.7999 11.7992 82.7486 11.7931 82.6989 11.4319C82.6184 10.8482 82.9715 9.73627 83.2821 9.59625C83.4382 9.52573 84.1909 9.42299 84.9546 9.368L86.343 9.26796L86.3907 7.96052L86.4384 6.65308L84.5939 6.67028C83.5794 6.6799 82.5124 6.74586 82.2226 6.81689ZM99.4438 8.10931C99.3808 8.17443 99.3291 9.20183 99.3291 10.3927C99.3291 11.5834 99.3017 12.5576 99.2681 12.5576C99.2344 12.5576 98.869 12.3626 98.4561 12.1243C95.5454 10.444 91.9494 12.685 91.5242 16.444C91.1177 20.0382 92.7247 22.7968 95.5468 23.3497C96.6063 23.5572 98.1375 23.2238 98.9059 22.6185L99.4925 22.1565V22.6712V23.1859H101.046H102.6L102.557 15.6365L102.514 8.08704L101.036 8.03896C100.223 8.01248 99.5067 8.04419 99.4438 8.10931ZM40.8099 8.93899C40.7425 9.0117 40.6874 12.2518 40.6874 16.1394V23.2076L44.6486 23.1432C47.1076 23.1032 48.8339 23.0025 49.2008 22.8775C51.9439 21.9432 52.9406 18.6744 51.0847 16.6995C50.7117 16.3027 50.2963 15.9362 50.1616 15.8851C49.9754 15.8146 50.045 15.6839 50.452 15.34C52.0747 13.9692 52.0038 11.3025 50.3107 10.0359C49.1266 9.15003 48.3213 8.99348 44.4444 8.89563C42.5128 8.84671 40.8774 8.86628 40.8099 8.93899ZM57.0106 11.7761C54.7301 12.4112 53.3607 14.1834 53.1507 16.7717C53.0443 18.0808 53.3029 19.7413 53.7547 20.6511C54.765 22.6862 57.1504 23.7421 59.8458 23.3477C61.8166 23.0592 63.1846 22.0497 63.9396 20.3265C64.1905 19.7538 64.2921 19.1089 64.3393 17.7874C64.3937 16.2684 64.3512 15.8747 64.0414 15.0239C63.6271 13.8867 62.8184 12.8836 61.8546 12.312C60.6227 11.5814 58.5384 11.3508 57.0106 11.7761ZM71.1063 11.7934C70.722 11.9173 70.1522 12.2197 69.8404 12.4655L69.2732 12.9123V12.3975V11.8828H67.7214H66.1696V17.5344V23.1859H67.7214H69.2732V19.7513V16.3167L69.9211 15.5565C71.0557 14.2251 72.3054 14.027 72.9842 15.071C73.3447 15.6252 73.3569 15.7689 73.3569 19.415V23.1859H75.0048H76.6528L76.5974 18.9261C76.5448 14.8623 76.5247 14.6296 76.1603 13.8656C75.248 11.9522 73.2076 11.1158 71.1063 11.7934ZM107.66 11.7685C106.523 12.0428 105.855 12.409 105.135 13.1518C104.609 13.6957 104.004 15.1585 104.178 15.4678C104.217 15.5373 104.894 15.5943 105.682 15.5943H107.115L107.511 14.962C108.527 13.3416 111.09 13.789 111.09 15.5867V16.2691H109.791C106.695 16.2691 105.065 17.1548 104.561 19.1104C104.317 20.0581 104.57 21.349 105.156 22.1426C106.147 23.4845 108.519 23.8232 110.296 22.8766L111.254 22.3668V22.7763C111.254 23.1812 111.271 23.1859 112.805 23.1859H114.357V19.1144C114.357 16.3818 114.291 14.8147 114.156 14.3486C113.886 13.4157 112.825 12.3458 111.814 11.9871C110.733 11.6033 108.772 11.5002 107.66 11.7685ZM47.7692 12.2965C48.2364 12.7437 48.3347 13.4609 47.992 13.9219C47.6121 14.4329 47.0715 14.5821 45.5986 14.5821H44.1177V13.2325V11.8828H45.7274C47.2096 11.8828 47.3711 11.9156 47.7692 12.2965ZM60.1145 14.7229C61.6351 15.8718 61.518 19.5716 59.9342 20.4175C59.2556 20.7798 57.8191 20.6709 57.3283 20.2199C56.1769 19.1618 56.0248 16.2831 57.0591 15.1239C57.8634 14.2226 59.2172 14.0448 60.1145 14.7229ZM98.3924 14.7881C99.1233 15.3168 99.3291 15.9231 99.3291 17.5482C99.3291 18.7409 99.2656 19.1191 98.9866 19.5851C98.0702 21.1166 95.9111 20.9841 95.1024 19.3467C94.6398 18.4103 94.5308 17.5733 94.7492 16.633C95.2007 14.6897 96.998 13.7796 98.3924 14.7881ZM47.4208 17.6261C48.5142 17.9399 48.8396 18.9127 48.1343 19.7602C47.7534 20.2181 47.6807 20.2354 45.9291 20.2906L44.1177 20.3478V18.8988V17.45L45.4653 17.451C46.2065 17.4515 47.0864 17.5303 47.4208 17.6261ZM111.09 19.1077C111.09 19.6676 110.606 20.1918 109.745 20.5629C108.594 21.0597 107.66 20.7243 107.66 19.8145C107.66 18.9801 108.293 18.6309 109.805 18.6309H111.09V19.1077Z" fill="black"/>
<defs>
<clipPath id="clip0_0_1426">
<rect width="29.1761" height="32.8231" fill="white" transform="translate(0.570618 0.0883789)"/>
</clipPath>
</defs>
</svg>
