<svg width="67" height="19" viewBox="0 0 67 19" fill="none" xmlns="http://www.w3.org/2000/svg">
<path d="M6.07815 18.2636H0.357117V1.59067H6.06951C7.64605 1.59067 9.00383 1.92451 10.1422 2.5922C11.2859 3.25416 12.1676 4.20985 12.7866 5.45783C13.4063 6.70079 13.7162 8.18733 13.7162 9.91889C13.7162 11.6562 13.4063 13.1484 12.7866 14.3964C12.1962 15.6187 11.277 16.6204 10.1495 17.2706C9.00582 17.9326 7.64937 18.2636 6.07748 18.2636H6.07815ZM4.098 14.8284H5.93453C6.80093 14.8284 7.53368 14.6708 8.13277 14.3556C8.73786 14.0354 9.19333 13.5174 9.50053 12.801C9.81304 12.0789 9.9693 11.1189 9.9693 9.91889C9.9693 8.71962 9.81304 7.76466 9.50053 7.05326C9.18801 6.33686 8.72722 5.82105 8.11748 5.50654C7.51373 5.18631 6.76768 5.02655 5.88133 5.02655H4.098V14.8284ZM14.8366 18.2636V5.75943H18.5316V18.2636H14.8366ZM16.6877 4.30155C16.1691 4.30155 15.7236 4.11743 15.3506 3.74848C14.9782 3.3738 14.7914 2.92318 14.7914 2.39662C14.7914 1.8758 14.9775 1.43091 15.3506 1.06196C15.7106 0.692899 16.1909 0.491164 16.6877 0.500297C17.2117 0.500297 17.6579 0.686563 18.0256 1.06196C18.3979 1.43091 18.5841 1.8758 18.5841 2.39662C18.5841 2.92318 18.3979 3.3738 18.0256 3.74848C17.6579 4.11743 17.2117 4.30155 16.6877 4.30155ZM23.091 18.4756C22.3509 18.4756 21.6933 18.3424 21.1188 18.0766C20.5668 17.8207 20.0966 17.396 19.7663 16.8551C19.4392 16.3071 19.2756 15.6208 19.2756 14.7955C19.2756 14.1006 19.3887 13.5145 19.6154 13.0374C19.833 12.5712 20.1553 12.1711 20.5529 11.8732C20.9715 11.5642 21.4365 11.3354 21.9274 11.197C22.446 11.0393 23.0005 10.934 23.5897 10.8796C24.2499 10.8151 24.7812 10.7471 25.1842 10.6761C25.5871 10.6002 25.8797 10.4942 26.0605 10.3588C26.1502 10.2935 26.223 10.2046 26.2718 10.1005C26.3207 9.99646 26.3441 9.88068 26.3398 9.76414V9.72403C26.3398 9.30564 26.2068 8.98326 25.9395 8.75473C25.6729 8.52691 25.3125 8.413 24.859 8.413C24.371 8.413 23.978 8.52763 23.6808 8.75473C23.3855 8.97896 23.1823 9.31758 23.1136 9.69967L19.7058 9.56928C19.7988 8.83004 20.0669 8.12907 20.4845 7.53397C20.9074 6.93147 21.4872 6.45936 22.2226 6.11764C22.9626 5.77018 23.8517 5.59609 24.8896 5.59609C25.6303 5.59609 26.3125 5.69138 26.9376 5.88122C27.5619 6.06606 28.1059 6.33686 28.5693 6.69506C29.0187 7.03068 29.3867 7.47757 29.6425 7.9982C29.8992 8.51402 30.0282 9.10219 30.0282 9.76414V18.2636H26.5519V16.5213H26.4615C26.2547 16.9447 25.9901 17.3029 25.6676 17.5959C25.338 17.896 24.9549 18.1203 24.5418 18.255C24.1136 18.4019 23.6302 18.4756 23.091 18.4756ZM24.232 15.8701C24.6303 15.8701 24.988 15.7834 25.3052 15.61C25.6158 15.4476 25.8816 15.2007 26.0765 14.8936C26.2673 14.5841 26.3624 14.2259 26.3624 13.819V12.6298C26.2574 12.6899 26.129 12.7444 25.9774 12.7931C25.8311 12.8418 25.6702 12.8877 25.494 12.9314C25.3178 12.9744 25.1363 13.013 24.9501 13.0453C24.7639 13.0775 24.5844 13.1076 24.4135 13.1348C24.0658 13.1943 23.7685 13.2867 23.5225 13.4114C23.2805 13.5367 23.0936 13.6994 22.9626 13.9C22.8337 14.1064 22.7677 14.3511 22.7738 14.5999C22.7738 15.0125 22.9101 15.3278 23.1821 15.5448C23.4587 15.7619 23.8091 15.8701 24.2327 15.8701H24.232ZM34.918 1.59067V18.2636H31.223V1.59067H34.918ZM41.6311 18.5C40.417 18.5 39.3691 18.2421 38.488 17.7263C37.6232 17.2184 36.9182 16.4448 36.4627 15.504C35.9939 14.5376 35.7598 13.3899 35.7598 12.0602C35.7598 10.7685 35.9965 9.63949 36.4706 8.67377C36.9441 7.70233 37.611 6.94724 38.4721 6.40993C39.3338 5.86761 40.3492 5.59609 41.5174 5.59609C42.3439 5.59609 43.1 5.73436 43.7848 6.01161C44.4697 6.28814 45.0615 6.69793 45.5602 7.24096C46.0589 7.78328 46.4465 8.45384 46.7238 9.2512C47.0011 10.0443 47.1394 10.9534 47.1394 11.9786V12.9722H37.0524V10.6597H43.7017C43.7031 10.2623 43.6065 9.87165 43.4218 9.52773C43.2438 9.20031 42.9848 8.93268 42.6737 8.75473C42.3612 8.56488 42.0015 8.47031 41.5932 8.47031C41.1803 8.47031 40.81 8.57061 40.4828 8.77121C40.1615 8.96045 39.893 9.23868 39.7048 9.57716C39.5104 9.92365 39.4057 10.32 39.4016 10.7248V13.0775C39.4016 13.5883 39.4947 14.0361 39.6816 14.4208C39.8678 14.8005 40.1324 15.0971 40.4748 15.3084C40.8173 15.5205 41.2255 15.6258 41.699 15.6258C42.0261 15.6258 42.324 15.5771 42.5906 15.4796C42.8455 15.3894 43.0798 15.2422 43.2782 15.0476C43.4697 14.8578 43.6133 14.625 43.709 14.3477L47.1015 14.4537C46.9605 15.2733 46.6507 15.9868 46.1719 16.5951C45.6985 17.1969 45.0768 17.6668 44.3061 18.0028C43.5348 18.3345 42.6438 18.5 41.6311 18.5ZM53.3804 18.5C52.1563 18.5 51.1063 18.2278 50.2293 17.6854C49.3701 17.1566 48.6718 16.3704 48.2192 15.4223C47.7511 14.4509 47.5171 13.3275 47.5171 12.0523C47.5171 10.7714 47.7511 9.64809 48.2192 8.68165C48.6745 7.73097 49.3751 6.94232 50.2366 6.41065C51.1137 5.86761 52.1583 5.59609 53.3724 5.59609C54.4456 5.59609 55.3805 5.80528 56.1758 6.22295C56.977 6.64133 57.6014 7.23308 58.0495 7.9982C58.503 8.75759 58.7424 9.65024 58.7676 10.6761H55.3147C55.2442 10.0357 55.042 9.53346 54.7096 9.17024C54.3824 8.80631 53.9542 8.62506 53.4256 8.62506C52.9974 8.62506 52.6217 8.75473 52.2999 9.0155C51.9774 9.27054 51.7254 9.65024 51.5439 10.1546C51.3677 10.6546 51.2799 11.2729 51.2799 12.0115C51.2799 12.7494 51.3677 13.3734 51.5439 13.8835C51.7254 14.3885 51.9774 14.7711 52.2999 15.0319C52.6217 15.2869 52.9974 15.4144 53.4256 15.4144C53.7681 15.4144 54.0706 15.3356 54.3326 15.178C54.5992 15.0204 54.818 14.7904 54.9895 14.486C55.1611 14.1772 55.2688 13.8025 55.3147 13.3627H58.7676C58.7324 14.3943 58.493 15.2948 58.0495 16.0657C57.6113 16.8365 56.9943 17.4361 56.1984 17.8645C55.4071 18.2879 54.4682 18.5 53.3804 18.5ZM66.1457 5.75943V8.68954H58.8242V5.75943H66.145H66.1457ZM60.3581 2.76342H64.0525V14.3305C64.0525 14.5748 64.0877 14.7733 64.1589 14.9251C64.2303 15.0676 64.3448 15.1796 64.4834 15.2425C64.6243 15.3027 64.7932 15.3321 64.9894 15.3321C65.1303 15.3321 65.2793 15.3184 65.4349 15.2912C65.5964 15.259 65.7175 15.2318 65.7979 15.2103L66.3571 18.0838C66.1809 18.1382 65.9316 18.2056 65.6091 18.2872C65.234 18.3767 64.852 18.4285 64.4681 18.442C63.6017 18.485 62.8589 18.3775 62.2392 18.1167C61.6248 17.8502 61.1534 17.4383 60.8263 16.8788C60.5038 16.32 60.3475 15.6172 60.3581 14.7704V2.76342Z" fill="black"/>
</svg>
