<svg width="432" height="181" viewBox="0 0 432 181" fill="none" xmlns="http://www.w3.org/2000/svg">
<path d="M0 89.52C0.1662 65.737 9.7237 42.984 26.5905 26.2164C43.4574 9.4489 66.267 0.0258 90.05 0H96.64V14.31H90.05C70.061 14.3331 50.8899 22.2476 36.7062 36.3321C22.5224 50.4166 14.4734 69.532 14.31 89.52H0Z" fill="black"/>
<path d="M27.45 180.1V165.79H34C53.9888 165.767 73.16 157.852 87.344 143.768C101.528 129.683 109.577 110.568 109.74 90.58H124.05C123.884 114.363 114.326 137.116 97.459 153.884C80.593 170.651 57.7832 180.074 34 180.1H27.45Z" fill="black"/>
<path d="M27.45 152.65V138.34H34C46.7182 138.336 58.9225 133.32 67.969 124.381C77.015 115.441 82.175 103.297 82.33 90.58H96.64C96.482 107.092 89.814 122.874 78.084 134.496C66.355 146.119 50.5125 152.643 34 152.65H27.45Z" fill="black"/>
<path d="M27.45 89.52C27.6106 73.016 34.2743 57.2414 45.9944 45.6205C57.7146 33.9996 73.545 27.4703 90.05 27.45H96.64V41.76H90.05C77.339 41.7748 65.145 46.7947 56.107 55.7332C47.0693 64.6717 41.9151 76.81 41.76 89.52H27.45Z" fill="black"/>
<path d="M27.45 125.21V110.89H34C39.4402 110.894 44.6669 108.774 48.5656 104.979C52.4643 101.185 54.7266 96.018 54.87 90.58V90.05C54.8806 80.726 58.5914 71.787 65.188 65.196C71.784 58.6058 80.726 54.9026 90.05 54.9H96.64V69.21H90.05C84.618 69.218 79.402 71.345 75.513 75.137C71.623 78.93 69.366 84.089 69.22 89.52V90.05C69.209 99.382 65.493 108.328 58.889 114.921C52.2845 121.515 43.3322 125.215 34 125.21H27.45Z" fill="black"/>
<path d="M175.5 78.682C175.258 76.53 174.258 74.864 172.5 73.682C170.742 72.485 168.53 71.886 165.864 71.886C163.955 71.886 162.303 72.189 160.909 72.795C159.515 73.386 158.432 74.205 157.659 75.25C156.902 76.28 156.523 77.455 156.523 78.773C156.523 79.879 156.78 80.833 157.295 81.636C157.826 82.439 158.515 83.114 159.364 83.659C160.227 84.189 161.152 84.636 162.136 85C163.121 85.348 164.068 85.636 164.977 85.864L169.523 87.045C171.008 87.409 172.53 87.902 174.091 88.523C175.652 89.144 177.098 89.962 178.432 90.977C179.765 91.992 180.841 93.25 181.659 94.75C182.492 96.25 182.909 98.045 182.909 100.136C182.909 102.773 182.227 105.114 180.864 107.159C179.515 109.205 177.553 110.818 174.977 112C172.417 113.182 169.318 113.773 165.682 113.773C162.197 113.773 159.182 113.22 156.636 112.114C154.091 111.008 152.098 109.439 150.659 107.409C149.22 105.364 148.424 102.939 148.273 100.136H155.318C155.455 101.818 156 103.22 156.955 104.341C157.924 105.447 159.159 106.273 160.659 106.818C162.174 107.348 163.833 107.614 165.636 107.614C167.621 107.614 169.386 107.303 170.932 106.682C172.492 106.045 173.72 105.167 174.614 104.045C175.508 102.909 175.955 101.583 175.955 100.068C175.955 98.689 175.561 97.561 174.773 96.682C174 95.803 172.947 95.076 171.614 94.5C170.295 93.924 168.803 93.417 167.136 92.977L161.636 91.477C157.909 90.462 154.955 88.97 152.773 87C150.606 85.03 149.523 82.424 149.523 79.182C149.523 76.5 150.25 74.159 151.705 72.159C153.159 70.159 155.129 68.606 157.614 67.5C160.098 66.379 162.902 65.818 166.023 65.818C169.174 65.818 171.955 66.371 174.364 67.477C176.788 68.583 178.697 70.106 180.091 72.045C181.485 73.97 182.212 76.182 182.273 78.682H175.5ZM203.66 113.705C200.388 113.705 197.531 112.955 195.092 111.455C192.653 109.955 190.759 107.856 189.41 105.159C188.062 102.462 187.388 99.311 187.388 95.705C187.388 92.083 188.062 88.917 189.41 86.205C190.759 83.492 192.653 81.386 195.092 79.886C197.531 78.386 200.388 77.636 203.66 77.636C206.933 77.636 209.789 78.386 212.228 79.886C214.668 81.386 216.562 83.492 217.91 86.205C219.259 88.917 219.933 92.083 219.933 95.705C219.933 99.311 219.259 102.462 217.91 105.159C216.562 107.856 214.668 109.955 212.228 111.455C209.789 112.955 206.933 113.705 203.66 113.705ZM203.683 108C205.804 108 207.562 107.439 208.956 106.318C210.35 105.197 211.38 103.705 212.047 101.841C212.728 99.977 213.069 97.924 213.069 95.682C213.069 93.455 212.728 91.409 212.047 89.545C211.38 87.667 210.35 86.159 208.956 85.023C207.562 83.886 205.804 83.318 203.683 83.318C201.547 83.318 199.774 83.886 198.365 85.023C196.971 86.159 195.933 87.667 195.251 89.545C194.584 91.409 194.251 93.455 194.251 95.682C194.251 97.924 194.584 99.977 195.251 101.841C195.933 103.705 196.971 105.197 198.365 106.318C199.774 107.439 201.547 108 203.683 108ZM232.514 66.455V113H225.718V66.455H232.514ZM250.015 113.773C247.803 113.773 245.803 113.364 244.015 112.545C242.227 111.712 240.81 110.508 239.765 108.932C238.734 107.356 238.219 105.424 238.219 103.136C238.219 101.167 238.598 99.545 239.356 98.273C240.113 97 241.136 95.992 242.424 95.25C243.712 94.508 245.151 93.947 246.742 93.568C248.333 93.189 249.954 92.902 251.606 92.705C253.697 92.462 255.394 92.265 256.697 92.114C258 91.947 258.947 91.682 259.537 91.318C260.128 90.955 260.424 90.364 260.424 89.545V89.386C260.424 87.402 259.863 85.864 258.742 84.773C257.636 83.682 255.984 83.136 253.787 83.136C251.5 83.136 249.697 83.644 248.378 84.659C247.075 85.659 246.174 86.773 245.674 88L239.287 86.545C240.045 84.424 241.151 82.712 242.606 81.409C244.075 80.091 245.765 79.136 247.674 78.545C249.583 77.939 251.591 77.636 253.697 77.636C255.091 77.636 256.568 77.803 258.128 78.136C259.704 78.455 261.174 79.045 262.537 79.909C263.916 80.773 265.045 82.008 265.924 83.614C266.803 85.205 267.242 87.273 267.242 89.818V113H260.606V108.227H260.333C259.894 109.106 259.234 109.97 258.356 110.818C257.477 111.667 256.348 112.371 254.969 112.932C253.591 113.492 251.939 113.773 250.015 113.773ZM251.492 108.318C253.371 108.318 254.977 107.947 256.31 107.205C257.659 106.462 258.681 105.492 259.378 104.295C260.091 103.083 260.447 101.788 260.447 100.409V95.909C260.204 96.152 259.734 96.379 259.037 96.591C258.356 96.788 257.575 96.962 256.697 97.114C255.818 97.25 254.962 97.379 254.128 97.5C253.295 97.606 252.598 97.697 252.037 97.773C250.719 97.939 249.515 98.22 248.424 98.614C247.348 99.008 246.484 99.576 245.833 100.318C245.197 101.045 244.878 102.015 244.878 103.227C244.878 104.909 245.5 106.182 246.742 107.045C247.984 107.894 249.568 108.318 251.492 108.318ZM281.289 92.273V113H274.493V78.091H281.016V83.773H281.448C282.251 81.924 283.508 80.439 285.22 79.318C286.948 78.197 289.122 77.636 291.743 77.636C294.122 77.636 296.205 78.136 297.993 79.136C299.781 80.121 301.167 81.591 302.152 83.545C303.137 85.5 303.63 87.917 303.63 90.795V113H296.834V91.614C296.834 89.083 296.175 87.106 294.857 85.682C293.539 84.242 291.728 83.523 289.425 83.523C287.849 83.523 286.448 83.864 285.22 84.545C284.008 85.227 283.046 86.227 282.334 87.545C281.637 88.848 281.289 90.424 281.289 92.273ZM321.102 113.773C318.89 113.773 316.89 113.364 315.102 112.545C313.314 111.712 311.898 110.508 310.852 108.932C309.822 107.356 309.307 105.424 309.307 103.136C309.307 101.167 309.686 99.545 310.443 98.273C311.201 97 312.223 95.992 313.511 95.25C314.799 94.508 316.239 93.947 317.83 93.568C319.42 93.189 321.042 92.902 322.693 92.705C324.784 92.462 326.481 92.265 327.784 92.114C329.087 91.947 330.034 91.682 330.625 91.318C331.216 90.955 331.511 90.364 331.511 89.545V89.386C331.511 87.402 330.951 85.864 329.83 84.773C328.723 83.682 327.072 83.136 324.875 83.136C322.587 83.136 320.784 83.644 319.466 84.659C318.163 85.659 317.261 86.773 316.761 88L310.375 86.545C311.133 84.424 312.239 82.712 313.693 81.409C315.163 80.091 316.852 79.136 318.761 78.545C320.67 77.939 322.678 77.636 324.784 77.636C326.178 77.636 327.655 77.803 329.216 78.136C330.792 78.455 332.261 79.045 333.625 79.909C335.004 80.773 336.133 82.008 337.011 83.614C337.89 85.205 338.33 87.273 338.33 89.818V113H331.693V108.227H331.42C330.981 109.106 330.322 109.97 329.443 110.818C328.564 111.667 327.436 112.371 326.057 112.932C324.678 113.492 323.027 113.773 321.102 113.773ZM322.58 108.318C324.458 108.318 326.064 107.947 327.398 107.205C328.746 106.462 329.769 105.492 330.466 104.295C331.178 103.083 331.534 101.788 331.534 100.409V95.909C331.292 96.152 330.822 96.379 330.125 96.591C329.443 96.788 328.663 96.962 327.784 97.114C326.905 97.25 326.049 97.379 325.216 97.5C324.383 97.606 323.686 97.697 323.125 97.773C321.807 97.939 320.602 98.22 319.511 98.614C318.436 99.008 317.572 99.576 316.92 100.318C316.284 101.045 315.966 102.015 315.966 103.227C315.966 104.909 316.587 106.182 317.83 107.045C319.072 107.894 320.655 108.318 322.58 108.318ZM345.058 113V66.455H375.876V74.568H354.899V85.659H373.831V93.773H354.899V113H345.058ZM380.695 66.455H392.832L405.65 97.727H406.195L419.014 66.455H431.15V113H421.605V82.705H421.218L409.173 112.773H402.673L390.627 82.591H390.241V113H380.695V66.455Z" fill="black"/>
</svg>
