<svg width="110" height="29" viewBox="0 0 110 29" fill="none" xmlns="http://www.w3.org/2000/svg">
<rect width="110" height="29" rx="5" fill="#04CA9A" fill-opacity="0.13"/>
<circle cx="13" cy="14.5" r="5" fill="#04CA9A"/>
<path d="M40.5753 13.1293H39.0241C38.9645 12.7978 38.8535 12.5062 38.6911 12.2543C38.5286 12.0024 38.3298 11.7886 38.0945 11.6129C37.8591 11.4373 37.5956 11.3047 37.304 11.2152C37.0156 11.1257 36.709 11.081 36.3842 11.081C35.7976 11.081 35.2723 11.2285 34.8082 11.5234C34.3475 11.8184 33.983 12.2509 33.7145 12.821C33.4493 13.3911 33.3168 14.0871 33.3168 14.9091C33.3168 15.7377 33.4493 16.437 33.7145 17.0071C33.983 17.5772 34.3492 18.008 34.8132 18.2997C35.2772 18.5914 35.7992 18.7372 36.3793 18.7372C36.7008 18.7372 37.0057 18.6941 37.294 18.608C37.5857 18.5185 37.8492 18.3875 38.0845 18.2152C38.3198 18.0429 38.5187 17.8324 38.6811 17.5838C38.8468 17.3319 38.9612 17.0436 39.0241 16.7188L40.5753 16.7237C40.4924 17.2242 40.3317 17.6849 40.093 18.1058C39.8577 18.5234 39.5545 18.8847 39.1832 19.1896C38.8153 19.4912 38.3944 19.7249 37.9205 19.8906C37.4465 20.0563 36.9295 20.1392 36.3693 20.1392C35.4877 20.1392 34.7022 19.9304 34.0128 19.5128C33.3234 19.0919 32.7798 18.4903 32.3821 17.7081C31.9877 16.9259 31.7905 15.9929 31.7905 14.9091C31.7905 13.822 31.9893 12.889 32.3871 12.1101C32.7848 11.3279 33.3284 10.728 34.0178 10.3104C34.7071 9.88944 35.491 9.67898 36.3693 9.67898C36.9096 9.67898 37.4134 9.75687 37.8807 9.91264C38.3513 10.0651 38.7739 10.2905 39.1484 10.5888C39.523 10.8838 39.8329 11.245 40.0781 11.6726C40.3234 12.0968 40.4891 12.5824 40.5753 13.1293ZM45.5108 20.1541C44.7949 20.1541 44.1702 19.9901 43.6365 19.6619C43.1029 19.3338 42.6886 18.8748 42.3936 18.2848C42.0987 17.6948 41.9512 17.0054 41.9512 16.2166C41.9512 15.4245 42.0987 14.7318 42.3936 14.1385C42.6886 13.5452 43.1029 13.0845 43.6365 12.7564C44.1702 12.4283 44.7949 12.2642 45.5108 12.2642C46.2267 12.2642 46.8515 12.4283 47.3851 12.7564C47.9187 13.0845 48.333 13.5452 48.628 14.1385C48.923 14.7318 49.0705 15.4245 49.0705 16.2166C49.0705 17.0054 48.923 17.6948 48.628 18.2848C48.333 18.8748 47.9187 19.3338 47.3851 19.6619C46.8515 19.9901 46.2267 20.1541 45.5108 20.1541ZM45.5158 18.9062C45.9798 18.9062 46.3643 18.7836 46.6692 18.5384C46.9741 18.2931 47.1995 17.9666 47.3453 17.5589C47.4945 17.1513 47.5691 16.7022 47.5691 16.2116C47.5691 15.7244 47.4945 15.277 47.3453 14.8693C47.1995 14.4583 46.9741 14.1286 46.6692 13.88C46.3643 13.6314 45.9798 13.5071 45.5158 13.5071C45.0485 13.5071 44.6607 13.6314 44.3525 13.88C44.0475 14.1286 43.8205 14.4583 43.6713 14.8693C43.5255 15.277 43.4526 15.7244 43.4526 16.2116C43.4526 16.7022 43.5255 17.1513 43.6713 17.5589C43.8205 17.9666 44.0475 18.2931 44.3525 18.5384C44.6607 18.7836 45.0485 18.9062 45.5158 18.9062ZM52.2163 15.4659V20H50.7298V12.3636H52.1566V13.6065H52.2511C52.4267 13.2022 52.7018 12.8774 53.0763 12.6321C53.4542 12.3868 53.9298 12.2642 54.5032 12.2642C55.0236 12.2642 55.4793 12.3736 55.8704 12.5923C56.2615 12.8078 56.5647 13.1293 56.7802 13.5568C56.9956 13.9844 57.1033 14.513 57.1033 15.1428V20H55.6168V15.3217C55.6168 14.7682 55.4727 14.3357 55.1843 14.0241C54.896 13.7093 54.4999 13.5518 53.9961 13.5518C53.6514 13.5518 53.3448 13.6264 53.0763 13.7756C52.8112 13.9247 52.6007 14.1435 52.445 14.4318C52.2925 14.7169 52.2163 15.0616 52.2163 15.4659ZM62.7312 12.3636V13.5568H58.4158V12.3636H62.7312ZM59.5991 20V11.4787C59.5991 11.0014 59.7035 10.6053 59.9123 10.2905C60.1211 9.9723 60.3978 9.73532 60.7425 9.57955C61.0872 9.42045 61.4618 9.34091 61.8661 9.34091C62.1644 9.34091 62.4196 9.36577 62.6317 9.41548C62.8439 9.46188 63.0013 9.50497 63.104 9.54474L62.756 10.7479C62.6864 10.728 62.5969 10.7048 62.4876 10.6783C62.3782 10.6484 62.2456 10.6335 62.0898 10.6335C61.7286 10.6335 61.4701 10.723 61.3143 10.902C61.1618 11.081 61.0856 11.3395 61.0856 11.6776V20H59.5991ZM64.2649 20V12.3636H65.7514V20H64.2649ZM65.0156 11.1854C64.7571 11.1854 64.535 11.0992 64.3494 10.9268C64.1671 10.7512 64.076 10.5424 64.076 10.3004C64.076 10.0552 64.1671 9.84635 64.3494 9.67401C64.535 9.49834 64.7571 9.41051 65.0156 9.41051C65.2741 9.41051 65.4946 9.49834 65.6768 9.67401C65.8625 9.84635 65.9553 10.0552 65.9553 10.3004C65.9553 10.5424 65.8625 10.7512 65.6768 10.9268C65.4946 11.0992 65.2741 11.1854 65.0156 11.1854ZM67.7512 20V12.3636H69.188V13.5767H69.2676C69.4068 13.1657 69.652 12.8426 70.0034 12.6072C70.358 12.3686 70.7591 12.2493 71.2065 12.2493C71.2993 12.2493 71.4087 12.2526 71.5346 12.2592C71.6639 12.2659 71.765 12.2741 71.8379 12.2841V13.706C71.7782 13.6894 71.6722 13.6712 71.5197 13.6513C71.3672 13.6281 71.2148 13.6165 71.0623 13.6165C70.711 13.6165 70.3978 13.6911 70.1227 13.8402C69.8509 13.986 69.6355 14.1899 69.4764 14.4517C69.3173 14.7102 69.2377 15.0052 69.2377 15.3366V20H67.7512ZM73.1243 20V12.3636H74.5511V13.6065H74.6456C74.8047 13.1856 75.0649 12.8575 75.4261 12.6222C75.7874 12.3835 76.2199 12.2642 76.7237 12.2642C77.2341 12.2642 77.6617 12.3835 78.0064 12.6222C78.3544 12.8608 78.6113 13.1889 78.777 13.6065H78.8565C79.0388 13.1989 79.3288 12.8741 79.7266 12.6321C80.1243 12.3868 80.5982 12.2642 81.1484 12.2642C81.8411 12.2642 82.4062 12.4813 82.8438 12.9155C83.2846 13.3497 83.505 14.0043 83.505 14.8793V20H82.0185V15.0185C82.0185 14.5014 81.8776 14.1269 81.5959 13.8949C81.3142 13.6629 80.9777 13.5469 80.5866 13.5469C80.1027 13.5469 79.7266 13.696 79.4581 13.9943C79.1896 14.2893 79.0554 14.6688 79.0554 15.1328V20H77.5739V14.924C77.5739 14.5097 77.4446 14.1766 77.1861 13.9247C76.9276 13.6728 76.5911 13.5469 76.1768 13.5469C75.8951 13.5469 75.6349 13.6214 75.3963 13.7706C75.161 13.9164 74.9704 14.1203 74.8246 14.3821C74.6821 14.6439 74.6108 14.9472 74.6108 15.2919V20H73.1243ZM88.7885 20.1541C88.0362 20.1541 87.3882 19.9934 86.8446 19.6719C86.3044 19.3471 85.8868 18.8913 85.5918 18.3047C85.3001 17.7147 85.1543 17.0237 85.1543 16.2315C85.1543 15.4493 85.3001 14.7599 85.5918 14.1634C85.8868 13.5668 86.2978 13.1011 86.8248 12.7663C87.3551 12.4316 87.9748 12.2642 88.6841 12.2642C89.115 12.2642 89.5326 12.3355 89.937 12.478C90.3413 12.6205 90.7042 12.8442 91.0257 13.1491C91.3472 13.4541 91.6008 13.8501 91.7864 14.3374C91.972 14.8213 92.0648 15.4096 92.0648 16.1023V16.6293H85.9945V15.5156H90.6081C90.6081 15.1245 90.5286 14.7782 90.3695 14.4766C90.2104 14.1716 89.9867 13.9313 89.6983 13.7557C89.4133 13.58 89.0785 13.4922 88.6941 13.4922C88.2765 13.4922 87.9119 13.5949 87.6003 13.8004C87.2921 14.0026 87.0534 14.2678 86.8844 14.5959C86.7187 14.9207 86.6358 15.2737 86.6358 15.6548V16.5249C86.6358 17.0353 86.7253 17.4695 86.9043 17.8274C87.0866 18.1854 87.3401 18.4588 87.665 18.6477C87.9898 18.8333 88.3693 18.9261 88.8034 18.9261C89.0852 18.9261 89.342 18.8864 89.574 18.8068C89.806 18.724 90.0066 18.6013 90.1756 18.4389C90.3446 18.2765 90.4739 18.076 90.5634 17.8374L91.9703 18.0909C91.8577 18.5052 91.6555 18.8681 91.3638 19.1797C91.0755 19.4879 90.7125 19.7282 90.275 19.9006C89.8408 20.0696 89.3453 20.1541 88.7885 20.1541ZM96.5728 20.1491C95.9563 20.1491 95.4061 19.9917 94.9222 19.6768C94.4416 19.3587 94.0638 18.9062 93.7887 18.3196C93.5169 17.7296 93.381 17.022 93.381 16.1967C93.381 15.3714 93.5186 14.6655 93.7937 14.0788C94.0721 13.4922 94.4532 13.0431 94.9371 12.7315C95.421 12.42 95.9696 12.2642 96.5827 12.2642C97.0567 12.2642 97.4379 12.3438 97.7262 12.5028C98.0179 12.6586 98.2433 12.8409 98.4023 13.0497C98.5647 13.2585 98.6907 13.4425 98.7802 13.6016H98.8697V9.81818H100.356V20H98.9045V18.8118H98.7802C98.6907 18.9742 98.5614 19.1598 98.3924 19.3686C98.2267 19.5774 97.998 19.7597 97.7063 19.9155C97.4147 20.0713 97.0368 20.1491 96.5728 20.1491ZM96.9009 18.8814C97.3285 18.8814 97.6897 18.7687 97.9847 18.5433C98.283 18.3146 98.5084 17.9981 98.6609 17.5938C98.8166 17.1894 98.8945 16.7187 98.8945 16.1818C98.8945 15.6515 98.8183 15.1875 98.6658 14.7898C98.5134 14.392 98.2897 14.0821 97.9947 13.8601C97.6997 13.638 97.3351 13.527 96.9009 13.527C96.4535 13.527 96.0806 13.643 95.7823 13.875C95.484 14.107 95.2586 14.4235 95.1062 14.8246C94.957 15.2256 94.8825 15.678 94.8825 16.1818C94.8825 16.6922 94.9587 17.1513 95.1112 17.5589C95.2636 17.9666 95.489 18.2898 95.7873 18.5284C96.0889 18.7637 96.4601 18.8814 96.9009 18.8814Z" fill="#1A876D"/>
</svg>
