<svg width="73" height="29" viewBox="0 0 73 29" fill="none" xmlns="http://www.w3.org/2000/svg">
<rect width="73" height="29" rx="5" fill="#E2E8EF"/>
<circle cx="13" cy="14.5" r="5" fill="#94A3B8"/>
<path d="M35.4148 20H32.1186V9.81818H35.5192C36.5168 9.81818 37.3736 10.022 38.0895 10.4297C38.8054 10.834 39.3539 11.4157 39.7351 12.1747C40.1196 12.9304 40.3118 13.8369 40.3118 14.8942C40.3118 15.9548 40.1179 16.8662 39.7301 17.6286C39.3456 18.3909 38.7888 18.9775 38.0597 19.3885C37.3305 19.7962 36.4489 20 35.4148 20ZM33.6548 18.6577H35.3303C36.1058 18.6577 36.7505 18.5118 37.2642 18.2202C37.7779 17.9252 38.1624 17.4993 38.4176 16.9425C38.6728 16.3823 38.8004 15.6996 38.8004 14.8942C38.8004 14.0954 38.6728 13.4176 38.4176 12.8608C38.1657 12.304 37.7895 11.8814 37.2891 11.593C36.7886 11.3047 36.1671 11.1605 35.4247 11.1605H33.6548V18.6577ZM42.1028 20V12.3636H43.5396V13.5767H43.6191C43.7583 13.1657 44.0036 12.8426 44.3549 12.6072C44.7096 12.3686 45.1106 12.2493 45.5581 12.2493C45.6509 12.2493 45.7602 12.2526 45.8862 12.2592C46.0154 12.2659 46.1165 12.2741 46.1895 12.2841V13.706C46.1298 13.6894 46.0237 13.6712 45.8713 13.6513C45.7188 13.6281 45.5663 13.6165 45.4139 13.6165C45.0626 13.6165 44.7493 13.6911 44.4743 13.8402C44.2025 13.986 43.987 14.1899 43.8279 14.4517C43.6689 14.7102 43.5893 15.0052 43.5893 15.3366V20H42.1028ZM49.6298 20.169C49.1459 20.169 48.7084 20.0795 48.3173 19.9006C47.9262 19.7183 47.6163 19.4548 47.3876 19.1101C47.1622 18.7654 47.0495 18.3428 47.0495 17.8423C47.0495 17.4115 47.1324 17.0568 47.2981 16.7784C47.4638 16.5 47.6876 16.2796 47.9693 16.1172C48.251 15.9548 48.5659 15.8321 48.9139 15.7493C49.2619 15.6664 49.6165 15.6035 49.9778 15.5604C50.4352 15.5073 50.8064 15.4643 51.0914 15.4311C51.3765 15.3946 51.5836 15.3366 51.7129 15.2571C51.8422 15.1776 51.9068 15.0483 51.9068 14.8693V14.8345C51.9068 14.4003 51.7842 14.0639 51.5389 13.8253C51.2969 13.5866 50.9357 13.4673 50.4551 13.4673C49.9546 13.4673 49.5602 13.5784 49.2718 13.8004C48.9868 14.0192 48.7896 14.2628 48.6802 14.5312L47.2832 14.2131C47.4489 13.7491 47.6909 13.3745 48.0091 13.0895C48.3306 12.8011 48.7001 12.5923 49.1177 12.4631C49.5353 12.3305 49.9745 12.2642 50.4352 12.2642C50.7401 12.2642 51.0633 12.3007 51.4047 12.3736C51.7493 12.4432 52.0708 12.5724 52.3691 12.7614C52.6708 12.9503 52.9177 13.2204 53.1099 13.5717C53.3021 13.9197 53.3983 14.3722 53.3983 14.929V20H51.9466V18.956H51.8869C51.7908 19.1482 51.6466 19.3371 51.4544 19.5227C51.2621 19.7083 51.0152 19.8625 50.7136 19.9851C50.412 20.1077 50.0507 20.169 49.6298 20.169ZM49.9529 18.9759C50.3639 18.9759 50.7153 18.8946 51.0069 18.7322C51.3019 18.5698 51.5256 18.3577 51.6781 18.0959C51.8339 17.8307 51.9118 17.5473 51.9118 17.2457V16.2614C51.8587 16.3144 51.756 16.3641 51.6035 16.4105C51.4544 16.4536 51.2837 16.4917 51.0914 16.5249C50.8992 16.5547 50.7119 16.5829 50.5297 16.6094C50.3474 16.6326 50.1949 16.6525 50.0723 16.669C49.7839 16.7055 49.5204 16.7668 49.2818 16.853C49.0465 16.9392 48.8575 17.0634 48.715 17.2259C48.5758 17.3849 48.5062 17.5971 48.5062 17.8622C48.5062 18.2301 48.6421 18.5085 48.9139 18.6974C49.1857 18.883 49.532 18.9759 49.9529 18.9759ZM59.0124 12.3636V13.5568H54.6971V12.3636H59.0124ZM55.8803 20V11.4787C55.8803 11.0014 55.9847 10.6053 56.1935 10.2905C56.4023 9.9723 56.6791 9.73532 57.0238 9.57955C57.3685 9.42045 57.743 9.34091 58.1474 9.34091C58.4457 9.34091 58.7009 9.36577 58.913 9.41548C59.1251 9.46188 59.2826 9.50497 59.3853 9.54474L59.0373 10.7479C58.9677 10.728 58.8782 10.7048 58.7688 10.6783C58.6594 10.6484 58.5269 10.6335 58.3711 10.6335C58.0098 10.6335 57.7513 10.723 57.5955 10.902C57.4431 11.081 57.3668 11.3395 57.3668 11.6776V20H55.8803ZM64.1108 12.3636V13.5568H59.9396V12.3636H64.1108ZM61.0582 10.5341H62.5447V17.7578C62.5447 18.0462 62.5878 18.2633 62.674 18.4091C62.7602 18.5516 62.8712 18.6494 63.0071 18.7024C63.1463 18.7521 63.2971 18.777 63.4595 18.777C63.5788 18.777 63.6832 18.7687 63.7727 18.7521C63.8622 18.7356 63.9318 18.7223 63.9815 18.7124L64.25 19.9403C64.1638 19.9735 64.0412 20.0066 63.8821 20.0398C63.723 20.0762 63.5241 20.0961 63.2855 20.0994C62.8944 20.1061 62.5298 20.0365 62.1918 19.8906C61.8537 19.7448 61.5803 19.5194 61.3714 19.2145C61.1626 18.9096 61.0582 18.5268 61.0582 18.0661V10.5341Z" fill="#94A3B8"/>
</svg>
