<svg width="105" height="29" viewBox="0 0 105 29" fill="none" xmlns="http://www.w3.org/2000/svg">
<rect width="105" height="29" rx="5" fill="#04CA9A" fill-opacity="0.13"/>
<circle cx="13" cy="14.5" r="5" fill="#04CA9A"/>
<path d="M32.1186 20V9.81818H35.7479C36.54 9.81818 37.1963 9.96236 37.7166 10.2507C38.237 10.5391 38.6264 10.9335 38.8849 11.4339C39.1435 11.9311 39.2727 12.4912 39.2727 13.1143C39.2727 13.7408 39.1418 14.3042 38.88 14.8047C38.6214 15.3018 38.2304 15.6963 37.7067 15.9879C37.1863 16.2763 36.5317 16.4205 35.7429 16.4205H33.2472V15.1179H35.6037C36.1042 15.1179 36.5102 15.0317 36.8217 14.8594C37.1333 14.6837 37.362 14.4451 37.5078 14.1435C37.6536 13.8419 37.7266 13.4988 37.7266 13.1143C37.7266 12.7299 37.6536 12.3885 37.5078 12.0902C37.362 11.7919 37.1316 11.5582 36.8168 11.3892C36.5052 11.2202 36.0942 11.1357 35.5838 11.1357H33.6548V20H32.1186ZM45.7917 16.8331V12.3636H47.2832V20H45.8216V18.6776H45.742C45.5663 19.0852 45.2846 19.425 44.8968 19.6967C44.5124 19.9652 44.0334 20.0994 43.46 20.0994C42.9695 20.0994 42.5353 19.9917 42.1575 19.7763C41.783 19.5575 41.488 19.2344 41.2725 18.8068C41.0604 18.3793 40.9544 17.8506 40.9544 17.2209V12.3636H42.4409V17.0419C42.4409 17.5623 42.585 17.9766 42.8734 18.2848C43.1618 18.593 43.5363 18.7472 43.997 18.7472C44.2754 18.7472 44.5521 18.6776 44.8272 18.5384C45.1056 18.3991 45.336 18.1887 45.5183 17.907C45.7039 17.6252 45.795 17.2673 45.7917 16.8331ZM49.3999 20V9.81818H50.8864V13.6016H50.9759C51.062 13.4425 51.1863 13.2585 51.3487 13.0497C51.5111 12.8409 51.7365 12.6586 52.0249 12.5028C52.3132 12.3438 52.6944 12.2642 53.1683 12.2642C53.7848 12.2642 54.335 12.42 54.8189 12.7315C55.3028 13.0431 55.6823 13.4922 55.9574 14.0788C56.2358 14.6655 56.375 15.3714 56.375 16.1967C56.375 17.022 56.2375 17.7296 55.9624 18.3196C55.6873 18.9062 55.3094 19.3587 54.8288 19.6768C54.3482 19.9917 53.7997 20.1491 53.1832 20.1491C52.7192 20.1491 52.3397 20.0713 52.0447 19.9155C51.7531 19.7597 51.5244 19.5774 51.3587 19.3686C51.1929 19.1598 51.0653 18.9742 50.9759 18.8118H50.8516V20H49.3999ZM50.8565 16.1818C50.8565 16.7187 50.9344 17.1894 51.0902 17.5938C51.246 17.9981 51.4714 18.3146 51.7663 18.5433C52.0613 18.7687 52.4226 18.8814 52.8501 18.8814C53.2943 18.8814 53.6655 18.7637 53.9638 18.5284C54.2621 18.2898 54.4875 17.9666 54.6399 17.5589C54.7957 17.1513 54.8736 16.6922 54.8736 16.1818C54.8736 15.678 54.7973 15.2256 54.6449 14.8246C54.4957 14.4235 54.2704 14.107 53.9688 13.875C53.6705 13.643 53.2976 13.527 52.8501 13.527C52.4193 13.527 52.0547 13.638 51.7564 13.8601C51.4614 14.0821 51.2377 14.392 51.0852 14.7898C50.9328 15.1875 50.8565 15.6515 50.8565 16.1818ZM59.5307 9.81818V20H58.0442V9.81818H59.5307ZM61.5305 20V12.3636H63.017V20H61.5305ZM62.2812 11.1854C62.0227 11.1854 61.8007 11.0992 61.6151 10.9268C61.4328 10.7512 61.3416 10.5424 61.3416 10.3004C61.3416 10.0552 61.4328 9.84635 61.6151 9.67401C61.8007 9.49834 62.0227 9.41051 62.2812 9.41051C62.5398 9.41051 62.7602 9.49834 62.9425 9.67401C63.1281 9.84635 63.2209 10.0552 63.2209 10.3004C63.2209 10.5424 63.1281 10.7512 62.9425 10.9268C62.7602 11.0992 62.5398 11.1854 62.2812 11.1854ZM70.7392 14.228L69.3919 14.4666C69.3355 14.2943 69.246 14.1302 69.1234 13.9744C69.0041 13.8187 68.8417 13.6911 68.6362 13.5916C68.4307 13.4922 68.1738 13.4425 67.8656 13.4425C67.4447 13.4425 67.0933 13.5369 66.8116 13.7259C66.5299 13.9115 66.389 14.1518 66.389 14.4467C66.389 14.7019 66.4835 14.9074 66.6724 15.0632C66.8613 15.219 67.1663 15.3466 67.5872 15.446L68.8002 15.7244C69.5029 15.8868 70.0266 16.1371 70.3713 16.4751C70.716 16.8132 70.8883 17.2524 70.8883 17.7926C70.8883 18.25 70.7557 18.6577 70.4906 19.0156C70.2288 19.3703 69.8625 19.6487 69.3919 19.8509C68.9245 20.053 68.3826 20.1541 67.7662 20.1541C66.911 20.1541 66.2134 19.9718 65.6731 19.6072C65.1329 19.2393 64.8014 18.7173 64.6788 18.0412L66.1156 17.8224C66.2051 18.197 66.389 18.4804 66.6674 18.6726C66.9458 18.8615 67.3088 18.956 67.7562 18.956C68.2434 18.956 68.6329 18.8549 68.9245 18.6527C69.2162 18.4472 69.362 18.197 69.362 17.902C69.362 17.6634 69.2725 17.4628 69.0936 17.3004C68.9179 17.138 68.6478 17.0154 68.2832 16.9325L66.9906 16.6491C66.278 16.4867 65.751 16.2282 65.4096 15.8736C65.0716 15.5189 64.9025 15.0698 64.9025 14.5263C64.9025 14.0755 65.0285 13.6811 65.2804 13.343C65.5323 13.005 65.8803 12.7415 66.3244 12.5526C66.7685 12.3603 67.2773 12.2642 67.8507 12.2642C68.676 12.2642 69.3256 12.4432 69.7995 12.8011C70.2735 13.1558 70.5867 13.6314 70.7392 14.228ZM74.0092 15.4659V20H72.5227V9.81818H73.9893V13.6065H74.0838C74.2628 13.1955 74.5362 12.8691 74.9041 12.6271C75.272 12.3852 75.7526 12.2642 76.3459 12.2642C76.8696 12.2642 77.3269 12.3719 77.718 12.5874C78.1125 12.8028 78.4174 13.1243 78.6328 13.5518C78.8516 13.9761 78.9609 14.5064 78.9609 15.1428V20H77.4744V15.3217C77.4744 14.7616 77.3303 14.3274 77.0419 14.0192C76.7536 13.7076 76.3525 13.5518 75.8388 13.5518C75.4875 13.5518 75.1726 13.6264 74.8942 13.7756C74.6191 13.9247 74.402 14.1435 74.2429 14.4318C74.0871 14.7169 74.0092 15.0616 74.0092 15.4659ZM84.2358 20.1541C83.4834 20.1541 82.8355 19.9934 82.2919 19.6719C81.7517 19.3471 81.334 18.8913 81.0391 18.3047C80.7474 17.7147 80.6016 17.0237 80.6016 16.2315C80.6016 15.4493 80.7474 14.7599 81.0391 14.1634C81.334 13.5668 81.745 13.1011 82.272 12.7663C82.8023 12.4316 83.4221 12.2642 84.1314 12.2642C84.5623 12.2642 84.9799 12.3355 85.3842 12.478C85.7886 12.6205 86.1515 12.8442 86.473 13.1491C86.7945 13.4541 87.0481 13.8501 87.2337 14.3374C87.4193 14.8213 87.5121 15.4096 87.5121 16.1023V16.6293H81.4418V15.5156H86.0554C86.0554 15.1245 85.9759 14.7782 85.8168 14.4766C85.6577 14.1716 85.4339 13.9313 85.1456 13.7557C84.8606 13.58 84.5258 13.4922 84.1413 13.4922C83.7237 13.4922 83.3591 13.5949 83.0476 13.8004C82.7393 14.0026 82.5007 14.2678 82.3317 14.5959C82.166 14.9207 82.0831 15.2737 82.0831 15.6548V16.5249C82.0831 17.0353 82.1726 17.4695 82.3516 17.8274C82.5339 18.1854 82.7874 18.4588 83.1122 18.6477C83.437 18.8333 83.8165 18.9261 84.2507 18.9261C84.5324 18.9261 84.7893 18.8864 85.0213 18.8068C85.2533 18.724 85.4538 18.6013 85.6229 18.4389C85.7919 18.2765 85.9212 18.076 86.0107 17.8374L87.4176 18.0909C87.3049 18.5052 87.1027 18.8681 86.8111 19.1797C86.5227 19.4879 86.1598 19.7282 85.7223 19.9006C85.2881 20.0696 84.7926 20.1541 84.2358 20.1541ZM92.0201 20.1491C91.4036 20.1491 90.8534 19.9917 90.3695 19.6768C89.8889 19.3587 89.5111 18.9062 89.236 18.3196C88.9642 17.7296 88.8283 17.022 88.8283 16.1967C88.8283 15.3714 88.9658 14.6655 89.2409 14.0788C89.5194 13.4922 89.9005 13.0431 90.3844 12.7315C90.8683 12.42 91.4168 12.2642 92.03 12.2642C92.504 12.2642 92.8851 12.3438 93.1735 12.5028C93.4651 12.6586 93.6905 12.8409 93.8496 13.0497C94.012 13.2585 94.138 13.4425 94.2275 13.6016H94.3169V9.81818H95.8034V20H94.3517V18.8118H94.2275C94.138 18.9742 94.0087 19.1598 93.8397 19.3686C93.6739 19.5774 93.4453 19.7597 93.1536 19.9155C92.8619 20.0713 92.4841 20.1491 92.0201 20.1491ZM92.3482 18.8814C92.7757 18.8814 93.137 18.7687 93.432 18.5433C93.7303 18.3146 93.9557 17.9981 94.1081 17.5938C94.2639 17.1894 94.3418 16.7187 94.3418 16.1818C94.3418 15.6515 94.2656 15.1875 94.1131 14.7898C93.9606 14.392 93.7369 14.0821 93.4419 13.8601C93.147 13.638 92.7824 13.527 92.3482 13.527C91.9007 13.527 91.5279 13.643 91.2296 13.875C90.9313 14.107 90.7059 14.4235 90.5534 14.8246C90.4043 15.2256 90.3297 15.678 90.3297 16.1818C90.3297 16.6922 90.406 17.1513 90.5584 17.5589C90.7109 17.9666 90.9363 18.2898 91.2346 18.5284C91.5362 18.7637 91.9074 18.8814 92.3482 18.8814Z" fill="#1A876D"/>
</svg>
