<svg width="87" height="29" viewBox="0 0 87 29" fill="none" xmlns="http://www.w3.org/2000/svg">
<rect width="87" height="29" rx="5" fill="#2F80ED" fill-opacity="0.13"/>
<circle cx="13" cy="14.5" r="5" fill="#2F80ED"/>
<path d="M31.6165 11.1406V9.81818H39.4964V11.1406H36.3196V20H34.7884V11.1406H31.6165ZM41.899 20L39.6518 12.3636H41.188L42.6845 17.9716H42.7591L44.2605 12.3636H45.7967L47.2882 17.9467H47.3627L48.8493 12.3636H50.3855L48.1433 20H46.627L45.0758 14.4865H44.9615L43.4103 20H41.899ZM51.7962 20V12.3636H53.2827V20H51.7962ZM52.5469 11.1854C52.2884 11.1854 52.0663 11.0992 51.8807 10.9268C51.6984 10.7512 51.6072 10.5424 51.6072 10.3004C51.6072 10.0552 51.6984 9.84635 51.8807 9.67401C52.0663 9.49834 52.2884 9.41051 52.5469 9.41051C52.8054 9.41051 53.0258 9.49834 53.2081 9.67401C53.3937 9.84635 53.4865 10.0552 53.4865 10.3004C53.4865 10.5424 53.3937 10.7512 53.2081 10.9268C53.0258 11.0992 52.8054 11.1854 52.5469 11.1854ZM58.8471 12.3636V13.5568H54.676V12.3636H58.8471ZM55.7946 10.5341H57.2811V17.7578C57.2811 18.0462 57.3242 18.2633 57.4103 18.4091C57.4965 18.5516 57.6075 18.6494 57.7434 18.7024C57.8826 18.7521 58.0334 18.777 58.1958 18.777C58.3152 18.777 58.4196 18.7687 58.5091 18.7521C58.5985 18.7356 58.6681 18.7223 58.7179 18.7124L58.9863 19.9403C58.9002 19.9735 58.7775 20.0066 58.6184 20.0398C58.4593 20.0762 58.2605 20.0961 58.0218 20.0994C57.6307 20.1061 57.2662 20.0365 56.9281 19.8906C56.59 19.7448 56.3166 19.5194 56.1078 19.2145C55.899 18.9096 55.7946 18.5268 55.7946 18.0661V10.5341ZM64.0561 12.3636V13.5568H59.8849V12.3636H64.0561ZM61.0036 10.5341H62.4901V17.7578C62.4901 18.0462 62.5331 18.2633 62.6193 18.4091C62.7055 18.5516 62.8165 18.6494 62.9524 18.7024C63.0916 18.7521 63.2424 18.777 63.4048 18.777C63.5241 18.777 63.6286 18.7687 63.718 18.7521C63.8075 18.7356 63.8771 18.7223 63.9268 18.7124L64.1953 19.9403C64.1091 19.9735 63.9865 20.0066 63.8274 20.0398C63.6683 20.0762 63.4695 20.0961 63.2308 20.0994C62.8397 20.1061 62.4751 20.0365 62.1371 19.8906C61.799 19.7448 61.5256 19.5194 61.3168 19.2145C61.108 18.9096 61.0036 18.5268 61.0036 18.0661V10.5341ZM68.9096 20.1541C68.1573 20.1541 67.5093 19.9934 66.9657 19.6719C66.4255 19.3471 66.0079 18.8913 65.7129 18.3047C65.4212 17.7147 65.2754 17.0237 65.2754 16.2315C65.2754 15.4493 65.4212 14.7599 65.7129 14.1634C66.0079 13.5668 66.4189 13.1011 66.9458 12.7663C67.4761 12.4316 68.0959 12.2642 68.8052 12.2642C69.2361 12.2642 69.6537 12.3355 70.0581 12.478C70.4624 12.6205 70.8253 12.8442 71.1468 13.1491C71.4683 13.4541 71.7219 13.8501 71.9075 14.3374C72.0931 14.8213 72.1859 15.4096 72.1859 16.1023V16.6293H66.1156V15.5156H70.7292C70.7292 15.1245 70.6497 14.7782 70.4906 14.4766C70.3315 14.1716 70.1078 13.9313 69.8194 13.7557C69.5344 13.58 69.1996 13.4922 68.8152 13.4922C68.3975 13.4922 68.033 13.5949 67.7214 13.8004C67.4132 14.0026 67.1745 14.2678 67.0055 14.5959C66.8398 14.9207 66.7569 15.2737 66.7569 15.6548V16.5249C66.7569 17.0353 66.8464 17.4695 67.0254 17.8274C67.2077 18.1854 67.4612 18.4588 67.786 18.6477C68.1109 18.8333 68.4904 18.9261 68.9245 18.9261C69.2063 18.9261 69.4631 18.8864 69.6951 18.8068C69.9271 18.724 70.1277 18.6013 70.2967 18.4389C70.4657 18.2765 70.595 18.076 70.6845 17.8374L72.0914 18.0909C71.9788 18.5052 71.7766 18.8681 71.4849 19.1797C71.1966 19.4879 70.8336 19.7282 70.3961 19.9006C69.9619 20.0696 69.4664 20.1541 68.9096 20.1541ZM73.8352 20V12.3636H75.272V13.5767H75.3516C75.4908 13.1657 75.736 12.8426 76.0874 12.6072C76.442 12.3686 76.843 12.2493 77.2905 12.2493C77.3833 12.2493 77.4927 12.2526 77.6186 12.2592C77.7479 12.2659 77.849 12.2741 77.9219 12.2841V13.706C77.8622 13.6894 77.7562 13.6712 77.6037 13.6513C77.4512 13.6281 77.2988 13.6165 77.1463 13.6165C76.795 13.6165 76.4818 13.6911 76.2067 13.8402C75.9349 13.986 75.7195 14.1899 75.5604 14.4517C75.4013 14.7102 75.3217 15.0052 75.3217 15.3366V20H73.8352Z" fill="#2F80ED"/>
</svg>
