<svg width="104" height="29" viewBox="0 0 104 29" fill="none" xmlns="http://www.w3.org/2000/svg">
<rect width="104" height="29" rx="5" fill="#FFE8D2"/>
<circle cx="13" cy="14.5" r="5" fill="#FF9F43"/>
<path d="M38.6662 9.81818H40.2074V16.5149C40.2074 17.2275 40.04 17.8589 39.7053 18.4091C39.3705 18.956 38.8999 19.3868 38.2933 19.7017C37.6868 20.0133 36.9759 20.169 36.1605 20.169C35.3485 20.169 34.6392 20.0133 34.0327 19.7017C33.4261 19.3868 32.9555 18.956 32.6207 18.4091C32.286 17.8589 32.1186 17.2275 32.1186 16.5149V9.81818H33.6548V16.3906C33.6548 16.8513 33.7559 17.2607 33.9581 17.6186C34.1636 17.9766 34.4536 18.2583 34.8281 18.4638C35.2027 18.666 35.6468 18.767 36.1605 18.767C36.6776 18.767 37.1233 18.666 37.4979 18.4638C37.8757 18.2583 38.1641 17.9766 38.3629 17.6186C38.5651 17.2607 38.6662 16.8513 38.6662 16.3906V9.81818ZM42.3216 22.8636V12.3636H43.7733V13.6016H43.8975C43.9837 13.4425 44.108 13.2585 44.2704 13.0497C44.4328 12.8409 44.6582 12.6586 44.9466 12.5028C45.2349 12.3438 45.6161 12.2642 46.09 12.2642C46.7065 12.2642 47.2567 12.42 47.7406 12.7315C48.2245 13.0431 48.604 13.4922 48.8791 14.0788C49.1575 14.6655 49.2967 15.3714 49.2967 16.1967C49.2967 17.022 49.1592 17.7296 48.8841 18.3196C48.609 18.9062 48.2311 19.3587 47.7505 19.6768C47.2699 19.9917 46.7214 20.1491 46.1049 20.1491C45.6409 20.1491 45.2614 20.0713 44.9664 19.9155C44.6748 19.7597 44.4461 19.5774 44.2804 19.3686C44.1146 19.1598 43.987 18.9742 43.8975 18.8118H43.8081V22.8636H42.3216ZM43.7782 16.1818C43.7782 16.7187 43.8561 17.1894 44.0119 17.5938C44.1677 17.9981 44.3931 18.3146 44.688 18.5433C44.983 18.7687 45.3443 18.8814 45.7718 18.8814C46.216 18.8814 46.5872 18.7637 46.8855 18.5284C47.1838 18.2898 47.4092 17.9666 47.5616 17.5589C47.7174 17.1513 47.7953 16.6922 47.7953 16.1818C47.7953 15.678 47.719 15.2256 47.5666 14.8246C47.4174 14.4235 47.1921 14.107 46.8904 13.875C46.5922 13.643 46.2193 13.527 45.7718 13.527C45.341 13.527 44.9764 13.638 44.6781 13.8601C44.3831 14.0821 44.1594 14.392 44.0069 14.7898C43.8545 15.1875 43.7782 15.6515 43.7782 16.1818ZM52.4487 9.81818V20H50.9622V9.81818H52.4487ZM57.6651 20.1541C56.9492 20.1541 56.3245 19.9901 55.7908 19.6619C55.2572 19.3338 54.8429 18.8748 54.5479 18.2848C54.253 17.6948 54.1055 17.0054 54.1055 16.2166C54.1055 15.4245 54.253 14.7318 54.5479 14.1385C54.8429 13.5452 55.2572 13.0845 55.7908 12.7564C56.3245 12.4283 56.9492 12.2642 57.6651 12.2642C58.381 12.2642 59.0058 12.4283 59.5394 12.7564C60.073 13.0845 60.4873 13.5452 60.7823 14.1385C61.0773 14.7318 61.2248 15.4245 61.2248 16.2166C61.2248 17.0054 61.0773 17.6948 60.7823 18.2848C60.4873 18.8748 60.073 19.3338 59.5394 19.6619C59.0058 19.9901 58.381 20.1541 57.6651 20.1541ZM57.6701 18.9062C58.1341 18.9062 58.5186 18.7836 58.8235 18.5384C59.1284 18.2931 59.3538 17.9666 59.4996 17.5589C59.6488 17.1513 59.7234 16.7022 59.7234 16.2116C59.7234 15.7244 59.6488 15.277 59.4996 14.8693C59.3538 14.4583 59.1284 14.1286 58.8235 13.88C58.5186 13.6314 58.1341 13.5071 57.6701 13.5071C57.2028 13.5071 56.815 13.6314 56.5067 13.88C56.2018 14.1286 55.9748 14.4583 55.8256 14.8693C55.6798 15.277 55.6069 15.7244 55.6069 16.2116C55.6069 16.7022 55.6798 17.1513 55.8256 17.5589C55.9748 17.9666 56.2018 18.2931 56.5067 18.5384C56.815 18.7836 57.2028 18.9062 57.6701 18.9062ZM65.1064 20.169C64.6225 20.169 64.185 20.0795 63.7939 19.9006C63.4028 19.7183 63.0929 19.4548 62.8642 19.1101C62.6388 18.7654 62.5261 18.3428 62.5261 17.8423C62.5261 17.4115 62.609 17.0568 62.7747 16.7784C62.9404 16.5 63.1641 16.2796 63.4458 16.1172C63.7276 15.9548 64.0424 15.8321 64.3904 15.7493C64.7385 15.6664 65.0931 15.6035 65.4544 15.5604C65.9118 15.5073 66.283 15.4643 66.568 15.4311C66.853 15.3946 67.0602 15.3366 67.1895 15.2571C67.3187 15.1776 67.3833 15.0483 67.3833 14.8693V14.8345C67.3833 14.4003 67.2607 14.0639 67.0154 13.8253C66.7735 13.5866 66.4122 13.4673 65.9316 13.4673C65.4312 13.4673 65.0368 13.5784 64.7484 13.8004C64.4634 14.0192 64.2662 14.2628 64.1568 14.5312L62.7598 14.2131C62.9255 13.7491 63.1674 13.3745 63.4856 13.0895C63.8071 12.8011 64.1767 12.5923 64.5943 12.4631C65.0119 12.3305 65.4511 12.2642 65.9118 12.2642C66.2167 12.2642 66.5398 12.3007 66.8812 12.3736C67.2259 12.4432 67.5474 12.5724 67.8457 12.7614C68.1473 12.9503 68.3942 13.2204 68.5865 13.5717C68.7787 13.9197 68.8748 14.3722 68.8748 14.929V20H67.4231V18.956H67.3635C67.2673 19.1482 67.1232 19.3371 66.9309 19.5227C66.7387 19.7083 66.4918 19.8625 66.1902 19.9851C65.8886 20.1077 65.5273 20.169 65.1064 20.169ZM65.4295 18.9759C65.8405 18.9759 66.1918 18.8946 66.4835 18.7322C66.7785 18.5698 67.0022 18.3577 67.1547 18.0959C67.3104 17.8307 67.3883 17.5473 67.3883 17.2457V16.2614C67.3353 16.3144 67.2325 16.3641 67.0801 16.4105C66.9309 16.4536 66.7602 16.4917 66.568 16.5249C66.3758 16.5547 66.1885 16.5829 66.0062 16.6094C65.8239 16.6326 65.6715 16.6525 65.5488 16.669C65.2605 16.7055 64.997 16.7668 64.7583 16.853C64.523 16.9392 64.3341 17.0634 64.1916 17.2259C64.0524 17.3849 63.9828 17.5971 63.9828 17.8622C63.9828 18.2301 64.1187 18.5085 64.3904 18.6974C64.6622 18.883 65.0086 18.9759 65.4295 18.9759ZM73.7134 20.1491C73.0969 20.1491 72.5468 19.9917 72.0629 19.6768C71.5823 19.3587 71.2044 18.9062 70.9293 18.3196C70.6576 17.7296 70.5217 17.022 70.5217 16.1967C70.5217 15.3714 70.6592 14.6655 70.9343 14.0788C71.2127 13.4922 71.5939 13.0431 72.0778 12.7315C72.5617 12.42 73.1102 12.2642 73.7234 12.2642C74.1973 12.2642 74.5785 12.3438 74.8668 12.5028C75.1585 12.6586 75.3839 12.8409 75.543 13.0497C75.7054 13.2585 75.8313 13.4425 75.9208 13.6016H76.0103V9.81818H77.4968V20H76.0451V18.8118H75.9208C75.8313 18.9742 75.7021 19.1598 75.533 19.3686C75.3673 19.5774 75.1386 19.7597 74.8469 19.9155C74.5553 20.0713 74.1774 20.1491 73.7134 20.1491ZM74.0415 18.8814C74.4691 18.8814 74.8304 18.7687 75.1254 18.5433C75.4237 18.3146 75.649 17.9981 75.8015 17.5938C75.9573 17.1894 76.0352 16.7187 76.0352 16.1818C76.0352 15.6515 75.9589 15.1875 75.8065 14.7898C75.654 14.392 75.4303 14.0821 75.1353 13.8601C74.8403 13.638 74.4757 13.527 74.0415 13.527C73.5941 13.527 73.2212 13.643 72.9229 13.875C72.6246 14.107 72.3993 14.4235 72.2468 14.8246C72.0977 15.2256 72.0231 15.678 72.0231 16.1818C72.0231 16.6922 72.0993 17.1513 72.2518 17.5589C72.4042 17.9666 72.6296 18.2898 72.9279 18.5284C73.2295 18.7637 73.6007 18.8814 74.0415 18.8814ZM82.9096 20.1541C82.1573 20.1541 81.5093 19.9934 80.9657 19.6719C80.4255 19.3471 80.0079 18.8913 79.7129 18.3047C79.4212 17.7147 79.2754 17.0237 79.2754 16.2315C79.2754 15.4493 79.4212 14.7599 79.7129 14.1634C80.0079 13.5668 80.4189 13.1011 80.9458 12.7663C81.4761 12.4316 82.0959 12.2642 82.8052 12.2642C83.2361 12.2642 83.6537 12.3355 84.0581 12.478C84.4624 12.6205 84.8253 12.8442 85.1468 13.1491C85.4683 13.4541 85.7219 13.8501 85.9075 14.3374C86.0931 14.8213 86.1859 15.4096 86.1859 16.1023V16.6293H80.1156V15.5156H84.7292C84.7292 15.1245 84.6497 14.7782 84.4906 14.4766C84.3315 14.1716 84.1078 13.9313 83.8194 13.7557C83.5344 13.58 83.1996 13.4922 82.8152 13.4922C82.3975 13.4922 82.033 13.5949 81.7214 13.8004C81.4132 14.0026 81.1745 14.2678 81.0055 14.5959C80.8398 14.9207 80.7569 15.2737 80.7569 15.6548V16.5249C80.7569 17.0353 80.8464 17.4695 81.0254 17.8274C81.2077 18.1854 81.4612 18.4588 81.786 18.6477C82.1109 18.8333 82.4904 18.9261 82.9245 18.9261C83.2063 18.9261 83.4631 18.8864 83.6951 18.8068C83.9271 18.724 84.1277 18.6013 84.2967 18.4389C84.4657 18.2765 84.595 18.076 84.6845 17.8374L86.0914 18.0909C85.9788 18.5052 85.7766 18.8681 85.4849 19.1797C85.1966 19.4879 84.8336 19.7282 84.3961 19.9006C83.9619 20.0696 83.4664 20.1541 82.9096 20.1541ZM90.6939 20.1491C90.0774 20.1491 89.5272 19.9917 89.0433 19.6768C88.5627 19.3587 88.1849 18.9062 87.9098 18.3196C87.638 17.7296 87.5021 17.022 87.5021 16.1967C87.5021 15.3714 87.6397 14.6655 87.9148 14.0788C88.1932 13.4922 88.5743 13.0431 89.0582 12.7315C89.5421 12.42 90.0907 12.2642 90.7038 12.2642C91.1778 12.2642 91.5589 12.3438 91.8473 12.5028C92.139 12.6586 92.3643 12.8409 92.5234 13.0497C92.6858 13.2585 92.8118 13.4425 92.9013 13.6016H92.9908V9.81818H94.4773V20H93.0256V18.8118H92.9013C92.8118 18.9742 92.6825 19.1598 92.5135 19.3686C92.3478 19.5774 92.1191 19.7597 91.8274 19.9155C91.5357 20.0713 91.1579 20.1491 90.6939 20.1491ZM91.022 18.8814C91.4496 18.8814 91.8108 18.7687 92.1058 18.5433C92.4041 18.3146 92.6295 17.9981 92.782 17.5938C92.9377 17.1894 93.0156 16.7187 93.0156 16.1818C93.0156 15.6515 92.9394 15.1875 92.7869 14.7898C92.6345 14.392 92.4107 14.0821 92.1158 13.8601C91.8208 13.638 91.4562 13.527 91.022 13.527C90.5746 13.527 90.2017 13.643 89.9034 13.875C89.6051 14.107 89.3797 14.4235 89.2273 14.8246C89.0781 15.2256 89.0036 15.678 89.0036 16.1818C89.0036 16.6922 89.0798 17.1513 89.2322 17.5589C89.3847 17.9666 89.6101 18.2898 89.9084 18.5284C90.21 18.7637 90.5812 18.8814 91.022 18.8814Z" fill="#8A5828"/>
</svg>
